M48
; DRILL file KiCad 10.0.1 date 2026-05-25T11:42:26
; FORMAT={-:-/ absolute / metric / decimal}
; #@! TF.CreationDate,2026-05-25T11:42:26-07:00
; #@! TF.GenerationSoftware,Kicad,Pcbnew,10.0.1
; #@! TF.FileFunction,Plated,1,4,PTH
FMAT,2
METRIC
; #@! TA.AperFunction,Plated,PTH,ComponentDrill
T1C0.300
; #@! TA.AperFunction,Plated,PTH,ViaDrill
T2C0.350
; #@! TA.AperFunction,Plated,PTH,ComponentDrill
T3C0.350
; #@! TA.AperFunction,Plated,PTH,ComponentDrill
T4C0.500
; #@! TA.AperFunction,Plated,PTH,ComponentDrill
T5C1.000
; #@! TA.AperFunction,Plated,PTH,ComponentDrill
T6C2.500
; #@! TA.AperFunction,Plated,PTH,ComponentDrill
T7C4.500
%
G90
G05
T1
X235.8Y-159.6
X235.8Y-160.8
X235.8Y-162.0
X235.8Y-163.2
X235.8Y-164.4
X235.8Y-165.6
X235.8Y-166.8
X235.8Y-171.0
X235.8Y-172.2
X235.8Y-173.4
X235.8Y-174.6
X235.8Y-175.8
X235.8Y-177.0
X235.8Y-178.2
X237.0Y-159.6
X237.0Y-160.8
X237.0Y-162.0
X237.0Y-163.2
X237.0Y-164.4
X237.0Y-165.6
X237.0Y-166.8
X237.0Y-171.0
X237.0Y-172.2
X237.0Y-173.4
X237.0Y-174.6
X237.0Y-175.8
X237.0Y-177.0
X237.0Y-178.2
X238.2Y-159.6
X238.2Y-160.8
X238.2Y-162.0
X238.2Y-163.2
X238.2Y-164.4
X238.2Y-165.6
X238.2Y-166.8
X238.2Y-171.0
X238.2Y-172.2
X238.2Y-173.4
X238.2Y-174.6
X238.2Y-175.8
X238.2Y-177.0
X238.2Y-178.2
X239.4Y-159.6
X239.4Y-160.8
X239.4Y-162.0
X239.4Y-163.2
X239.4Y-164.4
X239.4Y-165.6
X239.4Y-166.8
X239.4Y-171.0
X239.4Y-172.2
X239.4Y-173.4
X239.4Y-174.6
X239.4Y-175.8
X239.4Y-177.0
X239.4Y-178.2
X240.6Y-159.6
X240.6Y-160.8
X240.6Y-162.0
X240.6Y-163.2
X240.6Y-164.4
X240.6Y-165.6
X240.6Y-166.8
X240.6Y-171.0
X240.6Y-172.2
X240.6Y-173.4
X240.6Y-174.6
X240.6Y-175.8
X240.6Y-177.0
X240.6Y-178.2
X241.8Y-159.6
X241.8Y-160.8
X241.8Y-162.0
X241.8Y-163.2
X241.8Y-164.4
X241.8Y-165.6
X241.8Y-166.8
X241.8Y-171.0
X241.8Y-172.2
X241.8Y-173.4
X241.8Y-174.6
X241.8Y-175.8
X241.8Y-177.0
X241.8Y-178.2
X247.9Y-145.0
X247.9Y-146.2
X247.9Y-147.4
X247.9Y-148.6
X247.9Y-149.8
X247.9Y-151.0
X249.1Y-145.0
X249.1Y-146.2
X249.1Y-147.4
X249.1Y-148.6
X249.1Y-149.8
X249.1Y-151.0
X250.3Y-145.0
X250.3Y-146.2
X250.3Y-147.4
X250.3Y-148.6
X250.3Y-149.8
X250.3Y-151.0
X251.5Y-145.0
X251.5Y-146.2
X251.5Y-147.4
X251.5Y-148.6
X251.5Y-149.8
X251.5Y-151.0
X252.7Y-145.0
X252.7Y-146.2
X252.7Y-147.4
X252.7Y-148.6
X252.7Y-149.8
X252.7Y-151.0
X253.9Y-145.0
X253.9Y-146.2
X253.9Y-147.4
X253.9Y-148.6
X253.9Y-149.8
X253.9Y-151.0
X255.1Y-145.0
X255.1Y-146.2
X255.1Y-147.4
X255.1Y-148.6
X255.1Y-149.8
X255.1Y-151.0
X259.1Y-131.92
X259.1Y-133.12
X259.1Y-134.32
X259.1Y-135.52
X259.1Y-136.72
X259.1Y-137.92
X260.3Y-131.92
X260.3Y-133.12
X260.3Y-134.32
X260.3Y-135.52
X260.3Y-136.72
X260.3Y-137.92
X261.5Y-131.92
X261.5Y-133.12
X261.5Y-134.32
X261.5Y-135.52
X261.5Y-136.72
X261.5Y-137.92
X262.7Y-131.92
X262.7Y-133.12
X262.7Y-134.32
X262.7Y-135.52
X262.7Y-136.72
X262.7Y-137.92
X263.9Y-131.92
X263.9Y-133.12
X263.9Y-134.32
X263.9Y-135.52
X263.9Y-136.72
X263.9Y-137.92
X265.1Y-131.92
X265.1Y-133.12
X265.1Y-134.32
X265.1Y-135.52
X265.1Y-136.72
X265.1Y-137.92
X266.3Y-131.92
X266.3Y-133.12
X266.3Y-134.32
X266.3Y-135.52
X266.3Y-136.72
X266.3Y-137.92
X271.0Y-123.82
X271.0Y-125.02
X271.0Y-126.22
X271.0Y-127.42
X271.0Y-128.62
X271.0Y-129.82
X272.2Y-123.82
X272.2Y-125.02
X272.2Y-126.22
X272.2Y-127.42
X272.2Y-128.62
X272.2Y-129.82
X273.4Y-123.82
X273.4Y-125.02
X273.4Y-126.22
X273.4Y-127.42
X273.4Y-128.62
X273.4Y-129.82
X274.6Y-123.82
X274.6Y-125.02
X274.6Y-126.22
X274.6Y-127.42
X274.6Y-128.62
X274.6Y-129.82
X275.8Y-123.82
X275.8Y-125.02
X275.8Y-126.22
X275.8Y-127.42
X275.8Y-128.62
X275.8Y-129.82
X277.0Y-123.82
X277.0Y-125.02
X277.0Y-126.22
X277.0Y-127.42
X277.0Y-128.62
X277.0Y-129.82
X278.2Y-123.82
X278.2Y-125.02
X278.2Y-126.22
X278.2Y-127.42
X278.2Y-128.62
X278.2Y-129.82
X281.9Y-125.4
X281.9Y-126.6
X281.9Y-127.8
X281.9Y-129.0
X281.9Y-130.2
X281.9Y-131.4
X283.1Y-125.4
X283.1Y-126.6
X283.1Y-127.8
X283.1Y-129.0
X283.1Y-130.2
X283.1Y-131.4
X284.3Y-125.4
X284.3Y-126.6
X284.3Y-127.8
X284.3Y-129.0
X284.3Y-130.2
X284.3Y-131.4
X285.5Y-125.4
X285.5Y-126.6
X285.5Y-127.8
X285.5Y-129.0
X285.5Y-130.2
X285.5Y-131.4
X286.7Y-125.4
X286.7Y-126.6
X286.7Y-127.8
X286.7Y-129.0
X286.7Y-130.2
X286.7Y-131.4
X287.9Y-125.4
X287.9Y-126.6
X287.9Y-127.8
X287.9Y-129.0
X287.9Y-130.2
X287.9Y-131.4
X289.1Y-125.4
X289.1Y-126.6
X289.1Y-127.8
X289.1Y-129.0
X289.1Y-130.2
X289.1Y-131.4
T2
X212.5Y-181.6
X212.5Y-185.6
X231.4Y-165.15
X231.4Y-168.25
X238.237Y-156.4
X239.962Y-156.4
X247.537Y-154.0
X249.262Y-154.0
X259.6Y-201.65
X261.45Y-146.4
X264.55Y-146.4
X265.299Y-208.561
X265.3Y-194.362
X265.5Y-207.5
X266.101Y-209.364
X267.4Y-192.8
X267.965Y-209.462
X269.1Y-205.0
X269.1Y-208.6
X269.1Y-209.462
X273.3Y-155.3
X273.45Y-137.92
X273.7Y-155.9
X274.298Y-155.062
X274.9Y-154.2
X275.3Y-154.9
X276.55Y-137.92
X276.8Y-152.8
X277.3Y-153.4
X277.902Y-152.538
X278.6Y-151.6
X279.0Y-152.3
X281.65Y-153.169
X281.792Y-150.212
X281.85Y-154.769
X282.892Y-149.112
X283.012Y-151.431
X283.037Y-134.3
X284.112Y-150.331
X284.509Y-148.871
X284.762Y-134.3
X285.312Y-148.068
X285.7Y-158.4
X286.588Y-148.831
X287.808Y-147.612
X288.04Y-149.679
X288.33Y-158.189
X289.26Y-148.46
X289.55Y-156.969
X289.778Y-158.522
X290.622Y-157.678
X291.0Y-153.8
X291.278Y-158.522
X293.3Y-110.0
X293.3Y-113.25
X293.3Y-116.5
X293.7Y-152.0
X294.2Y-148.8
X294.8Y-148.1
X295.3Y-147.4
X296.1Y-146.7
X296.55Y-145.75
X296.8Y-158.3
X296.9Y-160.7
X297.2Y-144.2
X297.3Y-110.0
X297.3Y-113.25
X297.3Y-116.5
X298.0Y-158.6
X298.7Y-160.0
X298.85Y-125.9
X298.85Y-130.1
X300.1Y-156.6
X300.2Y-152.0
X301.2Y-282.5
X301.202Y-277.5
X301.422Y-158.322
X302.8Y-152.7
X303.767Y-149.299
X304.1Y-147.2
X304.502Y-277.5
X304.502Y-282.5
X304.643Y-157.045
X304.659Y-149.459
X304.9Y-151.8
X304.997Y-159.803
X305.185Y-275.075
X305.185Y-280.085
X305.185Y-285.075
X305.4Y-149.9
X305.7Y-150.8
X305.812Y-125.9
X305.812Y-130.1
X305.9Y-155.1
X306.003Y-156.038
X306.1Y-148.1
X306.598Y-154.302
X306.6Y-150.6
X306.799Y-147.299
X306.925Y-116.0
X306.925Y-120.2
X307.15Y-145.55
X307.4Y-153.5
X307.601Y-148.101
X307.799Y-155.602
X307.947Y-278.03
X307.947Y-280.53
X307.947Y-283.03
X307.947Y-285.53
X307.952Y-275.529
X308.298Y-159.0
X308.398Y-145.5
X308.6Y-141.7
X308.602Y-154.8
X308.998Y-156.802
X309.001Y-143.301
X309.2Y-146.302
X309.5Y-157.7
X309.8Y-156.0
X309.907Y-156.847
X310.1Y-160.6
X310.2Y-148.6
X310.3Y-158.1
X310.4Y-159.3
X310.95Y-160.55
X311.599Y-148.701
X311.999Y-153.401
X312.04Y-160.34
X312.2Y-143.1
X312.21Y-277.575
X312.21Y-282.575
X312.8Y-140.8
X313.075Y-142.975
X313.2Y-160.78
X313.298Y-274.6
X313.298Y-280.0
X313.298Y-285.5
X313.998Y-157.7
X314.012Y-116.0
X314.012Y-120.2
X314.8Y-158.502
X315.787Y-125.3
X315.899Y-153.101
X315.912Y-129.5
X316.399Y-149.801
X316.795Y-274.6
X316.798Y-280.0
X316.798Y-285.5
X317.498Y-156.1
X317.798Y-143.702
X317.8Y-277.9
X318.198Y-155.4
X318.3Y-156.902
X318.35Y-277.35
X318.6Y-142.9
X318.7Y-154.5
X318.799Y-150.501
X319.0Y-282.6
X319.0Y-156.202
X319.3Y-155.2
X319.5Y-283.1
X319.6Y-156.9
X320.0Y-154.5
X320.298Y-148.8
X320.3Y-156.0
X320.498Y-151.3
X321.1Y-149.602
X321.2Y-156.4
X321.3Y-152.102
X321.499Y-145.201
X321.699Y-144.001
X321.8Y-148.902
X321.898Y-150.802
X322.0Y-158.5
X322.501Y-143.199
X322.7Y-150.0
X322.9Y-156.894
X323.15Y-125.3
X323.15Y-129.5
X323.299Y-148.001
X323.5Y-157.591
X324.621Y-150.324
X324.779Y-153.381
X325.001Y-151.397
X325.858Y-146.772
X326.176Y-150.079
X327.021Y-150.924
X327.398Y-145.245
X327.699Y-149.801
X328.085Y-147.487
X329.799Y-150.401
X330.476Y-145.779
X330.548Y-148.704
X330.599Y-151.601
X331.321Y-146.624
X331.79Y-120.73
X332.299Y-149.901
X335.6Y-123.375
X338.9Y-123.375
X340.5Y-155.1
X341.9Y-139.3
X343.78Y-276.88
X343.8Y-272.3
X344.6Y-142.4
X347.2Y-275.95
X348.4Y-154.6
X349.0Y-165.7
X349.6Y-153.976
X350.1Y-267.9
X350.6Y-268.6
X350.887Y-274.65
X351.1Y-269.301
X351.6Y-269.997
X352.2Y-270.645
X352.7Y-271.335
X353.3Y-272.02
X353.8Y-272.739
X354.6Y-273.3
X355.1Y-274.0
X358.2Y-179.512
X360.74Y-179.512
X362.297Y-197.9
X362.812Y-211.9
X363.9Y-149.5
X364.0Y-195.4
X364.0Y-200.2
X364.5Y-150.9
X365.3Y-147.4
X366.3Y-149.5
X368.3Y-150.9
X370.005Y-154.588
X371.6Y-156.167
X372.55Y-215.45
X373.1Y-216.0
X373.8Y-216.7
X377.0Y-227.612
X379.1Y-228.762
X379.35Y-180.1
X382.662Y-216.712
X383.5Y-225.112
X383.6Y-230.425
X384.35Y-177.4
X384.95Y-206.803
X384.987Y-208.5
X385.3Y-230.425
X385.95Y-227.017
X386.3Y-218.4
X386.702Y-228.512
X386.712Y-208.5
X386.85Y-204.2
X387.475Y-199.7
X388.45Y-220.012
X388.512Y-211.5
X388.537Y-203.4
X389.267Y-223.312
X390.262Y-203.4
X390.45Y-211.6
X390.6Y-220.8
X391.3Y-218.8
X392.1Y-219.9
X392.212Y-211.5
X392.7Y-218.8
X393.9Y-196.4
X396.7Y-218.8
X397.2Y-220.0
X397.3Y-217.6
X397.9Y-218.9
T3
X284.514Y-153.452
X284.514Y-154.887
X285.231Y-154.169
X285.482Y-152.483
X285.482Y-155.856
X286.2Y-153.201
X286.2Y-155.138
X286.918Y-152.483
X286.918Y-155.856
X287.169Y-154.169
X287.886Y-153.452
X287.886Y-154.887
X312.255Y-151.072
X312.892Y-151.708
X312.963Y-150.365
X313.493Y-152.309
X313.599Y-151.001
X313.67Y-149.658
X314.2Y-151.602
X314.306Y-150.294
X315.084Y-151.072
T4
X265.1Y-188.762
X265.1Y-191.262
X266.1Y-188.762
X266.1Y-191.262
X267.1Y-188.762
X267.1Y-191.262
X268.1Y-188.762
X268.1Y-191.262
T5
X331.3Y-123.86
X331.3Y-126.4
X331.3Y-128.94
X348.56Y-132.4
X351.1Y-132.4
X353.64Y-132.4
T6
X230.7Y-189.5
X230.7Y-196.5
X230.7Y-213.0
X230.7Y-220.0
X238.7Y-200.2
X238.7Y-207.7
T7
X295.2Y-246.8
X302.4Y-246.8
X314.9Y-246.8
X322.1Y-246.8
X353.5Y-220.2
X353.5Y-227.4
M30
