%TF.GenerationSoftware,KiCad,Pcbnew,10.0.1*%
%TF.CreationDate,2026-05-27T22:49:05-07:00*%
%TF.ProjectId,eye-of-terror,6579652d-6f66-42d7-9465-72726f722e6b,rev?*%
%TF.SameCoordinates,Original*%
%TF.FileFunction,Drillmap*%
%TF.FilePolarity,Positive*%
%FSLAX45Y45*%
G04 Gerber Fmt 4.5, Leading zero omitted, Abs format (unit mm)*
G04 Created by KiCad (PCBNEW 10.0.1) date 2026-05-27 22:49:05*
%MOMM*%
%LPD*%
G01*
G04 APERTURE LIST*
%ADD10C,0.250000*%
%ADD11C,0.050000*%
%ADD12C,0.200000*%
%ADD13C,0.100000*%
%ADD14C,0.450000*%
G04 APERTURE END LIST*
D10*
X27120000Y-16158043D02*
X27120000Y-23658043D01*
X27120000Y-23658043D02*
X34620000Y-23658043D01*
X40870000Y-19908043D02*
G75*
G02*
X20870000Y-19908043I-10000000J0D01*
G01*
X20870000Y-19908043D02*
G75*
G02*
X40870000Y-19908043I10000000J0D01*
G01*
X34620000Y-16158043D02*
X27120000Y-16158043D01*
X34620000Y-23658043D02*
X34620000Y-16158043D01*
D11*
X35090000Y-18141250D02*
X36290000Y-18141250D01*
X36290000Y-19141250D01*
X35090000Y-19141250D01*
X35090000Y-18141250D01*
D12*
D13*
X23565000Y-15945000D02*
X23595000Y-15975000D01*
X23595000Y-15945000D02*
X23565000Y-15975000D01*
X23565000Y-16065000D02*
X23595000Y-16095000D01*
X23595000Y-16065000D02*
X23565000Y-16095000D01*
X23565000Y-16185000D02*
X23595000Y-16215000D01*
X23595000Y-16185000D02*
X23565000Y-16215000D01*
X23565000Y-16305000D02*
X23595000Y-16335000D01*
X23595000Y-16305000D02*
X23565000Y-16335000D01*
X23565000Y-16425000D02*
X23595000Y-16455000D01*
X23595000Y-16425000D02*
X23565000Y-16455000D01*
X23565000Y-16545000D02*
X23595000Y-16575000D01*
X23595000Y-16545000D02*
X23565000Y-16575000D01*
X23565000Y-16665000D02*
X23595000Y-16695000D01*
X23595000Y-16665000D02*
X23565000Y-16695000D01*
X23565000Y-17085000D02*
X23595000Y-17115000D01*
X23595000Y-17085000D02*
X23565000Y-17115000D01*
X23565000Y-17205000D02*
X23595000Y-17235000D01*
X23595000Y-17205000D02*
X23565000Y-17235000D01*
X23565000Y-17325000D02*
X23595000Y-17355000D01*
X23595000Y-17325000D02*
X23565000Y-17355000D01*
X23565000Y-17445000D02*
X23595000Y-17475000D01*
X23595000Y-17445000D02*
X23565000Y-17475000D01*
X23565000Y-17565000D02*
X23595000Y-17595000D01*
X23595000Y-17565000D02*
X23565000Y-17595000D01*
X23565000Y-17685000D02*
X23595000Y-17715000D01*
X23595000Y-17685000D02*
X23565000Y-17715000D01*
X23565000Y-17805000D02*
X23595000Y-17835000D01*
X23595000Y-17805000D02*
X23565000Y-17835000D01*
X23685000Y-15945000D02*
X23715000Y-15975000D01*
X23715000Y-15945000D02*
X23685000Y-15975000D01*
X23685000Y-16065000D02*
X23715000Y-16095000D01*
X23715000Y-16065000D02*
X23685000Y-16095000D01*
X23685000Y-16185000D02*
X23715000Y-16215000D01*
X23715000Y-16185000D02*
X23685000Y-16215000D01*
X23685000Y-16305000D02*
X23715000Y-16335000D01*
X23715000Y-16305000D02*
X23685000Y-16335000D01*
X23685000Y-16425000D02*
X23715000Y-16455000D01*
X23715000Y-16425000D02*
X23685000Y-16455000D01*
X23685000Y-16545000D02*
X23715000Y-16575000D01*
X23715000Y-16545000D02*
X23685000Y-16575000D01*
X23685000Y-16665000D02*
X23715000Y-16695000D01*
X23715000Y-16665000D02*
X23685000Y-16695000D01*
X23685000Y-17085000D02*
X23715000Y-17115000D01*
X23715000Y-17085000D02*
X23685000Y-17115000D01*
X23685000Y-17205000D02*
X23715000Y-17235000D01*
X23715000Y-17205000D02*
X23685000Y-17235000D01*
X23685000Y-17325000D02*
X23715000Y-17355000D01*
X23715000Y-17325000D02*
X23685000Y-17355000D01*
X23685000Y-17445000D02*
X23715000Y-17475000D01*
X23715000Y-17445000D02*
X23685000Y-17475000D01*
X23685000Y-17565000D02*
X23715000Y-17595000D01*
X23715000Y-17565000D02*
X23685000Y-17595000D01*
X23685000Y-17685000D02*
X23715000Y-17715000D01*
X23715000Y-17685000D02*
X23685000Y-17715000D01*
X23685000Y-17805000D02*
X23715000Y-17835000D01*
X23715000Y-17805000D02*
X23685000Y-17835000D01*
X23805000Y-15945000D02*
X23835000Y-15975000D01*
X23835000Y-15945000D02*
X23805000Y-15975000D01*
X23805000Y-16065000D02*
X23835000Y-16095000D01*
X23835000Y-16065000D02*
X23805000Y-16095000D01*
X23805000Y-16185000D02*
X23835000Y-16215000D01*
X23835000Y-16185000D02*
X23805000Y-16215000D01*
X23805000Y-16305000D02*
X23835000Y-16335000D01*
X23835000Y-16305000D02*
X23805000Y-16335000D01*
X23805000Y-16425000D02*
X23835000Y-16455000D01*
X23835000Y-16425000D02*
X23805000Y-16455000D01*
X23805000Y-16545000D02*
X23835000Y-16575000D01*
X23835000Y-16545000D02*
X23805000Y-16575000D01*
X23805000Y-16665000D02*
X23835000Y-16695000D01*
X23835000Y-16665000D02*
X23805000Y-16695000D01*
X23805000Y-17085000D02*
X23835000Y-17115000D01*
X23835000Y-17085000D02*
X23805000Y-17115000D01*
X23805000Y-17205000D02*
X23835000Y-17235000D01*
X23835000Y-17205000D02*
X23805000Y-17235000D01*
X23805000Y-17325000D02*
X23835000Y-17355000D01*
X23835000Y-17325000D02*
X23805000Y-17355000D01*
X23805000Y-17445000D02*
X23835000Y-17475000D01*
X23835000Y-17445000D02*
X23805000Y-17475000D01*
X23805000Y-17565000D02*
X23835000Y-17595000D01*
X23835000Y-17565000D02*
X23805000Y-17595000D01*
X23805000Y-17685000D02*
X23835000Y-17715000D01*
X23835000Y-17685000D02*
X23805000Y-17715000D01*
X23805000Y-17805000D02*
X23835000Y-17835000D01*
X23835000Y-17805000D02*
X23805000Y-17835000D01*
X23925000Y-15945000D02*
X23955000Y-15975000D01*
X23955000Y-15945000D02*
X23925000Y-15975000D01*
X23925000Y-16065000D02*
X23955000Y-16095000D01*
X23955000Y-16065000D02*
X23925000Y-16095000D01*
X23925000Y-16185000D02*
X23955000Y-16215000D01*
X23955000Y-16185000D02*
X23925000Y-16215000D01*
X23925000Y-16305000D02*
X23955000Y-16335000D01*
X23955000Y-16305000D02*
X23925000Y-16335000D01*
X23925000Y-16425000D02*
X23955000Y-16455000D01*
X23955000Y-16425000D02*
X23925000Y-16455000D01*
X23925000Y-16545000D02*
X23955000Y-16575000D01*
X23955000Y-16545000D02*
X23925000Y-16575000D01*
X23925000Y-16665000D02*
X23955000Y-16695000D01*
X23955000Y-16665000D02*
X23925000Y-16695000D01*
X23925000Y-17085000D02*
X23955000Y-17115000D01*
X23955000Y-17085000D02*
X23925000Y-17115000D01*
X23925000Y-17205000D02*
X23955000Y-17235000D01*
X23955000Y-17205000D02*
X23925000Y-17235000D01*
X23925000Y-17325000D02*
X23955000Y-17355000D01*
X23955000Y-17325000D02*
X23925000Y-17355000D01*
X23925000Y-17445000D02*
X23955000Y-17475000D01*
X23955000Y-17445000D02*
X23925000Y-17475000D01*
X23925000Y-17565000D02*
X23955000Y-17595000D01*
X23955000Y-17565000D02*
X23925000Y-17595000D01*
X23925000Y-17685000D02*
X23955000Y-17715000D01*
X23955000Y-17685000D02*
X23925000Y-17715000D01*
X23925000Y-17805000D02*
X23955000Y-17835000D01*
X23955000Y-17805000D02*
X23925000Y-17835000D01*
X24045000Y-15945000D02*
X24075000Y-15975000D01*
X24075000Y-15945000D02*
X24045000Y-15975000D01*
X24045000Y-16065000D02*
X24075000Y-16095000D01*
X24075000Y-16065000D02*
X24045000Y-16095000D01*
X24045000Y-16185000D02*
X24075000Y-16215000D01*
X24075000Y-16185000D02*
X24045000Y-16215000D01*
X24045000Y-16305000D02*
X24075000Y-16335000D01*
X24075000Y-16305000D02*
X24045000Y-16335000D01*
X24045000Y-16425000D02*
X24075000Y-16455000D01*
X24075000Y-16425000D02*
X24045000Y-16455000D01*
X24045000Y-16545000D02*
X24075000Y-16575000D01*
X24075000Y-16545000D02*
X24045000Y-16575000D01*
X24045000Y-16665000D02*
X24075000Y-16695000D01*
X24075000Y-16665000D02*
X24045000Y-16695000D01*
X24045000Y-17085000D02*
X24075000Y-17115000D01*
X24075000Y-17085000D02*
X24045000Y-17115000D01*
X24045000Y-17205000D02*
X24075000Y-17235000D01*
X24075000Y-17205000D02*
X24045000Y-17235000D01*
X24045000Y-17325000D02*
X24075000Y-17355000D01*
X24075000Y-17325000D02*
X24045000Y-17355000D01*
X24045000Y-17445000D02*
X24075000Y-17475000D01*
X24075000Y-17445000D02*
X24045000Y-17475000D01*
X24045000Y-17565000D02*
X24075000Y-17595000D01*
X24075000Y-17565000D02*
X24045000Y-17595000D01*
X24045000Y-17685000D02*
X24075000Y-17715000D01*
X24075000Y-17685000D02*
X24045000Y-17715000D01*
X24045000Y-17805000D02*
X24075000Y-17835000D01*
X24075000Y-17805000D02*
X24045000Y-17835000D01*
X24165000Y-15945000D02*
X24195000Y-15975000D01*
X24195000Y-15945000D02*
X24165000Y-15975000D01*
X24165000Y-16065000D02*
X24195000Y-16095000D01*
X24195000Y-16065000D02*
X24165000Y-16095000D01*
X24165000Y-16185000D02*
X24195000Y-16215000D01*
X24195000Y-16185000D02*
X24165000Y-16215000D01*
X24165000Y-16305000D02*
X24195000Y-16335000D01*
X24195000Y-16305000D02*
X24165000Y-16335000D01*
X24165000Y-16425000D02*
X24195000Y-16455000D01*
X24195000Y-16425000D02*
X24165000Y-16455000D01*
X24165000Y-16545000D02*
X24195000Y-16575000D01*
X24195000Y-16545000D02*
X24165000Y-16575000D01*
X24165000Y-16665000D02*
X24195000Y-16695000D01*
X24195000Y-16665000D02*
X24165000Y-16695000D01*
X24165000Y-17085000D02*
X24195000Y-17115000D01*
X24195000Y-17085000D02*
X24165000Y-17115000D01*
X24165000Y-17205000D02*
X24195000Y-17235000D01*
X24195000Y-17205000D02*
X24165000Y-17235000D01*
X24165000Y-17325000D02*
X24195000Y-17355000D01*
X24195000Y-17325000D02*
X24165000Y-17355000D01*
X24165000Y-17445000D02*
X24195000Y-17475000D01*
X24195000Y-17445000D02*
X24165000Y-17475000D01*
X24165000Y-17565000D02*
X24195000Y-17595000D01*
X24195000Y-17565000D02*
X24165000Y-17595000D01*
X24165000Y-17685000D02*
X24195000Y-17715000D01*
X24195000Y-17685000D02*
X24165000Y-17715000D01*
X24165000Y-17805000D02*
X24195000Y-17835000D01*
X24195000Y-17805000D02*
X24165000Y-17835000D01*
X24775000Y-14485000D02*
X24805000Y-14515000D01*
X24805000Y-14485000D02*
X24775000Y-14515000D01*
X24775000Y-14605000D02*
X24805000Y-14635000D01*
X24805000Y-14605000D02*
X24775000Y-14635000D01*
X24775000Y-14725000D02*
X24805000Y-14755000D01*
X24805000Y-14725000D02*
X24775000Y-14755000D01*
X24775000Y-14845000D02*
X24805000Y-14875000D01*
X24805000Y-14845000D02*
X24775000Y-14875000D01*
X24775000Y-14965000D02*
X24805000Y-14995000D01*
X24805000Y-14965000D02*
X24775000Y-14995000D01*
X24775000Y-15085000D02*
X24805000Y-15115000D01*
X24805000Y-15085000D02*
X24775000Y-15115000D01*
X24895000Y-14485000D02*
X24925000Y-14515000D01*
X24925000Y-14485000D02*
X24895000Y-14515000D01*
X24895000Y-14605000D02*
X24925000Y-14635000D01*
X24925000Y-14605000D02*
X24895000Y-14635000D01*
X24895000Y-14725000D02*
X24925000Y-14755000D01*
X24925000Y-14725000D02*
X24895000Y-14755000D01*
X24895000Y-14845000D02*
X24925000Y-14875000D01*
X24925000Y-14845000D02*
X24895000Y-14875000D01*
X24895000Y-14965000D02*
X24925000Y-14995000D01*
X24925000Y-14965000D02*
X24895000Y-14995000D01*
X24895000Y-15085000D02*
X24925000Y-15115000D01*
X24925000Y-15085000D02*
X24895000Y-15115000D01*
X25015000Y-14485000D02*
X25045000Y-14515000D01*
X25045000Y-14485000D02*
X25015000Y-14515000D01*
X25015000Y-14605000D02*
X25045000Y-14635000D01*
X25045000Y-14605000D02*
X25015000Y-14635000D01*
X25015000Y-14725000D02*
X25045000Y-14755000D01*
X25045000Y-14725000D02*
X25015000Y-14755000D01*
X25015000Y-14845000D02*
X25045000Y-14875000D01*
X25045000Y-14845000D02*
X25015000Y-14875000D01*
X25015000Y-14965000D02*
X25045000Y-14995000D01*
X25045000Y-14965000D02*
X25015000Y-14995000D01*
X25015000Y-15085000D02*
X25045000Y-15115000D01*
X25045000Y-15085000D02*
X25015000Y-15115000D01*
X25135000Y-14485000D02*
X25165000Y-14515000D01*
X25165000Y-14485000D02*
X25135000Y-14515000D01*
X25135000Y-14605000D02*
X25165000Y-14635000D01*
X25165000Y-14605000D02*
X25135000Y-14635000D01*
X25135000Y-14725000D02*
X25165000Y-14755000D01*
X25165000Y-14725000D02*
X25135000Y-14755000D01*
X25135000Y-14845000D02*
X25165000Y-14875000D01*
X25165000Y-14845000D02*
X25135000Y-14875000D01*
X25135000Y-14965000D02*
X25165000Y-14995000D01*
X25165000Y-14965000D02*
X25135000Y-14995000D01*
X25135000Y-15085000D02*
X25165000Y-15115000D01*
X25165000Y-15085000D02*
X25135000Y-15115000D01*
X25255000Y-14485000D02*
X25285000Y-14515000D01*
X25285000Y-14485000D02*
X25255000Y-14515000D01*
X25255000Y-14605000D02*
X25285000Y-14635000D01*
X25285000Y-14605000D02*
X25255000Y-14635000D01*
X25255000Y-14725000D02*
X25285000Y-14755000D01*
X25285000Y-14725000D02*
X25255000Y-14755000D01*
X25255000Y-14845000D02*
X25285000Y-14875000D01*
X25285000Y-14845000D02*
X25255000Y-14875000D01*
X25255000Y-14965000D02*
X25285000Y-14995000D01*
X25285000Y-14965000D02*
X25255000Y-14995000D01*
X25255000Y-15085000D02*
X25285000Y-15115000D01*
X25285000Y-15085000D02*
X25255000Y-15115000D01*
X25375000Y-14485000D02*
X25405000Y-14515000D01*
X25405000Y-14485000D02*
X25375000Y-14515000D01*
X25375000Y-14605000D02*
X25405000Y-14635000D01*
X25405000Y-14605000D02*
X25375000Y-14635000D01*
X25375000Y-14725000D02*
X25405000Y-14755000D01*
X25405000Y-14725000D02*
X25375000Y-14755000D01*
X25375000Y-14845000D02*
X25405000Y-14875000D01*
X25405000Y-14845000D02*
X25375000Y-14875000D01*
X25375000Y-14965000D02*
X25405000Y-14995000D01*
X25405000Y-14965000D02*
X25375000Y-14995000D01*
X25375000Y-15085000D02*
X25405000Y-15115000D01*
X25405000Y-15085000D02*
X25375000Y-15115000D01*
X25495000Y-14485000D02*
X25525000Y-14515000D01*
X25525000Y-14485000D02*
X25495000Y-14515000D01*
X25495000Y-14605000D02*
X25525000Y-14635000D01*
X25525000Y-14605000D02*
X25495000Y-14635000D01*
X25495000Y-14725000D02*
X25525000Y-14755000D01*
X25525000Y-14725000D02*
X25495000Y-14755000D01*
X25495000Y-14845000D02*
X25525000Y-14875000D01*
X25525000Y-14845000D02*
X25495000Y-14875000D01*
X25495000Y-14965000D02*
X25525000Y-14995000D01*
X25525000Y-14965000D02*
X25495000Y-14995000D01*
X25495000Y-15085000D02*
X25525000Y-15115000D01*
X25525000Y-15085000D02*
X25495000Y-15115000D01*
X25895000Y-13177000D02*
X25925000Y-13207000D01*
X25925000Y-13177000D02*
X25895000Y-13207000D01*
X25895000Y-13297000D02*
X25925000Y-13327000D01*
X25925000Y-13297000D02*
X25895000Y-13327000D01*
X25895000Y-13417000D02*
X25925000Y-13447000D01*
X25925000Y-13417000D02*
X25895000Y-13447000D01*
X25895000Y-13537000D02*
X25925000Y-13567000D01*
X25925000Y-13537000D02*
X25895000Y-13567000D01*
X25895000Y-13657000D02*
X25925000Y-13687000D01*
X25925000Y-13657000D02*
X25895000Y-13687000D01*
X25895000Y-13777000D02*
X25925000Y-13807000D01*
X25925000Y-13777000D02*
X25895000Y-13807000D01*
X26015000Y-13177000D02*
X26045000Y-13207000D01*
X26045000Y-13177000D02*
X26015000Y-13207000D01*
X26015000Y-13297000D02*
X26045000Y-13327000D01*
X26045000Y-13297000D02*
X26015000Y-13327000D01*
X26015000Y-13417000D02*
X26045000Y-13447000D01*
X26045000Y-13417000D02*
X26015000Y-13447000D01*
X26015000Y-13537000D02*
X26045000Y-13567000D01*
X26045000Y-13537000D02*
X26015000Y-13567000D01*
X26015000Y-13657000D02*
X26045000Y-13687000D01*
X26045000Y-13657000D02*
X26015000Y-13687000D01*
X26015000Y-13777000D02*
X26045000Y-13807000D01*
X26045000Y-13777000D02*
X26015000Y-13807000D01*
X26135000Y-13177000D02*
X26165000Y-13207000D01*
X26165000Y-13177000D02*
X26135000Y-13207000D01*
X26135000Y-13297000D02*
X26165000Y-13327000D01*
X26165000Y-13297000D02*
X26135000Y-13327000D01*
X26135000Y-13417000D02*
X26165000Y-13447000D01*
X26165000Y-13417000D02*
X26135000Y-13447000D01*
X26135000Y-13537000D02*
X26165000Y-13567000D01*
X26165000Y-13537000D02*
X26135000Y-13567000D01*
X26135000Y-13657000D02*
X26165000Y-13687000D01*
X26165000Y-13657000D02*
X26135000Y-13687000D01*
X26135000Y-13777000D02*
X26165000Y-13807000D01*
X26165000Y-13777000D02*
X26135000Y-13807000D01*
X26255000Y-13177000D02*
X26285000Y-13207000D01*
X26285000Y-13177000D02*
X26255000Y-13207000D01*
X26255000Y-13297000D02*
X26285000Y-13327000D01*
X26285000Y-13297000D02*
X26255000Y-13327000D01*
X26255000Y-13417000D02*
X26285000Y-13447000D01*
X26285000Y-13417000D02*
X26255000Y-13447000D01*
X26255000Y-13537000D02*
X26285000Y-13567000D01*
X26285000Y-13537000D02*
X26255000Y-13567000D01*
X26255000Y-13657000D02*
X26285000Y-13687000D01*
X26285000Y-13657000D02*
X26255000Y-13687000D01*
X26255000Y-13777000D02*
X26285000Y-13807000D01*
X26285000Y-13777000D02*
X26255000Y-13807000D01*
X26375000Y-13177000D02*
X26405000Y-13207000D01*
X26405000Y-13177000D02*
X26375000Y-13207000D01*
X26375000Y-13297000D02*
X26405000Y-13327000D01*
X26405000Y-13297000D02*
X26375000Y-13327000D01*
X26375000Y-13417000D02*
X26405000Y-13447000D01*
X26405000Y-13417000D02*
X26375000Y-13447000D01*
X26375000Y-13537000D02*
X26405000Y-13567000D01*
X26405000Y-13537000D02*
X26375000Y-13567000D01*
X26375000Y-13657000D02*
X26405000Y-13687000D01*
X26405000Y-13657000D02*
X26375000Y-13687000D01*
X26375000Y-13777000D02*
X26405000Y-13807000D01*
X26405000Y-13777000D02*
X26375000Y-13807000D01*
X26495000Y-13177000D02*
X26525000Y-13207000D01*
X26525000Y-13177000D02*
X26495000Y-13207000D01*
X26495000Y-13297000D02*
X26525000Y-13327000D01*
X26525000Y-13297000D02*
X26495000Y-13327000D01*
X26495000Y-13417000D02*
X26525000Y-13447000D01*
X26525000Y-13417000D02*
X26495000Y-13447000D01*
X26495000Y-13537000D02*
X26525000Y-13567000D01*
X26525000Y-13537000D02*
X26495000Y-13567000D01*
X26495000Y-13657000D02*
X26525000Y-13687000D01*
X26525000Y-13657000D02*
X26495000Y-13687000D01*
X26495000Y-13777000D02*
X26525000Y-13807000D01*
X26525000Y-13777000D02*
X26495000Y-13807000D01*
X26615000Y-13177000D02*
X26645000Y-13207000D01*
X26645000Y-13177000D02*
X26615000Y-13207000D01*
X26615000Y-13297000D02*
X26645000Y-13327000D01*
X26645000Y-13297000D02*
X26615000Y-13327000D01*
X26615000Y-13417000D02*
X26645000Y-13447000D01*
X26645000Y-13417000D02*
X26615000Y-13447000D01*
X26615000Y-13537000D02*
X26645000Y-13567000D01*
X26645000Y-13537000D02*
X26615000Y-13567000D01*
X26615000Y-13657000D02*
X26645000Y-13687000D01*
X26645000Y-13657000D02*
X26615000Y-13687000D01*
X26615000Y-13777000D02*
X26645000Y-13807000D01*
X26645000Y-13777000D02*
X26615000Y-13807000D01*
X27085000Y-12367000D02*
X27115000Y-12397000D01*
X27115000Y-12367000D02*
X27085000Y-12397000D01*
X27085000Y-12487000D02*
X27115000Y-12517000D01*
X27115000Y-12487000D02*
X27085000Y-12517000D01*
X27085000Y-12607000D02*
X27115000Y-12637000D01*
X27115000Y-12607000D02*
X27085000Y-12637000D01*
X27085000Y-12727000D02*
X27115000Y-12757000D01*
X27115000Y-12727000D02*
X27085000Y-12757000D01*
X27085000Y-12847000D02*
X27115000Y-12877000D01*
X27115000Y-12847000D02*
X27085000Y-12877000D01*
X27085000Y-12967000D02*
X27115000Y-12997000D01*
X27115000Y-12967000D02*
X27085000Y-12997000D01*
X27205000Y-12367000D02*
X27235000Y-12397000D01*
X27235000Y-12367000D02*
X27205000Y-12397000D01*
X27205000Y-12487000D02*
X27235000Y-12517000D01*
X27235000Y-12487000D02*
X27205000Y-12517000D01*
X27205000Y-12607000D02*
X27235000Y-12637000D01*
X27235000Y-12607000D02*
X27205000Y-12637000D01*
X27205000Y-12727000D02*
X27235000Y-12757000D01*
X27235000Y-12727000D02*
X27205000Y-12757000D01*
X27205000Y-12847000D02*
X27235000Y-12877000D01*
X27235000Y-12847000D02*
X27205000Y-12877000D01*
X27205000Y-12967000D02*
X27235000Y-12997000D01*
X27235000Y-12967000D02*
X27205000Y-12997000D01*
X27325000Y-12367000D02*
X27355000Y-12397000D01*
X27355000Y-12367000D02*
X27325000Y-12397000D01*
X27325000Y-12487000D02*
X27355000Y-12517000D01*
X27355000Y-12487000D02*
X27325000Y-12517000D01*
X27325000Y-12607000D02*
X27355000Y-12637000D01*
X27355000Y-12607000D02*
X27325000Y-12637000D01*
X27325000Y-12727000D02*
X27355000Y-12757000D01*
X27355000Y-12727000D02*
X27325000Y-12757000D01*
X27325000Y-12847000D02*
X27355000Y-12877000D01*
X27355000Y-12847000D02*
X27325000Y-12877000D01*
X27325000Y-12967000D02*
X27355000Y-12997000D01*
X27355000Y-12967000D02*
X27325000Y-12997000D01*
X27445000Y-12367000D02*
X27475000Y-12397000D01*
X27475000Y-12367000D02*
X27445000Y-12397000D01*
X27445000Y-12487000D02*
X27475000Y-12517000D01*
X27475000Y-12487000D02*
X27445000Y-12517000D01*
X27445000Y-12607000D02*
X27475000Y-12637000D01*
X27475000Y-12607000D02*
X27445000Y-12637000D01*
X27445000Y-12727000D02*
X27475000Y-12757000D01*
X27475000Y-12727000D02*
X27445000Y-12757000D01*
X27445000Y-12847000D02*
X27475000Y-12877000D01*
X27475000Y-12847000D02*
X27445000Y-12877000D01*
X27445000Y-12967000D02*
X27475000Y-12997000D01*
X27475000Y-12967000D02*
X27445000Y-12997000D01*
X27565000Y-12367000D02*
X27595000Y-12397000D01*
X27595000Y-12367000D02*
X27565000Y-12397000D01*
X27565000Y-12487000D02*
X27595000Y-12517000D01*
X27595000Y-12487000D02*
X27565000Y-12517000D01*
X27565000Y-12607000D02*
X27595000Y-12637000D01*
X27595000Y-12607000D02*
X27565000Y-12637000D01*
X27565000Y-12727000D02*
X27595000Y-12757000D01*
X27595000Y-12727000D02*
X27565000Y-12757000D01*
X27565000Y-12847000D02*
X27595000Y-12877000D01*
X27595000Y-12847000D02*
X27565000Y-12877000D01*
X27565000Y-12967000D02*
X27595000Y-12997000D01*
X27595000Y-12967000D02*
X27565000Y-12997000D01*
X27685000Y-12367000D02*
X27715000Y-12397000D01*
X27715000Y-12367000D02*
X27685000Y-12397000D01*
X27685000Y-12487000D02*
X27715000Y-12517000D01*
X27715000Y-12487000D02*
X27685000Y-12517000D01*
X27685000Y-12607000D02*
X27715000Y-12637000D01*
X27715000Y-12607000D02*
X27685000Y-12637000D01*
X27685000Y-12727000D02*
X27715000Y-12757000D01*
X27715000Y-12727000D02*
X27685000Y-12757000D01*
X27685000Y-12847000D02*
X27715000Y-12877000D01*
X27715000Y-12847000D02*
X27685000Y-12877000D01*
X27685000Y-12967000D02*
X27715000Y-12997000D01*
X27715000Y-12967000D02*
X27685000Y-12997000D01*
X27805000Y-12367000D02*
X27835000Y-12397000D01*
X27835000Y-12367000D02*
X27805000Y-12397000D01*
X27805000Y-12487000D02*
X27835000Y-12517000D01*
X27835000Y-12487000D02*
X27805000Y-12517000D01*
X27805000Y-12607000D02*
X27835000Y-12637000D01*
X27835000Y-12607000D02*
X27805000Y-12637000D01*
X27805000Y-12727000D02*
X27835000Y-12757000D01*
X27835000Y-12727000D02*
X27805000Y-12757000D01*
X27805000Y-12847000D02*
X27835000Y-12877000D01*
X27835000Y-12847000D02*
X27805000Y-12877000D01*
X27805000Y-12967000D02*
X27835000Y-12997000D01*
X27835000Y-12967000D02*
X27805000Y-12997000D01*
X28175000Y-12525000D02*
X28205000Y-12555000D01*
X28205000Y-12525000D02*
X28175000Y-12555000D01*
X28175000Y-12645000D02*
X28205000Y-12675000D01*
X28205000Y-12645000D02*
X28175000Y-12675000D01*
X28175000Y-12765000D02*
X28205000Y-12795000D01*
X28205000Y-12765000D02*
X28175000Y-12795000D01*
X28175000Y-12885000D02*
X28205000Y-12915000D01*
X28205000Y-12885000D02*
X28175000Y-12915000D01*
X28175000Y-13005000D02*
X28205000Y-13035000D01*
X28205000Y-13005000D02*
X28175000Y-13035000D01*
X28175000Y-13125000D02*
X28205000Y-13155000D01*
X28205000Y-13125000D02*
X28175000Y-13155000D01*
X28295000Y-12525000D02*
X28325000Y-12555000D01*
X28325000Y-12525000D02*
X28295000Y-12555000D01*
X28295000Y-12645000D02*
X28325000Y-12675000D01*
X28325000Y-12645000D02*
X28295000Y-12675000D01*
X28295000Y-12765000D02*
X28325000Y-12795000D01*
X28325000Y-12765000D02*
X28295000Y-12795000D01*
X28295000Y-12885000D02*
X28325000Y-12915000D01*
X28325000Y-12885000D02*
X28295000Y-12915000D01*
X28295000Y-13005000D02*
X28325000Y-13035000D01*
X28325000Y-13005000D02*
X28295000Y-13035000D01*
X28295000Y-13125000D02*
X28325000Y-13155000D01*
X28325000Y-13125000D02*
X28295000Y-13155000D01*
X28415000Y-12525000D02*
X28445000Y-12555000D01*
X28445000Y-12525000D02*
X28415000Y-12555000D01*
X28415000Y-12645000D02*
X28445000Y-12675000D01*
X28445000Y-12645000D02*
X28415000Y-12675000D01*
X28415000Y-12765000D02*
X28445000Y-12795000D01*
X28445000Y-12765000D02*
X28415000Y-12795000D01*
X28415000Y-12885000D02*
X28445000Y-12915000D01*
X28445000Y-12885000D02*
X28415000Y-12915000D01*
X28415000Y-13005000D02*
X28445000Y-13035000D01*
X28445000Y-13005000D02*
X28415000Y-13035000D01*
X28415000Y-13125000D02*
X28445000Y-13155000D01*
X28445000Y-13125000D02*
X28415000Y-13155000D01*
X28535000Y-12525000D02*
X28565000Y-12555000D01*
X28565000Y-12525000D02*
X28535000Y-12555000D01*
X28535000Y-12645000D02*
X28565000Y-12675000D01*
X28565000Y-12645000D02*
X28535000Y-12675000D01*
X28535000Y-12765000D02*
X28565000Y-12795000D01*
X28565000Y-12765000D02*
X28535000Y-12795000D01*
X28535000Y-12885000D02*
X28565000Y-12915000D01*
X28565000Y-12885000D02*
X28535000Y-12915000D01*
X28535000Y-13005000D02*
X28565000Y-13035000D01*
X28565000Y-13005000D02*
X28535000Y-13035000D01*
X28535000Y-13125000D02*
X28565000Y-13155000D01*
X28565000Y-13125000D02*
X28535000Y-13155000D01*
X28655000Y-12525000D02*
X28685000Y-12555000D01*
X28685000Y-12525000D02*
X28655000Y-12555000D01*
X28655000Y-12645000D02*
X28685000Y-12675000D01*
X28685000Y-12645000D02*
X28655000Y-12675000D01*
X28655000Y-12765000D02*
X28685000Y-12795000D01*
X28685000Y-12765000D02*
X28655000Y-12795000D01*
X28655000Y-12885000D02*
X28685000Y-12915000D01*
X28685000Y-12885000D02*
X28655000Y-12915000D01*
X28655000Y-13005000D02*
X28685000Y-13035000D01*
X28685000Y-13005000D02*
X28655000Y-13035000D01*
X28655000Y-13125000D02*
X28685000Y-13155000D01*
X28685000Y-13125000D02*
X28655000Y-13155000D01*
X28775000Y-12525000D02*
X28805000Y-12555000D01*
X28805000Y-12525000D02*
X28775000Y-12555000D01*
X28775000Y-12645000D02*
X28805000Y-12675000D01*
X28805000Y-12645000D02*
X28775000Y-12675000D01*
X28775000Y-12765000D02*
X28805000Y-12795000D01*
X28805000Y-12765000D02*
X28775000Y-12795000D01*
X28775000Y-12885000D02*
X28805000Y-12915000D01*
X28805000Y-12885000D02*
X28775000Y-12915000D01*
X28775000Y-13005000D02*
X28805000Y-13035000D01*
X28805000Y-13005000D02*
X28775000Y-13035000D01*
X28775000Y-13125000D02*
X28805000Y-13155000D01*
X28805000Y-13125000D02*
X28775000Y-13155000D01*
X28895000Y-12525000D02*
X28925000Y-12555000D01*
X28925000Y-12525000D02*
X28895000Y-12555000D01*
X28895000Y-12645000D02*
X28925000Y-12675000D01*
X28925000Y-12645000D02*
X28895000Y-12675000D01*
X28895000Y-12765000D02*
X28925000Y-12795000D01*
X28925000Y-12765000D02*
X28895000Y-12795000D01*
X28895000Y-12885000D02*
X28925000Y-12915000D01*
X28925000Y-12885000D02*
X28895000Y-12915000D01*
X28895000Y-13005000D02*
X28925000Y-13035000D01*
X28925000Y-13005000D02*
X28895000Y-13035000D01*
X28895000Y-13125000D02*
X28925000Y-13155000D01*
X28925000Y-13125000D02*
X28895000Y-13155000D01*
X21267500Y-18160000D02*
G75*
G02*
X21232500Y-18160000I-17500J0D01*
G01*
X21232500Y-18160000D02*
G75*
G02*
X21267500Y-18160000I17500J0D01*
G01*
X21267500Y-18560000D02*
G75*
G02*
X21232500Y-18560000I-17500J0D01*
G01*
X21232500Y-18560000D02*
G75*
G02*
X21267500Y-18560000I17500J0D01*
G01*
X23157500Y-16515000D02*
G75*
G02*
X23122500Y-16515000I-17500J0D01*
G01*
X23122500Y-16515000D02*
G75*
G02*
X23157500Y-16515000I17500J0D01*
G01*
X23157500Y-16825000D02*
G75*
G02*
X23122500Y-16825000I-17500J0D01*
G01*
X23122500Y-16825000D02*
G75*
G02*
X23157500Y-16825000I17500J0D01*
G01*
X23841250Y-15640000D02*
G75*
G02*
X23806250Y-15640000I-17500J0D01*
G01*
X23806250Y-15640000D02*
G75*
G02*
X23841250Y-15640000I17500J0D01*
G01*
X24013750Y-15640000D02*
G75*
G02*
X23978750Y-15640000I-17500J0D01*
G01*
X23978750Y-15640000D02*
G75*
G02*
X24013750Y-15640000I17500J0D01*
G01*
X24771250Y-15400000D02*
G75*
G02*
X24736250Y-15400000I-17500J0D01*
G01*
X24736250Y-15400000D02*
G75*
G02*
X24771250Y-15400000I17500J0D01*
G01*
X24943750Y-15400000D02*
G75*
G02*
X24908750Y-15400000I-17500J0D01*
G01*
X24908750Y-15400000D02*
G75*
G02*
X24943750Y-15400000I17500J0D01*
G01*
X25977500Y-20165000D02*
G75*
G02*
X25942500Y-20165000I-17500J0D01*
G01*
X25942500Y-20165000D02*
G75*
G02*
X25977500Y-20165000I17500J0D01*
G01*
X26162500Y-14640000D02*
G75*
G02*
X26127500Y-14640000I-17500J0D01*
G01*
X26127500Y-14640000D02*
G75*
G02*
X26162500Y-14640000I17500J0D01*
G01*
X26472500Y-14640000D02*
G75*
G02*
X26437500Y-14640000I-17500J0D01*
G01*
X26437500Y-14640000D02*
G75*
G02*
X26472500Y-14640000I17500J0D01*
G01*
X26547372Y-20856122D02*
G75*
G02*
X26512372Y-20856122I-17500J0D01*
G01*
X26512372Y-20856122D02*
G75*
G02*
X26547372Y-20856122I17500J0D01*
G01*
X26547500Y-19436250D02*
G75*
G02*
X26512500Y-19436250I-17500J0D01*
G01*
X26512500Y-19436250D02*
G75*
G02*
X26547500Y-19436250I17500J0D01*
G01*
X26567500Y-20750000D02*
G75*
G02*
X26532500Y-20750000I-17500J0D01*
G01*
X26532500Y-20750000D02*
G75*
G02*
X26567500Y-20750000I17500J0D01*
G01*
X26627628Y-20936378D02*
G75*
G02*
X26592628Y-20936378I-17500J0D01*
G01*
X26592628Y-20936378D02*
G75*
G02*
X26627628Y-20936378I17500J0D01*
G01*
X26757500Y-19280000D02*
G75*
G02*
X26722500Y-19280000I-17500J0D01*
G01*
X26722500Y-19280000D02*
G75*
G02*
X26757500Y-19280000I17500J0D01*
G01*
X26814000Y-20946250D02*
G75*
G02*
X26779000Y-20946250I-17500J0D01*
G01*
X26779000Y-20946250D02*
G75*
G02*
X26814000Y-20946250I17500J0D01*
G01*
X26927500Y-20500000D02*
G75*
G02*
X26892500Y-20500000I-17500J0D01*
G01*
X26892500Y-20500000D02*
G75*
G02*
X26927500Y-20500000I17500J0D01*
G01*
X26927500Y-20860000D02*
G75*
G02*
X26892500Y-20860000I-17500J0D01*
G01*
X26892500Y-20860000D02*
G75*
G02*
X26927500Y-20860000I17500J0D01*
G01*
X26927500Y-20946250D02*
G75*
G02*
X26892500Y-20946250I-17500J0D01*
G01*
X26892500Y-20946250D02*
G75*
G02*
X26927500Y-20946250I17500J0D01*
G01*
X27347500Y-15530000D02*
G75*
G02*
X27312500Y-15530000I-17500J0D01*
G01*
X27312500Y-15530000D02*
G75*
G02*
X27347500Y-15530000I17500J0D01*
G01*
X27362500Y-13792000D02*
G75*
G02*
X27327500Y-13792000I-17500J0D01*
G01*
X27327500Y-13792000D02*
G75*
G02*
X27362500Y-13792000I17500J0D01*
G01*
X27387500Y-15590000D02*
G75*
G02*
X27352500Y-15590000I-17500J0D01*
G01*
X27352500Y-15590000D02*
G75*
G02*
X27387500Y-15590000I17500J0D01*
G01*
X27447286Y-15506187D02*
G75*
G02*
X27412286Y-15506187I-17500J0D01*
G01*
X27412286Y-15506187D02*
G75*
G02*
X27447286Y-15506187I17500J0D01*
G01*
X27507500Y-15420000D02*
G75*
G02*
X27472500Y-15420000I-17500J0D01*
G01*
X27472500Y-15420000D02*
G75*
G02*
X27507500Y-15420000I17500J0D01*
G01*
X27547500Y-15490000D02*
G75*
G02*
X27512500Y-15490000I-17500J0D01*
G01*
X27512500Y-15490000D02*
G75*
G02*
X27547500Y-15490000I17500J0D01*
G01*
X27672500Y-13792000D02*
G75*
G02*
X27637500Y-13792000I-17500J0D01*
G01*
X27637500Y-13792000D02*
G75*
G02*
X27672500Y-13792000I17500J0D01*
G01*
X27697500Y-15280000D02*
G75*
G02*
X27662500Y-15280000I-17500J0D01*
G01*
X27662500Y-15280000D02*
G75*
G02*
X27697500Y-15280000I17500J0D01*
G01*
X27747500Y-15340000D02*
G75*
G02*
X27712500Y-15340000I-17500J0D01*
G01*
X27712500Y-15340000D02*
G75*
G02*
X27747500Y-15340000I17500J0D01*
G01*
X27807713Y-15253813D02*
G75*
G02*
X27772713Y-15253813I-17500J0D01*
G01*
X27772713Y-15253813D02*
G75*
G02*
X27807713Y-15253813I17500J0D01*
G01*
X27877500Y-15160000D02*
G75*
G02*
X27842500Y-15160000I-17500J0D01*
G01*
X27842500Y-15160000D02*
G75*
G02*
X27877500Y-15160000I17500J0D01*
G01*
X27917500Y-15230000D02*
G75*
G02*
X27882500Y-15230000I-17500J0D01*
G01*
X27882500Y-15230000D02*
G75*
G02*
X27917500Y-15230000I17500J0D01*
G01*
X28182500Y-15316945D02*
G75*
G02*
X28147500Y-15316945I-17500J0D01*
G01*
X28147500Y-15316945D02*
G75*
G02*
X28182500Y-15316945I17500J0D01*
G01*
X28196711Y-15021156D02*
G75*
G02*
X28161711Y-15021156I-17500J0D01*
G01*
X28161711Y-15021156D02*
G75*
G02*
X28196711Y-15021156I17500J0D01*
G01*
X28202500Y-15476945D02*
G75*
G02*
X28167500Y-15476945I-17500J0D01*
G01*
X28167500Y-15476945D02*
G75*
G02*
X28202500Y-15476945I17500J0D01*
G01*
X28306711Y-14911156D02*
G75*
G02*
X28271711Y-14911156I-17500J0D01*
G01*
X28271711Y-14911156D02*
G75*
G02*
X28306711Y-14911156I17500J0D01*
G01*
X28318687Y-15143132D02*
G75*
G02*
X28283687Y-15143132I-17500J0D01*
G01*
X28283687Y-15143132D02*
G75*
G02*
X28318687Y-15143132I17500J0D01*
G01*
X28321250Y-13430000D02*
G75*
G02*
X28286250Y-13430000I-17500J0D01*
G01*
X28286250Y-13430000D02*
G75*
G02*
X28321250Y-13430000I17500J0D01*
G01*
X28428687Y-15033132D02*
G75*
G02*
X28393687Y-15033132I-17500J0D01*
G01*
X28393687Y-15033132D02*
G75*
G02*
X28428687Y-15033132I17500J0D01*
G01*
X28468431Y-14887074D02*
G75*
G02*
X28433431Y-14887074I-17500J0D01*
G01*
X28433431Y-14887074D02*
G75*
G02*
X28468431Y-14887074I17500J0D01*
G01*
X28493750Y-13430000D02*
G75*
G02*
X28458750Y-13430000I-17500J0D01*
G01*
X28458750Y-13430000D02*
G75*
G02*
X28493750Y-13430000I17500J0D01*
G01*
X28548687Y-14806817D02*
G75*
G02*
X28513687Y-14806817I-17500J0D01*
G01*
X28513687Y-14806817D02*
G75*
G02*
X28548687Y-14806817I17500J0D01*
G01*
X28587500Y-15840000D02*
G75*
G02*
X28552500Y-15840000I-17500J0D01*
G01*
X28552500Y-15840000D02*
G75*
G02*
X28587500Y-15840000I17500J0D01*
G01*
X28676313Y-14883132D02*
G75*
G02*
X28641313Y-14883132I-17500J0D01*
G01*
X28641313Y-14883132D02*
G75*
G02*
X28676313Y-14883132I17500J0D01*
G01*
X28798289Y-14761156D02*
G75*
G02*
X28763289Y-14761156I-17500J0D01*
G01*
X28763289Y-14761156D02*
G75*
G02*
X28798289Y-14761156I17500J0D01*
G01*
X28821512Y-14967933D02*
G75*
G02*
X28786512Y-14967933I-17500J0D01*
G01*
X28786512Y-14967933D02*
G75*
G02*
X28821512Y-14967933I17500J0D01*
G01*
X28850524Y-15818921D02*
G75*
G02*
X28815524Y-15818921I-17500J0D01*
G01*
X28815524Y-15818921D02*
G75*
G02*
X28850524Y-15818921I17500J0D01*
G01*
X28943488Y-14845957D02*
G75*
G02*
X28908488Y-14845957I-17500J0D01*
G01*
X28908488Y-14845957D02*
G75*
G02*
X28943488Y-14845957I17500J0D01*
G01*
X28972500Y-15696945D02*
G75*
G02*
X28937500Y-15696945I-17500J0D01*
G01*
X28937500Y-15696945D02*
G75*
G02*
X28972500Y-15696945I17500J0D01*
G01*
X28995250Y-15852250D02*
G75*
G02*
X28960250Y-15852250I-17500J0D01*
G01*
X28960250Y-15852250D02*
G75*
G02*
X28995250Y-15852250I17500J0D01*
G01*
X29079750Y-15767750D02*
G75*
G02*
X29044750Y-15767750I-17500J0D01*
G01*
X29044750Y-15767750D02*
G75*
G02*
X29079750Y-15767750I17500J0D01*
G01*
X29117500Y-15380000D02*
G75*
G02*
X29082500Y-15380000I-17500J0D01*
G01*
X29082500Y-15380000D02*
G75*
G02*
X29117500Y-15380000I17500J0D01*
G01*
X29145250Y-15852250D02*
G75*
G02*
X29110250Y-15852250I-17500J0D01*
G01*
X29110250Y-15852250D02*
G75*
G02*
X29145250Y-15852250I17500J0D01*
G01*
X29347500Y-11000000D02*
G75*
G02*
X29312500Y-11000000I-17500J0D01*
G01*
X29312500Y-11000000D02*
G75*
G02*
X29347500Y-11000000I17500J0D01*
G01*
X29347500Y-11325000D02*
G75*
G02*
X29312500Y-11325000I-17500J0D01*
G01*
X29312500Y-11325000D02*
G75*
G02*
X29347500Y-11325000I17500J0D01*
G01*
X29347500Y-11650000D02*
G75*
G02*
X29312500Y-11650000I-17500J0D01*
G01*
X29312500Y-11650000D02*
G75*
G02*
X29347500Y-11650000I17500J0D01*
G01*
X29387500Y-15200000D02*
G75*
G02*
X29352500Y-15200000I-17500J0D01*
G01*
X29352500Y-15200000D02*
G75*
G02*
X29387500Y-15200000I17500J0D01*
G01*
X29437500Y-14880000D02*
G75*
G02*
X29402500Y-14880000I-17500J0D01*
G01*
X29402500Y-14880000D02*
G75*
G02*
X29437500Y-14880000I17500J0D01*
G01*
X29497500Y-14810000D02*
G75*
G02*
X29462500Y-14810000I-17500J0D01*
G01*
X29462500Y-14810000D02*
G75*
G02*
X29497500Y-14810000I17500J0D01*
G01*
X29547500Y-14740000D02*
G75*
G02*
X29512500Y-14740000I-17500J0D01*
G01*
X29512500Y-14740000D02*
G75*
G02*
X29547500Y-14740000I17500J0D01*
G01*
X29627500Y-14670000D02*
G75*
G02*
X29592500Y-14670000I-17500J0D01*
G01*
X29592500Y-14670000D02*
G75*
G02*
X29627500Y-14670000I17500J0D01*
G01*
X29672500Y-14575000D02*
G75*
G02*
X29637500Y-14575000I-17500J0D01*
G01*
X29637500Y-14575000D02*
G75*
G02*
X29672500Y-14575000I17500J0D01*
G01*
X29697500Y-15830000D02*
G75*
G02*
X29662500Y-15830000I-17500J0D01*
G01*
X29662500Y-15830000D02*
G75*
G02*
X29697500Y-15830000I17500J0D01*
G01*
X29707500Y-16070000D02*
G75*
G02*
X29672500Y-16070000I-17500J0D01*
G01*
X29672500Y-16070000D02*
G75*
G02*
X29707500Y-16070000I17500J0D01*
G01*
X29737500Y-14420000D02*
G75*
G02*
X29702500Y-14420000I-17500J0D01*
G01*
X29702500Y-14420000D02*
G75*
G02*
X29737500Y-14420000I17500J0D01*
G01*
X29747500Y-11000000D02*
G75*
G02*
X29712500Y-11000000I-17500J0D01*
G01*
X29712500Y-11000000D02*
G75*
G02*
X29747500Y-11000000I17500J0D01*
G01*
X29747500Y-11325000D02*
G75*
G02*
X29712500Y-11325000I-17500J0D01*
G01*
X29712500Y-11325000D02*
G75*
G02*
X29747500Y-11325000I17500J0D01*
G01*
X29747500Y-11650000D02*
G75*
G02*
X29712500Y-11650000I-17500J0D01*
G01*
X29712500Y-11650000D02*
G75*
G02*
X29747500Y-11650000I17500J0D01*
G01*
X29817500Y-15860000D02*
G75*
G02*
X29782500Y-15860000I-17500J0D01*
G01*
X29782500Y-15860000D02*
G75*
G02*
X29817500Y-15860000I17500J0D01*
G01*
X29887500Y-16000000D02*
G75*
G02*
X29852500Y-16000000I-17500J0D01*
G01*
X29852500Y-16000000D02*
G75*
G02*
X29887500Y-16000000I17500J0D01*
G01*
X29902500Y-12590000D02*
G75*
G02*
X29867500Y-12590000I-17500J0D01*
G01*
X29867500Y-12590000D02*
G75*
G02*
X29902500Y-12590000I17500J0D01*
G01*
X29902500Y-13010000D02*
G75*
G02*
X29867500Y-13010000I-17500J0D01*
G01*
X29867500Y-13010000D02*
G75*
G02*
X29902500Y-13010000I17500J0D01*
G01*
X30027500Y-15660000D02*
G75*
G02*
X29992500Y-15660000I-17500J0D01*
G01*
X29992500Y-15660000D02*
G75*
G02*
X30027500Y-15660000I17500J0D01*
G01*
X30037500Y-15200000D02*
G75*
G02*
X30002500Y-15200000I-17500J0D01*
G01*
X30002500Y-15200000D02*
G75*
G02*
X30037500Y-15200000I17500J0D01*
G01*
X30137500Y-28250000D02*
G75*
G02*
X30102500Y-28250000I-17500J0D01*
G01*
X30102500Y-28250000D02*
G75*
G02*
X30137500Y-28250000I17500J0D01*
G01*
X30137750Y-27750000D02*
G75*
G02*
X30102750Y-27750000I-17500J0D01*
G01*
X30102750Y-27750000D02*
G75*
G02*
X30137750Y-27750000I17500J0D01*
G01*
X30159720Y-15832220D02*
G75*
G02*
X30124720Y-15832220I-17500J0D01*
G01*
X30124720Y-15832220D02*
G75*
G02*
X30159720Y-15832220I17500J0D01*
G01*
X30297500Y-15270000D02*
G75*
G02*
X30262500Y-15270000I-17500J0D01*
G01*
X30262500Y-15270000D02*
G75*
G02*
X30297500Y-15270000I17500J0D01*
G01*
X30394234Y-14929922D02*
G75*
G02*
X30359234Y-14929922I-17500J0D01*
G01*
X30359234Y-14929922D02*
G75*
G02*
X30394234Y-14929922I17500J0D01*
G01*
X30427500Y-14720000D02*
G75*
G02*
X30392500Y-14720000I-17500J0D01*
G01*
X30392500Y-14720000D02*
G75*
G02*
X30427500Y-14720000I17500J0D01*
G01*
X30467750Y-27750000D02*
G75*
G02*
X30432750Y-27750000I-17500J0D01*
G01*
X30432750Y-27750000D02*
G75*
G02*
X30467750Y-27750000I17500J0D01*
G01*
X30467750Y-28250000D02*
G75*
G02*
X30432750Y-28250000I-17500J0D01*
G01*
X30432750Y-28250000D02*
G75*
G02*
X30467750Y-28250000I17500J0D01*
G01*
X30481832Y-15704541D02*
G75*
G02*
X30446832Y-15704541I-17500J0D01*
G01*
X30446832Y-15704541D02*
G75*
G02*
X30481832Y-15704541I17500J0D01*
G01*
X30483374Y-14945874D02*
G75*
G02*
X30448374Y-14945874I-17500J0D01*
G01*
X30448374Y-14945874D02*
G75*
G02*
X30483374Y-14945874I17500J0D01*
G01*
X30507500Y-15180000D02*
G75*
G02*
X30472500Y-15180000I-17500J0D01*
G01*
X30472500Y-15180000D02*
G75*
G02*
X30507500Y-15180000I17500J0D01*
G01*
X30517188Y-15980312D02*
G75*
G02*
X30482188Y-15980312I-17500J0D01*
G01*
X30482188Y-15980312D02*
G75*
G02*
X30517188Y-15980312I17500J0D01*
G01*
X30536000Y-27507544D02*
G75*
G02*
X30501000Y-27507544I-17500J0D01*
G01*
X30501000Y-27507544D02*
G75*
G02*
X30536000Y-27507544I17500J0D01*
G01*
X30536000Y-28008544D02*
G75*
G02*
X30501000Y-28008544I-17500J0D01*
G01*
X30501000Y-28008544D02*
G75*
G02*
X30536000Y-28008544I17500J0D01*
G01*
X30536000Y-28507544D02*
G75*
G02*
X30501000Y-28507544I-17500J0D01*
G01*
X30501000Y-28507544D02*
G75*
G02*
X30536000Y-28507544I17500J0D01*
G01*
X30557500Y-14990000D02*
G75*
G02*
X30522500Y-14990000I-17500J0D01*
G01*
X30522500Y-14990000D02*
G75*
G02*
X30557500Y-14990000I17500J0D01*
G01*
X30587500Y-15080000D02*
G75*
G02*
X30552500Y-15080000I-17500J0D01*
G01*
X30552500Y-15080000D02*
G75*
G02*
X30587500Y-15080000I17500J0D01*
G01*
X30598750Y-12590000D02*
G75*
G02*
X30563750Y-12590000I-17500J0D01*
G01*
X30563750Y-12590000D02*
G75*
G02*
X30598750Y-12590000I17500J0D01*
G01*
X30598750Y-13010000D02*
G75*
G02*
X30563750Y-13010000I-17500J0D01*
G01*
X30563750Y-13010000D02*
G75*
G02*
X30598750Y-13010000I17500J0D01*
G01*
X30607500Y-15510000D02*
G75*
G02*
X30572500Y-15510000I-17500J0D01*
G01*
X30572500Y-15510000D02*
G75*
G02*
X30607500Y-15510000I17500J0D01*
G01*
X30617833Y-15603798D02*
G75*
G02*
X30582833Y-15603798I-17500J0D01*
G01*
X30582833Y-15603798D02*
G75*
G02*
X30617833Y-15603798I17500J0D01*
G01*
X30627500Y-14810000D02*
G75*
G02*
X30592500Y-14810000I-17500J0D01*
G01*
X30592500Y-14810000D02*
G75*
G02*
X30627500Y-14810000I17500J0D01*
G01*
X30677268Y-15430232D02*
G75*
G02*
X30642268Y-15430232I-17500J0D01*
G01*
X30642268Y-15430232D02*
G75*
G02*
X30677268Y-15430232I17500J0D01*
G01*
X30677500Y-15060000D02*
G75*
G02*
X30642500Y-15060000I-17500J0D01*
G01*
X30642500Y-15060000D02*
G75*
G02*
X30677500Y-15060000I17500J0D01*
G01*
X30697372Y-14729872D02*
G75*
G02*
X30662372Y-14729872I-17500J0D01*
G01*
X30662372Y-14729872D02*
G75*
G02*
X30697372Y-14729872I17500J0D01*
G01*
X30710000Y-11600000D02*
G75*
G02*
X30675000Y-11600000I-17500J0D01*
G01*
X30675000Y-11600000D02*
G75*
G02*
X30710000Y-11600000I17500J0D01*
G01*
X30710000Y-12020000D02*
G75*
G02*
X30675000Y-12020000I-17500J0D01*
G01*
X30675000Y-12020000D02*
G75*
G02*
X30710000Y-12020000I17500J0D01*
G01*
X30732500Y-14555000D02*
G75*
G02*
X30697500Y-14555000I-17500J0D01*
G01*
X30697500Y-14555000D02*
G75*
G02*
X30732500Y-14555000I17500J0D01*
G01*
X30757524Y-15349976D02*
G75*
G02*
X30722524Y-15349976I-17500J0D01*
G01*
X30722524Y-15349976D02*
G75*
G02*
X30757524Y-15349976I17500J0D01*
G01*
X30777628Y-14810128D02*
G75*
G02*
X30742628Y-14810128I-17500J0D01*
G01*
X30742628Y-14810128D02*
G75*
G02*
X30777628Y-14810128I17500J0D01*
G01*
X30797396Y-15560232D02*
G75*
G02*
X30762396Y-15560232I-17500J0D01*
G01*
X30762396Y-15560232D02*
G75*
G02*
X30797396Y-15560232I17500J0D01*
G01*
X30812199Y-27803035D02*
G75*
G02*
X30777199Y-27803035I-17500J0D01*
G01*
X30777199Y-27803035D02*
G75*
G02*
X30812199Y-27803035I17500J0D01*
G01*
X30812199Y-28053035D02*
G75*
G02*
X30777199Y-28053035I-17500J0D01*
G01*
X30777199Y-28053035D02*
G75*
G02*
X30812199Y-28053035I17500J0D01*
G01*
X30812199Y-28303035D02*
G75*
G02*
X30777199Y-28303035I-17500J0D01*
G01*
X30777199Y-28303035D02*
G75*
G02*
X30812199Y-28303035I17500J0D01*
G01*
X30812199Y-28553035D02*
G75*
G02*
X30777199Y-28553035I-17500J0D01*
G01*
X30777199Y-28553035D02*
G75*
G02*
X30812199Y-28553035I17500J0D01*
G01*
X30812695Y-27552890D02*
G75*
G02*
X30777695Y-27552890I-17500J0D01*
G01*
X30777695Y-27552890D02*
G75*
G02*
X30812695Y-27552890I17500J0D01*
G01*
X30847268Y-15899976D02*
G75*
G02*
X30812268Y-15899976I-17500J0D01*
G01*
X30812268Y-15899976D02*
G75*
G02*
X30847268Y-15899976I17500J0D01*
G01*
X30857268Y-14549976D02*
G75*
G02*
X30822268Y-14549976I-17500J0D01*
G01*
X30822268Y-14549976D02*
G75*
G02*
X30857268Y-14549976I17500J0D01*
G01*
X30877500Y-14170000D02*
G75*
G02*
X30842500Y-14170000I-17500J0D01*
G01*
X30842500Y-14170000D02*
G75*
G02*
X30877500Y-14170000I17500J0D01*
G01*
X30877652Y-15479976D02*
G75*
G02*
X30842652Y-15479976I-17500J0D01*
G01*
X30842652Y-15479976D02*
G75*
G02*
X30877652Y-15479976I17500J0D01*
G01*
X30917268Y-15680232D02*
G75*
G02*
X30882268Y-15680232I-17500J0D01*
G01*
X30882268Y-15680232D02*
G75*
G02*
X30917268Y-15680232I17500J0D01*
G01*
X30917628Y-14330128D02*
G75*
G02*
X30882628Y-14330128I-17500J0D01*
G01*
X30882628Y-14330128D02*
G75*
G02*
X30917628Y-14330128I17500J0D01*
G01*
X30937524Y-14630232D02*
G75*
G02*
X30902524Y-14630232I-17500J0D01*
G01*
X30902524Y-14630232D02*
G75*
G02*
X30937524Y-14630232I17500J0D01*
G01*
X30967500Y-15770000D02*
G75*
G02*
X30932500Y-15770000I-17500J0D01*
G01*
X30932500Y-15770000D02*
G75*
G02*
X30967500Y-15770000I17500J0D01*
G01*
X30997524Y-15599976D02*
G75*
G02*
X30962524Y-15599976I-17500J0D01*
G01*
X30962524Y-15599976D02*
G75*
G02*
X30997524Y-15599976I17500J0D01*
G01*
X31008156Y-15684724D02*
G75*
G02*
X30973156Y-15684724I-17500J0D01*
G01*
X30973156Y-15684724D02*
G75*
G02*
X31008156Y-15684724I17500J0D01*
G01*
X31027500Y-16060000D02*
G75*
G02*
X30992500Y-16060000I-17500J0D01*
G01*
X30992500Y-16060000D02*
G75*
G02*
X31027500Y-16060000I17500J0D01*
G01*
X31037500Y-14860000D02*
G75*
G02*
X31002500Y-14860000I-17500J0D01*
G01*
X31002500Y-14860000D02*
G75*
G02*
X31037500Y-14860000I17500J0D01*
G01*
X31047500Y-15810000D02*
G75*
G02*
X31012500Y-15810000I-17500J0D01*
G01*
X31012500Y-15810000D02*
G75*
G02*
X31047500Y-15810000I17500J0D01*
G01*
X31077500Y-15890000D02*
G75*
G02*
X31042500Y-15890000I-17500J0D01*
G01*
X31042500Y-15890000D02*
G75*
G02*
X31077500Y-15890000I17500J0D01*
G01*
X31112500Y-16055000D02*
G75*
G02*
X31077500Y-16055000I-17500J0D01*
G01*
X31077500Y-16055000D02*
G75*
G02*
X31112500Y-16055000I17500J0D01*
G01*
X31177396Y-14870104D02*
G75*
G02*
X31142396Y-14870104I-17500J0D01*
G01*
X31142396Y-14870104D02*
G75*
G02*
X31177396Y-14870104I17500J0D01*
G01*
X31217396Y-15340104D02*
G75*
G02*
X31182396Y-15340104I-17500J0D01*
G01*
X31182396Y-15340104D02*
G75*
G02*
X31217396Y-15340104I17500J0D01*
G01*
X31221522Y-16034022D02*
G75*
G02*
X31186522Y-16034022I-17500J0D01*
G01*
X31186522Y-16034022D02*
G75*
G02*
X31221522Y-16034022I17500J0D01*
G01*
X31237500Y-14310000D02*
G75*
G02*
X31202500Y-14310000I-17500J0D01*
G01*
X31202500Y-14310000D02*
G75*
G02*
X31237500Y-14310000I17500J0D01*
G01*
X31238500Y-27757544D02*
G75*
G02*
X31203500Y-27757544I-17500J0D01*
G01*
X31203500Y-27757544D02*
G75*
G02*
X31238500Y-27757544I17500J0D01*
G01*
X31238500Y-28257544D02*
G75*
G02*
X31203500Y-28257544I-17500J0D01*
G01*
X31203500Y-28257544D02*
G75*
G02*
X31238500Y-28257544I17500J0D01*
G01*
X31297500Y-14080000D02*
G75*
G02*
X31262500Y-14080000I-17500J0D01*
G01*
X31262500Y-14080000D02*
G75*
G02*
X31297500Y-14080000I17500J0D01*
G01*
X31325000Y-14297500D02*
G75*
G02*
X31290000Y-14297500I-17500J0D01*
G01*
X31290000Y-14297500D02*
G75*
G02*
X31325000Y-14297500I17500J0D01*
G01*
X31337500Y-16078043D02*
G75*
G02*
X31302500Y-16078043I-17500J0D01*
G01*
X31302500Y-16078043D02*
G75*
G02*
X31337500Y-16078043I17500J0D01*
G01*
X31347250Y-27460000D02*
G75*
G02*
X31312250Y-27460000I-17500J0D01*
G01*
X31312250Y-27460000D02*
G75*
G02*
X31347250Y-27460000I17500J0D01*
G01*
X31347250Y-28000000D02*
G75*
G02*
X31312250Y-28000000I-17500J0D01*
G01*
X31312250Y-28000000D02*
G75*
G02*
X31347250Y-28000000I17500J0D01*
G01*
X31347250Y-28550000D02*
G75*
G02*
X31312250Y-28550000I-17500J0D01*
G01*
X31312250Y-28550000D02*
G75*
G02*
X31347250Y-28550000I17500J0D01*
G01*
X31417268Y-15769976D02*
G75*
G02*
X31382268Y-15769976I-17500J0D01*
G01*
X31382268Y-15769976D02*
G75*
G02*
X31417268Y-15769976I17500J0D01*
G01*
X31418750Y-11600000D02*
G75*
G02*
X31383750Y-11600000I-17500J0D01*
G01*
X31383750Y-11600000D02*
G75*
G02*
X31418750Y-11600000I17500J0D01*
G01*
X31418750Y-12020000D02*
G75*
G02*
X31383750Y-12020000I-17500J0D01*
G01*
X31383750Y-12020000D02*
G75*
G02*
X31418750Y-12020000I17500J0D01*
G01*
X31497524Y-15850232D02*
G75*
G02*
X31462524Y-15850232I-17500J0D01*
G01*
X31462524Y-15850232D02*
G75*
G02*
X31497524Y-15850232I17500J0D01*
G01*
X31596250Y-12530000D02*
G75*
G02*
X31561250Y-12530000I-17500J0D01*
G01*
X31561250Y-12530000D02*
G75*
G02*
X31596250Y-12530000I17500J0D01*
G01*
X31607396Y-15310104D02*
G75*
G02*
X31572396Y-15310104I-17500J0D01*
G01*
X31572396Y-15310104D02*
G75*
G02*
X31607396Y-15310104I17500J0D01*
G01*
X31608750Y-12950000D02*
G75*
G02*
X31573750Y-12950000I-17500J0D01*
G01*
X31573750Y-12950000D02*
G75*
G02*
X31608750Y-12950000I17500J0D01*
G01*
X31657396Y-14980104D02*
G75*
G02*
X31622396Y-14980104I-17500J0D01*
G01*
X31622396Y-14980104D02*
G75*
G02*
X31657396Y-14980104I17500J0D01*
G01*
X31697000Y-27460000D02*
G75*
G02*
X31662000Y-27460000I-17500J0D01*
G01*
X31662000Y-27460000D02*
G75*
G02*
X31697000Y-27460000I17500J0D01*
G01*
X31697250Y-28000000D02*
G75*
G02*
X31662250Y-28000000I-17500J0D01*
G01*
X31662250Y-28000000D02*
G75*
G02*
X31697250Y-28000000I17500J0D01*
G01*
X31697250Y-28550000D02*
G75*
G02*
X31662250Y-28550000I-17500J0D01*
G01*
X31662250Y-28550000D02*
G75*
G02*
X31697250Y-28550000I17500J0D01*
G01*
X31767268Y-15609976D02*
G75*
G02*
X31732268Y-15609976I-17500J0D01*
G01*
X31732268Y-15609976D02*
G75*
G02*
X31767268Y-15609976I17500J0D01*
G01*
X31797268Y-14370232D02*
G75*
G02*
X31762268Y-14370232I-17500J0D01*
G01*
X31762268Y-14370232D02*
G75*
G02*
X31797268Y-14370232I17500J0D01*
G01*
X31797500Y-27790000D02*
G75*
G02*
X31762500Y-27790000I-17500J0D01*
G01*
X31762500Y-27790000D02*
G75*
G02*
X31797500Y-27790000I17500J0D01*
G01*
X31837268Y-15539976D02*
G75*
G02*
X31802268Y-15539976I-17500J0D01*
G01*
X31802268Y-15539976D02*
G75*
G02*
X31837268Y-15539976I17500J0D01*
G01*
X31847524Y-15690232D02*
G75*
G02*
X31812524Y-15690232I-17500J0D01*
G01*
X31812524Y-15690232D02*
G75*
G02*
X31847524Y-15690232I17500J0D01*
G01*
X31852500Y-27735000D02*
G75*
G02*
X31817500Y-27735000I-17500J0D01*
G01*
X31817500Y-27735000D02*
G75*
G02*
X31852500Y-27735000I17500J0D01*
G01*
X31877524Y-14289976D02*
G75*
G02*
X31842524Y-14289976I-17500J0D01*
G01*
X31842524Y-14289976D02*
G75*
G02*
X31877524Y-14289976I17500J0D01*
G01*
X31887500Y-15450000D02*
G75*
G02*
X31852500Y-15450000I-17500J0D01*
G01*
X31852500Y-15450000D02*
G75*
G02*
X31887500Y-15450000I17500J0D01*
G01*
X31897396Y-15050104D02*
G75*
G02*
X31862396Y-15050104I-17500J0D01*
G01*
X31862396Y-15050104D02*
G75*
G02*
X31897396Y-15050104I17500J0D01*
G01*
X31917500Y-28260000D02*
G75*
G02*
X31882500Y-28260000I-17500J0D01*
G01*
X31882500Y-28260000D02*
G75*
G02*
X31917500Y-28260000I17500J0D01*
G01*
X31917524Y-15620232D02*
G75*
G02*
X31882524Y-15620232I-17500J0D01*
G01*
X31882524Y-15620232D02*
G75*
G02*
X31917524Y-15620232I17500J0D01*
G01*
X31947500Y-15520000D02*
G75*
G02*
X31912500Y-15520000I-17500J0D01*
G01*
X31912500Y-15520000D02*
G75*
G02*
X31947500Y-15520000I17500J0D01*
G01*
X31967500Y-28310000D02*
G75*
G02*
X31932500Y-28310000I-17500J0D01*
G01*
X31932500Y-28310000D02*
G75*
G02*
X31967500Y-28310000I17500J0D01*
G01*
X31977500Y-15690000D02*
G75*
G02*
X31942500Y-15690000I-17500J0D01*
G01*
X31942500Y-15690000D02*
G75*
G02*
X31977500Y-15690000I17500J0D01*
G01*
X32017500Y-15450000D02*
G75*
G02*
X31982500Y-15450000I-17500J0D01*
G01*
X31982500Y-15450000D02*
G75*
G02*
X32017500Y-15450000I17500J0D01*
G01*
X32047267Y-14879976D02*
G75*
G02*
X32012267Y-14879976I-17500J0D01*
G01*
X32012267Y-14879976D02*
G75*
G02*
X32047267Y-14879976I17500J0D01*
G01*
X32047500Y-15600000D02*
G75*
G02*
X32012500Y-15600000I-17500J0D01*
G01*
X32012500Y-15600000D02*
G75*
G02*
X32047500Y-15600000I17500J0D01*
G01*
X32067268Y-15129976D02*
G75*
G02*
X32032268Y-15129976I-17500J0D01*
G01*
X32032268Y-15129976D02*
G75*
G02*
X32067268Y-15129976I17500J0D01*
G01*
X32127524Y-14960232D02*
G75*
G02*
X32092524Y-14960232I-17500J0D01*
G01*
X32092524Y-14960232D02*
G75*
G02*
X32127524Y-14960232I17500J0D01*
G01*
X32137500Y-15640000D02*
G75*
G02*
X32102500Y-15640000I-17500J0D01*
G01*
X32102500Y-15640000D02*
G75*
G02*
X32137500Y-15640000I17500J0D01*
G01*
X32147524Y-15210232D02*
G75*
G02*
X32112524Y-15210232I-17500J0D01*
G01*
X32112524Y-15210232D02*
G75*
G02*
X32147524Y-15210232I17500J0D01*
G01*
X32167396Y-14520104D02*
G75*
G02*
X32132396Y-14520104I-17500J0D01*
G01*
X32132396Y-14520104D02*
G75*
G02*
X32167396Y-14520104I17500J0D01*
G01*
X32187372Y-14400128D02*
G75*
G02*
X32152372Y-14400128I-17500J0D01*
G01*
X32152372Y-14400128D02*
G75*
G02*
X32187372Y-14400128I17500J0D01*
G01*
X32197524Y-14890232D02*
G75*
G02*
X32162524Y-14890232I-17500J0D01*
G01*
X32162524Y-14890232D02*
G75*
G02*
X32197524Y-14890232I17500J0D01*
G01*
X32207268Y-15080232D02*
G75*
G02*
X32172268Y-15080232I-17500J0D01*
G01*
X32172268Y-15080232D02*
G75*
G02*
X32207268Y-15080232I17500J0D01*
G01*
X32217500Y-15850000D02*
G75*
G02*
X32182500Y-15850000I-17500J0D01*
G01*
X32182500Y-15850000D02*
G75*
G02*
X32217500Y-15850000I17500J0D01*
G01*
X32267628Y-14319872D02*
G75*
G02*
X32232628Y-14319872I-17500J0D01*
G01*
X32232628Y-14319872D02*
G75*
G02*
X32267628Y-14319872I17500J0D01*
G01*
X32287524Y-14999976D02*
G75*
G02*
X32252524Y-14999976I-17500J0D01*
G01*
X32252524Y-14999976D02*
G75*
G02*
X32287524Y-14999976I17500J0D01*
G01*
X32307500Y-15689430D02*
G75*
G02*
X32272500Y-15689430I-17500J0D01*
G01*
X32272500Y-15689430D02*
G75*
G02*
X32307500Y-15689430I17500J0D01*
G01*
X32332500Y-12530000D02*
G75*
G02*
X32297500Y-12530000I-17500J0D01*
G01*
X32297500Y-12530000D02*
G75*
G02*
X32332500Y-12530000I17500J0D01*
G01*
X32332500Y-12950000D02*
G75*
G02*
X32297500Y-12950000I-17500J0D01*
G01*
X32297500Y-12950000D02*
G75*
G02*
X32332500Y-12950000I17500J0D01*
G01*
X32347396Y-14800104D02*
G75*
G02*
X32312396Y-14800104I-17500J0D01*
G01*
X32312396Y-14800104D02*
G75*
G02*
X32347396Y-14800104I17500J0D01*
G01*
X32367500Y-15759082D02*
G75*
G02*
X32332500Y-15759082I-17500J0D01*
G01*
X32332500Y-15759082D02*
G75*
G02*
X32367500Y-15759082I17500J0D01*
G01*
X32479645Y-15032354D02*
G75*
G02*
X32444645Y-15032354I-17500J0D01*
G01*
X32444645Y-15032354D02*
G75*
G02*
X32479645Y-15032354I17500J0D01*
G01*
X32495368Y-15338076D02*
G75*
G02*
X32460368Y-15338076I-17500J0D01*
G01*
X32460368Y-15338076D02*
G75*
G02*
X32495368Y-15338076I17500J0D01*
G01*
X32517615Y-15139651D02*
G75*
G02*
X32482615Y-15139651I-17500J0D01*
G01*
X32482615Y-15139651D02*
G75*
G02*
X32517615Y-15139651I17500J0D01*
G01*
X32603323Y-14677221D02*
G75*
G02*
X32568323Y-14677221I-17500J0D01*
G01*
X32568323Y-14677221D02*
G75*
G02*
X32603323Y-14677221I17500J0D01*
G01*
X32635146Y-15007854D02*
G75*
G02*
X32600146Y-15007854I-17500J0D01*
G01*
X32600146Y-15007854D02*
G75*
G02*
X32635146Y-15007854I17500J0D01*
G01*
X32719645Y-15092354D02*
G75*
G02*
X32684645Y-15092354I-17500J0D01*
G01*
X32684645Y-15092354D02*
G75*
G02*
X32719645Y-15092354I17500J0D01*
G01*
X32757317Y-14524538D02*
G75*
G02*
X32722317Y-14524538I-17500J0D01*
G01*
X32722317Y-14524538D02*
G75*
G02*
X32757317Y-14524538I17500J0D01*
G01*
X32787396Y-14980104D02*
G75*
G02*
X32752396Y-14980104I-17500J0D01*
G01*
X32752396Y-14980104D02*
G75*
G02*
X32787396Y-14980104I17500J0D01*
G01*
X32825974Y-14748683D02*
G75*
G02*
X32790974Y-14748683I-17500J0D01*
G01*
X32790974Y-14748683D02*
G75*
G02*
X32825974Y-14748683I17500J0D01*
G01*
X32997396Y-15040104D02*
G75*
G02*
X32962396Y-15040104I-17500J0D01*
G01*
X32962396Y-15040104D02*
G75*
G02*
X32997396Y-15040104I17500J0D01*
G01*
X33065146Y-14577854D02*
G75*
G02*
X33030146Y-14577854I-17500J0D01*
G01*
X33030146Y-14577854D02*
G75*
G02*
X33065146Y-14577854I17500J0D01*
G01*
X33072321Y-14870371D02*
G75*
G02*
X33037321Y-14870371I-17500J0D01*
G01*
X33037321Y-14870371D02*
G75*
G02*
X33072321Y-14870371I17500J0D01*
G01*
X33077396Y-15160104D02*
G75*
G02*
X33042396Y-15160104I-17500J0D01*
G01*
X33042396Y-15160104D02*
G75*
G02*
X33077396Y-15160104I17500J0D01*
G01*
X33149645Y-14662354D02*
G75*
G02*
X33114645Y-14662354I-17500J0D01*
G01*
X33114645Y-14662354D02*
G75*
G02*
X33149645Y-14662354I17500J0D01*
G01*
X33196500Y-12073000D02*
G75*
G02*
X33161500Y-12073000I-17500J0D01*
G01*
X33161500Y-12073000D02*
G75*
G02*
X33196500Y-12073000I17500J0D01*
G01*
X33247396Y-14990104D02*
G75*
G02*
X33212396Y-14990104I-17500J0D01*
G01*
X33212396Y-14990104D02*
G75*
G02*
X33247396Y-14990104I17500J0D01*
G01*
X33577500Y-12337500D02*
G75*
G02*
X33542500Y-12337500I-17500J0D01*
G01*
X33542500Y-12337500D02*
G75*
G02*
X33577500Y-12337500I17500J0D01*
G01*
X33907500Y-12337500D02*
G75*
G02*
X33872500Y-12337500I-17500J0D01*
G01*
X33872500Y-12337500D02*
G75*
G02*
X33907500Y-12337500I17500J0D01*
G01*
X34067500Y-15510000D02*
G75*
G02*
X34032500Y-15510000I-17500J0D01*
G01*
X34032500Y-15510000D02*
G75*
G02*
X34067500Y-15510000I17500J0D01*
G01*
X34207500Y-13930000D02*
G75*
G02*
X34172500Y-13930000I-17500J0D01*
G01*
X34172500Y-13930000D02*
G75*
G02*
X34207500Y-13930000I17500J0D01*
G01*
X34395500Y-27688000D02*
G75*
G02*
X34360500Y-27688000I-17500J0D01*
G01*
X34360500Y-27688000D02*
G75*
G02*
X34395500Y-27688000I17500J0D01*
G01*
X34397500Y-27230000D02*
G75*
G02*
X34362500Y-27230000I-17500J0D01*
G01*
X34362500Y-27230000D02*
G75*
G02*
X34397500Y-27230000I17500J0D01*
G01*
X34477500Y-14240000D02*
G75*
G02*
X34442500Y-14240000I-17500J0D01*
G01*
X34442500Y-14240000D02*
G75*
G02*
X34477500Y-14240000I17500J0D01*
G01*
X34737500Y-27595000D02*
G75*
G02*
X34702500Y-27595000I-17500J0D01*
G01*
X34702500Y-27595000D02*
G75*
G02*
X34737500Y-27595000I17500J0D01*
G01*
X34857500Y-15460000D02*
G75*
G02*
X34822500Y-15460000I-17500J0D01*
G01*
X34822500Y-15460000D02*
G75*
G02*
X34857500Y-15460000I17500J0D01*
G01*
X34917500Y-16570000D02*
G75*
G02*
X34882500Y-16570000I-17500J0D01*
G01*
X34882500Y-16570000D02*
G75*
G02*
X34917500Y-16570000I17500J0D01*
G01*
X34977500Y-15397596D02*
G75*
G02*
X34942500Y-15397596I-17500J0D01*
G01*
X34942500Y-15397596D02*
G75*
G02*
X34977500Y-15397596I17500J0D01*
G01*
X35027500Y-26790000D02*
G75*
G02*
X34992500Y-26790000I-17500J0D01*
G01*
X34992500Y-26790000D02*
G75*
G02*
X35027500Y-26790000I17500J0D01*
G01*
X35077500Y-26860000D02*
G75*
G02*
X35042500Y-26860000I-17500J0D01*
G01*
X35042500Y-26860000D02*
G75*
G02*
X35077500Y-26860000I17500J0D01*
G01*
X35106250Y-27465000D02*
G75*
G02*
X35071250Y-27465000I-17500J0D01*
G01*
X35071250Y-27465000D02*
G75*
G02*
X35106250Y-27465000I17500J0D01*
G01*
X35127500Y-26930058D02*
G75*
G02*
X35092500Y-26930058I-17500J0D01*
G01*
X35092500Y-26930058D02*
G75*
G02*
X35127500Y-26930058I17500J0D01*
G01*
X35177500Y-26999719D02*
G75*
G02*
X35142500Y-26999719I-17500J0D01*
G01*
X35142500Y-26999719D02*
G75*
G02*
X35177500Y-26999719I17500J0D01*
G01*
X35237500Y-27064490D02*
G75*
G02*
X35202500Y-27064490I-17500J0D01*
G01*
X35202500Y-27064490D02*
G75*
G02*
X35237500Y-27064490I17500J0D01*
G01*
X35287500Y-27133470D02*
G75*
G02*
X35252500Y-27133470I-17500J0D01*
G01*
X35252500Y-27133470D02*
G75*
G02*
X35287500Y-27133470I17500J0D01*
G01*
X35347500Y-27201973D02*
G75*
G02*
X35312500Y-27201973I-17500J0D01*
G01*
X35312500Y-27201973D02*
G75*
G02*
X35347500Y-27201973I17500J0D01*
G01*
X35397500Y-27273886D02*
G75*
G02*
X35362500Y-27273886I-17500J0D01*
G01*
X35362500Y-27273886D02*
G75*
G02*
X35397500Y-27273886I17500J0D01*
G01*
X35477500Y-27330000D02*
G75*
G02*
X35442500Y-27330000I-17500J0D01*
G01*
X35442500Y-27330000D02*
G75*
G02*
X35477500Y-27330000I17500J0D01*
G01*
X35527500Y-27400000D02*
G75*
G02*
X35492500Y-27400000I-17500J0D01*
G01*
X35492500Y-27400000D02*
G75*
G02*
X35527500Y-27400000I17500J0D01*
G01*
X35837500Y-17951250D02*
G75*
G02*
X35802500Y-17951250I-17500J0D01*
G01*
X35802500Y-17951250D02*
G75*
G02*
X35837500Y-17951250I17500J0D01*
G01*
X36091500Y-17951250D02*
G75*
G02*
X36056500Y-17951250I-17500J0D01*
G01*
X36056500Y-17951250D02*
G75*
G02*
X36091500Y-17951250I17500J0D01*
G01*
X36247250Y-19790000D02*
G75*
G02*
X36212250Y-19790000I-17500J0D01*
G01*
X36212250Y-19790000D02*
G75*
G02*
X36247250Y-19790000I17500J0D01*
G01*
X36298750Y-21190000D02*
G75*
G02*
X36263750Y-21190000I-17500J0D01*
G01*
X36263750Y-21190000D02*
G75*
G02*
X36298750Y-21190000I17500J0D01*
G01*
X36407500Y-14950000D02*
G75*
G02*
X36372500Y-14950000I-17500J0D01*
G01*
X36372500Y-14950000D02*
G75*
G02*
X36407500Y-14950000I17500J0D01*
G01*
X36417500Y-19540000D02*
G75*
G02*
X36382500Y-19540000I-17500J0D01*
G01*
X36382500Y-19540000D02*
G75*
G02*
X36417500Y-19540000I17500J0D01*
G01*
X36417500Y-20020000D02*
G75*
G02*
X36382500Y-20020000I-17500J0D01*
G01*
X36382500Y-20020000D02*
G75*
G02*
X36417500Y-20020000I17500J0D01*
G01*
X36467500Y-15090000D02*
G75*
G02*
X36432500Y-15090000I-17500J0D01*
G01*
X36432500Y-15090000D02*
G75*
G02*
X36467500Y-15090000I17500J0D01*
G01*
X36547500Y-14740000D02*
G75*
G02*
X36512500Y-14740000I-17500J0D01*
G01*
X36512500Y-14740000D02*
G75*
G02*
X36547500Y-14740000I17500J0D01*
G01*
X36647500Y-14950000D02*
G75*
G02*
X36612500Y-14950000I-17500J0D01*
G01*
X36612500Y-14950000D02*
G75*
G02*
X36647500Y-14950000I17500J0D01*
G01*
X36847500Y-15090000D02*
G75*
G02*
X36812500Y-15090000I-17500J0D01*
G01*
X36812500Y-15090000D02*
G75*
G02*
X36847500Y-15090000I17500J0D01*
G01*
X37018000Y-15458750D02*
G75*
G02*
X36983000Y-15458750I-17500J0D01*
G01*
X36983000Y-15458750D02*
G75*
G02*
X37018000Y-15458750I17500J0D01*
G01*
X37177500Y-15616750D02*
G75*
G02*
X37142500Y-15616750I-17500J0D01*
G01*
X37142500Y-15616750D02*
G75*
G02*
X37177500Y-15616750I17500J0D01*
G01*
X37272500Y-21545000D02*
G75*
G02*
X37237500Y-21545000I-17500J0D01*
G01*
X37237500Y-21545000D02*
G75*
G02*
X37272500Y-21545000I17500J0D01*
G01*
X37327500Y-21600000D02*
G75*
G02*
X37292500Y-21600000I-17500J0D01*
G01*
X37292500Y-21600000D02*
G75*
G02*
X37327500Y-21600000I17500J0D01*
G01*
X37397500Y-21670000D02*
G75*
G02*
X37362500Y-21670000I-17500J0D01*
G01*
X37362500Y-21670000D02*
G75*
G02*
X37397500Y-21670000I17500J0D01*
G01*
X37717500Y-22761250D02*
G75*
G02*
X37682500Y-22761250I-17500J0D01*
G01*
X37682500Y-22761250D02*
G75*
G02*
X37717500Y-22761250I17500J0D01*
G01*
X37927500Y-22876250D02*
G75*
G02*
X37892500Y-22876250I-17500J0D01*
G01*
X37892500Y-22876250D02*
G75*
G02*
X37927500Y-22876250I17500J0D01*
G01*
X37952500Y-18010000D02*
G75*
G02*
X37917500Y-18010000I-17500J0D01*
G01*
X37917500Y-18010000D02*
G75*
G02*
X37952500Y-18010000I17500J0D01*
G01*
X38283750Y-21671250D02*
G75*
G02*
X38248750Y-21671250I-17500J0D01*
G01*
X38248750Y-21671250D02*
G75*
G02*
X38283750Y-21671250I17500J0D01*
G01*
X38367500Y-22511250D02*
G75*
G02*
X38332500Y-22511250I-17500J0D01*
G01*
X38332500Y-22511250D02*
G75*
G02*
X38367500Y-22511250I17500J0D01*
G01*
X38377500Y-23042500D02*
G75*
G02*
X38342500Y-23042500I-17500J0D01*
G01*
X38342500Y-23042500D02*
G75*
G02*
X38377500Y-23042500I17500J0D01*
G01*
X38452500Y-17740000D02*
G75*
G02*
X38417500Y-17740000I-17500J0D01*
G01*
X38417500Y-17740000D02*
G75*
G02*
X38452500Y-17740000I17500J0D01*
G01*
X38512500Y-20680350D02*
G75*
G02*
X38477500Y-20680350I-17500J0D01*
G01*
X38477500Y-20680350D02*
G75*
G02*
X38512500Y-20680350I17500J0D01*
G01*
X38516250Y-20850000D02*
G75*
G02*
X38481250Y-20850000I-17500J0D01*
G01*
X38481250Y-20850000D02*
G75*
G02*
X38516250Y-20850000I17500J0D01*
G01*
X38547500Y-23042500D02*
G75*
G02*
X38512500Y-23042500I-17500J0D01*
G01*
X38512500Y-23042500D02*
G75*
G02*
X38547500Y-23042500I17500J0D01*
G01*
X38612500Y-22701750D02*
G75*
G02*
X38577500Y-22701750I-17500J0D01*
G01*
X38577500Y-22701750D02*
G75*
G02*
X38612500Y-22701750I17500J0D01*
G01*
X38647500Y-21840000D02*
G75*
G02*
X38612500Y-21840000I-17500J0D01*
G01*
X38612500Y-21840000D02*
G75*
G02*
X38647500Y-21840000I17500J0D01*
G01*
X38687750Y-22851250D02*
G75*
G02*
X38652750Y-22851250I-17500J0D01*
G01*
X38652750Y-22851250D02*
G75*
G02*
X38687750Y-22851250I17500J0D01*
G01*
X38688750Y-20850000D02*
G75*
G02*
X38653750Y-20850000I-17500J0D01*
G01*
X38653750Y-20850000D02*
G75*
G02*
X38688750Y-20850000I17500J0D01*
G01*
X38702500Y-20420000D02*
G75*
G02*
X38667500Y-20420000I-17500J0D01*
G01*
X38667500Y-20420000D02*
G75*
G02*
X38702500Y-20420000I17500J0D01*
G01*
X38765000Y-19970000D02*
G75*
G02*
X38730000Y-19970000I-17500J0D01*
G01*
X38730000Y-19970000D02*
G75*
G02*
X38765000Y-19970000I17500J0D01*
G01*
X38862500Y-22001250D02*
G75*
G02*
X38827500Y-22001250I-17500J0D01*
G01*
X38827500Y-22001250D02*
G75*
G02*
X38862500Y-22001250I17500J0D01*
G01*
X38868750Y-21150000D02*
G75*
G02*
X38833750Y-21150000I-17500J0D01*
G01*
X38833750Y-21150000D02*
G75*
G02*
X38868750Y-21150000I17500J0D01*
G01*
X38871250Y-20340000D02*
G75*
G02*
X38836250Y-20340000I-17500J0D01*
G01*
X38836250Y-20340000D02*
G75*
G02*
X38871250Y-20340000I17500J0D01*
G01*
X38944250Y-22331250D02*
G75*
G02*
X38909250Y-22331250I-17500J0D01*
G01*
X38909250Y-22331250D02*
G75*
G02*
X38944250Y-22331250I17500J0D01*
G01*
X39043750Y-20340000D02*
G75*
G02*
X39008750Y-20340000I-17500J0D01*
G01*
X39008750Y-20340000D02*
G75*
G02*
X39043750Y-20340000I17500J0D01*
G01*
X39062500Y-21160000D02*
G75*
G02*
X39027500Y-21160000I-17500J0D01*
G01*
X39027500Y-21160000D02*
G75*
G02*
X39062500Y-21160000I17500J0D01*
G01*
X39077500Y-22080000D02*
G75*
G02*
X39042500Y-22080000I-17500J0D01*
G01*
X39042500Y-22080000D02*
G75*
G02*
X39077500Y-22080000I17500J0D01*
G01*
X39147500Y-21880000D02*
G75*
G02*
X39112500Y-21880000I-17500J0D01*
G01*
X39112500Y-21880000D02*
G75*
G02*
X39147500Y-21880000I17500J0D01*
G01*
X39227500Y-21990000D02*
G75*
G02*
X39192500Y-21990000I-17500J0D01*
G01*
X39192500Y-21990000D02*
G75*
G02*
X39227500Y-21990000I17500J0D01*
G01*
X39238750Y-21150000D02*
G75*
G02*
X39203750Y-21150000I-17500J0D01*
G01*
X39203750Y-21150000D02*
G75*
G02*
X39238750Y-21150000I17500J0D01*
G01*
X39287500Y-21880000D02*
G75*
G02*
X39252500Y-21880000I-17500J0D01*
G01*
X39252500Y-21880000D02*
G75*
G02*
X39287500Y-21880000I17500J0D01*
G01*
X39407500Y-19640000D02*
G75*
G02*
X39372500Y-19640000I-17500J0D01*
G01*
X39372500Y-19640000D02*
G75*
G02*
X39407500Y-19640000I17500J0D01*
G01*
X39687500Y-21880000D02*
G75*
G02*
X39652500Y-21880000I-17500J0D01*
G01*
X39652500Y-21880000D02*
G75*
G02*
X39687500Y-21880000I17500J0D01*
G01*
X39737500Y-22000000D02*
G75*
G02*
X39702500Y-22000000I-17500J0D01*
G01*
X39702500Y-22000000D02*
G75*
G02*
X39737500Y-22000000I17500J0D01*
G01*
X39747500Y-21760000D02*
G75*
G02*
X39712500Y-21760000I-17500J0D01*
G01*
X39712500Y-21760000D02*
G75*
G02*
X39747500Y-21760000I17500J0D01*
G01*
X39807500Y-21890000D02*
G75*
G02*
X39772500Y-21890000I-17500J0D01*
G01*
X39772500Y-21890000D02*
G75*
G02*
X39807500Y-21890000I17500J0D01*
G01*
X28451355Y-15327674D02*
X28451355Y-15362674D01*
X28433855Y-15345174D02*
X28468855Y-15345174D01*
X28451355Y-15471217D02*
X28451355Y-15506217D01*
X28433855Y-15488717D02*
X28468855Y-15488717D01*
X28523126Y-15399445D02*
X28523126Y-15434445D01*
X28505626Y-15416945D02*
X28540626Y-15416945D01*
X28548229Y-15230800D02*
X28548229Y-15265800D01*
X28530729Y-15248300D02*
X28565729Y-15248300D01*
X28548229Y-15568090D02*
X28548229Y-15603090D01*
X28530729Y-15585590D02*
X28565729Y-15585590D01*
X28620000Y-15302572D02*
X28620000Y-15337572D01*
X28602500Y-15320072D02*
X28637500Y-15320072D01*
X28620000Y-15496319D02*
X28620000Y-15531319D01*
X28602500Y-15513819D02*
X28637500Y-15513819D01*
X28691771Y-15230800D02*
X28691771Y-15265800D01*
X28674271Y-15248300D02*
X28709271Y-15248300D01*
X28691771Y-15568090D02*
X28691771Y-15603090D01*
X28674271Y-15585590D02*
X28709271Y-15585590D01*
X28716874Y-15399445D02*
X28716874Y-15434445D01*
X28699374Y-15416945D02*
X28734374Y-15416945D01*
X28788645Y-15327674D02*
X28788645Y-15362674D01*
X28771145Y-15345174D02*
X28806145Y-15345174D01*
X28788645Y-15471217D02*
X28788645Y-15506217D01*
X28771145Y-15488717D02*
X28806145Y-15488717D01*
X31225546Y-15089675D02*
X31225546Y-15124675D01*
X31208046Y-15107175D02*
X31243046Y-15107175D01*
X31289185Y-15153315D02*
X31289185Y-15188315D01*
X31271685Y-15170815D02*
X31306685Y-15170815D01*
X31296256Y-15018964D02*
X31296256Y-15053964D01*
X31278756Y-15036464D02*
X31313756Y-15036464D01*
X31349289Y-15213419D02*
X31349289Y-15248419D01*
X31331789Y-15230919D02*
X31366789Y-15230919D01*
X31359896Y-15082604D02*
X31359896Y-15117604D01*
X31342396Y-15100104D02*
X31377396Y-15100104D01*
X31366967Y-14948254D02*
X31366967Y-14983254D01*
X31349467Y-14965754D02*
X31384467Y-14965754D01*
X31420000Y-15142708D02*
X31420000Y-15177708D01*
X31402500Y-15160208D02*
X31437500Y-15160208D01*
X31430607Y-15011893D02*
X31430607Y-15046893D01*
X31413107Y-15029393D02*
X31448107Y-15029393D01*
X31508388Y-15089675D02*
X31508388Y-15124675D01*
X31490888Y-15107175D02*
X31525888Y-15107175D01*
X26527678Y-18893928D02*
X26527678Y-18858572D01*
X26492322Y-18858572D01*
X26492322Y-18893928D01*
X26527678Y-18893928D01*
X26527678Y-19143928D02*
X26527678Y-19108572D01*
X26492322Y-19108572D01*
X26492322Y-19143928D01*
X26527678Y-19143928D01*
X26627678Y-18893928D02*
X26627678Y-18858572D01*
X26592322Y-18858572D01*
X26592322Y-18893928D01*
X26627678Y-18893928D01*
X26627678Y-19143928D02*
X26627678Y-19108572D01*
X26592322Y-19108572D01*
X26592322Y-19143928D01*
X26627678Y-19143928D01*
X26727678Y-18893928D02*
X26727678Y-18858572D01*
X26692322Y-18858572D01*
X26692322Y-18893928D01*
X26727678Y-18893928D01*
X26727678Y-19143928D02*
X26727678Y-19108572D01*
X26692322Y-19108572D01*
X26692322Y-19143928D01*
X26727678Y-19143928D01*
X26827678Y-18893928D02*
X26827678Y-18858572D01*
X26792322Y-18858572D01*
X26792322Y-18893928D01*
X26827678Y-18893928D01*
X26827678Y-19143928D02*
X26827678Y-19108572D01*
X26792322Y-19108572D01*
X26792322Y-19143928D01*
X26827678Y-19143928D01*
X33130000Y-12436000D02*
X33180000Y-12386000D01*
X33130000Y-12336000D01*
X33080000Y-12386000D01*
X33130000Y-12436000D01*
X33130000Y-12690000D02*
X33180000Y-12640000D01*
X33130000Y-12590000D01*
X33080000Y-12640000D01*
X33130000Y-12690000D01*
X33130000Y-12944000D02*
X33180000Y-12894000D01*
X33130000Y-12844000D01*
X33080000Y-12894000D01*
X33130000Y-12944000D01*
X34856000Y-13290000D02*
X34906000Y-13240000D01*
X34856000Y-13190000D01*
X34806000Y-13240000D01*
X34856000Y-13290000D01*
X35110000Y-13290000D02*
X35160000Y-13240000D01*
X35110000Y-13190000D01*
X35060000Y-13240000D01*
X35110000Y-13290000D01*
X35364000Y-13290000D02*
X35414000Y-13240000D01*
X35364000Y-13190000D01*
X35314000Y-13240000D01*
X35364000Y-13290000D01*
D10*
X22945000Y-18825000D02*
X23195000Y-19075000D01*
X23195000Y-18825000D02*
X22945000Y-19075000D01*
X23195000Y-18950000D02*
G75*
G02*
X22945000Y-18950000I-125000J0D01*
G01*
X22945000Y-18950000D02*
G75*
G02*
X23195000Y-18950000I125000J0D01*
G01*
X22945000Y-19525000D02*
X23195000Y-19775000D01*
X23195000Y-19525000D02*
X22945000Y-19775000D01*
X23195000Y-19650000D02*
G75*
G02*
X22945000Y-19650000I-125000J0D01*
G01*
X22945000Y-19650000D02*
G75*
G02*
X23195000Y-19650000I125000J0D01*
G01*
X22945000Y-21175000D02*
X23195000Y-21425000D01*
X23195000Y-21175000D02*
X22945000Y-21425000D01*
X23195000Y-21300000D02*
G75*
G02*
X22945000Y-21300000I-125000J0D01*
G01*
X22945000Y-21300000D02*
G75*
G02*
X23195000Y-21300000I125000J0D01*
G01*
X22945000Y-21875000D02*
X23195000Y-22125000D01*
X23195000Y-21875000D02*
X22945000Y-22125000D01*
X23195000Y-22000000D02*
G75*
G02*
X22945000Y-22000000I-125000J0D01*
G01*
X22945000Y-22000000D02*
G75*
G02*
X23195000Y-22000000I125000J0D01*
G01*
X23745000Y-19895000D02*
X23995000Y-20145000D01*
X23995000Y-19895000D02*
X23745000Y-20145000D01*
X23995000Y-20020000D02*
G75*
G02*
X23745000Y-20020000I-125000J0D01*
G01*
X23745000Y-20020000D02*
G75*
G02*
X23995000Y-20020000I125000J0D01*
G01*
X23745000Y-20645000D02*
X23995000Y-20895000D01*
X23995000Y-20645000D02*
X23745000Y-20895000D01*
X23995000Y-20770000D02*
G75*
G02*
X23745000Y-20770000I-125000J0D01*
G01*
X23745000Y-20770000D02*
G75*
G02*
X23995000Y-20770000I125000J0D01*
G01*
D14*
X29295000Y-24455000D02*
X29745000Y-24905000D01*
X29745000Y-24455000D02*
X29295000Y-24905000D01*
X29520000Y-24455000D02*
X29520000Y-24905000D01*
X29295000Y-24680000D02*
X29745000Y-24680000D01*
X30015000Y-24455000D02*
X30465000Y-24905000D01*
X30465000Y-24455000D02*
X30015000Y-24905000D01*
X30240000Y-24455000D02*
X30240000Y-24905000D01*
X30015000Y-24680000D02*
X30465000Y-24680000D01*
X31265000Y-24455000D02*
X31715000Y-24905000D01*
X31715000Y-24455000D02*
X31265000Y-24905000D01*
X31490000Y-24455000D02*
X31490000Y-24905000D01*
X31265000Y-24680000D02*
X31715000Y-24680000D01*
X31985000Y-24455000D02*
X32435000Y-24905000D01*
X32435000Y-24455000D02*
X31985000Y-24905000D01*
X32210000Y-24455000D02*
X32210000Y-24905000D01*
X31985000Y-24680000D02*
X32435000Y-24680000D01*
X35125000Y-21795000D02*
X35575000Y-22245000D01*
X35575000Y-21795000D02*
X35125000Y-22245000D01*
X35350000Y-21795000D02*
X35350000Y-22245000D01*
X35125000Y-22020000D02*
X35575000Y-22020000D01*
X35125000Y-22515000D02*
X35575000Y-22965000D01*
X35575000Y-22515000D02*
X35125000Y-22965000D01*
X35350000Y-22515000D02*
X35350000Y-22965000D01*
X35125000Y-22740000D02*
X35575000Y-22740000D01*
D12*
X21118277Y-30232027D02*
X21118277Y-30032027D01*
X21118277Y-30032027D02*
X21165896Y-30032027D01*
X21165896Y-30032027D02*
X21194467Y-30041551D01*
X21194467Y-30041551D02*
X21213515Y-30060599D01*
X21213515Y-30060599D02*
X21223039Y-30079646D01*
X21223039Y-30079646D02*
X21232563Y-30117741D01*
X21232563Y-30117741D02*
X21232563Y-30146313D01*
X21232563Y-30146313D02*
X21223039Y-30184408D01*
X21223039Y-30184408D02*
X21213515Y-30203456D01*
X21213515Y-30203456D02*
X21194467Y-30222503D01*
X21194467Y-30222503D02*
X21165896Y-30232027D01*
X21165896Y-30232027D02*
X21118277Y-30232027D01*
X21318277Y-30232027D02*
X21318277Y-30098694D01*
X21318277Y-30136789D02*
X21327801Y-30117741D01*
X21327801Y-30117741D02*
X21337324Y-30108218D01*
X21337324Y-30108218D02*
X21356372Y-30098694D01*
X21356372Y-30098694D02*
X21375420Y-30098694D01*
X21442086Y-30232027D02*
X21442086Y-30098694D01*
X21442086Y-30032027D02*
X21432563Y-30041551D01*
X21432563Y-30041551D02*
X21442086Y-30051075D01*
X21442086Y-30051075D02*
X21451610Y-30041551D01*
X21451610Y-30041551D02*
X21442086Y-30032027D01*
X21442086Y-30032027D02*
X21442086Y-30051075D01*
X21565896Y-30232027D02*
X21546848Y-30222503D01*
X21546848Y-30222503D02*
X21537324Y-30203456D01*
X21537324Y-30203456D02*
X21537324Y-30032027D01*
X21670658Y-30232027D02*
X21651610Y-30222503D01*
X21651610Y-30222503D02*
X21642086Y-30203456D01*
X21642086Y-30203456D02*
X21642086Y-30032027D01*
X21899229Y-30232027D02*
X21899229Y-30032027D01*
X21899229Y-30032027D02*
X21965896Y-30174884D01*
X21965896Y-30174884D02*
X22032563Y-30032027D01*
X22032563Y-30032027D02*
X22032563Y-30232027D01*
X22213515Y-30232027D02*
X22213515Y-30127265D01*
X22213515Y-30127265D02*
X22203991Y-30108218D01*
X22203991Y-30108218D02*
X22184944Y-30098694D01*
X22184944Y-30098694D02*
X22146848Y-30098694D01*
X22146848Y-30098694D02*
X22127801Y-30108218D01*
X22213515Y-30222503D02*
X22194467Y-30232027D01*
X22194467Y-30232027D02*
X22146848Y-30232027D01*
X22146848Y-30232027D02*
X22127801Y-30222503D01*
X22127801Y-30222503D02*
X22118277Y-30203456D01*
X22118277Y-30203456D02*
X22118277Y-30184408D01*
X22118277Y-30184408D02*
X22127801Y-30165360D01*
X22127801Y-30165360D02*
X22146848Y-30155837D01*
X22146848Y-30155837D02*
X22194467Y-30155837D01*
X22194467Y-30155837D02*
X22213515Y-30146313D01*
X22308753Y-30098694D02*
X22308753Y-30298694D01*
X22308753Y-30108218D02*
X22327801Y-30098694D01*
X22327801Y-30098694D02*
X22365896Y-30098694D01*
X22365896Y-30098694D02*
X22384943Y-30108218D01*
X22384943Y-30108218D02*
X22394467Y-30117741D01*
X22394467Y-30117741D02*
X22403991Y-30136789D01*
X22403991Y-30136789D02*
X22403991Y-30193932D01*
X22403991Y-30193932D02*
X22394467Y-30212979D01*
X22394467Y-30212979D02*
X22384943Y-30222503D01*
X22384943Y-30222503D02*
X22365896Y-30232027D01*
X22365896Y-30232027D02*
X22327801Y-30232027D01*
X22327801Y-30232027D02*
X22308753Y-30222503D01*
X22489705Y-30212979D02*
X22499229Y-30222503D01*
X22499229Y-30222503D02*
X22489705Y-30232027D01*
X22489705Y-30232027D02*
X22480182Y-30222503D01*
X22480182Y-30222503D02*
X22489705Y-30212979D01*
X22489705Y-30212979D02*
X22489705Y-30232027D01*
X22489705Y-30108218D02*
X22499229Y-30117741D01*
X22499229Y-30117741D02*
X22489705Y-30127265D01*
X22489705Y-30127265D02*
X22480182Y-30117741D01*
X22480182Y-30117741D02*
X22489705Y-30108218D01*
X22489705Y-30108218D02*
X22489705Y-30127265D01*
D13*
X20827500Y-30545543D02*
X20857500Y-30575543D01*
X20857500Y-30545543D02*
X20827500Y-30575543D01*
D12*
X21156372Y-30452027D02*
X21175420Y-30452027D01*
X21175420Y-30452027D02*
X21194467Y-30461551D01*
X21194467Y-30461551D02*
X21203991Y-30471075D01*
X21203991Y-30471075D02*
X21213515Y-30490122D01*
X21213515Y-30490122D02*
X21223039Y-30528218D01*
X21223039Y-30528218D02*
X21223039Y-30575837D01*
X21223039Y-30575837D02*
X21213515Y-30613932D01*
X21213515Y-30613932D02*
X21203991Y-30632979D01*
X21203991Y-30632979D02*
X21194467Y-30642503D01*
X21194467Y-30642503D02*
X21175420Y-30652027D01*
X21175420Y-30652027D02*
X21156372Y-30652027D01*
X21156372Y-30652027D02*
X21137324Y-30642503D01*
X21137324Y-30642503D02*
X21127801Y-30632979D01*
X21127801Y-30632979D02*
X21118277Y-30613932D01*
X21118277Y-30613932D02*
X21108753Y-30575837D01*
X21108753Y-30575837D02*
X21108753Y-30528218D01*
X21108753Y-30528218D02*
X21118277Y-30490122D01*
X21118277Y-30490122D02*
X21127801Y-30471075D01*
X21127801Y-30471075D02*
X21137324Y-30461551D01*
X21137324Y-30461551D02*
X21156372Y-30452027D01*
X21308753Y-30632979D02*
X21318277Y-30642503D01*
X21318277Y-30642503D02*
X21308753Y-30652027D01*
X21308753Y-30652027D02*
X21299229Y-30642503D01*
X21299229Y-30642503D02*
X21308753Y-30632979D01*
X21308753Y-30632979D02*
X21308753Y-30652027D01*
X21384944Y-30452027D02*
X21508753Y-30452027D01*
X21508753Y-30452027D02*
X21442086Y-30528218D01*
X21442086Y-30528218D02*
X21470658Y-30528218D01*
X21470658Y-30528218D02*
X21489705Y-30537741D01*
X21489705Y-30537741D02*
X21499229Y-30547265D01*
X21499229Y-30547265D02*
X21508753Y-30566313D01*
X21508753Y-30566313D02*
X21508753Y-30613932D01*
X21508753Y-30613932D02*
X21499229Y-30632979D01*
X21499229Y-30632979D02*
X21489705Y-30642503D01*
X21489705Y-30642503D02*
X21470658Y-30652027D01*
X21470658Y-30652027D02*
X21413515Y-30652027D01*
X21413515Y-30652027D02*
X21394467Y-30642503D01*
X21394467Y-30642503D02*
X21384944Y-30632979D01*
X21632563Y-30452027D02*
X21651610Y-30452027D01*
X21651610Y-30452027D02*
X21670658Y-30461551D01*
X21670658Y-30461551D02*
X21680182Y-30471075D01*
X21680182Y-30471075D02*
X21689705Y-30490122D01*
X21689705Y-30490122D02*
X21699229Y-30528218D01*
X21699229Y-30528218D02*
X21699229Y-30575837D01*
X21699229Y-30575837D02*
X21689705Y-30613932D01*
X21689705Y-30613932D02*
X21680182Y-30632979D01*
X21680182Y-30632979D02*
X21670658Y-30642503D01*
X21670658Y-30642503D02*
X21651610Y-30652027D01*
X21651610Y-30652027D02*
X21632563Y-30652027D01*
X21632563Y-30652027D02*
X21613515Y-30642503D01*
X21613515Y-30642503D02*
X21603991Y-30632979D01*
X21603991Y-30632979D02*
X21594467Y-30613932D01*
X21594467Y-30613932D02*
X21584944Y-30575837D01*
X21584944Y-30575837D02*
X21584944Y-30528218D01*
X21584944Y-30528218D02*
X21594467Y-30490122D01*
X21594467Y-30490122D02*
X21603991Y-30471075D01*
X21603991Y-30471075D02*
X21613515Y-30461551D01*
X21613515Y-30461551D02*
X21632563Y-30452027D01*
X21823039Y-30452027D02*
X21842086Y-30452027D01*
X21842086Y-30452027D02*
X21861134Y-30461551D01*
X21861134Y-30461551D02*
X21870658Y-30471075D01*
X21870658Y-30471075D02*
X21880182Y-30490122D01*
X21880182Y-30490122D02*
X21889705Y-30528218D01*
X21889705Y-30528218D02*
X21889705Y-30575837D01*
X21889705Y-30575837D02*
X21880182Y-30613932D01*
X21880182Y-30613932D02*
X21870658Y-30632979D01*
X21870658Y-30632979D02*
X21861134Y-30642503D01*
X21861134Y-30642503D02*
X21842086Y-30652027D01*
X21842086Y-30652027D02*
X21823039Y-30652027D01*
X21823039Y-30652027D02*
X21803991Y-30642503D01*
X21803991Y-30642503D02*
X21794467Y-30632979D01*
X21794467Y-30632979D02*
X21784944Y-30613932D01*
X21784944Y-30613932D02*
X21775420Y-30575837D01*
X21775420Y-30575837D02*
X21775420Y-30528218D01*
X21775420Y-30528218D02*
X21784944Y-30490122D01*
X21784944Y-30490122D02*
X21794467Y-30471075D01*
X21794467Y-30471075D02*
X21803991Y-30461551D01*
X21803991Y-30461551D02*
X21823039Y-30452027D01*
X21975420Y-30652027D02*
X21975420Y-30518694D01*
X21975420Y-30537741D02*
X21984944Y-30528218D01*
X21984944Y-30528218D02*
X22003991Y-30518694D01*
X22003991Y-30518694D02*
X22032563Y-30518694D01*
X22032563Y-30518694D02*
X22051610Y-30528218D01*
X22051610Y-30528218D02*
X22061134Y-30547265D01*
X22061134Y-30547265D02*
X22061134Y-30652027D01*
X22061134Y-30547265D02*
X22070658Y-30528218D01*
X22070658Y-30528218D02*
X22089705Y-30518694D01*
X22089705Y-30518694D02*
X22118277Y-30518694D01*
X22118277Y-30518694D02*
X22137325Y-30528218D01*
X22137325Y-30528218D02*
X22146848Y-30547265D01*
X22146848Y-30547265D02*
X22146848Y-30652027D01*
X22242086Y-30652027D02*
X22242086Y-30518694D01*
X22242086Y-30537741D02*
X22251610Y-30528218D01*
X22251610Y-30528218D02*
X22270658Y-30518694D01*
X22270658Y-30518694D02*
X22299229Y-30518694D01*
X22299229Y-30518694D02*
X22318277Y-30528218D01*
X22318277Y-30528218D02*
X22327801Y-30547265D01*
X22327801Y-30547265D02*
X22327801Y-30652027D01*
X22327801Y-30547265D02*
X22337325Y-30528218D01*
X22337325Y-30528218D02*
X22356372Y-30518694D01*
X22356372Y-30518694D02*
X22384943Y-30518694D01*
X22384943Y-30518694D02*
X22403991Y-30528218D01*
X22403991Y-30528218D02*
X22413515Y-30547265D01*
X22413515Y-30547265D02*
X22413515Y-30652027D01*
X22803991Y-30442503D02*
X22632563Y-30699646D01*
X23061134Y-30452027D02*
X23080182Y-30452027D01*
X23080182Y-30452027D02*
X23099229Y-30461551D01*
X23099229Y-30461551D02*
X23108753Y-30471075D01*
X23108753Y-30471075D02*
X23118277Y-30490122D01*
X23118277Y-30490122D02*
X23127801Y-30528218D01*
X23127801Y-30528218D02*
X23127801Y-30575837D01*
X23127801Y-30575837D02*
X23118277Y-30613932D01*
X23118277Y-30613932D02*
X23108753Y-30632979D01*
X23108753Y-30632979D02*
X23099229Y-30642503D01*
X23099229Y-30642503D02*
X23080182Y-30652027D01*
X23080182Y-30652027D02*
X23061134Y-30652027D01*
X23061134Y-30652027D02*
X23042086Y-30642503D01*
X23042086Y-30642503D02*
X23032563Y-30632979D01*
X23032563Y-30632979D02*
X23023039Y-30613932D01*
X23023039Y-30613932D02*
X23013515Y-30575837D01*
X23013515Y-30575837D02*
X23013515Y-30528218D01*
X23013515Y-30528218D02*
X23023039Y-30490122D01*
X23023039Y-30490122D02*
X23032563Y-30471075D01*
X23032563Y-30471075D02*
X23042086Y-30461551D01*
X23042086Y-30461551D02*
X23061134Y-30452027D01*
X23213515Y-30632979D02*
X23223039Y-30642503D01*
X23223039Y-30642503D02*
X23213515Y-30652027D01*
X23213515Y-30652027D02*
X23203991Y-30642503D01*
X23203991Y-30642503D02*
X23213515Y-30632979D01*
X23213515Y-30632979D02*
X23213515Y-30652027D01*
X23346848Y-30452027D02*
X23365896Y-30452027D01*
X23365896Y-30452027D02*
X23384944Y-30461551D01*
X23384944Y-30461551D02*
X23394467Y-30471075D01*
X23394467Y-30471075D02*
X23403991Y-30490122D01*
X23403991Y-30490122D02*
X23413515Y-30528218D01*
X23413515Y-30528218D02*
X23413515Y-30575837D01*
X23413515Y-30575837D02*
X23403991Y-30613932D01*
X23403991Y-30613932D02*
X23394467Y-30632979D01*
X23394467Y-30632979D02*
X23384944Y-30642503D01*
X23384944Y-30642503D02*
X23365896Y-30652027D01*
X23365896Y-30652027D02*
X23346848Y-30652027D01*
X23346848Y-30652027D02*
X23327801Y-30642503D01*
X23327801Y-30642503D02*
X23318277Y-30632979D01*
X23318277Y-30632979D02*
X23308753Y-30613932D01*
X23308753Y-30613932D02*
X23299229Y-30575837D01*
X23299229Y-30575837D02*
X23299229Y-30528218D01*
X23299229Y-30528218D02*
X23308753Y-30490122D01*
X23308753Y-30490122D02*
X23318277Y-30471075D01*
X23318277Y-30471075D02*
X23327801Y-30461551D01*
X23327801Y-30461551D02*
X23346848Y-30452027D01*
X23603991Y-30652027D02*
X23489706Y-30652027D01*
X23546848Y-30652027D02*
X23546848Y-30452027D01*
X23546848Y-30452027D02*
X23527801Y-30480599D01*
X23527801Y-30480599D02*
X23508753Y-30499646D01*
X23508753Y-30499646D02*
X23489706Y-30509170D01*
X23794467Y-30652027D02*
X23680182Y-30652027D01*
X23737325Y-30652027D02*
X23737325Y-30452027D01*
X23737325Y-30452027D02*
X23718277Y-30480599D01*
X23718277Y-30480599D02*
X23699229Y-30499646D01*
X23699229Y-30499646D02*
X23680182Y-30509170D01*
X23908753Y-30537741D02*
X23889706Y-30528218D01*
X23889706Y-30528218D02*
X23880182Y-30518694D01*
X23880182Y-30518694D02*
X23870658Y-30499646D01*
X23870658Y-30499646D02*
X23870658Y-30490122D01*
X23870658Y-30490122D02*
X23880182Y-30471075D01*
X23880182Y-30471075D02*
X23889706Y-30461551D01*
X23889706Y-30461551D02*
X23908753Y-30452027D01*
X23908753Y-30452027D02*
X23946848Y-30452027D01*
X23946848Y-30452027D02*
X23965896Y-30461551D01*
X23965896Y-30461551D02*
X23975420Y-30471075D01*
X23975420Y-30471075D02*
X23984944Y-30490122D01*
X23984944Y-30490122D02*
X23984944Y-30499646D01*
X23984944Y-30499646D02*
X23975420Y-30518694D01*
X23975420Y-30518694D02*
X23965896Y-30528218D01*
X23965896Y-30528218D02*
X23946848Y-30537741D01*
X23946848Y-30537741D02*
X23908753Y-30537741D01*
X23908753Y-30537741D02*
X23889706Y-30547265D01*
X23889706Y-30547265D02*
X23880182Y-30556789D01*
X23880182Y-30556789D02*
X23870658Y-30575837D01*
X23870658Y-30575837D02*
X23870658Y-30613932D01*
X23870658Y-30613932D02*
X23880182Y-30632979D01*
X23880182Y-30632979D02*
X23889706Y-30642503D01*
X23889706Y-30642503D02*
X23908753Y-30652027D01*
X23908753Y-30652027D02*
X23946848Y-30652027D01*
X23946848Y-30652027D02*
X23965896Y-30642503D01*
X23965896Y-30642503D02*
X23975420Y-30632979D01*
X23975420Y-30632979D02*
X23984944Y-30613932D01*
X23984944Y-30613932D02*
X23984944Y-30575837D01*
X23984944Y-30575837D02*
X23975420Y-30556789D01*
X23975420Y-30556789D02*
X23965896Y-30547265D01*
X23965896Y-30547265D02*
X23946848Y-30537741D01*
X24061134Y-30452027D02*
X24061134Y-30490122D01*
X24137325Y-30452027D02*
X24137325Y-30490122D01*
X24432563Y-30728218D02*
X24423039Y-30718694D01*
X24423039Y-30718694D02*
X24403991Y-30690122D01*
X24403991Y-30690122D02*
X24394468Y-30671075D01*
X24394468Y-30671075D02*
X24384944Y-30642503D01*
X24384944Y-30642503D02*
X24375420Y-30594884D01*
X24375420Y-30594884D02*
X24375420Y-30556789D01*
X24375420Y-30556789D02*
X24384944Y-30509170D01*
X24384944Y-30509170D02*
X24394468Y-30480599D01*
X24394468Y-30480599D02*
X24403991Y-30461551D01*
X24403991Y-30461551D02*
X24423039Y-30432979D01*
X24423039Y-30432979D02*
X24432563Y-30423456D01*
X24499229Y-30471075D02*
X24508753Y-30461551D01*
X24508753Y-30461551D02*
X24527801Y-30452027D01*
X24527801Y-30452027D02*
X24575420Y-30452027D01*
X24575420Y-30452027D02*
X24594468Y-30461551D01*
X24594468Y-30461551D02*
X24603991Y-30471075D01*
X24603991Y-30471075D02*
X24613515Y-30490122D01*
X24613515Y-30490122D02*
X24613515Y-30509170D01*
X24613515Y-30509170D02*
X24603991Y-30537741D01*
X24603991Y-30537741D02*
X24489706Y-30652027D01*
X24489706Y-30652027D02*
X24613515Y-30652027D01*
X24794468Y-30452027D02*
X24699229Y-30452027D01*
X24699229Y-30452027D02*
X24689706Y-30547265D01*
X24689706Y-30547265D02*
X24699229Y-30537741D01*
X24699229Y-30537741D02*
X24718277Y-30528218D01*
X24718277Y-30528218D02*
X24765896Y-30528218D01*
X24765896Y-30528218D02*
X24784944Y-30537741D01*
X24784944Y-30537741D02*
X24794468Y-30547265D01*
X24794468Y-30547265D02*
X24803991Y-30566313D01*
X24803991Y-30566313D02*
X24803991Y-30613932D01*
X24803991Y-30613932D02*
X24794468Y-30632979D01*
X24794468Y-30632979D02*
X24784944Y-30642503D01*
X24784944Y-30642503D02*
X24765896Y-30652027D01*
X24765896Y-30652027D02*
X24718277Y-30652027D01*
X24718277Y-30652027D02*
X24699229Y-30642503D01*
X24699229Y-30642503D02*
X24689706Y-30632979D01*
X24880182Y-30471075D02*
X24889706Y-30461551D01*
X24889706Y-30461551D02*
X24908753Y-30452027D01*
X24908753Y-30452027D02*
X24956372Y-30452027D01*
X24956372Y-30452027D02*
X24975420Y-30461551D01*
X24975420Y-30461551D02*
X24984944Y-30471075D01*
X24984944Y-30471075D02*
X24994468Y-30490122D01*
X24994468Y-30490122D02*
X24994468Y-30509170D01*
X24994468Y-30509170D02*
X24984944Y-30537741D01*
X24984944Y-30537741D02*
X24870658Y-30652027D01*
X24870658Y-30652027D02*
X24994468Y-30652027D01*
X25232563Y-30652027D02*
X25232563Y-30452027D01*
X25318277Y-30652027D02*
X25318277Y-30547265D01*
X25318277Y-30547265D02*
X25308753Y-30528218D01*
X25308753Y-30528218D02*
X25289706Y-30518694D01*
X25289706Y-30518694D02*
X25261134Y-30518694D01*
X25261134Y-30518694D02*
X25242087Y-30528218D01*
X25242087Y-30528218D02*
X25232563Y-30537741D01*
X25442087Y-30652027D02*
X25423039Y-30642503D01*
X25423039Y-30642503D02*
X25413515Y-30632979D01*
X25413515Y-30632979D02*
X25403991Y-30613932D01*
X25403991Y-30613932D02*
X25403991Y-30556789D01*
X25403991Y-30556789D02*
X25413515Y-30537741D01*
X25413515Y-30537741D02*
X25423039Y-30528218D01*
X25423039Y-30528218D02*
X25442087Y-30518694D01*
X25442087Y-30518694D02*
X25470658Y-30518694D01*
X25470658Y-30518694D02*
X25489706Y-30528218D01*
X25489706Y-30528218D02*
X25499230Y-30537741D01*
X25499230Y-30537741D02*
X25508753Y-30556789D01*
X25508753Y-30556789D02*
X25508753Y-30613932D01*
X25508753Y-30613932D02*
X25499230Y-30632979D01*
X25499230Y-30632979D02*
X25489706Y-30642503D01*
X25489706Y-30642503D02*
X25470658Y-30652027D01*
X25470658Y-30652027D02*
X25442087Y-30652027D01*
X25623039Y-30652027D02*
X25603991Y-30642503D01*
X25603991Y-30642503D02*
X25594468Y-30623456D01*
X25594468Y-30623456D02*
X25594468Y-30452027D01*
X25775420Y-30642503D02*
X25756372Y-30652027D01*
X25756372Y-30652027D02*
X25718277Y-30652027D01*
X25718277Y-30652027D02*
X25699230Y-30642503D01*
X25699230Y-30642503D02*
X25689706Y-30623456D01*
X25689706Y-30623456D02*
X25689706Y-30547265D01*
X25689706Y-30547265D02*
X25699230Y-30528218D01*
X25699230Y-30528218D02*
X25718277Y-30518694D01*
X25718277Y-30518694D02*
X25756372Y-30518694D01*
X25756372Y-30518694D02*
X25775420Y-30528218D01*
X25775420Y-30528218D02*
X25784944Y-30547265D01*
X25784944Y-30547265D02*
X25784944Y-30566313D01*
X25784944Y-30566313D02*
X25689706Y-30585360D01*
X25861134Y-30642503D02*
X25880182Y-30652027D01*
X25880182Y-30652027D02*
X25918277Y-30652027D01*
X25918277Y-30652027D02*
X25937325Y-30642503D01*
X25937325Y-30642503D02*
X25946849Y-30623456D01*
X25946849Y-30623456D02*
X25946849Y-30613932D01*
X25946849Y-30613932D02*
X25937325Y-30594884D01*
X25937325Y-30594884D02*
X25918277Y-30585360D01*
X25918277Y-30585360D02*
X25889706Y-30585360D01*
X25889706Y-30585360D02*
X25870658Y-30575837D01*
X25870658Y-30575837D02*
X25861134Y-30556789D01*
X25861134Y-30556789D02*
X25861134Y-30547265D01*
X25861134Y-30547265D02*
X25870658Y-30528218D01*
X25870658Y-30528218D02*
X25889706Y-30518694D01*
X25889706Y-30518694D02*
X25918277Y-30518694D01*
X25918277Y-30518694D02*
X25937325Y-30528218D01*
X26013515Y-30728218D02*
X26023039Y-30718694D01*
X26023039Y-30718694D02*
X26042087Y-30690122D01*
X26042087Y-30690122D02*
X26051611Y-30671075D01*
X26051611Y-30671075D02*
X26061134Y-30642503D01*
X26061134Y-30642503D02*
X26070658Y-30594884D01*
X26070658Y-30594884D02*
X26070658Y-30556789D01*
X26070658Y-30556789D02*
X26061134Y-30509170D01*
X26061134Y-30509170D02*
X26051611Y-30480599D01*
X26051611Y-30480599D02*
X26042087Y-30461551D01*
X26042087Y-30461551D02*
X26023039Y-30432979D01*
X26023039Y-30432979D02*
X26013515Y-30423456D01*
D13*
X20857500Y-30824543D02*
G75*
G02*
X20822500Y-30824543I-17500J0D01*
G01*
X20822500Y-30824543D02*
G75*
G02*
X20857500Y-30824543I17500J0D01*
G01*
D12*
X21156372Y-30716027D02*
X21175420Y-30716027D01*
X21175420Y-30716027D02*
X21194467Y-30725551D01*
X21194467Y-30725551D02*
X21203991Y-30735075D01*
X21203991Y-30735075D02*
X21213515Y-30754122D01*
X21213515Y-30754122D02*
X21223039Y-30792218D01*
X21223039Y-30792218D02*
X21223039Y-30839837D01*
X21223039Y-30839837D02*
X21213515Y-30877932D01*
X21213515Y-30877932D02*
X21203991Y-30896979D01*
X21203991Y-30896979D02*
X21194467Y-30906503D01*
X21194467Y-30906503D02*
X21175420Y-30916027D01*
X21175420Y-30916027D02*
X21156372Y-30916027D01*
X21156372Y-30916027D02*
X21137324Y-30906503D01*
X21137324Y-30906503D02*
X21127801Y-30896979D01*
X21127801Y-30896979D02*
X21118277Y-30877932D01*
X21118277Y-30877932D02*
X21108753Y-30839837D01*
X21108753Y-30839837D02*
X21108753Y-30792218D01*
X21108753Y-30792218D02*
X21118277Y-30754122D01*
X21118277Y-30754122D02*
X21127801Y-30735075D01*
X21127801Y-30735075D02*
X21137324Y-30725551D01*
X21137324Y-30725551D02*
X21156372Y-30716027D01*
X21308753Y-30896979D02*
X21318277Y-30906503D01*
X21318277Y-30906503D02*
X21308753Y-30916027D01*
X21308753Y-30916027D02*
X21299229Y-30906503D01*
X21299229Y-30906503D02*
X21308753Y-30896979D01*
X21308753Y-30896979D02*
X21308753Y-30916027D01*
X21384944Y-30716027D02*
X21508753Y-30716027D01*
X21508753Y-30716027D02*
X21442086Y-30792218D01*
X21442086Y-30792218D02*
X21470658Y-30792218D01*
X21470658Y-30792218D02*
X21489705Y-30801741D01*
X21489705Y-30801741D02*
X21499229Y-30811265D01*
X21499229Y-30811265D02*
X21508753Y-30830313D01*
X21508753Y-30830313D02*
X21508753Y-30877932D01*
X21508753Y-30877932D02*
X21499229Y-30896979D01*
X21499229Y-30896979D02*
X21489705Y-30906503D01*
X21489705Y-30906503D02*
X21470658Y-30916027D01*
X21470658Y-30916027D02*
X21413515Y-30916027D01*
X21413515Y-30916027D02*
X21394467Y-30906503D01*
X21394467Y-30906503D02*
X21384944Y-30896979D01*
X21689705Y-30716027D02*
X21594467Y-30716027D01*
X21594467Y-30716027D02*
X21584944Y-30811265D01*
X21584944Y-30811265D02*
X21594467Y-30801741D01*
X21594467Y-30801741D02*
X21613515Y-30792218D01*
X21613515Y-30792218D02*
X21661134Y-30792218D01*
X21661134Y-30792218D02*
X21680182Y-30801741D01*
X21680182Y-30801741D02*
X21689705Y-30811265D01*
X21689705Y-30811265D02*
X21699229Y-30830313D01*
X21699229Y-30830313D02*
X21699229Y-30877932D01*
X21699229Y-30877932D02*
X21689705Y-30896979D01*
X21689705Y-30896979D02*
X21680182Y-30906503D01*
X21680182Y-30906503D02*
X21661134Y-30916027D01*
X21661134Y-30916027D02*
X21613515Y-30916027D01*
X21613515Y-30916027D02*
X21594467Y-30906503D01*
X21594467Y-30906503D02*
X21584944Y-30896979D01*
X21823039Y-30716027D02*
X21842086Y-30716027D01*
X21842086Y-30716027D02*
X21861134Y-30725551D01*
X21861134Y-30725551D02*
X21870658Y-30735075D01*
X21870658Y-30735075D02*
X21880182Y-30754122D01*
X21880182Y-30754122D02*
X21889705Y-30792218D01*
X21889705Y-30792218D02*
X21889705Y-30839837D01*
X21889705Y-30839837D02*
X21880182Y-30877932D01*
X21880182Y-30877932D02*
X21870658Y-30896979D01*
X21870658Y-30896979D02*
X21861134Y-30906503D01*
X21861134Y-30906503D02*
X21842086Y-30916027D01*
X21842086Y-30916027D02*
X21823039Y-30916027D01*
X21823039Y-30916027D02*
X21803991Y-30906503D01*
X21803991Y-30906503D02*
X21794467Y-30896979D01*
X21794467Y-30896979D02*
X21784944Y-30877932D01*
X21784944Y-30877932D02*
X21775420Y-30839837D01*
X21775420Y-30839837D02*
X21775420Y-30792218D01*
X21775420Y-30792218D02*
X21784944Y-30754122D01*
X21784944Y-30754122D02*
X21794467Y-30735075D01*
X21794467Y-30735075D02*
X21803991Y-30725551D01*
X21803991Y-30725551D02*
X21823039Y-30716027D01*
X21975420Y-30916027D02*
X21975420Y-30782694D01*
X21975420Y-30801741D02*
X21984944Y-30792218D01*
X21984944Y-30792218D02*
X22003991Y-30782694D01*
X22003991Y-30782694D02*
X22032563Y-30782694D01*
X22032563Y-30782694D02*
X22051610Y-30792218D01*
X22051610Y-30792218D02*
X22061134Y-30811265D01*
X22061134Y-30811265D02*
X22061134Y-30916027D01*
X22061134Y-30811265D02*
X22070658Y-30792218D01*
X22070658Y-30792218D02*
X22089705Y-30782694D01*
X22089705Y-30782694D02*
X22118277Y-30782694D01*
X22118277Y-30782694D02*
X22137325Y-30792218D01*
X22137325Y-30792218D02*
X22146848Y-30811265D01*
X22146848Y-30811265D02*
X22146848Y-30916027D01*
X22242086Y-30916027D02*
X22242086Y-30782694D01*
X22242086Y-30801741D02*
X22251610Y-30792218D01*
X22251610Y-30792218D02*
X22270658Y-30782694D01*
X22270658Y-30782694D02*
X22299229Y-30782694D01*
X22299229Y-30782694D02*
X22318277Y-30792218D01*
X22318277Y-30792218D02*
X22327801Y-30811265D01*
X22327801Y-30811265D02*
X22327801Y-30916027D01*
X22327801Y-30811265D02*
X22337325Y-30792218D01*
X22337325Y-30792218D02*
X22356372Y-30782694D01*
X22356372Y-30782694D02*
X22384943Y-30782694D01*
X22384943Y-30782694D02*
X22403991Y-30792218D01*
X22403991Y-30792218D02*
X22413515Y-30811265D01*
X22413515Y-30811265D02*
X22413515Y-30916027D01*
X22803991Y-30706503D02*
X22632563Y-30963646D01*
X23061134Y-30716027D02*
X23080182Y-30716027D01*
X23080182Y-30716027D02*
X23099229Y-30725551D01*
X23099229Y-30725551D02*
X23108753Y-30735075D01*
X23108753Y-30735075D02*
X23118277Y-30754122D01*
X23118277Y-30754122D02*
X23127801Y-30792218D01*
X23127801Y-30792218D02*
X23127801Y-30839837D01*
X23127801Y-30839837D02*
X23118277Y-30877932D01*
X23118277Y-30877932D02*
X23108753Y-30896979D01*
X23108753Y-30896979D02*
X23099229Y-30906503D01*
X23099229Y-30906503D02*
X23080182Y-30916027D01*
X23080182Y-30916027D02*
X23061134Y-30916027D01*
X23061134Y-30916027D02*
X23042086Y-30906503D01*
X23042086Y-30906503D02*
X23032563Y-30896979D01*
X23032563Y-30896979D02*
X23023039Y-30877932D01*
X23023039Y-30877932D02*
X23013515Y-30839837D01*
X23013515Y-30839837D02*
X23013515Y-30792218D01*
X23013515Y-30792218D02*
X23023039Y-30754122D01*
X23023039Y-30754122D02*
X23032563Y-30735075D01*
X23032563Y-30735075D02*
X23042086Y-30725551D01*
X23042086Y-30725551D02*
X23061134Y-30716027D01*
X23213515Y-30896979D02*
X23223039Y-30906503D01*
X23223039Y-30906503D02*
X23213515Y-30916027D01*
X23213515Y-30916027D02*
X23203991Y-30906503D01*
X23203991Y-30906503D02*
X23213515Y-30896979D01*
X23213515Y-30896979D02*
X23213515Y-30916027D01*
X23346848Y-30716027D02*
X23365896Y-30716027D01*
X23365896Y-30716027D02*
X23384944Y-30725551D01*
X23384944Y-30725551D02*
X23394467Y-30735075D01*
X23394467Y-30735075D02*
X23403991Y-30754122D01*
X23403991Y-30754122D02*
X23413515Y-30792218D01*
X23413515Y-30792218D02*
X23413515Y-30839837D01*
X23413515Y-30839837D02*
X23403991Y-30877932D01*
X23403991Y-30877932D02*
X23394467Y-30896979D01*
X23394467Y-30896979D02*
X23384944Y-30906503D01*
X23384944Y-30906503D02*
X23365896Y-30916027D01*
X23365896Y-30916027D02*
X23346848Y-30916027D01*
X23346848Y-30916027D02*
X23327801Y-30906503D01*
X23327801Y-30906503D02*
X23318277Y-30896979D01*
X23318277Y-30896979D02*
X23308753Y-30877932D01*
X23308753Y-30877932D02*
X23299229Y-30839837D01*
X23299229Y-30839837D02*
X23299229Y-30792218D01*
X23299229Y-30792218D02*
X23308753Y-30754122D01*
X23308753Y-30754122D02*
X23318277Y-30735075D01*
X23318277Y-30735075D02*
X23327801Y-30725551D01*
X23327801Y-30725551D02*
X23346848Y-30716027D01*
X23603991Y-30916027D02*
X23489706Y-30916027D01*
X23546848Y-30916027D02*
X23546848Y-30716027D01*
X23546848Y-30716027D02*
X23527801Y-30744599D01*
X23527801Y-30744599D02*
X23508753Y-30763646D01*
X23508753Y-30763646D02*
X23489706Y-30773170D01*
X23670658Y-30716027D02*
X23794467Y-30716027D01*
X23794467Y-30716027D02*
X23727801Y-30792218D01*
X23727801Y-30792218D02*
X23756372Y-30792218D01*
X23756372Y-30792218D02*
X23775420Y-30801741D01*
X23775420Y-30801741D02*
X23784944Y-30811265D01*
X23784944Y-30811265D02*
X23794467Y-30830313D01*
X23794467Y-30830313D02*
X23794467Y-30877932D01*
X23794467Y-30877932D02*
X23784944Y-30896979D01*
X23784944Y-30896979D02*
X23775420Y-30906503D01*
X23775420Y-30906503D02*
X23756372Y-30916027D01*
X23756372Y-30916027D02*
X23699229Y-30916027D01*
X23699229Y-30916027D02*
X23680182Y-30906503D01*
X23680182Y-30906503D02*
X23670658Y-30896979D01*
X23908753Y-30801741D02*
X23889706Y-30792218D01*
X23889706Y-30792218D02*
X23880182Y-30782694D01*
X23880182Y-30782694D02*
X23870658Y-30763646D01*
X23870658Y-30763646D02*
X23870658Y-30754122D01*
X23870658Y-30754122D02*
X23880182Y-30735075D01*
X23880182Y-30735075D02*
X23889706Y-30725551D01*
X23889706Y-30725551D02*
X23908753Y-30716027D01*
X23908753Y-30716027D02*
X23946848Y-30716027D01*
X23946848Y-30716027D02*
X23965896Y-30725551D01*
X23965896Y-30725551D02*
X23975420Y-30735075D01*
X23975420Y-30735075D02*
X23984944Y-30754122D01*
X23984944Y-30754122D02*
X23984944Y-30763646D01*
X23984944Y-30763646D02*
X23975420Y-30782694D01*
X23975420Y-30782694D02*
X23965896Y-30792218D01*
X23965896Y-30792218D02*
X23946848Y-30801741D01*
X23946848Y-30801741D02*
X23908753Y-30801741D01*
X23908753Y-30801741D02*
X23889706Y-30811265D01*
X23889706Y-30811265D02*
X23880182Y-30820789D01*
X23880182Y-30820789D02*
X23870658Y-30839837D01*
X23870658Y-30839837D02*
X23870658Y-30877932D01*
X23870658Y-30877932D02*
X23880182Y-30896979D01*
X23880182Y-30896979D02*
X23889706Y-30906503D01*
X23889706Y-30906503D02*
X23908753Y-30916027D01*
X23908753Y-30916027D02*
X23946848Y-30916027D01*
X23946848Y-30916027D02*
X23965896Y-30906503D01*
X23965896Y-30906503D02*
X23975420Y-30896979D01*
X23975420Y-30896979D02*
X23984944Y-30877932D01*
X23984944Y-30877932D02*
X23984944Y-30839837D01*
X23984944Y-30839837D02*
X23975420Y-30820789D01*
X23975420Y-30820789D02*
X23965896Y-30811265D01*
X23965896Y-30811265D02*
X23946848Y-30801741D01*
X24061134Y-30716027D02*
X24061134Y-30754122D01*
X24137325Y-30716027D02*
X24137325Y-30754122D01*
X24432563Y-30992218D02*
X24423039Y-30982694D01*
X24423039Y-30982694D02*
X24403991Y-30954122D01*
X24403991Y-30954122D02*
X24394468Y-30935075D01*
X24394468Y-30935075D02*
X24384944Y-30906503D01*
X24384944Y-30906503D02*
X24375420Y-30858884D01*
X24375420Y-30858884D02*
X24375420Y-30820789D01*
X24375420Y-30820789D02*
X24384944Y-30773170D01*
X24384944Y-30773170D02*
X24394468Y-30744599D01*
X24394468Y-30744599D02*
X24403991Y-30725551D01*
X24403991Y-30725551D02*
X24423039Y-30696979D01*
X24423039Y-30696979D02*
X24432563Y-30687456D01*
X24499229Y-30735075D02*
X24508753Y-30725551D01*
X24508753Y-30725551D02*
X24527801Y-30716027D01*
X24527801Y-30716027D02*
X24575420Y-30716027D01*
X24575420Y-30716027D02*
X24594468Y-30725551D01*
X24594468Y-30725551D02*
X24603991Y-30735075D01*
X24603991Y-30735075D02*
X24613515Y-30754122D01*
X24613515Y-30754122D02*
X24613515Y-30773170D01*
X24613515Y-30773170D02*
X24603991Y-30801741D01*
X24603991Y-30801741D02*
X24489706Y-30916027D01*
X24489706Y-30916027D02*
X24613515Y-30916027D01*
X24784944Y-30716027D02*
X24746848Y-30716027D01*
X24746848Y-30716027D02*
X24727801Y-30725551D01*
X24727801Y-30725551D02*
X24718277Y-30735075D01*
X24718277Y-30735075D02*
X24699229Y-30763646D01*
X24699229Y-30763646D02*
X24689706Y-30801741D01*
X24689706Y-30801741D02*
X24689706Y-30877932D01*
X24689706Y-30877932D02*
X24699229Y-30896979D01*
X24699229Y-30896979D02*
X24708753Y-30906503D01*
X24708753Y-30906503D02*
X24727801Y-30916027D01*
X24727801Y-30916027D02*
X24765896Y-30916027D01*
X24765896Y-30916027D02*
X24784944Y-30906503D01*
X24784944Y-30906503D02*
X24794468Y-30896979D01*
X24794468Y-30896979D02*
X24803991Y-30877932D01*
X24803991Y-30877932D02*
X24803991Y-30830313D01*
X24803991Y-30830313D02*
X24794468Y-30811265D01*
X24794468Y-30811265D02*
X24784944Y-30801741D01*
X24784944Y-30801741D02*
X24765896Y-30792218D01*
X24765896Y-30792218D02*
X24727801Y-30792218D01*
X24727801Y-30792218D02*
X24708753Y-30801741D01*
X24708753Y-30801741D02*
X24699229Y-30811265D01*
X24699229Y-30811265D02*
X24689706Y-30830313D01*
X24870658Y-30716027D02*
X25003991Y-30716027D01*
X25003991Y-30716027D02*
X24918277Y-30916027D01*
X25232563Y-30916027D02*
X25232563Y-30716027D01*
X25318277Y-30916027D02*
X25318277Y-30811265D01*
X25318277Y-30811265D02*
X25308753Y-30792218D01*
X25308753Y-30792218D02*
X25289706Y-30782694D01*
X25289706Y-30782694D02*
X25261134Y-30782694D01*
X25261134Y-30782694D02*
X25242087Y-30792218D01*
X25242087Y-30792218D02*
X25232563Y-30801741D01*
X25442087Y-30916027D02*
X25423039Y-30906503D01*
X25423039Y-30906503D02*
X25413515Y-30896979D01*
X25413515Y-30896979D02*
X25403991Y-30877932D01*
X25403991Y-30877932D02*
X25403991Y-30820789D01*
X25403991Y-30820789D02*
X25413515Y-30801741D01*
X25413515Y-30801741D02*
X25423039Y-30792218D01*
X25423039Y-30792218D02*
X25442087Y-30782694D01*
X25442087Y-30782694D02*
X25470658Y-30782694D01*
X25470658Y-30782694D02*
X25489706Y-30792218D01*
X25489706Y-30792218D02*
X25499230Y-30801741D01*
X25499230Y-30801741D02*
X25508753Y-30820789D01*
X25508753Y-30820789D02*
X25508753Y-30877932D01*
X25508753Y-30877932D02*
X25499230Y-30896979D01*
X25499230Y-30896979D02*
X25489706Y-30906503D01*
X25489706Y-30906503D02*
X25470658Y-30916027D01*
X25470658Y-30916027D02*
X25442087Y-30916027D01*
X25623039Y-30916027D02*
X25603991Y-30906503D01*
X25603991Y-30906503D02*
X25594468Y-30887456D01*
X25594468Y-30887456D02*
X25594468Y-30716027D01*
X25775420Y-30906503D02*
X25756372Y-30916027D01*
X25756372Y-30916027D02*
X25718277Y-30916027D01*
X25718277Y-30916027D02*
X25699230Y-30906503D01*
X25699230Y-30906503D02*
X25689706Y-30887456D01*
X25689706Y-30887456D02*
X25689706Y-30811265D01*
X25689706Y-30811265D02*
X25699230Y-30792218D01*
X25699230Y-30792218D02*
X25718277Y-30782694D01*
X25718277Y-30782694D02*
X25756372Y-30782694D01*
X25756372Y-30782694D02*
X25775420Y-30792218D01*
X25775420Y-30792218D02*
X25784944Y-30811265D01*
X25784944Y-30811265D02*
X25784944Y-30830313D01*
X25784944Y-30830313D02*
X25689706Y-30849360D01*
X25861134Y-30906503D02*
X25880182Y-30916027D01*
X25880182Y-30916027D02*
X25918277Y-30916027D01*
X25918277Y-30916027D02*
X25937325Y-30906503D01*
X25937325Y-30906503D02*
X25946849Y-30887456D01*
X25946849Y-30887456D02*
X25946849Y-30877932D01*
X25946849Y-30877932D02*
X25937325Y-30858884D01*
X25937325Y-30858884D02*
X25918277Y-30849360D01*
X25918277Y-30849360D02*
X25889706Y-30849360D01*
X25889706Y-30849360D02*
X25870658Y-30839837D01*
X25870658Y-30839837D02*
X25861134Y-30820789D01*
X25861134Y-30820789D02*
X25861134Y-30811265D01*
X25861134Y-30811265D02*
X25870658Y-30792218D01*
X25870658Y-30792218D02*
X25889706Y-30782694D01*
X25889706Y-30782694D02*
X25918277Y-30782694D01*
X25918277Y-30782694D02*
X25937325Y-30792218D01*
X26013515Y-30992218D02*
X26023039Y-30982694D01*
X26023039Y-30982694D02*
X26042087Y-30954122D01*
X26042087Y-30954122D02*
X26051611Y-30935075D01*
X26051611Y-30935075D02*
X26061134Y-30906503D01*
X26061134Y-30906503D02*
X26070658Y-30858884D01*
X26070658Y-30858884D02*
X26070658Y-30820789D01*
X26070658Y-30820789D02*
X26061134Y-30773170D01*
X26061134Y-30773170D02*
X26051611Y-30744599D01*
X26051611Y-30744599D02*
X26042087Y-30725551D01*
X26042087Y-30725551D02*
X26023039Y-30696979D01*
X26023039Y-30696979D02*
X26013515Y-30687456D01*
D13*
X20840000Y-31071043D02*
X20840000Y-31106043D01*
X20822500Y-31088543D02*
X20857500Y-31088543D01*
D12*
X21156372Y-30980027D02*
X21175420Y-30980027D01*
X21175420Y-30980027D02*
X21194467Y-30989551D01*
X21194467Y-30989551D02*
X21203991Y-30999075D01*
X21203991Y-30999075D02*
X21213515Y-31018122D01*
X21213515Y-31018122D02*
X21223039Y-31056218D01*
X21223039Y-31056218D02*
X21223039Y-31103837D01*
X21223039Y-31103837D02*
X21213515Y-31141932D01*
X21213515Y-31141932D02*
X21203991Y-31160979D01*
X21203991Y-31160979D02*
X21194467Y-31170503D01*
X21194467Y-31170503D02*
X21175420Y-31180027D01*
X21175420Y-31180027D02*
X21156372Y-31180027D01*
X21156372Y-31180027D02*
X21137324Y-31170503D01*
X21137324Y-31170503D02*
X21127801Y-31160979D01*
X21127801Y-31160979D02*
X21118277Y-31141932D01*
X21118277Y-31141932D02*
X21108753Y-31103837D01*
X21108753Y-31103837D02*
X21108753Y-31056218D01*
X21108753Y-31056218D02*
X21118277Y-31018122D01*
X21118277Y-31018122D02*
X21127801Y-30999075D01*
X21127801Y-30999075D02*
X21137324Y-30989551D01*
X21137324Y-30989551D02*
X21156372Y-30980027D01*
X21308753Y-31160979D02*
X21318277Y-31170503D01*
X21318277Y-31170503D02*
X21308753Y-31180027D01*
X21308753Y-31180027D02*
X21299229Y-31170503D01*
X21299229Y-31170503D02*
X21308753Y-31160979D01*
X21308753Y-31160979D02*
X21308753Y-31180027D01*
X21384944Y-30980027D02*
X21508753Y-30980027D01*
X21508753Y-30980027D02*
X21442086Y-31056218D01*
X21442086Y-31056218D02*
X21470658Y-31056218D01*
X21470658Y-31056218D02*
X21489705Y-31065741D01*
X21489705Y-31065741D02*
X21499229Y-31075265D01*
X21499229Y-31075265D02*
X21508753Y-31094313D01*
X21508753Y-31094313D02*
X21508753Y-31141932D01*
X21508753Y-31141932D02*
X21499229Y-31160979D01*
X21499229Y-31160979D02*
X21489705Y-31170503D01*
X21489705Y-31170503D02*
X21470658Y-31180027D01*
X21470658Y-31180027D02*
X21413515Y-31180027D01*
X21413515Y-31180027D02*
X21394467Y-31170503D01*
X21394467Y-31170503D02*
X21384944Y-31160979D01*
X21689705Y-30980027D02*
X21594467Y-30980027D01*
X21594467Y-30980027D02*
X21584944Y-31075265D01*
X21584944Y-31075265D02*
X21594467Y-31065741D01*
X21594467Y-31065741D02*
X21613515Y-31056218D01*
X21613515Y-31056218D02*
X21661134Y-31056218D01*
X21661134Y-31056218D02*
X21680182Y-31065741D01*
X21680182Y-31065741D02*
X21689705Y-31075265D01*
X21689705Y-31075265D02*
X21699229Y-31094313D01*
X21699229Y-31094313D02*
X21699229Y-31141932D01*
X21699229Y-31141932D02*
X21689705Y-31160979D01*
X21689705Y-31160979D02*
X21680182Y-31170503D01*
X21680182Y-31170503D02*
X21661134Y-31180027D01*
X21661134Y-31180027D02*
X21613515Y-31180027D01*
X21613515Y-31180027D02*
X21594467Y-31170503D01*
X21594467Y-31170503D02*
X21584944Y-31160979D01*
X21823039Y-30980027D02*
X21842086Y-30980027D01*
X21842086Y-30980027D02*
X21861134Y-30989551D01*
X21861134Y-30989551D02*
X21870658Y-30999075D01*
X21870658Y-30999075D02*
X21880182Y-31018122D01*
X21880182Y-31018122D02*
X21889705Y-31056218D01*
X21889705Y-31056218D02*
X21889705Y-31103837D01*
X21889705Y-31103837D02*
X21880182Y-31141932D01*
X21880182Y-31141932D02*
X21870658Y-31160979D01*
X21870658Y-31160979D02*
X21861134Y-31170503D01*
X21861134Y-31170503D02*
X21842086Y-31180027D01*
X21842086Y-31180027D02*
X21823039Y-31180027D01*
X21823039Y-31180027D02*
X21803991Y-31170503D01*
X21803991Y-31170503D02*
X21794467Y-31160979D01*
X21794467Y-31160979D02*
X21784944Y-31141932D01*
X21784944Y-31141932D02*
X21775420Y-31103837D01*
X21775420Y-31103837D02*
X21775420Y-31056218D01*
X21775420Y-31056218D02*
X21784944Y-31018122D01*
X21784944Y-31018122D02*
X21794467Y-30999075D01*
X21794467Y-30999075D02*
X21803991Y-30989551D01*
X21803991Y-30989551D02*
X21823039Y-30980027D01*
X21975420Y-31180027D02*
X21975420Y-31046694D01*
X21975420Y-31065741D02*
X21984944Y-31056218D01*
X21984944Y-31056218D02*
X22003991Y-31046694D01*
X22003991Y-31046694D02*
X22032563Y-31046694D01*
X22032563Y-31046694D02*
X22051610Y-31056218D01*
X22051610Y-31056218D02*
X22061134Y-31075265D01*
X22061134Y-31075265D02*
X22061134Y-31180027D01*
X22061134Y-31075265D02*
X22070658Y-31056218D01*
X22070658Y-31056218D02*
X22089705Y-31046694D01*
X22089705Y-31046694D02*
X22118277Y-31046694D01*
X22118277Y-31046694D02*
X22137325Y-31056218D01*
X22137325Y-31056218D02*
X22146848Y-31075265D01*
X22146848Y-31075265D02*
X22146848Y-31180027D01*
X22242086Y-31180027D02*
X22242086Y-31046694D01*
X22242086Y-31065741D02*
X22251610Y-31056218D01*
X22251610Y-31056218D02*
X22270658Y-31046694D01*
X22270658Y-31046694D02*
X22299229Y-31046694D01*
X22299229Y-31046694D02*
X22318277Y-31056218D01*
X22318277Y-31056218D02*
X22327801Y-31075265D01*
X22327801Y-31075265D02*
X22327801Y-31180027D01*
X22327801Y-31075265D02*
X22337325Y-31056218D01*
X22337325Y-31056218D02*
X22356372Y-31046694D01*
X22356372Y-31046694D02*
X22384943Y-31046694D01*
X22384943Y-31046694D02*
X22403991Y-31056218D01*
X22403991Y-31056218D02*
X22413515Y-31075265D01*
X22413515Y-31075265D02*
X22413515Y-31180027D01*
X22803991Y-30970503D02*
X22632563Y-31227646D01*
X23061134Y-30980027D02*
X23080182Y-30980027D01*
X23080182Y-30980027D02*
X23099229Y-30989551D01*
X23099229Y-30989551D02*
X23108753Y-30999075D01*
X23108753Y-30999075D02*
X23118277Y-31018122D01*
X23118277Y-31018122D02*
X23127801Y-31056218D01*
X23127801Y-31056218D02*
X23127801Y-31103837D01*
X23127801Y-31103837D02*
X23118277Y-31141932D01*
X23118277Y-31141932D02*
X23108753Y-31160979D01*
X23108753Y-31160979D02*
X23099229Y-31170503D01*
X23099229Y-31170503D02*
X23080182Y-31180027D01*
X23080182Y-31180027D02*
X23061134Y-31180027D01*
X23061134Y-31180027D02*
X23042086Y-31170503D01*
X23042086Y-31170503D02*
X23032563Y-31160979D01*
X23032563Y-31160979D02*
X23023039Y-31141932D01*
X23023039Y-31141932D02*
X23013515Y-31103837D01*
X23013515Y-31103837D02*
X23013515Y-31056218D01*
X23013515Y-31056218D02*
X23023039Y-31018122D01*
X23023039Y-31018122D02*
X23032563Y-30999075D01*
X23032563Y-30999075D02*
X23042086Y-30989551D01*
X23042086Y-30989551D02*
X23061134Y-30980027D01*
X23213515Y-31160979D02*
X23223039Y-31170503D01*
X23223039Y-31170503D02*
X23213515Y-31180027D01*
X23213515Y-31180027D02*
X23203991Y-31170503D01*
X23203991Y-31170503D02*
X23213515Y-31160979D01*
X23213515Y-31160979D02*
X23213515Y-31180027D01*
X23346848Y-30980027D02*
X23365896Y-30980027D01*
X23365896Y-30980027D02*
X23384944Y-30989551D01*
X23384944Y-30989551D02*
X23394467Y-30999075D01*
X23394467Y-30999075D02*
X23403991Y-31018122D01*
X23403991Y-31018122D02*
X23413515Y-31056218D01*
X23413515Y-31056218D02*
X23413515Y-31103837D01*
X23413515Y-31103837D02*
X23403991Y-31141932D01*
X23403991Y-31141932D02*
X23394467Y-31160979D01*
X23394467Y-31160979D02*
X23384944Y-31170503D01*
X23384944Y-31170503D02*
X23365896Y-31180027D01*
X23365896Y-31180027D02*
X23346848Y-31180027D01*
X23346848Y-31180027D02*
X23327801Y-31170503D01*
X23327801Y-31170503D02*
X23318277Y-31160979D01*
X23318277Y-31160979D02*
X23308753Y-31141932D01*
X23308753Y-31141932D02*
X23299229Y-31103837D01*
X23299229Y-31103837D02*
X23299229Y-31056218D01*
X23299229Y-31056218D02*
X23308753Y-31018122D01*
X23308753Y-31018122D02*
X23318277Y-30999075D01*
X23318277Y-30999075D02*
X23327801Y-30989551D01*
X23327801Y-30989551D02*
X23346848Y-30980027D01*
X23603991Y-31180027D02*
X23489706Y-31180027D01*
X23546848Y-31180027D02*
X23546848Y-30980027D01*
X23546848Y-30980027D02*
X23527801Y-31008599D01*
X23527801Y-31008599D02*
X23508753Y-31027646D01*
X23508753Y-31027646D02*
X23489706Y-31037170D01*
X23670658Y-30980027D02*
X23794467Y-30980027D01*
X23794467Y-30980027D02*
X23727801Y-31056218D01*
X23727801Y-31056218D02*
X23756372Y-31056218D01*
X23756372Y-31056218D02*
X23775420Y-31065741D01*
X23775420Y-31065741D02*
X23784944Y-31075265D01*
X23784944Y-31075265D02*
X23794467Y-31094313D01*
X23794467Y-31094313D02*
X23794467Y-31141932D01*
X23794467Y-31141932D02*
X23784944Y-31160979D01*
X23784944Y-31160979D02*
X23775420Y-31170503D01*
X23775420Y-31170503D02*
X23756372Y-31180027D01*
X23756372Y-31180027D02*
X23699229Y-31180027D01*
X23699229Y-31180027D02*
X23680182Y-31170503D01*
X23680182Y-31170503D02*
X23670658Y-31160979D01*
X23908753Y-31065741D02*
X23889706Y-31056218D01*
X23889706Y-31056218D02*
X23880182Y-31046694D01*
X23880182Y-31046694D02*
X23870658Y-31027646D01*
X23870658Y-31027646D02*
X23870658Y-31018122D01*
X23870658Y-31018122D02*
X23880182Y-30999075D01*
X23880182Y-30999075D02*
X23889706Y-30989551D01*
X23889706Y-30989551D02*
X23908753Y-30980027D01*
X23908753Y-30980027D02*
X23946848Y-30980027D01*
X23946848Y-30980027D02*
X23965896Y-30989551D01*
X23965896Y-30989551D02*
X23975420Y-30999075D01*
X23975420Y-30999075D02*
X23984944Y-31018122D01*
X23984944Y-31018122D02*
X23984944Y-31027646D01*
X23984944Y-31027646D02*
X23975420Y-31046694D01*
X23975420Y-31046694D02*
X23965896Y-31056218D01*
X23965896Y-31056218D02*
X23946848Y-31065741D01*
X23946848Y-31065741D02*
X23908753Y-31065741D01*
X23908753Y-31065741D02*
X23889706Y-31075265D01*
X23889706Y-31075265D02*
X23880182Y-31084789D01*
X23880182Y-31084789D02*
X23870658Y-31103837D01*
X23870658Y-31103837D02*
X23870658Y-31141932D01*
X23870658Y-31141932D02*
X23880182Y-31160979D01*
X23880182Y-31160979D02*
X23889706Y-31170503D01*
X23889706Y-31170503D02*
X23908753Y-31180027D01*
X23908753Y-31180027D02*
X23946848Y-31180027D01*
X23946848Y-31180027D02*
X23965896Y-31170503D01*
X23965896Y-31170503D02*
X23975420Y-31160979D01*
X23975420Y-31160979D02*
X23984944Y-31141932D01*
X23984944Y-31141932D02*
X23984944Y-31103837D01*
X23984944Y-31103837D02*
X23975420Y-31084789D01*
X23975420Y-31084789D02*
X23965896Y-31075265D01*
X23965896Y-31075265D02*
X23946848Y-31065741D01*
X24061134Y-30980027D02*
X24061134Y-31018122D01*
X24137325Y-30980027D02*
X24137325Y-31018122D01*
X24432563Y-31256218D02*
X24423039Y-31246694D01*
X24423039Y-31246694D02*
X24403991Y-31218122D01*
X24403991Y-31218122D02*
X24394468Y-31199075D01*
X24394468Y-31199075D02*
X24384944Y-31170503D01*
X24384944Y-31170503D02*
X24375420Y-31122884D01*
X24375420Y-31122884D02*
X24375420Y-31084789D01*
X24375420Y-31084789D02*
X24384944Y-31037170D01*
X24384944Y-31037170D02*
X24394468Y-31008599D01*
X24394468Y-31008599D02*
X24403991Y-30989551D01*
X24403991Y-30989551D02*
X24423039Y-30960979D01*
X24423039Y-30960979D02*
X24432563Y-30951456D01*
X24499229Y-30999075D02*
X24508753Y-30989551D01*
X24508753Y-30989551D02*
X24527801Y-30980027D01*
X24527801Y-30980027D02*
X24575420Y-30980027D01*
X24575420Y-30980027D02*
X24594468Y-30989551D01*
X24594468Y-30989551D02*
X24603991Y-30999075D01*
X24603991Y-30999075D02*
X24613515Y-31018122D01*
X24613515Y-31018122D02*
X24613515Y-31037170D01*
X24613515Y-31037170D02*
X24603991Y-31065741D01*
X24603991Y-31065741D02*
X24489706Y-31180027D01*
X24489706Y-31180027D02*
X24613515Y-31180027D01*
X24803991Y-31180027D02*
X24689706Y-31180027D01*
X24746848Y-31180027D02*
X24746848Y-30980027D01*
X24746848Y-30980027D02*
X24727801Y-31008599D01*
X24727801Y-31008599D02*
X24708753Y-31027646D01*
X24708753Y-31027646D02*
X24689706Y-31037170D01*
X25042087Y-31180027D02*
X25042087Y-30980027D01*
X25127801Y-31180027D02*
X25127801Y-31075265D01*
X25127801Y-31075265D02*
X25118277Y-31056218D01*
X25118277Y-31056218D02*
X25099230Y-31046694D01*
X25099230Y-31046694D02*
X25070658Y-31046694D01*
X25070658Y-31046694D02*
X25051610Y-31056218D01*
X25051610Y-31056218D02*
X25042087Y-31065741D01*
X25251610Y-31180027D02*
X25232563Y-31170503D01*
X25232563Y-31170503D02*
X25223039Y-31160979D01*
X25223039Y-31160979D02*
X25213515Y-31141932D01*
X25213515Y-31141932D02*
X25213515Y-31084789D01*
X25213515Y-31084789D02*
X25223039Y-31065741D01*
X25223039Y-31065741D02*
X25232563Y-31056218D01*
X25232563Y-31056218D02*
X25251610Y-31046694D01*
X25251610Y-31046694D02*
X25280182Y-31046694D01*
X25280182Y-31046694D02*
X25299230Y-31056218D01*
X25299230Y-31056218D02*
X25308753Y-31065741D01*
X25308753Y-31065741D02*
X25318277Y-31084789D01*
X25318277Y-31084789D02*
X25318277Y-31141932D01*
X25318277Y-31141932D02*
X25308753Y-31160979D01*
X25308753Y-31160979D02*
X25299230Y-31170503D01*
X25299230Y-31170503D02*
X25280182Y-31180027D01*
X25280182Y-31180027D02*
X25251610Y-31180027D01*
X25432563Y-31180027D02*
X25413515Y-31170503D01*
X25413515Y-31170503D02*
X25403991Y-31151456D01*
X25403991Y-31151456D02*
X25403991Y-30980027D01*
X25584944Y-31170503D02*
X25565896Y-31180027D01*
X25565896Y-31180027D02*
X25527801Y-31180027D01*
X25527801Y-31180027D02*
X25508753Y-31170503D01*
X25508753Y-31170503D02*
X25499230Y-31151456D01*
X25499230Y-31151456D02*
X25499230Y-31075265D01*
X25499230Y-31075265D02*
X25508753Y-31056218D01*
X25508753Y-31056218D02*
X25527801Y-31046694D01*
X25527801Y-31046694D02*
X25565896Y-31046694D01*
X25565896Y-31046694D02*
X25584944Y-31056218D01*
X25584944Y-31056218D02*
X25594468Y-31075265D01*
X25594468Y-31075265D02*
X25594468Y-31094313D01*
X25594468Y-31094313D02*
X25499230Y-31113360D01*
X25670658Y-31170503D02*
X25689706Y-31180027D01*
X25689706Y-31180027D02*
X25727801Y-31180027D01*
X25727801Y-31180027D02*
X25746849Y-31170503D01*
X25746849Y-31170503D02*
X25756372Y-31151456D01*
X25756372Y-31151456D02*
X25756372Y-31141932D01*
X25756372Y-31141932D02*
X25746849Y-31122884D01*
X25746849Y-31122884D02*
X25727801Y-31113360D01*
X25727801Y-31113360D02*
X25699230Y-31113360D01*
X25699230Y-31113360D02*
X25680182Y-31103837D01*
X25680182Y-31103837D02*
X25670658Y-31084789D01*
X25670658Y-31084789D02*
X25670658Y-31075265D01*
X25670658Y-31075265D02*
X25680182Y-31056218D01*
X25680182Y-31056218D02*
X25699230Y-31046694D01*
X25699230Y-31046694D02*
X25727801Y-31046694D01*
X25727801Y-31046694D02*
X25746849Y-31056218D01*
X25823039Y-31256218D02*
X25832563Y-31246694D01*
X25832563Y-31246694D02*
X25851611Y-31218122D01*
X25851611Y-31218122D02*
X25861134Y-31199075D01*
X25861134Y-31199075D02*
X25870658Y-31170503D01*
X25870658Y-31170503D02*
X25880182Y-31122884D01*
X25880182Y-31122884D02*
X25880182Y-31084789D01*
X25880182Y-31084789D02*
X25870658Y-31037170D01*
X25870658Y-31037170D02*
X25861134Y-31008599D01*
X25861134Y-31008599D02*
X25851611Y-30989551D01*
X25851611Y-30989551D02*
X25832563Y-30960979D01*
X25832563Y-30960979D02*
X25823039Y-30951456D01*
D13*
X20850178Y-31370221D02*
X20850178Y-31334866D01*
X20814822Y-31334866D01*
X20814822Y-31370221D01*
X20850178Y-31370221D01*
D12*
X21156372Y-31244027D02*
X21175420Y-31244027D01*
X21175420Y-31244027D02*
X21194467Y-31253551D01*
X21194467Y-31253551D02*
X21203991Y-31263075D01*
X21203991Y-31263075D02*
X21213515Y-31282122D01*
X21213515Y-31282122D02*
X21223039Y-31320218D01*
X21223039Y-31320218D02*
X21223039Y-31367837D01*
X21223039Y-31367837D02*
X21213515Y-31405932D01*
X21213515Y-31405932D02*
X21203991Y-31424979D01*
X21203991Y-31424979D02*
X21194467Y-31434503D01*
X21194467Y-31434503D02*
X21175420Y-31444027D01*
X21175420Y-31444027D02*
X21156372Y-31444027D01*
X21156372Y-31444027D02*
X21137324Y-31434503D01*
X21137324Y-31434503D02*
X21127801Y-31424979D01*
X21127801Y-31424979D02*
X21118277Y-31405932D01*
X21118277Y-31405932D02*
X21108753Y-31367837D01*
X21108753Y-31367837D02*
X21108753Y-31320218D01*
X21108753Y-31320218D02*
X21118277Y-31282122D01*
X21118277Y-31282122D02*
X21127801Y-31263075D01*
X21127801Y-31263075D02*
X21137324Y-31253551D01*
X21137324Y-31253551D02*
X21156372Y-31244027D01*
X21308753Y-31424979D02*
X21318277Y-31434503D01*
X21318277Y-31434503D02*
X21308753Y-31444027D01*
X21308753Y-31444027D02*
X21299229Y-31434503D01*
X21299229Y-31434503D02*
X21308753Y-31424979D01*
X21308753Y-31424979D02*
X21308753Y-31444027D01*
X21499229Y-31244027D02*
X21403991Y-31244027D01*
X21403991Y-31244027D02*
X21394467Y-31339265D01*
X21394467Y-31339265D02*
X21403991Y-31329741D01*
X21403991Y-31329741D02*
X21423039Y-31320218D01*
X21423039Y-31320218D02*
X21470658Y-31320218D01*
X21470658Y-31320218D02*
X21489705Y-31329741D01*
X21489705Y-31329741D02*
X21499229Y-31339265D01*
X21499229Y-31339265D02*
X21508753Y-31358313D01*
X21508753Y-31358313D02*
X21508753Y-31405932D01*
X21508753Y-31405932D02*
X21499229Y-31424979D01*
X21499229Y-31424979D02*
X21489705Y-31434503D01*
X21489705Y-31434503D02*
X21470658Y-31444027D01*
X21470658Y-31444027D02*
X21423039Y-31444027D01*
X21423039Y-31444027D02*
X21403991Y-31434503D01*
X21403991Y-31434503D02*
X21394467Y-31424979D01*
X21632563Y-31244027D02*
X21651610Y-31244027D01*
X21651610Y-31244027D02*
X21670658Y-31253551D01*
X21670658Y-31253551D02*
X21680182Y-31263075D01*
X21680182Y-31263075D02*
X21689705Y-31282122D01*
X21689705Y-31282122D02*
X21699229Y-31320218D01*
X21699229Y-31320218D02*
X21699229Y-31367837D01*
X21699229Y-31367837D02*
X21689705Y-31405932D01*
X21689705Y-31405932D02*
X21680182Y-31424979D01*
X21680182Y-31424979D02*
X21670658Y-31434503D01*
X21670658Y-31434503D02*
X21651610Y-31444027D01*
X21651610Y-31444027D02*
X21632563Y-31444027D01*
X21632563Y-31444027D02*
X21613515Y-31434503D01*
X21613515Y-31434503D02*
X21603991Y-31424979D01*
X21603991Y-31424979D02*
X21594467Y-31405932D01*
X21594467Y-31405932D02*
X21584944Y-31367837D01*
X21584944Y-31367837D02*
X21584944Y-31320218D01*
X21584944Y-31320218D02*
X21594467Y-31282122D01*
X21594467Y-31282122D02*
X21603991Y-31263075D01*
X21603991Y-31263075D02*
X21613515Y-31253551D01*
X21613515Y-31253551D02*
X21632563Y-31244027D01*
X21823039Y-31244027D02*
X21842086Y-31244027D01*
X21842086Y-31244027D02*
X21861134Y-31253551D01*
X21861134Y-31253551D02*
X21870658Y-31263075D01*
X21870658Y-31263075D02*
X21880182Y-31282122D01*
X21880182Y-31282122D02*
X21889705Y-31320218D01*
X21889705Y-31320218D02*
X21889705Y-31367837D01*
X21889705Y-31367837D02*
X21880182Y-31405932D01*
X21880182Y-31405932D02*
X21870658Y-31424979D01*
X21870658Y-31424979D02*
X21861134Y-31434503D01*
X21861134Y-31434503D02*
X21842086Y-31444027D01*
X21842086Y-31444027D02*
X21823039Y-31444027D01*
X21823039Y-31444027D02*
X21803991Y-31434503D01*
X21803991Y-31434503D02*
X21794467Y-31424979D01*
X21794467Y-31424979D02*
X21784944Y-31405932D01*
X21784944Y-31405932D02*
X21775420Y-31367837D01*
X21775420Y-31367837D02*
X21775420Y-31320218D01*
X21775420Y-31320218D02*
X21784944Y-31282122D01*
X21784944Y-31282122D02*
X21794467Y-31263075D01*
X21794467Y-31263075D02*
X21803991Y-31253551D01*
X21803991Y-31253551D02*
X21823039Y-31244027D01*
X21975420Y-31444027D02*
X21975420Y-31310694D01*
X21975420Y-31329741D02*
X21984944Y-31320218D01*
X21984944Y-31320218D02*
X22003991Y-31310694D01*
X22003991Y-31310694D02*
X22032563Y-31310694D01*
X22032563Y-31310694D02*
X22051610Y-31320218D01*
X22051610Y-31320218D02*
X22061134Y-31339265D01*
X22061134Y-31339265D02*
X22061134Y-31444027D01*
X22061134Y-31339265D02*
X22070658Y-31320218D01*
X22070658Y-31320218D02*
X22089705Y-31310694D01*
X22089705Y-31310694D02*
X22118277Y-31310694D01*
X22118277Y-31310694D02*
X22137325Y-31320218D01*
X22137325Y-31320218D02*
X22146848Y-31339265D01*
X22146848Y-31339265D02*
X22146848Y-31444027D01*
X22242086Y-31444027D02*
X22242086Y-31310694D01*
X22242086Y-31329741D02*
X22251610Y-31320218D01*
X22251610Y-31320218D02*
X22270658Y-31310694D01*
X22270658Y-31310694D02*
X22299229Y-31310694D01*
X22299229Y-31310694D02*
X22318277Y-31320218D01*
X22318277Y-31320218D02*
X22327801Y-31339265D01*
X22327801Y-31339265D02*
X22327801Y-31444027D01*
X22327801Y-31339265D02*
X22337325Y-31320218D01*
X22337325Y-31320218D02*
X22356372Y-31310694D01*
X22356372Y-31310694D02*
X22384943Y-31310694D01*
X22384943Y-31310694D02*
X22403991Y-31320218D01*
X22403991Y-31320218D02*
X22413515Y-31339265D01*
X22413515Y-31339265D02*
X22413515Y-31444027D01*
X22803991Y-31234503D02*
X22632563Y-31491646D01*
X23061134Y-31244027D02*
X23080182Y-31244027D01*
X23080182Y-31244027D02*
X23099229Y-31253551D01*
X23099229Y-31253551D02*
X23108753Y-31263075D01*
X23108753Y-31263075D02*
X23118277Y-31282122D01*
X23118277Y-31282122D02*
X23127801Y-31320218D01*
X23127801Y-31320218D02*
X23127801Y-31367837D01*
X23127801Y-31367837D02*
X23118277Y-31405932D01*
X23118277Y-31405932D02*
X23108753Y-31424979D01*
X23108753Y-31424979D02*
X23099229Y-31434503D01*
X23099229Y-31434503D02*
X23080182Y-31444027D01*
X23080182Y-31444027D02*
X23061134Y-31444027D01*
X23061134Y-31444027D02*
X23042086Y-31434503D01*
X23042086Y-31434503D02*
X23032563Y-31424979D01*
X23032563Y-31424979D02*
X23023039Y-31405932D01*
X23023039Y-31405932D02*
X23013515Y-31367837D01*
X23013515Y-31367837D02*
X23013515Y-31320218D01*
X23013515Y-31320218D02*
X23023039Y-31282122D01*
X23023039Y-31282122D02*
X23032563Y-31263075D01*
X23032563Y-31263075D02*
X23042086Y-31253551D01*
X23042086Y-31253551D02*
X23061134Y-31244027D01*
X23213515Y-31424979D02*
X23223039Y-31434503D01*
X23223039Y-31434503D02*
X23213515Y-31444027D01*
X23213515Y-31444027D02*
X23203991Y-31434503D01*
X23203991Y-31434503D02*
X23213515Y-31424979D01*
X23213515Y-31424979D02*
X23213515Y-31444027D01*
X23346848Y-31244027D02*
X23365896Y-31244027D01*
X23365896Y-31244027D02*
X23384944Y-31253551D01*
X23384944Y-31253551D02*
X23394467Y-31263075D01*
X23394467Y-31263075D02*
X23403991Y-31282122D01*
X23403991Y-31282122D02*
X23413515Y-31320218D01*
X23413515Y-31320218D02*
X23413515Y-31367837D01*
X23413515Y-31367837D02*
X23403991Y-31405932D01*
X23403991Y-31405932D02*
X23394467Y-31424979D01*
X23394467Y-31424979D02*
X23384944Y-31434503D01*
X23384944Y-31434503D02*
X23365896Y-31444027D01*
X23365896Y-31444027D02*
X23346848Y-31444027D01*
X23346848Y-31444027D02*
X23327801Y-31434503D01*
X23327801Y-31434503D02*
X23318277Y-31424979D01*
X23318277Y-31424979D02*
X23308753Y-31405932D01*
X23308753Y-31405932D02*
X23299229Y-31367837D01*
X23299229Y-31367837D02*
X23299229Y-31320218D01*
X23299229Y-31320218D02*
X23308753Y-31282122D01*
X23308753Y-31282122D02*
X23318277Y-31263075D01*
X23318277Y-31263075D02*
X23327801Y-31253551D01*
X23327801Y-31253551D02*
X23346848Y-31244027D01*
X23603991Y-31444027D02*
X23489706Y-31444027D01*
X23546848Y-31444027D02*
X23546848Y-31244027D01*
X23546848Y-31244027D02*
X23527801Y-31272599D01*
X23527801Y-31272599D02*
X23508753Y-31291646D01*
X23508753Y-31291646D02*
X23489706Y-31301170D01*
X23699229Y-31444027D02*
X23737325Y-31444027D01*
X23737325Y-31444027D02*
X23756372Y-31434503D01*
X23756372Y-31434503D02*
X23765896Y-31424979D01*
X23765896Y-31424979D02*
X23784944Y-31396408D01*
X23784944Y-31396408D02*
X23794467Y-31358313D01*
X23794467Y-31358313D02*
X23794467Y-31282122D01*
X23794467Y-31282122D02*
X23784944Y-31263075D01*
X23784944Y-31263075D02*
X23775420Y-31253551D01*
X23775420Y-31253551D02*
X23756372Y-31244027D01*
X23756372Y-31244027D02*
X23718277Y-31244027D01*
X23718277Y-31244027D02*
X23699229Y-31253551D01*
X23699229Y-31253551D02*
X23689706Y-31263075D01*
X23689706Y-31263075D02*
X23680182Y-31282122D01*
X23680182Y-31282122D02*
X23680182Y-31329741D01*
X23680182Y-31329741D02*
X23689706Y-31348789D01*
X23689706Y-31348789D02*
X23699229Y-31358313D01*
X23699229Y-31358313D02*
X23718277Y-31367837D01*
X23718277Y-31367837D02*
X23756372Y-31367837D01*
X23756372Y-31367837D02*
X23775420Y-31358313D01*
X23775420Y-31358313D02*
X23784944Y-31348789D01*
X23784944Y-31348789D02*
X23794467Y-31329741D01*
X23861134Y-31244027D02*
X23994467Y-31244027D01*
X23994467Y-31244027D02*
X23908753Y-31444027D01*
X24061134Y-31244027D02*
X24061134Y-31282122D01*
X24137325Y-31244027D02*
X24137325Y-31282122D01*
X24432563Y-31520218D02*
X24423039Y-31510694D01*
X24423039Y-31510694D02*
X24403991Y-31482122D01*
X24403991Y-31482122D02*
X24394468Y-31463075D01*
X24394468Y-31463075D02*
X24384944Y-31434503D01*
X24384944Y-31434503D02*
X24375420Y-31386884D01*
X24375420Y-31386884D02*
X24375420Y-31348789D01*
X24375420Y-31348789D02*
X24384944Y-31301170D01*
X24384944Y-31301170D02*
X24394468Y-31272599D01*
X24394468Y-31272599D02*
X24403991Y-31253551D01*
X24403991Y-31253551D02*
X24423039Y-31224979D01*
X24423039Y-31224979D02*
X24432563Y-31215456D01*
X24537325Y-31329741D02*
X24518277Y-31320218D01*
X24518277Y-31320218D02*
X24508753Y-31310694D01*
X24508753Y-31310694D02*
X24499229Y-31291646D01*
X24499229Y-31291646D02*
X24499229Y-31282122D01*
X24499229Y-31282122D02*
X24508753Y-31263075D01*
X24508753Y-31263075D02*
X24518277Y-31253551D01*
X24518277Y-31253551D02*
X24537325Y-31244027D01*
X24537325Y-31244027D02*
X24575420Y-31244027D01*
X24575420Y-31244027D02*
X24594468Y-31253551D01*
X24594468Y-31253551D02*
X24603991Y-31263075D01*
X24603991Y-31263075D02*
X24613515Y-31282122D01*
X24613515Y-31282122D02*
X24613515Y-31291646D01*
X24613515Y-31291646D02*
X24603991Y-31310694D01*
X24603991Y-31310694D02*
X24594468Y-31320218D01*
X24594468Y-31320218D02*
X24575420Y-31329741D01*
X24575420Y-31329741D02*
X24537325Y-31329741D01*
X24537325Y-31329741D02*
X24518277Y-31339265D01*
X24518277Y-31339265D02*
X24508753Y-31348789D01*
X24508753Y-31348789D02*
X24499229Y-31367837D01*
X24499229Y-31367837D02*
X24499229Y-31405932D01*
X24499229Y-31405932D02*
X24508753Y-31424979D01*
X24508753Y-31424979D02*
X24518277Y-31434503D01*
X24518277Y-31434503D02*
X24537325Y-31444027D01*
X24537325Y-31444027D02*
X24575420Y-31444027D01*
X24575420Y-31444027D02*
X24594468Y-31434503D01*
X24594468Y-31434503D02*
X24603991Y-31424979D01*
X24603991Y-31424979D02*
X24613515Y-31405932D01*
X24613515Y-31405932D02*
X24613515Y-31367837D01*
X24613515Y-31367837D02*
X24603991Y-31348789D01*
X24603991Y-31348789D02*
X24594468Y-31339265D01*
X24594468Y-31339265D02*
X24575420Y-31329741D01*
X24851610Y-31444027D02*
X24851610Y-31244027D01*
X24937325Y-31444027D02*
X24937325Y-31339265D01*
X24937325Y-31339265D02*
X24927801Y-31320218D01*
X24927801Y-31320218D02*
X24908753Y-31310694D01*
X24908753Y-31310694D02*
X24880182Y-31310694D01*
X24880182Y-31310694D02*
X24861134Y-31320218D01*
X24861134Y-31320218D02*
X24851610Y-31329741D01*
X25061134Y-31444027D02*
X25042087Y-31434503D01*
X25042087Y-31434503D02*
X25032563Y-31424979D01*
X25032563Y-31424979D02*
X25023039Y-31405932D01*
X25023039Y-31405932D02*
X25023039Y-31348789D01*
X25023039Y-31348789D02*
X25032563Y-31329741D01*
X25032563Y-31329741D02*
X25042087Y-31320218D01*
X25042087Y-31320218D02*
X25061134Y-31310694D01*
X25061134Y-31310694D02*
X25089706Y-31310694D01*
X25089706Y-31310694D02*
X25108753Y-31320218D01*
X25108753Y-31320218D02*
X25118277Y-31329741D01*
X25118277Y-31329741D02*
X25127801Y-31348789D01*
X25127801Y-31348789D02*
X25127801Y-31405932D01*
X25127801Y-31405932D02*
X25118277Y-31424979D01*
X25118277Y-31424979D02*
X25108753Y-31434503D01*
X25108753Y-31434503D02*
X25089706Y-31444027D01*
X25089706Y-31444027D02*
X25061134Y-31444027D01*
X25242087Y-31444027D02*
X25223039Y-31434503D01*
X25223039Y-31434503D02*
X25213515Y-31415456D01*
X25213515Y-31415456D02*
X25213515Y-31244027D01*
X25394468Y-31434503D02*
X25375420Y-31444027D01*
X25375420Y-31444027D02*
X25337325Y-31444027D01*
X25337325Y-31444027D02*
X25318277Y-31434503D01*
X25318277Y-31434503D02*
X25308753Y-31415456D01*
X25308753Y-31415456D02*
X25308753Y-31339265D01*
X25308753Y-31339265D02*
X25318277Y-31320218D01*
X25318277Y-31320218D02*
X25337325Y-31310694D01*
X25337325Y-31310694D02*
X25375420Y-31310694D01*
X25375420Y-31310694D02*
X25394468Y-31320218D01*
X25394468Y-31320218D02*
X25403991Y-31339265D01*
X25403991Y-31339265D02*
X25403991Y-31358313D01*
X25403991Y-31358313D02*
X25308753Y-31377360D01*
X25480182Y-31434503D02*
X25499230Y-31444027D01*
X25499230Y-31444027D02*
X25537325Y-31444027D01*
X25537325Y-31444027D02*
X25556372Y-31434503D01*
X25556372Y-31434503D02*
X25565896Y-31415456D01*
X25565896Y-31415456D02*
X25565896Y-31405932D01*
X25565896Y-31405932D02*
X25556372Y-31386884D01*
X25556372Y-31386884D02*
X25537325Y-31377360D01*
X25537325Y-31377360D02*
X25508753Y-31377360D01*
X25508753Y-31377360D02*
X25489706Y-31367837D01*
X25489706Y-31367837D02*
X25480182Y-31348789D01*
X25480182Y-31348789D02*
X25480182Y-31339265D01*
X25480182Y-31339265D02*
X25489706Y-31320218D01*
X25489706Y-31320218D02*
X25508753Y-31310694D01*
X25508753Y-31310694D02*
X25537325Y-31310694D01*
X25537325Y-31310694D02*
X25556372Y-31320218D01*
X25632563Y-31520218D02*
X25642087Y-31510694D01*
X25642087Y-31510694D02*
X25661134Y-31482122D01*
X25661134Y-31482122D02*
X25670658Y-31463075D01*
X25670658Y-31463075D02*
X25680182Y-31434503D01*
X25680182Y-31434503D02*
X25689706Y-31386884D01*
X25689706Y-31386884D02*
X25689706Y-31348789D01*
X25689706Y-31348789D02*
X25680182Y-31301170D01*
X25680182Y-31301170D02*
X25670658Y-31272599D01*
X25670658Y-31272599D02*
X25661134Y-31253551D01*
X25661134Y-31253551D02*
X25642087Y-31224979D01*
X25642087Y-31224979D02*
X25632563Y-31215456D01*
D13*
X20807500Y-31666543D02*
X20857500Y-31616543D01*
X20807500Y-31566543D01*
X20757500Y-31616543D01*
X20807500Y-31666543D01*
D12*
X21223039Y-31708027D02*
X21108753Y-31708027D01*
X21165896Y-31708027D02*
X21165896Y-31508027D01*
X21165896Y-31508027D02*
X21146848Y-31536599D01*
X21146848Y-31536599D02*
X21127801Y-31555646D01*
X21127801Y-31555646D02*
X21108753Y-31565170D01*
X21308753Y-31688979D02*
X21318277Y-31698503D01*
X21318277Y-31698503D02*
X21308753Y-31708027D01*
X21308753Y-31708027D02*
X21299229Y-31698503D01*
X21299229Y-31698503D02*
X21308753Y-31688979D01*
X21308753Y-31688979D02*
X21308753Y-31708027D01*
X21442086Y-31508027D02*
X21461134Y-31508027D01*
X21461134Y-31508027D02*
X21480182Y-31517551D01*
X21480182Y-31517551D02*
X21489705Y-31527075D01*
X21489705Y-31527075D02*
X21499229Y-31546122D01*
X21499229Y-31546122D02*
X21508753Y-31584218D01*
X21508753Y-31584218D02*
X21508753Y-31631837D01*
X21508753Y-31631837D02*
X21499229Y-31669932D01*
X21499229Y-31669932D02*
X21489705Y-31688979D01*
X21489705Y-31688979D02*
X21480182Y-31698503D01*
X21480182Y-31698503D02*
X21461134Y-31708027D01*
X21461134Y-31708027D02*
X21442086Y-31708027D01*
X21442086Y-31708027D02*
X21423039Y-31698503D01*
X21423039Y-31698503D02*
X21413515Y-31688979D01*
X21413515Y-31688979D02*
X21403991Y-31669932D01*
X21403991Y-31669932D02*
X21394467Y-31631837D01*
X21394467Y-31631837D02*
X21394467Y-31584218D01*
X21394467Y-31584218D02*
X21403991Y-31546122D01*
X21403991Y-31546122D02*
X21413515Y-31527075D01*
X21413515Y-31527075D02*
X21423039Y-31517551D01*
X21423039Y-31517551D02*
X21442086Y-31508027D01*
X21632563Y-31508027D02*
X21651610Y-31508027D01*
X21651610Y-31508027D02*
X21670658Y-31517551D01*
X21670658Y-31517551D02*
X21680182Y-31527075D01*
X21680182Y-31527075D02*
X21689705Y-31546122D01*
X21689705Y-31546122D02*
X21699229Y-31584218D01*
X21699229Y-31584218D02*
X21699229Y-31631837D01*
X21699229Y-31631837D02*
X21689705Y-31669932D01*
X21689705Y-31669932D02*
X21680182Y-31688979D01*
X21680182Y-31688979D02*
X21670658Y-31698503D01*
X21670658Y-31698503D02*
X21651610Y-31708027D01*
X21651610Y-31708027D02*
X21632563Y-31708027D01*
X21632563Y-31708027D02*
X21613515Y-31698503D01*
X21613515Y-31698503D02*
X21603991Y-31688979D01*
X21603991Y-31688979D02*
X21594467Y-31669932D01*
X21594467Y-31669932D02*
X21584944Y-31631837D01*
X21584944Y-31631837D02*
X21584944Y-31584218D01*
X21584944Y-31584218D02*
X21594467Y-31546122D01*
X21594467Y-31546122D02*
X21603991Y-31527075D01*
X21603991Y-31527075D02*
X21613515Y-31517551D01*
X21613515Y-31517551D02*
X21632563Y-31508027D01*
X21823039Y-31508027D02*
X21842086Y-31508027D01*
X21842086Y-31508027D02*
X21861134Y-31517551D01*
X21861134Y-31517551D02*
X21870658Y-31527075D01*
X21870658Y-31527075D02*
X21880182Y-31546122D01*
X21880182Y-31546122D02*
X21889705Y-31584218D01*
X21889705Y-31584218D02*
X21889705Y-31631837D01*
X21889705Y-31631837D02*
X21880182Y-31669932D01*
X21880182Y-31669932D02*
X21870658Y-31688979D01*
X21870658Y-31688979D02*
X21861134Y-31698503D01*
X21861134Y-31698503D02*
X21842086Y-31708027D01*
X21842086Y-31708027D02*
X21823039Y-31708027D01*
X21823039Y-31708027D02*
X21803991Y-31698503D01*
X21803991Y-31698503D02*
X21794467Y-31688979D01*
X21794467Y-31688979D02*
X21784944Y-31669932D01*
X21784944Y-31669932D02*
X21775420Y-31631837D01*
X21775420Y-31631837D02*
X21775420Y-31584218D01*
X21775420Y-31584218D02*
X21784944Y-31546122D01*
X21784944Y-31546122D02*
X21794467Y-31527075D01*
X21794467Y-31527075D02*
X21803991Y-31517551D01*
X21803991Y-31517551D02*
X21823039Y-31508027D01*
X21975420Y-31708027D02*
X21975420Y-31574694D01*
X21975420Y-31593741D02*
X21984944Y-31584218D01*
X21984944Y-31584218D02*
X22003991Y-31574694D01*
X22003991Y-31574694D02*
X22032563Y-31574694D01*
X22032563Y-31574694D02*
X22051610Y-31584218D01*
X22051610Y-31584218D02*
X22061134Y-31603265D01*
X22061134Y-31603265D02*
X22061134Y-31708027D01*
X22061134Y-31603265D02*
X22070658Y-31584218D01*
X22070658Y-31584218D02*
X22089705Y-31574694D01*
X22089705Y-31574694D02*
X22118277Y-31574694D01*
X22118277Y-31574694D02*
X22137325Y-31584218D01*
X22137325Y-31584218D02*
X22146848Y-31603265D01*
X22146848Y-31603265D02*
X22146848Y-31708027D01*
X22242086Y-31708027D02*
X22242086Y-31574694D01*
X22242086Y-31593741D02*
X22251610Y-31584218D01*
X22251610Y-31584218D02*
X22270658Y-31574694D01*
X22270658Y-31574694D02*
X22299229Y-31574694D01*
X22299229Y-31574694D02*
X22318277Y-31584218D01*
X22318277Y-31584218D02*
X22327801Y-31603265D01*
X22327801Y-31603265D02*
X22327801Y-31708027D01*
X22327801Y-31603265D02*
X22337325Y-31584218D01*
X22337325Y-31584218D02*
X22356372Y-31574694D01*
X22356372Y-31574694D02*
X22384943Y-31574694D01*
X22384943Y-31574694D02*
X22403991Y-31584218D01*
X22403991Y-31584218D02*
X22413515Y-31603265D01*
X22413515Y-31603265D02*
X22413515Y-31708027D01*
X22803991Y-31498503D02*
X22632563Y-31755646D01*
X23061134Y-31508027D02*
X23080182Y-31508027D01*
X23080182Y-31508027D02*
X23099229Y-31517551D01*
X23099229Y-31517551D02*
X23108753Y-31527075D01*
X23108753Y-31527075D02*
X23118277Y-31546122D01*
X23118277Y-31546122D02*
X23127801Y-31584218D01*
X23127801Y-31584218D02*
X23127801Y-31631837D01*
X23127801Y-31631837D02*
X23118277Y-31669932D01*
X23118277Y-31669932D02*
X23108753Y-31688979D01*
X23108753Y-31688979D02*
X23099229Y-31698503D01*
X23099229Y-31698503D02*
X23080182Y-31708027D01*
X23080182Y-31708027D02*
X23061134Y-31708027D01*
X23061134Y-31708027D02*
X23042086Y-31698503D01*
X23042086Y-31698503D02*
X23032563Y-31688979D01*
X23032563Y-31688979D02*
X23023039Y-31669932D01*
X23023039Y-31669932D02*
X23013515Y-31631837D01*
X23013515Y-31631837D02*
X23013515Y-31584218D01*
X23013515Y-31584218D02*
X23023039Y-31546122D01*
X23023039Y-31546122D02*
X23032563Y-31527075D01*
X23032563Y-31527075D02*
X23042086Y-31517551D01*
X23042086Y-31517551D02*
X23061134Y-31508027D01*
X23213515Y-31688979D02*
X23223039Y-31698503D01*
X23223039Y-31698503D02*
X23213515Y-31708027D01*
X23213515Y-31708027D02*
X23203991Y-31698503D01*
X23203991Y-31698503D02*
X23213515Y-31688979D01*
X23213515Y-31688979D02*
X23213515Y-31708027D01*
X23346848Y-31508027D02*
X23365896Y-31508027D01*
X23365896Y-31508027D02*
X23384944Y-31517551D01*
X23384944Y-31517551D02*
X23394467Y-31527075D01*
X23394467Y-31527075D02*
X23403991Y-31546122D01*
X23403991Y-31546122D02*
X23413515Y-31584218D01*
X23413515Y-31584218D02*
X23413515Y-31631837D01*
X23413515Y-31631837D02*
X23403991Y-31669932D01*
X23403991Y-31669932D02*
X23394467Y-31688979D01*
X23394467Y-31688979D02*
X23384944Y-31698503D01*
X23384944Y-31698503D02*
X23365896Y-31708027D01*
X23365896Y-31708027D02*
X23346848Y-31708027D01*
X23346848Y-31708027D02*
X23327801Y-31698503D01*
X23327801Y-31698503D02*
X23318277Y-31688979D01*
X23318277Y-31688979D02*
X23308753Y-31669932D01*
X23308753Y-31669932D02*
X23299229Y-31631837D01*
X23299229Y-31631837D02*
X23299229Y-31584218D01*
X23299229Y-31584218D02*
X23308753Y-31546122D01*
X23308753Y-31546122D02*
X23318277Y-31527075D01*
X23318277Y-31527075D02*
X23327801Y-31517551D01*
X23327801Y-31517551D02*
X23346848Y-31508027D01*
X23480182Y-31508027D02*
X23603991Y-31508027D01*
X23603991Y-31508027D02*
X23537325Y-31584218D01*
X23537325Y-31584218D02*
X23565896Y-31584218D01*
X23565896Y-31584218D02*
X23584944Y-31593741D01*
X23584944Y-31593741D02*
X23594467Y-31603265D01*
X23594467Y-31603265D02*
X23603991Y-31622313D01*
X23603991Y-31622313D02*
X23603991Y-31669932D01*
X23603991Y-31669932D02*
X23594467Y-31688979D01*
X23594467Y-31688979D02*
X23584944Y-31698503D01*
X23584944Y-31698503D02*
X23565896Y-31708027D01*
X23565896Y-31708027D02*
X23508753Y-31708027D01*
X23508753Y-31708027D02*
X23489706Y-31698503D01*
X23489706Y-31698503D02*
X23480182Y-31688979D01*
X23699229Y-31708027D02*
X23737325Y-31708027D01*
X23737325Y-31708027D02*
X23756372Y-31698503D01*
X23756372Y-31698503D02*
X23765896Y-31688979D01*
X23765896Y-31688979D02*
X23784944Y-31660408D01*
X23784944Y-31660408D02*
X23794467Y-31622313D01*
X23794467Y-31622313D02*
X23794467Y-31546122D01*
X23794467Y-31546122D02*
X23784944Y-31527075D01*
X23784944Y-31527075D02*
X23775420Y-31517551D01*
X23775420Y-31517551D02*
X23756372Y-31508027D01*
X23756372Y-31508027D02*
X23718277Y-31508027D01*
X23718277Y-31508027D02*
X23699229Y-31517551D01*
X23699229Y-31517551D02*
X23689706Y-31527075D01*
X23689706Y-31527075D02*
X23680182Y-31546122D01*
X23680182Y-31546122D02*
X23680182Y-31593741D01*
X23680182Y-31593741D02*
X23689706Y-31612789D01*
X23689706Y-31612789D02*
X23699229Y-31622313D01*
X23699229Y-31622313D02*
X23718277Y-31631837D01*
X23718277Y-31631837D02*
X23756372Y-31631837D01*
X23756372Y-31631837D02*
X23775420Y-31622313D01*
X23775420Y-31622313D02*
X23784944Y-31612789D01*
X23784944Y-31612789D02*
X23794467Y-31593741D01*
X23965896Y-31574694D02*
X23965896Y-31708027D01*
X23918277Y-31498503D02*
X23870658Y-31641360D01*
X23870658Y-31641360D02*
X23994467Y-31641360D01*
X24061134Y-31508027D02*
X24061134Y-31546122D01*
X24137325Y-31508027D02*
X24137325Y-31546122D01*
X24432563Y-31784218D02*
X24423039Y-31774694D01*
X24423039Y-31774694D02*
X24403991Y-31746122D01*
X24403991Y-31746122D02*
X24394468Y-31727075D01*
X24394468Y-31727075D02*
X24384944Y-31698503D01*
X24384944Y-31698503D02*
X24375420Y-31650884D01*
X24375420Y-31650884D02*
X24375420Y-31612789D01*
X24375420Y-31612789D02*
X24384944Y-31565170D01*
X24384944Y-31565170D02*
X24394468Y-31536599D01*
X24394468Y-31536599D02*
X24403991Y-31517551D01*
X24403991Y-31517551D02*
X24423039Y-31488979D01*
X24423039Y-31488979D02*
X24432563Y-31479456D01*
X24594468Y-31508027D02*
X24556372Y-31508027D01*
X24556372Y-31508027D02*
X24537325Y-31517551D01*
X24537325Y-31517551D02*
X24527801Y-31527075D01*
X24527801Y-31527075D02*
X24508753Y-31555646D01*
X24508753Y-31555646D02*
X24499229Y-31593741D01*
X24499229Y-31593741D02*
X24499229Y-31669932D01*
X24499229Y-31669932D02*
X24508753Y-31688979D01*
X24508753Y-31688979D02*
X24518277Y-31698503D01*
X24518277Y-31698503D02*
X24537325Y-31708027D01*
X24537325Y-31708027D02*
X24575420Y-31708027D01*
X24575420Y-31708027D02*
X24594468Y-31698503D01*
X24594468Y-31698503D02*
X24603991Y-31688979D01*
X24603991Y-31688979D02*
X24613515Y-31669932D01*
X24613515Y-31669932D02*
X24613515Y-31622313D01*
X24613515Y-31622313D02*
X24603991Y-31603265D01*
X24603991Y-31603265D02*
X24594468Y-31593741D01*
X24594468Y-31593741D02*
X24575420Y-31584218D01*
X24575420Y-31584218D02*
X24537325Y-31584218D01*
X24537325Y-31584218D02*
X24518277Y-31593741D01*
X24518277Y-31593741D02*
X24508753Y-31603265D01*
X24508753Y-31603265D02*
X24499229Y-31622313D01*
X24851610Y-31708027D02*
X24851610Y-31508027D01*
X24937325Y-31708027D02*
X24937325Y-31603265D01*
X24937325Y-31603265D02*
X24927801Y-31584218D01*
X24927801Y-31584218D02*
X24908753Y-31574694D01*
X24908753Y-31574694D02*
X24880182Y-31574694D01*
X24880182Y-31574694D02*
X24861134Y-31584218D01*
X24861134Y-31584218D02*
X24851610Y-31593741D01*
X25061134Y-31708027D02*
X25042087Y-31698503D01*
X25042087Y-31698503D02*
X25032563Y-31688979D01*
X25032563Y-31688979D02*
X25023039Y-31669932D01*
X25023039Y-31669932D02*
X25023039Y-31612789D01*
X25023039Y-31612789D02*
X25032563Y-31593741D01*
X25032563Y-31593741D02*
X25042087Y-31584218D01*
X25042087Y-31584218D02*
X25061134Y-31574694D01*
X25061134Y-31574694D02*
X25089706Y-31574694D01*
X25089706Y-31574694D02*
X25108753Y-31584218D01*
X25108753Y-31584218D02*
X25118277Y-31593741D01*
X25118277Y-31593741D02*
X25127801Y-31612789D01*
X25127801Y-31612789D02*
X25127801Y-31669932D01*
X25127801Y-31669932D02*
X25118277Y-31688979D01*
X25118277Y-31688979D02*
X25108753Y-31698503D01*
X25108753Y-31698503D02*
X25089706Y-31708027D01*
X25089706Y-31708027D02*
X25061134Y-31708027D01*
X25242087Y-31708027D02*
X25223039Y-31698503D01*
X25223039Y-31698503D02*
X25213515Y-31679456D01*
X25213515Y-31679456D02*
X25213515Y-31508027D01*
X25394468Y-31698503D02*
X25375420Y-31708027D01*
X25375420Y-31708027D02*
X25337325Y-31708027D01*
X25337325Y-31708027D02*
X25318277Y-31698503D01*
X25318277Y-31698503D02*
X25308753Y-31679456D01*
X25308753Y-31679456D02*
X25308753Y-31603265D01*
X25308753Y-31603265D02*
X25318277Y-31584218D01*
X25318277Y-31584218D02*
X25337325Y-31574694D01*
X25337325Y-31574694D02*
X25375420Y-31574694D01*
X25375420Y-31574694D02*
X25394468Y-31584218D01*
X25394468Y-31584218D02*
X25403991Y-31603265D01*
X25403991Y-31603265D02*
X25403991Y-31622313D01*
X25403991Y-31622313D02*
X25308753Y-31641360D01*
X25480182Y-31698503D02*
X25499230Y-31708027D01*
X25499230Y-31708027D02*
X25537325Y-31708027D01*
X25537325Y-31708027D02*
X25556372Y-31698503D01*
X25556372Y-31698503D02*
X25565896Y-31679456D01*
X25565896Y-31679456D02*
X25565896Y-31669932D01*
X25565896Y-31669932D02*
X25556372Y-31650884D01*
X25556372Y-31650884D02*
X25537325Y-31641360D01*
X25537325Y-31641360D02*
X25508753Y-31641360D01*
X25508753Y-31641360D02*
X25489706Y-31631837D01*
X25489706Y-31631837D02*
X25480182Y-31612789D01*
X25480182Y-31612789D02*
X25480182Y-31603265D01*
X25480182Y-31603265D02*
X25489706Y-31584218D01*
X25489706Y-31584218D02*
X25508753Y-31574694D01*
X25508753Y-31574694D02*
X25537325Y-31574694D01*
X25537325Y-31574694D02*
X25556372Y-31584218D01*
X25632563Y-31784218D02*
X25642087Y-31774694D01*
X25642087Y-31774694D02*
X25661134Y-31746122D01*
X25661134Y-31746122D02*
X25670658Y-31727075D01*
X25670658Y-31727075D02*
X25680182Y-31698503D01*
X25680182Y-31698503D02*
X25689706Y-31650884D01*
X25689706Y-31650884D02*
X25689706Y-31612789D01*
X25689706Y-31612789D02*
X25680182Y-31565170D01*
X25680182Y-31565170D02*
X25670658Y-31536599D01*
X25670658Y-31536599D02*
X25661134Y-31517551D01*
X25661134Y-31517551D02*
X25642087Y-31488979D01*
X25642087Y-31488979D02*
X25632563Y-31479456D01*
X20657500Y-31780543D02*
X20857500Y-31980543D01*
X20857500Y-31780543D02*
X20657500Y-31980543D01*
X20857500Y-31880543D02*
G75*
G02*
X20657500Y-31880543I-100000J0D01*
G01*
X20657500Y-31880543D02*
G75*
G02*
X20857500Y-31880543I100000J0D01*
G01*
X21108753Y-31791075D02*
X21118277Y-31781551D01*
X21118277Y-31781551D02*
X21137324Y-31772027D01*
X21137324Y-31772027D02*
X21184944Y-31772027D01*
X21184944Y-31772027D02*
X21203991Y-31781551D01*
X21203991Y-31781551D02*
X21213515Y-31791075D01*
X21213515Y-31791075D02*
X21223039Y-31810122D01*
X21223039Y-31810122D02*
X21223039Y-31829170D01*
X21223039Y-31829170D02*
X21213515Y-31857741D01*
X21213515Y-31857741D02*
X21099229Y-31972027D01*
X21099229Y-31972027D02*
X21223039Y-31972027D01*
X21308753Y-31952979D02*
X21318277Y-31962503D01*
X21318277Y-31962503D02*
X21308753Y-31972027D01*
X21308753Y-31972027D02*
X21299229Y-31962503D01*
X21299229Y-31962503D02*
X21308753Y-31952979D01*
X21308753Y-31952979D02*
X21308753Y-31972027D01*
X21499229Y-31772027D02*
X21403991Y-31772027D01*
X21403991Y-31772027D02*
X21394467Y-31867265D01*
X21394467Y-31867265D02*
X21403991Y-31857741D01*
X21403991Y-31857741D02*
X21423039Y-31848218D01*
X21423039Y-31848218D02*
X21470658Y-31848218D01*
X21470658Y-31848218D02*
X21489705Y-31857741D01*
X21489705Y-31857741D02*
X21499229Y-31867265D01*
X21499229Y-31867265D02*
X21508753Y-31886313D01*
X21508753Y-31886313D02*
X21508753Y-31933932D01*
X21508753Y-31933932D02*
X21499229Y-31952979D01*
X21499229Y-31952979D02*
X21489705Y-31962503D01*
X21489705Y-31962503D02*
X21470658Y-31972027D01*
X21470658Y-31972027D02*
X21423039Y-31972027D01*
X21423039Y-31972027D02*
X21403991Y-31962503D01*
X21403991Y-31962503D02*
X21394467Y-31952979D01*
X21632563Y-31772027D02*
X21651610Y-31772027D01*
X21651610Y-31772027D02*
X21670658Y-31781551D01*
X21670658Y-31781551D02*
X21680182Y-31791075D01*
X21680182Y-31791075D02*
X21689705Y-31810122D01*
X21689705Y-31810122D02*
X21699229Y-31848218D01*
X21699229Y-31848218D02*
X21699229Y-31895837D01*
X21699229Y-31895837D02*
X21689705Y-31933932D01*
X21689705Y-31933932D02*
X21680182Y-31952979D01*
X21680182Y-31952979D02*
X21670658Y-31962503D01*
X21670658Y-31962503D02*
X21651610Y-31972027D01*
X21651610Y-31972027D02*
X21632563Y-31972027D01*
X21632563Y-31972027D02*
X21613515Y-31962503D01*
X21613515Y-31962503D02*
X21603991Y-31952979D01*
X21603991Y-31952979D02*
X21594467Y-31933932D01*
X21594467Y-31933932D02*
X21584944Y-31895837D01*
X21584944Y-31895837D02*
X21584944Y-31848218D01*
X21584944Y-31848218D02*
X21594467Y-31810122D01*
X21594467Y-31810122D02*
X21603991Y-31791075D01*
X21603991Y-31791075D02*
X21613515Y-31781551D01*
X21613515Y-31781551D02*
X21632563Y-31772027D01*
X21823039Y-31772027D02*
X21842086Y-31772027D01*
X21842086Y-31772027D02*
X21861134Y-31781551D01*
X21861134Y-31781551D02*
X21870658Y-31791075D01*
X21870658Y-31791075D02*
X21880182Y-31810122D01*
X21880182Y-31810122D02*
X21889705Y-31848218D01*
X21889705Y-31848218D02*
X21889705Y-31895837D01*
X21889705Y-31895837D02*
X21880182Y-31933932D01*
X21880182Y-31933932D02*
X21870658Y-31952979D01*
X21870658Y-31952979D02*
X21861134Y-31962503D01*
X21861134Y-31962503D02*
X21842086Y-31972027D01*
X21842086Y-31972027D02*
X21823039Y-31972027D01*
X21823039Y-31972027D02*
X21803991Y-31962503D01*
X21803991Y-31962503D02*
X21794467Y-31952979D01*
X21794467Y-31952979D02*
X21784944Y-31933932D01*
X21784944Y-31933932D02*
X21775420Y-31895837D01*
X21775420Y-31895837D02*
X21775420Y-31848218D01*
X21775420Y-31848218D02*
X21784944Y-31810122D01*
X21784944Y-31810122D02*
X21794467Y-31791075D01*
X21794467Y-31791075D02*
X21803991Y-31781551D01*
X21803991Y-31781551D02*
X21823039Y-31772027D01*
X21975420Y-31972027D02*
X21975420Y-31838694D01*
X21975420Y-31857741D02*
X21984944Y-31848218D01*
X21984944Y-31848218D02*
X22003991Y-31838694D01*
X22003991Y-31838694D02*
X22032563Y-31838694D01*
X22032563Y-31838694D02*
X22051610Y-31848218D01*
X22051610Y-31848218D02*
X22061134Y-31867265D01*
X22061134Y-31867265D02*
X22061134Y-31972027D01*
X22061134Y-31867265D02*
X22070658Y-31848218D01*
X22070658Y-31848218D02*
X22089705Y-31838694D01*
X22089705Y-31838694D02*
X22118277Y-31838694D01*
X22118277Y-31838694D02*
X22137325Y-31848218D01*
X22137325Y-31848218D02*
X22146848Y-31867265D01*
X22146848Y-31867265D02*
X22146848Y-31972027D01*
X22242086Y-31972027D02*
X22242086Y-31838694D01*
X22242086Y-31857741D02*
X22251610Y-31848218D01*
X22251610Y-31848218D02*
X22270658Y-31838694D01*
X22270658Y-31838694D02*
X22299229Y-31838694D01*
X22299229Y-31838694D02*
X22318277Y-31848218D01*
X22318277Y-31848218D02*
X22327801Y-31867265D01*
X22327801Y-31867265D02*
X22327801Y-31972027D01*
X22327801Y-31867265D02*
X22337325Y-31848218D01*
X22337325Y-31848218D02*
X22356372Y-31838694D01*
X22356372Y-31838694D02*
X22384943Y-31838694D01*
X22384943Y-31838694D02*
X22403991Y-31848218D01*
X22403991Y-31848218D02*
X22413515Y-31867265D01*
X22413515Y-31867265D02*
X22413515Y-31972027D01*
X22803991Y-31762503D02*
X22632563Y-32019646D01*
X23061134Y-31772027D02*
X23080182Y-31772027D01*
X23080182Y-31772027D02*
X23099229Y-31781551D01*
X23099229Y-31781551D02*
X23108753Y-31791075D01*
X23108753Y-31791075D02*
X23118277Y-31810122D01*
X23118277Y-31810122D02*
X23127801Y-31848218D01*
X23127801Y-31848218D02*
X23127801Y-31895837D01*
X23127801Y-31895837D02*
X23118277Y-31933932D01*
X23118277Y-31933932D02*
X23108753Y-31952979D01*
X23108753Y-31952979D02*
X23099229Y-31962503D01*
X23099229Y-31962503D02*
X23080182Y-31972027D01*
X23080182Y-31972027D02*
X23061134Y-31972027D01*
X23061134Y-31972027D02*
X23042086Y-31962503D01*
X23042086Y-31962503D02*
X23032563Y-31952979D01*
X23032563Y-31952979D02*
X23023039Y-31933932D01*
X23023039Y-31933932D02*
X23013515Y-31895837D01*
X23013515Y-31895837D02*
X23013515Y-31848218D01*
X23013515Y-31848218D02*
X23023039Y-31810122D01*
X23023039Y-31810122D02*
X23032563Y-31791075D01*
X23032563Y-31791075D02*
X23042086Y-31781551D01*
X23042086Y-31781551D02*
X23061134Y-31772027D01*
X23213515Y-31952979D02*
X23223039Y-31962503D01*
X23223039Y-31962503D02*
X23213515Y-31972027D01*
X23213515Y-31972027D02*
X23203991Y-31962503D01*
X23203991Y-31962503D02*
X23213515Y-31952979D01*
X23213515Y-31952979D02*
X23213515Y-31972027D01*
X23346848Y-31772027D02*
X23365896Y-31772027D01*
X23365896Y-31772027D02*
X23384944Y-31781551D01*
X23384944Y-31781551D02*
X23394467Y-31791075D01*
X23394467Y-31791075D02*
X23403991Y-31810122D01*
X23403991Y-31810122D02*
X23413515Y-31848218D01*
X23413515Y-31848218D02*
X23413515Y-31895837D01*
X23413515Y-31895837D02*
X23403991Y-31933932D01*
X23403991Y-31933932D02*
X23394467Y-31952979D01*
X23394467Y-31952979D02*
X23384944Y-31962503D01*
X23384944Y-31962503D02*
X23365896Y-31972027D01*
X23365896Y-31972027D02*
X23346848Y-31972027D01*
X23346848Y-31972027D02*
X23327801Y-31962503D01*
X23327801Y-31962503D02*
X23318277Y-31952979D01*
X23318277Y-31952979D02*
X23308753Y-31933932D01*
X23308753Y-31933932D02*
X23299229Y-31895837D01*
X23299229Y-31895837D02*
X23299229Y-31848218D01*
X23299229Y-31848218D02*
X23308753Y-31810122D01*
X23308753Y-31810122D02*
X23318277Y-31791075D01*
X23318277Y-31791075D02*
X23327801Y-31781551D01*
X23327801Y-31781551D02*
X23346848Y-31772027D01*
X23508753Y-31972027D02*
X23546848Y-31972027D01*
X23546848Y-31972027D02*
X23565896Y-31962503D01*
X23565896Y-31962503D02*
X23575420Y-31952979D01*
X23575420Y-31952979D02*
X23594467Y-31924408D01*
X23594467Y-31924408D02*
X23603991Y-31886313D01*
X23603991Y-31886313D02*
X23603991Y-31810122D01*
X23603991Y-31810122D02*
X23594467Y-31791075D01*
X23594467Y-31791075D02*
X23584944Y-31781551D01*
X23584944Y-31781551D02*
X23565896Y-31772027D01*
X23565896Y-31772027D02*
X23527801Y-31772027D01*
X23527801Y-31772027D02*
X23508753Y-31781551D01*
X23508753Y-31781551D02*
X23499229Y-31791075D01*
X23499229Y-31791075D02*
X23489706Y-31810122D01*
X23489706Y-31810122D02*
X23489706Y-31857741D01*
X23489706Y-31857741D02*
X23499229Y-31876789D01*
X23499229Y-31876789D02*
X23508753Y-31886313D01*
X23508753Y-31886313D02*
X23527801Y-31895837D01*
X23527801Y-31895837D02*
X23565896Y-31895837D01*
X23565896Y-31895837D02*
X23584944Y-31886313D01*
X23584944Y-31886313D02*
X23594467Y-31876789D01*
X23594467Y-31876789D02*
X23603991Y-31857741D01*
X23718277Y-31857741D02*
X23699229Y-31848218D01*
X23699229Y-31848218D02*
X23689706Y-31838694D01*
X23689706Y-31838694D02*
X23680182Y-31819646D01*
X23680182Y-31819646D02*
X23680182Y-31810122D01*
X23680182Y-31810122D02*
X23689706Y-31791075D01*
X23689706Y-31791075D02*
X23699229Y-31781551D01*
X23699229Y-31781551D02*
X23718277Y-31772027D01*
X23718277Y-31772027D02*
X23756372Y-31772027D01*
X23756372Y-31772027D02*
X23775420Y-31781551D01*
X23775420Y-31781551D02*
X23784944Y-31791075D01*
X23784944Y-31791075D02*
X23794467Y-31810122D01*
X23794467Y-31810122D02*
X23794467Y-31819646D01*
X23794467Y-31819646D02*
X23784944Y-31838694D01*
X23784944Y-31838694D02*
X23775420Y-31848218D01*
X23775420Y-31848218D02*
X23756372Y-31857741D01*
X23756372Y-31857741D02*
X23718277Y-31857741D01*
X23718277Y-31857741D02*
X23699229Y-31867265D01*
X23699229Y-31867265D02*
X23689706Y-31876789D01*
X23689706Y-31876789D02*
X23680182Y-31895837D01*
X23680182Y-31895837D02*
X23680182Y-31933932D01*
X23680182Y-31933932D02*
X23689706Y-31952979D01*
X23689706Y-31952979D02*
X23699229Y-31962503D01*
X23699229Y-31962503D02*
X23718277Y-31972027D01*
X23718277Y-31972027D02*
X23756372Y-31972027D01*
X23756372Y-31972027D02*
X23775420Y-31962503D01*
X23775420Y-31962503D02*
X23784944Y-31952979D01*
X23784944Y-31952979D02*
X23794467Y-31933932D01*
X23794467Y-31933932D02*
X23794467Y-31895837D01*
X23794467Y-31895837D02*
X23784944Y-31876789D01*
X23784944Y-31876789D02*
X23775420Y-31867265D01*
X23775420Y-31867265D02*
X23756372Y-31857741D01*
X23965896Y-31838694D02*
X23965896Y-31972027D01*
X23918277Y-31762503D02*
X23870658Y-31905360D01*
X23870658Y-31905360D02*
X23994467Y-31905360D01*
X24061134Y-31772027D02*
X24061134Y-31810122D01*
X24137325Y-31772027D02*
X24137325Y-31810122D01*
X24432563Y-32048218D02*
X24423039Y-32038694D01*
X24423039Y-32038694D02*
X24403991Y-32010122D01*
X24403991Y-32010122D02*
X24394468Y-31991075D01*
X24394468Y-31991075D02*
X24384944Y-31962503D01*
X24384944Y-31962503D02*
X24375420Y-31914884D01*
X24375420Y-31914884D02*
X24375420Y-31876789D01*
X24375420Y-31876789D02*
X24384944Y-31829170D01*
X24384944Y-31829170D02*
X24394468Y-31800599D01*
X24394468Y-31800599D02*
X24403991Y-31781551D01*
X24403991Y-31781551D02*
X24423039Y-31752979D01*
X24423039Y-31752979D02*
X24432563Y-31743456D01*
X24594468Y-31772027D02*
X24556372Y-31772027D01*
X24556372Y-31772027D02*
X24537325Y-31781551D01*
X24537325Y-31781551D02*
X24527801Y-31791075D01*
X24527801Y-31791075D02*
X24508753Y-31819646D01*
X24508753Y-31819646D02*
X24499229Y-31857741D01*
X24499229Y-31857741D02*
X24499229Y-31933932D01*
X24499229Y-31933932D02*
X24508753Y-31952979D01*
X24508753Y-31952979D02*
X24518277Y-31962503D01*
X24518277Y-31962503D02*
X24537325Y-31972027D01*
X24537325Y-31972027D02*
X24575420Y-31972027D01*
X24575420Y-31972027D02*
X24594468Y-31962503D01*
X24594468Y-31962503D02*
X24603991Y-31952979D01*
X24603991Y-31952979D02*
X24613515Y-31933932D01*
X24613515Y-31933932D02*
X24613515Y-31886313D01*
X24613515Y-31886313D02*
X24603991Y-31867265D01*
X24603991Y-31867265D02*
X24594468Y-31857741D01*
X24594468Y-31857741D02*
X24575420Y-31848218D01*
X24575420Y-31848218D02*
X24537325Y-31848218D01*
X24537325Y-31848218D02*
X24518277Y-31857741D01*
X24518277Y-31857741D02*
X24508753Y-31867265D01*
X24508753Y-31867265D02*
X24499229Y-31886313D01*
X24851610Y-31972027D02*
X24851610Y-31772027D01*
X24937325Y-31972027D02*
X24937325Y-31867265D01*
X24937325Y-31867265D02*
X24927801Y-31848218D01*
X24927801Y-31848218D02*
X24908753Y-31838694D01*
X24908753Y-31838694D02*
X24880182Y-31838694D01*
X24880182Y-31838694D02*
X24861134Y-31848218D01*
X24861134Y-31848218D02*
X24851610Y-31857741D01*
X25061134Y-31972027D02*
X25042087Y-31962503D01*
X25042087Y-31962503D02*
X25032563Y-31952979D01*
X25032563Y-31952979D02*
X25023039Y-31933932D01*
X25023039Y-31933932D02*
X25023039Y-31876789D01*
X25023039Y-31876789D02*
X25032563Y-31857741D01*
X25032563Y-31857741D02*
X25042087Y-31848218D01*
X25042087Y-31848218D02*
X25061134Y-31838694D01*
X25061134Y-31838694D02*
X25089706Y-31838694D01*
X25089706Y-31838694D02*
X25108753Y-31848218D01*
X25108753Y-31848218D02*
X25118277Y-31857741D01*
X25118277Y-31857741D02*
X25127801Y-31876789D01*
X25127801Y-31876789D02*
X25127801Y-31933932D01*
X25127801Y-31933932D02*
X25118277Y-31952979D01*
X25118277Y-31952979D02*
X25108753Y-31962503D01*
X25108753Y-31962503D02*
X25089706Y-31972027D01*
X25089706Y-31972027D02*
X25061134Y-31972027D01*
X25242087Y-31972027D02*
X25223039Y-31962503D01*
X25223039Y-31962503D02*
X25213515Y-31943456D01*
X25213515Y-31943456D02*
X25213515Y-31772027D01*
X25394468Y-31962503D02*
X25375420Y-31972027D01*
X25375420Y-31972027D02*
X25337325Y-31972027D01*
X25337325Y-31972027D02*
X25318277Y-31962503D01*
X25318277Y-31962503D02*
X25308753Y-31943456D01*
X25308753Y-31943456D02*
X25308753Y-31867265D01*
X25308753Y-31867265D02*
X25318277Y-31848218D01*
X25318277Y-31848218D02*
X25337325Y-31838694D01*
X25337325Y-31838694D02*
X25375420Y-31838694D01*
X25375420Y-31838694D02*
X25394468Y-31848218D01*
X25394468Y-31848218D02*
X25403991Y-31867265D01*
X25403991Y-31867265D02*
X25403991Y-31886313D01*
X25403991Y-31886313D02*
X25308753Y-31905360D01*
X25480182Y-31962503D02*
X25499230Y-31972027D01*
X25499230Y-31972027D02*
X25537325Y-31972027D01*
X25537325Y-31972027D02*
X25556372Y-31962503D01*
X25556372Y-31962503D02*
X25565896Y-31943456D01*
X25565896Y-31943456D02*
X25565896Y-31933932D01*
X25565896Y-31933932D02*
X25556372Y-31914884D01*
X25556372Y-31914884D02*
X25537325Y-31905360D01*
X25537325Y-31905360D02*
X25508753Y-31905360D01*
X25508753Y-31905360D02*
X25489706Y-31895837D01*
X25489706Y-31895837D02*
X25480182Y-31876789D01*
X25480182Y-31876789D02*
X25480182Y-31867265D01*
X25480182Y-31867265D02*
X25489706Y-31848218D01*
X25489706Y-31848218D02*
X25508753Y-31838694D01*
X25508753Y-31838694D02*
X25537325Y-31838694D01*
X25537325Y-31838694D02*
X25556372Y-31848218D01*
X25632563Y-32048218D02*
X25642087Y-32038694D01*
X25642087Y-32038694D02*
X25661134Y-32010122D01*
X25661134Y-32010122D02*
X25670658Y-31991075D01*
X25670658Y-31991075D02*
X25680182Y-31962503D01*
X25680182Y-31962503D02*
X25689706Y-31914884D01*
X25689706Y-31914884D02*
X25689706Y-31876789D01*
X25689706Y-31876789D02*
X25680182Y-31829170D01*
X25680182Y-31829170D02*
X25670658Y-31800599D01*
X25670658Y-31800599D02*
X25661134Y-31781551D01*
X25661134Y-31781551D02*
X25642087Y-31752979D01*
X25642087Y-31752979D02*
X25632563Y-31743456D01*
X20657500Y-32100543D02*
X20857500Y-32300543D01*
X20857500Y-32100543D02*
X20657500Y-32300543D01*
X20757500Y-32100543D02*
X20757500Y-32300543D01*
X20657500Y-32200543D02*
X20857500Y-32200543D01*
X21203991Y-32158694D02*
X21203991Y-32292027D01*
X21156372Y-32082503D02*
X21108753Y-32225360D01*
X21108753Y-32225360D02*
X21232563Y-32225360D01*
X21308753Y-32272979D02*
X21318277Y-32282503D01*
X21318277Y-32282503D02*
X21308753Y-32292027D01*
X21308753Y-32292027D02*
X21299229Y-32282503D01*
X21299229Y-32282503D02*
X21308753Y-32272979D01*
X21308753Y-32272979D02*
X21308753Y-32292027D01*
X21499229Y-32092027D02*
X21403991Y-32092027D01*
X21403991Y-32092027D02*
X21394467Y-32187265D01*
X21394467Y-32187265D02*
X21403991Y-32177741D01*
X21403991Y-32177741D02*
X21423039Y-32168218D01*
X21423039Y-32168218D02*
X21470658Y-32168218D01*
X21470658Y-32168218D02*
X21489705Y-32177741D01*
X21489705Y-32177741D02*
X21499229Y-32187265D01*
X21499229Y-32187265D02*
X21508753Y-32206313D01*
X21508753Y-32206313D02*
X21508753Y-32253932D01*
X21508753Y-32253932D02*
X21499229Y-32272979D01*
X21499229Y-32272979D02*
X21489705Y-32282503D01*
X21489705Y-32282503D02*
X21470658Y-32292027D01*
X21470658Y-32292027D02*
X21423039Y-32292027D01*
X21423039Y-32292027D02*
X21403991Y-32282503D01*
X21403991Y-32282503D02*
X21394467Y-32272979D01*
X21632563Y-32092027D02*
X21651610Y-32092027D01*
X21651610Y-32092027D02*
X21670658Y-32101551D01*
X21670658Y-32101551D02*
X21680182Y-32111075D01*
X21680182Y-32111075D02*
X21689705Y-32130122D01*
X21689705Y-32130122D02*
X21699229Y-32168218D01*
X21699229Y-32168218D02*
X21699229Y-32215837D01*
X21699229Y-32215837D02*
X21689705Y-32253932D01*
X21689705Y-32253932D02*
X21680182Y-32272979D01*
X21680182Y-32272979D02*
X21670658Y-32282503D01*
X21670658Y-32282503D02*
X21651610Y-32292027D01*
X21651610Y-32292027D02*
X21632563Y-32292027D01*
X21632563Y-32292027D02*
X21613515Y-32282503D01*
X21613515Y-32282503D02*
X21603991Y-32272979D01*
X21603991Y-32272979D02*
X21594467Y-32253932D01*
X21594467Y-32253932D02*
X21584944Y-32215837D01*
X21584944Y-32215837D02*
X21584944Y-32168218D01*
X21584944Y-32168218D02*
X21594467Y-32130122D01*
X21594467Y-32130122D02*
X21603991Y-32111075D01*
X21603991Y-32111075D02*
X21613515Y-32101551D01*
X21613515Y-32101551D02*
X21632563Y-32092027D01*
X21823039Y-32092027D02*
X21842086Y-32092027D01*
X21842086Y-32092027D02*
X21861134Y-32101551D01*
X21861134Y-32101551D02*
X21870658Y-32111075D01*
X21870658Y-32111075D02*
X21880182Y-32130122D01*
X21880182Y-32130122D02*
X21889705Y-32168218D01*
X21889705Y-32168218D02*
X21889705Y-32215837D01*
X21889705Y-32215837D02*
X21880182Y-32253932D01*
X21880182Y-32253932D02*
X21870658Y-32272979D01*
X21870658Y-32272979D02*
X21861134Y-32282503D01*
X21861134Y-32282503D02*
X21842086Y-32292027D01*
X21842086Y-32292027D02*
X21823039Y-32292027D01*
X21823039Y-32292027D02*
X21803991Y-32282503D01*
X21803991Y-32282503D02*
X21794467Y-32272979D01*
X21794467Y-32272979D02*
X21784944Y-32253932D01*
X21784944Y-32253932D02*
X21775420Y-32215837D01*
X21775420Y-32215837D02*
X21775420Y-32168218D01*
X21775420Y-32168218D02*
X21784944Y-32130122D01*
X21784944Y-32130122D02*
X21794467Y-32111075D01*
X21794467Y-32111075D02*
X21803991Y-32101551D01*
X21803991Y-32101551D02*
X21823039Y-32092027D01*
X21975420Y-32292027D02*
X21975420Y-32158694D01*
X21975420Y-32177741D02*
X21984944Y-32168218D01*
X21984944Y-32168218D02*
X22003991Y-32158694D01*
X22003991Y-32158694D02*
X22032563Y-32158694D01*
X22032563Y-32158694D02*
X22051610Y-32168218D01*
X22051610Y-32168218D02*
X22061134Y-32187265D01*
X22061134Y-32187265D02*
X22061134Y-32292027D01*
X22061134Y-32187265D02*
X22070658Y-32168218D01*
X22070658Y-32168218D02*
X22089705Y-32158694D01*
X22089705Y-32158694D02*
X22118277Y-32158694D01*
X22118277Y-32158694D02*
X22137325Y-32168218D01*
X22137325Y-32168218D02*
X22146848Y-32187265D01*
X22146848Y-32187265D02*
X22146848Y-32292027D01*
X22242086Y-32292027D02*
X22242086Y-32158694D01*
X22242086Y-32177741D02*
X22251610Y-32168218D01*
X22251610Y-32168218D02*
X22270658Y-32158694D01*
X22270658Y-32158694D02*
X22299229Y-32158694D01*
X22299229Y-32158694D02*
X22318277Y-32168218D01*
X22318277Y-32168218D02*
X22327801Y-32187265D01*
X22327801Y-32187265D02*
X22327801Y-32292027D01*
X22327801Y-32187265D02*
X22337325Y-32168218D01*
X22337325Y-32168218D02*
X22356372Y-32158694D01*
X22356372Y-32158694D02*
X22384943Y-32158694D01*
X22384943Y-32158694D02*
X22403991Y-32168218D01*
X22403991Y-32168218D02*
X22413515Y-32187265D01*
X22413515Y-32187265D02*
X22413515Y-32292027D01*
X22803991Y-32082503D02*
X22632563Y-32339646D01*
X23061134Y-32092027D02*
X23080182Y-32092027D01*
X23080182Y-32092027D02*
X23099229Y-32101551D01*
X23099229Y-32101551D02*
X23108753Y-32111075D01*
X23108753Y-32111075D02*
X23118277Y-32130122D01*
X23118277Y-32130122D02*
X23127801Y-32168218D01*
X23127801Y-32168218D02*
X23127801Y-32215837D01*
X23127801Y-32215837D02*
X23118277Y-32253932D01*
X23118277Y-32253932D02*
X23108753Y-32272979D01*
X23108753Y-32272979D02*
X23099229Y-32282503D01*
X23099229Y-32282503D02*
X23080182Y-32292027D01*
X23080182Y-32292027D02*
X23061134Y-32292027D01*
X23061134Y-32292027D02*
X23042086Y-32282503D01*
X23042086Y-32282503D02*
X23032563Y-32272979D01*
X23032563Y-32272979D02*
X23023039Y-32253932D01*
X23023039Y-32253932D02*
X23013515Y-32215837D01*
X23013515Y-32215837D02*
X23013515Y-32168218D01*
X23013515Y-32168218D02*
X23023039Y-32130122D01*
X23023039Y-32130122D02*
X23032563Y-32111075D01*
X23032563Y-32111075D02*
X23042086Y-32101551D01*
X23042086Y-32101551D02*
X23061134Y-32092027D01*
X23213515Y-32272979D02*
X23223039Y-32282503D01*
X23223039Y-32282503D02*
X23213515Y-32292027D01*
X23213515Y-32292027D02*
X23203991Y-32282503D01*
X23203991Y-32282503D02*
X23213515Y-32272979D01*
X23213515Y-32272979D02*
X23213515Y-32292027D01*
X23413515Y-32292027D02*
X23299229Y-32292027D01*
X23356372Y-32292027D02*
X23356372Y-32092027D01*
X23356372Y-32092027D02*
X23337325Y-32120599D01*
X23337325Y-32120599D02*
X23318277Y-32139646D01*
X23318277Y-32139646D02*
X23299229Y-32149170D01*
X23480182Y-32092027D02*
X23613515Y-32092027D01*
X23613515Y-32092027D02*
X23527801Y-32292027D01*
X23670658Y-32092027D02*
X23803991Y-32092027D01*
X23803991Y-32092027D02*
X23718277Y-32292027D01*
X23870658Y-32111075D02*
X23880182Y-32101551D01*
X23880182Y-32101551D02*
X23899229Y-32092027D01*
X23899229Y-32092027D02*
X23946848Y-32092027D01*
X23946848Y-32092027D02*
X23965896Y-32101551D01*
X23965896Y-32101551D02*
X23975420Y-32111075D01*
X23975420Y-32111075D02*
X23984944Y-32130122D01*
X23984944Y-32130122D02*
X23984944Y-32149170D01*
X23984944Y-32149170D02*
X23975420Y-32177741D01*
X23975420Y-32177741D02*
X23861134Y-32292027D01*
X23861134Y-32292027D02*
X23984944Y-32292027D01*
X24061134Y-32092027D02*
X24061134Y-32130122D01*
X24137325Y-32092027D02*
X24137325Y-32130122D01*
X24432563Y-32368218D02*
X24423039Y-32358694D01*
X24423039Y-32358694D02*
X24403991Y-32330122D01*
X24403991Y-32330122D02*
X24394468Y-32311075D01*
X24394468Y-32311075D02*
X24384944Y-32282503D01*
X24384944Y-32282503D02*
X24375420Y-32234884D01*
X24375420Y-32234884D02*
X24375420Y-32196789D01*
X24375420Y-32196789D02*
X24384944Y-32149170D01*
X24384944Y-32149170D02*
X24394468Y-32120599D01*
X24394468Y-32120599D02*
X24403991Y-32101551D01*
X24403991Y-32101551D02*
X24423039Y-32072979D01*
X24423039Y-32072979D02*
X24432563Y-32063456D01*
X24594468Y-32092027D02*
X24556372Y-32092027D01*
X24556372Y-32092027D02*
X24537325Y-32101551D01*
X24537325Y-32101551D02*
X24527801Y-32111075D01*
X24527801Y-32111075D02*
X24508753Y-32139646D01*
X24508753Y-32139646D02*
X24499229Y-32177741D01*
X24499229Y-32177741D02*
X24499229Y-32253932D01*
X24499229Y-32253932D02*
X24508753Y-32272979D01*
X24508753Y-32272979D02*
X24518277Y-32282503D01*
X24518277Y-32282503D02*
X24537325Y-32292027D01*
X24537325Y-32292027D02*
X24575420Y-32292027D01*
X24575420Y-32292027D02*
X24594468Y-32282503D01*
X24594468Y-32282503D02*
X24603991Y-32272979D01*
X24603991Y-32272979D02*
X24613515Y-32253932D01*
X24613515Y-32253932D02*
X24613515Y-32206313D01*
X24613515Y-32206313D02*
X24603991Y-32187265D01*
X24603991Y-32187265D02*
X24594468Y-32177741D01*
X24594468Y-32177741D02*
X24575420Y-32168218D01*
X24575420Y-32168218D02*
X24537325Y-32168218D01*
X24537325Y-32168218D02*
X24518277Y-32177741D01*
X24518277Y-32177741D02*
X24508753Y-32187265D01*
X24508753Y-32187265D02*
X24499229Y-32206313D01*
X24851610Y-32292027D02*
X24851610Y-32092027D01*
X24937325Y-32292027D02*
X24937325Y-32187265D01*
X24937325Y-32187265D02*
X24927801Y-32168218D01*
X24927801Y-32168218D02*
X24908753Y-32158694D01*
X24908753Y-32158694D02*
X24880182Y-32158694D01*
X24880182Y-32158694D02*
X24861134Y-32168218D01*
X24861134Y-32168218D02*
X24851610Y-32177741D01*
X25061134Y-32292027D02*
X25042087Y-32282503D01*
X25042087Y-32282503D02*
X25032563Y-32272979D01*
X25032563Y-32272979D02*
X25023039Y-32253932D01*
X25023039Y-32253932D02*
X25023039Y-32196789D01*
X25023039Y-32196789D02*
X25032563Y-32177741D01*
X25032563Y-32177741D02*
X25042087Y-32168218D01*
X25042087Y-32168218D02*
X25061134Y-32158694D01*
X25061134Y-32158694D02*
X25089706Y-32158694D01*
X25089706Y-32158694D02*
X25108753Y-32168218D01*
X25108753Y-32168218D02*
X25118277Y-32177741D01*
X25118277Y-32177741D02*
X25127801Y-32196789D01*
X25127801Y-32196789D02*
X25127801Y-32253932D01*
X25127801Y-32253932D02*
X25118277Y-32272979D01*
X25118277Y-32272979D02*
X25108753Y-32282503D01*
X25108753Y-32282503D02*
X25089706Y-32292027D01*
X25089706Y-32292027D02*
X25061134Y-32292027D01*
X25242087Y-32292027D02*
X25223039Y-32282503D01*
X25223039Y-32282503D02*
X25213515Y-32263456D01*
X25213515Y-32263456D02*
X25213515Y-32092027D01*
X25394468Y-32282503D02*
X25375420Y-32292027D01*
X25375420Y-32292027D02*
X25337325Y-32292027D01*
X25337325Y-32292027D02*
X25318277Y-32282503D01*
X25318277Y-32282503D02*
X25308753Y-32263456D01*
X25308753Y-32263456D02*
X25308753Y-32187265D01*
X25308753Y-32187265D02*
X25318277Y-32168218D01*
X25318277Y-32168218D02*
X25337325Y-32158694D01*
X25337325Y-32158694D02*
X25375420Y-32158694D01*
X25375420Y-32158694D02*
X25394468Y-32168218D01*
X25394468Y-32168218D02*
X25403991Y-32187265D01*
X25403991Y-32187265D02*
X25403991Y-32206313D01*
X25403991Y-32206313D02*
X25308753Y-32225360D01*
X25480182Y-32282503D02*
X25499230Y-32292027D01*
X25499230Y-32292027D02*
X25537325Y-32292027D01*
X25537325Y-32292027D02*
X25556372Y-32282503D01*
X25556372Y-32282503D02*
X25565896Y-32263456D01*
X25565896Y-32263456D02*
X25565896Y-32253932D01*
X25565896Y-32253932D02*
X25556372Y-32234884D01*
X25556372Y-32234884D02*
X25537325Y-32225360D01*
X25537325Y-32225360D02*
X25508753Y-32225360D01*
X25508753Y-32225360D02*
X25489706Y-32215837D01*
X25489706Y-32215837D02*
X25480182Y-32196789D01*
X25480182Y-32196789D02*
X25480182Y-32187265D01*
X25480182Y-32187265D02*
X25489706Y-32168218D01*
X25489706Y-32168218D02*
X25508753Y-32158694D01*
X25508753Y-32158694D02*
X25537325Y-32158694D01*
X25537325Y-32158694D02*
X25556372Y-32168218D01*
X25632563Y-32368218D02*
X25642087Y-32358694D01*
X25642087Y-32358694D02*
X25661134Y-32330122D01*
X25661134Y-32330122D02*
X25670658Y-32311075D01*
X25670658Y-32311075D02*
X25680182Y-32282503D01*
X25680182Y-32282503D02*
X25689706Y-32234884D01*
X25689706Y-32234884D02*
X25689706Y-32196789D01*
X25689706Y-32196789D02*
X25680182Y-32149170D01*
X25680182Y-32149170D02*
X25670658Y-32120599D01*
X25670658Y-32120599D02*
X25661134Y-32101551D01*
X25661134Y-32101551D02*
X25642087Y-32072979D01*
X25642087Y-32072979D02*
X25632563Y-32063456D01*
M02*
