%TF.GenerationSoftware,KiCad,Pcbnew,10.0.1*%
%TF.CreationDate,2026-05-27T22:48:48-07:00*%
%TF.ProjectId,eye-of-terror,6579652d-6f66-42d7-9465-72726f722e6b,rev?*%
%TF.SameCoordinates,Original*%
%TF.FileFunction,Soldermask,Bot*%
%TF.FilePolarity,Negative*%
%FSLAX46Y46*%
G04 Gerber Fmt 4.6, Leading zero omitted, Abs format (unit mm)*
G04 Created by KiCad (PCBNEW 10.0.1) date 2026-05-27 22:48:48*
%MOMM*%
%LPD*%
G01*
G04 APERTURE LIST*
G04 Aperture macros list*
%AMRoundRect*
0 Rectangle with rounded corners*
0 $1 Rounding radius*
0 $2 $3 $4 $5 $6 $7 $8 $9 X,Y pos of 4 corners*
0 Add a 4 corners polygon primitive as box body*
4,1,4,$2,$3,$4,$5,$6,$7,$8,$9,$2,$3,0*
0 Add four circle primitives for the rounded corners*
1,1,$1+$1,$2,$3*
1,1,$1+$1,$4,$5*
1,1,$1+$1,$6,$7*
1,1,$1+$1,$8,$9*
0 Add four rect primitives between the rounded corners*
20,1,$1+$1,$2,$3,$4,$5,0*
20,1,$1+$1,$4,$5,$6,$7,0*
20,1,$1+$1,$6,$7,$8,$9,0*
20,1,$1+$1,$8,$9,$2,$3,0*%
%AMFreePoly0*
4,1,23,0.500000,-0.750000,0.000000,-0.750000,0.000000,-0.745722,-0.065263,-0.745722,-0.191342,-0.711940,-0.304381,-0.646677,-0.396677,-0.554381,-0.461940,-0.441342,-0.495722,-0.315263,-0.495722,-0.250000,-0.500000,-0.250000,-0.500000,0.250000,-0.495722,0.250000,-0.495722,0.315263,-0.461940,0.441342,-0.396677,0.554381,-0.304381,0.646677,-0.191342,0.711940,-0.065263,0.745722,0.000000,0.745722,
0.000000,0.750000,0.500000,0.750000,0.500000,-0.750000,0.500000,-0.750000,$1*%
%AMFreePoly1*
4,1,23,0.000000,0.745722,0.065263,0.745722,0.191342,0.711940,0.304381,0.646677,0.396677,0.554381,0.461940,0.441342,0.495722,0.315263,0.495722,0.250000,0.500000,0.250000,0.500000,-0.250000,0.495722,-0.250000,0.495722,-0.315263,0.461940,-0.441342,0.396677,-0.554381,0.304381,-0.646677,0.191342,-0.711940,0.065263,-0.745722,0.000000,-0.745722,0.000000,-0.750000,-0.500000,-0.750000,
-0.500000,0.750000,0.000000,0.750000,0.000000,0.745722,0.000000,0.745722,$1*%
G04 Aperture macros list end*
%ADD10C,3.200000*%
%ADD11C,0.600000*%
%ADD12C,0.650000*%
%ADD13C,1.100000*%
%ADD14C,0.508000*%
%ADD15C,5.000000*%
%ADD16RoundRect,1.500000X-1.500000X-1.500000X1.500000X-1.500000X1.500000X1.500000X-1.500000X1.500000X0*%
%ADD17C,6.000000*%
%ADD18R,1.700000X1.700000*%
%ADD19C,1.700000*%
%ADD20RoundRect,1.500000X1.500000X-1.500000X1.500000X1.500000X-1.500000X1.500000X-1.500000X-1.500000X0*%
%ADD21RoundRect,1.500000X1.500000X1.500000X-1.500000X1.500000X-1.500000X-1.500000X1.500000X-1.500000X0*%
%ADD22RoundRect,0.155000X-0.212500X-0.155000X0.212500X-0.155000X0.212500X0.155000X-0.212500X0.155000X0*%
%ADD23RoundRect,0.160000X0.197500X0.160000X-0.197500X0.160000X-0.197500X-0.160000X0.197500X-0.160000X0*%
%ADD24FreePoly0,270.000000*%
%ADD25FreePoly1,270.000000*%
%ADD26RoundRect,0.160000X-0.197500X-0.160000X0.197500X-0.160000X0.197500X0.160000X-0.197500X0.160000X0*%
%ADD27RoundRect,0.155000X-0.040659X-0.259862X0.259862X0.040659X0.040659X0.259862X-0.259862X-0.040659X0*%
%ADD28RoundRect,0.155000X0.040659X0.259862X-0.259862X-0.040659X-0.040659X-0.259862X0.259862X0.040659X0*%
%ADD29RoundRect,0.155000X0.259862X-0.040659X-0.040659X0.259862X-0.259862X0.040659X0.040659X-0.259862X0*%
%ADD30RoundRect,0.160000X0.252791X-0.026517X-0.026517X0.252791X-0.252791X0.026517X0.026517X-0.252791X0*%
%ADD31RoundRect,0.237500X0.044194X0.380070X-0.380070X-0.044194X-0.044194X-0.380070X0.380070X0.044194X0*%
%ADD32FreePoly0,90.000000*%
%ADD33FreePoly1,90.000000*%
%ADD34RoundRect,0.155000X-0.259862X0.040659X0.040659X-0.259862X0.259862X-0.040659X-0.040659X0.259862X0*%
%ADD35RoundRect,0.160000X-0.252791X0.026517X0.026517X-0.252791X0.252791X-0.026517X-0.026517X0.252791X0*%
%ADD36FreePoly0,0.000000*%
%ADD37FreePoly1,0.000000*%
%ADD38RoundRect,0.250001X0.462499X0.624999X-0.462499X0.624999X-0.462499X-0.624999X0.462499X-0.624999X0*%
%ADD39C,2.500000*%
%ADD40RoundRect,0.237500X-0.380070X0.044194X0.044194X-0.380070X0.380070X-0.044194X-0.044194X0.380070X0*%
%ADD41RoundRect,0.250001X-0.462499X-0.624999X0.462499X-0.624999X0.462499X0.624999X-0.462499X0.624999X0*%
%ADD42RoundRect,0.237500X0.124728X0.351434X-0.368660X0.056147X-0.124728X-0.351434X0.368660X-0.056147X0*%
%ADD43R,0.850000X0.850000*%
%ADD44C,0.850000*%
%ADD45RoundRect,0.250000X1.343503X-0.070711X-0.070711X1.343503X-1.343503X0.070711X0.070711X-1.343503X0*%
%ADD46RoundRect,0.087499X0.387501X0.087499X-0.387501X0.087499X-0.387501X-0.087499X0.387501X-0.087499X0*%
%ADD47RoundRect,0.087500X0.387500X0.087500X-0.387500X0.087500X-0.387500X-0.087500X0.387500X-0.087500X0*%
%ADD48RoundRect,0.087500X0.087499X0.362500X-0.087499X0.362500X-0.087499X-0.362500X0.087499X-0.362500X0*%
%ADD49RoundRect,0.087500X0.087500X0.362500X-0.087500X0.362500X-0.087500X-0.362500X0.087500X-0.362500X0*%
%ADD50RoundRect,0.087500X0.087499X0.362500X-0.087499X0.362500X-0.087499X-0.362500X0.087499X-0.362500X0*%
%ADD51RoundRect,0.087499X0.087499X0.362501X-0.087499X0.362501X-0.087499X-0.362501X0.087499X-0.362501X0*%
%ADD52RoundRect,0.237500X-0.044194X-0.380070X0.380070X0.044194X0.044194X0.380070X-0.380070X-0.044194X0*%
%ADD53RoundRect,0.525400X-0.525400X0.900400X-0.525400X-0.900400X0.525400X-0.900400X0.525400X0.900400X0*%
%ADD54RoundRect,0.250000X-0.400000X-1.075000X0.400000X-1.075000X0.400000X1.075000X-0.400000X1.075000X0*%
%ADD55RoundRect,0.237500X0.250000X0.237500X-0.250000X0.237500X-0.250000X-0.237500X0.250000X-0.237500X0*%
%ADD56RoundRect,0.180600X0.212132X0.808082X-0.808082X-0.212132X-0.212132X-0.808082X0.808082X0.212132X0*%
G04 APERTURE END LIST*
%TO.C,JP4*%
G36*
X258850000Y-200850000D02*
G01*
X260350000Y-200850000D01*
X260350000Y-201150000D01*
X258850000Y-201150000D01*
X258850000Y-200850000D01*
G37*
%TO.C,JP1*%
G36*
X267150000Y-194862500D02*
G01*
X268650000Y-194862500D01*
X268650000Y-195162500D01*
X267150000Y-195162500D01*
X267150000Y-194862500D01*
G37*
%TO.C,JP15*%
G36*
X314937500Y-128750000D02*
G01*
X315237500Y-128750000D01*
X315237500Y-130250000D01*
X314937500Y-130250000D01*
X314937500Y-128750000D01*
G37*
%TO.C,JP11*%
G36*
X298050000Y-129350000D02*
G01*
X298350000Y-129350000D01*
X298350000Y-130850000D01*
X298050000Y-130850000D01*
X298050000Y-129350000D01*
G37*
%TO.C,JP12*%
G36*
X306000000Y-115250000D02*
G01*
X306300000Y-115250000D01*
X306300000Y-116750000D01*
X306000000Y-116750000D01*
X306000000Y-115250000D01*
G37*
%TO.C,JP2*%
G36*
X264550000Y-185162500D02*
G01*
X266050000Y-185162500D01*
X266050000Y-185462500D01*
X264550000Y-185462500D01*
X264550000Y-185162500D01*
G37*
%TO.C,JP14*%
G36*
X314987500Y-124550000D02*
G01*
X315287500Y-124550000D01*
X315287500Y-126050000D01*
X314987500Y-126050000D01*
X314987500Y-124550000D01*
G37*
%TO.C,JP17*%
G36*
X363150000Y-214350000D02*
G01*
X363450000Y-214350000D01*
X363450000Y-215850000D01*
X363150000Y-215850000D01*
X363150000Y-214350000D01*
G37*
%TO.C,JP5*%
G36*
X266950000Y-200862500D02*
G01*
X268450000Y-200862500D01*
X268450000Y-201162500D01*
X266950000Y-201162500D01*
X266950000Y-200862500D01*
G37*
%TO.C,JP7*%
G36*
X261750000Y-200812500D02*
G01*
X263250000Y-200812500D01*
X263250000Y-201112500D01*
X261750000Y-201112500D01*
X261750000Y-200812500D01*
G37*
%TO.C,JP13*%
G36*
X306000000Y-119450000D02*
G01*
X306300000Y-119450000D01*
X306300000Y-120950000D01*
X306000000Y-120950000D01*
X306000000Y-119450000D01*
G37*
%TO.C,JP9*%
G36*
X264550000Y-194862500D02*
G01*
X266050000Y-194862500D01*
X266050000Y-195162500D01*
X264550000Y-195162500D01*
X264550000Y-194862500D01*
G37*
%TO.C,JP10*%
G36*
X298050000Y-125150000D02*
G01*
X298350000Y-125150000D01*
X298350000Y-126650000D01*
X298050000Y-126650000D01*
X298050000Y-125150000D01*
G37*
%TO.C,JP6*%
G36*
X264350000Y-200900000D02*
G01*
X265850000Y-200900000D01*
X265850000Y-201200000D01*
X264350000Y-201200000D01*
X264350000Y-200900000D01*
G37*
%TO.C,JP3*%
G36*
X267250000Y-185162500D02*
G01*
X268750000Y-185162500D01*
X268750000Y-185462500D01*
X267250000Y-185462500D01*
X267250000Y-185162500D01*
G37*
%TD*%
D10*
%TO.C,H28*%
X300408777Y-106026767D03*
%TD*%
%TO.C,H27*%
X385141228Y-252787678D03*
%TD*%
%TO.C,H46*%
X328205183Y-107716999D03*
%TD*%
%TO.C,H33*%
X400873867Y-183858485D03*
%TD*%
%TO.C,H42*%
X340200000Y-144520834D03*
%TD*%
D11*
%TO.C,U7*%
X285482287Y-152483004D03*
X284513550Y-153451741D03*
X286917713Y-152483004D03*
X284513550Y-154887167D03*
X286200000Y-153200718D03*
X285231264Y-154169454D03*
X287168736Y-154169454D03*
X286200000Y-155138190D03*
X287886450Y-153451741D03*
X285482287Y-155855904D03*
X287886450Y-154887167D03*
X286917713Y-155855904D03*
%TD*%
D12*
%TO.C,J2*%
X331631926Y-151010713D03*
D13*
X329156974Y-151576476D03*
X332197534Y-148535917D03*
X325762862Y-148182364D03*
X328803421Y-145141804D03*
D14*
X326328625Y-145707412D03*
%TD*%
D10*
%TO.C,H47*%
X245700000Y-199080434D03*
%TD*%
%TO.C,H16*%
X260855393Y-279321464D03*
%TD*%
%TO.C,H20*%
X303029688Y-292330511D03*
%TD*%
D15*
%TO.C,TP5*%
X238700000Y-207700000D03*
%TD*%
D10*
%TO.C,H14*%
X239329536Y-261654135D03*
%TD*%
%TO.C,H53*%
X371700000Y-199080434D03*
%TD*%
%TO.C,H26*%
X378070464Y-261654135D03*
%TD*%
%TO.C,H7*%
X216526133Y-183858485D03*
%TD*%
%TO.C,H17*%
X275795661Y-286516318D03*
%TD*%
D11*
%TO.C,U1*%
X313669670Y-149657538D03*
X312962563Y-150364645D03*
X312255456Y-151071752D03*
X314306066Y-150293934D03*
X313598959Y-151001041D03*
X312891852Y-151708148D03*
X314200000Y-151602082D03*
X313492893Y-152309189D03*
X315083883Y-151071752D03*
%TD*%
D10*
%TO.C,H1*%
X263131533Y-117525274D03*
%TD*%
%TO.C,H30*%
X397575647Y-227870168D03*
%TD*%
D15*
%TO.C,TP9*%
X230700000Y-220000000D03*
%TD*%
D10*
%TO.C,H51*%
X340200000Y-253640034D03*
%TD*%
%TO.C,H29*%
X393432451Y-238426858D03*
%TD*%
D16*
%TO.C,J1*%
X295200000Y-246800000D03*
D17*
X302400000Y-246800000D03*
%TD*%
D10*
%TO.C,H15*%
X251485329Y-272933063D03*
%TD*%
%TO.C,H24*%
X356544607Y-279321464D03*
%TD*%
%TO.C,H45*%
X254140400Y-167580434D03*
%TD*%
%TO.C,H19*%
X289194817Y-107716999D03*
%TD*%
D15*
%TO.C,TP6*%
X230700000Y-196500000D03*
%TD*%
D18*
%TO.C,J8*%
X331300000Y-123860000D03*
D19*
X331300000Y-126400000D03*
X331300000Y-128940000D03*
%TD*%
D10*
%TO.C,H38*%
X376282794Y-134580082D03*
%TD*%
%TO.C,H48*%
X254140400Y-230580434D03*
%TD*%
%TO.C,H49*%
X277200000Y-253640034D03*
%TD*%
%TO.C,H5*%
X225107908Y-157366030D03*
%TD*%
%TO.C,H37*%
X316991223Y-106026767D03*
%TD*%
%TO.C,H2*%
X249430473Y-126866498D03*
%TD*%
%TO.C,H18*%
X286632453Y-289859026D03*
%TD*%
%TO.C,H43*%
X308700000Y-136080434D03*
%TD*%
%TO.C,H22*%
X330767547Y-289859026D03*
%TD*%
%TO.C,H32*%
X402113074Y-200394564D03*
%TD*%
%TO.C,H21*%
X314370312Y-292330511D03*
%TD*%
%TO.C,H31*%
X401265588Y-211703478D03*
%TD*%
%TO.C,H23*%
X341604339Y-286516318D03*
%TD*%
%TO.C,H6*%
X219049660Y-172802194D03*
%TD*%
%TO.C,H8*%
X215286926Y-200394564D03*
%TD*%
%TO.C,H41*%
X344050917Y-112604761D03*
%TD*%
%TO.C,H10*%
X273349083Y-112604761D03*
%TD*%
%TO.C,H35*%
X392292092Y-157366030D03*
%TD*%
%TO.C,H4*%
X230778220Y-147544761D03*
%TD*%
%TO.C,H25*%
X365914671Y-272933063D03*
%TD*%
D15*
%TO.C,TP7*%
X230700000Y-189500000D03*
%TD*%
D20*
%TO.C,J6*%
X353500000Y-227400000D03*
D17*
X353500000Y-220200000D03*
%TD*%
D15*
%TO.C,TP4*%
X238700000Y-200200000D03*
%TD*%
D10*
%TO.C,H52*%
X363259600Y-230580434D03*
%TD*%
%TO.C,H34*%
X398350340Y-172802194D03*
%TD*%
D21*
%TO.C,J7*%
X322100000Y-246800000D03*
D17*
X314900000Y-246800000D03*
%TD*%
D10*
%TO.C,H13*%
X232258772Y-252787678D03*
%TD*%
%TO.C,H44*%
X277200000Y-144520834D03*
%TD*%
D18*
%TO.C,J5*%
X348560000Y-132400000D03*
D19*
X351100000Y-132400000D03*
X353640000Y-132400000D03*
%TD*%
D10*
%TO.C,H3*%
X241117206Y-134580082D03*
%TD*%
%TO.C,H39*%
X367969527Y-126866498D03*
%TD*%
D15*
%TO.C,TP8*%
X230700000Y-213000000D03*
%TD*%
D10*
%TO.C,H36*%
X386621780Y-147544761D03*
%TD*%
%TO.C,H9*%
X219824353Y-227870168D03*
%TD*%
%TO.C,H50*%
X308700000Y-262080434D03*
%TD*%
%TO.C,H54*%
X363259600Y-167580434D03*
%TD*%
%TO.C,H11*%
X216134412Y-211703478D03*
%TD*%
%TO.C,H40*%
X354268467Y-117525274D03*
%TD*%
%TO.C,H12*%
X223967549Y-238426858D03*
%TD*%
D22*
%TO.C,C11*%
X267965000Y-209462500D03*
X269100000Y-209462500D03*
%TD*%
D23*
%TO.C,R54*%
X302397500Y-282500000D03*
X301202500Y-282500000D03*
%TD*%
D24*
%TO.C,JP4*%
X259600000Y-200350000D03*
D25*
X259600000Y-201650000D03*
%TD*%
D26*
%TO.C,R57*%
X304502500Y-277500000D03*
X305697500Y-277500000D03*
%TD*%
D27*
%TO.C,C20*%
X308997676Y-156802324D03*
X309800242Y-155999758D03*
%TD*%
D28*
%TO.C,C32*%
X285311872Y-148068170D03*
X284509306Y-148870736D03*
%TD*%
D29*
%TO.C,C10*%
X266101283Y-209363783D03*
X265298717Y-208561217D03*
%TD*%
%TO.C,C23*%
X321300242Y-152102324D03*
X320497676Y-151299758D03*
%TD*%
D30*
%TO.C,R2*%
X331321455Y-146623537D03*
X330476463Y-145778545D03*
%TD*%
D26*
%TO.C,R52*%
X315602500Y-274600000D03*
X316797500Y-274600000D03*
%TD*%
D31*
%TO.C,C34*%
X287807888Y-147611565D03*
X286588128Y-148831325D03*
%TD*%
D23*
%TO.C,R64*%
X313297500Y-285500000D03*
X312102500Y-285500000D03*
%TD*%
D32*
%TO.C,JP1*%
X267900000Y-195662500D03*
D33*
X267900000Y-194362500D03*
%TD*%
D34*
%TO.C,C15*%
X308397676Y-145499758D03*
X309200242Y-146302324D03*
%TD*%
D35*
%TO.C,R1*%
X326176463Y-150078545D03*
X327021455Y-150923537D03*
%TD*%
D36*
%TO.C,JP15*%
X314437500Y-129500000D03*
D37*
X315737500Y-129500000D03*
%TD*%
D36*
%TO.C,JP11*%
X297550000Y-130100000D03*
D37*
X298850000Y-130100000D03*
%TD*%
D29*
%TO.C,C16*%
X321800242Y-148902324D03*
X320997676Y-148099758D03*
%TD*%
D38*
%TO.C,D28*%
X315185000Y-282575439D03*
X312210000Y-282575439D03*
%TD*%
D39*
%TO.C,TP2*%
X265100000Y-146300000D03*
%TD*%
D40*
%TO.C,C31*%
X281792112Y-150211565D03*
X283011872Y-151431325D03*
%TD*%
D38*
%TO.C,D27*%
X315185000Y-277575439D03*
X312210000Y-277575439D03*
%TD*%
D39*
%TO.C,TP3*%
X231400000Y-168400000D03*
%TD*%
D23*
%TO.C,R22*%
X382097500Y-174800000D03*
X380902500Y-174800000D03*
%TD*%
%TO.C,R56*%
X313297500Y-274600000D03*
X312102500Y-274600000D03*
%TD*%
D41*
%TO.C,D24*%
X302210000Y-275075439D03*
X305185000Y-275075439D03*
%TD*%
D23*
%TO.C,R58*%
X313297500Y-280000000D03*
X312102500Y-280000000D03*
%TD*%
D36*
%TO.C,JP12*%
X305500000Y-116000000D03*
D37*
X306800000Y-116000000D03*
%TD*%
D42*
%TO.C,Q16*%
X309448603Y-284631649D03*
X307946989Y-285530347D03*
%TD*%
D43*
%TO.C,J4*%
X265100000Y-188762500D03*
D44*
X266100000Y-188762500D03*
X267100000Y-188762500D03*
X268100000Y-188762500D03*
%TD*%
D24*
%TO.C,JP2*%
X265300000Y-184662500D03*
D25*
X265300000Y-185962500D03*
%TD*%
D41*
%TO.C,D25*%
X302210000Y-280085439D03*
X305185000Y-280085439D03*
%TD*%
D29*
%TO.C,C22*%
X314800242Y-158502324D03*
X313997676Y-157699758D03*
%TD*%
%TO.C,C18*%
X321100244Y-149602324D03*
X320297674Y-148799758D03*
%TD*%
D45*
%TO.C,D9*%
X327819239Y-156421321D03*
X324778679Y-153380761D03*
%TD*%
D28*
%TO.C,C25*%
X322501283Y-143198717D03*
X321698717Y-144001283D03*
%TD*%
D31*
%TO.C,C35*%
X289550000Y-156969453D03*
X288330240Y-158189213D03*
%TD*%
D43*
%TO.C,J3*%
X268100000Y-191262500D03*
D44*
X267100000Y-191262500D03*
X266100000Y-191262500D03*
X265100000Y-191262500D03*
%TD*%
D29*
%TO.C,C17*%
X319000242Y-156202324D03*
X318197676Y-155399758D03*
%TD*%
D28*
%TO.C,C29*%
X318600242Y-142899758D03*
X317797676Y-143702324D03*
%TD*%
D34*
%TO.C,C21*%
X308198717Y-142498717D03*
X309001283Y-143301283D03*
%TD*%
%TO.C,C24*%
X306798717Y-147298717D03*
X307601283Y-148101283D03*
%TD*%
D26*
%TO.C,R59*%
X315602500Y-280000000D03*
X316797500Y-280000000D03*
%TD*%
D23*
%TO.C,R53*%
X302397500Y-277500000D03*
X301202500Y-277500000D03*
%TD*%
D46*
%TO.C,U4*%
X269125000Y-205900002D03*
D47*
X269125000Y-206400000D03*
X269125000Y-206900000D03*
X269125000Y-207400000D03*
D48*
X268299999Y-207700000D03*
D49*
X267800000Y-207700000D03*
X267300000Y-207700000D03*
D47*
X266475000Y-207400000D03*
X266475000Y-206900000D03*
D46*
X266475000Y-206400002D03*
D47*
X266475000Y-205900000D03*
D49*
X267300000Y-205600000D03*
D50*
X267800000Y-205600000D03*
D51*
X268299998Y-205600000D03*
%TD*%
D36*
%TO.C,JP14*%
X314487500Y-125300000D03*
D37*
X315787500Y-125300000D03*
%TD*%
D42*
%TO.C,Q13*%
X309448603Y-277131649D03*
X307946989Y-278030347D03*
%TD*%
D36*
%TO.C,JP17*%
X362650000Y-215100000D03*
D37*
X363950000Y-215100000D03*
%TD*%
D26*
%TO.C,R60*%
X315602500Y-285500000D03*
X316797500Y-285500000D03*
%TD*%
D24*
%TO.C,JP5*%
X267700000Y-200362500D03*
D25*
X267700000Y-201662500D03*
%TD*%
D42*
%TO.C,Q15*%
X309448603Y-282131649D03*
X307946989Y-283030347D03*
%TD*%
%TO.C,Q12*%
X309453560Y-274630202D03*
X307951946Y-275528900D03*
%TD*%
%TO.C,Q14*%
X309448603Y-279631649D03*
X307946989Y-280530347D03*
%TD*%
D24*
%TO.C,JP7*%
X262500000Y-200312500D03*
D25*
X262500000Y-201612500D03*
%TD*%
D52*
%TO.C,C33*%
X288040120Y-149679333D03*
X289259880Y-148459573D03*
%TD*%
D36*
%TO.C,JP13*%
X305500000Y-120200000D03*
D37*
X306800000Y-120200000D03*
%TD*%
D53*
%TO.C,U6*%
X353120000Y-179512500D03*
X355660000Y-179512500D03*
X358200000Y-179512500D03*
X360740000Y-179512500D03*
%TD*%
D29*
%TO.C,C26*%
X318300242Y-156902324D03*
X317497676Y-156099758D03*
%TD*%
D41*
%TO.C,D26*%
X302210000Y-285075439D03*
X305185000Y-285075439D03*
%TD*%
D27*
%TO.C,C28*%
X307798959Y-155602324D03*
X308601525Y-154799758D03*
%TD*%
%TO.C,C27*%
X306597676Y-154302324D03*
X307400242Y-153499758D03*
%TD*%
D54*
%TO.C,R23*%
X381250000Y-177400000D03*
X384350000Y-177400000D03*
%TD*%
D40*
%TO.C,C30*%
X282892112Y-149111565D03*
X284111872Y-150331325D03*
%TD*%
D55*
%TO.C,R20*%
X378812500Y-177300000D03*
X376987500Y-177300000D03*
%TD*%
D26*
%TO.C,R21*%
X377202500Y-180100000D03*
X378397500Y-180100000D03*
%TD*%
D39*
%TO.C,TP1*%
X272900000Y-138000000D03*
%TD*%
D32*
%TO.C,JP9*%
X265300000Y-195662500D03*
D33*
X265300000Y-194362500D03*
%TD*%
D36*
%TO.C,JP10*%
X297550000Y-125900000D03*
D37*
X298850000Y-125900000D03*
%TD*%
D28*
%TO.C,C19*%
X322700242Y-149999758D03*
X321897676Y-150802324D03*
%TD*%
D24*
%TO.C,JP6*%
X265100000Y-200400000D03*
D25*
X265100000Y-201700000D03*
%TD*%
D56*
%TO.C,L3*%
X321891852Y-146593934D03*
X323306066Y-148008148D03*
%TD*%
D26*
%TO.C,R63*%
X304502500Y-282500000D03*
X305697500Y-282500000D03*
%TD*%
D24*
%TO.C,JP3*%
X268000000Y-184662500D03*
D25*
X268000000Y-185962500D03*
%TD*%
D35*
%TO.C,R12*%
X323776463Y-149478545D03*
X324621455Y-150323537D03*
%TD*%
M02*
