%TF.GenerationSoftware,KiCad,Pcbnew,10.0.1*%
%TF.CreationDate,2026-05-27T22:48:48-07:00*%
%TF.ProjectId,eye-of-terror,6579652d-6f66-42d7-9465-72726f722e6b,rev?*%
%TF.SameCoordinates,Original*%
%TF.FileFunction,Soldermask,Top*%
%TF.FilePolarity,Negative*%
%FSLAX46Y46*%
G04 Gerber Fmt 4.6, Leading zero omitted, Abs format (unit mm)*
G04 Created by KiCad (PCBNEW 10.0.1) date 2026-05-27 22:48:48*
%MOMM*%
%LPD*%
G01*
G04 APERTURE LIST*
G04 Aperture macros list*
%AMRoundRect*
0 Rectangle with rounded corners*
0 $1 Rounding radius*
0 $2 $3 $4 $5 $6 $7 $8 $9 X,Y pos of 4 corners*
0 Add a 4 corners polygon primitive as box body*
4,1,4,$2,$3,$4,$5,$6,$7,$8,$9,$2,$3,0*
0 Add four circle primitives for the rounded corners*
1,1,$1+$1,$2,$3*
1,1,$1+$1,$4,$5*
1,1,$1+$1,$6,$7*
1,1,$1+$1,$8,$9*
0 Add four rect primitives between the rounded corners*
20,1,$1+$1,$2,$3,$4,$5,0*
20,1,$1+$1,$4,$5,$6,$7,0*
20,1,$1+$1,$6,$7,$8,$9,0*
20,1,$1+$1,$8,$9,$2,$3,0*%
%AMHorizOval*
0 Thick line with rounded ends*
0 $1 width*
0 $2 $3 position (X,Y) of the first rounded end (center of the circle)*
0 $4 $5 position (X,Y) of the second rounded end (center of the circle)*
0 Add line between two ends*
20,1,$1,$2,$3,$4,$5,0*
0 Add two circle primitives to create the rounded ends*
1,1,$1,$2,$3*
1,1,$1,$4,$5*%
%AMRotRect*
0 Rectangle, with rotation*
0 The origin of the aperture is its center*
0 $1 length*
0 $2 width*
0 $3 Rotation angle, in degrees counterclockwise*
0 Add horizontal line*
21,1,$1,$2,0,0,$3*%
%AMFreePoly0*
4,1,23,0.500000,-0.750000,0.000000,-0.750000,0.000000,-0.745722,-0.065263,-0.745722,-0.191342,-0.711940,-0.304381,-0.646677,-0.396677,-0.554381,-0.461940,-0.441342,-0.495722,-0.315263,-0.495722,-0.250000,-0.500000,-0.250000,-0.500000,0.250000,-0.495722,0.250000,-0.495722,0.315263,-0.461940,0.441342,-0.396677,0.554381,-0.304381,0.646677,-0.191342,0.711940,-0.065263,0.745722,0.000000,0.745722,
0.000000,0.750000,0.500000,0.750000,0.500000,-0.750000,0.500000,-0.750000,$1*%
%AMFreePoly1*
4,1,23,0.000000,0.745722,0.065263,0.745722,0.191342,0.711940,0.304381,0.646677,0.396677,0.554381,0.461940,0.441342,0.495722,0.315263,0.495722,0.250000,0.500000,0.250000,0.500000,-0.250000,0.495722,-0.250000,0.495722,-0.315263,0.461940,-0.441342,0.396677,-0.554381,0.304381,-0.646677,0.191342,-0.711940,0.065263,-0.745722,0.000000,-0.745722,0.000000,-0.750000,-0.500000,-0.750000,
-0.500000,0.750000,0.000000,0.750000,0.000000,0.745722,0.000000,0.745722,$1*%
%AMFreePoly2*
4,1,30,0.400000,-4.000000,-0.400000,-4.000000,-2.400000,-4.000000,-2.400000,-3.200000,-0.400000,-3.200000,-0.400000,-2.800000,-2.400000,-2.800000,-2.400000,-2.000000,-0.400000,-2.000000,-0.400000,-1.600000,-2.400000,-1.600000,-2.400000,-0.800000,-0.400000,-0.800000,-0.400000,-0.400000,-2.400000,-0.400000,-2.400000,0.400000,-0.400000,0.400000,-0.400000,0.800000,-2.400000,0.800000,-2.400000,1.600000,
-0.400000,1.600000,-0.400000,2.000000,-2.400000,2.000000,-2.400000,2.800000,-0.400000,2.800000,-0.400000,3.200000,-2.400000,3.200000,-2.400000,4.000000,0.400000,4.000000,0.400000,-4.000000,0.400000,-4.000000,$1*%
%AMFreePoly3*
4,1,13,2.850000,-5.050000,1.450000,-5.050000,1.450000,-4.350000,-1.450000,-4.350000,-1.450000,-4.850000,-5.150000,-4.850000,-5.150000,4.850000,-1.450000,4.850000,-1.450000,4.350000,1.450000,4.350000,1.450000,5.050000,2.850000,5.050000,2.850000,-5.050000,2.850000,-5.050000,$1*%
%AMFreePoly4*
4,1,23,0.550000,-0.750000,0.000000,-0.750000,0.000000,-0.745722,-0.065263,-0.745722,-0.191342,-0.711940,-0.304381,-0.646677,-0.396677,-0.554381,-0.461940,-0.441342,-0.495722,-0.315263,-0.495722,-0.250000,-0.500000,-0.250000,-0.500000,0.250000,-0.495722,0.250000,-0.495722,0.315263,-0.461940,0.441342,-0.396677,0.554381,-0.304381,0.646677,-0.191342,0.711940,-0.065263,0.745722,0.000000,0.745722,
0.000000,0.750000,0.550000,0.750000,0.550000,-0.750000,0.550000,-0.750000,$1*%
%AMFreePoly5*
4,1,23,0.000000,0.745722,0.065263,0.745722,0.191342,0.711940,0.304381,0.646677,0.396677,0.554381,0.461940,0.441342,0.495722,0.315263,0.495722,0.250000,0.500000,0.250000,0.500000,-0.250000,0.495722,-0.250000,0.495722,-0.315263,0.461940,-0.441342,0.396677,-0.554381,0.304381,-0.646677,0.191342,-0.711940,0.065263,-0.745722,0.000000,-0.745722,0.000000,-0.750000,-0.550000,-0.750000,
-0.550000,0.750000,0.000000,0.750000,0.000000,0.745722,0.000000,0.745722,$1*%
G04 Aperture macros list end*
%ADD10C,1.000000*%
%ADD11C,0.010000*%
%ADD12C,3.200000*%
%ADD13RoundRect,0.237500X-0.250000X-0.237500X0.250000X-0.237500X0.250000X0.237500X-0.250000X0.237500X0*%
%ADD14R,1.000000X0.600000*%
%ADD15RoundRect,0.375000X-0.875000X1.325000X-0.875000X-1.325000X0.875000X-1.325000X0.875000X1.325000X0*%
%ADD16RoundRect,0.155000X-0.212500X-0.155000X0.212500X-0.155000X0.212500X0.155000X-0.212500X0.155000X0*%
%ADD17HorizOval,0.230000X-0.130814X0.130814X0.130814X-0.130814X0*%
%ADD18HorizOval,0.230000X-0.130814X-0.130814X0.130814X0.130814X0*%
%ADD19C,0.600000*%
%ADD20RotRect,4.150000X4.150000X315.000000*%
%ADD21C,0.650000*%
%ADD22C,1.100000*%
%ADD23C,0.508000*%
%ADD24RotRect,0.304800X0.863600X135.000000*%
%ADD25RoundRect,0.160000X-0.197500X-0.160000X0.197500X-0.160000X0.197500X0.160000X-0.197500X0.160000X0*%
%ADD26RoundRect,0.237500X0.125341X0.351215X-0.368561X0.056791X-0.125341X-0.351215X0.368561X-0.056791X0*%
%ADD27FreePoly0,0.000000*%
%ADD28FreePoly1,0.000000*%
%ADD29RoundRect,0.160000X0.197500X0.160000X-0.197500X0.160000X-0.197500X-0.160000X0.197500X-0.160000X0*%
%ADD30RoundRect,0.237500X-0.237500X0.250000X-0.237500X-0.250000X0.237500X-0.250000X0.237500X0.250000X0*%
%ADD31C,5.000000*%
%ADD32RoundRect,0.237500X0.237500X-0.300000X0.237500X0.300000X-0.237500X0.300000X-0.237500X-0.300000X0*%
%ADD33RoundRect,0.250000X-0.550000X1.250000X-0.550000X-1.250000X0.550000X-1.250000X0.550000X1.250000X0*%
%ADD34RoundRect,0.250001X0.462499X0.624999X-0.462499X0.624999X-0.462499X-0.624999X0.462499X-0.624999X0*%
%ADD35HorizOval,0.220000X-0.197990X0.197990X0.197990X-0.197990X0*%
%ADD36HorizOval,0.220000X-0.197990X-0.197990X0.197990X0.197990X0*%
%ADD37RoundRect,0.200000X-2.121320X0.000000X0.000000X-2.121320X2.121320X0.000000X0.000000X2.121320X0*%
%ADD38RoundRect,0.237500X-0.300000X-0.237500X0.300000X-0.237500X0.300000X0.237500X-0.300000X0.237500X0*%
%ADD39R,0.800000X2.800000*%
%ADD40FreePoly2,270.000000*%
%ADD41FreePoly3,270.000000*%
%ADD42RoundRect,0.155000X0.155000X-0.212500X0.155000X0.212500X-0.155000X0.212500X-0.155000X-0.212500X0*%
%ADD43RoundRect,0.250000X-1.000000X-0.900000X1.000000X-0.900000X1.000000X0.900000X-1.000000X0.900000X0*%
%ADD44RoundRect,0.237500X0.250000X0.237500X-0.250000X0.237500X-0.250000X-0.237500X0.250000X-0.237500X0*%
%ADD45RoundRect,1.500000X-1.500000X-1.500000X1.500000X-1.500000X1.500000X1.500000X-1.500000X1.500000X0*%
%ADD46C,6.000000*%
%ADD47RoundRect,0.237500X0.237500X-0.250000X0.237500X0.250000X-0.237500X0.250000X-0.237500X-0.250000X0*%
%ADD48RoundRect,0.250000X-0.400000X-0.625000X0.400000X-0.625000X0.400000X0.625000X-0.400000X0.625000X0*%
%ADD49R,1.700000X1.700000*%
%ADD50C,1.700000*%
%ADD51RoundRect,0.160000X-0.026517X-0.252791X0.252791X0.026517X0.026517X0.252791X-0.252791X-0.026517X0*%
%ADD52FreePoly0,180.000000*%
%ADD53FreePoly1,180.000000*%
%ADD54RoundRect,0.160000X0.160000X-0.197500X0.160000X0.197500X-0.160000X0.197500X-0.160000X-0.197500X0*%
%ADD55RoundRect,0.250001X0.999999X-0.499999X0.999999X0.499999X-0.999999X0.499999X-0.999999X-0.499999X0*%
%ADD56RoundRect,0.162500X0.837500X0.162500X-0.837500X0.162500X-0.837500X-0.162500X0.837500X-0.162500X0*%
%ADD57R,2.800000X0.800000*%
%ADD58FreePoly2,180.000000*%
%ADD59FreePoly3,180.000000*%
%ADD60RoundRect,0.250001X-0.462499X-0.624999X0.462499X-0.624999X0.462499X0.624999X-0.462499X0.624999X0*%
%ADD61C,1.000000*%
%ADD62RoundRect,0.250001X-0.624999X0.462499X-0.624999X-0.462499X0.624999X-0.462499X0.624999X0.462499X0*%
%ADD63RoundRect,0.160000X0.026517X0.252791X-0.252791X-0.026517X-0.026517X-0.252791X0.252791X0.026517X0*%
%ADD64FreePoly2,90.000000*%
%ADD65FreePoly3,90.000000*%
%ADD66RoundRect,0.155000X-0.259862X0.040659X0.040659X-0.259862X0.259862X-0.040659X-0.040659X0.259862X0*%
%ADD67RoundRect,0.250000X-0.708473X-1.167504X1.339407X0.266437X0.708473X1.167504X-1.339407X-0.266437X0*%
%ADD68R,0.508000X0.901700*%
%ADD69RoundRect,0.250000X0.400000X0.625000X-0.400000X0.625000X-0.400000X-0.625000X0.400000X-0.625000X0*%
%ADD70RoundRect,0.160000X0.252791X-0.026517X-0.026517X0.252791X-0.252791X0.026517X0.026517X-0.252791X0*%
%ADD71RoundRect,1.500000X1.500000X-1.500000X1.500000X1.500000X-1.500000X1.500000X-1.500000X-1.500000X0*%
%ADD72RoundRect,0.250000X1.000000X0.900000X-1.000000X0.900000X-1.000000X-0.900000X1.000000X-0.900000X0*%
%ADD73RoundRect,0.237500X-0.237500X0.300000X-0.237500X-0.300000X0.237500X-0.300000X0.237500X0.300000X0*%
%ADD74FreePoly4,270.000000*%
%ADD75R,1.500000X1.000000*%
%ADD76FreePoly5,270.000000*%
%ADD77RoundRect,1.500000X1.500000X1.500000X-1.500000X1.500000X-1.500000X-1.500000X1.500000X-1.500000X0*%
%ADD78RoundRect,0.200000X-0.200000X-0.800000X0.200000X-0.800000X0.200000X0.800000X-0.200000X0.800000X0*%
%ADD79FreePoly0,90.000000*%
%ADD80FreePoly1,90.000000*%
%ADD81RoundRect,0.155000X0.212500X0.155000X-0.212500X0.155000X-0.212500X-0.155000X0.212500X-0.155000X0*%
%ADD82RoundRect,0.237500X0.300000X0.237500X-0.300000X0.237500X-0.300000X-0.237500X0.300000X-0.237500X0*%
%ADD83RoundRect,0.162500X-0.162500X0.650000X-0.162500X-0.650000X0.162500X-0.650000X0.162500X0.650000X0*%
%ADD84RoundRect,0.250000X-0.565685X0.070711X0.070711X-0.565685X0.565685X-0.070711X-0.070711X0.565685X0*%
%ADD85RoundRect,0.102000X-0.925000X-2.050000X0.925000X-2.050000X0.925000X2.050000X-0.925000X2.050000X0*%
%ADD86RoundRect,0.200000X0.200000X0.800000X-0.200000X0.800000X-0.200000X-0.800000X0.200000X-0.800000X0*%
%ADD87RoundRect,0.250000X0.625000X-0.400000X0.625000X0.400000X-0.625000X0.400000X-0.625000X-0.400000X0*%
%ADD88FreePoly2,0.000000*%
%ADD89FreePoly3,0.000000*%
%ADD90R,0.850000X0.850000*%
%ADD91C,0.850000*%
G04 APERTURE END LIST*
D10*
X302800000Y-151300000D02*
X302800000Y-154600000D01*
X310400000Y-140800000D02*
X315000000Y-140800000D01*
X315800000Y-160300000D02*
X322900000Y-160300000D01*
X323400000Y-143350000D02*
X323400000Y-146650000D01*
%TO.C,JP19*%
G36*
X360300000Y-136650000D02*
G01*
X360600000Y-136650000D01*
X360600000Y-138150000D01*
X360300000Y-138150000D01*
X360300000Y-136650000D01*
G37*
D11*
%TO.C,U8*%
X325725905Y-151029997D02*
X325728733Y-151029997D01*
X325730855Y-151030704D01*
X325733683Y-151030704D01*
X325736511Y-151032118D01*
X325738633Y-151032825D01*
X325741461Y-151034240D01*
X325742875Y-151035654D01*
X325745704Y-151037068D01*
X325747118Y-151038482D01*
X325749947Y-151039896D01*
X325751361Y-151041311D01*
X325753482Y-151043432D01*
X325894903Y-151184853D01*
X325897025Y-151186975D01*
X325898439Y-151188389D01*
X325899853Y-151191217D01*
X325901267Y-151192632D01*
X325902682Y-151195460D01*
X325904096Y-151196874D01*
X325905510Y-151199703D01*
X325906217Y-151201824D01*
X325907631Y-151204652D01*
X325907631Y-151207481D01*
X325908338Y-151209602D01*
X325908338Y-151212431D01*
X325909046Y-151214552D01*
X325909046Y-151217380D01*
X325909046Y-151220209D01*
X325909046Y-151223037D01*
X325909046Y-151225866D01*
X325908338Y-151227987D01*
X325908338Y-151230815D01*
X325907631Y-151232937D01*
X325907631Y-151235765D01*
X325906217Y-151238593D01*
X325905510Y-151240715D01*
X325904096Y-151243543D01*
X325902682Y-151244957D01*
X325901267Y-151247786D01*
X325899853Y-151249200D01*
X325898439Y-151252028D01*
X325897025Y-151253443D01*
X325894903Y-151255564D01*
X325753482Y-151396985D01*
X325751361Y-151399107D01*
X325749947Y-151400521D01*
X325747118Y-151401935D01*
X325745704Y-151403349D01*
X325742875Y-151404764D01*
X325741461Y-151406178D01*
X325738633Y-151407592D01*
X325736511Y-151408299D01*
X325733683Y-151409713D01*
X325730855Y-151409713D01*
X325728733Y-151410420D01*
X325725905Y-151410420D01*
X325723784Y-151411128D01*
X325720955Y-151411128D01*
X325718127Y-151411128D01*
X325715298Y-151411128D01*
X325712470Y-151411128D01*
X325710349Y-151410420D01*
X325707520Y-151410420D01*
X325705399Y-151409713D01*
X325702570Y-151409713D01*
X325699742Y-151408299D01*
X325697621Y-151407592D01*
X325694792Y-151406178D01*
X325693378Y-151404764D01*
X325690550Y-151403349D01*
X325689135Y-151401935D01*
X325686307Y-151400521D01*
X325684893Y-151399107D01*
X325682771Y-151396985D01*
X325541350Y-151255564D01*
X325539229Y-151253443D01*
X325537814Y-151252028D01*
X325536400Y-151249200D01*
X325534986Y-151247786D01*
X325533572Y-151244957D01*
X325532158Y-151243543D01*
X325530743Y-151240715D01*
X325530036Y-151238593D01*
X325528622Y-151235765D01*
X325528622Y-151232937D01*
X325527915Y-151230815D01*
X325527915Y-151227987D01*
X325527208Y-151225866D01*
X325527208Y-151223037D01*
X325527208Y-151220209D01*
X325527208Y-151217380D01*
X325527208Y-151214552D01*
X325527915Y-151212431D01*
X325527915Y-151209602D01*
X325528622Y-151207481D01*
X325528622Y-151204652D01*
X325530036Y-151201824D01*
X325530743Y-151199703D01*
X325532158Y-151196874D01*
X325533572Y-151195460D01*
X325534986Y-151192632D01*
X325536400Y-151191217D01*
X325537814Y-151188389D01*
X325539229Y-151186975D01*
X325541350Y-151184853D01*
X325682771Y-151043432D01*
X325684893Y-151041311D01*
X325686307Y-151039896D01*
X325689135Y-151038482D01*
X325690550Y-151037068D01*
X325693378Y-151035654D01*
X325694792Y-151034240D01*
X325697621Y-151032825D01*
X325699742Y-151032118D01*
X325702570Y-151030704D01*
X325705399Y-151030704D01*
X325707520Y-151029997D01*
X325710349Y-151029997D01*
X325712470Y-151029290D01*
X325715298Y-151029290D01*
X325718127Y-151029290D01*
X325720955Y-151029290D01*
X325723784Y-151029290D01*
X325725905Y-151029997D01*
G36*
X325725905Y-151029997D02*
G01*
X325728733Y-151029997D01*
X325730855Y-151030704D01*
X325733683Y-151030704D01*
X325736511Y-151032118D01*
X325738633Y-151032825D01*
X325741461Y-151034240D01*
X325742875Y-151035654D01*
X325745704Y-151037068D01*
X325747118Y-151038482D01*
X325749947Y-151039896D01*
X325751361Y-151041311D01*
X325753482Y-151043432D01*
X325894903Y-151184853D01*
X325897025Y-151186975D01*
X325898439Y-151188389D01*
X325899853Y-151191217D01*
X325901267Y-151192632D01*
X325902682Y-151195460D01*
X325904096Y-151196874D01*
X325905510Y-151199703D01*
X325906217Y-151201824D01*
X325907631Y-151204652D01*
X325907631Y-151207481D01*
X325908338Y-151209602D01*
X325908338Y-151212431D01*
X325909046Y-151214552D01*
X325909046Y-151217380D01*
X325909046Y-151220209D01*
X325909046Y-151223037D01*
X325909046Y-151225866D01*
X325908338Y-151227987D01*
X325908338Y-151230815D01*
X325907631Y-151232937D01*
X325907631Y-151235765D01*
X325906217Y-151238593D01*
X325905510Y-151240715D01*
X325904096Y-151243543D01*
X325902682Y-151244957D01*
X325901267Y-151247786D01*
X325899853Y-151249200D01*
X325898439Y-151252028D01*
X325897025Y-151253443D01*
X325894903Y-151255564D01*
X325753482Y-151396985D01*
X325751361Y-151399107D01*
X325749947Y-151400521D01*
X325747118Y-151401935D01*
X325745704Y-151403349D01*
X325742875Y-151404764D01*
X325741461Y-151406178D01*
X325738633Y-151407592D01*
X325736511Y-151408299D01*
X325733683Y-151409713D01*
X325730855Y-151409713D01*
X325728733Y-151410420D01*
X325725905Y-151410420D01*
X325723784Y-151411128D01*
X325720955Y-151411128D01*
X325718127Y-151411128D01*
X325715298Y-151411128D01*
X325712470Y-151411128D01*
X325710349Y-151410420D01*
X325707520Y-151410420D01*
X325705399Y-151409713D01*
X325702570Y-151409713D01*
X325699742Y-151408299D01*
X325697621Y-151407592D01*
X325694792Y-151406178D01*
X325693378Y-151404764D01*
X325690550Y-151403349D01*
X325689135Y-151401935D01*
X325686307Y-151400521D01*
X325684893Y-151399107D01*
X325682771Y-151396985D01*
X325541350Y-151255564D01*
X325539229Y-151253443D01*
X325537814Y-151252028D01*
X325536400Y-151249200D01*
X325534986Y-151247786D01*
X325533572Y-151244957D01*
X325532158Y-151243543D01*
X325530743Y-151240715D01*
X325530036Y-151238593D01*
X325528622Y-151235765D01*
X325528622Y-151232937D01*
X325527915Y-151230815D01*
X325527915Y-151227987D01*
X325527208Y-151225866D01*
X325527208Y-151223037D01*
X325527208Y-151220209D01*
X325527208Y-151217380D01*
X325527208Y-151214552D01*
X325527915Y-151212431D01*
X325527915Y-151209602D01*
X325528622Y-151207481D01*
X325528622Y-151204652D01*
X325530036Y-151201824D01*
X325530743Y-151199703D01*
X325532158Y-151196874D01*
X325533572Y-151195460D01*
X325534986Y-151192632D01*
X325536400Y-151191217D01*
X325537814Y-151188389D01*
X325539229Y-151186975D01*
X325541350Y-151184853D01*
X325682771Y-151043432D01*
X325684893Y-151041311D01*
X325686307Y-151039896D01*
X325689135Y-151038482D01*
X325690550Y-151037068D01*
X325693378Y-151035654D01*
X325694792Y-151034240D01*
X325697621Y-151032825D01*
X325699742Y-151032118D01*
X325702570Y-151030704D01*
X325705399Y-151030704D01*
X325707520Y-151029997D01*
X325710349Y-151029997D01*
X325712470Y-151029290D01*
X325715298Y-151029290D01*
X325718127Y-151029290D01*
X325720955Y-151029290D01*
X325723784Y-151029290D01*
X325725905Y-151029997D01*
G37*
X325754189Y-151482545D02*
X325757018Y-151482545D01*
X325759139Y-151483252D01*
X325761967Y-151483252D01*
X325764796Y-151484667D01*
X325766917Y-151485374D01*
X325769746Y-151486788D01*
X325771160Y-151488202D01*
X325773988Y-151489616D01*
X325775402Y-151491031D01*
X325778231Y-151492445D01*
X325779645Y-151493859D01*
X325781766Y-151495980D01*
X325923188Y-151637402D01*
X325925309Y-151639523D01*
X325926723Y-151640937D01*
X325928137Y-151643766D01*
X325929552Y-151645180D01*
X325930966Y-151648008D01*
X325932380Y-151649422D01*
X325933794Y-151652251D01*
X325934501Y-151654372D01*
X325935916Y-151657201D01*
X325935916Y-151660029D01*
X325936623Y-151662150D01*
X325936623Y-151664979D01*
X325937330Y-151667100D01*
X325937330Y-151669929D01*
X325937330Y-151672757D01*
X325937330Y-151675585D01*
X325937330Y-151678414D01*
X325936623Y-151680535D01*
X325936623Y-151683364D01*
X325935916Y-151685485D01*
X325935916Y-151688313D01*
X325934501Y-151691142D01*
X325933794Y-151693263D01*
X325932380Y-151696092D01*
X325930966Y-151697506D01*
X325929552Y-151700334D01*
X325928137Y-151701748D01*
X325926723Y-151704577D01*
X325925309Y-151705991D01*
X325923188Y-151708112D01*
X325781766Y-151849534D01*
X325779645Y-151851655D01*
X325778231Y-151853069D01*
X325775402Y-151854483D01*
X325773988Y-151855898D01*
X325771160Y-151857312D01*
X325769746Y-151858726D01*
X325766917Y-151860140D01*
X325764796Y-151860847D01*
X325761967Y-151862262D01*
X325759139Y-151862262D01*
X325757018Y-151862969D01*
X325754189Y-151862969D01*
X325752068Y-151863676D01*
X325749239Y-151863676D01*
X325746411Y-151863676D01*
X325743583Y-151863676D01*
X325740754Y-151863676D01*
X325738633Y-151862969D01*
X325735804Y-151862969D01*
X325733683Y-151862262D01*
X325730855Y-151862262D01*
X325728026Y-151860847D01*
X325725905Y-151860140D01*
X325723076Y-151858726D01*
X325721662Y-151857312D01*
X325718834Y-151855898D01*
X325717420Y-151854483D01*
X325714591Y-151853069D01*
X325713177Y-151851655D01*
X325711056Y-151849534D01*
X325569634Y-151708112D01*
X325567513Y-151705991D01*
X325566099Y-151704577D01*
X325564685Y-151701748D01*
X325563270Y-151700334D01*
X325561856Y-151697506D01*
X325560442Y-151696092D01*
X325559028Y-151693263D01*
X325558321Y-151691142D01*
X325556906Y-151688313D01*
X325556906Y-151685485D01*
X325556199Y-151683364D01*
X325556199Y-151680535D01*
X325555492Y-151678414D01*
X325555492Y-151675585D01*
X325555492Y-151672757D01*
X325555492Y-151669929D01*
X325555492Y-151667100D01*
X325556199Y-151664979D01*
X325556199Y-151662150D01*
X325556906Y-151660029D01*
X325556906Y-151657201D01*
X325558321Y-151654372D01*
X325559028Y-151652251D01*
X325560442Y-151649422D01*
X325561856Y-151648008D01*
X325563270Y-151645180D01*
X325564685Y-151643766D01*
X325566099Y-151640937D01*
X325567513Y-151639523D01*
X325569634Y-151637402D01*
X325711056Y-151495980D01*
X325713177Y-151493859D01*
X325714591Y-151492445D01*
X325717420Y-151491031D01*
X325718834Y-151489616D01*
X325721662Y-151488202D01*
X325723076Y-151486788D01*
X325725905Y-151485374D01*
X325728026Y-151484667D01*
X325730855Y-151483252D01*
X325733683Y-151483252D01*
X325735804Y-151482545D01*
X325738633Y-151482545D01*
X325740754Y-151481838D01*
X325743583Y-151481838D01*
X325746411Y-151481838D01*
X325749239Y-151481838D01*
X325752068Y-151481838D01*
X325754189Y-151482545D01*
G36*
X325754189Y-151482545D02*
G01*
X325757018Y-151482545D01*
X325759139Y-151483252D01*
X325761967Y-151483252D01*
X325764796Y-151484667D01*
X325766917Y-151485374D01*
X325769746Y-151486788D01*
X325771160Y-151488202D01*
X325773988Y-151489616D01*
X325775402Y-151491031D01*
X325778231Y-151492445D01*
X325779645Y-151493859D01*
X325781766Y-151495980D01*
X325923188Y-151637402D01*
X325925309Y-151639523D01*
X325926723Y-151640937D01*
X325928137Y-151643766D01*
X325929552Y-151645180D01*
X325930966Y-151648008D01*
X325932380Y-151649422D01*
X325933794Y-151652251D01*
X325934501Y-151654372D01*
X325935916Y-151657201D01*
X325935916Y-151660029D01*
X325936623Y-151662150D01*
X325936623Y-151664979D01*
X325937330Y-151667100D01*
X325937330Y-151669929D01*
X325937330Y-151672757D01*
X325937330Y-151675585D01*
X325937330Y-151678414D01*
X325936623Y-151680535D01*
X325936623Y-151683364D01*
X325935916Y-151685485D01*
X325935916Y-151688313D01*
X325934501Y-151691142D01*
X325933794Y-151693263D01*
X325932380Y-151696092D01*
X325930966Y-151697506D01*
X325929552Y-151700334D01*
X325928137Y-151701748D01*
X325926723Y-151704577D01*
X325925309Y-151705991D01*
X325923188Y-151708112D01*
X325781766Y-151849534D01*
X325779645Y-151851655D01*
X325778231Y-151853069D01*
X325775402Y-151854483D01*
X325773988Y-151855898D01*
X325771160Y-151857312D01*
X325769746Y-151858726D01*
X325766917Y-151860140D01*
X325764796Y-151860847D01*
X325761967Y-151862262D01*
X325759139Y-151862262D01*
X325757018Y-151862969D01*
X325754189Y-151862969D01*
X325752068Y-151863676D01*
X325749239Y-151863676D01*
X325746411Y-151863676D01*
X325743583Y-151863676D01*
X325740754Y-151863676D01*
X325738633Y-151862969D01*
X325735804Y-151862969D01*
X325733683Y-151862262D01*
X325730855Y-151862262D01*
X325728026Y-151860847D01*
X325725905Y-151860140D01*
X325723076Y-151858726D01*
X325721662Y-151857312D01*
X325718834Y-151855898D01*
X325717420Y-151854483D01*
X325714591Y-151853069D01*
X325713177Y-151851655D01*
X325711056Y-151849534D01*
X325569634Y-151708112D01*
X325567513Y-151705991D01*
X325566099Y-151704577D01*
X325564685Y-151701748D01*
X325563270Y-151700334D01*
X325561856Y-151697506D01*
X325560442Y-151696092D01*
X325559028Y-151693263D01*
X325558321Y-151691142D01*
X325556906Y-151688313D01*
X325556906Y-151685485D01*
X325556199Y-151683364D01*
X325556199Y-151680535D01*
X325555492Y-151678414D01*
X325555492Y-151675585D01*
X325555492Y-151672757D01*
X325555492Y-151669929D01*
X325555492Y-151667100D01*
X325556199Y-151664979D01*
X325556199Y-151662150D01*
X325556906Y-151660029D01*
X325556906Y-151657201D01*
X325558321Y-151654372D01*
X325559028Y-151652251D01*
X325560442Y-151649422D01*
X325561856Y-151648008D01*
X325563270Y-151645180D01*
X325564685Y-151643766D01*
X325566099Y-151640937D01*
X325567513Y-151639523D01*
X325569634Y-151637402D01*
X325711056Y-151495980D01*
X325713177Y-151493859D01*
X325714591Y-151492445D01*
X325717420Y-151491031D01*
X325718834Y-151489616D01*
X325721662Y-151488202D01*
X325723076Y-151486788D01*
X325725905Y-151485374D01*
X325728026Y-151484667D01*
X325730855Y-151483252D01*
X325733683Y-151483252D01*
X325735804Y-151482545D01*
X325738633Y-151482545D01*
X325740754Y-151481838D01*
X325743583Y-151481838D01*
X325746411Y-151481838D01*
X325749239Y-151481838D01*
X325752068Y-151481838D01*
X325754189Y-151482545D01*
G37*
X326206737Y-151510830D02*
X326209566Y-151510830D01*
X326211687Y-151511537D01*
X326214516Y-151511537D01*
X326217344Y-151512951D01*
X326219465Y-151513658D01*
X326222294Y-151515072D01*
X326223708Y-151516486D01*
X326226536Y-151517901D01*
X326227951Y-151519315D01*
X326230779Y-151520729D01*
X326232193Y-151522143D01*
X326234315Y-151524265D01*
X326375736Y-151665686D01*
X326377857Y-151667807D01*
X326379272Y-151669221D01*
X326380686Y-151672050D01*
X326382100Y-151673464D01*
X326383514Y-151676293D01*
X326384928Y-151677707D01*
X326386343Y-151680535D01*
X326387050Y-151682657D01*
X326388464Y-151685485D01*
X326388464Y-151688313D01*
X326389171Y-151690435D01*
X326389171Y-151693263D01*
X326389878Y-151695384D01*
X326389878Y-151698213D01*
X326389878Y-151701041D01*
X326389878Y-151703870D01*
X326389878Y-151706698D01*
X326389171Y-151708819D01*
X326389171Y-151711648D01*
X326388464Y-151713769D01*
X326388464Y-151716598D01*
X326387050Y-151719426D01*
X326386343Y-151721547D01*
X326384928Y-151724376D01*
X326383514Y-151725790D01*
X326382100Y-151728618D01*
X326380686Y-151730033D01*
X326379272Y-151732861D01*
X326377857Y-151734275D01*
X326375736Y-151736397D01*
X326234315Y-151877818D01*
X326232193Y-151879939D01*
X326230779Y-151881354D01*
X326227951Y-151882768D01*
X326226536Y-151884182D01*
X326223708Y-151885596D01*
X326222294Y-151887010D01*
X326219465Y-151888425D01*
X326217344Y-151889132D01*
X326214516Y-151890546D01*
X326211687Y-151890546D01*
X326209566Y-151891253D01*
X326206737Y-151891253D01*
X326204616Y-151891960D01*
X326201788Y-151891960D01*
X326198959Y-151891960D01*
X326196131Y-151891960D01*
X326193302Y-151891960D01*
X326191181Y-151891253D01*
X326188353Y-151891253D01*
X326186231Y-151890546D01*
X326183403Y-151890546D01*
X326180575Y-151889132D01*
X326178453Y-151888425D01*
X326175625Y-151887010D01*
X326174211Y-151885596D01*
X326171382Y-151884182D01*
X326169968Y-151882768D01*
X326167140Y-151881354D01*
X326165725Y-151879939D01*
X326163604Y-151877818D01*
X326022183Y-151736397D01*
X326020061Y-151734275D01*
X326018647Y-151732861D01*
X326017233Y-151730033D01*
X326015819Y-151728618D01*
X326014404Y-151725790D01*
X326012990Y-151724376D01*
X326011576Y-151721547D01*
X326010869Y-151719426D01*
X326009455Y-151716598D01*
X326009455Y-151713769D01*
X326008748Y-151711648D01*
X326008748Y-151708819D01*
X326008040Y-151706698D01*
X326008040Y-151703870D01*
X326008040Y-151701041D01*
X326008040Y-151698213D01*
X326008040Y-151695384D01*
X326008748Y-151693263D01*
X326008748Y-151690435D01*
X326009455Y-151688313D01*
X326009455Y-151685485D01*
X326010869Y-151682657D01*
X326011576Y-151680535D01*
X326012990Y-151677707D01*
X326014404Y-151676293D01*
X326015819Y-151673464D01*
X326017233Y-151672050D01*
X326018647Y-151669221D01*
X326020061Y-151667807D01*
X326022183Y-151665686D01*
X326163604Y-151524265D01*
X326165725Y-151522143D01*
X326167140Y-151520729D01*
X326169968Y-151519315D01*
X326171382Y-151517901D01*
X326174211Y-151516486D01*
X326175625Y-151515072D01*
X326178453Y-151513658D01*
X326180575Y-151512951D01*
X326183403Y-151511537D01*
X326186231Y-151511537D01*
X326188353Y-151510830D01*
X326191181Y-151510830D01*
X326193302Y-151510122D01*
X326196131Y-151510122D01*
X326198959Y-151510122D01*
X326201788Y-151510122D01*
X326204616Y-151510122D01*
X326206737Y-151510830D01*
G36*
X326206737Y-151510830D02*
G01*
X326209566Y-151510830D01*
X326211687Y-151511537D01*
X326214516Y-151511537D01*
X326217344Y-151512951D01*
X326219465Y-151513658D01*
X326222294Y-151515072D01*
X326223708Y-151516486D01*
X326226536Y-151517901D01*
X326227951Y-151519315D01*
X326230779Y-151520729D01*
X326232193Y-151522143D01*
X326234315Y-151524265D01*
X326375736Y-151665686D01*
X326377857Y-151667807D01*
X326379272Y-151669221D01*
X326380686Y-151672050D01*
X326382100Y-151673464D01*
X326383514Y-151676293D01*
X326384928Y-151677707D01*
X326386343Y-151680535D01*
X326387050Y-151682657D01*
X326388464Y-151685485D01*
X326388464Y-151688313D01*
X326389171Y-151690435D01*
X326389171Y-151693263D01*
X326389878Y-151695384D01*
X326389878Y-151698213D01*
X326389878Y-151701041D01*
X326389878Y-151703870D01*
X326389878Y-151706698D01*
X326389171Y-151708819D01*
X326389171Y-151711648D01*
X326388464Y-151713769D01*
X326388464Y-151716598D01*
X326387050Y-151719426D01*
X326386343Y-151721547D01*
X326384928Y-151724376D01*
X326383514Y-151725790D01*
X326382100Y-151728618D01*
X326380686Y-151730033D01*
X326379272Y-151732861D01*
X326377857Y-151734275D01*
X326375736Y-151736397D01*
X326234315Y-151877818D01*
X326232193Y-151879939D01*
X326230779Y-151881354D01*
X326227951Y-151882768D01*
X326226536Y-151884182D01*
X326223708Y-151885596D01*
X326222294Y-151887010D01*
X326219465Y-151888425D01*
X326217344Y-151889132D01*
X326214516Y-151890546D01*
X326211687Y-151890546D01*
X326209566Y-151891253D01*
X326206737Y-151891253D01*
X326204616Y-151891960D01*
X326201788Y-151891960D01*
X326198959Y-151891960D01*
X326196131Y-151891960D01*
X326193302Y-151891960D01*
X326191181Y-151891253D01*
X326188353Y-151891253D01*
X326186231Y-151890546D01*
X326183403Y-151890546D01*
X326180575Y-151889132D01*
X326178453Y-151888425D01*
X326175625Y-151887010D01*
X326174211Y-151885596D01*
X326171382Y-151884182D01*
X326169968Y-151882768D01*
X326167140Y-151881354D01*
X326165725Y-151879939D01*
X326163604Y-151877818D01*
X326022183Y-151736397D01*
X326020061Y-151734275D01*
X326018647Y-151732861D01*
X326017233Y-151730033D01*
X326015819Y-151728618D01*
X326014404Y-151725790D01*
X326012990Y-151724376D01*
X326011576Y-151721547D01*
X326010869Y-151719426D01*
X326009455Y-151716598D01*
X326009455Y-151713769D01*
X326008748Y-151711648D01*
X326008748Y-151708819D01*
X326008040Y-151706698D01*
X326008040Y-151703870D01*
X326008040Y-151701041D01*
X326008040Y-151698213D01*
X326008040Y-151695384D01*
X326008748Y-151693263D01*
X326008748Y-151690435D01*
X326009455Y-151688313D01*
X326009455Y-151685485D01*
X326010869Y-151682657D01*
X326011576Y-151680535D01*
X326012990Y-151677707D01*
X326014404Y-151676293D01*
X326015819Y-151673464D01*
X326017233Y-151672050D01*
X326018647Y-151669221D01*
X326020061Y-151667807D01*
X326022183Y-151665686D01*
X326163604Y-151524265D01*
X326165725Y-151522143D01*
X326167140Y-151520729D01*
X326169968Y-151519315D01*
X326171382Y-151517901D01*
X326174211Y-151516486D01*
X326175625Y-151515072D01*
X326178453Y-151513658D01*
X326180575Y-151512951D01*
X326183403Y-151511537D01*
X326186231Y-151511537D01*
X326188353Y-151510830D01*
X326191181Y-151510830D01*
X326193302Y-151510122D01*
X326196131Y-151510122D01*
X326198959Y-151510122D01*
X326201788Y-151510122D01*
X326204616Y-151510122D01*
X326206737Y-151510830D01*
G37*
%TO.C,JP16*%
G36*
X350550000Y-211250000D02*
G01*
X350850000Y-211250000D01*
X350850000Y-212750000D01*
X350550000Y-212750000D01*
X350550000Y-211250000D01*
G37*
%TO.C,JP23*%
G36*
X360300000Y-142050000D02*
G01*
X360600000Y-142050000D01*
X360600000Y-143550000D01*
X360300000Y-143550000D01*
X360300000Y-142050000D01*
G37*
%TO.C,JP22*%
G36*
X360300000Y-139350000D02*
G01*
X360600000Y-139350000D01*
X360600000Y-140850000D01*
X360300000Y-140850000D01*
X360300000Y-139350000D01*
G37*
%TO.C,JP24*%
G36*
X360300000Y-150150000D02*
G01*
X360600000Y-150150000D01*
X360600000Y-151650000D01*
X360300000Y-151650000D01*
X360300000Y-150150000D01*
G37*
%TO.C,JP21*%
G36*
X360300000Y-144750000D02*
G01*
X360600000Y-144750000D01*
X360600000Y-146250000D01*
X360300000Y-146250000D01*
X360300000Y-144750000D01*
G37*
%TO.C,JP20*%
G36*
X360300000Y-147450000D02*
G01*
X360600000Y-147450000D01*
X360600000Y-148950000D01*
X360300000Y-148950000D01*
X360300000Y-147450000D01*
G37*
%TO.C,JP8*%
G36*
X331040000Y-118680000D02*
G01*
X332540000Y-118680000D01*
X332540000Y-120180000D01*
X331040000Y-120180000D01*
X331040000Y-118680000D01*
G37*
%TO.C,JP18*%
G36*
X343050000Y-272800000D02*
G01*
X344550000Y-272800000D01*
X344550000Y-273100000D01*
X343050000Y-273100000D01*
X343050000Y-272800000D01*
G37*
%TD*%
D12*
%TO.C,H28*%
X300408777Y-106026767D03*
%TD*%
%TO.C,H27*%
X385141228Y-252787678D03*
%TD*%
%TO.C,H46*%
X328205183Y-107716999D03*
%TD*%
%TO.C,H33*%
X400873867Y-183858485D03*
%TD*%
D13*
%TO.C,R30*%
X321325000Y-129500000D03*
X323150000Y-129500000D03*
%TD*%
D14*
%TO.C,U2*%
X381050000Y-223207500D03*
X381050000Y-224477500D03*
X381050000Y-225747500D03*
X381050000Y-227017500D03*
D15*
X383500000Y-225112500D03*
D14*
X385950000Y-227017500D03*
X385950000Y-225747500D03*
X385950000Y-224477500D03*
X385950000Y-223207500D03*
%TD*%
D16*
%TO.C,C8*%
X388132500Y-223312500D03*
X389267500Y-223312500D03*
%TD*%
D12*
%TO.C,H42*%
X340200000Y-144520834D03*
%TD*%
D17*
%TO.C,U7*%
X285740382Y-150527854D03*
X285386829Y-150881407D03*
X285033275Y-151234962D03*
X284679722Y-151588514D03*
X284326168Y-151942068D03*
X283972614Y-152295622D03*
X283619062Y-152649174D03*
X283265508Y-153002729D03*
X282911955Y-153356281D03*
X282558400Y-153709836D03*
D18*
X282558400Y-154629072D03*
X282911953Y-154982625D03*
X283265508Y-155336179D03*
X283619060Y-155689732D03*
X283972614Y-156043286D03*
X284326168Y-156396840D03*
X284679720Y-156750392D03*
X285033275Y-157103946D03*
X285386827Y-157457499D03*
X285740382Y-157811054D03*
D17*
X286659618Y-157811054D03*
X287013173Y-157457499D03*
X287366725Y-157103946D03*
X287720280Y-156750392D03*
X288073832Y-156396840D03*
X288427386Y-156043286D03*
X288780940Y-155689732D03*
X289134492Y-155336179D03*
X289488047Y-154982625D03*
X289841600Y-154629072D03*
D18*
X289841600Y-153709836D03*
X289488045Y-153356281D03*
X289134492Y-153002729D03*
X288780938Y-152649174D03*
X288427386Y-152295622D03*
X288073832Y-151942068D03*
X287720278Y-151588514D03*
X287366725Y-151234962D03*
X287013171Y-150881407D03*
X286659618Y-150527854D03*
D19*
X285482287Y-152483004D03*
X284513550Y-153451741D03*
X286917713Y-152483004D03*
X284513550Y-154887167D03*
X286200000Y-153200718D03*
X285231264Y-154169454D03*
D20*
X286200000Y-154169454D03*
D19*
X287168736Y-154169454D03*
X286200000Y-155138190D03*
X287886450Y-153451741D03*
X285482287Y-155855904D03*
X287886450Y-154887167D03*
X286917713Y-155855904D03*
%TD*%
D21*
%TO.C,J2*%
X331631926Y-151010713D03*
D22*
X329156974Y-151576476D03*
X332197534Y-148535917D03*
X325762862Y-148182364D03*
X328803421Y-145141804D03*
D23*
X326328625Y-145707412D03*
D24*
X330313172Y-150915253D03*
X331536467Y-149691959D03*
X329252512Y-149854593D03*
X330475806Y-148631299D03*
X328898959Y-149501041D03*
X328545405Y-149147487D03*
X328191851Y-148793933D03*
X327838297Y-148440379D03*
X326424085Y-147026166D03*
X327647379Y-145802871D03*
X327484745Y-148086826D03*
X328708039Y-146863532D03*
X329061592Y-147217084D03*
X329415146Y-147570638D03*
X329768700Y-147924192D03*
X330122254Y-148277746D03*
%TD*%
D25*
%TO.C,R10*%
X361102500Y-197900000D03*
X362297500Y-197900000D03*
%TD*%
D26*
%TO.C,Q9*%
X309449616Y-279635831D03*
X307946436Y-280531907D03*
%TD*%
D27*
%TO.C,JP19*%
X359800000Y-137400000D03*
D28*
X361100000Y-137400000D03*
%TD*%
D12*
%TO.C,H47*%
X245700000Y-199080434D03*
%TD*%
D29*
%TO.C,R24*%
X350887500Y-274650000D03*
X349692500Y-274650000D03*
%TD*%
D30*
%TO.C,R7*%
X383600000Y-228600000D03*
X383600000Y-230425000D03*
%TD*%
D12*
%TO.C,H16*%
X260855393Y-279321464D03*
%TD*%
D13*
%TO.C,R25*%
X303987500Y-125900000D03*
X305812500Y-125900000D03*
%TD*%
D12*
%TO.C,H20*%
X303029688Y-292330511D03*
%TD*%
D31*
%TO.C,TP5*%
X238700000Y-207700000D03*
%TD*%
D32*
%TO.C,C2*%
X383249999Y-205062500D03*
X383249999Y-203337500D03*
%TD*%
D12*
%TO.C,H14*%
X239329536Y-261654135D03*
%TD*%
D25*
%TO.C,R50*%
X304502500Y-277500000D03*
X305697500Y-277500000D03*
%TD*%
D12*
%TO.C,H53*%
X371700000Y-199080434D03*
%TD*%
%TO.C,H26*%
X378070464Y-261654135D03*
%TD*%
%TO.C,H7*%
X216526133Y-183858485D03*
%TD*%
D25*
%TO.C,R44*%
X315600000Y-274600000D03*
X316795000Y-274600000D03*
%TD*%
D33*
%TO.C,C1*%
X390449999Y-207200000D03*
X390449999Y-211600000D03*
%TD*%
D12*
%TO.C,H17*%
X275795661Y-286516318D03*
%TD*%
D34*
%TO.C,D8*%
X318887500Y-129500000D03*
X315912500Y-129500000D03*
%TD*%
D35*
%TO.C,U1*%
X312823263Y-144851333D03*
X312540420Y-145134176D03*
X312257577Y-145417019D03*
X311974735Y-145699861D03*
X311691892Y-145982704D03*
X311409049Y-146265547D03*
X311126207Y-146548390D03*
X310843364Y-146831232D03*
X310560521Y-147114075D03*
X310277678Y-147396918D03*
X309994836Y-147679760D03*
X309711993Y-147962603D03*
X309429150Y-148245446D03*
X309146308Y-148528289D03*
X308863465Y-148811131D03*
X308580622Y-149093974D03*
X308297779Y-149376817D03*
X308014937Y-149659659D03*
X307732094Y-149942502D03*
X307449251Y-150225345D03*
D36*
X307449251Y-151776737D03*
X307732094Y-152059580D03*
X308014937Y-152342423D03*
X308297779Y-152625265D03*
X308580622Y-152908108D03*
X308863465Y-153190951D03*
X309146308Y-153473793D03*
X309429150Y-153756636D03*
X309711993Y-154039479D03*
X309994836Y-154322322D03*
X310277678Y-154605164D03*
X310560521Y-154888007D03*
X310843364Y-155170850D03*
X311126207Y-155453692D03*
X311409049Y-155736535D03*
X311691892Y-156019378D03*
X311974735Y-156302221D03*
X312257577Y-156585063D03*
X312540420Y-156867906D03*
X312823263Y-157150749D03*
D35*
X314374655Y-157150749D03*
X314657498Y-156867906D03*
X314940341Y-156585063D03*
X315223183Y-156302221D03*
X315506026Y-156019378D03*
X315788869Y-155736535D03*
X316071711Y-155453692D03*
X316354554Y-155170850D03*
X316637397Y-154888007D03*
X316920240Y-154605164D03*
X317203082Y-154322322D03*
X317485925Y-154039479D03*
X317768768Y-153756636D03*
X318051610Y-153473793D03*
X318334453Y-153190951D03*
X318617296Y-152908108D03*
X318900139Y-152625265D03*
X319182981Y-152342423D03*
X319465824Y-152059580D03*
X319748667Y-151776737D03*
D36*
X319748667Y-150225345D03*
X319465824Y-149942502D03*
X319182981Y-149659659D03*
X318900139Y-149376817D03*
X318617296Y-149093974D03*
X318334453Y-148811131D03*
X318051610Y-148528289D03*
X317768768Y-148245446D03*
X317485925Y-147962603D03*
X317203082Y-147679760D03*
X316920240Y-147396918D03*
X316637397Y-147114075D03*
X316354554Y-146831232D03*
X316071711Y-146548390D03*
X315788869Y-146265547D03*
X315506026Y-145982704D03*
X315223183Y-145699861D03*
X314940341Y-145417019D03*
X314657498Y-145134176D03*
X314374655Y-144851333D03*
D19*
X313669670Y-149657538D03*
X312962563Y-150364645D03*
X312255456Y-151071752D03*
X314306066Y-150293934D03*
X313598959Y-151001041D03*
D37*
X313598959Y-151001041D03*
D19*
X312891852Y-151708148D03*
X314200000Y-151602082D03*
X313492893Y-152309189D03*
X315083883Y-151071752D03*
%TD*%
D38*
%TO.C,C3*%
X388537500Y-203400000D03*
X390262500Y-203400000D03*
%TD*%
D12*
%TO.C,H1*%
X263131533Y-117525274D03*
%TD*%
%TO.C,H30*%
X397575647Y-227870168D03*
%TD*%
D39*
%TO.C,Q3*%
X255700000Y-140420000D03*
D40*
X250900000Y-141420000D03*
D41*
X251500000Y-149470000D03*
%TD*%
D13*
%TO.C,R29*%
X321325000Y-125300000D03*
X323150000Y-125300000D03*
%TD*%
D31*
%TO.C,TP9*%
X230700000Y-220000000D03*
%TD*%
D12*
%TO.C,H51*%
X340200000Y-253640034D03*
%TD*%
D30*
%TO.C,R6*%
X385300000Y-228600000D03*
X385300000Y-230425000D03*
%TD*%
D34*
%TO.C,D3*%
X301887500Y-125900000D03*
X298912500Y-125900000D03*
%TD*%
D42*
%TO.C,C14*%
X371600000Y-156167500D03*
X371600000Y-155032500D03*
%TD*%
D43*
%TO.C,D2*%
X384150000Y-220012500D03*
X388450000Y-220012500D03*
%TD*%
D12*
%TO.C,H29*%
X393432451Y-238426858D03*
%TD*%
D26*
%TO.C,Q8*%
X309449616Y-282135831D03*
X307946436Y-283031907D03*
%TD*%
D44*
%TO.C,R40*%
X362812500Y-211900000D03*
X360987500Y-211900000D03*
%TD*%
D39*
%TO.C,Q1*%
X289700000Y-120820000D03*
D40*
X284900000Y-121820000D03*
D41*
X285500000Y-129870000D03*
%TD*%
D45*
%TO.C,J1*%
X295200000Y-246800000D03*
D46*
X302400000Y-246800000D03*
%TD*%
D34*
%TO.C,D5*%
X309900000Y-116000000D03*
X306925000Y-116000000D03*
%TD*%
D12*
%TO.C,H15*%
X251485329Y-272933063D03*
%TD*%
%TO.C,H24*%
X356544607Y-279321464D03*
%TD*%
D47*
%TO.C,R35*%
X338900000Y-125200000D03*
X338900000Y-123375000D03*
%TD*%
D12*
%TO.C,H45*%
X254140400Y-167580434D03*
%TD*%
%TO.C,H19*%
X289194817Y-107716999D03*
%TD*%
D31*
%TO.C,TP6*%
X230700000Y-196500000D03*
%TD*%
D48*
%TO.C,R19*%
X273450000Y-137920000D03*
X276550000Y-137920000D03*
%TD*%
D49*
%TO.C,J8*%
X331300000Y-123860000D03*
D50*
X331300000Y-126400000D03*
X331300000Y-128940000D03*
%TD*%
D25*
%TO.C,R49*%
X315602500Y-285500000D03*
X316797500Y-285500000D03*
%TD*%
D38*
%TO.C,C7*%
X380937500Y-216712500D03*
X382662500Y-216712500D03*
%TD*%
D51*
%TO.C,R15*%
X291277504Y-158522496D03*
X292122496Y-157677504D03*
%TD*%
D12*
%TO.C,H38*%
X376282794Y-134580082D03*
%TD*%
D25*
%TO.C,R46*%
X304502500Y-282500000D03*
X305697500Y-282500000D03*
%TD*%
D12*
%TO.C,H48*%
X254140400Y-230580434D03*
%TD*%
D29*
%TO.C,R43*%
X313297500Y-285500000D03*
X312102500Y-285500000D03*
%TD*%
D52*
%TO.C,JP16*%
X351350000Y-212000000D03*
D53*
X350050000Y-212000000D03*
%TD*%
D54*
%TO.C,R9*%
X371805000Y-147885000D03*
X371805000Y-146690000D03*
%TD*%
D55*
%TO.C,L2*%
X378500000Y-221862500D03*
X378500000Y-218162500D03*
%TD*%
D12*
%TO.C,H49*%
X277200000Y-253640034D03*
%TD*%
D27*
%TO.C,JP23*%
X359800000Y-142800000D03*
D28*
X361100000Y-142800000D03*
%TD*%
D56*
%TO.C,Q17*%
X347200000Y-277850000D03*
X347200000Y-275950000D03*
X343780000Y-276900000D03*
%TD*%
D57*
%TO.C,Q5*%
X246380000Y-167400000D03*
D58*
X245380000Y-162600000D03*
D59*
X237330000Y-163200000D03*
%TD*%
D60*
%TO.C,D19*%
X302210000Y-275075439D03*
X305185000Y-275075439D03*
%TD*%
D34*
%TO.C,D4*%
X301887500Y-130100000D03*
X298912500Y-130100000D03*
%TD*%
D12*
%TO.C,H5*%
X225107908Y-157366030D03*
%TD*%
D32*
%TO.C,C9*%
X381800000Y-221600000D03*
X381800000Y-219875000D03*
%TD*%
D51*
%TO.C,R16*%
X289777504Y-158522496D03*
X290622496Y-157677504D03*
%TD*%
D12*
%TO.C,H37*%
X316991223Y-106026767D03*
%TD*%
D61*
%TO.C,TP11*%
X387600000Y-193400000D03*
%TD*%
D13*
%TO.C,R28*%
X312187500Y-120200000D03*
X314012500Y-120200000D03*
%TD*%
D62*
%TO.C,D13*%
X338900000Y-127600000D03*
X338900000Y-130575000D03*
%TD*%
D38*
%TO.C,C38*%
X238237500Y-156400000D03*
X239962500Y-156400000D03*
%TD*%
D13*
%TO.C,R26*%
X303987500Y-130100000D03*
X305812500Y-130100000D03*
%TD*%
D12*
%TO.C,H2*%
X249430473Y-126866498D03*
%TD*%
%TO.C,H18*%
X286632453Y-289859026D03*
%TD*%
D29*
%TO.C,R11*%
X362397500Y-193000000D03*
X361202500Y-193000000D03*
%TD*%
D12*
%TO.C,H43*%
X308700000Y-136080434D03*
%TD*%
D63*
%TO.C,R14*%
X320398959Y-147101041D03*
X319553967Y-147946033D03*
%TD*%
D39*
%TO.C,Q4*%
X258500000Y-142500000D03*
D64*
X263300000Y-141500000D03*
D65*
X262700000Y-133450000D03*
%TD*%
D34*
%TO.C,D18*%
X357987500Y-211900000D03*
X355012500Y-211900000D03*
%TD*%
D66*
%TO.C,C12*%
X306597676Y-156599758D03*
X307400242Y-157402324D03*
%TD*%
D27*
%TO.C,JP22*%
X359800000Y-140100000D03*
D28*
X361100000Y-140100000D03*
%TD*%
D67*
%TO.C,C39*%
X274297866Y-155061868D03*
X277902134Y-152538132D03*
%TD*%
D39*
%TO.C,Q2*%
X270400000Y-134400000D03*
D64*
X275200000Y-133400000D03*
D65*
X274600000Y-125350000D03*
%TD*%
D12*
%TO.C,H22*%
X330767547Y-289859026D03*
%TD*%
D29*
%TO.C,R48*%
X313297500Y-280000000D03*
X312102500Y-280000000D03*
%TD*%
D27*
%TO.C,JP24*%
X359800000Y-150900000D03*
D28*
X361100000Y-150900000D03*
%TD*%
D68*
%TO.C,U3*%
X384949999Y-206803500D03*
X385900000Y-206803500D03*
X386850001Y-206803500D03*
X386850001Y-204200000D03*
X385900000Y-204200000D03*
X384949999Y-204200000D03*
%TD*%
D63*
%TO.C,R13*%
X319698959Y-146401041D03*
X318853967Y-147246033D03*
%TD*%
D12*
%TO.C,H32*%
X402113074Y-200394564D03*
%TD*%
%TO.C,H21*%
X314370312Y-292330511D03*
%TD*%
%TO.C,H31*%
X401265588Y-211703478D03*
%TD*%
%TO.C,H23*%
X341604339Y-286516318D03*
%TD*%
%TO.C,H6*%
X219049660Y-172802194D03*
%TD*%
%TO.C,H8*%
X215286926Y-200394564D03*
%TD*%
%TO.C,H41*%
X344050917Y-112604761D03*
%TD*%
D69*
%TO.C,R17*%
X264550000Y-146400000D03*
X261450000Y-146400000D03*
%TD*%
D70*
%TO.C,R8*%
X309421455Y-158623537D03*
X308576463Y-157778545D03*
%TD*%
D12*
%TO.C,H10*%
X273349083Y-112604761D03*
%TD*%
%TO.C,H35*%
X392292092Y-157366030D03*
%TD*%
%TO.C,H4*%
X230778220Y-147544761D03*
%TD*%
%TO.C,H25*%
X365914671Y-272933063D03*
%TD*%
D31*
%TO.C,TP7*%
X230700000Y-189500000D03*
%TD*%
D71*
%TO.C,J6*%
X353500000Y-227400000D03*
D46*
X353500000Y-220200000D03*
%TD*%
D72*
%TO.C,D1*%
X337250000Y-246800000D03*
X332950000Y-246800000D03*
%TD*%
D27*
%TO.C,JP21*%
X359800000Y-145500000D03*
D28*
X361100000Y-145500000D03*
%TD*%
D34*
%TO.C,D6*%
X309900000Y-120200000D03*
X306925000Y-120200000D03*
%TD*%
D31*
%TO.C,TP4*%
X238700000Y-200200000D03*
%TD*%
D62*
%TO.C,D16*%
X335600000Y-127600000D03*
X335600000Y-130575000D03*
%TD*%
D13*
%TO.C,R3*%
X377587500Y-224212500D03*
X379412500Y-224212500D03*
%TD*%
D12*
%TO.C,H52*%
X363259600Y-230580434D03*
%TD*%
D29*
%TO.C,R55*%
X313297500Y-274600000D03*
X312102500Y-274600000D03*
%TD*%
D73*
%TO.C,C6*%
X379100000Y-227037500D03*
X379100000Y-228762500D03*
%TD*%
D12*
%TO.C,H34*%
X398350340Y-172802194D03*
%TD*%
D34*
%TO.C,D23*%
X315185000Y-277575439D03*
X312210000Y-277575439D03*
%TD*%
D26*
%TO.C,Q10*%
X309449386Y-277132960D03*
X307946206Y-278029036D03*
%TD*%
D27*
%TO.C,JP20*%
X359800000Y-148200000D03*
D28*
X361100000Y-148200000D03*
%TD*%
D74*
%TO.C,JP8*%
X331790000Y-118130000D03*
D75*
X331790000Y-119430000D03*
D76*
X331790000Y-120730000D03*
%TD*%
D25*
%TO.C,R51*%
X315602500Y-280000000D03*
X316797500Y-280000000D03*
%TD*%
D77*
%TO.C,J7*%
X322100000Y-246800000D03*
D46*
X314900000Y-246800000D03*
%TD*%
D12*
%TO.C,H13*%
X232258772Y-252787678D03*
%TD*%
D60*
%TO.C,D20*%
X302210000Y-280085439D03*
X305185000Y-280085439D03*
%TD*%
D34*
%TO.C,D7*%
X318887500Y-125300000D03*
X315912500Y-125300000D03*
%TD*%
D12*
%TO.C,H44*%
X277200000Y-144520834D03*
%TD*%
D78*
%TO.C,SW1*%
X359800000Y-195400000D03*
X364000000Y-195400000D03*
%TD*%
D66*
%TO.C,C13*%
X308297676Y-158999758D03*
X309100242Y-159802324D03*
%TD*%
D79*
%TO.C,JP18*%
X343800000Y-273600000D03*
D80*
X343800000Y-272300000D03*
%TD*%
D49*
%TO.C,J5*%
X348560000Y-132400000D03*
D50*
X351100000Y-132400000D03*
X353640000Y-132400000D03*
%TD*%
D38*
%TO.C,C4*%
X384987499Y-208500000D03*
X386712499Y-208500000D03*
%TD*%
D12*
%TO.C,H3*%
X241117206Y-134580082D03*
%TD*%
%TO.C,H39*%
X367969527Y-126866498D03*
%TD*%
D31*
%TO.C,TP8*%
X230700000Y-213000000D03*
%TD*%
D29*
%TO.C,R47*%
X302395000Y-282500000D03*
X301200000Y-282500000D03*
%TD*%
D12*
%TO.C,H36*%
X386621780Y-147544761D03*
%TD*%
D81*
%TO.C,C5*%
X379567500Y-225712500D03*
X378432500Y-225712500D03*
%TD*%
D82*
%TO.C,C37*%
X249262500Y-154000000D03*
X247537500Y-154000000D03*
%TD*%
D26*
%TO.C,Q11*%
X309454016Y-274633078D03*
X307950836Y-275529154D03*
%TD*%
D47*
%TO.C,R38*%
X335600000Y-125200000D03*
X335600000Y-123375000D03*
%TD*%
D83*
%TO.C,U5*%
X370005000Y-147412500D03*
X368735000Y-147412500D03*
X367465000Y-147412500D03*
X366195000Y-147412500D03*
X366195000Y-154587500D03*
X367465000Y-154587500D03*
X368735000Y-154587500D03*
X370005000Y-154587500D03*
%TD*%
D12*
%TO.C,H9*%
X219824353Y-227870168D03*
%TD*%
%TO.C,H50*%
X308700000Y-262080434D03*
%TD*%
D60*
%TO.C,D21*%
X302210000Y-285075439D03*
X305185000Y-285075439D03*
%TD*%
D12*
%TO.C,H54*%
X363259600Y-167580434D03*
%TD*%
D84*
%TO.C,Y1*%
X303441243Y-158247487D03*
X304996878Y-159803122D03*
X306198959Y-158601041D03*
X304643324Y-157045406D03*
%TD*%
D12*
%TO.C,H11*%
X216134412Y-211703478D03*
%TD*%
D85*
%TO.C,L1*%
X383824999Y-199700000D03*
X387474999Y-199700000D03*
%TD*%
D29*
%TO.C,R45*%
X302397500Y-277500000D03*
X301202500Y-277500000D03*
%TD*%
D61*
%TO.C,TP12*%
X377900000Y-213100000D03*
%TD*%
D29*
%TO.C,R4*%
X387897500Y-228512500D03*
X386702500Y-228512500D03*
%TD*%
D34*
%TO.C,D22*%
X315185000Y-282575439D03*
X312210000Y-282575439D03*
%TD*%
D86*
%TO.C,SW2*%
X364000000Y-200200000D03*
X359800000Y-200200000D03*
%TD*%
D30*
%TO.C,R5*%
X377000000Y-225787500D03*
X377000000Y-227612500D03*
%TD*%
D82*
%TO.C,C36*%
X284762500Y-134300000D03*
X283037500Y-134300000D03*
%TD*%
D87*
%TO.C,R18*%
X231400000Y-168250000D03*
X231400000Y-165150000D03*
%TD*%
D57*
%TO.C,Q6*%
X231220000Y-170400000D03*
D88*
X232220000Y-175200000D03*
D89*
X240270000Y-174600000D03*
%TD*%
D13*
%TO.C,R27*%
X312187500Y-116000000D03*
X314012500Y-116000000D03*
%TD*%
D12*
%TO.C,H40*%
X354268467Y-117525274D03*
%TD*%
D26*
%TO.C,Q7*%
X309449616Y-284635831D03*
X307946436Y-285531907D03*
%TD*%
D12*
%TO.C,H12*%
X223967549Y-238426858D03*
%TD*%
D90*
%TO.C,J4*%
X265100000Y-188762500D03*
D91*
X266100000Y-188762500D03*
X267100000Y-188762500D03*
X268100000Y-188762500D03*
%TD*%
D90*
%TO.C,J3*%
X268100000Y-191262500D03*
D91*
X267100000Y-191262500D03*
X266100000Y-191262500D03*
X265100000Y-191262500D03*
%TD*%
M02*
