%TF.GenerationSoftware,KiCad,Pcbnew,10.0.1*%
%TF.CreationDate,2026-05-25T11:42:26-07:00*%
%TF.ProjectId,eye-of-terror,6579652d-6f66-42d7-9465-72726f722e6b,rev?*%
%TF.SameCoordinates,Original*%
%TF.FileFunction,Drillmap*%
%TF.FilePolarity,Positive*%
%FSLAX45Y45*%
G04 Gerber Fmt 4.5, Leading zero omitted, Abs format (unit mm)*
G04 Created by KiCad (PCBNEW 10.0.1) date 2026-05-25 11:42:26*
%MOMM*%
%LPD*%
G01*
G04 APERTURE LIST*
%ADD10C,0.250000*%
%ADD11C,0.050000*%
%ADD12C,0.200000*%
%ADD13C,0.100000*%
%ADD14C,0.320000*%
G04 APERTURE END LIST*
D10*
X27120000Y-16158043D02*
X27120000Y-23658043D01*
X27120000Y-23658043D02*
X34620000Y-23658043D01*
X40870000Y-19908043D02*
G75*
G02*
X20870000Y-19908043I-10000000J0D01*
G01*
X20870000Y-19908043D02*
G75*
G02*
X40870000Y-19908043I10000000J0D01*
G01*
X34620000Y-16158043D02*
X27120000Y-16158043D01*
X34620000Y-23658043D02*
X34620000Y-16158043D01*
D11*
X35090000Y-18141250D02*
X36290000Y-18141250D01*
X36290000Y-19141250D01*
X35090000Y-19141250D01*
X35090000Y-18141250D01*
D12*
D13*
X32600362Y-14538241D02*
X32665362Y-14603241D01*
X32665362Y-14538241D02*
X32600362Y-14603241D01*
X32664682Y-14556599D02*
X32647005Y-14538921D01*
X32601043Y-14584883D02*
G75*
G02*
X32647005Y-14538921I22981J22981D01*
G01*
X32601043Y-14584883D02*
X32618720Y-14602561D01*
X32618720Y-14602561D02*
G75*
G03*
X32664682Y-14556599I22981J22981D01*
G01*
X33130693Y-15068571D02*
X33195693Y-15133571D01*
X33195693Y-15068571D02*
X33130693Y-15133571D01*
X32611286Y-14818236D02*
G75*
G02*
X32541286Y-14818236I-35000J0D01*
G01*
X32541286Y-14818236D02*
G75*
G02*
X32611286Y-14818236I35000J0D01*
G01*
X32915342Y-14514180D02*
G75*
G02*
X32845342Y-14514180I-35000J0D01*
G01*
X32845342Y-14514180D02*
G75*
G02*
X32915342Y-14514180I35000J0D01*
G01*
X32950697Y-15157648D02*
G75*
G02*
X32880697Y-15157648I-35000J0D01*
G01*
X32880697Y-15157648D02*
G75*
G02*
X32950697Y-15157648I35000J0D01*
G01*
X33254753Y-14853592D02*
G75*
G02*
X33184753Y-14853592I-35000J0D01*
G01*
X33184753Y-14853592D02*
G75*
G02*
X33254753Y-14853592I35000J0D01*
G01*
D14*
X21528693Y-19879456D02*
X21528693Y-20199456D01*
X21368693Y-20039456D02*
X21688693Y-20039456D01*
X21613441Y-21010348D02*
X21613441Y-21330348D01*
X21453441Y-21170348D02*
X21773441Y-21170348D01*
X21652613Y-18225849D02*
X21652613Y-18545849D01*
X21492613Y-18385849D02*
X21812613Y-18385849D01*
X21904966Y-17120219D02*
X21904966Y-17440219D01*
X21744966Y-17280219D02*
X22064966Y-17280219D01*
X21982435Y-22627017D02*
X21982435Y-22947017D01*
X21822435Y-22787017D02*
X22142435Y-22787017D01*
X22396755Y-23682686D02*
X22396755Y-24002686D01*
X22236755Y-23842686D02*
X22556755Y-23842686D01*
X22510791Y-15576603D02*
X22510791Y-15896603D01*
X22350791Y-15736603D02*
X22670791Y-15736603D01*
X23077822Y-14594476D02*
X23077822Y-14914476D01*
X22917822Y-14754476D02*
X23237822Y-14754476D01*
X23225877Y-25118768D02*
X23225877Y-25438768D01*
X23065877Y-25278768D02*
X23385877Y-25278768D01*
X23932954Y-26005413D02*
X23932954Y-26325413D01*
X23772954Y-26165413D02*
X24092954Y-26165413D01*
X24111721Y-13298008D02*
X24111721Y-13618008D01*
X23951721Y-13458008D02*
X24271721Y-13458008D01*
X24570000Y-19748043D02*
X24570000Y-20068043D01*
X24410000Y-19908043D02*
X24730000Y-19908043D01*
X24943047Y-12526650D02*
X24943047Y-12846650D01*
X24783047Y-12686650D02*
X25103047Y-12686650D01*
X25148533Y-27133306D02*
X25148533Y-27453306D01*
X24988533Y-27293306D02*
X25308533Y-27293306D01*
X25414040Y-16598043D02*
X25414040Y-16918043D01*
X25254040Y-16758043D02*
X25574040Y-16758043D01*
X25414040Y-22898043D02*
X25414040Y-23218043D01*
X25254040Y-23058043D02*
X25574040Y-23058043D01*
X26085539Y-27772146D02*
X26085539Y-28092146D01*
X25925539Y-27932146D02*
X26245539Y-27932146D01*
X26313153Y-11592527D02*
X26313153Y-11912527D01*
X26153153Y-11752527D02*
X26473153Y-11752527D01*
X27334908Y-11100476D02*
X27334908Y-11420476D01*
X27174908Y-11260476D02*
X27494908Y-11260476D01*
X27579566Y-28491632D02*
X27579566Y-28811632D01*
X27419566Y-28651632D02*
X27739566Y-28651632D01*
X27720000Y-14292083D02*
X27720000Y-14612083D01*
X27560000Y-14452083D02*
X27880000Y-14452083D01*
X27720000Y-25204003D02*
X27720000Y-25524003D01*
X27560000Y-25364003D02*
X27880000Y-25364003D01*
X28663245Y-28825903D02*
X28663245Y-29145903D01*
X28503245Y-28985903D02*
X28823245Y-28985903D01*
X28919482Y-10611700D02*
X28919482Y-10931700D01*
X28759482Y-10771700D02*
X29079482Y-10771700D01*
X30040878Y-10442677D02*
X30040878Y-10762677D01*
X29880878Y-10602677D02*
X30200878Y-10602677D01*
X30302969Y-29073051D02*
X30302969Y-29393051D01*
X30142969Y-29233051D02*
X30462969Y-29233051D01*
X30870000Y-13448043D02*
X30870000Y-13768043D01*
X30710000Y-13608043D02*
X31030000Y-13608043D01*
X30870000Y-26048043D02*
X30870000Y-26368043D01*
X30710000Y-26208043D02*
X31030000Y-26208043D01*
X31437031Y-29073051D02*
X31437031Y-29393051D01*
X31277031Y-29233051D02*
X31597031Y-29233051D01*
X31699122Y-10442677D02*
X31699122Y-10762677D01*
X31539122Y-10602677D02*
X31859122Y-10602677D01*
X32820518Y-10611700D02*
X32820518Y-10931700D01*
X32660518Y-10771700D02*
X32980518Y-10771700D01*
X33076755Y-28825903D02*
X33076755Y-29145903D01*
X32916755Y-28985903D02*
X33236755Y-28985903D01*
X34020000Y-14292083D02*
X34020000Y-14612083D01*
X33860000Y-14452083D02*
X34180000Y-14452083D01*
X34020000Y-25204003D02*
X34020000Y-25524003D01*
X33860000Y-25364003D02*
X34180000Y-25364003D01*
X34160434Y-28491632D02*
X34160434Y-28811632D01*
X34000434Y-28651632D02*
X34320434Y-28651632D01*
X34405092Y-11100476D02*
X34405092Y-11420476D01*
X34245092Y-11260476D02*
X34565092Y-11260476D01*
X35426847Y-11592527D02*
X35426847Y-11912527D01*
X35266847Y-11752527D02*
X35586847Y-11752527D01*
X35654461Y-27772146D02*
X35654461Y-28092146D01*
X35494461Y-27932146D02*
X35814461Y-27932146D01*
X36325960Y-16598043D02*
X36325960Y-16918043D01*
X36165960Y-16758043D02*
X36485960Y-16758043D01*
X36325960Y-22898043D02*
X36325960Y-23218043D01*
X36165960Y-23058043D02*
X36485960Y-23058043D01*
X36591467Y-27133306D02*
X36591467Y-27453306D01*
X36431467Y-27293306D02*
X36751467Y-27293306D01*
X36796953Y-12526650D02*
X36796953Y-12846650D01*
X36636953Y-12686650D02*
X36956953Y-12686650D01*
X37170000Y-19748043D02*
X37170000Y-20068043D01*
X37010000Y-19908043D02*
X37330000Y-19908043D01*
X37628279Y-13298008D02*
X37628279Y-13618008D01*
X37468279Y-13458008D02*
X37788279Y-13458008D01*
X37807046Y-26005413D02*
X37807046Y-26325413D01*
X37647046Y-26165413D02*
X37967046Y-26165413D01*
X38514123Y-25118768D02*
X38514123Y-25438768D01*
X38354123Y-25278768D02*
X38674123Y-25278768D01*
X38662178Y-14594476D02*
X38662178Y-14914476D01*
X38502178Y-14754476D02*
X38822178Y-14754476D01*
X39229209Y-15576603D02*
X39229209Y-15896603D01*
X39069209Y-15736603D02*
X39389209Y-15736603D01*
X39343245Y-23682686D02*
X39343245Y-24002686D01*
X39183245Y-23842686D02*
X39503245Y-23842686D01*
X39757565Y-22627017D02*
X39757565Y-22947017D01*
X39597565Y-22787017D02*
X39917565Y-22787017D01*
X39835034Y-17120219D02*
X39835034Y-17440219D01*
X39675034Y-17280219D02*
X39995034Y-17280219D01*
X40087387Y-18225849D02*
X40087387Y-18545849D01*
X39927387Y-18385849D02*
X40247387Y-18385849D01*
X40126559Y-21010348D02*
X40126559Y-21330348D01*
X39966559Y-21170348D02*
X40286559Y-21170348D01*
X40211307Y-19879456D02*
X40211307Y-20199456D01*
X40051307Y-20039456D02*
X40371307Y-20039456D01*
D12*
X21118277Y-30232027D02*
X21118277Y-30032027D01*
X21118277Y-30032027D02*
X21165896Y-30032027D01*
X21165896Y-30032027D02*
X21194467Y-30041551D01*
X21194467Y-30041551D02*
X21213515Y-30060599D01*
X21213515Y-30060599D02*
X21223039Y-30079646D01*
X21223039Y-30079646D02*
X21232563Y-30117741D01*
X21232563Y-30117741D02*
X21232563Y-30146313D01*
X21232563Y-30146313D02*
X21223039Y-30184408D01*
X21223039Y-30184408D02*
X21213515Y-30203456D01*
X21213515Y-30203456D02*
X21194467Y-30222503D01*
X21194467Y-30222503D02*
X21165896Y-30232027D01*
X21165896Y-30232027D02*
X21118277Y-30232027D01*
X21318277Y-30232027D02*
X21318277Y-30098694D01*
X21318277Y-30136789D02*
X21327801Y-30117741D01*
X21327801Y-30117741D02*
X21337324Y-30108218D01*
X21337324Y-30108218D02*
X21356372Y-30098694D01*
X21356372Y-30098694D02*
X21375420Y-30098694D01*
X21442086Y-30232027D02*
X21442086Y-30098694D01*
X21442086Y-30032027D02*
X21432563Y-30041551D01*
X21432563Y-30041551D02*
X21442086Y-30051075D01*
X21442086Y-30051075D02*
X21451610Y-30041551D01*
X21451610Y-30041551D02*
X21442086Y-30032027D01*
X21442086Y-30032027D02*
X21442086Y-30051075D01*
X21565896Y-30232027D02*
X21546848Y-30222503D01*
X21546848Y-30222503D02*
X21537324Y-30203456D01*
X21537324Y-30203456D02*
X21537324Y-30032027D01*
X21670658Y-30232027D02*
X21651610Y-30222503D01*
X21651610Y-30222503D02*
X21642086Y-30203456D01*
X21642086Y-30203456D02*
X21642086Y-30032027D01*
X21899229Y-30232027D02*
X21899229Y-30032027D01*
X21899229Y-30032027D02*
X21965896Y-30174884D01*
X21965896Y-30174884D02*
X22032563Y-30032027D01*
X22032563Y-30032027D02*
X22032563Y-30232027D01*
X22213515Y-30232027D02*
X22213515Y-30127265D01*
X22213515Y-30127265D02*
X22203991Y-30108218D01*
X22203991Y-30108218D02*
X22184944Y-30098694D01*
X22184944Y-30098694D02*
X22146848Y-30098694D01*
X22146848Y-30098694D02*
X22127801Y-30108218D01*
X22213515Y-30222503D02*
X22194467Y-30232027D01*
X22194467Y-30232027D02*
X22146848Y-30232027D01*
X22146848Y-30232027D02*
X22127801Y-30222503D01*
X22127801Y-30222503D02*
X22118277Y-30203456D01*
X22118277Y-30203456D02*
X22118277Y-30184408D01*
X22118277Y-30184408D02*
X22127801Y-30165360D01*
X22127801Y-30165360D02*
X22146848Y-30155837D01*
X22146848Y-30155837D02*
X22194467Y-30155837D01*
X22194467Y-30155837D02*
X22213515Y-30146313D01*
X22308753Y-30098694D02*
X22308753Y-30298694D01*
X22308753Y-30108218D02*
X22327801Y-30098694D01*
X22327801Y-30098694D02*
X22365896Y-30098694D01*
X22365896Y-30098694D02*
X22384943Y-30108218D01*
X22384943Y-30108218D02*
X22394467Y-30117741D01*
X22394467Y-30117741D02*
X22403991Y-30136789D01*
X22403991Y-30136789D02*
X22403991Y-30193932D01*
X22403991Y-30193932D02*
X22394467Y-30212979D01*
X22394467Y-30212979D02*
X22384943Y-30222503D01*
X22384943Y-30222503D02*
X22365896Y-30232027D01*
X22365896Y-30232027D02*
X22327801Y-30232027D01*
X22327801Y-30232027D02*
X22308753Y-30222503D01*
X22489705Y-30212979D02*
X22499229Y-30222503D01*
X22499229Y-30222503D02*
X22489705Y-30232027D01*
X22489705Y-30232027D02*
X22480182Y-30222503D01*
X22480182Y-30222503D02*
X22489705Y-30212979D01*
X22489705Y-30212979D02*
X22489705Y-30232027D01*
X22489705Y-30108218D02*
X22499229Y-30117741D01*
X22499229Y-30117741D02*
X22489705Y-30127265D01*
X22489705Y-30127265D02*
X22480182Y-30117741D01*
X22480182Y-30117741D02*
X22489705Y-30108218D01*
X22489705Y-30108218D02*
X22489705Y-30127265D01*
D13*
X20792500Y-30528043D02*
X20857500Y-30593043D01*
X20857500Y-30528043D02*
X20792500Y-30593043D01*
D12*
X21156372Y-30452027D02*
X21175420Y-30452027D01*
X21175420Y-30452027D02*
X21194467Y-30461551D01*
X21194467Y-30461551D02*
X21203991Y-30471075D01*
X21203991Y-30471075D02*
X21213515Y-30490122D01*
X21213515Y-30490122D02*
X21223039Y-30528218D01*
X21223039Y-30528218D02*
X21223039Y-30575837D01*
X21223039Y-30575837D02*
X21213515Y-30613932D01*
X21213515Y-30613932D02*
X21203991Y-30632979D01*
X21203991Y-30632979D02*
X21194467Y-30642503D01*
X21194467Y-30642503D02*
X21175420Y-30652027D01*
X21175420Y-30652027D02*
X21156372Y-30652027D01*
X21156372Y-30652027D02*
X21137324Y-30642503D01*
X21137324Y-30642503D02*
X21127801Y-30632979D01*
X21127801Y-30632979D02*
X21118277Y-30613932D01*
X21118277Y-30613932D02*
X21108753Y-30575837D01*
X21108753Y-30575837D02*
X21108753Y-30528218D01*
X21108753Y-30528218D02*
X21118277Y-30490122D01*
X21118277Y-30490122D02*
X21127801Y-30471075D01*
X21127801Y-30471075D02*
X21137324Y-30461551D01*
X21137324Y-30461551D02*
X21156372Y-30452027D01*
X21308753Y-30632979D02*
X21318277Y-30642503D01*
X21318277Y-30642503D02*
X21308753Y-30652027D01*
X21308753Y-30652027D02*
X21299229Y-30642503D01*
X21299229Y-30642503D02*
X21308753Y-30632979D01*
X21308753Y-30632979D02*
X21308753Y-30652027D01*
X21489705Y-30452027D02*
X21451610Y-30452027D01*
X21451610Y-30452027D02*
X21432563Y-30461551D01*
X21432563Y-30461551D02*
X21423039Y-30471075D01*
X21423039Y-30471075D02*
X21403991Y-30499646D01*
X21403991Y-30499646D02*
X21394467Y-30537741D01*
X21394467Y-30537741D02*
X21394467Y-30613932D01*
X21394467Y-30613932D02*
X21403991Y-30632979D01*
X21403991Y-30632979D02*
X21413515Y-30642503D01*
X21413515Y-30642503D02*
X21432563Y-30652027D01*
X21432563Y-30652027D02*
X21470658Y-30652027D01*
X21470658Y-30652027D02*
X21489705Y-30642503D01*
X21489705Y-30642503D02*
X21499229Y-30632979D01*
X21499229Y-30632979D02*
X21508753Y-30613932D01*
X21508753Y-30613932D02*
X21508753Y-30566313D01*
X21508753Y-30566313D02*
X21499229Y-30547265D01*
X21499229Y-30547265D02*
X21489705Y-30537741D01*
X21489705Y-30537741D02*
X21470658Y-30528218D01*
X21470658Y-30528218D02*
X21432563Y-30528218D01*
X21432563Y-30528218D02*
X21413515Y-30537741D01*
X21413515Y-30537741D02*
X21403991Y-30547265D01*
X21403991Y-30547265D02*
X21394467Y-30566313D01*
X21689705Y-30452027D02*
X21594467Y-30452027D01*
X21594467Y-30452027D02*
X21584944Y-30547265D01*
X21584944Y-30547265D02*
X21594467Y-30537741D01*
X21594467Y-30537741D02*
X21613515Y-30528218D01*
X21613515Y-30528218D02*
X21661134Y-30528218D01*
X21661134Y-30528218D02*
X21680182Y-30537741D01*
X21680182Y-30537741D02*
X21689705Y-30547265D01*
X21689705Y-30547265D02*
X21699229Y-30566313D01*
X21699229Y-30566313D02*
X21699229Y-30613932D01*
X21699229Y-30613932D02*
X21689705Y-30632979D01*
X21689705Y-30632979D02*
X21680182Y-30642503D01*
X21680182Y-30642503D02*
X21661134Y-30652027D01*
X21661134Y-30652027D02*
X21613515Y-30652027D01*
X21613515Y-30652027D02*
X21594467Y-30642503D01*
X21594467Y-30642503D02*
X21584944Y-30632979D01*
X21823039Y-30452027D02*
X21842086Y-30452027D01*
X21842086Y-30452027D02*
X21861134Y-30461551D01*
X21861134Y-30461551D02*
X21870658Y-30471075D01*
X21870658Y-30471075D02*
X21880182Y-30490122D01*
X21880182Y-30490122D02*
X21889705Y-30528218D01*
X21889705Y-30528218D02*
X21889705Y-30575837D01*
X21889705Y-30575837D02*
X21880182Y-30613932D01*
X21880182Y-30613932D02*
X21870658Y-30632979D01*
X21870658Y-30632979D02*
X21861134Y-30642503D01*
X21861134Y-30642503D02*
X21842086Y-30652027D01*
X21842086Y-30652027D02*
X21823039Y-30652027D01*
X21823039Y-30652027D02*
X21803991Y-30642503D01*
X21803991Y-30642503D02*
X21794467Y-30632979D01*
X21794467Y-30632979D02*
X21784944Y-30613932D01*
X21784944Y-30613932D02*
X21775420Y-30575837D01*
X21775420Y-30575837D02*
X21775420Y-30528218D01*
X21775420Y-30528218D02*
X21784944Y-30490122D01*
X21784944Y-30490122D02*
X21794467Y-30471075D01*
X21794467Y-30471075D02*
X21803991Y-30461551D01*
X21803991Y-30461551D02*
X21823039Y-30452027D01*
X21975420Y-30652027D02*
X21975420Y-30518694D01*
X21975420Y-30537741D02*
X21984944Y-30528218D01*
X21984944Y-30528218D02*
X22003991Y-30518694D01*
X22003991Y-30518694D02*
X22032563Y-30518694D01*
X22032563Y-30518694D02*
X22051610Y-30528218D01*
X22051610Y-30528218D02*
X22061134Y-30547265D01*
X22061134Y-30547265D02*
X22061134Y-30652027D01*
X22061134Y-30547265D02*
X22070658Y-30528218D01*
X22070658Y-30528218D02*
X22089705Y-30518694D01*
X22089705Y-30518694D02*
X22118277Y-30518694D01*
X22118277Y-30518694D02*
X22137325Y-30528218D01*
X22137325Y-30528218D02*
X22146848Y-30547265D01*
X22146848Y-30547265D02*
X22146848Y-30652027D01*
X22242086Y-30652027D02*
X22242086Y-30518694D01*
X22242086Y-30537741D02*
X22251610Y-30528218D01*
X22251610Y-30528218D02*
X22270658Y-30518694D01*
X22270658Y-30518694D02*
X22299229Y-30518694D01*
X22299229Y-30518694D02*
X22318277Y-30528218D01*
X22318277Y-30528218D02*
X22327801Y-30547265D01*
X22327801Y-30547265D02*
X22327801Y-30652027D01*
X22327801Y-30547265D02*
X22337325Y-30528218D01*
X22337325Y-30528218D02*
X22356372Y-30518694D01*
X22356372Y-30518694D02*
X22384943Y-30518694D01*
X22384943Y-30518694D02*
X22403991Y-30528218D01*
X22403991Y-30528218D02*
X22413515Y-30547265D01*
X22413515Y-30547265D02*
X22413515Y-30652027D01*
X22803991Y-30442503D02*
X22632563Y-30699646D01*
X23061134Y-30452027D02*
X23080182Y-30452027D01*
X23080182Y-30452027D02*
X23099229Y-30461551D01*
X23099229Y-30461551D02*
X23108753Y-30471075D01*
X23108753Y-30471075D02*
X23118277Y-30490122D01*
X23118277Y-30490122D02*
X23127801Y-30528218D01*
X23127801Y-30528218D02*
X23127801Y-30575837D01*
X23127801Y-30575837D02*
X23118277Y-30613932D01*
X23118277Y-30613932D02*
X23108753Y-30632979D01*
X23108753Y-30632979D02*
X23099229Y-30642503D01*
X23099229Y-30642503D02*
X23080182Y-30652027D01*
X23080182Y-30652027D02*
X23061134Y-30652027D01*
X23061134Y-30652027D02*
X23042086Y-30642503D01*
X23042086Y-30642503D02*
X23032563Y-30632979D01*
X23032563Y-30632979D02*
X23023039Y-30613932D01*
X23023039Y-30613932D02*
X23013515Y-30575837D01*
X23013515Y-30575837D02*
X23013515Y-30528218D01*
X23013515Y-30528218D02*
X23023039Y-30490122D01*
X23023039Y-30490122D02*
X23032563Y-30471075D01*
X23032563Y-30471075D02*
X23042086Y-30461551D01*
X23042086Y-30461551D02*
X23061134Y-30452027D01*
X23213515Y-30632979D02*
X23223039Y-30642503D01*
X23223039Y-30642503D02*
X23213515Y-30652027D01*
X23213515Y-30652027D02*
X23203991Y-30642503D01*
X23203991Y-30642503D02*
X23213515Y-30632979D01*
X23213515Y-30632979D02*
X23213515Y-30652027D01*
X23346848Y-30452027D02*
X23365896Y-30452027D01*
X23365896Y-30452027D02*
X23384944Y-30461551D01*
X23384944Y-30461551D02*
X23394467Y-30471075D01*
X23394467Y-30471075D02*
X23403991Y-30490122D01*
X23403991Y-30490122D02*
X23413515Y-30528218D01*
X23413515Y-30528218D02*
X23413515Y-30575837D01*
X23413515Y-30575837D02*
X23403991Y-30613932D01*
X23403991Y-30613932D02*
X23394467Y-30632979D01*
X23394467Y-30632979D02*
X23384944Y-30642503D01*
X23384944Y-30642503D02*
X23365896Y-30652027D01*
X23365896Y-30652027D02*
X23346848Y-30652027D01*
X23346848Y-30652027D02*
X23327801Y-30642503D01*
X23327801Y-30642503D02*
X23318277Y-30632979D01*
X23318277Y-30632979D02*
X23308753Y-30613932D01*
X23308753Y-30613932D02*
X23299229Y-30575837D01*
X23299229Y-30575837D02*
X23299229Y-30528218D01*
X23299229Y-30528218D02*
X23308753Y-30490122D01*
X23308753Y-30490122D02*
X23318277Y-30471075D01*
X23318277Y-30471075D02*
X23327801Y-30461551D01*
X23327801Y-30461551D02*
X23346848Y-30452027D01*
X23489706Y-30471075D02*
X23499229Y-30461551D01*
X23499229Y-30461551D02*
X23518277Y-30452027D01*
X23518277Y-30452027D02*
X23565896Y-30452027D01*
X23565896Y-30452027D02*
X23584944Y-30461551D01*
X23584944Y-30461551D02*
X23594467Y-30471075D01*
X23594467Y-30471075D02*
X23603991Y-30490122D01*
X23603991Y-30490122D02*
X23603991Y-30509170D01*
X23603991Y-30509170D02*
X23594467Y-30537741D01*
X23594467Y-30537741D02*
X23480182Y-30652027D01*
X23480182Y-30652027D02*
X23603991Y-30652027D01*
X23784944Y-30452027D02*
X23689706Y-30452027D01*
X23689706Y-30452027D02*
X23680182Y-30547265D01*
X23680182Y-30547265D02*
X23689706Y-30537741D01*
X23689706Y-30537741D02*
X23708753Y-30528218D01*
X23708753Y-30528218D02*
X23756372Y-30528218D01*
X23756372Y-30528218D02*
X23775420Y-30537741D01*
X23775420Y-30537741D02*
X23784944Y-30547265D01*
X23784944Y-30547265D02*
X23794467Y-30566313D01*
X23794467Y-30566313D02*
X23794467Y-30613932D01*
X23794467Y-30613932D02*
X23784944Y-30632979D01*
X23784944Y-30632979D02*
X23775420Y-30642503D01*
X23775420Y-30642503D02*
X23756372Y-30652027D01*
X23756372Y-30652027D02*
X23708753Y-30652027D01*
X23708753Y-30652027D02*
X23689706Y-30642503D01*
X23689706Y-30642503D02*
X23680182Y-30632979D01*
X23965896Y-30452027D02*
X23927801Y-30452027D01*
X23927801Y-30452027D02*
X23908753Y-30461551D01*
X23908753Y-30461551D02*
X23899229Y-30471075D01*
X23899229Y-30471075D02*
X23880182Y-30499646D01*
X23880182Y-30499646D02*
X23870658Y-30537741D01*
X23870658Y-30537741D02*
X23870658Y-30613932D01*
X23870658Y-30613932D02*
X23880182Y-30632979D01*
X23880182Y-30632979D02*
X23889706Y-30642503D01*
X23889706Y-30642503D02*
X23908753Y-30652027D01*
X23908753Y-30652027D02*
X23946848Y-30652027D01*
X23946848Y-30652027D02*
X23965896Y-30642503D01*
X23965896Y-30642503D02*
X23975420Y-30632979D01*
X23975420Y-30632979D02*
X23984944Y-30613932D01*
X23984944Y-30613932D02*
X23984944Y-30566313D01*
X23984944Y-30566313D02*
X23975420Y-30547265D01*
X23975420Y-30547265D02*
X23965896Y-30537741D01*
X23965896Y-30537741D02*
X23946848Y-30528218D01*
X23946848Y-30528218D02*
X23908753Y-30528218D01*
X23908753Y-30528218D02*
X23889706Y-30537741D01*
X23889706Y-30537741D02*
X23880182Y-30547265D01*
X23880182Y-30547265D02*
X23870658Y-30566313D01*
X24061134Y-30452027D02*
X24061134Y-30490122D01*
X24137325Y-30452027D02*
X24137325Y-30490122D01*
X24432563Y-30728218D02*
X24423039Y-30718694D01*
X24423039Y-30718694D02*
X24403991Y-30690122D01*
X24403991Y-30690122D02*
X24394468Y-30671075D01*
X24394468Y-30671075D02*
X24384944Y-30642503D01*
X24384944Y-30642503D02*
X24375420Y-30594884D01*
X24375420Y-30594884D02*
X24375420Y-30556789D01*
X24375420Y-30556789D02*
X24384944Y-30509170D01*
X24384944Y-30509170D02*
X24394468Y-30480599D01*
X24394468Y-30480599D02*
X24403991Y-30461551D01*
X24403991Y-30461551D02*
X24423039Y-30432979D01*
X24423039Y-30432979D02*
X24432563Y-30423456D01*
X24613515Y-30652027D02*
X24499229Y-30652027D01*
X24556372Y-30652027D02*
X24556372Y-30452027D01*
X24556372Y-30452027D02*
X24537325Y-30480599D01*
X24537325Y-30480599D02*
X24518277Y-30499646D01*
X24518277Y-30499646D02*
X24499229Y-30509170D01*
X24851610Y-30652027D02*
X24851610Y-30452027D01*
X24937325Y-30652027D02*
X24937325Y-30547265D01*
X24937325Y-30547265D02*
X24927801Y-30528218D01*
X24927801Y-30528218D02*
X24908753Y-30518694D01*
X24908753Y-30518694D02*
X24880182Y-30518694D01*
X24880182Y-30518694D02*
X24861134Y-30528218D01*
X24861134Y-30528218D02*
X24851610Y-30537741D01*
X25061134Y-30652027D02*
X25042087Y-30642503D01*
X25042087Y-30642503D02*
X25032563Y-30632979D01*
X25032563Y-30632979D02*
X25023039Y-30613932D01*
X25023039Y-30613932D02*
X25023039Y-30556789D01*
X25023039Y-30556789D02*
X25032563Y-30537741D01*
X25032563Y-30537741D02*
X25042087Y-30528218D01*
X25042087Y-30528218D02*
X25061134Y-30518694D01*
X25061134Y-30518694D02*
X25089706Y-30518694D01*
X25089706Y-30518694D02*
X25108753Y-30528218D01*
X25108753Y-30528218D02*
X25118277Y-30537741D01*
X25118277Y-30537741D02*
X25127801Y-30556789D01*
X25127801Y-30556789D02*
X25127801Y-30613932D01*
X25127801Y-30613932D02*
X25118277Y-30632979D01*
X25118277Y-30632979D02*
X25108753Y-30642503D01*
X25108753Y-30642503D02*
X25089706Y-30652027D01*
X25089706Y-30652027D02*
X25061134Y-30652027D01*
X25242087Y-30652027D02*
X25223039Y-30642503D01*
X25223039Y-30642503D02*
X25213515Y-30623456D01*
X25213515Y-30623456D02*
X25213515Y-30452027D01*
X25394468Y-30642503D02*
X25375420Y-30652027D01*
X25375420Y-30652027D02*
X25337325Y-30652027D01*
X25337325Y-30652027D02*
X25318277Y-30642503D01*
X25318277Y-30642503D02*
X25308753Y-30623456D01*
X25308753Y-30623456D02*
X25308753Y-30547265D01*
X25308753Y-30547265D02*
X25318277Y-30528218D01*
X25318277Y-30528218D02*
X25337325Y-30518694D01*
X25337325Y-30518694D02*
X25375420Y-30518694D01*
X25375420Y-30518694D02*
X25394468Y-30528218D01*
X25394468Y-30528218D02*
X25403991Y-30547265D01*
X25403991Y-30547265D02*
X25403991Y-30566313D01*
X25403991Y-30566313D02*
X25308753Y-30585360D01*
X25480182Y-30642503D02*
X25499230Y-30652027D01*
X25499230Y-30652027D02*
X25537325Y-30652027D01*
X25537325Y-30652027D02*
X25556372Y-30642503D01*
X25556372Y-30642503D02*
X25565896Y-30623456D01*
X25565896Y-30623456D02*
X25565896Y-30613932D01*
X25565896Y-30613932D02*
X25556372Y-30594884D01*
X25556372Y-30594884D02*
X25537325Y-30585360D01*
X25537325Y-30585360D02*
X25508753Y-30585360D01*
X25508753Y-30585360D02*
X25489706Y-30575837D01*
X25489706Y-30575837D02*
X25480182Y-30556789D01*
X25480182Y-30556789D02*
X25480182Y-30547265D01*
X25480182Y-30547265D02*
X25489706Y-30528218D01*
X25489706Y-30528218D02*
X25508753Y-30518694D01*
X25508753Y-30518694D02*
X25537325Y-30518694D01*
X25537325Y-30518694D02*
X25556372Y-30528218D01*
X25803992Y-30575837D02*
X25956373Y-30575837D01*
X25880182Y-30652027D02*
X25880182Y-30499646D01*
X26308753Y-30652027D02*
X26194468Y-30652027D01*
X26251611Y-30652027D02*
X26251611Y-30452027D01*
X26251611Y-30452027D02*
X26232563Y-30480599D01*
X26232563Y-30480599D02*
X26213515Y-30499646D01*
X26213515Y-30499646D02*
X26194468Y-30509170D01*
X26537325Y-30642503D02*
X26556373Y-30652027D01*
X26556373Y-30652027D02*
X26594468Y-30652027D01*
X26594468Y-30652027D02*
X26613515Y-30642503D01*
X26613515Y-30642503D02*
X26623039Y-30623456D01*
X26623039Y-30623456D02*
X26623039Y-30613932D01*
X26623039Y-30613932D02*
X26613515Y-30594884D01*
X26613515Y-30594884D02*
X26594468Y-30585360D01*
X26594468Y-30585360D02*
X26565896Y-30585360D01*
X26565896Y-30585360D02*
X26546849Y-30575837D01*
X26546849Y-30575837D02*
X26537325Y-30556789D01*
X26537325Y-30556789D02*
X26537325Y-30547265D01*
X26537325Y-30547265D02*
X26546849Y-30528218D01*
X26546849Y-30528218D02*
X26565896Y-30518694D01*
X26565896Y-30518694D02*
X26594468Y-30518694D01*
X26594468Y-30518694D02*
X26613515Y-30528218D01*
X26737325Y-30652027D02*
X26718277Y-30642503D01*
X26718277Y-30642503D02*
X26708754Y-30623456D01*
X26708754Y-30623456D02*
X26708754Y-30452027D01*
X26842087Y-30652027D02*
X26823039Y-30642503D01*
X26823039Y-30642503D02*
X26813515Y-30632979D01*
X26813515Y-30632979D02*
X26803992Y-30613932D01*
X26803992Y-30613932D02*
X26803992Y-30556789D01*
X26803992Y-30556789D02*
X26813515Y-30537741D01*
X26813515Y-30537741D02*
X26823039Y-30528218D01*
X26823039Y-30528218D02*
X26842087Y-30518694D01*
X26842087Y-30518694D02*
X26870658Y-30518694D01*
X26870658Y-30518694D02*
X26889706Y-30528218D01*
X26889706Y-30528218D02*
X26899230Y-30537741D01*
X26899230Y-30537741D02*
X26908754Y-30556789D01*
X26908754Y-30556789D02*
X26908754Y-30613932D01*
X26908754Y-30613932D02*
X26899230Y-30632979D01*
X26899230Y-30632979D02*
X26889706Y-30642503D01*
X26889706Y-30642503D02*
X26870658Y-30652027D01*
X26870658Y-30652027D02*
X26842087Y-30652027D01*
X26965896Y-30518694D02*
X27042087Y-30518694D01*
X26994468Y-30452027D02*
X26994468Y-30623456D01*
X26994468Y-30623456D02*
X27003992Y-30642503D01*
X27003992Y-30642503D02*
X27023039Y-30652027D01*
X27023039Y-30652027D02*
X27042087Y-30652027D01*
X27089706Y-30728218D02*
X27099230Y-30718694D01*
X27099230Y-30718694D02*
X27118277Y-30690122D01*
X27118277Y-30690122D02*
X27127801Y-30671075D01*
X27127801Y-30671075D02*
X27137325Y-30642503D01*
X27137325Y-30642503D02*
X27146849Y-30594884D01*
X27146849Y-30594884D02*
X27146849Y-30556789D01*
X27146849Y-30556789D02*
X27137325Y-30509170D01*
X27137325Y-30509170D02*
X27127801Y-30480599D01*
X27127801Y-30480599D02*
X27118277Y-30461551D01*
X27118277Y-30461551D02*
X27099230Y-30432979D01*
X27099230Y-30432979D02*
X27089706Y-30423456D01*
X27451611Y-30728218D02*
X27442087Y-30718694D01*
X27442087Y-30718694D02*
X27423039Y-30690122D01*
X27423039Y-30690122D02*
X27413515Y-30671075D01*
X27413515Y-30671075D02*
X27403992Y-30642503D01*
X27403992Y-30642503D02*
X27394468Y-30594884D01*
X27394468Y-30594884D02*
X27394468Y-30556789D01*
X27394468Y-30556789D02*
X27403992Y-30509170D01*
X27403992Y-30509170D02*
X27413515Y-30480599D01*
X27413515Y-30480599D02*
X27423039Y-30461551D01*
X27423039Y-30461551D02*
X27442087Y-30432979D01*
X27442087Y-30432979D02*
X27451611Y-30423456D01*
X27527801Y-30518694D02*
X27527801Y-30652027D01*
X27527801Y-30537741D02*
X27537325Y-30528218D01*
X27537325Y-30528218D02*
X27556373Y-30518694D01*
X27556373Y-30518694D02*
X27584944Y-30518694D01*
X27584944Y-30518694D02*
X27603992Y-30528218D01*
X27603992Y-30528218D02*
X27613515Y-30547265D01*
X27613515Y-30547265D02*
X27613515Y-30652027D01*
X27737325Y-30652027D02*
X27718277Y-30642503D01*
X27718277Y-30642503D02*
X27708754Y-30632979D01*
X27708754Y-30632979D02*
X27699230Y-30613932D01*
X27699230Y-30613932D02*
X27699230Y-30556789D01*
X27699230Y-30556789D02*
X27708754Y-30537741D01*
X27708754Y-30537741D02*
X27718277Y-30528218D01*
X27718277Y-30528218D02*
X27737325Y-30518694D01*
X27737325Y-30518694D02*
X27765896Y-30518694D01*
X27765896Y-30518694D02*
X27784944Y-30528218D01*
X27784944Y-30528218D02*
X27794468Y-30537741D01*
X27794468Y-30537741D02*
X27803992Y-30556789D01*
X27803992Y-30556789D02*
X27803992Y-30613932D01*
X27803992Y-30613932D02*
X27794468Y-30632979D01*
X27794468Y-30632979D02*
X27784944Y-30642503D01*
X27784944Y-30642503D02*
X27765896Y-30652027D01*
X27765896Y-30652027D02*
X27737325Y-30652027D01*
X27861135Y-30518694D02*
X27937325Y-30518694D01*
X27889706Y-30452027D02*
X27889706Y-30623456D01*
X27889706Y-30623456D02*
X27899230Y-30642503D01*
X27899230Y-30642503D02*
X27918277Y-30652027D01*
X27918277Y-30652027D02*
X27937325Y-30652027D01*
X28156373Y-30518694D02*
X28156373Y-30718694D01*
X28156373Y-30528218D02*
X28175420Y-30518694D01*
X28175420Y-30518694D02*
X28213516Y-30518694D01*
X28213516Y-30518694D02*
X28232563Y-30528218D01*
X28232563Y-30528218D02*
X28242087Y-30537741D01*
X28242087Y-30537741D02*
X28251611Y-30556789D01*
X28251611Y-30556789D02*
X28251611Y-30613932D01*
X28251611Y-30613932D02*
X28242087Y-30632979D01*
X28242087Y-30632979D02*
X28232563Y-30642503D01*
X28232563Y-30642503D02*
X28213516Y-30652027D01*
X28213516Y-30652027D02*
X28175420Y-30652027D01*
X28175420Y-30652027D02*
X28156373Y-30642503D01*
X28365896Y-30652027D02*
X28346849Y-30642503D01*
X28346849Y-30642503D02*
X28337325Y-30623456D01*
X28337325Y-30623456D02*
X28337325Y-30452027D01*
X28527801Y-30652027D02*
X28527801Y-30547265D01*
X28527801Y-30547265D02*
X28518277Y-30528218D01*
X28518277Y-30528218D02*
X28499230Y-30518694D01*
X28499230Y-30518694D02*
X28461135Y-30518694D01*
X28461135Y-30518694D02*
X28442087Y-30528218D01*
X28527801Y-30642503D02*
X28508754Y-30652027D01*
X28508754Y-30652027D02*
X28461135Y-30652027D01*
X28461135Y-30652027D02*
X28442087Y-30642503D01*
X28442087Y-30642503D02*
X28432563Y-30623456D01*
X28432563Y-30623456D02*
X28432563Y-30604408D01*
X28432563Y-30604408D02*
X28442087Y-30585360D01*
X28442087Y-30585360D02*
X28461135Y-30575837D01*
X28461135Y-30575837D02*
X28508754Y-30575837D01*
X28508754Y-30575837D02*
X28527801Y-30566313D01*
X28594468Y-30518694D02*
X28670658Y-30518694D01*
X28623039Y-30452027D02*
X28623039Y-30623456D01*
X28623039Y-30623456D02*
X28632563Y-30642503D01*
X28632563Y-30642503D02*
X28651611Y-30652027D01*
X28651611Y-30652027D02*
X28670658Y-30652027D01*
X28813516Y-30642503D02*
X28794468Y-30652027D01*
X28794468Y-30652027D02*
X28756373Y-30652027D01*
X28756373Y-30652027D02*
X28737325Y-30642503D01*
X28737325Y-30642503D02*
X28727801Y-30623456D01*
X28727801Y-30623456D02*
X28727801Y-30547265D01*
X28727801Y-30547265D02*
X28737325Y-30528218D01*
X28737325Y-30528218D02*
X28756373Y-30518694D01*
X28756373Y-30518694D02*
X28794468Y-30518694D01*
X28794468Y-30518694D02*
X28813516Y-30528218D01*
X28813516Y-30528218D02*
X28823039Y-30547265D01*
X28823039Y-30547265D02*
X28823039Y-30566313D01*
X28823039Y-30566313D02*
X28727801Y-30585360D01*
X28994468Y-30652027D02*
X28994468Y-30452027D01*
X28994468Y-30642503D02*
X28975420Y-30652027D01*
X28975420Y-30652027D02*
X28937325Y-30652027D01*
X28937325Y-30652027D02*
X28918277Y-30642503D01*
X28918277Y-30642503D02*
X28908754Y-30632979D01*
X28908754Y-30632979D02*
X28899230Y-30613932D01*
X28899230Y-30613932D02*
X28899230Y-30556789D01*
X28899230Y-30556789D02*
X28908754Y-30537741D01*
X28908754Y-30537741D02*
X28918277Y-30528218D01*
X28918277Y-30528218D02*
X28937325Y-30518694D01*
X28937325Y-30518694D02*
X28975420Y-30518694D01*
X28975420Y-30518694D02*
X28994468Y-30528218D01*
X29070658Y-30728218D02*
X29080182Y-30718694D01*
X29080182Y-30718694D02*
X29099230Y-30690122D01*
X29099230Y-30690122D02*
X29108754Y-30671075D01*
X29108754Y-30671075D02*
X29118277Y-30642503D01*
X29118277Y-30642503D02*
X29127801Y-30594884D01*
X29127801Y-30594884D02*
X29127801Y-30556789D01*
X29127801Y-30556789D02*
X29118277Y-30509170D01*
X29118277Y-30509170D02*
X29108754Y-30480599D01*
X29108754Y-30480599D02*
X29099230Y-30461551D01*
X29099230Y-30461551D02*
X29080182Y-30432979D01*
X29080182Y-30432979D02*
X29070658Y-30423456D01*
D13*
X20857500Y-30824543D02*
G75*
G02*
X20787500Y-30824543I-35000J0D01*
G01*
X20787500Y-30824543D02*
G75*
G02*
X20857500Y-30824543I35000J0D01*
G01*
D12*
X21156372Y-30716027D02*
X21175420Y-30716027D01*
X21175420Y-30716027D02*
X21194467Y-30725551D01*
X21194467Y-30725551D02*
X21203991Y-30735075D01*
X21203991Y-30735075D02*
X21213515Y-30754122D01*
X21213515Y-30754122D02*
X21223039Y-30792218D01*
X21223039Y-30792218D02*
X21223039Y-30839837D01*
X21223039Y-30839837D02*
X21213515Y-30877932D01*
X21213515Y-30877932D02*
X21203991Y-30896979D01*
X21203991Y-30896979D02*
X21194467Y-30906503D01*
X21194467Y-30906503D02*
X21175420Y-30916027D01*
X21175420Y-30916027D02*
X21156372Y-30916027D01*
X21156372Y-30916027D02*
X21137324Y-30906503D01*
X21137324Y-30906503D02*
X21127801Y-30896979D01*
X21127801Y-30896979D02*
X21118277Y-30877932D01*
X21118277Y-30877932D02*
X21108753Y-30839837D01*
X21108753Y-30839837D02*
X21108753Y-30792218D01*
X21108753Y-30792218D02*
X21118277Y-30754122D01*
X21118277Y-30754122D02*
X21127801Y-30735075D01*
X21127801Y-30735075D02*
X21137324Y-30725551D01*
X21137324Y-30725551D02*
X21156372Y-30716027D01*
X21308753Y-30896979D02*
X21318277Y-30906503D01*
X21318277Y-30906503D02*
X21308753Y-30916027D01*
X21308753Y-30916027D02*
X21299229Y-30906503D01*
X21299229Y-30906503D02*
X21308753Y-30896979D01*
X21308753Y-30896979D02*
X21308753Y-30916027D01*
X21384944Y-30716027D02*
X21518277Y-30716027D01*
X21518277Y-30716027D02*
X21432563Y-30916027D01*
X21632563Y-30716027D02*
X21651610Y-30716027D01*
X21651610Y-30716027D02*
X21670658Y-30725551D01*
X21670658Y-30725551D02*
X21680182Y-30735075D01*
X21680182Y-30735075D02*
X21689705Y-30754122D01*
X21689705Y-30754122D02*
X21699229Y-30792218D01*
X21699229Y-30792218D02*
X21699229Y-30839837D01*
X21699229Y-30839837D02*
X21689705Y-30877932D01*
X21689705Y-30877932D02*
X21680182Y-30896979D01*
X21680182Y-30896979D02*
X21670658Y-30906503D01*
X21670658Y-30906503D02*
X21651610Y-30916027D01*
X21651610Y-30916027D02*
X21632563Y-30916027D01*
X21632563Y-30916027D02*
X21613515Y-30906503D01*
X21613515Y-30906503D02*
X21603991Y-30896979D01*
X21603991Y-30896979D02*
X21594467Y-30877932D01*
X21594467Y-30877932D02*
X21584944Y-30839837D01*
X21584944Y-30839837D02*
X21584944Y-30792218D01*
X21584944Y-30792218D02*
X21594467Y-30754122D01*
X21594467Y-30754122D02*
X21603991Y-30735075D01*
X21603991Y-30735075D02*
X21613515Y-30725551D01*
X21613515Y-30725551D02*
X21632563Y-30716027D01*
X21823039Y-30716027D02*
X21842086Y-30716027D01*
X21842086Y-30716027D02*
X21861134Y-30725551D01*
X21861134Y-30725551D02*
X21870658Y-30735075D01*
X21870658Y-30735075D02*
X21880182Y-30754122D01*
X21880182Y-30754122D02*
X21889705Y-30792218D01*
X21889705Y-30792218D02*
X21889705Y-30839837D01*
X21889705Y-30839837D02*
X21880182Y-30877932D01*
X21880182Y-30877932D02*
X21870658Y-30896979D01*
X21870658Y-30896979D02*
X21861134Y-30906503D01*
X21861134Y-30906503D02*
X21842086Y-30916027D01*
X21842086Y-30916027D02*
X21823039Y-30916027D01*
X21823039Y-30916027D02*
X21803991Y-30906503D01*
X21803991Y-30906503D02*
X21794467Y-30896979D01*
X21794467Y-30896979D02*
X21784944Y-30877932D01*
X21784944Y-30877932D02*
X21775420Y-30839837D01*
X21775420Y-30839837D02*
X21775420Y-30792218D01*
X21775420Y-30792218D02*
X21784944Y-30754122D01*
X21784944Y-30754122D02*
X21794467Y-30735075D01*
X21794467Y-30735075D02*
X21803991Y-30725551D01*
X21803991Y-30725551D02*
X21823039Y-30716027D01*
X21975420Y-30916027D02*
X21975420Y-30782694D01*
X21975420Y-30801741D02*
X21984944Y-30792218D01*
X21984944Y-30792218D02*
X22003991Y-30782694D01*
X22003991Y-30782694D02*
X22032563Y-30782694D01*
X22032563Y-30782694D02*
X22051610Y-30792218D01*
X22051610Y-30792218D02*
X22061134Y-30811265D01*
X22061134Y-30811265D02*
X22061134Y-30916027D01*
X22061134Y-30811265D02*
X22070658Y-30792218D01*
X22070658Y-30792218D02*
X22089705Y-30782694D01*
X22089705Y-30782694D02*
X22118277Y-30782694D01*
X22118277Y-30782694D02*
X22137325Y-30792218D01*
X22137325Y-30792218D02*
X22146848Y-30811265D01*
X22146848Y-30811265D02*
X22146848Y-30916027D01*
X22242086Y-30916027D02*
X22242086Y-30782694D01*
X22242086Y-30801741D02*
X22251610Y-30792218D01*
X22251610Y-30792218D02*
X22270658Y-30782694D01*
X22270658Y-30782694D02*
X22299229Y-30782694D01*
X22299229Y-30782694D02*
X22318277Y-30792218D01*
X22318277Y-30792218D02*
X22327801Y-30811265D01*
X22327801Y-30811265D02*
X22327801Y-30916027D01*
X22327801Y-30811265D02*
X22337325Y-30792218D01*
X22337325Y-30792218D02*
X22356372Y-30782694D01*
X22356372Y-30782694D02*
X22384943Y-30782694D01*
X22384943Y-30782694D02*
X22403991Y-30792218D01*
X22403991Y-30792218D02*
X22413515Y-30811265D01*
X22413515Y-30811265D02*
X22413515Y-30916027D01*
X22803991Y-30706503D02*
X22632563Y-30963646D01*
X23061134Y-30716027D02*
X23080182Y-30716027D01*
X23080182Y-30716027D02*
X23099229Y-30725551D01*
X23099229Y-30725551D02*
X23108753Y-30735075D01*
X23108753Y-30735075D02*
X23118277Y-30754122D01*
X23118277Y-30754122D02*
X23127801Y-30792218D01*
X23127801Y-30792218D02*
X23127801Y-30839837D01*
X23127801Y-30839837D02*
X23118277Y-30877932D01*
X23118277Y-30877932D02*
X23108753Y-30896979D01*
X23108753Y-30896979D02*
X23099229Y-30906503D01*
X23099229Y-30906503D02*
X23080182Y-30916027D01*
X23080182Y-30916027D02*
X23061134Y-30916027D01*
X23061134Y-30916027D02*
X23042086Y-30906503D01*
X23042086Y-30906503D02*
X23032563Y-30896979D01*
X23032563Y-30896979D02*
X23023039Y-30877932D01*
X23023039Y-30877932D02*
X23013515Y-30839837D01*
X23013515Y-30839837D02*
X23013515Y-30792218D01*
X23013515Y-30792218D02*
X23023039Y-30754122D01*
X23023039Y-30754122D02*
X23032563Y-30735075D01*
X23032563Y-30735075D02*
X23042086Y-30725551D01*
X23042086Y-30725551D02*
X23061134Y-30716027D01*
X23213515Y-30896979D02*
X23223039Y-30906503D01*
X23223039Y-30906503D02*
X23213515Y-30916027D01*
X23213515Y-30916027D02*
X23203991Y-30906503D01*
X23203991Y-30906503D02*
X23213515Y-30896979D01*
X23213515Y-30896979D02*
X23213515Y-30916027D01*
X23346848Y-30716027D02*
X23365896Y-30716027D01*
X23365896Y-30716027D02*
X23384944Y-30725551D01*
X23384944Y-30725551D02*
X23394467Y-30735075D01*
X23394467Y-30735075D02*
X23403991Y-30754122D01*
X23403991Y-30754122D02*
X23413515Y-30792218D01*
X23413515Y-30792218D02*
X23413515Y-30839837D01*
X23413515Y-30839837D02*
X23403991Y-30877932D01*
X23403991Y-30877932D02*
X23394467Y-30896979D01*
X23394467Y-30896979D02*
X23384944Y-30906503D01*
X23384944Y-30906503D02*
X23365896Y-30916027D01*
X23365896Y-30916027D02*
X23346848Y-30916027D01*
X23346848Y-30916027D02*
X23327801Y-30906503D01*
X23327801Y-30906503D02*
X23318277Y-30896979D01*
X23318277Y-30896979D02*
X23308753Y-30877932D01*
X23308753Y-30877932D02*
X23299229Y-30839837D01*
X23299229Y-30839837D02*
X23299229Y-30792218D01*
X23299229Y-30792218D02*
X23308753Y-30754122D01*
X23308753Y-30754122D02*
X23318277Y-30735075D01*
X23318277Y-30735075D02*
X23327801Y-30725551D01*
X23327801Y-30725551D02*
X23346848Y-30716027D01*
X23489706Y-30735075D02*
X23499229Y-30725551D01*
X23499229Y-30725551D02*
X23518277Y-30716027D01*
X23518277Y-30716027D02*
X23565896Y-30716027D01*
X23565896Y-30716027D02*
X23584944Y-30725551D01*
X23584944Y-30725551D02*
X23594467Y-30735075D01*
X23594467Y-30735075D02*
X23603991Y-30754122D01*
X23603991Y-30754122D02*
X23603991Y-30773170D01*
X23603991Y-30773170D02*
X23594467Y-30801741D01*
X23594467Y-30801741D02*
X23480182Y-30916027D01*
X23480182Y-30916027D02*
X23603991Y-30916027D01*
X23670658Y-30716027D02*
X23803991Y-30716027D01*
X23803991Y-30716027D02*
X23718277Y-30916027D01*
X23965896Y-30716027D02*
X23927801Y-30716027D01*
X23927801Y-30716027D02*
X23908753Y-30725551D01*
X23908753Y-30725551D02*
X23899229Y-30735075D01*
X23899229Y-30735075D02*
X23880182Y-30763646D01*
X23880182Y-30763646D02*
X23870658Y-30801741D01*
X23870658Y-30801741D02*
X23870658Y-30877932D01*
X23870658Y-30877932D02*
X23880182Y-30896979D01*
X23880182Y-30896979D02*
X23889706Y-30906503D01*
X23889706Y-30906503D02*
X23908753Y-30916027D01*
X23908753Y-30916027D02*
X23946848Y-30916027D01*
X23946848Y-30916027D02*
X23965896Y-30906503D01*
X23965896Y-30906503D02*
X23975420Y-30896979D01*
X23975420Y-30896979D02*
X23984944Y-30877932D01*
X23984944Y-30877932D02*
X23984944Y-30830313D01*
X23984944Y-30830313D02*
X23975420Y-30811265D01*
X23975420Y-30811265D02*
X23965896Y-30801741D01*
X23965896Y-30801741D02*
X23946848Y-30792218D01*
X23946848Y-30792218D02*
X23908753Y-30792218D01*
X23908753Y-30792218D02*
X23889706Y-30801741D01*
X23889706Y-30801741D02*
X23880182Y-30811265D01*
X23880182Y-30811265D02*
X23870658Y-30830313D01*
X24061134Y-30716027D02*
X24061134Y-30754122D01*
X24137325Y-30716027D02*
X24137325Y-30754122D01*
X24432563Y-30992218D02*
X24423039Y-30982694D01*
X24423039Y-30982694D02*
X24403991Y-30954122D01*
X24403991Y-30954122D02*
X24394468Y-30935075D01*
X24394468Y-30935075D02*
X24384944Y-30906503D01*
X24384944Y-30906503D02*
X24375420Y-30858884D01*
X24375420Y-30858884D02*
X24375420Y-30820789D01*
X24375420Y-30820789D02*
X24384944Y-30773170D01*
X24384944Y-30773170D02*
X24394468Y-30744599D01*
X24394468Y-30744599D02*
X24403991Y-30725551D01*
X24403991Y-30725551D02*
X24423039Y-30696979D01*
X24423039Y-30696979D02*
X24432563Y-30687456D01*
X24594468Y-30782694D02*
X24594468Y-30916027D01*
X24546848Y-30706503D02*
X24499229Y-30849360D01*
X24499229Y-30849360D02*
X24623039Y-30849360D01*
X24851610Y-30916027D02*
X24851610Y-30716027D01*
X24937325Y-30916027D02*
X24937325Y-30811265D01*
X24937325Y-30811265D02*
X24927801Y-30792218D01*
X24927801Y-30792218D02*
X24908753Y-30782694D01*
X24908753Y-30782694D02*
X24880182Y-30782694D01*
X24880182Y-30782694D02*
X24861134Y-30792218D01*
X24861134Y-30792218D02*
X24851610Y-30801741D01*
X25061134Y-30916027D02*
X25042087Y-30906503D01*
X25042087Y-30906503D02*
X25032563Y-30896979D01*
X25032563Y-30896979D02*
X25023039Y-30877932D01*
X25023039Y-30877932D02*
X25023039Y-30820789D01*
X25023039Y-30820789D02*
X25032563Y-30801741D01*
X25032563Y-30801741D02*
X25042087Y-30792218D01*
X25042087Y-30792218D02*
X25061134Y-30782694D01*
X25061134Y-30782694D02*
X25089706Y-30782694D01*
X25089706Y-30782694D02*
X25108753Y-30792218D01*
X25108753Y-30792218D02*
X25118277Y-30801741D01*
X25118277Y-30801741D02*
X25127801Y-30820789D01*
X25127801Y-30820789D02*
X25127801Y-30877932D01*
X25127801Y-30877932D02*
X25118277Y-30896979D01*
X25118277Y-30896979D02*
X25108753Y-30906503D01*
X25108753Y-30906503D02*
X25089706Y-30916027D01*
X25089706Y-30916027D02*
X25061134Y-30916027D01*
X25242087Y-30916027D02*
X25223039Y-30906503D01*
X25223039Y-30906503D02*
X25213515Y-30887456D01*
X25213515Y-30887456D02*
X25213515Y-30716027D01*
X25394468Y-30906503D02*
X25375420Y-30916027D01*
X25375420Y-30916027D02*
X25337325Y-30916027D01*
X25337325Y-30916027D02*
X25318277Y-30906503D01*
X25318277Y-30906503D02*
X25308753Y-30887456D01*
X25308753Y-30887456D02*
X25308753Y-30811265D01*
X25308753Y-30811265D02*
X25318277Y-30792218D01*
X25318277Y-30792218D02*
X25337325Y-30782694D01*
X25337325Y-30782694D02*
X25375420Y-30782694D01*
X25375420Y-30782694D02*
X25394468Y-30792218D01*
X25394468Y-30792218D02*
X25403991Y-30811265D01*
X25403991Y-30811265D02*
X25403991Y-30830313D01*
X25403991Y-30830313D02*
X25308753Y-30849360D01*
X25480182Y-30906503D02*
X25499230Y-30916027D01*
X25499230Y-30916027D02*
X25537325Y-30916027D01*
X25537325Y-30916027D02*
X25556372Y-30906503D01*
X25556372Y-30906503D02*
X25565896Y-30887456D01*
X25565896Y-30887456D02*
X25565896Y-30877932D01*
X25565896Y-30877932D02*
X25556372Y-30858884D01*
X25556372Y-30858884D02*
X25537325Y-30849360D01*
X25537325Y-30849360D02*
X25508753Y-30849360D01*
X25508753Y-30849360D02*
X25489706Y-30839837D01*
X25489706Y-30839837D02*
X25480182Y-30820789D01*
X25480182Y-30820789D02*
X25480182Y-30811265D01*
X25480182Y-30811265D02*
X25489706Y-30792218D01*
X25489706Y-30792218D02*
X25508753Y-30782694D01*
X25508753Y-30782694D02*
X25537325Y-30782694D01*
X25537325Y-30782694D02*
X25556372Y-30792218D01*
X25632563Y-30992218D02*
X25642087Y-30982694D01*
X25642087Y-30982694D02*
X25661134Y-30954122D01*
X25661134Y-30954122D02*
X25670658Y-30935075D01*
X25670658Y-30935075D02*
X25680182Y-30906503D01*
X25680182Y-30906503D02*
X25689706Y-30858884D01*
X25689706Y-30858884D02*
X25689706Y-30820789D01*
X25689706Y-30820789D02*
X25680182Y-30773170D01*
X25680182Y-30773170D02*
X25670658Y-30744599D01*
X25670658Y-30744599D02*
X25661134Y-30725551D01*
X25661134Y-30725551D02*
X25642087Y-30696979D01*
X25642087Y-30696979D02*
X25632563Y-30687456D01*
X25994468Y-30992218D02*
X25984944Y-30982694D01*
X25984944Y-30982694D02*
X25965896Y-30954122D01*
X25965896Y-30954122D02*
X25956372Y-30935075D01*
X25956372Y-30935075D02*
X25946849Y-30906503D01*
X25946849Y-30906503D02*
X25937325Y-30858884D01*
X25937325Y-30858884D02*
X25937325Y-30820789D01*
X25937325Y-30820789D02*
X25946849Y-30773170D01*
X25946849Y-30773170D02*
X25956372Y-30744599D01*
X25956372Y-30744599D02*
X25965896Y-30725551D01*
X25965896Y-30725551D02*
X25984944Y-30696979D01*
X25984944Y-30696979D02*
X25994468Y-30687456D01*
X26070658Y-30782694D02*
X26070658Y-30916027D01*
X26070658Y-30801741D02*
X26080182Y-30792218D01*
X26080182Y-30792218D02*
X26099230Y-30782694D01*
X26099230Y-30782694D02*
X26127801Y-30782694D01*
X26127801Y-30782694D02*
X26146849Y-30792218D01*
X26146849Y-30792218D02*
X26156372Y-30811265D01*
X26156372Y-30811265D02*
X26156372Y-30916027D01*
X26280182Y-30916027D02*
X26261134Y-30906503D01*
X26261134Y-30906503D02*
X26251611Y-30896979D01*
X26251611Y-30896979D02*
X26242087Y-30877932D01*
X26242087Y-30877932D02*
X26242087Y-30820789D01*
X26242087Y-30820789D02*
X26251611Y-30801741D01*
X26251611Y-30801741D02*
X26261134Y-30792218D01*
X26261134Y-30792218D02*
X26280182Y-30782694D01*
X26280182Y-30782694D02*
X26308753Y-30782694D01*
X26308753Y-30782694D02*
X26327801Y-30792218D01*
X26327801Y-30792218D02*
X26337325Y-30801741D01*
X26337325Y-30801741D02*
X26346849Y-30820789D01*
X26346849Y-30820789D02*
X26346849Y-30877932D01*
X26346849Y-30877932D02*
X26337325Y-30896979D01*
X26337325Y-30896979D02*
X26327801Y-30906503D01*
X26327801Y-30906503D02*
X26308753Y-30916027D01*
X26308753Y-30916027D02*
X26280182Y-30916027D01*
X26403992Y-30782694D02*
X26480182Y-30782694D01*
X26432563Y-30716027D02*
X26432563Y-30887456D01*
X26432563Y-30887456D02*
X26442087Y-30906503D01*
X26442087Y-30906503D02*
X26461134Y-30916027D01*
X26461134Y-30916027D02*
X26480182Y-30916027D01*
X26699230Y-30782694D02*
X26699230Y-30982694D01*
X26699230Y-30792218D02*
X26718277Y-30782694D01*
X26718277Y-30782694D02*
X26756373Y-30782694D01*
X26756373Y-30782694D02*
X26775420Y-30792218D01*
X26775420Y-30792218D02*
X26784944Y-30801741D01*
X26784944Y-30801741D02*
X26794468Y-30820789D01*
X26794468Y-30820789D02*
X26794468Y-30877932D01*
X26794468Y-30877932D02*
X26784944Y-30896979D01*
X26784944Y-30896979D02*
X26775420Y-30906503D01*
X26775420Y-30906503D02*
X26756373Y-30916027D01*
X26756373Y-30916027D02*
X26718277Y-30916027D01*
X26718277Y-30916027D02*
X26699230Y-30906503D01*
X26908753Y-30916027D02*
X26889706Y-30906503D01*
X26889706Y-30906503D02*
X26880182Y-30887456D01*
X26880182Y-30887456D02*
X26880182Y-30716027D01*
X27070658Y-30916027D02*
X27070658Y-30811265D01*
X27070658Y-30811265D02*
X27061134Y-30792218D01*
X27061134Y-30792218D02*
X27042087Y-30782694D01*
X27042087Y-30782694D02*
X27003992Y-30782694D01*
X27003992Y-30782694D02*
X26984944Y-30792218D01*
X27070658Y-30906503D02*
X27051611Y-30916027D01*
X27051611Y-30916027D02*
X27003992Y-30916027D01*
X27003992Y-30916027D02*
X26984944Y-30906503D01*
X26984944Y-30906503D02*
X26975420Y-30887456D01*
X26975420Y-30887456D02*
X26975420Y-30868408D01*
X26975420Y-30868408D02*
X26984944Y-30849360D01*
X26984944Y-30849360D02*
X27003992Y-30839837D01*
X27003992Y-30839837D02*
X27051611Y-30839837D01*
X27051611Y-30839837D02*
X27070658Y-30830313D01*
X27137325Y-30782694D02*
X27213515Y-30782694D01*
X27165896Y-30716027D02*
X27165896Y-30887456D01*
X27165896Y-30887456D02*
X27175420Y-30906503D01*
X27175420Y-30906503D02*
X27194468Y-30916027D01*
X27194468Y-30916027D02*
X27213515Y-30916027D01*
X27356373Y-30906503D02*
X27337325Y-30916027D01*
X27337325Y-30916027D02*
X27299230Y-30916027D01*
X27299230Y-30916027D02*
X27280182Y-30906503D01*
X27280182Y-30906503D02*
X27270658Y-30887456D01*
X27270658Y-30887456D02*
X27270658Y-30811265D01*
X27270658Y-30811265D02*
X27280182Y-30792218D01*
X27280182Y-30792218D02*
X27299230Y-30782694D01*
X27299230Y-30782694D02*
X27337325Y-30782694D01*
X27337325Y-30782694D02*
X27356373Y-30792218D01*
X27356373Y-30792218D02*
X27365896Y-30811265D01*
X27365896Y-30811265D02*
X27365896Y-30830313D01*
X27365896Y-30830313D02*
X27270658Y-30849360D01*
X27537325Y-30916027D02*
X27537325Y-30716027D01*
X27537325Y-30906503D02*
X27518277Y-30916027D01*
X27518277Y-30916027D02*
X27480182Y-30916027D01*
X27480182Y-30916027D02*
X27461134Y-30906503D01*
X27461134Y-30906503D02*
X27451611Y-30896979D01*
X27451611Y-30896979D02*
X27442087Y-30877932D01*
X27442087Y-30877932D02*
X27442087Y-30820789D01*
X27442087Y-30820789D02*
X27451611Y-30801741D01*
X27451611Y-30801741D02*
X27461134Y-30792218D01*
X27461134Y-30792218D02*
X27480182Y-30782694D01*
X27480182Y-30782694D02*
X27518277Y-30782694D01*
X27518277Y-30782694D02*
X27537325Y-30792218D01*
X27613515Y-30992218D02*
X27623039Y-30982694D01*
X27623039Y-30982694D02*
X27642087Y-30954122D01*
X27642087Y-30954122D02*
X27651611Y-30935075D01*
X27651611Y-30935075D02*
X27661134Y-30906503D01*
X27661134Y-30906503D02*
X27670658Y-30858884D01*
X27670658Y-30858884D02*
X27670658Y-30820789D01*
X27670658Y-30820789D02*
X27661134Y-30773170D01*
X27661134Y-30773170D02*
X27651611Y-30744599D01*
X27651611Y-30744599D02*
X27642087Y-30725551D01*
X27642087Y-30725551D02*
X27623039Y-30696979D01*
X27623039Y-30696979D02*
X27613515Y-30687456D01*
X20757500Y-30988543D02*
X20757500Y-31188543D01*
X20657500Y-31088543D02*
X20857500Y-31088543D01*
X21099229Y-30980027D02*
X21223039Y-30980027D01*
X21223039Y-30980027D02*
X21156372Y-31056218D01*
X21156372Y-31056218D02*
X21184944Y-31056218D01*
X21184944Y-31056218D02*
X21203991Y-31065741D01*
X21203991Y-31065741D02*
X21213515Y-31075265D01*
X21213515Y-31075265D02*
X21223039Y-31094313D01*
X21223039Y-31094313D02*
X21223039Y-31141932D01*
X21223039Y-31141932D02*
X21213515Y-31160979D01*
X21213515Y-31160979D02*
X21203991Y-31170503D01*
X21203991Y-31170503D02*
X21184944Y-31180027D01*
X21184944Y-31180027D02*
X21127801Y-31180027D01*
X21127801Y-31180027D02*
X21108753Y-31170503D01*
X21108753Y-31170503D02*
X21099229Y-31160979D01*
X21308753Y-31160979D02*
X21318277Y-31170503D01*
X21318277Y-31170503D02*
X21308753Y-31180027D01*
X21308753Y-31180027D02*
X21299229Y-31170503D01*
X21299229Y-31170503D02*
X21308753Y-31160979D01*
X21308753Y-31160979D02*
X21308753Y-31180027D01*
X21394467Y-30999075D02*
X21403991Y-30989551D01*
X21403991Y-30989551D02*
X21423039Y-30980027D01*
X21423039Y-30980027D02*
X21470658Y-30980027D01*
X21470658Y-30980027D02*
X21489705Y-30989551D01*
X21489705Y-30989551D02*
X21499229Y-30999075D01*
X21499229Y-30999075D02*
X21508753Y-31018122D01*
X21508753Y-31018122D02*
X21508753Y-31037170D01*
X21508753Y-31037170D02*
X21499229Y-31065741D01*
X21499229Y-31065741D02*
X21384944Y-31180027D01*
X21384944Y-31180027D02*
X21508753Y-31180027D01*
X21632563Y-30980027D02*
X21651610Y-30980027D01*
X21651610Y-30980027D02*
X21670658Y-30989551D01*
X21670658Y-30989551D02*
X21680182Y-30999075D01*
X21680182Y-30999075D02*
X21689705Y-31018122D01*
X21689705Y-31018122D02*
X21699229Y-31056218D01*
X21699229Y-31056218D02*
X21699229Y-31103837D01*
X21699229Y-31103837D02*
X21689705Y-31141932D01*
X21689705Y-31141932D02*
X21680182Y-31160979D01*
X21680182Y-31160979D02*
X21670658Y-31170503D01*
X21670658Y-31170503D02*
X21651610Y-31180027D01*
X21651610Y-31180027D02*
X21632563Y-31180027D01*
X21632563Y-31180027D02*
X21613515Y-31170503D01*
X21613515Y-31170503D02*
X21603991Y-31160979D01*
X21603991Y-31160979D02*
X21594467Y-31141932D01*
X21594467Y-31141932D02*
X21584944Y-31103837D01*
X21584944Y-31103837D02*
X21584944Y-31056218D01*
X21584944Y-31056218D02*
X21594467Y-31018122D01*
X21594467Y-31018122D02*
X21603991Y-30999075D01*
X21603991Y-30999075D02*
X21613515Y-30989551D01*
X21613515Y-30989551D02*
X21632563Y-30980027D01*
X21823039Y-30980027D02*
X21842086Y-30980027D01*
X21842086Y-30980027D02*
X21861134Y-30989551D01*
X21861134Y-30989551D02*
X21870658Y-30999075D01*
X21870658Y-30999075D02*
X21880182Y-31018122D01*
X21880182Y-31018122D02*
X21889705Y-31056218D01*
X21889705Y-31056218D02*
X21889705Y-31103837D01*
X21889705Y-31103837D02*
X21880182Y-31141932D01*
X21880182Y-31141932D02*
X21870658Y-31160979D01*
X21870658Y-31160979D02*
X21861134Y-31170503D01*
X21861134Y-31170503D02*
X21842086Y-31180027D01*
X21842086Y-31180027D02*
X21823039Y-31180027D01*
X21823039Y-31180027D02*
X21803991Y-31170503D01*
X21803991Y-31170503D02*
X21794467Y-31160979D01*
X21794467Y-31160979D02*
X21784944Y-31141932D01*
X21784944Y-31141932D02*
X21775420Y-31103837D01*
X21775420Y-31103837D02*
X21775420Y-31056218D01*
X21775420Y-31056218D02*
X21784944Y-31018122D01*
X21784944Y-31018122D02*
X21794467Y-30999075D01*
X21794467Y-30999075D02*
X21803991Y-30989551D01*
X21803991Y-30989551D02*
X21823039Y-30980027D01*
X21975420Y-31180027D02*
X21975420Y-31046694D01*
X21975420Y-31065741D02*
X21984944Y-31056218D01*
X21984944Y-31056218D02*
X22003991Y-31046694D01*
X22003991Y-31046694D02*
X22032563Y-31046694D01*
X22032563Y-31046694D02*
X22051610Y-31056218D01*
X22051610Y-31056218D02*
X22061134Y-31075265D01*
X22061134Y-31075265D02*
X22061134Y-31180027D01*
X22061134Y-31075265D02*
X22070658Y-31056218D01*
X22070658Y-31056218D02*
X22089705Y-31046694D01*
X22089705Y-31046694D02*
X22118277Y-31046694D01*
X22118277Y-31046694D02*
X22137325Y-31056218D01*
X22137325Y-31056218D02*
X22146848Y-31075265D01*
X22146848Y-31075265D02*
X22146848Y-31180027D01*
X22242086Y-31180027D02*
X22242086Y-31046694D01*
X22242086Y-31065741D02*
X22251610Y-31056218D01*
X22251610Y-31056218D02*
X22270658Y-31046694D01*
X22270658Y-31046694D02*
X22299229Y-31046694D01*
X22299229Y-31046694D02*
X22318277Y-31056218D01*
X22318277Y-31056218D02*
X22327801Y-31075265D01*
X22327801Y-31075265D02*
X22327801Y-31180027D01*
X22327801Y-31075265D02*
X22337325Y-31056218D01*
X22337325Y-31056218D02*
X22356372Y-31046694D01*
X22356372Y-31046694D02*
X22384943Y-31046694D01*
X22384943Y-31046694D02*
X22403991Y-31056218D01*
X22403991Y-31056218D02*
X22413515Y-31075265D01*
X22413515Y-31075265D02*
X22413515Y-31180027D01*
X22803991Y-30970503D02*
X22632563Y-31227646D01*
X23061134Y-30980027D02*
X23080182Y-30980027D01*
X23080182Y-30980027D02*
X23099229Y-30989551D01*
X23099229Y-30989551D02*
X23108753Y-30999075D01*
X23108753Y-30999075D02*
X23118277Y-31018122D01*
X23118277Y-31018122D02*
X23127801Y-31056218D01*
X23127801Y-31056218D02*
X23127801Y-31103837D01*
X23127801Y-31103837D02*
X23118277Y-31141932D01*
X23118277Y-31141932D02*
X23108753Y-31160979D01*
X23108753Y-31160979D02*
X23099229Y-31170503D01*
X23099229Y-31170503D02*
X23080182Y-31180027D01*
X23080182Y-31180027D02*
X23061134Y-31180027D01*
X23061134Y-31180027D02*
X23042086Y-31170503D01*
X23042086Y-31170503D02*
X23032563Y-31160979D01*
X23032563Y-31160979D02*
X23023039Y-31141932D01*
X23023039Y-31141932D02*
X23013515Y-31103837D01*
X23013515Y-31103837D02*
X23013515Y-31056218D01*
X23013515Y-31056218D02*
X23023039Y-31018122D01*
X23023039Y-31018122D02*
X23032563Y-30999075D01*
X23032563Y-30999075D02*
X23042086Y-30989551D01*
X23042086Y-30989551D02*
X23061134Y-30980027D01*
X23213515Y-31160979D02*
X23223039Y-31170503D01*
X23223039Y-31170503D02*
X23213515Y-31180027D01*
X23213515Y-31180027D02*
X23203991Y-31170503D01*
X23203991Y-31170503D02*
X23213515Y-31160979D01*
X23213515Y-31160979D02*
X23213515Y-31180027D01*
X23413515Y-31180027D02*
X23299229Y-31180027D01*
X23356372Y-31180027D02*
X23356372Y-30980027D01*
X23356372Y-30980027D02*
X23337325Y-31008599D01*
X23337325Y-31008599D02*
X23318277Y-31027646D01*
X23318277Y-31027646D02*
X23299229Y-31037170D01*
X23489706Y-30999075D02*
X23499229Y-30989551D01*
X23499229Y-30989551D02*
X23518277Y-30980027D01*
X23518277Y-30980027D02*
X23565896Y-30980027D01*
X23565896Y-30980027D02*
X23584944Y-30989551D01*
X23584944Y-30989551D02*
X23594467Y-30999075D01*
X23594467Y-30999075D02*
X23603991Y-31018122D01*
X23603991Y-31018122D02*
X23603991Y-31037170D01*
X23603991Y-31037170D02*
X23594467Y-31065741D01*
X23594467Y-31065741D02*
X23480182Y-31180027D01*
X23480182Y-31180027D02*
X23603991Y-31180027D01*
X23775420Y-30980027D02*
X23737325Y-30980027D01*
X23737325Y-30980027D02*
X23718277Y-30989551D01*
X23718277Y-30989551D02*
X23708753Y-30999075D01*
X23708753Y-30999075D02*
X23689706Y-31027646D01*
X23689706Y-31027646D02*
X23680182Y-31065741D01*
X23680182Y-31065741D02*
X23680182Y-31141932D01*
X23680182Y-31141932D02*
X23689706Y-31160979D01*
X23689706Y-31160979D02*
X23699229Y-31170503D01*
X23699229Y-31170503D02*
X23718277Y-31180027D01*
X23718277Y-31180027D02*
X23756372Y-31180027D01*
X23756372Y-31180027D02*
X23775420Y-31170503D01*
X23775420Y-31170503D02*
X23784944Y-31160979D01*
X23784944Y-31160979D02*
X23794467Y-31141932D01*
X23794467Y-31141932D02*
X23794467Y-31094313D01*
X23794467Y-31094313D02*
X23784944Y-31075265D01*
X23784944Y-31075265D02*
X23775420Y-31065741D01*
X23775420Y-31065741D02*
X23756372Y-31056218D01*
X23756372Y-31056218D02*
X23718277Y-31056218D01*
X23718277Y-31056218D02*
X23699229Y-31065741D01*
X23699229Y-31065741D02*
X23689706Y-31075265D01*
X23689706Y-31075265D02*
X23680182Y-31094313D01*
X23918277Y-30980027D02*
X23937325Y-30980027D01*
X23937325Y-30980027D02*
X23956372Y-30989551D01*
X23956372Y-30989551D02*
X23965896Y-30999075D01*
X23965896Y-30999075D02*
X23975420Y-31018122D01*
X23975420Y-31018122D02*
X23984944Y-31056218D01*
X23984944Y-31056218D02*
X23984944Y-31103837D01*
X23984944Y-31103837D02*
X23975420Y-31141932D01*
X23975420Y-31141932D02*
X23965896Y-31160979D01*
X23965896Y-31160979D02*
X23956372Y-31170503D01*
X23956372Y-31170503D02*
X23937325Y-31180027D01*
X23937325Y-31180027D02*
X23918277Y-31180027D01*
X23918277Y-31180027D02*
X23899229Y-31170503D01*
X23899229Y-31170503D02*
X23889706Y-31160979D01*
X23889706Y-31160979D02*
X23880182Y-31141932D01*
X23880182Y-31141932D02*
X23870658Y-31103837D01*
X23870658Y-31103837D02*
X23870658Y-31056218D01*
X23870658Y-31056218D02*
X23880182Y-31018122D01*
X23880182Y-31018122D02*
X23889706Y-30999075D01*
X23889706Y-30999075D02*
X23899229Y-30989551D01*
X23899229Y-30989551D02*
X23918277Y-30980027D01*
X24061134Y-30980027D02*
X24061134Y-31018122D01*
X24137325Y-30980027D02*
X24137325Y-31018122D01*
X24432563Y-31256218D02*
X24423039Y-31246694D01*
X24423039Y-31246694D02*
X24403991Y-31218122D01*
X24403991Y-31218122D02*
X24394468Y-31199075D01*
X24394468Y-31199075D02*
X24384944Y-31170503D01*
X24384944Y-31170503D02*
X24375420Y-31122884D01*
X24375420Y-31122884D02*
X24375420Y-31084789D01*
X24375420Y-31084789D02*
X24384944Y-31037170D01*
X24384944Y-31037170D02*
X24394468Y-31008599D01*
X24394468Y-31008599D02*
X24403991Y-30989551D01*
X24403991Y-30989551D02*
X24423039Y-30960979D01*
X24423039Y-30960979D02*
X24432563Y-30951456D01*
X24603991Y-30980027D02*
X24508753Y-30980027D01*
X24508753Y-30980027D02*
X24499229Y-31075265D01*
X24499229Y-31075265D02*
X24508753Y-31065741D01*
X24508753Y-31065741D02*
X24527801Y-31056218D01*
X24527801Y-31056218D02*
X24575420Y-31056218D01*
X24575420Y-31056218D02*
X24594468Y-31065741D01*
X24594468Y-31065741D02*
X24603991Y-31075265D01*
X24603991Y-31075265D02*
X24613515Y-31094313D01*
X24613515Y-31094313D02*
X24613515Y-31141932D01*
X24613515Y-31141932D02*
X24603991Y-31160979D01*
X24603991Y-31160979D02*
X24594468Y-31170503D01*
X24594468Y-31170503D02*
X24575420Y-31180027D01*
X24575420Y-31180027D02*
X24527801Y-31180027D01*
X24527801Y-31180027D02*
X24508753Y-31170503D01*
X24508753Y-31170503D02*
X24499229Y-31160979D01*
X24784944Y-31046694D02*
X24784944Y-31180027D01*
X24737325Y-30970503D02*
X24689706Y-31113360D01*
X24689706Y-31113360D02*
X24813515Y-31113360D01*
X25042087Y-31180027D02*
X25042087Y-30980027D01*
X25127801Y-31180027D02*
X25127801Y-31075265D01*
X25127801Y-31075265D02*
X25118277Y-31056218D01*
X25118277Y-31056218D02*
X25099230Y-31046694D01*
X25099230Y-31046694D02*
X25070658Y-31046694D01*
X25070658Y-31046694D02*
X25051610Y-31056218D01*
X25051610Y-31056218D02*
X25042087Y-31065741D01*
X25251610Y-31180027D02*
X25232563Y-31170503D01*
X25232563Y-31170503D02*
X25223039Y-31160979D01*
X25223039Y-31160979D02*
X25213515Y-31141932D01*
X25213515Y-31141932D02*
X25213515Y-31084789D01*
X25213515Y-31084789D02*
X25223039Y-31065741D01*
X25223039Y-31065741D02*
X25232563Y-31056218D01*
X25232563Y-31056218D02*
X25251610Y-31046694D01*
X25251610Y-31046694D02*
X25280182Y-31046694D01*
X25280182Y-31046694D02*
X25299230Y-31056218D01*
X25299230Y-31056218D02*
X25308753Y-31065741D01*
X25308753Y-31065741D02*
X25318277Y-31084789D01*
X25318277Y-31084789D02*
X25318277Y-31141932D01*
X25318277Y-31141932D02*
X25308753Y-31160979D01*
X25308753Y-31160979D02*
X25299230Y-31170503D01*
X25299230Y-31170503D02*
X25280182Y-31180027D01*
X25280182Y-31180027D02*
X25251610Y-31180027D01*
X25432563Y-31180027D02*
X25413515Y-31170503D01*
X25413515Y-31170503D02*
X25403991Y-31151456D01*
X25403991Y-31151456D02*
X25403991Y-30980027D01*
X25584944Y-31170503D02*
X25565896Y-31180027D01*
X25565896Y-31180027D02*
X25527801Y-31180027D01*
X25527801Y-31180027D02*
X25508753Y-31170503D01*
X25508753Y-31170503D02*
X25499230Y-31151456D01*
X25499230Y-31151456D02*
X25499230Y-31075265D01*
X25499230Y-31075265D02*
X25508753Y-31056218D01*
X25508753Y-31056218D02*
X25527801Y-31046694D01*
X25527801Y-31046694D02*
X25565896Y-31046694D01*
X25565896Y-31046694D02*
X25584944Y-31056218D01*
X25584944Y-31056218D02*
X25594468Y-31075265D01*
X25594468Y-31075265D02*
X25594468Y-31094313D01*
X25594468Y-31094313D02*
X25499230Y-31113360D01*
X25670658Y-31170503D02*
X25689706Y-31180027D01*
X25689706Y-31180027D02*
X25727801Y-31180027D01*
X25727801Y-31180027D02*
X25746849Y-31170503D01*
X25746849Y-31170503D02*
X25756372Y-31151456D01*
X25756372Y-31151456D02*
X25756372Y-31141932D01*
X25756372Y-31141932D02*
X25746849Y-31122884D01*
X25746849Y-31122884D02*
X25727801Y-31113360D01*
X25727801Y-31113360D02*
X25699230Y-31113360D01*
X25699230Y-31113360D02*
X25680182Y-31103837D01*
X25680182Y-31103837D02*
X25670658Y-31084789D01*
X25670658Y-31084789D02*
X25670658Y-31075265D01*
X25670658Y-31075265D02*
X25680182Y-31056218D01*
X25680182Y-31056218D02*
X25699230Y-31046694D01*
X25699230Y-31046694D02*
X25727801Y-31046694D01*
X25727801Y-31046694D02*
X25746849Y-31056218D01*
X25823039Y-31256218D02*
X25832563Y-31246694D01*
X25832563Y-31246694D02*
X25851611Y-31218122D01*
X25851611Y-31218122D02*
X25861134Y-31199075D01*
X25861134Y-31199075D02*
X25870658Y-31170503D01*
X25870658Y-31170503D02*
X25880182Y-31122884D01*
X25880182Y-31122884D02*
X25880182Y-31084789D01*
X25880182Y-31084789D02*
X25870658Y-31037170D01*
X25870658Y-31037170D02*
X25861134Y-31008599D01*
X25861134Y-31008599D02*
X25851611Y-30989551D01*
X25851611Y-30989551D02*
X25832563Y-30960979D01*
X25832563Y-30960979D02*
X25823039Y-30951456D01*
X26184944Y-31256218D02*
X26175420Y-31246694D01*
X26175420Y-31246694D02*
X26156372Y-31218122D01*
X26156372Y-31218122D02*
X26146849Y-31199075D01*
X26146849Y-31199075D02*
X26137325Y-31170503D01*
X26137325Y-31170503D02*
X26127801Y-31122884D01*
X26127801Y-31122884D02*
X26127801Y-31084789D01*
X26127801Y-31084789D02*
X26137325Y-31037170D01*
X26137325Y-31037170D02*
X26146849Y-31008599D01*
X26146849Y-31008599D02*
X26156372Y-30989551D01*
X26156372Y-30989551D02*
X26175420Y-30960979D01*
X26175420Y-30960979D02*
X26184944Y-30951456D01*
X26261134Y-31046694D02*
X26261134Y-31180027D01*
X26261134Y-31065741D02*
X26270658Y-31056218D01*
X26270658Y-31056218D02*
X26289706Y-31046694D01*
X26289706Y-31046694D02*
X26318277Y-31046694D01*
X26318277Y-31046694D02*
X26337325Y-31056218D01*
X26337325Y-31056218D02*
X26346849Y-31075265D01*
X26346849Y-31075265D02*
X26346849Y-31180027D01*
X26470658Y-31180027D02*
X26451611Y-31170503D01*
X26451611Y-31170503D02*
X26442087Y-31160979D01*
X26442087Y-31160979D02*
X26432563Y-31141932D01*
X26432563Y-31141932D02*
X26432563Y-31084789D01*
X26432563Y-31084789D02*
X26442087Y-31065741D01*
X26442087Y-31065741D02*
X26451611Y-31056218D01*
X26451611Y-31056218D02*
X26470658Y-31046694D01*
X26470658Y-31046694D02*
X26499230Y-31046694D01*
X26499230Y-31046694D02*
X26518277Y-31056218D01*
X26518277Y-31056218D02*
X26527801Y-31065741D01*
X26527801Y-31065741D02*
X26537325Y-31084789D01*
X26537325Y-31084789D02*
X26537325Y-31141932D01*
X26537325Y-31141932D02*
X26527801Y-31160979D01*
X26527801Y-31160979D02*
X26518277Y-31170503D01*
X26518277Y-31170503D02*
X26499230Y-31180027D01*
X26499230Y-31180027D02*
X26470658Y-31180027D01*
X26594468Y-31046694D02*
X26670658Y-31046694D01*
X26623039Y-30980027D02*
X26623039Y-31151456D01*
X26623039Y-31151456D02*
X26632563Y-31170503D01*
X26632563Y-31170503D02*
X26651611Y-31180027D01*
X26651611Y-31180027D02*
X26670658Y-31180027D01*
X26889706Y-31046694D02*
X26889706Y-31246694D01*
X26889706Y-31056218D02*
X26908753Y-31046694D01*
X26908753Y-31046694D02*
X26946849Y-31046694D01*
X26946849Y-31046694D02*
X26965896Y-31056218D01*
X26965896Y-31056218D02*
X26975420Y-31065741D01*
X26975420Y-31065741D02*
X26984944Y-31084789D01*
X26984944Y-31084789D02*
X26984944Y-31141932D01*
X26984944Y-31141932D02*
X26975420Y-31160979D01*
X26975420Y-31160979D02*
X26965896Y-31170503D01*
X26965896Y-31170503D02*
X26946849Y-31180027D01*
X26946849Y-31180027D02*
X26908753Y-31180027D01*
X26908753Y-31180027D02*
X26889706Y-31170503D01*
X27099230Y-31180027D02*
X27080182Y-31170503D01*
X27080182Y-31170503D02*
X27070658Y-31151456D01*
X27070658Y-31151456D02*
X27070658Y-30980027D01*
X27261134Y-31180027D02*
X27261134Y-31075265D01*
X27261134Y-31075265D02*
X27251611Y-31056218D01*
X27251611Y-31056218D02*
X27232563Y-31046694D01*
X27232563Y-31046694D02*
X27194468Y-31046694D01*
X27194468Y-31046694D02*
X27175420Y-31056218D01*
X27261134Y-31170503D02*
X27242087Y-31180027D01*
X27242087Y-31180027D02*
X27194468Y-31180027D01*
X27194468Y-31180027D02*
X27175420Y-31170503D01*
X27175420Y-31170503D02*
X27165896Y-31151456D01*
X27165896Y-31151456D02*
X27165896Y-31132408D01*
X27165896Y-31132408D02*
X27175420Y-31113360D01*
X27175420Y-31113360D02*
X27194468Y-31103837D01*
X27194468Y-31103837D02*
X27242087Y-31103837D01*
X27242087Y-31103837D02*
X27261134Y-31094313D01*
X27327801Y-31046694D02*
X27403992Y-31046694D01*
X27356373Y-30980027D02*
X27356373Y-31151456D01*
X27356373Y-31151456D02*
X27365896Y-31170503D01*
X27365896Y-31170503D02*
X27384944Y-31180027D01*
X27384944Y-31180027D02*
X27403992Y-31180027D01*
X27546849Y-31170503D02*
X27527801Y-31180027D01*
X27527801Y-31180027D02*
X27489706Y-31180027D01*
X27489706Y-31180027D02*
X27470658Y-31170503D01*
X27470658Y-31170503D02*
X27461134Y-31151456D01*
X27461134Y-31151456D02*
X27461134Y-31075265D01*
X27461134Y-31075265D02*
X27470658Y-31056218D01*
X27470658Y-31056218D02*
X27489706Y-31046694D01*
X27489706Y-31046694D02*
X27527801Y-31046694D01*
X27527801Y-31046694D02*
X27546849Y-31056218D01*
X27546849Y-31056218D02*
X27556373Y-31075265D01*
X27556373Y-31075265D02*
X27556373Y-31094313D01*
X27556373Y-31094313D02*
X27461134Y-31113360D01*
X27727801Y-31180027D02*
X27727801Y-30980027D01*
X27727801Y-31170503D02*
X27708754Y-31180027D01*
X27708754Y-31180027D02*
X27670658Y-31180027D01*
X27670658Y-31180027D02*
X27651611Y-31170503D01*
X27651611Y-31170503D02*
X27642087Y-31160979D01*
X27642087Y-31160979D02*
X27632563Y-31141932D01*
X27632563Y-31141932D02*
X27632563Y-31084789D01*
X27632563Y-31084789D02*
X27642087Y-31065741D01*
X27642087Y-31065741D02*
X27651611Y-31056218D01*
X27651611Y-31056218D02*
X27670658Y-31046694D01*
X27670658Y-31046694D02*
X27708754Y-31046694D01*
X27708754Y-31046694D02*
X27727801Y-31056218D01*
X27803992Y-31256218D02*
X27813515Y-31246694D01*
X27813515Y-31246694D02*
X27832563Y-31218122D01*
X27832563Y-31218122D02*
X27842087Y-31199075D01*
X27842087Y-31199075D02*
X27851611Y-31170503D01*
X27851611Y-31170503D02*
X27861134Y-31122884D01*
X27861134Y-31122884D02*
X27861134Y-31084789D01*
X27861134Y-31084789D02*
X27851611Y-31037170D01*
X27851611Y-31037170D02*
X27842087Y-31008599D01*
X27842087Y-31008599D02*
X27832563Y-30989551D01*
X27832563Y-30989551D02*
X27813515Y-30960979D01*
X27813515Y-30960979D02*
X27803992Y-30951456D01*
M02*
