%TF.GenerationSoftware,KiCad,Pcbnew,10.0.1*%
%TF.CreationDate,2026-05-25T11:41:57-07:00*%
%TF.ProjectId,eye-of-terror,6579652d-6f66-42d7-9465-72726f722e6b,rev?*%
%TF.SameCoordinates,Original*%
%TF.FileFunction,Paste,Bot*%
%TF.FilePolarity,Positive*%
%FSLAX46Y46*%
G04 Gerber Fmt 4.6, Leading zero omitted, Abs format (unit mm)*
G04 Created by KiCad (PCBNEW 10.0.1) date 2026-05-25 11:41:57*
%MOMM*%
%LPD*%
G01*
G04 APERTURE LIST*
G04 Aperture macros list*
%AMRoundRect*
0 Rectangle with rounded corners*
0 $1 Rounding radius*
0 $2 $3 $4 $5 $6 $7 $8 $9 X,Y pos of 4 corners*
0 Add a 4 corners polygon primitive as box body*
4,1,4,$2,$3,$4,$5,$6,$7,$8,$9,$2,$3,0*
0 Add four circle primitives for the rounded corners*
1,1,$1+$1,$2,$3*
1,1,$1+$1,$4,$5*
1,1,$1+$1,$6,$7*
1,1,$1+$1,$8,$9*
0 Add four rect primitives between the rounded corners*
20,1,$1+$1,$2,$3,$4,$5,0*
20,1,$1+$1,$4,$5,$6,$7,0*
20,1,$1+$1,$6,$7,$8,$9,0*
20,1,$1+$1,$8,$9,$2,$3,0*%
G04 Aperture macros list end*
%ADD10RoundRect,0.155000X-0.212500X-0.155000X0.212500X-0.155000X0.212500X0.155000X-0.212500X0.155000X0*%
%ADD11RoundRect,0.160000X0.197500X0.160000X-0.197500X0.160000X-0.197500X-0.160000X0.197500X-0.160000X0*%
%ADD12RoundRect,0.160000X-0.197500X-0.160000X0.197500X-0.160000X0.197500X0.160000X-0.197500X0.160000X0*%
%ADD13RoundRect,0.155000X-0.040659X-0.259862X0.259862X0.040659X0.040659X0.259862X-0.259862X-0.040659X0*%
%ADD14RoundRect,0.155000X0.040659X0.259862X-0.259862X-0.040659X-0.040659X-0.259862X0.259862X0.040659X0*%
%ADD15RoundRect,0.155000X0.259862X-0.040659X-0.040659X0.259862X-0.259862X0.040659X0.040659X-0.259862X0*%
%ADD16RoundRect,0.160000X0.252791X-0.026517X-0.026517X0.252791X-0.252791X0.026517X0.026517X-0.252791X0*%
%ADD17RoundRect,0.237500X0.044194X0.380070X-0.380070X-0.044194X-0.044194X-0.380070X0.380070X0.044194X0*%
%ADD18RoundRect,0.155000X-0.259862X0.040659X0.040659X-0.259862X0.259862X-0.040659X-0.040659X0.259862X0*%
%ADD19RoundRect,0.160000X-0.252791X0.026517X0.026517X-0.252791X0.252791X-0.026517X-0.026517X0.252791X0*%
%ADD20RoundRect,0.250001X0.462499X0.624999X-0.462499X0.624999X-0.462499X-0.624999X0.462499X-0.624999X0*%
%ADD21RoundRect,0.237500X-0.380070X0.044194X0.044194X-0.380070X0.380070X-0.044194X-0.044194X0.380070X0*%
%ADD22RoundRect,0.250001X-0.462499X-0.624999X0.462499X-0.624999X0.462499X0.624999X-0.462499X0.624999X0*%
%ADD23RoundRect,0.237500X0.124728X0.351434X-0.368660X0.056147X-0.124728X-0.351434X0.368660X-0.056147X0*%
%ADD24RoundRect,0.250000X1.343503X-0.070711X-0.070711X1.343503X-1.343503X0.070711X0.070711X-1.343503X0*%
%ADD25RoundRect,0.087499X0.387501X0.087499X-0.387501X0.087499X-0.387501X-0.087499X0.387501X-0.087499X0*%
%ADD26RoundRect,0.087500X0.387500X0.087500X-0.387500X0.087500X-0.387500X-0.087500X0.387500X-0.087500X0*%
%ADD27RoundRect,0.087500X0.087499X0.362500X-0.087499X0.362500X-0.087499X-0.362500X0.087499X-0.362500X0*%
%ADD28RoundRect,0.087500X0.087500X0.362500X-0.087500X0.362500X-0.087500X-0.362500X0.087500X-0.362500X0*%
%ADD29RoundRect,0.087500X0.087499X0.362500X-0.087499X0.362500X-0.087499X-0.362500X0.087499X-0.362500X0*%
%ADD30RoundRect,0.087499X0.087499X0.362501X-0.087499X0.362501X-0.087499X-0.362501X0.087499X-0.362501X0*%
%ADD31RoundRect,0.237500X-0.044194X-0.380070X0.380070X0.044194X0.044194X0.380070X-0.380070X-0.044194X0*%
%ADD32RoundRect,0.500000X-0.500000X0.875000X-0.500000X-0.875000X0.500000X-0.875000X0.500000X0.875000X0*%
%ADD33RoundRect,0.250000X-0.400000X-1.075000X0.400000X-1.075000X0.400000X1.075000X-0.400000X1.075000X0*%
%ADD34RoundRect,0.237500X0.250000X0.237500X-0.250000X0.237500X-0.250000X-0.237500X0.250000X-0.237500X0*%
%ADD35RoundRect,0.150000X0.212132X0.707107X-0.707107X-0.212132X-0.212132X-0.707107X0.707107X0.212132X0*%
G04 APERTURE END LIST*
D10*
%TO.C,C11*%
X267965000Y-209462500D03*
X269100000Y-209462500D03*
%TD*%
D11*
%TO.C,R54*%
X302397500Y-282500000D03*
X301202500Y-282500000D03*
%TD*%
D12*
%TO.C,R57*%
X304502500Y-277500000D03*
X305697500Y-277500000D03*
%TD*%
D13*
%TO.C,C20*%
X308997676Y-156802324D03*
X309800242Y-155999758D03*
%TD*%
D14*
%TO.C,C32*%
X285311872Y-148068170D03*
X284509306Y-148870736D03*
%TD*%
D15*
%TO.C,C10*%
X266101283Y-209363783D03*
X265298717Y-208561217D03*
%TD*%
%TO.C,C23*%
X321300242Y-152102324D03*
X320497676Y-151299758D03*
%TD*%
D16*
%TO.C,R2*%
X331321455Y-146623537D03*
X330476463Y-145778545D03*
%TD*%
D12*
%TO.C,R52*%
X315602500Y-274600000D03*
X316797500Y-274600000D03*
%TD*%
D17*
%TO.C,C34*%
X287807888Y-147611565D03*
X286588128Y-148831325D03*
%TD*%
D11*
%TO.C,R64*%
X313297500Y-285500000D03*
X312102500Y-285500000D03*
%TD*%
D18*
%TO.C,C15*%
X308397676Y-145499758D03*
X309200242Y-146302324D03*
%TD*%
D19*
%TO.C,R1*%
X326176463Y-150078545D03*
X327021455Y-150923537D03*
%TD*%
D15*
%TO.C,C16*%
X321800242Y-148902324D03*
X320997676Y-148099758D03*
%TD*%
D20*
%TO.C,D28*%
X315185000Y-282575439D03*
X312210000Y-282575439D03*
%TD*%
D21*
%TO.C,C31*%
X281792112Y-150211565D03*
X283011872Y-151431325D03*
%TD*%
D20*
%TO.C,D27*%
X315185000Y-277575439D03*
X312210000Y-277575439D03*
%TD*%
D11*
%TO.C,R22*%
X382097500Y-174800000D03*
X380902500Y-174800000D03*
%TD*%
%TO.C,R56*%
X313297500Y-274600000D03*
X312102500Y-274600000D03*
%TD*%
D22*
%TO.C,D24*%
X302210000Y-275075439D03*
X305185000Y-275075439D03*
%TD*%
D11*
%TO.C,R58*%
X313297500Y-280000000D03*
X312102500Y-280000000D03*
%TD*%
D23*
%TO.C,Q16*%
X309448603Y-284631649D03*
X307946989Y-285530347D03*
%TD*%
D22*
%TO.C,D25*%
X302210000Y-280085439D03*
X305185000Y-280085439D03*
%TD*%
D15*
%TO.C,C22*%
X314800242Y-158502324D03*
X313997676Y-157699758D03*
%TD*%
%TO.C,C18*%
X321100244Y-149602324D03*
X320297674Y-148799758D03*
%TD*%
D24*
%TO.C,D9*%
X327819239Y-156421321D03*
X324778679Y-153380761D03*
%TD*%
D14*
%TO.C,C25*%
X322501283Y-143198717D03*
X321698717Y-144001283D03*
%TD*%
D17*
%TO.C,C35*%
X289550000Y-156969453D03*
X288330240Y-158189213D03*
%TD*%
D15*
%TO.C,C17*%
X319000242Y-156202324D03*
X318197676Y-155399758D03*
%TD*%
D14*
%TO.C,C29*%
X318600242Y-142899758D03*
X317797676Y-143702324D03*
%TD*%
D18*
%TO.C,C21*%
X308198717Y-142498717D03*
X309001283Y-143301283D03*
%TD*%
%TO.C,C24*%
X306798717Y-147298717D03*
X307601283Y-148101283D03*
%TD*%
D12*
%TO.C,R59*%
X315602500Y-280000000D03*
X316797500Y-280000000D03*
%TD*%
D11*
%TO.C,R53*%
X302397500Y-277500000D03*
X301202500Y-277500000D03*
%TD*%
D25*
%TO.C,U4*%
X269125000Y-205900002D03*
D26*
X269125000Y-206400000D03*
X269125000Y-206900000D03*
X269125000Y-207400000D03*
D27*
X268299999Y-207700000D03*
D28*
X267800000Y-207700000D03*
X267300000Y-207700000D03*
D26*
X266475000Y-207400000D03*
X266475000Y-206900000D03*
D25*
X266475000Y-206400002D03*
D26*
X266475000Y-205900000D03*
D28*
X267300000Y-205600000D03*
D29*
X267800000Y-205600000D03*
D30*
X268299998Y-205600000D03*
%TD*%
D23*
%TO.C,Q13*%
X309448603Y-277131649D03*
X307946989Y-278030347D03*
%TD*%
D12*
%TO.C,R60*%
X315602500Y-285500000D03*
X316797500Y-285500000D03*
%TD*%
D23*
%TO.C,Q15*%
X309448603Y-282131649D03*
X307946989Y-283030347D03*
%TD*%
%TO.C,Q12*%
X309453560Y-274630202D03*
X307951946Y-275528900D03*
%TD*%
%TO.C,Q14*%
X309448603Y-279631649D03*
X307946989Y-280530347D03*
%TD*%
D31*
%TO.C,C33*%
X288040120Y-149679333D03*
X289259880Y-148459573D03*
%TD*%
D32*
%TO.C,U6*%
X353120000Y-179512500D03*
X355660000Y-179512500D03*
X358200000Y-179512500D03*
X360740000Y-179512500D03*
%TD*%
D15*
%TO.C,C26*%
X318300242Y-156902324D03*
X317497676Y-156099758D03*
%TD*%
D22*
%TO.C,D26*%
X302210000Y-285075439D03*
X305185000Y-285075439D03*
%TD*%
D13*
%TO.C,C28*%
X307798959Y-155602324D03*
X308601525Y-154799758D03*
%TD*%
%TO.C,C27*%
X306597676Y-154302324D03*
X307400242Y-153499758D03*
%TD*%
D33*
%TO.C,R23*%
X381250000Y-177400000D03*
X384350000Y-177400000D03*
%TD*%
D21*
%TO.C,C30*%
X282892112Y-149111565D03*
X284111872Y-150331325D03*
%TD*%
D34*
%TO.C,R20*%
X378812500Y-177300000D03*
X376987500Y-177300000D03*
%TD*%
D12*
%TO.C,R21*%
X377202500Y-180100000D03*
X378397500Y-180100000D03*
%TD*%
D14*
%TO.C,C19*%
X322700242Y-149999758D03*
X321897676Y-150802324D03*
%TD*%
D35*
%TO.C,L3*%
X321891852Y-146593934D03*
X323306066Y-148008148D03*
%TD*%
D12*
%TO.C,R63*%
X304502500Y-282500000D03*
X305697500Y-282500000D03*
%TD*%
D19*
%TO.C,R12*%
X323776463Y-149478545D03*
X324621455Y-150323537D03*
%TD*%
M02*
