%TF.GenerationSoftware,KiCad,Pcbnew,10.0.1*%
%TF.CreationDate,2026-05-27T22:48:48-07:00*%
%TF.ProjectId,eye-of-terror,6579652d-6f66-42d7-9465-72726f722e6b,rev?*%
%TF.SameCoordinates,Original*%
%TF.FileFunction,Copper,L1,Top*%
%TF.FilePolarity,Positive*%
%FSLAX46Y46*%
G04 Gerber Fmt 4.6, Leading zero omitted, Abs format (unit mm)*
G04 Created by KiCad (PCBNEW 10.0.1) date 2026-05-27 22:48:48*
%MOMM*%
%LPD*%
G01*
G04 APERTURE LIST*
G04 Aperture macros list*
%AMRoundRect*
0 Rectangle with rounded corners*
0 $1 Rounding radius*
0 $2 $3 $4 $5 $6 $7 $8 $9 X,Y pos of 4 corners*
0 Add a 4 corners polygon primitive as box body*
4,1,4,$2,$3,$4,$5,$6,$7,$8,$9,$2,$3,0*
0 Add four circle primitives for the rounded corners*
1,1,$1+$1,$2,$3*
1,1,$1+$1,$4,$5*
1,1,$1+$1,$6,$7*
1,1,$1+$1,$8,$9*
0 Add four rect primitives between the rounded corners*
20,1,$1+$1,$2,$3,$4,$5,0*
20,1,$1+$1,$4,$5,$6,$7,0*
20,1,$1+$1,$6,$7,$8,$9,0*
20,1,$1+$1,$8,$9,$2,$3,0*%
%AMHorizOval*
0 Thick line with rounded ends*
0 $1 width*
0 $2 $3 position (X,Y) of the first rounded end (center of the circle)*
0 $4 $5 position (X,Y) of the second rounded end (center of the circle)*
0 Add line between two ends*
20,1,$1,$2,$3,$4,$5,0*
0 Add two circle primitives to create the rounded ends*
1,1,$1,$2,$3*
1,1,$1,$4,$5*%
%AMRotRect*
0 Rectangle, with rotation*
0 The origin of the aperture is its center*
0 $1 length*
0 $2 width*
0 $3 Rotation angle, in degrees counterclockwise*
0 Add horizontal line*
21,1,$1,$2,0,0,$3*%
%AMFreePoly0*
4,1,23,0.500000,-0.750000,0.000000,-0.750000,0.000000,-0.745722,-0.065263,-0.745722,-0.191342,-0.711940,-0.304381,-0.646677,-0.396677,-0.554381,-0.461940,-0.441342,-0.495722,-0.315263,-0.495722,-0.250000,-0.500000,-0.250000,-0.500000,0.250000,-0.495722,0.250000,-0.495722,0.315263,-0.461940,0.441342,-0.396677,0.554381,-0.304381,0.646677,-0.191342,0.711940,-0.065263,0.745722,0.000000,0.745722,
0.000000,0.750000,0.500000,0.750000,0.500000,-0.750000,0.500000,-0.750000,$1*%
%AMFreePoly1*
4,1,23,0.000000,0.745722,0.065263,0.745722,0.191342,0.711940,0.304381,0.646677,0.396677,0.554381,0.461940,0.441342,0.495722,0.315263,0.495722,0.250000,0.500000,0.250000,0.500000,-0.250000,0.495722,-0.250000,0.495722,-0.315263,0.461940,-0.441342,0.396677,-0.554381,0.304381,-0.646677,0.191342,-0.711940,0.065263,-0.745722,0.000000,-0.745722,0.000000,-0.750000,-0.500000,-0.750000,
-0.500000,0.750000,0.000000,0.750000,0.000000,0.745722,0.000000,0.745722,$1*%
%AMFreePoly2*
4,1,30,0.400000,-4.000000,-0.400000,-4.000000,-2.400000,-4.000000,-2.400000,-3.200000,-0.400000,-3.200000,-0.400000,-2.800000,-2.400000,-2.800000,-2.400000,-2.000000,-0.400000,-2.000000,-0.400000,-1.600000,-2.400000,-1.600000,-2.400000,-0.800000,-0.400000,-0.800000,-0.400000,-0.400000,-2.400000,-0.400000,-2.400000,0.400000,-0.400000,0.400000,-0.400000,0.800000,-2.400000,0.800000,-2.400000,1.600000,
-0.400000,1.600000,-0.400000,2.000000,-2.400000,2.000000,-2.400000,2.800000,-0.400000,2.800000,-0.400000,3.200000,-2.400000,3.200000,-2.400000,4.000000,0.400000,4.000000,0.400000,-4.000000,0.400000,-4.000000,$1*%
%AMFreePoly3*
4,1,13,2.850000,-5.050000,1.450000,-5.050000,1.450000,-4.350000,-1.450000,-4.350000,-1.450000,-4.850000,-5.150000,-4.850000,-5.150000,4.850000,-1.450000,4.850000,-1.450000,4.350000,1.450000,4.350000,1.450000,5.050000,2.850000,5.050000,2.850000,-5.050000,2.850000,-5.050000,$1*%
%AMFreePoly4*
4,1,23,0.550000,-0.750000,0.000000,-0.750000,0.000000,-0.745722,-0.065263,-0.745722,-0.191342,-0.711940,-0.304381,-0.646677,-0.396677,-0.554381,-0.461940,-0.441342,-0.495722,-0.315263,-0.495722,-0.250000,-0.500000,-0.250000,-0.500000,0.250000,-0.495722,0.250000,-0.495722,0.315263,-0.461940,0.441342,-0.396677,0.554381,-0.304381,0.646677,-0.191342,0.711940,-0.065263,0.745722,0.000000,0.745722,
0.000000,0.750000,0.550000,0.750000,0.550000,-0.750000,0.550000,-0.750000,$1*%
%AMFreePoly5*
4,1,23,0.000000,0.745722,0.065263,0.745722,0.191342,0.711940,0.304381,0.646677,0.396677,0.554381,0.461940,0.441342,0.495722,0.315263,0.495722,0.250000,0.500000,0.250000,0.500000,-0.250000,0.495722,-0.250000,0.495722,-0.315263,0.461940,-0.441342,0.396677,-0.554381,0.304381,-0.646677,0.191342,-0.711940,0.065263,-0.745722,0.000000,-0.745722,0.000000,-0.750000,-0.550000,-0.750000,
-0.550000,0.750000,0.000000,0.750000,0.000000,0.745722,0.000000,0.745722,$1*%
G04 Aperture macros list end*
%TA.AperFunction,Conductor*%
%ADD10C,1.000000*%
%TD*%
%TA.AperFunction,EtchedComponent*%
%ADD11C,0.000000*%
%TD*%
%TA.AperFunction,SMDPad,CuDef*%
%ADD12RoundRect,0.237500X-0.250000X-0.237500X0.250000X-0.237500X0.250000X0.237500X-0.250000X0.237500X0*%
%TD*%
%TA.AperFunction,SMDPad,CuDef*%
%ADD13R,1.000000X0.600000*%
%TD*%
%TA.AperFunction,SMDPad,CuDef*%
%ADD14RoundRect,0.375000X-0.875000X1.325000X-0.875000X-1.325000X0.875000X-1.325000X0.875000X1.325000X0*%
%TD*%
%TA.AperFunction,SMDPad,CuDef*%
%ADD15RoundRect,0.155000X-0.212500X-0.155000X0.212500X-0.155000X0.212500X0.155000X-0.212500X0.155000X0*%
%TD*%
%TA.AperFunction,SMDPad,CuDef*%
%ADD16HorizOval,0.230000X-0.130814X0.130814X0.130814X-0.130814X0*%
%TD*%
%TA.AperFunction,SMDPad,CuDef*%
%ADD17HorizOval,0.230000X-0.130814X-0.130814X0.130814X0.130814X0*%
%TD*%
%TA.AperFunction,ComponentPad*%
%ADD18C,0.600000*%
%TD*%
%TA.AperFunction,SMDPad,CuDef*%
%ADD19RotRect,4.150000X4.150000X315.000000*%
%TD*%
%TA.AperFunction,WasherPad*%
%ADD20C,1.100000*%
%TD*%
%TA.AperFunction,SMDPad,CuDef*%
%ADD21RotRect,0.304800X0.863600X135.000000*%
%TD*%
%TA.AperFunction,SMDPad,CuDef*%
%ADD22RoundRect,0.160000X-0.197500X-0.160000X0.197500X-0.160000X0.197500X0.160000X-0.197500X0.160000X0*%
%TD*%
%TA.AperFunction,SMDPad,CuDef*%
%ADD23RoundRect,0.237500X0.125341X0.351215X-0.368561X0.056791X-0.125341X-0.351215X0.368561X-0.056791X0*%
%TD*%
%TA.AperFunction,SMDPad,CuDef*%
%ADD24FreePoly0,0.000000*%
%TD*%
%TA.AperFunction,SMDPad,CuDef*%
%ADD25FreePoly1,0.000000*%
%TD*%
%TA.AperFunction,SMDPad,CuDef*%
%ADD26RoundRect,0.160000X0.197500X0.160000X-0.197500X0.160000X-0.197500X-0.160000X0.197500X-0.160000X0*%
%TD*%
%TA.AperFunction,SMDPad,CuDef*%
%ADD27RoundRect,0.237500X-0.237500X0.250000X-0.237500X-0.250000X0.237500X-0.250000X0.237500X0.250000X0*%
%TD*%
%TA.AperFunction,ComponentPad*%
%ADD28C,5.000000*%
%TD*%
%TA.AperFunction,SMDPad,CuDef*%
%ADD29RoundRect,0.237500X0.237500X-0.300000X0.237500X0.300000X-0.237500X0.300000X-0.237500X-0.300000X0*%
%TD*%
%TA.AperFunction,SMDPad,CuDef*%
%ADD30RoundRect,0.050000X0.000000X-0.070711X0.070711X0.000000X0.000000X0.070711X-0.070711X0.000000X0*%
%TD*%
%TA.AperFunction,SMDPad,CuDef*%
%ADD31RoundRect,0.250000X-0.550000X1.250000X-0.550000X-1.250000X0.550000X-1.250000X0.550000X1.250000X0*%
%TD*%
%TA.AperFunction,SMDPad,CuDef*%
%ADD32C,2.000000*%
%TD*%
%TA.AperFunction,SMDPad,CuDef*%
%ADD33RoundRect,0.250001X0.462499X0.624999X-0.462499X0.624999X-0.462499X-0.624999X0.462499X-0.624999X0*%
%TD*%
%TA.AperFunction,SMDPad,CuDef*%
%ADD34HorizOval,0.220000X-0.197990X0.197990X0.197990X-0.197990X0*%
%TD*%
%TA.AperFunction,SMDPad,CuDef*%
%ADD35HorizOval,0.220000X-0.197990X-0.197990X0.197990X0.197990X0*%
%TD*%
%TA.AperFunction,HeatsinkPad*%
%ADD36C,0.600000*%
%TD*%
%TA.AperFunction,SMDPad,CuDef*%
%ADD37RoundRect,0.200000X-2.121320X0.000000X0.000000X-2.121320X2.121320X0.000000X0.000000X2.121320X0*%
%TD*%
%TA.AperFunction,SMDPad,CuDef*%
%ADD38RoundRect,0.237500X-0.300000X-0.237500X0.300000X-0.237500X0.300000X0.237500X-0.300000X0.237500X0*%
%TD*%
%TA.AperFunction,SMDPad,CuDef*%
%ADD39R,0.800000X2.800000*%
%TD*%
%TA.AperFunction,SMDPad,CuDef*%
%ADD40FreePoly2,270.000000*%
%TD*%
%TA.AperFunction,SMDPad,CuDef*%
%ADD41FreePoly3,270.000000*%
%TD*%
%TA.AperFunction,SMDPad,CuDef*%
%ADD42RoundRect,0.155000X0.155000X-0.212500X0.155000X0.212500X-0.155000X0.212500X-0.155000X-0.212500X0*%
%TD*%
%TA.AperFunction,SMDPad,CuDef*%
%ADD43RoundRect,0.250000X-1.000000X-0.900000X1.000000X-0.900000X1.000000X0.900000X-1.000000X0.900000X0*%
%TD*%
%TA.AperFunction,SMDPad,CuDef*%
%ADD44RoundRect,0.237500X0.250000X0.237500X-0.250000X0.237500X-0.250000X-0.237500X0.250000X-0.237500X0*%
%TD*%
%TA.AperFunction,ComponentPad*%
%ADD45RoundRect,1.500000X-1.500000X-1.500000X1.500000X-1.500000X1.500000X1.500000X-1.500000X1.500000X0*%
%TD*%
%TA.AperFunction,ComponentPad*%
%ADD46C,6.000000*%
%TD*%
%TA.AperFunction,SMDPad,CuDef*%
%ADD47RoundRect,0.237500X0.237500X-0.250000X0.237500X0.250000X-0.237500X0.250000X-0.237500X-0.250000X0*%
%TD*%
%TA.AperFunction,SMDPad,CuDef*%
%ADD48RoundRect,0.250000X-0.400000X-0.625000X0.400000X-0.625000X0.400000X0.625000X-0.400000X0.625000X0*%
%TD*%
%TA.AperFunction,ComponentPad*%
%ADD49R,1.700000X1.700000*%
%TD*%
%TA.AperFunction,ComponentPad*%
%ADD50C,1.700000*%
%TD*%
%TA.AperFunction,SMDPad,CuDef*%
%ADD51RoundRect,0.160000X-0.026517X-0.252791X0.252791X0.026517X0.026517X0.252791X-0.252791X-0.026517X0*%
%TD*%
%TA.AperFunction,SMDPad,CuDef*%
%ADD52FreePoly0,180.000000*%
%TD*%
%TA.AperFunction,SMDPad,CuDef*%
%ADD53FreePoly1,180.000000*%
%TD*%
%TA.AperFunction,SMDPad,CuDef*%
%ADD54RoundRect,0.160000X0.160000X-0.197500X0.160000X0.197500X-0.160000X0.197500X-0.160000X-0.197500X0*%
%TD*%
%TA.AperFunction,SMDPad,CuDef*%
%ADD55RoundRect,0.250001X0.999999X-0.499999X0.999999X0.499999X-0.999999X0.499999X-0.999999X-0.499999X0*%
%TD*%
%TA.AperFunction,SMDPad,CuDef*%
%ADD56RoundRect,0.162500X0.837500X0.162500X-0.837500X0.162500X-0.837500X-0.162500X0.837500X-0.162500X0*%
%TD*%
%TA.AperFunction,SMDPad,CuDef*%
%ADD57R,2.800000X0.800000*%
%TD*%
%TA.AperFunction,SMDPad,CuDef*%
%ADD58FreePoly2,180.000000*%
%TD*%
%TA.AperFunction,SMDPad,CuDef*%
%ADD59FreePoly3,180.000000*%
%TD*%
%TA.AperFunction,SMDPad,CuDef*%
%ADD60RoundRect,0.250001X-0.462499X-0.624999X0.462499X-0.624999X0.462499X0.624999X-0.462499X0.624999X0*%
%TD*%
%TA.AperFunction,SMDPad,CuDef*%
%ADD61C,4.000000*%
%TD*%
%TA.AperFunction,SMDPad,CuDef*%
%ADD62C,1.000000*%
%TD*%
%TA.AperFunction,SMDPad,CuDef*%
%ADD63RoundRect,0.250001X-0.624999X0.462499X-0.624999X-0.462499X0.624999X-0.462499X0.624999X0.462499X0*%
%TD*%
%TA.AperFunction,SMDPad,CuDef*%
%ADD64RoundRect,0.160000X0.026517X0.252791X-0.252791X-0.026517X-0.026517X-0.252791X0.252791X0.026517X0*%
%TD*%
%TA.AperFunction,SMDPad,CuDef*%
%ADD65FreePoly2,90.000000*%
%TD*%
%TA.AperFunction,SMDPad,CuDef*%
%ADD66FreePoly3,90.000000*%
%TD*%
%TA.AperFunction,SMDPad,CuDef*%
%ADD67RoundRect,0.155000X-0.259862X0.040659X0.040659X-0.259862X0.259862X-0.040659X-0.040659X0.259862X0*%
%TD*%
%TA.AperFunction,SMDPad,CuDef*%
%ADD68RoundRect,0.250000X-0.708473X-1.167504X1.339407X0.266437X0.708473X1.167504X-1.339407X-0.266437X0*%
%TD*%
%TA.AperFunction,SMDPad,CuDef*%
%ADD69R,0.508000X0.901700*%
%TD*%
%TA.AperFunction,SMDPad,CuDef*%
%ADD70RoundRect,0.250000X0.400000X0.625000X-0.400000X0.625000X-0.400000X-0.625000X0.400000X-0.625000X0*%
%TD*%
%TA.AperFunction,SMDPad,CuDef*%
%ADD71RoundRect,0.160000X0.252791X-0.026517X-0.026517X0.252791X-0.252791X0.026517X0.026517X-0.252791X0*%
%TD*%
%TA.AperFunction,ComponentPad*%
%ADD72RoundRect,1.500000X1.500000X-1.500000X1.500000X1.500000X-1.500000X1.500000X-1.500000X-1.500000X0*%
%TD*%
%TA.AperFunction,SMDPad,CuDef*%
%ADD73RoundRect,0.250000X1.000000X0.900000X-1.000000X0.900000X-1.000000X-0.900000X1.000000X-0.900000X0*%
%TD*%
%TA.AperFunction,SMDPad,CuDef*%
%ADD74RoundRect,0.237500X-0.237500X0.300000X-0.237500X-0.300000X0.237500X-0.300000X0.237500X0.300000X0*%
%TD*%
%TA.AperFunction,SMDPad,CuDef*%
%ADD75FreePoly4,270.000000*%
%TD*%
%TA.AperFunction,SMDPad,CuDef*%
%ADD76R,1.500000X1.000000*%
%TD*%
%TA.AperFunction,SMDPad,CuDef*%
%ADD77FreePoly5,270.000000*%
%TD*%
%TA.AperFunction,ComponentPad*%
%ADD78RoundRect,1.500000X1.500000X1.500000X-1.500000X1.500000X-1.500000X-1.500000X1.500000X-1.500000X0*%
%TD*%
%TA.AperFunction,SMDPad,CuDef*%
%ADD79RoundRect,0.200000X-0.200000X-0.800000X0.200000X-0.800000X0.200000X0.800000X-0.200000X0.800000X0*%
%TD*%
%TA.AperFunction,SMDPad,CuDef*%
%ADD80FreePoly0,90.000000*%
%TD*%
%TA.AperFunction,SMDPad,CuDef*%
%ADD81FreePoly1,90.000000*%
%TD*%
%TA.AperFunction,SMDPad,CuDef*%
%ADD82RoundRect,0.155000X0.212500X0.155000X-0.212500X0.155000X-0.212500X-0.155000X0.212500X-0.155000X0*%
%TD*%
%TA.AperFunction,SMDPad,CuDef*%
%ADD83RoundRect,0.237500X0.300000X0.237500X-0.300000X0.237500X-0.300000X-0.237500X0.300000X-0.237500X0*%
%TD*%
%TA.AperFunction,SMDPad,CuDef*%
%ADD84RoundRect,0.162500X-0.162500X0.650000X-0.162500X-0.650000X0.162500X-0.650000X0.162500X0.650000X0*%
%TD*%
%TA.AperFunction,SMDPad,CuDef*%
%ADD85RoundRect,0.250000X-0.565685X0.070711X0.070711X-0.565685X0.565685X-0.070711X-0.070711X0.565685X0*%
%TD*%
%TA.AperFunction,SMDPad,CuDef*%
%ADD86R,1.850000X4.100000*%
%TD*%
%TA.AperFunction,SMDPad,CuDef*%
%ADD87RoundRect,0.200000X0.200000X0.800000X-0.200000X0.800000X-0.200000X-0.800000X0.200000X-0.800000X0*%
%TD*%
%TA.AperFunction,SMDPad,CuDef*%
%ADD88RoundRect,0.250000X0.625000X-0.400000X0.625000X0.400000X-0.625000X0.400000X-0.625000X-0.400000X0*%
%TD*%
%TA.AperFunction,SMDPad,CuDef*%
%ADD89FreePoly2,0.000000*%
%TD*%
%TA.AperFunction,SMDPad,CuDef*%
%ADD90FreePoly3,0.000000*%
%TD*%
%TA.AperFunction,ComponentPad*%
%ADD91R,0.850000X0.850000*%
%TD*%
%TA.AperFunction,ComponentPad*%
%ADD92C,0.850000*%
%TD*%
%TA.AperFunction,ViaPad*%
%ADD93C,0.600000*%
%TD*%
%TA.AperFunction,Conductor*%
%ADD94C,0.200000*%
%TD*%
%TA.AperFunction,Conductor*%
%ADD95C,4.000000*%
%TD*%
%TA.AperFunction,Conductor*%
%ADD96C,0.600000*%
%TD*%
G04 APERTURE END LIST*
%TO.N,DGND*%
D10*
X302800000Y-151300000D02*
X302800000Y-154600000D01*
X310400000Y-140800000D02*
X315000000Y-140800000D01*
X315800000Y-160300000D02*
X322900000Y-160300000D01*
X323400000Y-143350000D02*
X323400000Y-146650000D01*
D11*
%TA.AperFunction,EtchedComponent*%
%TD*%
%TO.C,JP19*%
G36*
X360700000Y-137700000D02*
G01*
X360200000Y-137700000D01*
X360200000Y-137100000D01*
X360700000Y-137100000D01*
X360700000Y-137700000D01*
G37*
%TD.AperFunction*%
%TA.AperFunction,EtchedComponent*%
%TO.C,NT5*%
G36*
X297300000Y-117500000D02*
G01*
X293300000Y-117500000D01*
X293300000Y-115500000D01*
X297300000Y-115500000D01*
X297300000Y-117500000D01*
G37*
%TD.AperFunction*%
%TA.AperFunction,EtchedComponent*%
%TO.C,JP16*%
G36*
X350950000Y-212300000D02*
G01*
X350450000Y-212300000D01*
X350450000Y-211700000D01*
X350950000Y-211700000D01*
X350950000Y-212300000D01*
G37*
%TD.AperFunction*%
%TA.AperFunction,EtchedComponent*%
%TO.C,JP23*%
G36*
X360700000Y-143100000D02*
G01*
X360200000Y-143100000D01*
X360200000Y-142500000D01*
X360700000Y-142500000D01*
X360700000Y-143100000D01*
G37*
%TD.AperFunction*%
%TA.AperFunction,EtchedComponent*%
%TO.C,NT1*%
G36*
X396700000Y-220800000D02*
G01*
X392700000Y-220800000D01*
X392700000Y-216800000D01*
X396700000Y-216800000D01*
X396700000Y-220800000D01*
G37*
%TD.AperFunction*%
%TA.AperFunction,EtchedComponent*%
%TO.C,NT2*%
G36*
X213500000Y-185600000D02*
G01*
X211500000Y-185600000D01*
X211500000Y-181600000D01*
X213500000Y-181600000D01*
X213500000Y-185600000D01*
G37*
%TD.AperFunction*%
%TA.AperFunction,EtchedComponent*%
%TO.C,JP22*%
G36*
X360700000Y-140400000D02*
G01*
X360200000Y-140400000D01*
X360200000Y-139800000D01*
X360700000Y-139800000D01*
X360700000Y-140400000D01*
G37*
%TD.AperFunction*%
%TA.AperFunction,EtchedComponent*%
%TO.C,JP24*%
G36*
X360700000Y-151200000D02*
G01*
X360200000Y-151200000D01*
X360200000Y-150600000D01*
X360700000Y-150600000D01*
X360700000Y-151200000D01*
G37*
%TD.AperFunction*%
%TA.AperFunction,EtchedComponent*%
%TO.C,JP21*%
G36*
X360700000Y-145800000D02*
G01*
X360200000Y-145800000D01*
X360200000Y-145200000D01*
X360700000Y-145200000D01*
X360700000Y-145800000D01*
G37*
%TD.AperFunction*%
%TA.AperFunction,EtchedComponent*%
%TO.C,NT4*%
G36*
X297300000Y-114250000D02*
G01*
X293300000Y-114250000D01*
X293300000Y-112250000D01*
X297300000Y-112250000D01*
X297300000Y-114250000D01*
G37*
%TD.AperFunction*%
%TA.AperFunction,EtchedComponent*%
%TO.C,JP20*%
G36*
X360700000Y-148500000D02*
G01*
X360200000Y-148500000D01*
X360200000Y-147900000D01*
X360700000Y-147900000D01*
X360700000Y-148500000D01*
G37*
%TD.AperFunction*%
%TA.AperFunction,EtchedComponent*%
%TO.C,NT3*%
G36*
X297300000Y-111000000D02*
G01*
X293300000Y-111000000D01*
X293300000Y-109000000D01*
X297300000Y-109000000D01*
X297300000Y-111000000D01*
G37*
%TD.AperFunction*%
%TD*%
D12*
%TO.P,R30,1*%
%TO.N,Net-(D8-K)*%
X321325000Y-129500000D03*
%TO.P,R30,2*%
%TO.N,DGND*%
X323150000Y-129500000D03*
%TD*%
D13*
%TO.P,U2,1,SW_1*%
%TO.N,Net-(D2-K)*%
X381050000Y-223207500D03*
%TO.P,U2,2,EN_2*%
%TO.N,Net-(U2-EN)*%
X381050000Y-224477500D03*
%TO.P,U2,3,COMP_3*%
%TO.N,Net-(U2-COMP)*%
X381050000Y-225747500D03*
%TO.P,U2,4,FB_4*%
%TO.N,Net-(U2-FB)*%
X381050000Y-227017500D03*
D14*
%TO.P,U2,5,GND_5*%
%TO.N,PGND*%
X383500000Y-225112500D03*
D13*
X385950000Y-227017500D03*
%TO.P,U2,6,FREQ_6*%
%TO.N,Net-(U2-FREQ)*%
X385950000Y-225747500D03*
%TO.P,U2,7,VIN_7*%
%TO.N,+BATT*%
X385950000Y-224477500D03*
%TO.P,U2,8,BST_8*%
%TO.N,Net-(U2-BST)*%
X385950000Y-223207500D03*
%TD*%
D15*
%TO.P,C8,1*%
%TO.N,+BATT*%
X388132500Y-223312500D03*
%TO.P,C8,2*%
%TO.N,PGND*%
X389267500Y-223312500D03*
%TD*%
D16*
%TO.P,U7,1,CPL_1*%
%TO.N,Net-(U7-CPL)*%
X285740382Y-150527854D03*
%TO.P,U7,2,CPH_2*%
%TO.N,Net-(U7-CPH)*%
X285386829Y-150881407D03*
%TO.P,U7,3,VM_3*%
%TO.N,+BATT*%
X285033275Y-151234962D03*
%TO.P,U7,4,VDRAIN_4*%
X284679722Y-151588514D03*
%TO.P,U7,5,VCP_5*%
%TO.N,Net-(U7-VCP)*%
X284326168Y-151942068D03*
%TO.P,U7,6,GHA_6*%
%TO.N,/GHA*%
X283972614Y-152295622D03*
%TO.P,U7,7,SHA_7*%
%TO.N,/MOT_A*%
X283619062Y-152649174D03*
%TO.P,U7,8,GLA_8*%
%TO.N,/GLA*%
X283265508Y-153002729D03*
%TO.P,U7,9,SPA_9*%
%TO.N,/SPA*%
X282911955Y-153356281D03*
%TO.P,U7,10,SNA_10*%
%TO.N,PGND*%
X282558400Y-153709836D03*
D17*
%TO.P,U7,11,SNB_11*%
X282558400Y-154629072D03*
%TO.P,U7,12,SPB_12*%
%TO.N,/SPB*%
X282911953Y-154982625D03*
%TO.P,U7,13,GLB_13*%
%TO.N,/GLB*%
X283265508Y-155336179D03*
%TO.P,U7,14,SHB_14*%
%TO.N,/MOT_B*%
X283619060Y-155689732D03*
%TO.P,U7,15,GHB_15*%
%TO.N,/GHB*%
X283972614Y-156043286D03*
%TO.P,U7,16,GHC_16*%
%TO.N,/GHC*%
X284326168Y-156396840D03*
%TO.P,U7,17,SHC_17*%
%TO.N,/MOT_C*%
X284679720Y-156750392D03*
%TO.P,U7,18,GLC_18*%
%TO.N,/GLC*%
X285033275Y-157103946D03*
%TO.P,U7,19,SPC_19*%
%TO.N,/SPC*%
X285386827Y-157457499D03*
%TO.P,U7,20,SNC_20*%
%TO.N,PGND*%
X285740382Y-157811054D03*
D16*
%TO.P,U7,21,SOC_21*%
%TO.N,/SOC*%
X286659618Y-157811054D03*
%TO.P,U7,22,SOB_22*%
%TO.N,/SOB*%
X287013173Y-157457499D03*
%TO.P,U7,23,SOA_23*%
%TO.N,/SOA*%
X287366725Y-157103946D03*
%TO.P,U7,24,VREF_24*%
%TO.N,+3V3*%
X287720280Y-156750392D03*
%TO.P,U7,25,AGND_25*%
%TO.N,/AGND*%
X288073832Y-156396840D03*
%TO.P,U7,26,FAULT_N_26*%
%TO.N,/DRIVER_FAULTn*%
X288427386Y-156043286D03*
%TO.P,U7,27,SDO_27*%
%TO.N,/DRIVER_CIPO*%
X288780940Y-155689732D03*
%TO.P,U7,28,SDI_28*%
%TO.N,/DRIVER_COPI*%
X289134492Y-155336179D03*
%TO.P,U7,29,SCLK_29*%
%TO.N,/DRIVER_SCLK*%
X289488047Y-154982625D03*
%TO.P,U7,30,SCS_N_30*%
%TO.N,/DRIVER_CS*%
X289841600Y-154629072D03*
D17*
%TO.P,U7,31,ENABLE_31*%
%TO.N,/DRIVER_ENABLE*%
X289841600Y-153709836D03*
%TO.P,U7,32,INHA_32*%
%TO.N,/INHA*%
X289488045Y-153356281D03*
%TO.P,U7,33,INLA_33*%
%TO.N,/INLA*%
X289134492Y-153002729D03*
%TO.P,U7,34,INHB_34*%
%TO.N,/INHB*%
X288780938Y-152649174D03*
%TO.P,U7,35,INLB_35*%
%TO.N,/INLB*%
X288427386Y-152295622D03*
%TO.P,U7,36,INHC_36*%
%TO.N,/INHC*%
X288073832Y-151942068D03*
%TO.P,U7,37,INLC_37*%
%TO.N,/INLC*%
X287720278Y-151588514D03*
%TO.P,U7,38,DVDD_38*%
%TO.N,Net-(U7-DVDD)*%
X287366725Y-151234962D03*
%TO.P,U7,39,GND_39*%
%TO.N,DGND*%
X287013171Y-150881407D03*
%TO.P,U7,40,VGLS_40*%
%TO.N,Net-(U7-VGLS)*%
X286659618Y-150527854D03*
D18*
%TO.P,U7,41,PAD_41*%
%TO.N,unconnected-(U7-PAD-Pad41)_12*%
X285482287Y-152483004D03*
%TO.N,unconnected-(U7-PAD-Pad41)_10*%
X284513550Y-153451741D03*
%TO.N,unconnected-(U7-PAD-Pad41)_2*%
X286917713Y-152483004D03*
%TO.N,unconnected-(U7-PAD-Pad41)_5*%
X284513550Y-154887167D03*
%TO.N,unconnected-(U7-PAD-Pad41)_8*%
X286200000Y-153200718D03*
%TO.N,unconnected-(U7-PAD-Pad41)_1*%
X285231264Y-154169454D03*
D19*
%TO.N,unconnected-(U7-PAD-Pad41)_9*%
X286200000Y-154169454D03*
D18*
%TO.N,unconnected-(U7-PAD-Pad41)_6*%
X287168736Y-154169454D03*
%TO.N,unconnected-(U7-PAD-Pad41)_7*%
X286200000Y-155138190D03*
%TO.N,unconnected-(U7-PAD-Pad41)*%
X287886450Y-153451741D03*
%TO.N,unconnected-(U7-PAD-Pad41)_4*%
X285482287Y-155855904D03*
%TO.N,unconnected-(U7-PAD-Pad41)_3*%
X287886450Y-154887167D03*
%TO.N,unconnected-(U7-PAD-Pad41)_11*%
X286917713Y-155855904D03*
%TD*%
D20*
%TO.P,J2,*%
%TO.N,*%
X329156974Y-151576476D03*
X332197534Y-148535917D03*
X325762862Y-148182364D03*
X328803421Y-145141804D03*
D21*
%TO.P,J2,A1/B12,GND_A1/B12*%
%TO.N,DGND*%
X330313172Y-150915253D03*
X331536467Y-149691959D03*
%TO.P,J2,A4/B9,VBUS_A4/B9*%
%TO.N,Net-(D9-A)*%
X329252512Y-149854593D03*
X330475806Y-148631299D03*
%TO.P,J2,A5,CC1_A5*%
%TO.N,Net-(J2-CC1)*%
X328898959Y-149501041D03*
%TO.P,J2,A6,DP1_A6*%
%TO.N,/USB_DP*%
X328545405Y-149147487D03*
%TO.P,J2,A7,DN1_A7*%
%TO.N,/USB_DM*%
X328191851Y-148793933D03*
%TO.P,J2,A8,SBU1_A8*%
%TO.N,unconnected-(J2-SBU1-PadA8)*%
X327838297Y-148440379D03*
%TO.P,J2,B1/A12,GND_B1/A12*%
%TO.N,DGND*%
X326424085Y-147026166D03*
X327647379Y-145802871D03*
%TO.P,J2,B4/A9,VBUS_B4/A9*%
%TO.N,Net-(D9-A)*%
X327484745Y-148086826D03*
X328708039Y-146863532D03*
%TO.P,J2,B5,CC2_B5*%
%TO.N,Net-(J2-CC2)*%
X329061592Y-147217084D03*
%TO.P,J2,B6,DP2_B6*%
%TO.N,/USB_DP*%
X329415146Y-147570638D03*
%TO.P,J2,B7,DN2_B7*%
%TO.N,/USB_DM*%
X329768700Y-147924192D03*
%TO.P,J2,B8,SBU2_B8*%
%TO.N,unconnected-(J2-SBU2-PadB8)*%
X330122254Y-148277746D03*
%TD*%
D22*
%TO.P,R10,1*%
%TO.N,Net-(R10-Pad1)*%
X361102500Y-197900000D03*
%TO.P,R10,2*%
%TO.N,DGND*%
X362297500Y-197900000D03*
%TD*%
D23*
%TO.P,Q9,1,C_1*%
%TO.N,/ENC_SENSE_3*%
X309449616Y-279635831D03*
%TO.P,Q9,2,E_2*%
%TO.N,DGND*%
X307946436Y-280531907D03*
%TD*%
D24*
%TO.P,JP19,1,A_1*%
%TO.N,/GPIO0*%
X359800000Y-137400000D03*
D25*
%TO.P,JP19,2,B_2*%
%TO.N,Net-(JP19-B)*%
X361100000Y-137400000D03*
%TD*%
D26*
%TO.P,R24,1*%
%TO.N,/ENC_LED_DRV*%
X350887500Y-274650000D03*
%TO.P,R24,2*%
%TO.N,Net-(Q17-G)*%
X349692500Y-274650000D03*
%TD*%
D27*
%TO.P,R7,1*%
%TO.N,Net-(U2-FB)*%
X383600000Y-228600000D03*
%TO.P,R7,2*%
%TO.N,+5V*%
X383600000Y-230425000D03*
%TD*%
D12*
%TO.P,R25,1*%
%TO.N,Net-(D3-K)*%
X303987500Y-125900000D03*
%TO.P,R25,2*%
%TO.N,DGND*%
X305812500Y-125900000D03*
%TD*%
D28*
%TO.P,TP5,1,1_1*%
%TO.N,/MOT_B*%
X238700000Y-207700000D03*
%TD*%
D29*
%TO.P,C2,1*%
%TO.N,Net-(U3-BST)*%
X383249999Y-205062500D03*
%TO.P,C2,2*%
%TO.N,Net-(U3-SW)*%
X383249999Y-203337500D03*
%TD*%
D22*
%TO.P,R50,1*%
%TO.N,+3V3*%
X304502500Y-277500000D03*
%TO.P,R50,2*%
%TO.N,/ENC_SENSE_4*%
X305697500Y-277500000D03*
%TD*%
D30*
%TO.P,U8,1,GND_1*%
%TO.N,DGND*%
X325746411Y-151672757D03*
%TO.P,U8,2,IO1_2*%
%TO.N,/USB_DM*%
X326198959Y-151701041D03*
%TO.P,U8,3,IO2_3*%
%TO.N,/USB_DP*%
X325718127Y-151220209D03*
%TD*%
D22*
%TO.P,R44,1*%
%TO.N,Net-(D19-K)*%
X315600000Y-274600000D03*
%TO.P,R44,2*%
%TO.N,/ENC_LED_OUT*%
X316795000Y-274600000D03*
%TD*%
D31*
%TO.P,C1,1*%
%TO.N,+5V*%
X390449999Y-207200000D03*
%TO.P,C1,2*%
%TO.N,PGND*%
X390449999Y-211600000D03*
%TD*%
D32*
%TO.P,NT5,1,1_1*%
%TO.N,PGND*%
X293300000Y-116500000D03*
%TO.P,NT5,2,2_2*%
%TO.N,DGND*%
X297300000Y-116500000D03*
%TD*%
D33*
%TO.P,D8,1,K_1*%
%TO.N,Net-(D8-K)*%
X318887500Y-129500000D03*
%TO.P,D8,2,A_2*%
%TO.N,Net-(D8-A)*%
X315912500Y-129500000D03*
%TD*%
D34*
%TO.P,U1,1,GPIO4_1*%
%TO.N,/RP2_RX*%
X312823263Y-144851333D03*
%TO.P,U1,2,GPIO5_2*%
%TO.N,/RP2_TX*%
X312540420Y-145134176D03*
%TO.P,U1,3,GPIO6_3*%
%TO.N,/INLC*%
X312257577Y-145417019D03*
%TO.P,U1,4,GPIO7_4*%
%TO.N,/INHC*%
X311974735Y-145699861D03*
%TO.P,U1,5,IOVDD_5*%
%TO.N,+3V3*%
X311691892Y-145982704D03*
%TO.P,U1,6,GPIO8_6*%
%TO.N,/INLB*%
X311409049Y-146265547D03*
%TO.P,U1,7,GPIO9_7*%
%TO.N,/INHB*%
X311126207Y-146548390D03*
%TO.P,U1,8,GPIO10_8*%
%TO.N,/INLA*%
X310843364Y-146831232D03*
%TO.P,U1,9,GPIO11_9*%
%TO.N,/INHA*%
X310560521Y-147114075D03*
%TO.P,U1,10,DVDD_10*%
%TO.N,+1V1*%
X310277678Y-147396918D03*
%TO.P,U1,11,GPIO12_11*%
%TO.N,/DRIVER_CIPO*%
X309994836Y-147679760D03*
%TO.P,U1,12,GPIO13_12*%
%TO.N,/DRIVER_CS*%
X309711993Y-147962603D03*
%TO.P,U1,13,GPIO14_13*%
%TO.N,/DRIVER_SCLK*%
X309429150Y-148245446D03*
%TO.P,U1,14,GPIO15_14*%
%TO.N,/DRIVER_COPI*%
X309146308Y-148528289D03*
%TO.P,U1,15,IOVDD_15*%
%TO.N,+3V3*%
X308863465Y-148811131D03*
%TO.P,U1,16,GPIO16_16*%
%TO.N,/IMU_CIPO*%
X308580622Y-149093974D03*
%TO.P,U1,17,GPIO17_17*%
%TO.N,/IMU_CS*%
X308297779Y-149376817D03*
%TO.P,U1,18,GPIO18_18*%
%TO.N,/IMU_SCK*%
X308014937Y-149659659D03*
%TO.P,U1,19,GPIO19_19*%
%TO.N,/IMU_COPI*%
X307732094Y-149942502D03*
%TO.P,U1,20,GPIO20_20*%
%TO.N,/SDA_TOP_IR_TOF*%
X307449251Y-150225345D03*
D35*
%TO.P,U1,21,GPIO21_21*%
%TO.N,/SCL_TOP_IR_TOF*%
X307449251Y-151776737D03*
%TO.P,U1,22,GPIO22_22*%
%TO.N,/SDA_BOT_IR_TOF*%
X307732094Y-152059580D03*
%TO.P,U1,23,GPIO23_23*%
%TO.N,/SCL_BOT_IR_TOF*%
X308014937Y-152342423D03*
%TO.P,U1,24,IOVDD_24*%
%TO.N,+3V3*%
X308297779Y-152625265D03*
%TO.P,U1,25,GPIO24_25*%
%TO.N,/DRIVER_ENABLE*%
X308580622Y-152908108D03*
%TO.P,U1,26,GPIO25_26*%
%TO.N,/DRIVER_FAULTn*%
X308863465Y-153190951D03*
%TO.P,U1,27,GPIO26_27*%
%TO.N,unconnected-(U1-GPIO26-Pad27)*%
X309146308Y-153473793D03*
%TO.P,U1,28,GPIO27_28*%
%TO.N,unconnected-(U1-GPIO27-Pad28)*%
X309429150Y-153756636D03*
%TO.P,U1,29,IOVDD_29*%
%TO.N,+3V3*%
X309711993Y-154039479D03*
%TO.P,U1,30,XIN_30*%
%TO.N,/XIN*%
X309994836Y-154322322D03*
%TO.P,U1,31,XOUT_31*%
%TO.N,/XOUT*%
X310277678Y-154605164D03*
%TO.P,U1,32,DVDD_32*%
%TO.N,+1V1*%
X310560521Y-154888007D03*
%TO.P,U1,33,SWCLK_33*%
%TO.N,/SWCLK*%
X310843364Y-155170850D03*
%TO.P,U1,34,SWDIO_34*%
%TO.N,/SWDIO*%
X311126207Y-155453692D03*
%TO.P,U1,35,RUN_35*%
%TO.N,/RUN*%
X311409049Y-155736535D03*
%TO.P,U1,36,GPIO28_36*%
%TO.N,/ENC_SENSE_1*%
X311691892Y-156019378D03*
%TO.P,U1,37,GPIO29_37*%
%TO.N,/ENC_SENSE_2*%
X311974735Y-156302221D03*
%TO.P,U1,38,GPIO30_38*%
%TO.N,/ENC_SENSE_3*%
X312257577Y-156585063D03*
%TO.P,U1,39,GPIO31_39*%
%TO.N,/ENC_SENSE_4*%
X312540420Y-156867906D03*
%TO.P,U1,40,GPIO32_40*%
%TO.N,/ENC_SENSE_5*%
X312823263Y-157150749D03*
D34*
%TO.P,U1,41,IOVDD_41*%
%TO.N,+3V3*%
X314374655Y-157150749D03*
%TO.P,U1,42,GPIO33_42*%
%TO.N,/ENC_SENSE_6*%
X314657498Y-156867906D03*
%TO.P,U1,43,GPIO34_43*%
%TO.N,/ENC_SENSE_7*%
X314940341Y-156585063D03*
%TO.P,U1,44,GPIO35_44*%
%TO.N,/ENC_SENSE_8*%
X315223183Y-156302221D03*
%TO.P,U1,45,GPIO36_45*%
%TO.N,/ENC_SENSE_9*%
X315506026Y-156019378D03*
%TO.P,U1,46,GPIO37_46*%
%TO.N,/ENC_SENSE_10*%
X315788869Y-155736535D03*
%TO.P,U1,47,GPIO38_47*%
%TO.N,/ENC_LED_DRV*%
X316071711Y-155453692D03*
%TO.P,U1,48,GPIO39_48*%
%TO.N,unconnected-(U1-GPIO39-Pad48)*%
X316354554Y-155170850D03*
%TO.P,U1,49,GPIO40_ADC0_49*%
%TO.N,unconnected-(U1-GPIO40_ADC0-Pad49)*%
X316637397Y-154888007D03*
%TO.P,U1,50,IOVDD_50*%
%TO.N,+3V3*%
X316920240Y-154605164D03*
%TO.P,U1,51,DVDD_51*%
%TO.N,+1V1*%
X317203082Y-154322322D03*
%TO.P,U1,52,GPIO41_ADC1_52*%
%TO.N,unconnected-(U1-GPIO41_ADC1-Pad52)*%
X317485925Y-154039479D03*
%TO.P,U1,53,GPIO42_ADC2_53*%
%TO.N,unconnected-(U1-GPIO42_ADC2-Pad53)*%
X317768768Y-153756636D03*
%TO.P,U1,54,GPIO43_ADC3_54*%
%TO.N,/SOA*%
X318051610Y-153473793D03*
%TO.P,U1,55,GPIO44_ADC4_55*%
%TO.N,/SOB*%
X318334453Y-153190951D03*
%TO.P,U1,56,GPIO45_ADC5_56*%
%TO.N,/SOC*%
X318617296Y-152908108D03*
%TO.P,U1,57,GPIO46_ADC6_57*%
%TO.N,/BATT_MON*%
X318900139Y-152625265D03*
%TO.P,U1,58,GPIO47_ADC7_58*%
%TO.N,/5V_MON*%
X319182981Y-152342423D03*
%TO.P,U1,59,ADC_AVDD_59*%
%TO.N,+3V3*%
X319465824Y-152059580D03*
%TO.P,U1,60,IOVDD_60*%
X319748667Y-151776737D03*
D35*
%TO.P,U1,61,VREG_AVDD_61*%
%TO.N,Net-(U1-VREG_AVDD)*%
X319748667Y-150225345D03*
%TO.P,U1,62,VREG_PGND_62*%
%TO.N,DGND*%
X319465824Y-149942502D03*
%TO.P,U1,63,VREG_LX_63*%
%TO.N,Net-(U1-VREG_LX)*%
X319182981Y-149659659D03*
%TO.P,U1,64,VREG_VIN_64*%
%TO.N,+3V3*%
X318900139Y-149376817D03*
%TO.P,U1,65,VREG_FB_65*%
%TO.N,+1V1*%
X318617296Y-149093974D03*
%TO.P,U1,66,USB_DM_66*%
%TO.N,Net-(U1-USB_DM)*%
X318334453Y-148811131D03*
%TO.P,U1,67,USB_DP_67*%
%TO.N,Net-(U1-USB_DP)*%
X318051610Y-148528289D03*
%TO.P,U1,68,USB_OTP_VDD_68*%
%TO.N,+3V3*%
X317768768Y-148245446D03*
%TO.P,U1,69,QSPI_IOVDD_69*%
X317485925Y-147962603D03*
%TO.P,U1,70,QSPI_SD3_70*%
%TO.N,/QSPI_SD3*%
X317203082Y-147679760D03*
%TO.P,U1,71,QSPI_SCLK_71*%
%TO.N,/QSPI_SCLK*%
X316920240Y-147396918D03*
%TO.P,U1,72,QSPI_SD0_72*%
%TO.N,/QSPI_SD0*%
X316637397Y-147114075D03*
%TO.P,U1,73,QSPI_SD2_73*%
%TO.N,/QSPI_SD2*%
X316354554Y-146831232D03*
%TO.P,U1,74,QSPI_SD1_74*%
%TO.N,/QSPI_SD1*%
X316071711Y-146548390D03*
%TO.P,U1,75,QSPI_SS_75*%
%TO.N,/QSPI_SS*%
X315788869Y-146265547D03*
%TO.P,U1,76,IOVDD_76*%
%TO.N,+3V3*%
X315506026Y-145982704D03*
%TO.P,U1,77,GPIO0_77*%
%TO.N,/GPIO0*%
X315223183Y-145699861D03*
%TO.P,U1,78,GPIO1_78*%
%TO.N,/GREEN_LED_1*%
X314940341Y-145417019D03*
%TO.P,U1,79,GPIO2_79*%
%TO.N,/BLUE_LED_1*%
X314657498Y-145134176D03*
%TO.P,U1,80,GPIO3_80*%
%TO.N,/GPIO3*%
X314374655Y-144851333D03*
D36*
%TO.P,U1,81,GND_81*%
%TO.N,DGND*%
X313669670Y-149657538D03*
X312962563Y-150364645D03*
X312255456Y-151071752D03*
X314306066Y-150293934D03*
X313598959Y-151001041D03*
D37*
X313598959Y-151001041D03*
D36*
X312891852Y-151708148D03*
X314200000Y-151602082D03*
X313492893Y-152309189D03*
X315083883Y-151071752D03*
%TD*%
D38*
%TO.P,C3,1*%
%TO.N,+3V3*%
X388537500Y-203400000D03*
%TO.P,C3,2*%
%TO.N,PGND*%
X390262500Y-203400000D03*
%TD*%
D39*
%TO.P,Q3,1,G_1*%
%TO.N,/GHB*%
X255700000Y-140420000D03*
D40*
%TO.P,Q3,2,S_2*%
%TO.N,/MOT_B*%
X250900000Y-141420000D03*
D18*
%TO.P,Q3,3,D_3*%
%TO.N,+BATT*%
X255100000Y-145000000D03*
X253900000Y-145000000D03*
X252700000Y-145000000D03*
X251500000Y-145000000D03*
X250300000Y-145000000D03*
X249100000Y-145000000D03*
X247900000Y-145000000D03*
X255100000Y-146200000D03*
X253900000Y-146200000D03*
X252700000Y-146200000D03*
X251500000Y-146200000D03*
X250300000Y-146200000D03*
X249100000Y-146200000D03*
X247900000Y-146200000D03*
X255100000Y-147400000D03*
X253900000Y-147400000D03*
X252700000Y-147400000D03*
X251500000Y-147400000D03*
X250300000Y-147400000D03*
X249100000Y-147400000D03*
X247900000Y-147400000D03*
X255100000Y-148600000D03*
X253900000Y-148600000D03*
X252700000Y-148600000D03*
X251500000Y-148600000D03*
X250300000Y-148600000D03*
X249100000Y-148600000D03*
X247900000Y-148600000D03*
D41*
X251500000Y-149470000D03*
D18*
X255100000Y-149800000D03*
X253900000Y-149800000D03*
X252700000Y-149800000D03*
X251500000Y-149800000D03*
X250300000Y-149800000D03*
X249100000Y-149800000D03*
X247900000Y-149800000D03*
X255100000Y-151000000D03*
X253900000Y-151000000D03*
X252700000Y-151000000D03*
X251500000Y-151000000D03*
X250300000Y-151000000D03*
X249100000Y-151000000D03*
X247900000Y-151000000D03*
%TD*%
D12*
%TO.P,R29,1*%
%TO.N,Net-(D7-K)*%
X321325000Y-125300000D03*
%TO.P,R29,2*%
%TO.N,DGND*%
X323150000Y-125300000D03*
%TD*%
D28*
%TO.P,TP9,1,1_1*%
%TO.N,/MOT_B*%
X230700000Y-220000000D03*
%TD*%
D27*
%TO.P,R6,1*%
%TO.N,Net-(U2-FB)*%
X385300000Y-228600000D03*
%TO.P,R6,2*%
%TO.N,PGND*%
X385300000Y-230425000D03*
%TD*%
D33*
%TO.P,D3,1,K_1*%
%TO.N,Net-(D3-K)*%
X301887500Y-125900000D03*
%TO.P,D3,2,A_2*%
%TO.N,Net-(D3-A)*%
X298912500Y-125900000D03*
%TD*%
D42*
%TO.P,C14,1*%
%TO.N,DGND*%
X371600000Y-156167500D03*
%TO.P,C14,2*%
%TO.N,+3V3*%
X371600000Y-155032500D03*
%TD*%
D43*
%TO.P,D2,1,K_1*%
%TO.N,Net-(D2-K)*%
X384150000Y-220012500D03*
%TO.P,D2,2,A_2*%
%TO.N,PGND*%
X388450000Y-220012500D03*
%TD*%
D23*
%TO.P,Q8,1,C_1*%
%TO.N,/ENC_SENSE_2*%
X309449616Y-282135831D03*
%TO.P,Q8,2,E_2*%
%TO.N,DGND*%
X307946436Y-283031907D03*
%TD*%
D44*
%TO.P,R40,1*%
%TO.N,DGND*%
X362812500Y-211900000D03*
%TO.P,R40,2*%
%TO.N,Net-(D18-K)*%
X360987500Y-211900000D03*
%TD*%
D39*
%TO.P,Q1,1,G_1*%
%TO.N,/GHA*%
X289700000Y-120820000D03*
D40*
%TO.P,Q1,2,S_2*%
%TO.N,/MOT_A*%
X284900000Y-121820000D03*
D18*
%TO.P,Q1,3,D_3*%
%TO.N,+BATT*%
X289100000Y-125400000D03*
X287900000Y-125400000D03*
X286700000Y-125400000D03*
X285500000Y-125400000D03*
X284300000Y-125400000D03*
X283100000Y-125400000D03*
X281900000Y-125400000D03*
X289100000Y-126600000D03*
X287900000Y-126600000D03*
X286700000Y-126600000D03*
X285500000Y-126600000D03*
X284300000Y-126600000D03*
X283100000Y-126600000D03*
X281900000Y-126600000D03*
X289100000Y-127800000D03*
X287900000Y-127800000D03*
X286700000Y-127800000D03*
X285500000Y-127800000D03*
X284300000Y-127800000D03*
X283100000Y-127800000D03*
X281900000Y-127800000D03*
X289100000Y-129000000D03*
X287900000Y-129000000D03*
X286700000Y-129000000D03*
X285500000Y-129000000D03*
X284300000Y-129000000D03*
X283100000Y-129000000D03*
X281900000Y-129000000D03*
D41*
X285500000Y-129870000D03*
D18*
X289100000Y-130200000D03*
X287900000Y-130200000D03*
X286700000Y-130200000D03*
X285500000Y-130200000D03*
X284300000Y-130200000D03*
X283100000Y-130200000D03*
X281900000Y-130200000D03*
X289100000Y-131400000D03*
X287900000Y-131400000D03*
X286700000Y-131400000D03*
X285500000Y-131400000D03*
X284300000Y-131400000D03*
X283100000Y-131400000D03*
X281900000Y-131400000D03*
%TD*%
D45*
%TO.P,J1,1,Pin_1_1*%
%TO.N,PGND*%
X295200000Y-246800000D03*
D46*
%TO.P,J1,2,Pin_2_2*%
%TO.N,+BATT_RAW*%
X302400000Y-246800000D03*
%TD*%
D33*
%TO.P,D5,1,K_1*%
%TO.N,Net-(D5-K)*%
X309900000Y-116000000D03*
%TO.P,D5,2,A_2*%
%TO.N,Net-(D5-A)*%
X306925000Y-116000000D03*
%TD*%
D47*
%TO.P,R35,1*%
%TO.N,Net-(D13-K)*%
X338900000Y-125200000D03*
%TO.P,R35,2*%
%TO.N,DGND*%
X338900000Y-123375000D03*
%TD*%
D28*
%TO.P,TP6,1,1_1*%
%TO.N,/MOT_C*%
X230700000Y-196500000D03*
%TD*%
D48*
%TO.P,R19,1*%
%TO.N,/SPA*%
X273450000Y-137920000D03*
%TO.P,R19,2*%
%TO.N,PGND*%
X276550000Y-137920000D03*
%TD*%
D49*
%TO.P,J8,1,Pin_1_1*%
%TO.N,Net-(J8-Pin_1)*%
X331300000Y-123860000D03*
D50*
%TO.P,J8,2,Pin_2_2*%
%TO.N,/GPIO3*%
X331300000Y-126400000D03*
%TO.P,J8,3,Pin_3_3*%
%TO.N,DGND*%
X331300000Y-128940000D03*
%TD*%
D22*
%TO.P,R49,1*%
%TO.N,Net-(D22-K)*%
X315602500Y-285500000D03*
%TO.P,R49,2*%
%TO.N,/ENC_LED_OUT*%
X316797500Y-285500000D03*
%TD*%
D38*
%TO.P,C7,1*%
%TO.N,+5V*%
X380937500Y-216712500D03*
%TO.P,C7,2*%
%TO.N,PGND*%
X382662500Y-216712500D03*
%TD*%
D51*
%TO.P,R15,1*%
%TO.N,+3V3*%
X291277504Y-158522496D03*
%TO.P,R15,2*%
%TO.N,/DRIVER_CIPO*%
X292122496Y-157677504D03*
%TD*%
D22*
%TO.P,R46,1*%
%TO.N,+3V3*%
X304502500Y-282500000D03*
%TO.P,R46,2*%
%TO.N,/ENC_SENSE_2*%
X305697500Y-282500000D03*
%TD*%
D26*
%TO.P,R43,1*%
%TO.N,+3V3*%
X313297500Y-285500000D03*
%TO.P,R43,2*%
%TO.N,/ENC_SENSE_1*%
X312102500Y-285500000D03*
%TD*%
D52*
%TO.P,JP16,1,A_1*%
%TO.N,Net-(D18-A)*%
X351350000Y-212000000D03*
D53*
%TO.P,JP16,2,B_2*%
%TO.N,+BATT*%
X350050000Y-212000000D03*
%TD*%
D54*
%TO.P,R9,1*%
%TO.N,+3V3*%
X371805000Y-147885000D03*
%TO.P,R9,2*%
%TO.N,Net-(JP19-B)*%
X371805000Y-146690000D03*
%TD*%
D55*
%TO.P,L2,1*%
%TO.N,Net-(D2-K)*%
X378500000Y-221862500D03*
%TO.P,L2,2*%
%TO.N,+5V*%
X378500000Y-218162500D03*
%TD*%
D24*
%TO.P,JP23,1,A_1*%
%TO.N,/QSPI_SD2*%
X359800000Y-142800000D03*
D25*
%TO.P,JP23,2,B_2*%
%TO.N,Net-(JP23-B)*%
X361100000Y-142800000D03*
%TD*%
D56*
%TO.P,Q17,1,G_1*%
%TO.N,Net-(Q17-G)*%
X347200000Y-277850000D03*
%TO.P,Q17,2,S_2*%
%TO.N,DGND*%
X347200000Y-275950000D03*
%TO.P,Q17,3,D_3*%
%TO.N,/ENC_LED_OUT*%
X343780000Y-276900000D03*
%TD*%
D57*
%TO.P,Q5,1,G_1*%
%TO.N,/GHC*%
X246380000Y-167400000D03*
D58*
%TO.P,Q5,2,S_2*%
%TO.N,/MOT_C*%
X245380000Y-162600000D03*
D18*
%TO.P,Q5,3,D_3*%
%TO.N,+BATT*%
X241800000Y-166800000D03*
X241800000Y-165600000D03*
X241800000Y-164400000D03*
X241800000Y-163200000D03*
X241800000Y-162000000D03*
X241800000Y-160800000D03*
X241800000Y-159600000D03*
X240600000Y-166800000D03*
X240600000Y-165600000D03*
X240600000Y-164400000D03*
X240600000Y-163200000D03*
X240600000Y-162000000D03*
X240600000Y-160800000D03*
X240600000Y-159600000D03*
X239400000Y-166800000D03*
X239400000Y-165600000D03*
X239400000Y-164400000D03*
X239400000Y-163200000D03*
X239400000Y-162000000D03*
X239400000Y-160800000D03*
X239400000Y-159600000D03*
X238200000Y-166800000D03*
X238200000Y-165600000D03*
X238200000Y-164400000D03*
X238200000Y-163200000D03*
X238200000Y-162000000D03*
X238200000Y-160800000D03*
X238200000Y-159600000D03*
D59*
X237330000Y-163200000D03*
D18*
X237000000Y-166800000D03*
X237000000Y-165600000D03*
X237000000Y-164400000D03*
X237000000Y-163200000D03*
X237000000Y-162000000D03*
X237000000Y-160800000D03*
X237000000Y-159600000D03*
X235800000Y-166800000D03*
X235800000Y-165600000D03*
X235800000Y-164400000D03*
X235800000Y-163200000D03*
X235800000Y-162000000D03*
X235800000Y-160800000D03*
X235800000Y-159600000D03*
%TD*%
D60*
%TO.P,D19,1,K_1*%
%TO.N,Net-(D19-K)*%
X302210000Y-275075439D03*
%TO.P,D19,2,A_2*%
%TO.N,+3V3*%
X305185000Y-275075439D03*
%TD*%
D61*
%TO.P,NT1,1,1_1*%
%TO.N,PGND*%
X392700000Y-218800000D03*
%TO.P,NT1,2,2_2*%
%TO.N,DGND*%
X396700000Y-218800000D03*
%TD*%
D33*
%TO.P,D4,1,K_1*%
%TO.N,Net-(D4-K)*%
X301887500Y-130100000D03*
%TO.P,D4,2,A_2*%
%TO.N,Net-(D4-A)*%
X298912500Y-130100000D03*
%TD*%
D29*
%TO.P,C9,1*%
%TO.N,Net-(U2-BST)*%
X381800000Y-221600000D03*
%TO.P,C9,2*%
%TO.N,Net-(D2-K)*%
X381800000Y-219875000D03*
%TD*%
D51*
%TO.P,R16,1*%
%TO.N,+3V3*%
X289777504Y-158522496D03*
%TO.P,R16,2*%
%TO.N,/DRIVER_FAULTn*%
X290622496Y-157677504D03*
%TD*%
D62*
%TO.P,TP11,1,1_1*%
%TO.N,+3V3*%
X387600000Y-193400000D03*
%TD*%
D12*
%TO.P,R28,1*%
%TO.N,Net-(D6-K)*%
X312187500Y-120200000D03*
%TO.P,R28,2*%
%TO.N,DGND*%
X314012500Y-120200000D03*
%TD*%
D63*
%TO.P,D13,1,K_1*%
%TO.N,Net-(D13-K)*%
X338900000Y-127600000D03*
%TO.P,D13,2,A_2*%
%TO.N,/GREEN_LED_1*%
X338900000Y-130575000D03*
%TD*%
D38*
%TO.P,C38,1*%
%TO.N,PGND*%
X238237500Y-156400000D03*
%TO.P,C38,2*%
%TO.N,+BATT*%
X239962500Y-156400000D03*
%TD*%
D32*
%TO.P,NT2,1,1_1*%
%TO.N,PGND*%
X212500000Y-181600000D03*
%TO.P,NT2,2,2_2*%
%TO.N,DGND*%
X212500000Y-185600000D03*
%TD*%
D12*
%TO.P,R26,1*%
%TO.N,Net-(D4-K)*%
X303987500Y-130100000D03*
%TO.P,R26,2*%
%TO.N,DGND*%
X305812500Y-130100000D03*
%TD*%
D26*
%TO.P,R11,1*%
%TO.N,/QSPI_SS*%
X362397500Y-193000000D03*
%TO.P,R11,2*%
%TO.N,Net-(R11-Pad2)*%
X361202500Y-193000000D03*
%TD*%
D64*
%TO.P,R14,1*%
%TO.N,/USB_DM*%
X320398959Y-147101041D03*
%TO.P,R14,2*%
%TO.N,Net-(U1-USB_DM)*%
X319553967Y-147946033D03*
%TD*%
D39*
%TO.P,Q4,1,G_1*%
%TO.N,/GLB*%
X258500000Y-142500000D03*
D65*
%TO.P,Q4,2,S_2*%
%TO.N,/SPB*%
X263300000Y-141500000D03*
D18*
%TO.P,Q4,3,D_3*%
%TO.N,/MOT_B*%
X259100000Y-137920000D03*
X260300000Y-137920000D03*
X261500000Y-137920000D03*
X262700000Y-137920000D03*
X263900000Y-137920000D03*
X265100000Y-137920000D03*
X266300000Y-137920000D03*
X259100000Y-136720000D03*
X260300000Y-136720000D03*
X261500000Y-136720000D03*
X262700000Y-136720000D03*
X263900000Y-136720000D03*
X265100000Y-136720000D03*
X266300000Y-136720000D03*
X259100000Y-135520000D03*
X260300000Y-135520000D03*
X261500000Y-135520000D03*
X262700000Y-135520000D03*
X263900000Y-135520000D03*
X265100000Y-135520000D03*
X266300000Y-135520000D03*
X259100000Y-134320000D03*
X260300000Y-134320000D03*
X261500000Y-134320000D03*
X262700000Y-134320000D03*
X263900000Y-134320000D03*
X265100000Y-134320000D03*
X266300000Y-134320000D03*
D66*
X262700000Y-133450000D03*
D18*
X259100000Y-133120000D03*
X260300000Y-133120000D03*
X261500000Y-133120000D03*
X262700000Y-133120000D03*
X263900000Y-133120000D03*
X265100000Y-133120000D03*
X266300000Y-133120000D03*
X259100000Y-131920000D03*
X260300000Y-131920000D03*
X261500000Y-131920000D03*
X262700000Y-131920000D03*
X263900000Y-131920000D03*
X265100000Y-131920000D03*
X266300000Y-131920000D03*
%TD*%
D33*
%TO.P,D18,1,K_1*%
%TO.N,Net-(D18-K)*%
X357987500Y-211900000D03*
%TO.P,D18,2,A_2*%
%TO.N,Net-(D18-A)*%
X355012500Y-211900000D03*
%TD*%
D67*
%TO.P,C12,1*%
%TO.N,DGND*%
X306597676Y-156599758D03*
%TO.P,C12,2*%
%TO.N,/XIN*%
X307400242Y-157402324D03*
%TD*%
D24*
%TO.P,JP22,1,A_1*%
%TO.N,/QSPI_SD1*%
X359800000Y-140100000D03*
D25*
%TO.P,JP22,2,B_2*%
%TO.N,Net-(JP22-B)*%
X361100000Y-140100000D03*
%TD*%
D68*
%TO.P,C39,1*%
%TO.N,PGND*%
X274297866Y-155061868D03*
%TO.P,C39,2*%
%TO.N,+BATT*%
X277902134Y-152538132D03*
%TD*%
D39*
%TO.P,Q2,1,G_1*%
%TO.N,/GLA*%
X270400000Y-134400000D03*
D65*
%TO.P,Q2,2,S_2*%
%TO.N,/SPA*%
X275200000Y-133400000D03*
D18*
%TO.P,Q2,3,D_3*%
%TO.N,/MOT_A*%
X271000000Y-129820000D03*
X272200000Y-129820000D03*
X273400000Y-129820000D03*
X274600000Y-129820000D03*
X275800000Y-129820000D03*
X277000000Y-129820000D03*
X278200000Y-129820000D03*
X271000000Y-128620000D03*
X272200000Y-128620000D03*
X273400000Y-128620000D03*
X274600000Y-128620000D03*
X275800000Y-128620000D03*
X277000000Y-128620000D03*
X278200000Y-128620000D03*
X271000000Y-127420000D03*
X272200000Y-127420000D03*
X273400000Y-127420000D03*
X274600000Y-127420000D03*
X275800000Y-127420000D03*
X277000000Y-127420000D03*
X278200000Y-127420000D03*
X271000000Y-126220000D03*
X272200000Y-126220000D03*
X273400000Y-126220000D03*
X274600000Y-126220000D03*
X275800000Y-126220000D03*
X277000000Y-126220000D03*
X278200000Y-126220000D03*
D66*
X274600000Y-125350000D03*
D18*
X271000000Y-125020000D03*
X272200000Y-125020000D03*
X273400000Y-125020000D03*
X274600000Y-125020000D03*
X275800000Y-125020000D03*
X277000000Y-125020000D03*
X278200000Y-125020000D03*
X271000000Y-123820000D03*
X272200000Y-123820000D03*
X273400000Y-123820000D03*
X274600000Y-123820000D03*
X275800000Y-123820000D03*
X277000000Y-123820000D03*
X278200000Y-123820000D03*
%TD*%
D26*
%TO.P,R48,1*%
%TO.N,+3V3*%
X313297500Y-280000000D03*
%TO.P,R48,2*%
%TO.N,/ENC_SENSE_3*%
X312102500Y-280000000D03*
%TD*%
D24*
%TO.P,JP24,1,A_1*%
%TO.N,/QSPI_SD3*%
X359800000Y-150900000D03*
D25*
%TO.P,JP24,2,B_2*%
%TO.N,Net-(JP24-B)*%
X361100000Y-150900000D03*
%TD*%
D69*
%TO.P,U3,1,FB_1*%
%TO.N,+3V3*%
X384949999Y-206803500D03*
%TO.P,U3,2,EN_2*%
%TO.N,+5V*%
X385900000Y-206803500D03*
%TO.P,U3,3,VIN_3*%
X386850001Y-206803500D03*
%TO.P,U3,4,GND_4*%
%TO.N,PGND*%
X386850001Y-204200000D03*
%TO.P,U3,5,SW_5*%
%TO.N,Net-(U3-SW)*%
X385900000Y-204200000D03*
%TO.P,U3,6,BST_6*%
%TO.N,Net-(U3-BST)*%
X384949999Y-204200000D03*
%TD*%
D64*
%TO.P,R13,1*%
%TO.N,/USB_DP*%
X319698959Y-146401041D03*
%TO.P,R13,2*%
%TO.N,Net-(U1-USB_DP)*%
X318853967Y-147246033D03*
%TD*%
D70*
%TO.P,R17,1*%
%TO.N,/SPB*%
X264550000Y-146400000D03*
%TO.P,R17,2*%
%TO.N,PGND*%
X261450000Y-146400000D03*
%TD*%
D71*
%TO.P,R8,1*%
%TO.N,Net-(C13-Pad2)*%
X309421455Y-158623537D03*
%TO.P,R8,2*%
%TO.N,/XOUT*%
X308576463Y-157778545D03*
%TD*%
D28*
%TO.P,TP7,1,1_1*%
%TO.N,/MOT_A*%
X230700000Y-189500000D03*
%TD*%
D72*
%TO.P,J6,1,Pin_1_1*%
%TO.N,+BATT_RAW*%
X353500000Y-227400000D03*
D46*
%TO.P,J6,2,Pin_2_2*%
%TO.N,+BATT*%
X353500000Y-220200000D03*
%TD*%
D73*
%TO.P,D1,1,A1_1*%
%TO.N,+BATT*%
X337250000Y-246800000D03*
%TO.P,D1,2,A2_2*%
%TO.N,PGND*%
X332950000Y-246800000D03*
%TD*%
D24*
%TO.P,JP21,1,A_1*%
%TO.N,/QSPI_SD0*%
X359800000Y-145500000D03*
D25*
%TO.P,JP21,2,B_2*%
%TO.N,Net-(JP21-B)*%
X361100000Y-145500000D03*
%TD*%
D33*
%TO.P,D6,1,K_1*%
%TO.N,Net-(D6-K)*%
X309900000Y-120200000D03*
%TO.P,D6,2,A_2*%
%TO.N,Net-(D6-A)*%
X306925000Y-120200000D03*
%TD*%
D28*
%TO.P,TP4,1,1_1*%
%TO.N,/MOT_A*%
X238700000Y-200200000D03*
%TD*%
D63*
%TO.P,D16,1,K_1*%
%TO.N,Net-(D16-K)*%
X335600000Y-127600000D03*
%TO.P,D16,2,A_2*%
%TO.N,/BLUE_LED_1*%
X335600000Y-130575000D03*
%TD*%
D12*
%TO.P,R3,1*%
%TO.N,+BATT*%
X377587500Y-224212500D03*
%TO.P,R3,2*%
%TO.N,Net-(U2-EN)*%
X379412500Y-224212500D03*
%TD*%
D26*
%TO.P,R55,1*%
%TO.N,+3V3*%
X313297500Y-274600000D03*
%TO.P,R55,2*%
%TO.N,/ENC_SENSE_5*%
X312102500Y-274600000D03*
%TD*%
D74*
%TO.P,C6,1*%
%TO.N,Net-(U2-COMP)*%
X379100000Y-227037500D03*
%TO.P,C6,2*%
%TO.N,PGND*%
X379100000Y-228762500D03*
%TD*%
D32*
%TO.P,NT4,1,1_1*%
%TO.N,PGND*%
X293300000Y-113250000D03*
%TO.P,NT4,2,2_2*%
%TO.N,DGND*%
X297300000Y-113250000D03*
%TD*%
D33*
%TO.P,D23,1,K_1*%
%TO.N,Net-(D23-K)*%
X315185000Y-277575439D03*
%TO.P,D23,2,A_2*%
%TO.N,+3V3*%
X312210000Y-277575439D03*
%TD*%
D23*
%TO.P,Q10,1,C_1*%
%TO.N,/ENC_SENSE_4*%
X309449386Y-277132960D03*
%TO.P,Q10,2,E_2*%
%TO.N,DGND*%
X307946206Y-278029036D03*
%TD*%
D24*
%TO.P,JP20,1,A_1*%
%TO.N,/QSPI_SCLK*%
X359800000Y-148200000D03*
D25*
%TO.P,JP20,2,B_2*%
%TO.N,Net-(JP20-B)*%
X361100000Y-148200000D03*
%TD*%
D75*
%TO.P,JP8,1,A_1*%
%TO.N,+5V*%
X331790000Y-118130000D03*
D76*
%TO.P,JP8,2,C_2*%
%TO.N,Net-(J8-Pin_1)*%
X331790000Y-119430000D03*
D77*
%TO.P,JP8,3,B_3*%
%TO.N,+3V3*%
X331790000Y-120730000D03*
%TD*%
D22*
%TO.P,R51,1*%
%TO.N,Net-(D23-K)*%
X315602500Y-280000000D03*
%TO.P,R51,2*%
%TO.N,/ENC_LED_OUT*%
X316797500Y-280000000D03*
%TD*%
D78*
%TO.P,J7,1,Pin_1_1*%
%TO.N,PGND*%
X322100000Y-246800000D03*
D46*
%TO.P,J7,2,Pin_2_2*%
%TO.N,+BATT_RAW*%
X314900000Y-246800000D03*
%TD*%
D60*
%TO.P,D20,1,K_1*%
%TO.N,Net-(D20-K)*%
X302210000Y-280085439D03*
%TO.P,D20,2,A_2*%
%TO.N,+3V3*%
X305185000Y-280085439D03*
%TD*%
D33*
%TO.P,D7,1,K_1*%
%TO.N,Net-(D7-K)*%
X318887500Y-125300000D03*
%TO.P,D7,2,A_2*%
%TO.N,Net-(D7-A)*%
X315912500Y-125300000D03*
%TD*%
D79*
%TO.P,SW1,1,1_1*%
%TO.N,Net-(R11-Pad2)*%
X359800000Y-195400000D03*
%TO.P,SW1,2,2_2*%
%TO.N,DGND*%
X364000000Y-195400000D03*
%TD*%
D67*
%TO.P,C13,1*%
%TO.N,DGND*%
X308297676Y-158999758D03*
%TO.P,C13,2*%
%TO.N,Net-(C13-Pad2)*%
X309100242Y-159802324D03*
%TD*%
D80*
%TO.P,JP18,1,A_1*%
%TO.N,/ENC_LED_OUT*%
X343800000Y-273600000D03*
D81*
%TO.P,JP18,2,B_2*%
%TO.N,DGND*%
X343800000Y-272300000D03*
%TD*%
D49*
%TO.P,J5,1,Pin_1_1*%
%TO.N,/SWCLK*%
X348560000Y-132400000D03*
D50*
%TO.P,J5,2,Pin_2_2*%
%TO.N,DGND*%
X351100000Y-132400000D03*
%TO.P,J5,3,Pin_3_3*%
%TO.N,/SWDIO*%
X353640000Y-132400000D03*
%TD*%
D38*
%TO.P,C4,1*%
%TO.N,+3V3*%
X384987499Y-208500000D03*
%TO.P,C4,2*%
%TO.N,PGND*%
X386712499Y-208500000D03*
%TD*%
D28*
%TO.P,TP8,1,1_1*%
%TO.N,/MOT_C*%
X230700000Y-213000000D03*
%TD*%
D26*
%TO.P,R47,1*%
%TO.N,Net-(D21-K)*%
X302395000Y-282500000D03*
%TO.P,R47,2*%
%TO.N,/ENC_LED_OUT*%
X301200000Y-282500000D03*
%TD*%
D82*
%TO.P,C5,1*%
%TO.N,Net-(U2-COMP)*%
X379567500Y-225712500D03*
%TO.P,C5,2*%
%TO.N,Net-(C5-Pad2)*%
X378432500Y-225712500D03*
%TD*%
D83*
%TO.P,C37,1*%
%TO.N,PGND*%
X249262500Y-154000000D03*
%TO.P,C37,2*%
%TO.N,+BATT*%
X247537500Y-154000000D03*
%TD*%
D23*
%TO.P,Q11,1,C_1*%
%TO.N,/ENC_SENSE_5*%
X309454016Y-274633078D03*
%TO.P,Q11,2,E_2*%
%TO.N,DGND*%
X307950836Y-275529154D03*
%TD*%
D47*
%TO.P,R38,1*%
%TO.N,Net-(D16-K)*%
X335600000Y-125200000D03*
%TO.P,R38,2*%
%TO.N,DGND*%
X335600000Y-123375000D03*
%TD*%
D32*
%TO.P,NT3,1,1_1*%
%TO.N,PGND*%
X293300000Y-110000000D03*
%TO.P,NT3,2,2_2*%
%TO.N,DGND*%
X297300000Y-110000000D03*
%TD*%
D84*
%TO.P,U5,1,~{CS}_1*%
%TO.N,Net-(JP19-B)*%
X370005000Y-147412500D03*
%TO.P,U5,2,DO/IO_{1}_2*%
%TO.N,Net-(JP22-B)*%
X368735000Y-147412500D03*
%TO.P,U5,3,~{WP}/IO_{2}_3*%
%TO.N,Net-(JP23-B)*%
X367465000Y-147412500D03*
%TO.P,U5,4,GND_4*%
%TO.N,DGND*%
X366195000Y-147412500D03*
%TO.P,U5,5,DI/IO_{0}_5*%
%TO.N,Net-(JP21-B)*%
X366195000Y-154587500D03*
%TO.P,U5,6,CLK_6*%
%TO.N,Net-(JP20-B)*%
X367465000Y-154587500D03*
%TO.P,U5,7,~{HOLD}/~{RESET}/IO_{3}_7*%
%TO.N,Net-(JP24-B)*%
X368735000Y-154587500D03*
%TO.P,U5,8,VCC_8*%
%TO.N,+3V3*%
X370005000Y-154587500D03*
%TD*%
D60*
%TO.P,D21,1,K_1*%
%TO.N,Net-(D21-K)*%
X302210000Y-285075439D03*
%TO.P,D21,2,A_2*%
%TO.N,+3V3*%
X305185000Y-285075439D03*
%TD*%
D85*
%TO.P,Y1,1,1_1*%
%TO.N,/XIN*%
X303441243Y-158247487D03*
%TO.P,Y1,2,2_2*%
%TO.N,DGND*%
X304996878Y-159803122D03*
%TO.P,Y1,3,3_3*%
%TO.N,Net-(C13-Pad2)*%
X306198959Y-158601041D03*
%TO.P,Y1,4,4_4*%
%TO.N,DGND*%
X304643324Y-157045406D03*
%TD*%
D86*
%TO.P,L1,1*%
%TO.N,Net-(U3-SW)*%
X383824999Y-199700000D03*
%TO.P,L1,2*%
%TO.N,+3V3*%
X387474999Y-199700000D03*
%TD*%
D26*
%TO.P,R45,1*%
%TO.N,Net-(D20-K)*%
X302397500Y-277500000D03*
%TO.P,R45,2*%
%TO.N,/ENC_LED_OUT*%
X301202500Y-277500000D03*
%TD*%
D62*
%TO.P,TP12,1,1_1*%
%TO.N,+5V*%
X377900000Y-213100000D03*
%TD*%
D26*
%TO.P,R4,1*%
%TO.N,Net-(U2-FREQ)*%
X387897500Y-228512500D03*
%TO.P,R4,2*%
%TO.N,PGND*%
X386702500Y-228512500D03*
%TD*%
D33*
%TO.P,D22,1,K_1*%
%TO.N,Net-(D22-K)*%
X315185000Y-282575439D03*
%TO.P,D22,2,A_2*%
%TO.N,+3V3*%
X312210000Y-282575439D03*
%TD*%
D87*
%TO.P,SW2,1,1_1*%
%TO.N,/RUN*%
X364000000Y-200200000D03*
%TO.P,SW2,2,2_2*%
%TO.N,Net-(R10-Pad1)*%
X359800000Y-200200000D03*
%TD*%
D27*
%TO.P,R5,1*%
%TO.N,Net-(C5-Pad2)*%
X377000000Y-225787500D03*
%TO.P,R5,2*%
%TO.N,PGND*%
X377000000Y-227612500D03*
%TD*%
D83*
%TO.P,C36,1*%
%TO.N,PGND*%
X284762500Y-134300000D03*
%TO.P,C36,2*%
%TO.N,+BATT*%
X283037500Y-134300000D03*
%TD*%
D88*
%TO.P,R18,1*%
%TO.N,/SPC*%
X231400000Y-168250000D03*
%TO.P,R18,2*%
%TO.N,PGND*%
X231400000Y-165150000D03*
%TD*%
D57*
%TO.P,Q6,1,G_1*%
%TO.N,/GLC*%
X231220000Y-170400000D03*
D89*
%TO.P,Q6,2,S_2*%
%TO.N,/SPC*%
X232220000Y-175200000D03*
D18*
%TO.P,Q6,3,D_3*%
%TO.N,/MOT_C*%
X235800000Y-171000000D03*
X235800000Y-172200000D03*
X235800000Y-173400000D03*
X235800000Y-174600000D03*
X235800000Y-175800000D03*
X235800000Y-177000000D03*
X235800000Y-178200000D03*
X237000000Y-171000000D03*
X237000000Y-172200000D03*
X237000000Y-173400000D03*
X237000000Y-174600000D03*
X237000000Y-175800000D03*
X237000000Y-177000000D03*
X237000000Y-178200000D03*
X238200000Y-171000000D03*
X238200000Y-172200000D03*
X238200000Y-173400000D03*
X238200000Y-174600000D03*
X238200000Y-175800000D03*
X238200000Y-177000000D03*
X238200000Y-178200000D03*
X239400000Y-171000000D03*
X239400000Y-172200000D03*
X239400000Y-173400000D03*
X239400000Y-174600000D03*
X239400000Y-175800000D03*
X239400000Y-177000000D03*
X239400000Y-178200000D03*
D90*
X240270000Y-174600000D03*
D18*
X240600000Y-171000000D03*
X240600000Y-172200000D03*
X240600000Y-173400000D03*
X240600000Y-174600000D03*
X240600000Y-175800000D03*
X240600000Y-177000000D03*
X240600000Y-178200000D03*
X241800000Y-171000000D03*
X241800000Y-172200000D03*
X241800000Y-173400000D03*
X241800000Y-174600000D03*
X241800000Y-175800000D03*
X241800000Y-177000000D03*
X241800000Y-178200000D03*
%TD*%
D12*
%TO.P,R27,1*%
%TO.N,Net-(D5-K)*%
X312187500Y-116000000D03*
%TO.P,R27,2*%
%TO.N,DGND*%
X314012500Y-116000000D03*
%TD*%
D23*
%TO.P,Q7,1,C_1*%
%TO.N,/ENC_SENSE_1*%
X309449616Y-284635831D03*
%TO.P,Q7,2,E_2*%
%TO.N,DGND*%
X307946436Y-285531907D03*
%TD*%
D91*
%TO.P,J4,1,Pin_1_1*%
%TO.N,DGND*%
X265100000Y-188762500D03*
D92*
%TO.P,J4,2,Pin_2_2*%
%TO.N,+3V3*%
X266100000Y-188762500D03*
%TO.P,J4,3,Pin_3_3*%
%TO.N,Net-(J4-Pin_3)*%
X267100000Y-188762500D03*
%TO.P,J4,4,Pin_4_4*%
%TO.N,Net-(J4-Pin_4)*%
X268100000Y-188762500D03*
%TD*%
D91*
%TO.P,J3,1,Pin_1_1*%
%TO.N,DGND*%
X268100000Y-191262500D03*
D92*
%TO.P,J3,2,Pin_2_2*%
%TO.N,+3V3*%
X267100000Y-191262500D03*
%TO.P,J3,3,Pin_3_3*%
%TO.N,Net-(J3-Pin_3)*%
X266100000Y-191262500D03*
%TO.P,J3,4,Pin_4_4*%
%TO.N,Net-(J3-Pin_4)*%
X265100000Y-191262500D03*
%TD*%
D93*
%TO.N,DGND*%
X325858227Y-146772215D03*
X323150000Y-125300000D03*
X297300000Y-113250000D03*
X397300000Y-217600000D03*
X396700000Y-218800000D03*
X314012500Y-116000000D03*
X362812500Y-211900000D03*
X300100000Y-156600000D03*
X371600000Y-156167500D03*
X302800000Y-152700000D03*
X307946989Y-280530347D03*
X343800000Y-272300000D03*
X307946989Y-285530347D03*
X288040120Y-149679333D03*
X326176463Y-150078545D03*
X307946989Y-278030347D03*
X331321455Y-146623537D03*
X312800000Y-140800000D03*
X322501283Y-143198717D03*
X360740000Y-179512500D03*
X314012500Y-120200000D03*
X362297500Y-197900000D03*
X269100000Y-208600000D03*
X304643324Y-157045406D03*
X307798959Y-155602324D03*
X364000000Y-195400000D03*
X319000242Y-156202324D03*
X323150000Y-129500000D03*
X321800242Y-148902324D03*
X304996878Y-159803122D03*
X307946989Y-283030347D03*
X297300000Y-110000000D03*
X267965000Y-209462500D03*
X314800242Y-158502324D03*
X327398170Y-145245385D03*
X307951946Y-275528900D03*
X287807888Y-147611565D03*
X297300000Y-116500000D03*
X305812500Y-130100000D03*
X306597676Y-154302324D03*
X306798717Y-147298717D03*
X335600000Y-123375000D03*
X347200000Y-275950000D03*
X308297676Y-158999758D03*
X397900000Y-218900000D03*
X308397676Y-145499758D03*
X365300000Y-147400000D03*
X265500000Y-207500000D03*
X322700242Y-149999758D03*
X212500000Y-185600000D03*
X305812500Y-125900000D03*
X321100243Y-149602324D03*
X325001146Y-151396511D03*
X308997676Y-156802324D03*
X332298959Y-149901041D03*
X308600000Y-141700000D03*
X318300242Y-156902324D03*
X384350000Y-177400000D03*
X330598959Y-151601041D03*
X338900000Y-123375000D03*
X266101283Y-209363783D03*
X397200000Y-220000000D03*
X318600242Y-142899758D03*
X379350000Y-180100000D03*
X321300242Y-152102324D03*
%TO.N,PGND*%
X390449999Y-211600000D03*
X275300000Y-154900000D03*
X392700000Y-218800000D03*
X392100000Y-219900000D03*
X382662500Y-216712500D03*
X377000000Y-227612500D03*
X391300000Y-218800000D03*
X281850000Y-154769453D03*
X274297865Y-155061868D03*
X386712499Y-208500000D03*
X293300000Y-110000000D03*
X385300000Y-230425000D03*
X212500000Y-181600000D03*
X274900000Y-154200000D03*
X281650000Y-153169453D03*
X383500000Y-225112500D03*
X273700000Y-155900000D03*
X231400000Y-165150000D03*
X385950000Y-227017500D03*
X276550000Y-137920000D03*
X293300000Y-116500000D03*
X261450000Y-146400000D03*
X388512499Y-211500000D03*
X285700000Y-158400000D03*
X273300000Y-155300000D03*
X386702500Y-228512500D03*
X284762500Y-134300000D03*
X379100000Y-228762500D03*
X386850001Y-204200000D03*
X388450000Y-220012500D03*
X238237500Y-156400000D03*
X389267500Y-223312500D03*
X293300000Y-113250000D03*
X390262500Y-203400000D03*
X249262500Y-154000000D03*
X282892112Y-149111565D03*
X392212499Y-211500000D03*
%TO.N,+BATT*%
X276800000Y-152800000D03*
X283011872Y-151431325D03*
X390600000Y-220800000D03*
X247537500Y-154000000D03*
X284111872Y-150331325D03*
X239962500Y-156400000D03*
X277902135Y-152538132D03*
X278600000Y-151600000D03*
X279000000Y-152300000D03*
X283037500Y-134300000D03*
X277300000Y-153400000D03*
%TO.N,Net-(U7-CPL)*%
X285311872Y-148068170D03*
%TO.N,Net-(U7-CPH)*%
X284509306Y-148870736D03*
%TO.N,Net-(U7-VCP)*%
X281792112Y-150211565D03*
%TO.N,/SPA*%
X273450000Y-137920000D03*
%TO.N,/SPB*%
X264550000Y-146400000D03*
%TO.N,/SPC*%
X231400000Y-168250000D03*
%TO.N,/SOC*%
X296900000Y-160700000D03*
X320000000Y-154500000D03*
%TO.N,/SOB*%
X298700000Y-160000000D03*
X319300000Y-155200000D03*
%TO.N,/SOA*%
X301422200Y-158322200D03*
X318700000Y-154500000D03*
%TO.N,+3V3*%
X309001283Y-143301283D03*
X305185000Y-275075439D03*
X288330240Y-158189213D03*
X312210000Y-282575439D03*
X320497676Y-151299758D03*
X313297500Y-285500000D03*
X304502500Y-277500000D03*
X313297500Y-280000000D03*
X331790000Y-120730000D03*
X269100000Y-209462500D03*
X317797676Y-143702324D03*
X317497676Y-156099758D03*
X307400242Y-153499758D03*
X324621455Y-150323537D03*
X312210000Y-277575439D03*
X313997676Y-157699758D03*
X370005000Y-154587500D03*
X320297675Y-148799758D03*
X358200000Y-179512500D03*
X305185000Y-280085439D03*
X267400000Y-192800000D03*
X313297500Y-274600000D03*
X384949999Y-206803500D03*
X265298717Y-208561217D03*
X384987499Y-208500000D03*
X387474999Y-199700000D03*
X291277504Y-158522496D03*
X305185000Y-285075439D03*
X321698717Y-144001283D03*
X304502500Y-282500000D03*
X388537500Y-203400000D03*
X289777504Y-158522496D03*
X307601283Y-148101283D03*
X308601525Y-154799758D03*
%TO.N,/AGND*%
X289550000Y-156969453D03*
%TO.N,/DRIVER_FAULTn*%
X306003334Y-156037980D03*
X290622496Y-157677504D03*
%TO.N,/DRIVER_CIPO*%
X307150000Y-145550000D03*
X304100000Y-147200000D03*
%TO.N,/DRIVER_CS*%
X306100000Y-148100000D03*
X293700000Y-152000000D03*
X310200000Y-148600000D03*
X300200000Y-152000000D03*
%TO.N,/DRIVER_ENABLE*%
X305900000Y-155100000D03*
X291000000Y-153800000D03*
%TO.N,/INHA*%
X294200000Y-148800000D03*
%TO.N,/INLA*%
X294800000Y-148100000D03*
%TO.N,/INHB*%
X295300000Y-147400000D03*
%TO.N,/INLB*%
X296100000Y-146700000D03*
%TO.N,/INHC*%
X296550000Y-145750000D03*
%TO.N,/INLC*%
X297200000Y-144200000D03*
%TO.N,Net-(U7-DVDD)*%
X289259880Y-148459573D03*
%TO.N,Net-(U7-VGLS)*%
X286588128Y-148831325D03*
%TO.N,Net-(D9-A)*%
X329798959Y-150401041D03*
X330548215Y-148703708D03*
X328084744Y-147486826D03*
X324778679Y-153380761D03*
%TO.N,Net-(J2-CC1)*%
X327021455Y-150923537D03*
%TO.N,/USB_DP*%
X321498959Y-145201041D03*
X327698959Y-149801041D03*
%TO.N,Net-(J2-CC2)*%
X330476463Y-145778545D03*
%TO.N,/ENC_SENSE_3*%
X310950000Y-160550000D03*
X351100000Y-269300578D03*
%TO.N,/ENC_LED_DRV*%
X319600000Y-156900000D03*
X350887500Y-274650000D03*
%TO.N,+5V*%
X373800000Y-216700000D03*
X372550000Y-215450000D03*
X393900000Y-196400000D03*
X383600000Y-230425000D03*
X386300000Y-218400000D03*
X373100000Y-216000000D03*
%TO.N,/ENC_SENSE_4*%
X350600000Y-268600000D03*
X312040217Y-160340217D03*
%TO.N,/ENC_LED_OUT*%
X319500000Y-283100000D03*
X316797500Y-285500000D03*
X301200000Y-282500000D03*
X343780000Y-276880000D03*
X316797500Y-280000000D03*
X317800000Y-277900000D03*
X316795000Y-274600000D03*
X318350000Y-277350000D03*
X301202500Y-277500000D03*
X319000000Y-282600000D03*
%TO.N,Net-(D8-A)*%
X315912500Y-129500000D03*
%TO.N,/RP2_RX*%
X313075001Y-142975001D03*
%TO.N,/RP2_TX*%
X312200000Y-143100000D03*
%TO.N,+1V1*%
X315898959Y-153101041D03*
X309200242Y-146302324D03*
X311598959Y-148701041D03*
X309800242Y-155999758D03*
X311998959Y-153401041D03*
X318197676Y-155399758D03*
X316398959Y-149801041D03*
%TO.N,/IMU_CIPO*%
X303767343Y-149299225D03*
%TO.N,/IMU_CS*%
X304658737Y-149458737D03*
%TO.N,/IMU_SCK*%
X305400000Y-149900000D03*
%TO.N,/IMU_COPI*%
X305700000Y-150800000D03*
%TO.N,/SDA_TOP_IR_TOF*%
X306600000Y-150600000D03*
%TO.N,/SCL_TOP_IR_TOF*%
X304900000Y-151800000D03*
%TO.N,/SDA_BOT_IR_TOF*%
X296800000Y-158300000D03*
%TO.N,/SCL_BOT_IR_TOF*%
X298000000Y-158600000D03*
%TO.N,/SWCLK*%
X309906559Y-156847238D03*
%TO.N,/SWDIO*%
X309500000Y-157700000D03*
%TO.N,/RUN*%
X340500000Y-155100000D03*
X310300000Y-158100000D03*
X349000000Y-165700000D03*
X364000000Y-200200000D03*
%TO.N,/ENC_SENSE_1*%
X310600000Y-158900000D03*
X352200000Y-270644896D03*
%TO.N,/ENC_SENSE_2*%
X310100000Y-160600000D03*
X351600000Y-269997187D03*
%TO.N,/ENC_SENSE_5*%
X350100000Y-267900000D03*
X313200000Y-160780434D03*
%TO.N,/ENC_SENSE_6*%
X322000000Y-158500000D03*
X352700000Y-271334697D03*
%TO.N,/ENC_SENSE_7*%
X353300000Y-272019733D03*
X323500000Y-157590819D03*
%TO.N,/ENC_SENSE_8*%
X322900000Y-156894299D03*
X353800000Y-272738860D03*
%TO.N,/ENC_SENSE_9*%
X354600000Y-273300000D03*
X321200000Y-156400000D03*
%TO.N,/ENC_SENSE_10*%
X320300000Y-156000000D03*
X355100000Y-274000000D03*
%TO.N,/BATT_MON*%
X348400000Y-154600000D03*
%TO.N,/5V_MON*%
X349600000Y-153975961D03*
%TO.N,Net-(U1-VREG_AVDD)*%
X321897676Y-150802324D03*
%TO.N,Net-(U1-VREG_LX)*%
X323298959Y-148001041D03*
X318798959Y-150501041D03*
%TO.N,/QSPI_SS*%
X341900000Y-139300000D03*
X344600000Y-142400000D03*
%TO.N,Net-(D3-A)*%
X298850000Y-125900000D03*
%TO.N,Net-(D5-A)*%
X306925000Y-116000000D03*
%TO.N,Net-(D4-A)*%
X298850000Y-130100000D03*
%TO.N,Net-(JP24-B)*%
X368300000Y-150900000D03*
X364500000Y-150900000D03*
%TO.N,Net-(D6-A)*%
X306925000Y-120200000D03*
%TO.N,Net-(JP20-B)*%
X363900000Y-149500000D03*
X366300000Y-149500000D03*
%TO.N,Net-(D7-A)*%
X315787500Y-125300000D03*
%TO.N,Net-(JP4-B)*%
X259600000Y-201650000D03*
X269100000Y-205000000D03*
%TO.N,Net-(J3-Pin_4)*%
X265300000Y-194362500D03*
%TD*%
%TO.N,/RUN*%
D94*
X349000000Y-162500000D02*
X349000000Y-165700000D01*
X341600000Y-155100000D02*
X349000000Y-162500000D01*
X340500000Y-155100000D02*
X341600000Y-155100000D01*
%TO.N,/ENC_SENSE_1*%
X311416745Y-156294525D02*
X311691892Y-156019378D01*
X311405475Y-156294525D02*
X311416745Y-156294525D01*
X311305242Y-156394758D02*
X311405475Y-156294525D01*
X311305242Y-158194758D02*
X311305242Y-156394758D01*
X310600000Y-158900000D02*
X311305242Y-158194758D01*
%TO.N,Net-(D8-K)*%
X318887500Y-129500000D02*
X321325000Y-129500000D01*
%TO.N,DGND*%
X330313172Y-150915253D02*
X330313172Y-151315254D01*
X307798959Y-155602324D02*
X307595110Y-155602324D01*
X330313172Y-151315254D02*
X330598959Y-151601041D01*
X304643324Y-157045406D02*
X306152028Y-157045406D01*
X396700000Y-219500000D02*
X397200000Y-220000000D01*
X396700000Y-218200000D02*
X397300000Y-217600000D01*
X319806002Y-149602324D02*
X321100243Y-149602324D01*
X327647379Y-145494594D02*
X327398170Y-145245385D01*
X397800000Y-218800000D02*
X397900000Y-218900000D01*
X326424085Y-147026166D02*
X326112178Y-147026166D01*
X325746411Y-151672757D02*
X325277392Y-151672757D01*
X396700000Y-218800000D02*
X396700000Y-219500000D01*
X319465824Y-149942502D02*
X319806002Y-149602324D01*
X331536467Y-149691959D02*
X332089877Y-149691959D01*
X326112178Y-147026166D02*
X325858227Y-146772215D01*
X330313172Y-150915253D02*
X331536467Y-149691959D01*
X287013171Y-150881407D02*
X287013171Y-150706282D01*
X365312500Y-147412500D02*
X365300000Y-147400000D01*
X307595110Y-155602324D02*
X306597676Y-156599758D01*
X332089877Y-149691959D02*
X332298959Y-149901041D01*
X323248717Y-143198717D02*
X323400000Y-143350000D01*
X322501283Y-143198717D02*
X323248717Y-143198717D01*
X325277392Y-151672757D02*
X325001146Y-151396511D01*
X326424085Y-147026166D02*
X327647379Y-145802871D01*
X396700000Y-218800000D02*
X397800000Y-218800000D01*
X306152028Y-157045406D02*
X306597676Y-156599758D01*
X314800242Y-158502324D02*
X314800242Y-159300242D01*
X396700000Y-218800000D02*
X396700000Y-218200000D01*
X314800242Y-159300242D02*
X315800000Y-160300000D01*
X366195000Y-147412500D02*
X365312500Y-147412500D01*
X287013171Y-150706282D02*
X288040120Y-149679333D01*
X327647379Y-145802871D02*
X327647379Y-145494594D01*
%TO.N,Net-(D2-K)*%
X378500000Y-221862500D02*
X379812500Y-221862500D01*
X381800000Y-219875000D02*
X384012500Y-219875000D01*
X379812500Y-221862500D02*
X381800000Y-219875000D01*
X384012500Y-219875000D02*
X384150000Y-220012500D01*
X379845000Y-223207500D02*
X378500000Y-221862500D01*
X381050000Y-223207500D02*
X379845000Y-223207500D01*
%TO.N,Net-(U2-EN)*%
X380785000Y-224212500D02*
X381050000Y-224477500D01*
X379412500Y-224212500D02*
X380785000Y-224212500D01*
%TO.N,Net-(U2-COMP)*%
X379100000Y-226180000D02*
X379567500Y-225712500D01*
X381015000Y-225712500D02*
X381050000Y-225747500D01*
X379100000Y-227037500D02*
X379100000Y-226180000D01*
X379567500Y-225712500D02*
X381015000Y-225712500D01*
%TO.N,Net-(U2-FB)*%
X385300000Y-228600000D02*
X383600000Y-228600000D01*
X383600000Y-228600000D02*
X382632500Y-228600000D01*
X382632500Y-228600000D02*
X381050000Y-227017500D01*
%TO.N,PGND*%
X275138132Y-155061868D02*
X275300000Y-154900000D01*
X285740382Y-157811054D02*
X285740382Y-158359618D01*
X274297865Y-154802135D02*
X274900000Y-154200000D01*
X274297865Y-155302135D02*
X273700000Y-155900000D01*
X273538132Y-155061868D02*
X273300000Y-155300000D01*
X392700000Y-219300000D02*
X392100000Y-219900000D01*
X274297865Y-155061868D02*
X274297865Y-154802135D01*
X282558400Y-154629072D02*
X281990381Y-154629072D01*
X392112499Y-211600000D02*
X392212499Y-211500000D01*
X392700000Y-218800000D02*
X391300000Y-218800000D01*
X274297865Y-155061868D02*
X274297865Y-155302135D01*
X281650000Y-153169453D02*
X282190383Y-153709836D01*
X390449999Y-211600000D02*
X388612499Y-211600000D01*
X282190383Y-153709836D02*
X282558400Y-153709836D01*
X285740382Y-158359618D02*
X285700000Y-158400000D01*
X390449999Y-211600000D02*
X392112499Y-211600000D01*
D95*
X332950000Y-246800000D02*
X322100000Y-246800000D01*
D94*
X392700000Y-218800000D02*
X392700000Y-219300000D01*
X274297865Y-155061868D02*
X273538132Y-155061868D01*
X388612499Y-211600000D02*
X388512499Y-211500000D01*
X281990381Y-154629072D02*
X281850000Y-154769453D01*
X274297865Y-155061868D02*
X275138132Y-155061868D01*
%TO.N,Net-(U2-FREQ)*%
X387897500Y-228512500D02*
X387897500Y-227695000D01*
X387897500Y-227695000D02*
X385950000Y-225747500D01*
%TO.N,+BATT*%
X373087500Y-224212500D02*
X372900000Y-224400000D01*
D95*
X358700000Y-224360140D02*
X354539860Y-220200000D01*
D94*
X277902135Y-152297865D02*
X278600000Y-151600000D01*
X385950000Y-224477500D02*
X386177500Y-224477500D01*
X285015509Y-151234962D02*
X284111872Y-150331325D01*
X277902135Y-152538132D02*
X278761868Y-152538132D01*
X350050000Y-212000000D02*
X350050000Y-216750000D01*
X277902135Y-152797865D02*
X277300000Y-153400000D01*
D95*
X358700000Y-230439860D02*
X358700000Y-224360140D01*
D94*
X277902135Y-152538132D02*
X277902135Y-152797865D01*
D95*
X354539860Y-220200000D02*
X353500000Y-220200000D01*
X337250000Y-246800000D02*
X342339860Y-246800000D01*
D94*
X285033275Y-151234962D02*
X285015509Y-151234962D01*
X284679722Y-151588514D02*
X285033275Y-151234962D01*
X277061868Y-152538132D02*
X276800000Y-152800000D01*
X277902135Y-152538132D02*
X277902135Y-152297865D01*
X350050000Y-216750000D02*
X353500000Y-220200000D01*
X277902135Y-152538132D02*
X277061868Y-152538132D01*
D95*
X353500000Y-220200000D02*
X368700000Y-220200000D01*
X342339860Y-246800000D02*
X358700000Y-230439860D01*
X368700000Y-220200000D02*
X372900000Y-224400000D01*
D94*
X278761868Y-152538132D02*
X279000000Y-152300000D01*
%TO.N,Net-(U2-BST)*%
X385950000Y-223207500D02*
X384342500Y-221600000D01*
X384342500Y-221600000D02*
X381800000Y-221600000D01*
%TO.N,Net-(U7-CPL)*%
X285740382Y-150527854D02*
X285740382Y-148496680D01*
X285740382Y-148496680D02*
X285311872Y-148068170D01*
%TO.N,Net-(U7-CPH)*%
X285386829Y-150690489D02*
X285386829Y-150881407D01*
X284509306Y-149812966D02*
X285386829Y-150690489D01*
X284509306Y-148870736D02*
X284509306Y-149812966D01*
%TO.N,Net-(U7-VCP)*%
X282647712Y-150211565D02*
X281792112Y-150211565D01*
X284326168Y-151890021D02*
X282647712Y-150211565D01*
X284326168Y-151942068D02*
X284326168Y-151890021D01*
%TO.N,/GHA*%
X281187112Y-142443514D02*
X290805000Y-132825626D01*
X290805000Y-121925000D02*
X289700000Y-120820000D01*
X282833906Y-152153359D02*
X281187112Y-150506565D01*
X283830351Y-152153359D02*
X282833906Y-152153359D01*
X290805000Y-132825626D02*
X290805000Y-121925000D01*
X281187112Y-150506565D02*
X281187112Y-142443514D01*
X283972614Y-152295622D02*
X283830351Y-152153359D01*
%TO.N,/MOT_A*%
X283476802Y-152506914D02*
X282763197Y-152506914D01*
D95*
X238700000Y-197500000D02*
X230700000Y-189500000D01*
D94*
X282763197Y-152506914D02*
X282028142Y-151771858D01*
X282028142Y-151771858D02*
X280195000Y-149938716D01*
D95*
X238700000Y-200200000D02*
X238700000Y-197500000D01*
D94*
X280195000Y-130945000D02*
X274600000Y-125350000D01*
X280195000Y-149938716D02*
X280195000Y-130945000D01*
X283619062Y-152649174D02*
X283476802Y-152506914D01*
%TO.N,/GLA*%
X283069693Y-152806914D02*
X283265508Y-153002729D01*
X271300000Y-131600000D02*
X278500000Y-131600000D01*
X279600000Y-149767981D02*
X282638933Y-152806914D01*
X278500000Y-131600000D02*
X279600000Y-132700000D01*
X270400000Y-134400000D02*
X270400000Y-132500000D01*
X279600000Y-132700000D02*
X279600000Y-149767981D01*
X270400000Y-132500000D02*
X271300000Y-131600000D01*
X282638933Y-152806914D02*
X283069693Y-152806914D01*
%TO.N,/SPA*%
X282764036Y-153356281D02*
X273450000Y-144042245D01*
X273450000Y-144042245D02*
X273450000Y-137920000D01*
X282911955Y-153356281D02*
X282764036Y-153356281D01*
%TO.N,/SPB*%
X282911953Y-154982625D02*
X282520125Y-155374453D01*
X269000000Y-146400000D02*
X264550000Y-146400000D01*
X277974453Y-155374453D02*
X269000000Y-146400000D01*
X282520125Y-155374453D02*
X277974453Y-155374453D01*
%TO.N,/GLB*%
X258500000Y-145900000D02*
X258500000Y-142500000D01*
X277674453Y-155674453D02*
X270000000Y-148000000D01*
X283265508Y-155336179D02*
X282927234Y-155674453D01*
X270000000Y-148000000D02*
X260600000Y-148000000D01*
X282927234Y-155674453D02*
X277674453Y-155674453D01*
X260600000Y-148000000D02*
X258500000Y-145900000D01*
%TO.N,/MOT_B*%
X257850000Y-145674264D02*
X257850000Y-137970000D01*
X268906134Y-156730398D02*
X257850000Y-145674264D01*
X283619060Y-155689732D02*
X282578394Y-156730398D01*
X257850000Y-137970000D02*
X260300000Y-135520000D01*
X282578394Y-156730398D02*
X268906134Y-156730398D01*
D95*
X238700000Y-207700000D02*
X238700000Y-212000000D01*
X238700000Y-212000000D02*
X230700000Y-220000000D01*
%TO.N,/GHB*%
D94*
X256805000Y-141525000D02*
X256805000Y-145053528D01*
X282985502Y-157030398D02*
X283972614Y-156043286D01*
X255700000Y-140420000D02*
X256805000Y-141525000D01*
X256805000Y-145053528D02*
X268781870Y-157030398D01*
X268781870Y-157030398D02*
X282985502Y-157030398D01*
%TO.N,/GHC*%
X284326168Y-156396840D02*
X283323008Y-157400000D01*
X247380000Y-167400000D02*
X246380000Y-167400000D01*
X257380000Y-157400000D02*
X247380000Y-167400000D01*
X283323008Y-157400000D02*
X257380000Y-157400000D01*
%TO.N,/MOT_C*%
X246700000Y-169300000D02*
X258300000Y-157700000D01*
X246200000Y-169300000D02*
X246700000Y-169300000D01*
X284679720Y-156750392D02*
X283730112Y-157700000D01*
D95*
X230700000Y-196500000D02*
X230700000Y-213000000D01*
D94*
X283730112Y-157700000D02*
X258300000Y-157700000D01*
%TO.N,/GLC*%
X284037221Y-158100000D02*
X266400000Y-158100000D01*
X244300000Y-180200000D02*
X266400000Y-158100000D01*
X233600000Y-171600000D02*
X233600000Y-178500000D01*
X285033275Y-157103946D02*
X284037221Y-158100000D01*
X231220000Y-170400000D02*
X232400000Y-170400000D01*
X235300000Y-180200000D02*
X244300000Y-180200000D01*
X232400000Y-170400000D02*
X233600000Y-171600000D01*
X233600000Y-178500000D02*
X235300000Y-180200000D01*
%TO.N,/SPC*%
X244400000Y-180900000D02*
X233915000Y-180900000D01*
X232220000Y-179205000D02*
X232220000Y-175200000D01*
X233915000Y-180900000D02*
X232220000Y-179205000D01*
X284344326Y-158500000D02*
X266800000Y-158500000D01*
X285386827Y-157457499D02*
X284344326Y-158500000D01*
X266800000Y-158500000D02*
X244400000Y-180900000D01*
%TO.N,/SOC*%
X296900000Y-160700000D02*
X289102749Y-160700000D01*
X286659618Y-158256869D02*
X286659618Y-157811054D01*
X320000000Y-154290812D02*
X320000000Y-154500000D01*
X289102749Y-160700000D02*
X286659618Y-158256869D01*
X318617296Y-152908108D02*
X320000000Y-154290812D01*
%TO.N,/SOB*%
X298700000Y-160000000D02*
X288861163Y-160000000D01*
X319300000Y-155200000D02*
X319300000Y-154960664D01*
X287208988Y-158347825D02*
X287208988Y-157653314D01*
X288861163Y-160000000D02*
X287208988Y-158347825D01*
X319305000Y-154161498D02*
X318334453Y-153190951D01*
X319300000Y-154960664D02*
X319305000Y-154955664D01*
X319305000Y-154955664D02*
X319305000Y-154161498D01*
X287208988Y-157653314D02*
X287013173Y-157457499D01*
%TO.N,/SOA*%
X300444400Y-159300000D02*
X288585427Y-159300000D01*
X318700000Y-154122183D02*
X318700000Y-154500000D01*
X301422200Y-158322200D02*
X300444400Y-159300000D01*
X318051610Y-153473793D02*
X318700000Y-154122183D01*
X287508988Y-157246209D02*
X287366725Y-157103946D01*
X287508988Y-158223561D02*
X287508988Y-157246209D01*
X288585427Y-159300000D02*
X287508988Y-158223561D01*
%TO.N,+3V3*%
X319465824Y-152059580D02*
X319748667Y-151776737D01*
X314374655Y-157322779D02*
X313997676Y-157699758D01*
X370450000Y-155032500D02*
X370005000Y-154587500D01*
X311691892Y-145982704D02*
X311682704Y-145982704D01*
X287720280Y-156750392D02*
X288330240Y-157360352D01*
X308274735Y-152625265D02*
X307400242Y-153499758D01*
X318900139Y-149376817D02*
X319477198Y-148799758D01*
X317497676Y-155182600D02*
X317497676Y-156099758D01*
X371805000Y-147885000D02*
X371805000Y-154827500D01*
X321292615Y-144001283D02*
X321698717Y-144001283D01*
X388537500Y-200762501D02*
X387474999Y-199700000D01*
X288330240Y-157360352D02*
X288330240Y-158189213D01*
X317768768Y-148245446D02*
X317485925Y-147962603D01*
X311682704Y-145982704D02*
X309001283Y-143301283D01*
X308863465Y-148811131D02*
X308153617Y-148101283D01*
X319477198Y-148799758D02*
X320297675Y-148799758D01*
X314374655Y-157150749D02*
X314374655Y-157322779D01*
X387600000Y-199574999D02*
X387474999Y-199700000D01*
X319748667Y-151776737D02*
X320020697Y-151776737D01*
X315517296Y-145982704D02*
X317797676Y-143702324D01*
X315506026Y-145982704D02*
X315517296Y-145982704D01*
X388537500Y-203400000D02*
X388537500Y-200762501D01*
X308951714Y-154799758D02*
X308601525Y-154799758D01*
X309711993Y-154039479D02*
X308951714Y-154799758D01*
X318188041Y-147105857D02*
X321292615Y-144001283D01*
X371600000Y-155032500D02*
X370450000Y-155032500D01*
X371805000Y-154827500D02*
X371600000Y-155032500D01*
X316920240Y-154605164D02*
X317497676Y-155182600D01*
X320020697Y-151776737D02*
X320497676Y-151299758D01*
X387600000Y-193400000D02*
X387600000Y-199574999D01*
X318188041Y-147260487D02*
X318188041Y-147105857D01*
X317485925Y-147962603D02*
X318188041Y-147260487D01*
X308297779Y-152625265D02*
X308274735Y-152625265D01*
X308153617Y-148101283D02*
X307601283Y-148101283D01*
%TO.N,/AGND*%
X288073832Y-156396840D02*
X288646445Y-156969453D01*
X288646445Y-156969453D02*
X289550000Y-156969453D01*
%TO.N,/DRIVER_FAULTn*%
X306262020Y-156037980D02*
X306003334Y-156037980D01*
X308863465Y-153190951D02*
X308863465Y-153247520D01*
X288427386Y-156043286D02*
X288569647Y-156185547D01*
X308588318Y-153522667D02*
X308588318Y-153711682D01*
X308588318Y-153711682D02*
X306262020Y-156037980D01*
X290622496Y-157186349D02*
X290622496Y-157677504D01*
X308863465Y-153247520D02*
X308588318Y-153522667D01*
X289621694Y-156185547D02*
X290622496Y-157186349D01*
X288569647Y-156185547D02*
X289621694Y-156185547D01*
%TO.N,/DRIVER_CIPO*%
X307507968Y-145900000D02*
X309012581Y-147404613D01*
X309719689Y-147404613D02*
X309994836Y-147679760D01*
X304100000Y-147200000D02*
X293622496Y-157677504D01*
X307500000Y-145900000D02*
X307507968Y-145900000D01*
X309012581Y-147404613D02*
X309719689Y-147404613D01*
X288923202Y-155831994D02*
X290276986Y-155831994D01*
X290276986Y-155831994D02*
X292122496Y-157677504D01*
X307150000Y-145550000D02*
X307500000Y-145900000D01*
X293622496Y-157677504D02*
X292122496Y-157677504D01*
X288780940Y-155689732D02*
X288923202Y-155831994D01*
%TO.N,/DRIVER_COPI*%
X291700000Y-155500000D02*
X289298313Y-155500000D01*
X300700000Y-146500000D02*
X291700000Y-155500000D01*
X289298313Y-155500000D02*
X289134492Y-155336179D01*
X309146308Y-148528289D02*
X307118019Y-146500000D01*
X307118019Y-146500000D02*
X300700000Y-146500000D01*
%TO.N,/DRIVER_SCLK*%
X291400000Y-155200000D02*
X300400000Y-146200000D01*
X289488047Y-154982625D02*
X289705422Y-155200000D01*
X289705422Y-155200000D02*
X291400000Y-155200000D01*
X300400000Y-146200000D02*
X307383704Y-146200000D01*
X307383704Y-146200000D02*
X309429150Y-148245446D01*
%TO.N,/DRIVER_CS*%
X306100000Y-148100000D02*
X304100000Y-148100000D01*
X310200000Y-148450610D02*
X310200000Y-148600000D01*
X309711993Y-147962603D02*
X310200000Y-148450610D01*
X304100000Y-148100000D02*
X300200000Y-152000000D01*
X291070928Y-154629072D02*
X293700000Y-152000000D01*
X289841600Y-154629072D02*
X291070928Y-154629072D01*
%TO.N,/DRIVER_ENABLE*%
X308580622Y-152908108D02*
X308288318Y-153200412D01*
X308288318Y-153467282D02*
X306655600Y-155100000D01*
X306655600Y-155100000D02*
X305900000Y-155100000D01*
X308288318Y-153200412D02*
X308288318Y-153467282D01*
X289841600Y-153709836D02*
X290909836Y-153709836D01*
X290909836Y-153709836D02*
X291000000Y-153800000D01*
%TO.N,/INHA*%
X294200000Y-148800000D02*
X294044326Y-148800000D01*
X294044326Y-148800000D02*
X289488045Y-153356281D01*
X309805242Y-146051724D02*
X309805242Y-146358796D01*
X309805242Y-146358796D02*
X310560521Y-147114075D01*
X297000000Y-148800000D02*
X300905242Y-144894758D01*
X300905242Y-144894758D02*
X308648276Y-144894758D01*
X294200000Y-148800000D02*
X297000000Y-148800000D01*
X308648276Y-144894758D02*
X309805242Y-146051724D01*
%TO.N,/INLA*%
X296800000Y-148100000D02*
X300305242Y-144594758D01*
X310246664Y-146234532D02*
X310246664Y-146068882D01*
X308772540Y-144594758D02*
X300305242Y-144594758D01*
X294037221Y-148100000D02*
X294800000Y-148100000D01*
X310843364Y-146831232D02*
X310246664Y-146234532D01*
X294800000Y-148100000D02*
X296800000Y-148100000D01*
X289134492Y-153002729D02*
X294037221Y-148100000D01*
X310246664Y-146068882D02*
X308772540Y-144594758D01*
%TO.N,/INHB*%
X308896804Y-144294758D02*
X311126207Y-146524161D01*
X311126207Y-146524161D02*
X311126207Y-146548390D01*
X295300000Y-147400000D02*
X296800000Y-147400000D01*
X296800000Y-147400000D02*
X299905242Y-144294758D01*
X294030112Y-147400000D02*
X295300000Y-147400000D01*
X299905242Y-144294758D02*
X308896804Y-144294758D01*
X288780938Y-152649174D02*
X294030112Y-147400000D01*
%TO.N,/INLB*%
X295698420Y-146700000D02*
X295669243Y-146729177D01*
X295669243Y-146729177D02*
X293993831Y-146729177D01*
X296100000Y-146700000D02*
X295698420Y-146700000D01*
X296800000Y-146700000D02*
X299505242Y-143994758D01*
X299505242Y-143994758D02*
X309138260Y-143994758D01*
X309138260Y-143994758D02*
X311409049Y-146265547D01*
X296100000Y-146700000D02*
X296800000Y-146700000D01*
X293993831Y-146729177D02*
X288427386Y-152295622D01*
%TO.N,/INHC*%
X293925150Y-146090750D02*
X288073832Y-151942068D01*
X296550000Y-145750000D02*
X296209250Y-146090750D01*
X296209250Y-146090750D02*
X293925150Y-146090750D01*
X296550000Y-145750000D02*
X299603717Y-142696283D01*
X309251883Y-142696283D02*
X309606283Y-143050683D01*
X309606283Y-143050683D02*
X309606283Y-143331409D01*
X299603717Y-142696283D02*
X309251883Y-142696283D01*
X309606283Y-143331409D02*
X311974735Y-145699861D01*
%TO.N,/INLC*%
X295996343Y-145403657D02*
X297200000Y-144200000D01*
X311982430Y-145141872D02*
X312257577Y-145417019D01*
X297200000Y-144200000D02*
X299003717Y-142396283D01*
X287720278Y-151588514D02*
X293905135Y-145403657D01*
X299003717Y-142396283D02*
X309376147Y-142396283D01*
X309376147Y-142396283D02*
X311982430Y-145002566D01*
X293905135Y-145403657D02*
X295996343Y-145403657D01*
X311982430Y-145002566D02*
X311982430Y-145141872D01*
%TO.N,Net-(U7-DVDD)*%
X289259880Y-149341807D02*
X289259880Y-148459573D01*
X287366725Y-151234962D02*
X289259880Y-149341807D01*
%TO.N,Net-(U7-VGLS)*%
X286659618Y-150527854D02*
X286659618Y-148902815D01*
X286659618Y-148902815D02*
X286588128Y-148831325D01*
%TO.N,Net-(D9-A)*%
X328708039Y-146863532D02*
X328084744Y-147486826D01*
X329252512Y-149854593D02*
X325726344Y-153380761D01*
X328084744Y-147486826D02*
X327484745Y-148086826D01*
X330529217Y-148631299D02*
X330475806Y-148631299D01*
X329798959Y-150401041D02*
X329252512Y-149854593D01*
X330548215Y-148703708D02*
X330548215Y-148650297D01*
X330548215Y-148650297D02*
X330529217Y-148631299D01*
X325726344Y-153380761D02*
X324778679Y-153380761D01*
%TO.N,Net-(J2-CC1)*%
X327476463Y-150923537D02*
X327021455Y-150923537D01*
X328898959Y-149501041D02*
X327476463Y-150923537D01*
%TO.N,/USB_DP*%
X325571463Y-151073545D02*
X325718127Y-151220209D01*
X325925863Y-149473545D02*
X325571463Y-149827945D01*
X330069819Y-147261100D02*
X331153215Y-148344496D01*
X325571463Y-149827945D02*
X325571463Y-151073545D01*
X331153215Y-148954308D02*
X330798815Y-149308708D01*
X320898959Y-145201041D02*
X319698959Y-146401041D01*
X327371463Y-149473545D02*
X325925863Y-149473545D01*
X331153215Y-148344496D02*
X331153215Y-148954308D01*
X329670839Y-149308708D02*
X329200079Y-148837949D01*
X328545405Y-149147487D02*
X327891851Y-149801041D01*
X330798815Y-149308708D02*
X329670839Y-149308708D01*
X329415146Y-147570638D02*
X329724684Y-147261100D01*
X329724684Y-147261100D02*
X330069819Y-147261100D01*
X321498959Y-145201041D02*
X320898959Y-145201041D01*
X327698959Y-149801041D02*
X327371463Y-149473545D01*
X329200079Y-148837949D02*
X328854943Y-148837949D01*
X327891851Y-149801041D02*
X327698959Y-149801041D01*
X328854943Y-148837949D02*
X328545405Y-149147487D01*
%TO.N,/USB_DM*%
X320398959Y-147101041D02*
X321543359Y-147101041D01*
X326198959Y-151822731D02*
X325977243Y-152044447D01*
X329768700Y-147924192D02*
X329459162Y-148233730D01*
X328752054Y-148233730D02*
X328191851Y-148793933D01*
X325977243Y-152044447D02*
X324442365Y-152044447D01*
X327872837Y-149112947D02*
X328191851Y-148793933D01*
X326198959Y-151701041D02*
X326198959Y-151822731D01*
X321543359Y-147101041D02*
X323555265Y-149112947D01*
X323555265Y-149112947D02*
X327872837Y-149112947D01*
X329459162Y-148233730D02*
X328752054Y-148233730D01*
X323555265Y-151157347D02*
X323555265Y-149112947D01*
X324442365Y-152044447D02*
X323555265Y-151157347D01*
%TO.N,Net-(J2-CC2)*%
X329061592Y-147193416D02*
X330476463Y-145778545D01*
X329061592Y-147217084D02*
X329061592Y-147193416D01*
%TO.N,Net-(R10-Pad1)*%
X359800000Y-200200000D02*
X361102500Y-198897500D01*
X361102500Y-198897500D02*
X361102500Y-197900000D01*
%TO.N,/ENC_SENSE_3*%
X311905242Y-159594758D02*
X311905242Y-156937398D01*
X310950000Y-160550000D02*
X311905242Y-159594758D01*
X344599422Y-269300578D02*
X333000000Y-280900000D01*
X333000000Y-280900000D02*
X312800000Y-280900000D01*
X311905242Y-156937398D02*
X312257577Y-156585063D01*
X351100000Y-269300578D02*
X344599422Y-269300578D01*
X312800000Y-280900000D02*
X312102500Y-280202500D01*
X311738331Y-279635831D02*
X312102500Y-280000000D01*
X312102500Y-280202500D02*
X312102500Y-280000000D01*
X309449616Y-279635831D02*
X311738331Y-279635831D01*
%TO.N,/GPIO0*%
X315223183Y-145699861D02*
X317023044Y-143900000D01*
X323200000Y-137400000D02*
X359800000Y-137400000D01*
X317023044Y-143576956D02*
X323200000Y-137400000D01*
X317023044Y-143900000D02*
X317023044Y-143576956D01*
%TO.N,Net-(JP19-B)*%
X370727500Y-146690000D02*
X370005000Y-147412500D01*
X371805000Y-146690000D02*
X370727500Y-146690000D01*
X370005000Y-147412500D02*
X370005000Y-146305000D01*
X370005000Y-146305000D02*
X361100000Y-137400000D01*
%TO.N,/ENC_LED_DRV*%
X316071711Y-155453692D02*
X316892676Y-156274657D01*
X316892676Y-156350358D02*
X318049642Y-157507324D01*
X316892676Y-156274657D02*
X316892676Y-156350358D01*
X318992676Y-157507324D02*
X319600000Y-156900000D01*
X318049642Y-157507324D02*
X318992676Y-157507324D01*
%TO.N,Net-(Q17-G)*%
X347200000Y-277850000D02*
X349692500Y-275357500D01*
X349692500Y-275357500D02*
X349692500Y-274650000D01*
%TO.N,+5V*%
D96*
X391600000Y-165260396D02*
X391600000Y-196400000D01*
X344469604Y-118130000D02*
X391600000Y-165260396D01*
X331790000Y-118130000D02*
X344469604Y-118130000D01*
%TO.N,Net-(D3-K)*%
D94*
X301887500Y-125900000D02*
X303987500Y-125900000D01*
%TO.N,Net-(U3-BST)*%
X383249999Y-205062500D02*
X384087499Y-205062500D01*
X384087499Y-205062500D02*
X384949999Y-204200000D01*
%TO.N,Net-(U3-SW)*%
X385900000Y-204003150D02*
X385234350Y-203337500D01*
X383249999Y-200275000D02*
X383824999Y-199700000D01*
X383249999Y-203337500D02*
X383249999Y-200275000D01*
X385900000Y-204200000D02*
X385900000Y-204003150D01*
X385234350Y-203337500D02*
X383249999Y-203337500D01*
%TO.N,/ENC_SENSE_4*%
X310131907Y-276450439D02*
X309449386Y-277132960D01*
X309449386Y-277132960D02*
X306064540Y-277132960D01*
X336649561Y-276450439D02*
X310131907Y-276450439D01*
X312205242Y-160175192D02*
X312205242Y-157203084D01*
X312040217Y-160340217D02*
X312205242Y-160175192D01*
X350600000Y-268600000D02*
X344500000Y-268600000D01*
X312205242Y-157203084D02*
X312540420Y-156867906D01*
X306064540Y-277132960D02*
X305697500Y-277500000D01*
X344500000Y-268600000D02*
X336649561Y-276450439D01*
%TO.N,Net-(D19-K)*%
X302210000Y-275075439D02*
X303493193Y-273792246D01*
X314792246Y-273792246D02*
X315600000Y-274600000D01*
X303493193Y-273792246D02*
X314792246Y-273792246D01*
%TO.N,/ENC_LED_OUT*%
D96*
X343780000Y-273620000D02*
X343800000Y-273600000D01*
X343780000Y-276880000D02*
X343780000Y-273620000D01*
X343780000Y-276900000D02*
X343780000Y-276880000D01*
%TO.N,/RP2_RX*%
D94*
X313075001Y-142975001D02*
X312823263Y-143226740D01*
X312823263Y-143226740D02*
X312823263Y-144851333D01*
%TO.N,/RP2_TX*%
X312200000Y-144793756D02*
X312200000Y-143100000D01*
X312540420Y-145134176D02*
X312200000Y-144793756D01*
%TO.N,+1V1*%
X310277678Y-147396918D02*
X310277678Y-147379760D01*
X309800242Y-155598475D02*
X310510710Y-154888007D01*
X317910229Y-149801041D02*
X316398959Y-149801041D01*
X317203082Y-154322322D02*
X318197676Y-155316916D01*
X310510710Y-154888007D02*
X310560521Y-154888007D01*
X309800242Y-155999758D02*
X309800242Y-155598475D01*
X310277678Y-147379760D02*
X309200242Y-146302324D01*
X318197676Y-155316916D02*
X318197676Y-155399758D01*
X318617296Y-149093974D02*
X317910229Y-149801041D01*
%TO.N,/IMU_CIPO*%
X308254003Y-148767355D02*
X304299213Y-148767355D01*
X308580622Y-149093974D02*
X308254003Y-148767355D01*
X304299213Y-148767355D02*
X303767343Y-149299225D01*
%TO.N,/IMU_CS*%
X305050119Y-149067355D02*
X307988317Y-149067355D01*
X304658737Y-149458737D02*
X305050119Y-149067355D01*
X307988317Y-149067355D02*
X308297779Y-149376817D01*
%TO.N,/IMU_SCK*%
X305400000Y-149900000D02*
X305932645Y-149367355D01*
X305932645Y-149367355D02*
X307722633Y-149367355D01*
X307722633Y-149367355D02*
X308014937Y-149659659D01*
%TO.N,/IMU_COPI*%
X305700000Y-150800000D02*
X305700000Y-150500000D01*
X305700000Y-150500000D02*
X306532645Y-149667355D01*
X307456947Y-149667355D02*
X307732094Y-149942502D01*
X306532645Y-149667355D02*
X307456947Y-149667355D01*
%TO.N,/SDA_TOP_IR_TOF*%
X307449251Y-150225345D02*
X306974655Y-150225345D01*
X306974655Y-150225345D02*
X306600000Y-150600000D01*
%TO.N,/SCL_TOP_IR_TOF*%
X304923263Y-151776737D02*
X304900000Y-151800000D01*
X307449251Y-151776737D02*
X304923263Y-151776737D01*
%TO.N,/SDA_BOT_IR_TOF*%
X307108703Y-152391297D02*
X307400377Y-152391297D01*
X302200000Y-157300000D02*
X307108703Y-152391297D01*
X307400377Y-152391297D02*
X307732094Y-152059580D01*
X296800000Y-158300000D02*
X297800000Y-157300000D01*
X297800000Y-157300000D02*
X302200000Y-157300000D01*
%TO.N,/SCL_BOT_IR_TOF*%
X298882800Y-157717200D02*
X302327200Y-157717200D01*
X307149642Y-152894758D02*
X307462602Y-152894758D01*
X298000000Y-158600000D02*
X298882800Y-157717200D01*
X307462602Y-152894758D02*
X308014937Y-152342423D01*
X302327200Y-157717200D02*
X307149642Y-152894758D01*
%TO.N,/XIN*%
X304784747Y-158247487D02*
X303441243Y-158247487D01*
X307400242Y-157402324D02*
X305629910Y-157402324D01*
X309994836Y-154322322D02*
X307616117Y-156701041D01*
X307400242Y-157402324D02*
X307400242Y-156916916D01*
X305629910Y-157402324D02*
X304784747Y-158247487D01*
X307400242Y-156916916D02*
X307616117Y-156701041D01*
%TO.N,/XOUT*%
X308392676Y-157594758D02*
X308576463Y-157778545D01*
X310277678Y-154605164D02*
X308392676Y-156490166D01*
X308392676Y-157294758D02*
X308392676Y-157594758D01*
X308392676Y-156490166D02*
X308392676Y-157294758D01*
%TO.N,/SWCLK*%
X310400000Y-156353797D02*
X309906559Y-156847238D01*
X310843364Y-155170850D02*
X310400000Y-155614214D01*
X310400000Y-156255600D02*
X310400000Y-156353797D01*
X310400000Y-155743916D02*
X310405242Y-155749158D01*
X310405242Y-156250358D02*
X310400000Y-156255600D01*
X310405242Y-155749158D02*
X310405242Y-156250358D01*
X310400000Y-155614214D02*
X310400000Y-155743916D01*
%TO.N,/SWDIO*%
X310705242Y-155874657D02*
X311126207Y-155453692D01*
X310700000Y-156379864D02*
X310705242Y-156374622D01*
X309500000Y-157700000D02*
X309747762Y-157452238D01*
X310700000Y-156909397D02*
X310700000Y-156379864D01*
X310157159Y-157452238D02*
X310700000Y-156909397D01*
X309747762Y-157452238D02*
X310157159Y-157452238D01*
X310705242Y-156374622D02*
X310705242Y-155874657D01*
%TO.N,/RUN*%
X311005242Y-156140342D02*
X311005242Y-156498886D01*
X311000000Y-157400000D02*
X310300000Y-158100000D01*
X311409049Y-155736535D02*
X311005242Y-156140342D01*
X311000000Y-156504128D02*
X311000000Y-157400000D01*
X311005242Y-156498886D02*
X311000000Y-156504128D01*
%TO.N,/ENC_SENSE_1*%
X336162866Y-286105000D02*
X312707500Y-286105000D01*
X352200000Y-270644896D02*
X350917238Y-270644896D01*
X345950000Y-275612134D02*
X345950000Y-276317866D01*
X312102500Y-285500000D02*
X310313785Y-285500000D01*
X345950000Y-276317866D02*
X336162866Y-286105000D01*
X350917238Y-270644896D02*
X345950000Y-275612134D01*
X312707500Y-286105000D02*
X312102500Y-285500000D01*
X310313785Y-285500000D02*
X309449616Y-284635831D01*
%TO.N,/ENC_SENSE_2*%
X309449616Y-282135831D02*
X306061669Y-282135831D01*
X311605242Y-156671714D02*
X311974735Y-156302221D01*
X311605242Y-158955422D02*
X311605242Y-156671714D01*
X310135008Y-281450439D02*
X309449616Y-282135831D01*
X333331829Y-281450439D02*
X310135008Y-281450439D01*
X351600000Y-269997187D02*
X344785081Y-269997187D01*
X344785081Y-269997187D02*
X333331829Y-281450439D01*
X310100000Y-160460664D02*
X311605242Y-158955422D01*
X306061669Y-282135831D02*
X305697500Y-282500000D01*
X310100000Y-160600000D02*
X310100000Y-160460664D01*
%TO.N,/ENC_SENSE_5*%
X313302500Y-275800000D02*
X312102500Y-274600000D01*
X309487094Y-274600000D02*
X309454016Y-274633078D01*
X312823263Y-160276737D02*
X312823263Y-157150749D01*
X336600000Y-275800000D02*
X313302500Y-275800000D01*
X350100000Y-267900000D02*
X344500000Y-267900000D01*
X312823263Y-160276737D02*
X313200000Y-160653474D01*
X344500000Y-267900000D02*
X336600000Y-275800000D01*
X313200000Y-160653474D02*
X313200000Y-160780434D01*
X312102500Y-274600000D02*
X309487094Y-274600000D01*
%TO.N,/ENC_SENSE_6*%
X316796916Y-159007324D02*
X321492676Y-159007324D01*
X314657498Y-156867906D02*
X316796916Y-159007324D01*
X321492676Y-159007324D02*
X322000000Y-158500000D01*
%TO.N,/ENC_SENSE_7*%
X321916133Y-157590819D02*
X320799628Y-158707324D01*
X317062602Y-158707324D02*
X314940341Y-156585063D01*
X323500000Y-157590819D02*
X321916133Y-157590819D01*
X320799628Y-158707324D02*
X317062602Y-158707324D01*
%TO.N,/ENC_SENSE_8*%
X322900000Y-156894299D02*
X321637990Y-156894299D01*
X317328286Y-158407324D02*
X315223183Y-156302221D01*
X320124965Y-158407324D02*
X317328286Y-158407324D01*
X321637990Y-156894299D02*
X320124965Y-158407324D01*
%TO.N,/ENC_SENSE_9*%
X315506026Y-156019378D02*
X317593972Y-158107324D01*
X319992676Y-158107324D02*
X320900000Y-157200000D01*
X320900000Y-156700000D02*
X321200000Y-156400000D01*
X320900000Y-157200000D02*
X320900000Y-156700000D01*
X317593972Y-158107324D02*
X319992676Y-158107324D01*
%TO.N,/ENC_SENSE_10*%
X319548276Y-157807324D02*
X317859658Y-157807324D01*
X320300000Y-157055600D02*
X319548276Y-157807324D01*
X320300000Y-156000000D02*
X320300000Y-157055600D01*
X317859658Y-157807324D02*
X315788869Y-155736535D01*
%TO.N,/BATT_MON*%
X345105000Y-154495000D02*
X348295000Y-154495000D01*
X348295000Y-154495000D02*
X348400000Y-154600000D01*
X318900139Y-152625265D02*
X320169874Y-153895000D01*
X320169874Y-153895000D02*
X320505000Y-153895000D01*
X320505000Y-153895000D02*
X321105000Y-154495000D01*
X345100000Y-154500000D02*
X345105000Y-154495000D01*
X345095000Y-154495000D02*
X321105000Y-154495000D01*
X345100000Y-154500000D02*
X345095000Y-154495000D01*
%TO.N,/5V_MON*%
X349600000Y-153975961D02*
X348816027Y-153975961D01*
X319547882Y-152707324D02*
X319182981Y-152342423D01*
X348796988Y-153995000D02*
X321605000Y-153995000D01*
X321500000Y-154100000D02*
X320107324Y-152707324D01*
X348816027Y-153975961D02*
X348796988Y-153995000D01*
X320107324Y-152707324D02*
X319547882Y-152707324D01*
X321605000Y-153995000D02*
X321500000Y-154100000D01*
%TO.N,Net-(U1-VREG_AVDD)*%
X321320697Y-150225345D02*
X321897676Y-150802324D01*
X319748667Y-150225345D02*
X321320697Y-150225345D01*
%TO.N,Net-(U1-VREG_LX)*%
X319182981Y-149659659D02*
X318798959Y-150043681D01*
X318798959Y-150043681D02*
X318798959Y-150501041D01*
%TO.N,Net-(U1-USB_DM)*%
X318334453Y-148811131D02*
X319199551Y-147946033D01*
X319199551Y-147946033D02*
X319553967Y-147946033D01*
%TO.N,Net-(U1-USB_DP)*%
X318853967Y-147725932D02*
X318853967Y-147246033D01*
X318051610Y-148528289D02*
X318853967Y-147725932D01*
%TO.N,/QSPI_SD3*%
X317478230Y-147321770D02*
X323200000Y-141600000D01*
X350500000Y-141600000D02*
X359800000Y-150900000D01*
X317203082Y-147679760D02*
X317478230Y-147404612D01*
X323200000Y-141600000D02*
X350500000Y-141600000D01*
X317478230Y-147404612D02*
X317478230Y-147321770D01*
%TO.N,/QSPI_SCLK*%
X323017158Y-141300000D02*
X316920240Y-147396918D01*
X352900000Y-141300000D02*
X323017158Y-141300000D01*
X359800000Y-148200000D02*
X352900000Y-141300000D01*
%TO.N,/QSPI_SD0*%
X316637397Y-147114075D02*
X316637397Y-147062603D01*
X322800000Y-140900000D02*
X355200000Y-140900000D01*
X355200000Y-140900000D02*
X359800000Y-145500000D01*
X316637397Y-147062603D02*
X322800000Y-140900000D01*
%TO.N,/QSPI_SD2*%
X359800000Y-142800000D02*
X357500000Y-140500000D01*
X322748528Y-140500000D02*
X316675286Y-146573242D01*
X316612544Y-146573242D02*
X316354554Y-146831232D01*
X316675286Y-146573242D02*
X316612544Y-146573242D01*
X357500000Y-140500000D02*
X322748528Y-140500000D01*
%TO.N,/QSPI_SD1*%
X316071711Y-146548390D02*
X316346859Y-146273242D01*
X322724264Y-140100000D02*
X359800000Y-140100000D01*
X316346859Y-146273242D02*
X316551022Y-146273242D01*
X316551022Y-146273242D02*
X322724264Y-140100000D01*
%TO.N,/QSPI_SS*%
X318092676Y-144307324D02*
X319500000Y-142900000D01*
X341900000Y-139300000D02*
X323100000Y-139300000D01*
X344600000Y-142400000D02*
X344600000Y-145700000D01*
X323100000Y-139300000D02*
X319500000Y-142900000D01*
X366100000Y-190497500D02*
X363597500Y-193000000D01*
X317747092Y-144307324D02*
X318092676Y-144307324D01*
X315788869Y-146265547D02*
X317747092Y-144307324D01*
X344600000Y-145700000D02*
X366100000Y-167200000D01*
X363597500Y-193000000D02*
X362397500Y-193000000D01*
X366100000Y-167200000D02*
X366100000Y-190497500D01*
%TO.N,/GREEN_LED_1*%
X332475000Y-137000000D02*
X323100000Y-137000000D01*
X323100000Y-137000000D02*
X316600000Y-143500000D01*
X316600000Y-143757360D02*
X314940341Y-145417019D01*
X316600000Y-143500000D02*
X316600000Y-143757360D01*
X338900000Y-130575000D02*
X332475000Y-137000000D01*
%TO.N,/BLUE_LED_1*%
X316200000Y-143400000D02*
X316200000Y-143591674D01*
X322900000Y-136700000D02*
X316200000Y-143400000D01*
X335600000Y-130575000D02*
X335600000Y-131900000D01*
X316200000Y-143591674D02*
X314657498Y-145134176D01*
X335600000Y-131900000D02*
X330800000Y-136700000D01*
X330800000Y-136700000D02*
X322900000Y-136700000D01*
%TO.N,/GPIO3*%
X314374655Y-144851333D02*
X314374655Y-143325345D01*
X314374655Y-143325345D02*
X331300000Y-126400000D01*
%TO.N,Net-(D7-K)*%
X318887500Y-125300000D02*
X321325000Y-125300000D01*
%TO.N,Net-(D18-K)*%
X357987500Y-211900000D02*
X360987500Y-211900000D01*
%TO.N,Net-(D5-K)*%
X309900000Y-116000000D02*
X312187500Y-116000000D01*
%TO.N,Net-(D13-K)*%
D96*
X338900000Y-127600000D02*
X338900000Y-125200000D01*
%TO.N,Net-(J8-Pin_1)*%
X330585000Y-119991532D02*
X330585000Y-123145000D01*
X331790000Y-119430000D02*
X331146532Y-119430000D01*
X331146532Y-119430000D02*
X330585000Y-119991532D01*
X330585000Y-123145000D02*
X331300000Y-123860000D01*
%TO.N,Net-(D22-K)*%
D94*
X315602500Y-282992939D02*
X315185000Y-282575439D01*
X315602500Y-285500000D02*
X315602500Y-282992939D01*
%TO.N,Net-(D18-A)*%
X354912500Y-212000000D02*
X355012500Y-211900000D01*
X351350000Y-212000000D02*
X354912500Y-212000000D01*
%TO.N,Net-(JP23-B)*%
X367465000Y-146600001D02*
X363664999Y-142800000D01*
X363664999Y-142800000D02*
X361100000Y-142800000D01*
X367465000Y-147412500D02*
X367465000Y-146600001D01*
%TO.N,Net-(D4-K)*%
X301887500Y-130100000D02*
X303987500Y-130100000D01*
%TO.N,Net-(D6-K)*%
X309900000Y-120200000D02*
X312187500Y-120200000D01*
%TO.N,Net-(R11-Pad2)*%
X361202500Y-193997500D02*
X361202500Y-193000000D01*
X359800000Y-195400000D02*
X361202500Y-193997500D01*
%TO.N,Net-(JP22-B)*%
X368735000Y-146600001D02*
X362234999Y-140100000D01*
X368735000Y-147412500D02*
X368735000Y-146600001D01*
X362234999Y-140100000D02*
X361100000Y-140100000D01*
%TO.N,Net-(JP24-B)*%
X368735000Y-154587500D02*
X368735000Y-151335000D01*
X368735000Y-151335000D02*
X368300000Y-150900000D01*
X361100000Y-150900000D02*
X364500000Y-150900000D01*
%TO.N,Net-(C13-Pad2)*%
X309421455Y-159481111D02*
X309100242Y-159802324D01*
X306198959Y-158601041D02*
X307400242Y-159802324D01*
X307400242Y-159802324D02*
X309100242Y-159802324D01*
X309421455Y-158623537D02*
X309421455Y-159481111D01*
%TO.N,Net-(JP21-B)*%
X366195000Y-150595000D02*
X366195000Y-154587500D01*
X361100000Y-145500000D02*
X366195000Y-150595000D01*
%TO.N,Net-(D16-K)*%
D96*
X335600000Y-127600000D02*
X335600000Y-125200000D01*
%TO.N,Net-(D23-K)*%
D94*
X315185000Y-277575439D02*
X315185000Y-279582500D01*
X315185000Y-279582500D02*
X315602500Y-280000000D01*
%TO.N,Net-(JP20-B)*%
X366300000Y-149500000D02*
X367465000Y-150665000D01*
X367465000Y-150665000D02*
X367465000Y-154587500D01*
X361100000Y-148200000D02*
X362400000Y-149500000D01*
X362400000Y-149500000D02*
X363900000Y-149500000D01*
%TO.N,Net-(D20-K)*%
X302210000Y-277687500D02*
X302397500Y-277500000D01*
X302210000Y-280085439D02*
X302210000Y-277687500D01*
%TO.N,Net-(D21-K)*%
X302210000Y-282685000D02*
X302395000Y-282500000D01*
X302210000Y-285075439D02*
X302210000Y-282685000D01*
%TO.N,Net-(C5-Pad2)*%
X378357500Y-225787500D02*
X378432500Y-225712500D01*
X377000000Y-225787500D02*
X378357500Y-225787500D01*
%TO.N,Net-(JP4-B)*%
X269100000Y-204300000D02*
X266450000Y-201650000D01*
X266450000Y-201650000D02*
X259600000Y-201650000D01*
X269100000Y-205000000D02*
X269100000Y-204300000D01*
%TO.N,Net-(J3-Pin_4)*%
X265300000Y-191462500D02*
X265100000Y-191262500D01*
X265300000Y-194362500D02*
X265300000Y-191462500D01*
%TD*%
%TA.AperFunction,Conductor*%
%TO.N,+BATT*%
G36*
X390575592Y-220205023D02*
G01*
X390598370Y-220211711D01*
X390608896Y-220217600D01*
X390617262Y-220218980D01*
X390646554Y-220238669D01*
X390647929Y-220239911D01*
X390661758Y-220254617D01*
X390731304Y-220341824D01*
X390832584Y-220468825D01*
X391031175Y-220667416D01*
X391250752Y-220842523D01*
X391488555Y-220991945D01*
X391741592Y-221113801D01*
X391891108Y-221166119D01*
X391940668Y-221183461D01*
X391940672Y-221183462D01*
X391940680Y-221183465D01*
X391971483Y-221194243D01*
X392006666Y-221206555D01*
X392006670Y-221206556D01*
X392006682Y-221206560D01*
X392280491Y-221269055D01*
X392280495Y-221269055D01*
X392280498Y-221269055D01*
X392280505Y-221269057D01*
X392287408Y-221269834D01*
X392287409Y-221269835D01*
X392314726Y-221272912D01*
X392466547Y-221290018D01*
X392556560Y-221300160D01*
X392559034Y-221300500D01*
X392559572Y-221300500D01*
X392559575Y-221300500D01*
X392651927Y-221300500D01*
X392660759Y-221300814D01*
X392669594Y-221301446D01*
X392678351Y-221302387D01*
X392700000Y-221305500D01*
X392700003Y-221305500D01*
X394658171Y-221305500D01*
X394693106Y-221310523D01*
X394708104Y-221314927D01*
X394766855Y-221352672D01*
X394766879Y-221352700D01*
X394766882Y-221352702D01*
X394766883Y-221352704D01*
X394768042Y-221354041D01*
X394795518Y-221408902D01*
X394797163Y-221416460D01*
X394800000Y-221442831D01*
X394800000Y-231858170D01*
X394799999Y-231858176D01*
X394800000Y-231858179D01*
X394794975Y-231893114D01*
X394790570Y-231908112D01*
X394752827Y-231966855D01*
X394752792Y-231966885D01*
X394752791Y-231966887D01*
X394752789Y-231966887D01*
X394751458Y-231968042D01*
X394696597Y-231995518D01*
X394689039Y-231997163D01*
X394662668Y-232000000D01*
X372241830Y-232000000D01*
X372241825Y-231999999D01*
X372241823Y-232000000D01*
X372206889Y-231994975D01*
X372191890Y-231990570D01*
X372133144Y-231952827D01*
X372133115Y-231952793D01*
X372133114Y-231952793D01*
X372133113Y-231952791D01*
X372131957Y-231951458D01*
X372104477Y-231896583D01*
X372102832Y-231889021D01*
X372100000Y-231862668D01*
X372100000Y-220821630D01*
X372119685Y-220754591D01*
X372172489Y-220708836D01*
X372241644Y-220698892D01*
X372287603Y-220705500D01*
X376801285Y-220705500D01*
X376868324Y-220725185D01*
X376914079Y-220777989D01*
X376924023Y-220847147D01*
X376906823Y-220894598D01*
X376815190Y-221043155D01*
X376815184Y-221043167D01*
X376762415Y-221202415D01*
X376760174Y-221207995D01*
X376749500Y-221312474D01*
X376749500Y-222412524D01*
X376759999Y-222515296D01*
X376761639Y-222520939D01*
X376762807Y-222523765D01*
X376779257Y-222573407D01*
X376779257Y-222573408D01*
X376815183Y-222681828D01*
X376815184Y-222681830D01*
X376815190Y-222681843D01*
X376866803Y-222765518D01*
X376907286Y-222831151D01*
X376907289Y-222831155D01*
X376907291Y-222831157D01*
X376907293Y-222831160D01*
X377031338Y-222955205D01*
X377031341Y-222955207D01*
X377031344Y-222955210D01*
X377031348Y-222955213D01*
X377180662Y-223047312D01*
X377180664Y-223047313D01*
X377180666Y-223047314D01*
X377347203Y-223102499D01*
X377449992Y-223113000D01*
X378699172Y-223113000D01*
X378712014Y-223116063D01*
X378721695Y-223115063D01*
X378734099Y-223118021D01*
X378744952Y-223121207D01*
X378751663Y-223125519D01*
X378755137Y-223126348D01*
X378764932Y-223131302D01*
X378774191Y-223139995D01*
X378803733Y-223158977D01*
X378810731Y-223174298D01*
X378815871Y-223179124D01*
X378819446Y-223193378D01*
X378832762Y-223222531D01*
X378830575Y-223237748D01*
X378832869Y-223246894D01*
X378826584Y-223265518D01*
X378822823Y-223291690D01*
X378822820Y-223291695D01*
X378822172Y-223293114D01*
X378813316Y-223304836D01*
X378810529Y-223313096D01*
X378801819Y-223320055D01*
X378789752Y-223336029D01*
X378789342Y-223336378D01*
X378774066Y-223347491D01*
X378732510Y-223373124D01*
X378701648Y-223392160D01*
X378579658Y-223514151D01*
X378489094Y-223660977D01*
X378489058Y-223661088D01*
X378445877Y-223791395D01*
X378445871Y-223791414D01*
X378434826Y-223824747D01*
X378434826Y-223824748D01*
X378434825Y-223824748D01*
X378434055Y-223832279D01*
X378434054Y-223832285D01*
X378424500Y-223925805D01*
X378424500Y-224499166D01*
X378424503Y-224499213D01*
X378434825Y-224600252D01*
X378434828Y-224600260D01*
X378434895Y-224600463D01*
X378475192Y-224722072D01*
X378481412Y-224756805D01*
X378481890Y-224770676D01*
X378477458Y-224787949D01*
X378477594Y-224791901D01*
X378475573Y-224795296D01*
X378464526Y-224838354D01*
X378413331Y-224885899D01*
X378407213Y-224888952D01*
X378351846Y-224902000D01*
X378153795Y-224902000D01*
X378116649Y-224904922D01*
X378116645Y-224904922D01*
X378116645Y-224904923D01*
X378093993Y-224911504D01*
X377957598Y-224951130D01*
X377890610Y-224990747D01*
X377890608Y-224990747D01*
X377890607Y-224990749D01*
X377865242Y-225001212D01*
X377857979Y-225004208D01*
X377842826Y-225008052D01*
X377773016Y-225005460D01*
X377767758Y-225003702D01*
X377764865Y-225002734D01*
X377716505Y-224972815D01*
X377698352Y-224954662D01*
X377698351Y-224954661D01*
X377698350Y-224954660D01*
X377607129Y-224898395D01*
X377586870Y-224885899D01*
X377551519Y-224864093D01*
X377551513Y-224864091D01*
X377550069Y-224863612D01*
X377550053Y-224863606D01*
X377396221Y-224812632D01*
X377393401Y-224811466D01*
X377387748Y-224809824D01*
X377286687Y-224799500D01*
X377286678Y-224799500D01*
X376713330Y-224799500D01*
X376713312Y-224799501D01*
X376713290Y-224799503D01*
X376713280Y-224799504D01*
X376612250Y-224809824D01*
X376448477Y-224864094D01*
X376301651Y-224954658D01*
X376301647Y-224954661D01*
X376179661Y-225076647D01*
X376179658Y-225076651D01*
X376089094Y-225223477D01*
X376089058Y-225223588D01*
X376045877Y-225353895D01*
X376045871Y-225353914D01*
X376034826Y-225387247D01*
X376034826Y-225387248D01*
X376034825Y-225387248D01*
X376034055Y-225394779D01*
X376034054Y-225394785D01*
X376024500Y-225488305D01*
X376024500Y-225488315D01*
X376024500Y-226086669D01*
X376024501Y-226086687D01*
X376024503Y-226086711D01*
X376024504Y-226086718D01*
X376034824Y-226187752D01*
X376071108Y-226297248D01*
X376089090Y-226351513D01*
X376089092Y-226351516D01*
X376164561Y-226473871D01*
X376179661Y-226498351D01*
X376179663Y-226498354D01*
X376281017Y-226599708D01*
X376281020Y-226599710D01*
X376302171Y-226627964D01*
X376309663Y-226641684D01*
X376324517Y-226709948D01*
X376324388Y-226711754D01*
X376305020Y-226769956D01*
X376300841Y-226776459D01*
X376284205Y-226797103D01*
X376179663Y-226901644D01*
X376089090Y-227048485D01*
X376089082Y-227048508D01*
X376078558Y-227080268D01*
X376078558Y-227080273D01*
X376045124Y-227181167D01*
X376036677Y-227194112D01*
X376035190Y-227208673D01*
X376034367Y-227214919D01*
X376034184Y-227218521D01*
X376024500Y-227313305D01*
X376024500Y-227313315D01*
X376024500Y-227911669D01*
X376024501Y-227911687D01*
X376024503Y-227911711D01*
X376024504Y-227911718D01*
X376034824Y-228012752D01*
X376071108Y-228122248D01*
X376089090Y-228176513D01*
X376089092Y-228176516D01*
X376179660Y-228323350D01*
X376301650Y-228445340D01*
X376448484Y-228535908D01*
X376612247Y-228590174D01*
X376713323Y-228600500D01*
X377286676Y-228600499D01*
X377286684Y-228600498D01*
X377286687Y-228600498D01*
X377286695Y-228600497D01*
X377286985Y-228600479D01*
X377288001Y-228600363D01*
X377332342Y-228595833D01*
X377342031Y-228594844D01*
X377342031Y-228594843D01*
X377387753Y-228590174D01*
X377551516Y-228535908D01*
X377698350Y-228445340D01*
X377820340Y-228323350D01*
X377910908Y-228176516D01*
X377965174Y-228012753D01*
X377975500Y-227911677D01*
X377975499Y-227760289D01*
X377977541Y-227750596D01*
X377976543Y-227744235D01*
X377980516Y-227725374D01*
X377983744Y-227714382D01*
X377985871Y-227711071D01*
X377986046Y-227710244D01*
X377990630Y-227699852D01*
X378000896Y-227687688D01*
X378021512Y-227655606D01*
X378032032Y-227650800D01*
X378035697Y-227646459D01*
X378053597Y-227640950D01*
X378085065Y-227626576D01*
X378095731Y-227627982D01*
X378102476Y-227625907D01*
X378122545Y-227631518D01*
X378151587Y-227635348D01*
X378152949Y-227635932D01*
X378160423Y-227642109D01*
X378169765Y-227644721D01*
X378186916Y-227664004D01*
X378206806Y-227680442D01*
X378209614Y-227684788D01*
X378279659Y-227798349D01*
X378279661Y-227798351D01*
X378285889Y-227804579D01*
X378291662Y-227813548D01*
X378297368Y-227817807D01*
X378309349Y-227841025D01*
X378314327Y-227848759D01*
X378315410Y-227851651D01*
X378315838Y-227852992D01*
X378316076Y-227853428D01*
X378317433Y-227857050D01*
X378317522Y-227858274D01*
X378317636Y-227858631D01*
X378317550Y-227858658D01*
X378319777Y-227889178D01*
X378323589Y-227921162D01*
X378323584Y-227921195D01*
X378323260Y-227923114D01*
X378322413Y-227925301D01*
X378322518Y-227926734D01*
X378320237Y-227930925D01*
X378305308Y-227969506D01*
X378300838Y-227976462D01*
X378284201Y-227997107D01*
X378279663Y-228001645D01*
X378279661Y-228001646D01*
X378189094Y-228148477D01*
X378189093Y-228148481D01*
X378189092Y-228148484D01*
X378173520Y-228195475D01*
X378145877Y-228278895D01*
X378145871Y-228278914D01*
X378134826Y-228312247D01*
X378134826Y-228312248D01*
X378134825Y-228312248D01*
X378134055Y-228319779D01*
X378134054Y-228319785D01*
X378124500Y-228413305D01*
X378124500Y-228413312D01*
X378124500Y-228413315D01*
X378124500Y-229111669D01*
X378124501Y-229111687D01*
X378124503Y-229111711D01*
X378124504Y-229111718D01*
X378134824Y-229212748D01*
X378134824Y-229212749D01*
X378134825Y-229212752D01*
X378157949Y-229282533D01*
X378189092Y-229376516D01*
X378279660Y-229523350D01*
X378401650Y-229645340D01*
X378548484Y-229735908D01*
X378712247Y-229790174D01*
X378813323Y-229800500D01*
X379386676Y-229800499D01*
X379386684Y-229800498D01*
X379386687Y-229800498D01*
X379386695Y-229800497D01*
X379386985Y-229800479D01*
X379388001Y-229800363D01*
X379432342Y-229795833D01*
X379442031Y-229794844D01*
X379442031Y-229794843D01*
X379487753Y-229790174D01*
X379651516Y-229735908D01*
X379798350Y-229645340D01*
X379920340Y-229523350D01*
X380010908Y-229376516D01*
X380065174Y-229212753D01*
X380075500Y-229111677D01*
X380075499Y-228413324D01*
X380065174Y-228312247D01*
X380010908Y-228148484D01*
X379920340Y-228001650D01*
X379918978Y-228000288D01*
X379897826Y-227972032D01*
X379890334Y-227958311D01*
X379888222Y-227948603D01*
X379875482Y-227890049D01*
X379875791Y-227885733D01*
X379900203Y-227820271D01*
X379911789Y-227806900D01*
X379920340Y-227798350D01*
X379981183Y-227699704D01*
X379983545Y-227696998D01*
X379984147Y-227695127D01*
X380007928Y-227669055D01*
X380016898Y-227661675D01*
X380081170Y-227634281D01*
X380145111Y-227643707D01*
X380151041Y-227646284D01*
X380151170Y-227646340D01*
X380191699Y-227674721D01*
X380202867Y-227686494D01*
X380210717Y-227688946D01*
X380216204Y-227692826D01*
X380307664Y-227761293D01*
X380307671Y-227761297D01*
X380331142Y-227770051D01*
X380442517Y-227811591D01*
X380502127Y-227818000D01*
X380932075Y-227817999D01*
X380959150Y-227821892D01*
X380967009Y-227823022D01*
X380991864Y-227830320D01*
X380992246Y-227830432D01*
X381044993Y-227861728D01*
X382146585Y-228963320D01*
X382146606Y-228963342D01*
X382147649Y-228964385D01*
X382151979Y-228968715D01*
X382151980Y-228968716D01*
X382263784Y-229080520D01*
X382267792Y-229082834D01*
X382320042Y-229113000D01*
X382320041Y-229113000D01*
X382320044Y-229113001D01*
X382386575Y-229151413D01*
X382393105Y-229156424D01*
X382398864Y-229158810D01*
X382398865Y-229158811D01*
X382408213Y-229162683D01*
X382408227Y-229162688D01*
X382408319Y-229162726D01*
X382416474Y-229163799D01*
X382553443Y-229200501D01*
X382553446Y-229200501D01*
X382624561Y-229200501D01*
X382659496Y-229205524D01*
X382681268Y-229211917D01*
X382740046Y-229249692D01*
X382751870Y-229265796D01*
X382779659Y-229310849D01*
X382883410Y-229414600D01*
X382886511Y-229419049D01*
X382889125Y-229420714D01*
X382907767Y-229449535D01*
X382908322Y-229450331D01*
X382908455Y-229450619D01*
X382912353Y-229459110D01*
X382912479Y-229459341D01*
X382913462Y-229461471D01*
X382918136Y-229493109D01*
X382923552Y-229522931D01*
X382924477Y-229522998D01*
X382924384Y-229524294D01*
X382924006Y-229525429D01*
X382924186Y-229526420D01*
X382924112Y-229527122D01*
X382923465Y-229527053D01*
X382923248Y-229527703D01*
X382923675Y-229530590D01*
X382918405Y-229542247D01*
X382905016Y-229582461D01*
X382900834Y-229588968D01*
X382884201Y-229609607D01*
X382779662Y-229714145D01*
X382779660Y-229714148D01*
X382689094Y-229860977D01*
X382689058Y-229861088D01*
X382645877Y-229991395D01*
X382645871Y-229991414D01*
X382634826Y-230024747D01*
X382634826Y-230024748D01*
X382634825Y-230024748D01*
X382634055Y-230032279D01*
X382634054Y-230032285D01*
X382624500Y-230125805D01*
X382624500Y-230125812D01*
X382624500Y-230125815D01*
X382624500Y-230724169D01*
X382624501Y-230724187D01*
X382624503Y-230724211D01*
X382624504Y-230724218D01*
X382634824Y-230825252D01*
X382671108Y-230934748D01*
X382689090Y-230989013D01*
X382689092Y-230989016D01*
X382779660Y-231135850D01*
X382901650Y-231257840D01*
X383048484Y-231348408D01*
X383212247Y-231402674D01*
X383313323Y-231413000D01*
X383886676Y-231412999D01*
X383886684Y-231412998D01*
X383886687Y-231412998D01*
X383886695Y-231412997D01*
X383886985Y-231412979D01*
X383888001Y-231412863D01*
X383932342Y-231408333D01*
X383942031Y-231407344D01*
X383942031Y-231407343D01*
X383987753Y-231402674D01*
X384151516Y-231348408D01*
X384298350Y-231257840D01*
X384349715Y-231206474D01*
X384377964Y-231185327D01*
X384391688Y-231177833D01*
X384459946Y-231162982D01*
X384461756Y-231163111D01*
X384519953Y-231182477D01*
X384526471Y-231186666D01*
X384547106Y-231203296D01*
X384601650Y-231257840D01*
X384748484Y-231348408D01*
X384912247Y-231402674D01*
X385013323Y-231413000D01*
X385586676Y-231412999D01*
X385586684Y-231412998D01*
X385586687Y-231412998D01*
X385586695Y-231412997D01*
X385586985Y-231412979D01*
X385588001Y-231412863D01*
X385632342Y-231408333D01*
X385642031Y-231407344D01*
X385642031Y-231407343D01*
X385687753Y-231402674D01*
X385851516Y-231348408D01*
X385998350Y-231257840D01*
X386120340Y-231135850D01*
X386210908Y-230989016D01*
X386265174Y-230825253D01*
X386275500Y-230724177D01*
X386275499Y-230125824D01*
X386265174Y-230024747D01*
X386210908Y-229860984D01*
X386120340Y-229714150D01*
X386018980Y-229612790D01*
X386005134Y-229596301D01*
X385999694Y-229588543D01*
X385998682Y-229585551D01*
X385997827Y-229584532D01*
X385995643Y-229580532D01*
X385996527Y-229580048D01*
X385988058Y-229565775D01*
X385987389Y-229566081D01*
X385986127Y-229563318D01*
X385985975Y-229562263D01*
X385985041Y-229560689D01*
X385984001Y-229557901D01*
X385985279Y-229557424D01*
X385983160Y-229542693D01*
X385978295Y-229533790D01*
X385978798Y-229526719D01*
X385977322Y-229522352D01*
X385979171Y-229514961D01*
X385977027Y-229500054D01*
X385975667Y-229499957D01*
X385975767Y-229498557D01*
X385976521Y-229496533D01*
X385976180Y-229494160D01*
X385976184Y-229494132D01*
X385976617Y-229491124D01*
X385978439Y-229491386D01*
X385981991Y-229481857D01*
X385983256Y-229464097D01*
X386000160Y-229433115D01*
X386001033Y-229431948D01*
X386012637Y-229418551D01*
X386105348Y-229325840D01*
X386133603Y-229304690D01*
X386148940Y-229296316D01*
X386213804Y-229281270D01*
X386226440Y-229281825D01*
X386257883Y-229287319D01*
X386385067Y-229326952D01*
X386451619Y-229333000D01*
X386953380Y-229332999D01*
X386953388Y-229332999D01*
X387014813Y-229327417D01*
X387015202Y-229327385D01*
X387015348Y-229327414D01*
X387018069Y-229327291D01*
X387021808Y-229326837D01*
X387027959Y-229324450D01*
X387173069Y-229279233D01*
X387220600Y-229250498D01*
X387253083Y-229236729D01*
X387258288Y-229235355D01*
X387328128Y-229237275D01*
X387358273Y-229257840D01*
X387481100Y-229296112D01*
X387481103Y-229296113D01*
X387489658Y-229298778D01*
X387580067Y-229326952D01*
X387646619Y-229333000D01*
X388148380Y-229332999D01*
X388148388Y-229332999D01*
X388209813Y-229327417D01*
X388210202Y-229327385D01*
X388210348Y-229327414D01*
X388213069Y-229327291D01*
X388216808Y-229326837D01*
X388222959Y-229324450D01*
X388368069Y-229279233D01*
X388427819Y-229243112D01*
X388438714Y-229236526D01*
X388438716Y-229236525D01*
X388478042Y-229212752D01*
X388496659Y-229201497D01*
X388499602Y-229200032D01*
X388503284Y-229197604D01*
X388505367Y-229196287D01*
X388507016Y-229194571D01*
X388618753Y-229082835D01*
X388618791Y-229082772D01*
X388620163Y-229080505D01*
X388655050Y-229022791D01*
X388701732Y-228945570D01*
X388701733Y-228945569D01*
X388749452Y-228792433D01*
X388755500Y-228725881D01*
X388755499Y-228299120D01*
X388755499Y-228299111D01*
X388749921Y-228237732D01*
X388749885Y-228237293D01*
X388749914Y-228237146D01*
X388749791Y-228234420D01*
X388749639Y-228233169D01*
X388749452Y-228232568D01*
X388749452Y-228232567D01*
X388715076Y-228122249D01*
X388701734Y-228079433D01*
X388701732Y-228079429D01*
X388665657Y-228019752D01*
X388665652Y-228019746D01*
X388661425Y-228012753D01*
X388618757Y-227942170D01*
X388618753Y-227942165D01*
X388542098Y-227865510D01*
X388537830Y-227860182D01*
X388536013Y-227855760D01*
X388525773Y-227842080D01*
X388524460Y-227839676D01*
X388514113Y-227820725D01*
X388513167Y-227818992D01*
X388498001Y-227759569D01*
X388498001Y-227615945D01*
X388498001Y-227615943D01*
X388457077Y-227463215D01*
X388457076Y-227463214D01*
X388457076Y-227463212D01*
X388457075Y-227463211D01*
X388456370Y-227460579D01*
X388453968Y-227455708D01*
X388453926Y-227455608D01*
X388448912Y-227449073D01*
X388418662Y-227396678D01*
X388379876Y-227329498D01*
X388378020Y-227326284D01*
X388260863Y-227209127D01*
X388260820Y-227209085D01*
X386999425Y-225947690D01*
X386999420Y-225947685D01*
X386978273Y-225919434D01*
X386965666Y-225896345D01*
X386950499Y-225836920D01*
X386950499Y-225399622D01*
X386950339Y-225397697D01*
X386950113Y-225396043D01*
X386944091Y-225340016D01*
X386893797Y-225205171D01*
X386893793Y-225205164D01*
X386807547Y-225089955D01*
X386807544Y-225089952D01*
X386807542Y-225089950D01*
X386698140Y-225008052D01*
X386692335Y-225003706D01*
X386692332Y-225003704D01*
X386692330Y-225003703D01*
X386692328Y-225003702D01*
X386557482Y-224953408D01*
X386557483Y-224953408D01*
X386497883Y-224947001D01*
X386497881Y-224947000D01*
X386497873Y-224947000D01*
X386497864Y-224947000D01*
X386496841Y-224947000D01*
X385402120Y-224947000D01*
X385399098Y-224947167D01*
X385370231Y-224945384D01*
X385355820Y-224942783D01*
X385293343Y-224911504D01*
X385258261Y-224853552D01*
X385254915Y-224841352D01*
X385250499Y-224808555D01*
X385250499Y-224147572D01*
X385255520Y-224112642D01*
X385259638Y-224098618D01*
X385268690Y-224084531D01*
X385273120Y-224068385D01*
X385287184Y-224055751D01*
X385297408Y-224039842D01*
X385313022Y-224032541D01*
X385325098Y-224021695D01*
X385358778Y-224011149D01*
X385371265Y-224009125D01*
X385398780Y-224008389D01*
X385398811Y-224007822D01*
X385402107Y-224007997D01*
X385402127Y-224008000D01*
X386497872Y-224007999D01*
X386557483Y-224001591D01*
X386692331Y-223951296D01*
X386807546Y-223865046D01*
X386893796Y-223749831D01*
X386944091Y-223614983D01*
X386950500Y-223555373D01*
X386950499Y-223091281D01*
X388399500Y-223091281D01*
X388399500Y-223091284D01*
X388399500Y-223091289D01*
X388399500Y-223533690D01*
X388399501Y-223533715D01*
X388399502Y-223533724D01*
X388402422Y-223570849D01*
X388402422Y-223570851D01*
X388402423Y-223570854D01*
X388448630Y-223729900D01*
X388532934Y-223872450D01*
X388532941Y-223872459D01*
X388611775Y-223951293D01*
X388650044Y-223989562D01*
X388650046Y-223989563D01*
X388792600Y-224073870D01*
X388834541Y-224086055D01*
X388926053Y-224112642D01*
X388940843Y-224116939D01*
X388942039Y-224117407D01*
X388950895Y-224119868D01*
X388951616Y-224120073D01*
X388951635Y-224120074D01*
X388951637Y-224120075D01*
X388951640Y-224120075D01*
X388951642Y-224120076D01*
X388988797Y-224123000D01*
X389546202Y-224122999D01*
X389583358Y-224120076D01*
X389742400Y-224073870D01*
X389884954Y-223989563D01*
X390002063Y-223872454D01*
X390086370Y-223729900D01*
X390132576Y-223570858D01*
X390135500Y-223533703D01*
X390135499Y-223091298D01*
X390132576Y-223054142D01*
X390086370Y-222895100D01*
X390002063Y-222752546D01*
X390002062Y-222752545D01*
X390002061Y-222752543D01*
X389948983Y-222699465D01*
X389884959Y-222635441D01*
X389884950Y-222635434D01*
X389878849Y-222631826D01*
X389742400Y-222551130D01*
X389742398Y-222551129D01*
X389742367Y-222551119D01*
X389583380Y-222504928D01*
X389583366Y-222504925D01*
X389583362Y-222504924D01*
X389583356Y-222504923D01*
X389583354Y-222504922D01*
X389583350Y-222504922D01*
X389546211Y-222502000D01*
X389546203Y-222502000D01*
X388988809Y-222502000D01*
X388988784Y-222502001D01*
X388979963Y-222502694D01*
X388951649Y-222504922D01*
X388951645Y-222504922D01*
X388951645Y-222504923D01*
X388896517Y-222520939D01*
X388792598Y-222551130D01*
X388650051Y-222635432D01*
X388650039Y-222635441D01*
X388532941Y-222752539D01*
X388532932Y-222752551D01*
X388448630Y-222895098D01*
X388448629Y-222895100D01*
X388448619Y-222895131D01*
X388402428Y-223054118D01*
X388402425Y-223054133D01*
X388402423Y-223054144D01*
X388399500Y-223091281D01*
X386950499Y-223091281D01*
X386950499Y-222859628D01*
X386944091Y-222800017D01*
X386944091Y-222800016D01*
X386944089Y-222800010D01*
X386926401Y-222752588D01*
X386926396Y-222752575D01*
X386926385Y-222752546D01*
X386893797Y-222665171D01*
X386893793Y-222665164D01*
X386808425Y-222551128D01*
X386807548Y-222549956D01*
X386807542Y-222549950D01*
X386747392Y-222504922D01*
X386692335Y-222463706D01*
X386692332Y-222463704D01*
X386692330Y-222463703D01*
X386692328Y-222463702D01*
X386557482Y-222413408D01*
X386557483Y-222413408D01*
X386497883Y-222407001D01*
X386497881Y-222407000D01*
X386497873Y-222407000D01*
X386497865Y-222407000D01*
X386496841Y-222407000D01*
X386067927Y-222407000D01*
X386032991Y-222401977D01*
X386007749Y-222394565D01*
X385955004Y-222363269D01*
X385413570Y-221821835D01*
X385413565Y-221821830D01*
X385392419Y-221793583D01*
X385385764Y-221781395D01*
X385370913Y-221713125D01*
X385395327Y-221647664D01*
X385397458Y-221644818D01*
X385439279Y-221609249D01*
X385440736Y-221608488D01*
X385459150Y-221600687D01*
X385469334Y-221597314D01*
X385618656Y-221505212D01*
X385742712Y-221381156D01*
X385834814Y-221231834D01*
X385889999Y-221065297D01*
X385900500Y-220962509D01*
X385900500Y-220829500D01*
X385920185Y-220762461D01*
X385972989Y-220716706D01*
X386024500Y-220705500D01*
X386575501Y-220705500D01*
X386642540Y-220725185D01*
X386688295Y-220777989D01*
X386699501Y-220829500D01*
X386699501Y-220962526D01*
X386702507Y-220991946D01*
X386710000Y-221065296D01*
X386710001Y-221065299D01*
X386756810Y-221206556D01*
X386757287Y-221207995D01*
X386765185Y-221231833D01*
X386765186Y-221231834D01*
X386857288Y-221381156D01*
X386981344Y-221505212D01*
X387130666Y-221597314D01*
X387297203Y-221652499D01*
X387399991Y-221663000D01*
X389500008Y-221662999D01*
X389602797Y-221652499D01*
X389769334Y-221597314D01*
X389918656Y-221505212D01*
X390042712Y-221381156D01*
X390134814Y-221231834D01*
X390189999Y-221065297D01*
X390200500Y-220962509D01*
X390200500Y-220341824D01*
X390202369Y-220320375D01*
X390204006Y-220311054D01*
X390205405Y-220308224D01*
X390205522Y-220306893D01*
X390206805Y-220302523D01*
X390207776Y-220302808D01*
X390211879Y-220286735D01*
X390211187Y-220286477D01*
X390212248Y-220283631D01*
X390212891Y-220282771D01*
X390213349Y-220280978D01*
X390214587Y-220278268D01*
X390215834Y-220278838D01*
X390224777Y-220266888D01*
X390227657Y-220257103D01*
X390232976Y-220252498D01*
X390234990Y-220248430D01*
X390241520Y-220244514D01*
X390250520Y-220232487D01*
X390249623Y-220231452D01*
X390250679Y-220230536D01*
X390252658Y-220229630D01*
X390254110Y-220227691D01*
X390254147Y-220227664D01*
X390256586Y-220225839D01*
X390257698Y-220227325D01*
X390266954Y-220223092D01*
X390280488Y-220211380D01*
X390314093Y-220201534D01*
X390314216Y-220201478D01*
X390315800Y-220201250D01*
X390333370Y-220200000D01*
X390540658Y-220200000D01*
X390575592Y-220205023D01*
G37*
%TD.AperFunction*%
%TD*%
%TA.AperFunction,Conductor*%
%TO.N,/SPC*%
G36*
X232143039Y-167719685D02*
G01*
X232188794Y-167772489D01*
X232200000Y-167824000D01*
X232200000Y-169375500D01*
X232180315Y-169442539D01*
X232127511Y-169488294D01*
X232076000Y-169499500D01*
X229772129Y-169499500D01*
X229772123Y-169499501D01*
X229712516Y-169505908D01*
X229577671Y-169556202D01*
X229577664Y-169556206D01*
X229462455Y-169642452D01*
X229462452Y-169642455D01*
X229376206Y-169757664D01*
X229376202Y-169757671D01*
X229325908Y-169892517D01*
X229319501Y-169952116D01*
X229319500Y-169952135D01*
X229319500Y-170847870D01*
X229319501Y-170847876D01*
X229325908Y-170907483D01*
X229376202Y-171042328D01*
X229376206Y-171042335D01*
X229462452Y-171157544D01*
X229462455Y-171157547D01*
X229577664Y-171243793D01*
X229577671Y-171243797D01*
X229712517Y-171294091D01*
X229712516Y-171294091D01*
X229719444Y-171294835D01*
X229772127Y-171300500D01*
X232076000Y-171300499D01*
X232143039Y-171320184D01*
X232188794Y-171372987D01*
X232200000Y-171424499D01*
X232200000Y-179076000D01*
X232180315Y-179143039D01*
X232127511Y-179188794D01*
X232076000Y-179200000D01*
X228424000Y-179200000D01*
X228356961Y-179180315D01*
X228311206Y-179127511D01*
X228300000Y-179076000D01*
X228300000Y-167824000D01*
X228319685Y-167756961D01*
X228372489Y-167711206D01*
X228424000Y-167700000D01*
X232076000Y-167700000D01*
X232143039Y-167719685D01*
G37*
%TD.AperFunction*%
%TD*%
%TA.AperFunction,Conductor*%
%TO.N,/ENC_LED_OUT*%
G36*
X320043039Y-272019685D02*
G01*
X320088794Y-272072489D01*
X320100000Y-272124000D01*
X320100000Y-275075500D01*
X320080315Y-275142539D01*
X320027511Y-275188294D01*
X319976000Y-275199500D01*
X316520892Y-275199500D01*
X316453853Y-275179815D01*
X316408098Y-275127011D01*
X316398154Y-275057853D01*
X316402506Y-275038610D01*
X316404233Y-275033069D01*
X316451952Y-274879933D01*
X316458000Y-274813381D01*
X316457999Y-274386620D01*
X316457999Y-274386611D01*
X316451953Y-274320073D01*
X316451952Y-274320070D01*
X316451952Y-274320067D01*
X316404233Y-274166931D01*
X316404232Y-274166929D01*
X316321257Y-274029670D01*
X316321253Y-274029665D01*
X316207834Y-273916246D01*
X316207829Y-273916242D01*
X316070570Y-273833267D01*
X316070566Y-273833265D01*
X315917433Y-273785548D01*
X315917435Y-273785548D01*
X315890812Y-273783128D01*
X315850881Y-273779500D01*
X315850878Y-273779500D01*
X315680097Y-273779500D01*
X315613058Y-273759815D01*
X315592416Y-273743181D01*
X315279836Y-273430601D01*
X315279834Y-273430598D01*
X315160963Y-273311727D01*
X315160962Y-273311726D01*
X315074150Y-273261606D01*
X315074150Y-273261605D01*
X315074146Y-273261604D01*
X315024031Y-273232669D01*
X314871303Y-273191745D01*
X314713189Y-273191745D01*
X314705593Y-273191745D01*
X314705577Y-273191746D01*
X303579862Y-273191746D01*
X303579846Y-273191745D01*
X303572250Y-273191745D01*
X303414136Y-273191745D01*
X303306780Y-273220511D01*
X303261403Y-273232670D01*
X303261402Y-273232671D01*
X303211289Y-273261605D01*
X303211288Y-273261606D01*
X303167882Y-273286666D01*
X303124478Y-273311725D01*
X303124475Y-273311727D01*
X302772583Y-273663620D01*
X302711260Y-273697105D01*
X302684902Y-273699939D01*
X301697484Y-273699939D01*
X301594704Y-273710439D01*
X301594703Y-273710440D01*
X301428164Y-273765625D01*
X301428162Y-273765626D01*
X301278848Y-273857725D01*
X301278844Y-273857728D01*
X301154789Y-273981783D01*
X301154786Y-273981787D01*
X301062687Y-274131101D01*
X301062686Y-274131103D01*
X301007501Y-274297642D01*
X301007500Y-274297643D01*
X300997000Y-274400423D01*
X300997000Y-275750454D01*
X301007500Y-275853234D01*
X301007501Y-275853235D01*
X301062686Y-276019774D01*
X301062687Y-276019776D01*
X301154786Y-276169090D01*
X301154789Y-276169094D01*
X301278844Y-276293149D01*
X301278848Y-276293152D01*
X301428162Y-276385251D01*
X301428164Y-276385252D01*
X301428166Y-276385253D01*
X301594703Y-276440438D01*
X301697492Y-276450939D01*
X301697497Y-276450939D01*
X302018222Y-276450939D01*
X302085261Y-276470624D01*
X302131016Y-276523428D01*
X302140960Y-276592586D01*
X302111935Y-276656142D01*
X302055112Y-276693324D01*
X301926933Y-276733265D01*
X301926929Y-276733267D01*
X301789670Y-276816242D01*
X301789665Y-276816246D01*
X301676246Y-276929665D01*
X301676242Y-276929670D01*
X301593267Y-277066929D01*
X301593265Y-277066933D01*
X301545548Y-277220065D01*
X301539500Y-277286621D01*
X301539500Y-277713388D01*
X301545546Y-277779925D01*
X301545547Y-277779930D01*
X301545548Y-277779933D01*
X301553655Y-277805949D01*
X301593268Y-277933074D01*
X301596345Y-277939909D01*
X301594511Y-277940734D01*
X301609500Y-277994489D01*
X301609500Y-278625995D01*
X301589815Y-278693034D01*
X301537011Y-278738789D01*
X301524505Y-278743701D01*
X301428162Y-278775626D01*
X301278848Y-278867725D01*
X301278844Y-278867728D01*
X301154789Y-278991783D01*
X301154786Y-278991787D01*
X301062687Y-279141101D01*
X301062686Y-279141103D01*
X301007501Y-279307642D01*
X301007500Y-279307643D01*
X300997000Y-279410423D01*
X300997000Y-280760454D01*
X301007500Y-280863234D01*
X301007501Y-280863236D01*
X301023712Y-280912158D01*
X301062686Y-281029774D01*
X301062687Y-281029776D01*
X301154786Y-281179090D01*
X301154789Y-281179094D01*
X301278844Y-281303149D01*
X301278848Y-281303152D01*
X301428162Y-281395251D01*
X301428164Y-281395252D01*
X301428166Y-281395253D01*
X301594703Y-281450438D01*
X301697492Y-281460939D01*
X301697497Y-281460939D01*
X301983631Y-281460939D01*
X302050670Y-281480624D01*
X302096425Y-281533428D01*
X302106369Y-281602586D01*
X302077344Y-281666142D01*
X302020521Y-281703324D01*
X301924433Y-281733265D01*
X301924429Y-281733267D01*
X301787170Y-281816242D01*
X301787165Y-281816246D01*
X301673746Y-281929665D01*
X301673742Y-281929670D01*
X301590767Y-282066929D01*
X301590765Y-282066933D01*
X301543048Y-282220065D01*
X301537000Y-282286621D01*
X301537000Y-282713388D01*
X301543046Y-282779926D01*
X301543048Y-282779933D01*
X301573514Y-282877704D01*
X301590767Y-282933069D01*
X301591616Y-282934474D01*
X301591970Y-282935742D01*
X301593845Y-282939908D01*
X301593210Y-282940193D01*
X301609500Y-282998624D01*
X301609500Y-283615995D01*
X301589815Y-283683034D01*
X301537011Y-283728789D01*
X301524505Y-283733701D01*
X301428162Y-283765626D01*
X301278848Y-283857725D01*
X301278844Y-283857728D01*
X301154789Y-283981783D01*
X301154786Y-283981787D01*
X301062687Y-284131101D01*
X301062686Y-284131103D01*
X301007501Y-284297642D01*
X301007500Y-284297643D01*
X300997000Y-284400423D01*
X300997000Y-285750454D01*
X301007500Y-285853234D01*
X301007501Y-285853235D01*
X301062686Y-286019774D01*
X301062687Y-286019776D01*
X301154786Y-286169090D01*
X301154789Y-286169094D01*
X301278844Y-286293149D01*
X301278848Y-286293152D01*
X301428162Y-286385251D01*
X301428164Y-286385252D01*
X301428166Y-286385253D01*
X301594703Y-286440438D01*
X301697492Y-286450939D01*
X301697497Y-286450939D01*
X302722503Y-286450939D01*
X302722508Y-286450939D01*
X302825297Y-286440438D01*
X302991834Y-286385253D01*
X303141155Y-286293150D01*
X303265211Y-286169094D01*
X303357314Y-286019773D01*
X303412499Y-285853236D01*
X303423000Y-285750447D01*
X303423000Y-284400431D01*
X303422999Y-284400423D01*
X303972000Y-284400423D01*
X303972000Y-285750454D01*
X303982500Y-285853234D01*
X303982501Y-285853235D01*
X304037686Y-286019774D01*
X304037687Y-286019776D01*
X304129786Y-286169090D01*
X304129789Y-286169094D01*
X304253844Y-286293149D01*
X304253848Y-286293152D01*
X304403162Y-286385251D01*
X304403164Y-286385252D01*
X304403166Y-286385253D01*
X304569703Y-286440438D01*
X304672492Y-286450939D01*
X304672497Y-286450939D01*
X305697503Y-286450939D01*
X305697508Y-286450939D01*
X305800297Y-286440438D01*
X305966834Y-286385253D01*
X306116155Y-286293150D01*
X306240211Y-286169094D01*
X306332314Y-286019773D01*
X306387499Y-285853236D01*
X306398000Y-285750447D01*
X306398000Y-284400431D01*
X306387499Y-284297642D01*
X306332314Y-284131105D01*
X306326908Y-284122341D01*
X306240213Y-283981787D01*
X306240210Y-283981783D01*
X306116155Y-283857728D01*
X306116151Y-283857725D01*
X305966837Y-283765626D01*
X305966835Y-283765625D01*
X305870494Y-283733701D01*
X305800297Y-283710440D01*
X305800295Y-283710439D01*
X305697515Y-283699939D01*
X305697508Y-283699939D01*
X304672492Y-283699939D01*
X304672484Y-283699939D01*
X304569704Y-283710439D01*
X304569703Y-283710440D01*
X304403164Y-283765625D01*
X304403162Y-283765626D01*
X304253848Y-283857725D01*
X304253844Y-283857728D01*
X304129789Y-283981783D01*
X304129786Y-283981787D01*
X304037687Y-284131101D01*
X304037686Y-284131103D01*
X303982501Y-284297642D01*
X303982500Y-284297643D01*
X303972000Y-284400423D01*
X303422999Y-284400423D01*
X303412499Y-284297642D01*
X303357314Y-284131105D01*
X303351908Y-284122341D01*
X303265213Y-283981787D01*
X303265210Y-283981783D01*
X303141155Y-283857728D01*
X303141151Y-283857725D01*
X302991837Y-283765626D01*
X302895495Y-283733701D01*
X302875461Y-283719830D01*
X302853297Y-283709708D01*
X302847248Y-283700296D01*
X302838051Y-283693928D01*
X302828697Y-283671429D01*
X302815523Y-283650930D01*
X302813064Y-283633828D01*
X302811228Y-283629412D01*
X302810500Y-283615995D01*
X302810500Y-283369959D01*
X302830185Y-283302920D01*
X302870351Y-283263842D01*
X302936826Y-283223657D01*
X303002835Y-283183753D01*
X303116253Y-283070335D01*
X303199233Y-282933069D01*
X303246952Y-282779933D01*
X303253000Y-282713381D01*
X303252999Y-282286620D01*
X303252999Y-282286619D01*
X303252999Y-282286611D01*
X303246953Y-282220073D01*
X303246952Y-282220070D01*
X303246952Y-282220067D01*
X303215002Y-282117535D01*
X303199234Y-282066933D01*
X303199232Y-282066929D01*
X303116257Y-281929670D01*
X303116253Y-281929665D01*
X303002834Y-281816246D01*
X303002829Y-281816242D01*
X302865571Y-281733268D01*
X302865570Y-281733267D01*
X302865569Y-281733267D01*
X302750330Y-281697357D01*
X302692185Y-281658621D01*
X302664211Y-281594596D01*
X302675292Y-281525610D01*
X302721911Y-281473567D01*
X302774620Y-281455615D01*
X302825297Y-281450438D01*
X302991834Y-281395253D01*
X303141155Y-281303150D01*
X303265211Y-281179094D01*
X303357314Y-281029773D01*
X303412499Y-280863236D01*
X303423000Y-280760447D01*
X303423000Y-279410431D01*
X303412499Y-279307642D01*
X303357314Y-279141105D01*
X303348627Y-279127022D01*
X303265213Y-278991787D01*
X303265210Y-278991783D01*
X303141155Y-278867728D01*
X303141151Y-278867725D01*
X302991837Y-278775626D01*
X302895495Y-278743701D01*
X302838051Y-278703928D01*
X302811228Y-278639412D01*
X302810500Y-278625995D01*
X302810500Y-278371470D01*
X302830185Y-278304431D01*
X302870349Y-278265354D01*
X303005335Y-278183753D01*
X303118753Y-278070335D01*
X303201733Y-277933069D01*
X303249452Y-277779933D01*
X303255500Y-277713381D01*
X303255499Y-277286620D01*
X303255499Y-277286619D01*
X303255499Y-277286611D01*
X303249453Y-277220073D01*
X303249452Y-277220070D01*
X303249452Y-277220067D01*
X303216607Y-277114664D01*
X303201734Y-277066933D01*
X303201732Y-277066929D01*
X303118757Y-276929670D01*
X303118753Y-276929665D01*
X303005334Y-276816246D01*
X303005329Y-276816242D01*
X302868070Y-276733267D01*
X302868068Y-276733266D01*
X302728047Y-276689634D01*
X302669900Y-276650897D01*
X302641926Y-276586871D01*
X302653008Y-276517886D01*
X302699627Y-276465843D01*
X302752334Y-276447891D01*
X302825297Y-276440438D01*
X302991834Y-276385253D01*
X303141155Y-276293150D01*
X303265211Y-276169094D01*
X303357314Y-276019773D01*
X303412499Y-275853236D01*
X303423000Y-275750447D01*
X303423000Y-274763036D01*
X303442685Y-274695997D01*
X303459319Y-274675355D01*
X303705609Y-274429065D01*
X303732536Y-274414361D01*
X303758355Y-274397769D01*
X303764555Y-274396877D01*
X303766932Y-274395580D01*
X303793290Y-274392746D01*
X303848000Y-274392746D01*
X303915039Y-274412431D01*
X303960794Y-274465235D01*
X303972000Y-274516746D01*
X303972000Y-275750454D01*
X303982500Y-275853234D01*
X303982501Y-275853235D01*
X304037686Y-276019774D01*
X304037687Y-276019776D01*
X304129786Y-276169090D01*
X304129789Y-276169094D01*
X304253844Y-276293149D01*
X304253848Y-276293152D01*
X304403162Y-276385251D01*
X304403164Y-276385252D01*
X304403166Y-276385253D01*
X304561727Y-276437795D01*
X304619171Y-276477566D01*
X304645994Y-276542082D01*
X304633679Y-276610858D01*
X304586136Y-276662058D01*
X304522722Y-276679500D01*
X304251611Y-276679500D01*
X304185073Y-276685546D01*
X304185066Y-276685548D01*
X304031933Y-276733265D01*
X304031929Y-276733267D01*
X303894670Y-276816242D01*
X303894665Y-276816246D01*
X303781246Y-276929665D01*
X303781242Y-276929670D01*
X303698267Y-277066929D01*
X303698265Y-277066933D01*
X303650548Y-277220065D01*
X303644500Y-277286621D01*
X303644500Y-277713388D01*
X303650546Y-277779926D01*
X303650548Y-277779933D01*
X303698265Y-277933066D01*
X303698267Y-277933070D01*
X303781242Y-278070329D01*
X303781246Y-278070334D01*
X303894665Y-278183753D01*
X303894670Y-278183757D01*
X304031929Y-278266732D01*
X304031933Y-278266734D01*
X304086100Y-278283612D01*
X304185067Y-278314452D01*
X304251619Y-278320500D01*
X304753380Y-278320499D01*
X304753388Y-278320499D01*
X304819926Y-278314453D01*
X304819927Y-278314452D01*
X304819933Y-278314452D01*
X304973069Y-278266733D01*
X305035850Y-278228779D01*
X305103405Y-278210944D01*
X305164149Y-278228779D01*
X305226931Y-278266733D01*
X305226934Y-278266734D01*
X305226933Y-278266734D01*
X305281100Y-278283612D01*
X305380067Y-278314452D01*
X305446619Y-278320500D01*
X305948380Y-278320499D01*
X305948388Y-278320499D01*
X306014926Y-278314453D01*
X306014927Y-278314452D01*
X306014933Y-278314452D01*
X306168069Y-278266733D01*
X306252349Y-278215784D01*
X306305329Y-278183757D01*
X306305330Y-278183755D01*
X306305335Y-278183753D01*
X306418753Y-278070335D01*
X306501733Y-277933069D01*
X306536789Y-277820567D01*
X306550893Y-277799397D01*
X306561461Y-277776257D01*
X306569938Y-277770808D01*
X306575526Y-277762422D01*
X306598838Y-277752236D01*
X306620239Y-277738483D01*
X306635258Y-277736323D01*
X306639551Y-277734448D01*
X306655174Y-277733460D01*
X306718252Y-277733460D01*
X306785291Y-277753145D01*
X306831046Y-277805949D01*
X306840264Y-277867597D01*
X306841143Y-277867611D01*
X306841062Y-277872932D01*
X306841181Y-277873725D01*
X306841033Y-277874838D01*
X306840037Y-277940734D01*
X306838425Y-278047332D01*
X306869966Y-278190000D01*
X306875666Y-278215784D01*
X306918549Y-278307887D01*
X306918553Y-278307894D01*
X307207824Y-278793150D01*
X307212134Y-278800379D01*
X307272758Y-278881913D01*
X307403224Y-278994792D01*
X307556204Y-279074542D01*
X307723453Y-279116862D01*
X307723450Y-279116862D01*
X307731277Y-279116980D01*
X307895952Y-279119471D01*
X308064404Y-279082230D01*
X308156512Y-279039344D01*
X308354742Y-278921174D01*
X308422401Y-278903757D01*
X308488740Y-278925685D01*
X308532694Y-278979997D01*
X308540306Y-279049451D01*
X308512006Y-279108818D01*
X308466515Y-279161397D01*
X308386762Y-279314383D01*
X308386761Y-279314384D01*
X308373244Y-279367806D01*
X308337716Y-279427969D01*
X308275301Y-279459372D01*
X308222616Y-279457600D01*
X308169186Y-279444080D01*
X307996692Y-279441472D01*
X307996691Y-279441472D01*
X307996690Y-279441472D01*
X307884388Y-279466299D01*
X307828237Y-279478713D01*
X307736134Y-279521596D01*
X307736127Y-279521600D01*
X307157755Y-279866380D01*
X307076214Y-279927008D01*
X306963334Y-280057476D01*
X306883582Y-280210459D01*
X306883581Y-280210461D01*
X306841263Y-280377702D01*
X306838941Y-280531284D01*
X306838655Y-280550203D01*
X306871679Y-280699581D01*
X306875896Y-280718655D01*
X306918779Y-280810758D01*
X306918783Y-280810765D01*
X307212358Y-281303242D01*
X307237714Y-281337343D01*
X307261918Y-281402886D01*
X307246845Y-281471110D01*
X307197280Y-281520355D01*
X307138206Y-281535331D01*
X306176968Y-281535331D01*
X306109929Y-281515646D01*
X306064174Y-281462842D01*
X306054230Y-281393684D01*
X306083255Y-281330128D01*
X306111870Y-281305793D01*
X306116155Y-281303150D01*
X306240211Y-281179094D01*
X306332314Y-281029773D01*
X306387499Y-280863236D01*
X306398000Y-280760447D01*
X306398000Y-279410431D01*
X306387499Y-279307642D01*
X306332314Y-279141105D01*
X306323627Y-279127022D01*
X306240213Y-278991787D01*
X306240210Y-278991783D01*
X306116155Y-278867728D01*
X306116151Y-278867725D01*
X305966837Y-278775626D01*
X305966835Y-278775625D01*
X305856853Y-278739181D01*
X305800297Y-278720440D01*
X305800295Y-278720439D01*
X305697515Y-278709939D01*
X305697508Y-278709939D01*
X304672492Y-278709939D01*
X304672484Y-278709939D01*
X304569704Y-278720439D01*
X304569703Y-278720440D01*
X304403164Y-278775625D01*
X304403162Y-278775626D01*
X304253848Y-278867725D01*
X304253844Y-278867728D01*
X304129789Y-278991783D01*
X304129786Y-278991787D01*
X304037687Y-279141101D01*
X304037686Y-279141103D01*
X303982501Y-279307642D01*
X303982500Y-279307643D01*
X303972000Y-279410423D01*
X303972000Y-280760454D01*
X303982500Y-280863234D01*
X303982501Y-280863236D01*
X303998712Y-280912158D01*
X304037686Y-281029774D01*
X304037687Y-281029776D01*
X304129786Y-281179090D01*
X304129789Y-281179094D01*
X304253844Y-281303149D01*
X304253848Y-281303152D01*
X304403162Y-281395251D01*
X304403164Y-281395252D01*
X304403166Y-281395253D01*
X304531549Y-281437795D01*
X304588993Y-281477566D01*
X304615816Y-281542082D01*
X304603501Y-281610858D01*
X304555958Y-281662058D01*
X304492545Y-281679500D01*
X304251611Y-281679500D01*
X304185073Y-281685546D01*
X304185066Y-281685548D01*
X304031933Y-281733265D01*
X304031929Y-281733267D01*
X303894670Y-281816242D01*
X303894665Y-281816246D01*
X303781246Y-281929665D01*
X303781242Y-281929670D01*
X303698267Y-282066929D01*
X303698265Y-282066933D01*
X303650548Y-282220065D01*
X303644500Y-282286621D01*
X303644500Y-282713388D01*
X303650546Y-282779926D01*
X303650548Y-282779933D01*
X303698265Y-282933066D01*
X303698267Y-282933070D01*
X303781242Y-283070329D01*
X303781246Y-283070334D01*
X303894665Y-283183753D01*
X303894670Y-283183757D01*
X304031929Y-283266732D01*
X304031933Y-283266734D01*
X304086100Y-283283612D01*
X304185067Y-283314452D01*
X304251619Y-283320500D01*
X304753380Y-283320499D01*
X304753388Y-283320499D01*
X304819926Y-283314453D01*
X304819927Y-283314452D01*
X304819933Y-283314452D01*
X304973069Y-283266733D01*
X305035850Y-283228779D01*
X305103405Y-283210944D01*
X305164149Y-283228779D01*
X305226931Y-283266733D01*
X305226934Y-283266734D01*
X305226933Y-283266734D01*
X305281100Y-283283612D01*
X305380067Y-283314452D01*
X305446619Y-283320500D01*
X305948380Y-283320499D01*
X305948388Y-283320499D01*
X306014926Y-283314453D01*
X306014927Y-283314452D01*
X306014933Y-283314452D01*
X306168069Y-283266733D01*
X306247600Y-283218655D01*
X306305329Y-283183757D01*
X306305330Y-283183755D01*
X306305335Y-283183753D01*
X306418753Y-283070335D01*
X306501733Y-282933069D01*
X306518984Y-282877709D01*
X306535895Y-282823441D01*
X306549997Y-282802271D01*
X306560567Y-282779128D01*
X306569045Y-282773679D01*
X306574632Y-282765293D01*
X306597943Y-282755107D01*
X306619345Y-282741354D01*
X306634365Y-282739194D01*
X306638658Y-282737319D01*
X306654280Y-282736331D01*
X306718482Y-282736331D01*
X306785521Y-282756016D01*
X306831276Y-282808820D01*
X306840494Y-282870468D01*
X306841373Y-282870482D01*
X306841292Y-282875803D01*
X306841411Y-282876596D01*
X306841263Y-282877709D01*
X306839435Y-282998624D01*
X306838655Y-283050203D01*
X306869561Y-283190000D01*
X306875896Y-283218655D01*
X306918779Y-283310758D01*
X306918783Y-283310765D01*
X307206342Y-283793149D01*
X307212364Y-283803250D01*
X307272988Y-283884784D01*
X307403454Y-283997663D01*
X307556434Y-284077413D01*
X307723683Y-284119733D01*
X307723680Y-284119733D01*
X307731507Y-284119851D01*
X307896182Y-284122342D01*
X308064634Y-284085101D01*
X308156742Y-284042215D01*
X308349367Y-283927386D01*
X308417027Y-283909969D01*
X308483366Y-283931897D01*
X308527320Y-283986210D01*
X308534932Y-284055663D01*
X308506632Y-284115030D01*
X308466515Y-284161398D01*
X308386762Y-284314383D01*
X308386761Y-284314384D01*
X308373244Y-284367806D01*
X308337716Y-284427969D01*
X308275301Y-284459372D01*
X308222616Y-284457600D01*
X308169186Y-284444080D01*
X307996692Y-284441472D01*
X307996691Y-284441472D01*
X307996690Y-284441472D01*
X307884388Y-284466299D01*
X307828237Y-284478713D01*
X307736134Y-284521596D01*
X307736127Y-284521600D01*
X307157755Y-284866380D01*
X307076214Y-284927008D01*
X306963334Y-285057476D01*
X306883582Y-285210459D01*
X306883581Y-285210461D01*
X306841263Y-285377702D01*
X306839346Y-285504500D01*
X306838655Y-285550203D01*
X306870207Y-285692922D01*
X306875896Y-285718655D01*
X306918779Y-285810758D01*
X306918783Y-285810765D01*
X307206342Y-286293149D01*
X307212364Y-286303250D01*
X307272988Y-286384784D01*
X307403454Y-286497663D01*
X307556434Y-286577413D01*
X307723683Y-286619733D01*
X307723680Y-286619733D01*
X307731507Y-286619851D01*
X307896182Y-286622342D01*
X308064634Y-286585101D01*
X308156742Y-286542215D01*
X308735124Y-286197429D01*
X308816659Y-286136804D01*
X308929538Y-286006338D01*
X309009288Y-285853359D01*
X309022807Y-285799930D01*
X309058334Y-285739770D01*
X309120748Y-285708365D01*
X309173435Y-285710137D01*
X309226863Y-285723657D01*
X309226860Y-285723657D01*
X309234457Y-285723771D01*
X309399362Y-285726266D01*
X309472314Y-285710138D01*
X309571669Y-285688173D01*
X309641377Y-285692922D01*
X309686117Y-285721568D01*
X309817783Y-285853234D01*
X309945069Y-285980520D01*
X309945071Y-285980521D01*
X309945075Y-285980524D01*
X310081994Y-286059573D01*
X310082001Y-286059577D01*
X310234728Y-286100501D01*
X310234730Y-286100501D01*
X310400439Y-286100501D01*
X310400455Y-286100500D01*
X311360050Y-286100500D01*
X311427089Y-286120185D01*
X311447731Y-286136819D01*
X311494665Y-286183753D01*
X311494670Y-286183757D01*
X311631929Y-286266732D01*
X311631933Y-286266734D01*
X311686100Y-286283612D01*
X311785067Y-286314452D01*
X311851619Y-286320500D01*
X312022401Y-286320499D01*
X312051846Y-286329144D01*
X312081829Y-286335667D01*
X312086842Y-286339419D01*
X312089441Y-286340183D01*
X312110083Y-286356818D01*
X312222639Y-286469374D01*
X312222649Y-286469385D01*
X312226979Y-286473715D01*
X312226980Y-286473716D01*
X312338784Y-286585520D01*
X312425595Y-286635639D01*
X312425597Y-286635641D01*
X312475713Y-286664576D01*
X312475715Y-286664577D01*
X312628442Y-286705500D01*
X312628443Y-286705500D01*
X312628444Y-286705500D01*
X319976000Y-286705500D01*
X320043039Y-286725185D01*
X320088794Y-286777989D01*
X320100000Y-286829500D01*
X320100000Y-288076000D01*
X320080315Y-288143039D01*
X320027511Y-288188794D01*
X319976000Y-288200000D01*
X298324000Y-288200000D01*
X298256961Y-288180315D01*
X298211206Y-288127511D01*
X298200000Y-288076000D01*
X298200000Y-272124000D01*
X298219685Y-272056961D01*
X298272489Y-272011206D01*
X298324000Y-272000000D01*
X319976000Y-272000000D01*
X320043039Y-272019685D01*
G37*
%TD.AperFunction*%
%TA.AperFunction,Conductor*%
G36*
X320043039Y-282070624D02*
G01*
X320088794Y-282123428D01*
X320100000Y-282174939D01*
X320100000Y-285380500D01*
X320080315Y-285447539D01*
X320027511Y-285493294D01*
X319976000Y-285504500D01*
X316584499Y-285504500D01*
X316517460Y-285484815D01*
X316471705Y-285432011D01*
X316460499Y-285380500D01*
X316460499Y-285286611D01*
X316454453Y-285220073D01*
X316454452Y-285220070D01*
X316454452Y-285220067D01*
X316406733Y-285066931D01*
X316406732Y-285066929D01*
X316323757Y-284929670D01*
X316323753Y-284929665D01*
X316239319Y-284845231D01*
X316205834Y-284783908D01*
X316203000Y-284757550D01*
X316203000Y-283757667D01*
X316222685Y-283690628D01*
X316239319Y-283669986D01*
X316240211Y-283669094D01*
X316332314Y-283519773D01*
X316387499Y-283353236D01*
X316398000Y-283250447D01*
X316398000Y-282174939D01*
X316417685Y-282107900D01*
X316470489Y-282062145D01*
X316522000Y-282050939D01*
X319976000Y-282050939D01*
X320043039Y-282070624D01*
G37*
%TD.AperFunction*%
%TA.AperFunction,Conductor*%
G36*
X320043039Y-277070624D02*
G01*
X320088794Y-277123428D01*
X320100000Y-277174939D01*
X320100000Y-280175500D01*
X320080315Y-280242539D01*
X320027511Y-280288294D01*
X319976000Y-280299500D01*
X316584500Y-280299500D01*
X316517461Y-280279815D01*
X316471706Y-280227011D01*
X316460500Y-280175500D01*
X316460499Y-279786611D01*
X316454453Y-279720073D01*
X316454452Y-279720070D01*
X316454452Y-279720067D01*
X316406733Y-279566931D01*
X316379329Y-279521599D01*
X316323757Y-279429670D01*
X316323753Y-279429665D01*
X316210334Y-279316246D01*
X316210329Y-279316242D01*
X316073070Y-279233267D01*
X316073066Y-279233265D01*
X315919933Y-279185548D01*
X315919936Y-279185548D01*
X315904429Y-279184139D01*
X315898275Y-279183579D01*
X315895164Y-279182350D01*
X315891853Y-279182827D01*
X315862893Y-279169601D01*
X315833294Y-279157908D01*
X315831341Y-279155192D01*
X315828297Y-279153802D01*
X315811086Y-279127022D01*
X315792506Y-279101180D01*
X315791793Y-279097000D01*
X315790523Y-279095024D01*
X315785500Y-279060089D01*
X315785500Y-279034882D01*
X315805185Y-278967843D01*
X315857989Y-278922088D01*
X315870490Y-278917177D01*
X315966834Y-278885253D01*
X316116155Y-278793150D01*
X316240211Y-278669094D01*
X316332314Y-278519773D01*
X316387499Y-278353236D01*
X316398000Y-278250447D01*
X316398000Y-277174939D01*
X316417685Y-277107900D01*
X316470489Y-277062145D01*
X316522000Y-277050939D01*
X319976000Y-277050939D01*
X320043039Y-277070624D01*
G37*
%TD.AperFunction*%
%TD*%
%TA.AperFunction,Conductor*%
%TO.N,/SPB*%
G36*
X267243039Y-141119685D02*
G01*
X267288794Y-141172489D01*
X267300000Y-141224000D01*
X267300000Y-143854830D01*
X267280315Y-143921869D01*
X267270947Y-143934586D01*
X265237165Y-146355756D01*
X265178974Y-146394427D01*
X265142218Y-146400000D01*
X263931518Y-146400000D01*
X263872306Y-146384949D01*
X263818591Y-146355756D01*
X262654613Y-145723159D01*
X262605112Y-145673854D01*
X262590469Y-145626810D01*
X262589999Y-145622203D01*
X262534814Y-145455666D01*
X262442712Y-145306344D01*
X262318656Y-145182288D01*
X262169334Y-145090186D01*
X262002797Y-145035001D01*
X262002795Y-145035000D01*
X261900016Y-145024500D01*
X261400599Y-145024500D01*
X261341387Y-145009449D01*
X259465287Y-143989830D01*
X259415784Y-143940523D01*
X259400499Y-143880884D01*
X259400499Y-141223999D01*
X259420184Y-141156961D01*
X259472988Y-141111206D01*
X259524499Y-141100000D01*
X267176000Y-141100000D01*
X267243039Y-141119685D01*
G37*
%TD.AperFunction*%
%TD*%
%TA.AperFunction,Conductor*%
%TO.N,+5V*%
G36*
X386942539Y-195619685D02*
G01*
X386988294Y-195672489D01*
X386999500Y-195724000D01*
X386999500Y-197025500D01*
X386979815Y-197092539D01*
X386927011Y-197138294D01*
X386875500Y-197149500D01*
X386502129Y-197149500D01*
X386502122Y-197149501D01*
X386442515Y-197155908D01*
X386307670Y-197206202D01*
X386307663Y-197206206D01*
X386192454Y-197292452D01*
X386192451Y-197292455D01*
X386106205Y-197407664D01*
X386106201Y-197407671D01*
X386055907Y-197542517D01*
X386049500Y-197602116D01*
X386049500Y-197602123D01*
X386049499Y-197602135D01*
X386049499Y-201797870D01*
X386049500Y-201797876D01*
X386055907Y-201857483D01*
X386106201Y-201992328D01*
X386106205Y-201992335D01*
X386192451Y-202107544D01*
X386192454Y-202107547D01*
X386307663Y-202193793D01*
X386307670Y-202193797D01*
X386442516Y-202244091D01*
X386442515Y-202244091D01*
X386449443Y-202244835D01*
X386502126Y-202250500D01*
X387813000Y-202250499D01*
X387821685Y-202253049D01*
X387830647Y-202251761D01*
X387854687Y-202262739D01*
X387880039Y-202270184D01*
X387885966Y-202277024D01*
X387894203Y-202280786D01*
X387908490Y-202303018D01*
X387925794Y-202322987D01*
X387928081Y-202333502D01*
X387931977Y-202339564D01*
X387937000Y-202374499D01*
X387937000Y-202411548D01*
X387917315Y-202478587D01*
X387878097Y-202517086D01*
X387776653Y-202579657D01*
X387776649Y-202579660D01*
X387654661Y-202701648D01*
X387564093Y-202848481D01*
X387564091Y-202848486D01*
X387561276Y-202856981D01*
X387509826Y-203012247D01*
X387509826Y-203012248D01*
X387509825Y-203012248D01*
X387499500Y-203113315D01*
X387499500Y-203183888D01*
X387479815Y-203250927D01*
X387427011Y-203296682D01*
X387357853Y-203306626D01*
X387332167Y-203300070D01*
X387211487Y-203255060D01*
X387211486Y-203255059D01*
X387211484Y-203255059D01*
X387151874Y-203248650D01*
X387151864Y-203248650D01*
X386548130Y-203248650D01*
X386548124Y-203248651D01*
X386488515Y-203255059D01*
X386418332Y-203281235D01*
X386348640Y-203286219D01*
X386331668Y-203281235D01*
X386261485Y-203255059D01*
X386261483Y-203255058D01*
X386201883Y-203248651D01*
X386201881Y-203248650D01*
X386201873Y-203248650D01*
X386201865Y-203248650D01*
X386046097Y-203248650D01*
X385979058Y-203228965D01*
X385958416Y-203212331D01*
X385721940Y-202975855D01*
X385721938Y-202975852D01*
X385603067Y-202856981D01*
X385603066Y-202856980D01*
X385506763Y-202801380D01*
X385506762Y-202801379D01*
X385466133Y-202777922D01*
X385410231Y-202762943D01*
X385313407Y-202736999D01*
X385155293Y-202736999D01*
X385147697Y-202736999D01*
X385147681Y-202737000D01*
X384238451Y-202737000D01*
X384171412Y-202717315D01*
X384132913Y-202678097D01*
X384070341Y-202576653D01*
X384070338Y-202576649D01*
X383955869Y-202462180D01*
X383922384Y-202400857D01*
X383927368Y-202331165D01*
X383969240Y-202275232D01*
X384034704Y-202250815D01*
X384043550Y-202250499D01*
X384797870Y-202250499D01*
X384797871Y-202250499D01*
X384857482Y-202244091D01*
X384992330Y-202193796D01*
X385107545Y-202107546D01*
X385193795Y-201992331D01*
X385244090Y-201857483D01*
X385250499Y-201797873D01*
X385250498Y-197602128D01*
X385244090Y-197542517D01*
X385197351Y-197417204D01*
X385193796Y-197407671D01*
X385193792Y-197407664D01*
X385107546Y-197292455D01*
X385107543Y-197292452D01*
X384992334Y-197206206D01*
X384992327Y-197206202D01*
X384857481Y-197155908D01*
X384857482Y-197155908D01*
X384797882Y-197149501D01*
X384797880Y-197149500D01*
X384797872Y-197149500D01*
X384797863Y-197149500D01*
X382852128Y-197149500D01*
X382852122Y-197149501D01*
X382792515Y-197155908D01*
X382657670Y-197206202D01*
X382657663Y-197206206D01*
X382542454Y-197292452D01*
X382542451Y-197292455D01*
X382456205Y-197407664D01*
X382456201Y-197407671D01*
X382405907Y-197542517D01*
X382399500Y-197602116D01*
X382399500Y-197602123D01*
X382399499Y-197602135D01*
X382399499Y-201797870D01*
X382399500Y-201797876D01*
X382405907Y-201857483D01*
X382456201Y-201992328D01*
X382456202Y-201992329D01*
X382456203Y-201992331D01*
X382491988Y-202040133D01*
X382542451Y-202107543D01*
X382542454Y-202107547D01*
X382599809Y-202150482D01*
X382602545Y-202154137D01*
X382606702Y-202156036D01*
X382623292Y-202181851D01*
X382641681Y-202206415D01*
X382642696Y-202212045D01*
X382644476Y-202214814D01*
X382649499Y-202249749D01*
X382649499Y-202325098D01*
X382629814Y-202392137D01*
X382590597Y-202430636D01*
X382551649Y-202454659D01*
X382429660Y-202576648D01*
X382339092Y-202723481D01*
X382339090Y-202723486D01*
X382313279Y-202801379D01*
X382284825Y-202887247D01*
X382284825Y-202887248D01*
X382284824Y-202887248D01*
X382274499Y-202988315D01*
X382274499Y-203686669D01*
X382274500Y-203686687D01*
X382284824Y-203787752D01*
X382339091Y-203951515D01*
X382339092Y-203951518D01*
X382429660Y-204098351D01*
X382443628Y-204112319D01*
X382477113Y-204173642D01*
X382472129Y-204243334D01*
X382443628Y-204287681D01*
X382429660Y-204301648D01*
X382339092Y-204448481D01*
X382339090Y-204448486D01*
X382311718Y-204531088D01*
X382284825Y-204612247D01*
X382284825Y-204612248D01*
X382284824Y-204612248D01*
X382274499Y-204713315D01*
X382274499Y-205411669D01*
X382274500Y-205411687D01*
X382284824Y-205512752D01*
X382309785Y-205588078D01*
X382339091Y-205676516D01*
X382429659Y-205823350D01*
X382551649Y-205945340D01*
X382698483Y-206035908D01*
X382862246Y-206090174D01*
X382963322Y-206100500D01*
X383536675Y-206100499D01*
X383536683Y-206100498D01*
X383536686Y-206100498D01*
X383592029Y-206094844D01*
X383637752Y-206090174D01*
X383801515Y-206035908D01*
X383948349Y-205945340D01*
X384070339Y-205823350D01*
X384143915Y-205704063D01*
X384161038Y-205688661D01*
X384174773Y-205670172D01*
X384189688Y-205662892D01*
X384195860Y-205657341D01*
X384205687Y-205653142D01*
X384211418Y-205650979D01*
X384319284Y-205622077D01*
X384369403Y-205593139D01*
X384456215Y-205543020D01*
X384568019Y-205431216D01*
X384568019Y-205431214D01*
X384578227Y-205421007D01*
X384578229Y-205421004D01*
X384811565Y-205187668D01*
X384872888Y-205154183D01*
X384899246Y-205151349D01*
X385251870Y-205151349D01*
X385251871Y-205151349D01*
X385311482Y-205144941D01*
X385381664Y-205118763D01*
X385451356Y-205113779D01*
X385468334Y-205118764D01*
X385538511Y-205144939D01*
X385538517Y-205144941D01*
X385598127Y-205151350D01*
X386201872Y-205151349D01*
X386261483Y-205144941D01*
X386331665Y-205118763D01*
X386401357Y-205113779D01*
X386418335Y-205118764D01*
X386488512Y-205144939D01*
X386488518Y-205144941D01*
X386548128Y-205151350D01*
X387151873Y-205151349D01*
X387211484Y-205144941D01*
X387346332Y-205094646D01*
X387461547Y-205008396D01*
X387547797Y-204893181D01*
X387598092Y-204758333D01*
X387604501Y-204698723D01*
X387604500Y-204494949D01*
X387607877Y-204466207D01*
X387610163Y-204456610D01*
X387619738Y-204433497D01*
X387640289Y-204330177D01*
X387640829Y-204327914D01*
X387657071Y-204299513D01*
X387672220Y-204270554D01*
X387674316Y-204269360D01*
X387675516Y-204267263D01*
X387704526Y-204252157D01*
X387732935Y-204235980D01*
X387735346Y-204236109D01*
X387737488Y-204234994D01*
X387770051Y-204237969D01*
X387802705Y-204239719D01*
X387805894Y-204241243D01*
X387807068Y-204241351D01*
X387808571Y-204242523D01*
X387826549Y-204251118D01*
X387923475Y-204310903D01*
X387923478Y-204310904D01*
X387923484Y-204310908D01*
X388087247Y-204365174D01*
X388188323Y-204375500D01*
X388886676Y-204375499D01*
X388886684Y-204375498D01*
X388886687Y-204375498D01*
X388942030Y-204369844D01*
X388987753Y-204365174D01*
X389151516Y-204310908D01*
X389298350Y-204220340D01*
X389312319Y-204206371D01*
X389373642Y-204172886D01*
X389443334Y-204177870D01*
X389487681Y-204206371D01*
X389501650Y-204220340D01*
X389648484Y-204310908D01*
X389812247Y-204365174D01*
X389913323Y-204375500D01*
X390611676Y-204375499D01*
X390611684Y-204375498D01*
X390611687Y-204375498D01*
X390667030Y-204369844D01*
X390712753Y-204365174D01*
X390876516Y-204310908D01*
X391023350Y-204220340D01*
X391145340Y-204098350D01*
X391235908Y-203951516D01*
X391290174Y-203787753D01*
X391300500Y-203686677D01*
X391300499Y-203113324D01*
X391290174Y-203012247D01*
X391235908Y-202848484D01*
X391145340Y-202701650D01*
X391023350Y-202579660D01*
X390932129Y-202523395D01*
X390876518Y-202489093D01*
X390876513Y-202489091D01*
X390844814Y-202478587D01*
X390712753Y-202434826D01*
X390712751Y-202434825D01*
X390611678Y-202424500D01*
X389913330Y-202424500D01*
X389913312Y-202424501D01*
X389812247Y-202434825D01*
X389648484Y-202489092D01*
X389648481Y-202489093D01*
X389501648Y-202579661D01*
X389487681Y-202593629D01*
X389426358Y-202627114D01*
X389356666Y-202622130D01*
X389329990Y-202608293D01*
X389320472Y-202601782D01*
X389298350Y-202579660D01*
X389194422Y-202515556D01*
X389191990Y-202513893D01*
X389171663Y-202489024D01*
X389150178Y-202465138D01*
X389149423Y-202461815D01*
X389147772Y-202459796D01*
X389146560Y-202449217D01*
X389138000Y-202411548D01*
X389138000Y-200683444D01*
X389137999Y-200683440D01*
X389121636Y-200622371D01*
X389121635Y-200622366D01*
X389097077Y-200530716D01*
X389097075Y-200530712D01*
X389064735Y-200474697D01*
X389064735Y-200474698D01*
X389018022Y-200393788D01*
X389018021Y-200393787D01*
X389018020Y-200393785D01*
X388936816Y-200312581D01*
X388903332Y-200251257D01*
X388900498Y-200224900D01*
X388900498Y-197602129D01*
X388900497Y-197602123D01*
X388900496Y-197602116D01*
X388894090Y-197542517D01*
X388847351Y-197417204D01*
X388843796Y-197407671D01*
X388843792Y-197407664D01*
X388757546Y-197292455D01*
X388757543Y-197292452D01*
X388642334Y-197206206D01*
X388642327Y-197206202D01*
X388507481Y-197155908D01*
X388507482Y-197155908D01*
X388447882Y-197149501D01*
X388447880Y-197149500D01*
X388447872Y-197149500D01*
X388447864Y-197149500D01*
X388324500Y-197149500D01*
X388257461Y-197129815D01*
X388211706Y-197077011D01*
X388200500Y-197025500D01*
X388200500Y-195724000D01*
X388220185Y-195656961D01*
X388272989Y-195611206D01*
X388324500Y-195600000D01*
X394676000Y-195600000D01*
X394743039Y-195619685D01*
X394788794Y-195672489D01*
X394800000Y-195724000D01*
X394800000Y-216170500D01*
X394780315Y-216237539D01*
X394727511Y-216283294D01*
X394676000Y-216294500D01*
X392699997Y-216294500D01*
X392634505Y-216299184D01*
X392625659Y-216299500D01*
X392559568Y-216299500D01*
X392280505Y-216330942D01*
X392280487Y-216330945D01*
X392006682Y-216393439D01*
X392006670Y-216393443D01*
X391741588Y-216486200D01*
X391488557Y-216608053D01*
X391250753Y-216757476D01*
X391031175Y-216932583D01*
X390832583Y-217131175D01*
X390657476Y-217350753D01*
X390508053Y-217588557D01*
X390386200Y-217841588D01*
X390293443Y-218106670D01*
X390293439Y-218106682D01*
X390230945Y-218380487D01*
X390230943Y-218380503D01*
X390214045Y-218530479D01*
X390186979Y-218594892D01*
X390129384Y-218634448D01*
X390059547Y-218636585D01*
X390003144Y-218604276D01*
X389918657Y-218519789D01*
X389918656Y-218519788D01*
X389769334Y-218427686D01*
X389602797Y-218372501D01*
X389602795Y-218372500D01*
X389500010Y-218362000D01*
X387399998Y-218362000D01*
X387399981Y-218362001D01*
X387297203Y-218372500D01*
X387297200Y-218372501D01*
X387130668Y-218427685D01*
X387130663Y-218427687D01*
X386981342Y-218519789D01*
X386857289Y-218643842D01*
X386765187Y-218793163D01*
X386765186Y-218793166D01*
X386710001Y-218959703D01*
X386710001Y-218959704D01*
X386710000Y-218959704D01*
X386699500Y-219062483D01*
X386699500Y-219062491D01*
X386699500Y-220012397D01*
X386699501Y-220076000D01*
X386679817Y-220143039D01*
X386627013Y-220188794D01*
X386575501Y-220200000D01*
X386024500Y-220200000D01*
X385957461Y-220180315D01*
X385911706Y-220127511D01*
X385900500Y-220076000D01*
X385900499Y-219062498D01*
X385900498Y-219062481D01*
X385889999Y-218959703D01*
X385889998Y-218959700D01*
X385858467Y-218864546D01*
X385834814Y-218793166D01*
X385742712Y-218643844D01*
X385618656Y-218519788D01*
X385469334Y-218427686D01*
X385302797Y-218372501D01*
X385302795Y-218372500D01*
X385200010Y-218362000D01*
X383099998Y-218362000D01*
X383099981Y-218362001D01*
X382997203Y-218372500D01*
X382997200Y-218372501D01*
X382830668Y-218427685D01*
X382830663Y-218427687D01*
X382681342Y-218519789D01*
X382557289Y-218643842D01*
X382465187Y-218793163D01*
X382465185Y-218793168D01*
X382460568Y-218807102D01*
X382420793Y-218864546D01*
X382356276Y-218891366D01*
X382303859Y-218885800D01*
X382239719Y-218864546D01*
X382187753Y-218847326D01*
X382187751Y-218847325D01*
X382086678Y-218837000D01*
X381513330Y-218837000D01*
X381513312Y-218837001D01*
X381412247Y-218847325D01*
X381248484Y-218901592D01*
X381248481Y-218901593D01*
X381101648Y-218992161D01*
X380979661Y-219114148D01*
X380889093Y-219260981D01*
X380889092Y-219260984D01*
X380834826Y-219424747D01*
X380834826Y-219424748D01*
X380834825Y-219424748D01*
X380824500Y-219525815D01*
X380824500Y-219949902D01*
X380815855Y-219979342D01*
X380809332Y-220009329D01*
X380805577Y-220014344D01*
X380804815Y-220016941D01*
X380788181Y-220037583D01*
X380662083Y-220163681D01*
X380600760Y-220197166D01*
X380574402Y-220200000D01*
X372287603Y-220200000D01*
X372220564Y-220180315D01*
X372199922Y-220163681D01*
X372136319Y-220100078D01*
X372102834Y-220038755D01*
X372100000Y-220012397D01*
X372100000Y-216425815D01*
X381624500Y-216425815D01*
X381624500Y-216999169D01*
X381624501Y-216999187D01*
X381634825Y-217100252D01*
X381671109Y-217209749D01*
X381689092Y-217264016D01*
X381779660Y-217410850D01*
X381901650Y-217532840D01*
X382048484Y-217623408D01*
X382212247Y-217677674D01*
X382313323Y-217688000D01*
X383011676Y-217687999D01*
X383011684Y-217687998D01*
X383011687Y-217687998D01*
X383067030Y-217682344D01*
X383112753Y-217677674D01*
X383276516Y-217623408D01*
X383423350Y-217532840D01*
X383545340Y-217410850D01*
X383635908Y-217264016D01*
X383690174Y-217100253D01*
X383700500Y-216999177D01*
X383700499Y-216425824D01*
X383690174Y-216324747D01*
X383635908Y-216160984D01*
X383545340Y-216014150D01*
X383423350Y-215892160D01*
X383276516Y-215801592D01*
X383112753Y-215747326D01*
X383112751Y-215747325D01*
X383011678Y-215737000D01*
X382313330Y-215737000D01*
X382313312Y-215737001D01*
X382212247Y-215747325D01*
X382048484Y-215801592D01*
X382048481Y-215801593D01*
X381901648Y-215892161D01*
X381779661Y-216014148D01*
X381689093Y-216160981D01*
X381689091Y-216160986D01*
X381663724Y-216237539D01*
X381634826Y-216324747D01*
X381634826Y-216324748D01*
X381634825Y-216324748D01*
X381624500Y-216425815D01*
X372100000Y-216425815D01*
X372100000Y-211421153D01*
X387711999Y-211421153D01*
X387711999Y-211578846D01*
X387742760Y-211733489D01*
X387742763Y-211733501D01*
X387803101Y-211879172D01*
X387803108Y-211879185D01*
X387890709Y-212010288D01*
X387890712Y-212010292D01*
X388002206Y-212121786D01*
X388002210Y-212121789D01*
X388133313Y-212209390D01*
X388133326Y-212209397D01*
X388221951Y-212246106D01*
X388279002Y-212269737D01*
X388433652Y-212300499D01*
X388433655Y-212300500D01*
X388433657Y-212300500D01*
X388591343Y-212300500D01*
X388591344Y-212300499D01*
X388745996Y-212269737D01*
X388822788Y-212237929D01*
X388890363Y-212209939D01*
X388898539Y-212208312D01*
X388902880Y-212205523D01*
X388937815Y-212200500D01*
X389025500Y-212200500D01*
X389092539Y-212220185D01*
X389138294Y-212272989D01*
X389149500Y-212324500D01*
X389149500Y-212900018D01*
X389159999Y-213002796D01*
X389160000Y-213002799D01*
X389215184Y-213169331D01*
X389215185Y-213169334D01*
X389307287Y-213318656D01*
X389431343Y-213442712D01*
X389580665Y-213534814D01*
X389747202Y-213589999D01*
X389849990Y-213600500D01*
X391050007Y-213600499D01*
X391152796Y-213589999D01*
X391319333Y-213534814D01*
X391468655Y-213442712D01*
X391592711Y-213318656D01*
X391684813Y-213169334D01*
X391739998Y-213002797D01*
X391750499Y-212900009D01*
X391750499Y-212360667D01*
X391770184Y-212293628D01*
X391822988Y-212247873D01*
X391892146Y-212237929D01*
X391921949Y-212246105D01*
X391979002Y-212269737D01*
X392133652Y-212300499D01*
X392133655Y-212300500D01*
X392133657Y-212300500D01*
X392291343Y-212300500D01*
X392291344Y-212300499D01*
X392445996Y-212269737D01*
X392591678Y-212209394D01*
X392722788Y-212121789D01*
X392834288Y-212010289D01*
X392921893Y-211879179D01*
X392924513Y-211872855D01*
X392935566Y-211846166D01*
X392982236Y-211733497D01*
X393012999Y-211578842D01*
X393012999Y-211421158D01*
X393012999Y-211421155D01*
X393012998Y-211421153D01*
X392982237Y-211266510D01*
X392982236Y-211266503D01*
X392982234Y-211266498D01*
X392921896Y-211120827D01*
X392921889Y-211120814D01*
X392834288Y-210989711D01*
X392834285Y-210989707D01*
X392722791Y-210878213D01*
X392722787Y-210878210D01*
X392591684Y-210790609D01*
X392591671Y-210790602D01*
X392446000Y-210730264D01*
X392445988Y-210730261D01*
X392291344Y-210699500D01*
X392291341Y-210699500D01*
X392133657Y-210699500D01*
X392133654Y-210699500D01*
X391979009Y-210730261D01*
X391978997Y-210730264D01*
X391921950Y-210753894D01*
X391852481Y-210761363D01*
X391790002Y-210730087D01*
X391754350Y-210669998D01*
X391750498Y-210639333D01*
X391750498Y-210299998D01*
X391750497Y-210299981D01*
X391739998Y-210197203D01*
X391739997Y-210197200D01*
X391684813Y-210030666D01*
X391592711Y-209881344D01*
X391468655Y-209757288D01*
X391319333Y-209665186D01*
X391152796Y-209610001D01*
X391152794Y-209610000D01*
X391050009Y-209599500D01*
X389849997Y-209599500D01*
X389849980Y-209599501D01*
X389747202Y-209610000D01*
X389747199Y-209610001D01*
X389580667Y-209665185D01*
X389580662Y-209665187D01*
X389431341Y-209757289D01*
X389307288Y-209881342D01*
X389215186Y-210030663D01*
X389215185Y-210030666D01*
X389160000Y-210197203D01*
X389160000Y-210197204D01*
X389159999Y-210197204D01*
X389149499Y-210299983D01*
X389149499Y-210730888D01*
X389129814Y-210797927D01*
X389077010Y-210843682D01*
X389007852Y-210853626D01*
X388956608Y-210833990D01*
X388891684Y-210790609D01*
X388891671Y-210790602D01*
X388746000Y-210730264D01*
X388745988Y-210730261D01*
X388591344Y-210699500D01*
X388591341Y-210699500D01*
X388433657Y-210699500D01*
X388433654Y-210699500D01*
X388279009Y-210730261D01*
X388278997Y-210730264D01*
X388133326Y-210790602D01*
X388133313Y-210790609D01*
X388002210Y-210878210D01*
X388002206Y-210878213D01*
X387890712Y-210989707D01*
X387890709Y-210989711D01*
X387803108Y-211120814D01*
X387803101Y-211120827D01*
X387742763Y-211266498D01*
X387742760Y-211266510D01*
X387711999Y-211421153D01*
X372100000Y-211421153D01*
X372100000Y-208213315D01*
X383949499Y-208213315D01*
X383949499Y-208786669D01*
X383949500Y-208786687D01*
X383959824Y-208887752D01*
X383996108Y-208997249D01*
X384014091Y-209051516D01*
X384104659Y-209198350D01*
X384226649Y-209320340D01*
X384373483Y-209410908D01*
X384537246Y-209465174D01*
X384638322Y-209475500D01*
X385336675Y-209475499D01*
X385336683Y-209475498D01*
X385336686Y-209475498D01*
X385392029Y-209469844D01*
X385437752Y-209465174D01*
X385601515Y-209410908D01*
X385748349Y-209320340D01*
X385762318Y-209306371D01*
X385823641Y-209272886D01*
X385893333Y-209277870D01*
X385937680Y-209306371D01*
X385951649Y-209320340D01*
X386098483Y-209410908D01*
X386262246Y-209465174D01*
X386363322Y-209475500D01*
X387061675Y-209475499D01*
X387061683Y-209475498D01*
X387061686Y-209475498D01*
X387117029Y-209469844D01*
X387162752Y-209465174D01*
X387326515Y-209410908D01*
X387473349Y-209320340D01*
X387595339Y-209198350D01*
X387685907Y-209051516D01*
X387740173Y-208887753D01*
X387750499Y-208786677D01*
X387750498Y-208213324D01*
X387740173Y-208112247D01*
X387685907Y-207948484D01*
X387595339Y-207801650D01*
X387473349Y-207679660D01*
X387362157Y-207611076D01*
X387326517Y-207589093D01*
X387326512Y-207589091D01*
X387308167Y-207583012D01*
X387162752Y-207534826D01*
X387162750Y-207534825D01*
X387061677Y-207524500D01*
X386363329Y-207524500D01*
X386363311Y-207524501D01*
X386262246Y-207534825D01*
X386098483Y-207589092D01*
X386098480Y-207589093D01*
X385951647Y-207679661D01*
X385937680Y-207693629D01*
X385876357Y-207727114D01*
X385806665Y-207722130D01*
X385777324Y-207706419D01*
X385769314Y-207700625D01*
X385748349Y-207679660D01*
X385693908Y-207646080D01*
X385690212Y-207643407D01*
X385671497Y-207619242D01*
X385651065Y-207596526D01*
X385650309Y-207591884D01*
X385647430Y-207588166D01*
X385644750Y-207557718D01*
X385639844Y-207527564D01*
X385641502Y-207520806D01*
X385641305Y-207518566D01*
X385642707Y-207515894D01*
X385646705Y-207499603D01*
X385647796Y-207496678D01*
X385698090Y-207361833D01*
X385704499Y-207302223D01*
X385704498Y-207098449D01*
X385713938Y-207050993D01*
X385719736Y-207036997D01*
X385750499Y-206882342D01*
X385750499Y-206724658D01*
X385750499Y-206724655D01*
X385750498Y-206724653D01*
X385719737Y-206570010D01*
X385719736Y-206570003D01*
X385713937Y-206556002D01*
X385704498Y-206508550D01*
X385704498Y-206304779D01*
X385704497Y-206304773D01*
X385704496Y-206304766D01*
X385698090Y-206245167D01*
X385647795Y-206110319D01*
X385647794Y-206110318D01*
X385647792Y-206110314D01*
X385561546Y-205995105D01*
X385561543Y-205995102D01*
X385446334Y-205908856D01*
X385446327Y-205908852D01*
X385311485Y-205858560D01*
X385311484Y-205858559D01*
X385311482Y-205858559D01*
X385251872Y-205852150D01*
X385251862Y-205852150D01*
X384648128Y-205852150D01*
X384648122Y-205852151D01*
X384588515Y-205858558D01*
X384453670Y-205908852D01*
X384453663Y-205908856D01*
X384338454Y-205995102D01*
X384338451Y-205995105D01*
X384252205Y-206110314D01*
X384252201Y-206110321D01*
X384201907Y-206245167D01*
X384195500Y-206304766D01*
X384195500Y-206304773D01*
X384195499Y-206304785D01*
X384195499Y-206508551D01*
X384186061Y-206556001D01*
X384180262Y-206570000D01*
X384180260Y-206570006D01*
X384149499Y-206724653D01*
X384149499Y-206882346D01*
X384180260Y-207036993D01*
X384180262Y-207036999D01*
X384186060Y-207050996D01*
X384195499Y-207098447D01*
X384195499Y-207302219D01*
X384195500Y-207302226D01*
X384201907Y-207361833D01*
X384252201Y-207496678D01*
X384252202Y-207496680D01*
X384256527Y-207502457D01*
X384280944Y-207567921D01*
X384266093Y-207636194D01*
X384230863Y-207673350D01*
X384232312Y-207675182D01*
X384226651Y-207679657D01*
X384104658Y-207801651D01*
X384014092Y-207948481D01*
X384014090Y-207948486D01*
X383986718Y-208031088D01*
X383959825Y-208112247D01*
X383959825Y-208112248D01*
X383959824Y-208112248D01*
X383949499Y-208213315D01*
X372100000Y-208213315D01*
X372100000Y-200984181D01*
X372119685Y-200917142D01*
X372172489Y-200871387D01*
X372191899Y-200864408D01*
X372296100Y-200836488D01*
X372520212Y-200743658D01*
X372730289Y-200622370D01*
X372922738Y-200474699D01*
X372922741Y-200474697D01*
X372922743Y-200474694D01*
X373094260Y-200303177D01*
X373094265Y-200303172D01*
X373241936Y-200110723D01*
X373363224Y-199900646D01*
X373456054Y-199676534D01*
X373518838Y-199442223D01*
X373550500Y-199201722D01*
X373550500Y-198959146D01*
X373518838Y-198718645D01*
X373456054Y-198484334D01*
X373363224Y-198260222D01*
X373241936Y-198050145D01*
X373094265Y-197857696D01*
X373094260Y-197857690D01*
X372922743Y-197686173D01*
X372922736Y-197686167D01*
X372730293Y-197538501D01*
X372730292Y-197538500D01*
X372730289Y-197538498D01*
X372520212Y-197417210D01*
X372520200Y-197417204D01*
X372367891Y-197354116D01*
X372296100Y-197324380D01*
X372296096Y-197324379D01*
X372296094Y-197324378D01*
X372296095Y-197324378D01*
X372191905Y-197296459D01*
X372132245Y-197260094D01*
X372101717Y-197197246D01*
X372100000Y-197176685D01*
X372100000Y-195724000D01*
X372119685Y-195656961D01*
X372172489Y-195611206D01*
X372224000Y-195600000D01*
X386875500Y-195600000D01*
X386942539Y-195619685D01*
G37*
%TD.AperFunction*%
%TD*%
%TA.AperFunction,Conductor*%
%TO.N,/MOT_B*%
G36*
X267443039Y-134919685D02*
G01*
X267488794Y-134972489D01*
X267500000Y-135024000D01*
X267500000Y-138776000D01*
X267480315Y-138843039D01*
X267427511Y-138888794D01*
X267376000Y-138900000D01*
X256675518Y-138900000D01*
X256608479Y-138880315D01*
X256562724Y-138827511D01*
X256559336Y-138819333D01*
X256543797Y-138777671D01*
X256543793Y-138777664D01*
X256457547Y-138662455D01*
X256457544Y-138662452D01*
X256342335Y-138576206D01*
X256342328Y-138576202D01*
X256207482Y-138525908D01*
X256207483Y-138525908D01*
X256147883Y-138519501D01*
X256147881Y-138519500D01*
X256147873Y-138519500D01*
X256147864Y-138519500D01*
X255252129Y-138519500D01*
X255252123Y-138519501D01*
X255192516Y-138525908D01*
X255057671Y-138576202D01*
X255057664Y-138576206D01*
X254942455Y-138662452D01*
X254942452Y-138662455D01*
X254856206Y-138777664D01*
X254856202Y-138777671D01*
X254805908Y-138912517D01*
X254799501Y-138972116D01*
X254799500Y-138972135D01*
X254799501Y-141676000D01*
X254779816Y-141743039D01*
X254727013Y-141788794D01*
X254675501Y-141800000D01*
X247024000Y-141800000D01*
X246956961Y-141780315D01*
X246911206Y-141727511D01*
X246900000Y-141676000D01*
X246900000Y-139085839D01*
X246919685Y-139018800D01*
X246972489Y-138973045D01*
X246980322Y-138969787D01*
X257233512Y-135113082D01*
X257778894Y-134907939D01*
X257822550Y-134900000D01*
X267376000Y-134900000D01*
X267443039Y-134919685D01*
G37*
%TD.AperFunction*%
%TD*%
%TA.AperFunction,Conductor*%
%TO.N,/MOT_C*%
G36*
X247743039Y-158619685D02*
G01*
X247788794Y-158672489D01*
X247800000Y-158724000D01*
X247800000Y-166079402D01*
X247780315Y-166146441D01*
X247763681Y-166167083D01*
X247467582Y-166463181D01*
X247406259Y-166496666D01*
X247379901Y-166499500D01*
X244932129Y-166499500D01*
X244932123Y-166499501D01*
X244872516Y-166505908D01*
X244737671Y-166556202D01*
X244737664Y-166556206D01*
X244622455Y-166642452D01*
X244622452Y-166642455D01*
X244536206Y-166757664D01*
X244536202Y-166757671D01*
X244485908Y-166892517D01*
X244479501Y-166952116D01*
X244479500Y-166952135D01*
X244479500Y-167847870D01*
X244479501Y-167847876D01*
X244485908Y-167907483D01*
X244536202Y-168042328D01*
X244536206Y-168042335D01*
X244622452Y-168157544D01*
X244622455Y-168157547D01*
X244737664Y-168243793D01*
X244737671Y-168243797D01*
X244872517Y-168294091D01*
X244872516Y-168294091D01*
X244879444Y-168294835D01*
X244932127Y-168300500D01*
X247008517Y-168300499D01*
X247075556Y-168320184D01*
X247121311Y-168372987D01*
X247131255Y-168442146D01*
X247125130Y-168466659D01*
X243129769Y-179517660D01*
X243116319Y-179536008D01*
X243106869Y-179556703D01*
X243096058Y-179563650D01*
X243088463Y-179574013D01*
X243067228Y-179582177D01*
X243048091Y-179594477D01*
X243027569Y-179597427D01*
X243023249Y-179599089D01*
X243013156Y-179599500D01*
X242824000Y-179599500D01*
X242756961Y-179579815D01*
X242711206Y-179527011D01*
X242700000Y-179475500D01*
X242700000Y-169512389D01*
X242702451Y-169487856D01*
X242908564Y-168466659D01*
X242960421Y-168209729D01*
X242962990Y-168199341D01*
X242965022Y-168192419D01*
X242965024Y-168192416D01*
X242967276Y-168176750D01*
X242968447Y-168169964D01*
X244879924Y-158699466D01*
X244912483Y-158637647D01*
X244973296Y-158603244D01*
X245001473Y-158600000D01*
X247676000Y-158600000D01*
X247743039Y-158619685D01*
G37*
%TD.AperFunction*%
%TD*%
%TA.AperFunction,Conductor*%
%TO.N,+1V1*%
G36*
X313593459Y-146053313D02*
G01*
X313637806Y-146081814D01*
X317962140Y-150406148D01*
X317995625Y-150467471D01*
X317998459Y-150493829D01*
X317998459Y-150579887D01*
X318029220Y-150734530D01*
X318029223Y-150734542D01*
X318089561Y-150880213D01*
X318089568Y-150880226D01*
X318177169Y-151011329D01*
X318177172Y-151011333D01*
X318288666Y-151122827D01*
X318288670Y-151122830D01*
X318351925Y-151165096D01*
X318396730Y-151218708D01*
X318405437Y-151288033D01*
X318375283Y-151351061D01*
X318370715Y-151355879D01*
X313849937Y-155876657D01*
X313788614Y-155910142D01*
X313718922Y-155905158D01*
X313674575Y-155876657D01*
X308758769Y-150960851D01*
X308734270Y-150915984D01*
X310777138Y-150915984D01*
X310777138Y-151086097D01*
X310817848Y-151251265D01*
X310849457Y-151311490D01*
X310896905Y-151401893D01*
X310942277Y-151456336D01*
X313143664Y-153657723D01*
X313198107Y-153703095D01*
X313347227Y-153781360D01*
X313348734Y-153782151D01*
X313513902Y-153822862D01*
X313513903Y-153822862D01*
X313684016Y-153822862D01*
X313766599Y-153802506D01*
X313849184Y-153782151D01*
X313999811Y-153703095D01*
X314054254Y-153657723D01*
X316255641Y-151456336D01*
X316301013Y-151401893D01*
X316380069Y-151251266D01*
X316420780Y-151086097D01*
X316420780Y-150915985D01*
X316380069Y-150750816D01*
X316301013Y-150600189D01*
X316255641Y-150545746D01*
X314054254Y-148344359D01*
X313999811Y-148298987D01*
X313887767Y-148240181D01*
X313849183Y-148219930D01*
X313684016Y-148179220D01*
X313684015Y-148179220D01*
X313513903Y-148179220D01*
X313513902Y-148179220D01*
X313348734Y-148219930D01*
X313198105Y-148298988D01*
X313143668Y-148344355D01*
X313143653Y-148344369D01*
X310942287Y-150545735D01*
X310942273Y-150545750D01*
X310896906Y-150600187D01*
X310817848Y-150750816D01*
X310777138Y-150915984D01*
X308734270Y-150915984D01*
X308725284Y-150899528D01*
X308730268Y-150829836D01*
X308758769Y-150785489D01*
X310107439Y-149436819D01*
X310168762Y-149403334D01*
X310195120Y-149400500D01*
X310278844Y-149400500D01*
X310278845Y-149400499D01*
X310433497Y-149369737D01*
X310579179Y-149309394D01*
X310710289Y-149221789D01*
X310821789Y-149110289D01*
X310909394Y-148979179D01*
X310969737Y-148833497D01*
X311000500Y-148678842D01*
X311000500Y-148595120D01*
X311020185Y-148528081D01*
X311036819Y-148507439D01*
X313462444Y-146081814D01*
X313523767Y-146048329D01*
X313593459Y-146053313D01*
G37*
%TD.AperFunction*%
%TD*%
%TA.AperFunction,Conductor*%
%TO.N,/SPA*%
G36*
X278942539Y-133019685D02*
G01*
X278988294Y-133072489D01*
X278999500Y-133124000D01*
X278999500Y-135676000D01*
X278979815Y-135743039D01*
X278927011Y-135788794D01*
X278875500Y-135800000D01*
X275599999Y-135800000D01*
X274037000Y-138046812D01*
X273982557Y-138090604D01*
X273935208Y-138100000D01*
X272962543Y-138100000D01*
X272895504Y-138080315D01*
X272862825Y-138049704D01*
X271320971Y-135963666D01*
X271296953Y-135898055D01*
X271297400Y-135876707D01*
X271297708Y-135873832D01*
X271300500Y-135847873D01*
X271300499Y-133123999D01*
X271320184Y-133056961D01*
X271372987Y-133011206D01*
X271424499Y-133000000D01*
X278875500Y-133000000D01*
X278942539Y-133019685D01*
G37*
%TD.AperFunction*%
%TD*%
%TA.AperFunction,Conductor*%
%TO.N,/MOT_A*%
G36*
X288742539Y-119419685D02*
G01*
X288788294Y-119472489D01*
X288799500Y-119524000D01*
X288799500Y-122126187D01*
X288779815Y-122193226D01*
X288727011Y-122238981D01*
X288704339Y-122246787D01*
X279714218Y-124396600D01*
X279685379Y-124400000D01*
X269624000Y-124400000D01*
X269556961Y-124380315D01*
X269511206Y-124327511D01*
X269500000Y-124276000D01*
X269500000Y-122594783D01*
X269519685Y-122527744D01*
X269572489Y-122481989D01*
X269591453Y-122475131D01*
X280884022Y-119404345D01*
X280916560Y-119400000D01*
X288675500Y-119400000D01*
X288742539Y-119419685D01*
G37*
%TD.AperFunction*%
%TD*%
M02*
