%TF.GenerationSoftware,KiCad,Pcbnew,10.0.1*%
%TF.CreationDate,2026-05-27T22:48:48-07:00*%
%TF.ProjectId,eye-of-terror,6579652d-6f66-42d7-9465-72726f722e6b,rev?*%
%TF.SameCoordinates,Original*%
%TF.FileFunction,Paste,Top*%
%TF.FilePolarity,Positive*%
%FSLAX46Y46*%
G04 Gerber Fmt 4.6, Leading zero omitted, Abs format (unit mm)*
G04 Created by KiCad (PCBNEW 10.0.1) date 2026-05-27 22:48:48*
%MOMM*%
%LPD*%
G01*
G04 APERTURE LIST*
G04 Aperture macros list*
%AMRoundRect*
0 Rectangle with rounded corners*
0 $1 Rounding radius*
0 $2 $3 $4 $5 $6 $7 $8 $9 X,Y pos of 4 corners*
0 Add a 4 corners polygon primitive as box body*
4,1,4,$2,$3,$4,$5,$6,$7,$8,$9,$2,$3,0*
0 Add four circle primitives for the rounded corners*
1,1,$1+$1,$2,$3*
1,1,$1+$1,$4,$5*
1,1,$1+$1,$6,$7*
1,1,$1+$1,$8,$9*
0 Add four rect primitives between the rounded corners*
20,1,$1+$1,$2,$3,$4,$5,0*
20,1,$1+$1,$4,$5,$6,$7,0*
20,1,$1+$1,$6,$7,$8,$9,0*
20,1,$1+$1,$8,$9,$2,$3,0*%
%AMHorizOval*
0 Thick line with rounded ends*
0 $1 width*
0 $2 $3 position (X,Y) of the first rounded end (center of the circle)*
0 $4 $5 position (X,Y) of the second rounded end (center of the circle)*
0 Add line between two ends*
20,1,$1,$2,$3,$4,$5,0*
0 Add two circle primitives to create the rounded ends*
1,1,$1,$2,$3*
1,1,$1,$4,$5*%
%AMRotRect*
0 Rectangle, with rotation*
0 The origin of the aperture is its center*
0 $1 length*
0 $2 width*
0 $3 Rotation angle, in degrees counterclockwise*
0 Add horizontal line*
21,1,$1,$2,0,0,$3*%
G04 Aperture macros list end*
%ADD10C,0.000000*%
%ADD11C,0.010000*%
%ADD12RoundRect,0.237500X-0.250000X-0.237500X0.250000X-0.237500X0.250000X0.237500X-0.250000X0.237500X0*%
%ADD13R,1.000000X0.600000*%
%ADD14RoundRect,0.375000X-0.875000X1.325000X-0.875000X-1.325000X0.875000X-1.325000X0.875000X1.325000X0*%
%ADD15RoundRect,0.155000X-0.212500X-0.155000X0.212500X-0.155000X0.212500X0.155000X-0.212500X0.155000X0*%
%ADD16HorizOval,0.230000X-0.130814X0.130814X0.130814X-0.130814X0*%
%ADD17HorizOval,0.230000X-0.130814X-0.130814X0.130814X0.130814X0*%
%ADD18RotRect,0.304800X0.863600X135.000000*%
%ADD19RoundRect,0.160000X-0.197500X-0.160000X0.197500X-0.160000X0.197500X0.160000X-0.197500X0.160000X0*%
%ADD20RoundRect,0.237500X0.125341X0.351215X-0.368561X0.056791X-0.125341X-0.351215X0.368561X-0.056791X0*%
%ADD21RoundRect,0.160000X0.197500X0.160000X-0.197500X0.160000X-0.197500X-0.160000X0.197500X-0.160000X0*%
%ADD22RoundRect,0.237500X-0.237500X0.250000X-0.237500X-0.250000X0.237500X-0.250000X0.237500X0.250000X0*%
%ADD23RoundRect,0.237500X0.237500X-0.300000X0.237500X0.300000X-0.237500X0.300000X-0.237500X-0.300000X0*%
%ADD24RoundRect,0.250000X-0.550000X1.250000X-0.550000X-1.250000X0.550000X-1.250000X0.550000X1.250000X0*%
%ADD25RoundRect,0.250001X0.462499X0.624999X-0.462499X0.624999X-0.462499X-0.624999X0.462499X-0.624999X0*%
%ADD26RoundRect,0.125000X-0.176777X0.000000X0.000000X-0.176777X0.176777X0.000000X0.000000X0.176777X0*%
%ADD27HorizOval,0.220000X-0.197990X0.197990X0.197990X-0.197990X0*%
%ADD28HorizOval,0.220000X-0.197990X-0.197990X0.197990X0.197990X0*%
%ADD29RoundRect,0.237500X-0.300000X-0.237500X0.300000X-0.237500X0.300000X0.237500X-0.300000X0.237500X0*%
%ADD30R,0.700000X2.600000*%
%ADD31C,1.000000*%
%ADD32RoundRect,0.155000X0.155000X-0.212500X0.155000X0.212500X-0.155000X0.212500X-0.155000X-0.212500X0*%
%ADD33RoundRect,0.250000X-1.000000X-0.900000X1.000000X-0.900000X1.000000X0.900000X-1.000000X0.900000X0*%
%ADD34RoundRect,0.237500X0.250000X0.237500X-0.250000X0.237500X-0.250000X-0.237500X0.250000X-0.237500X0*%
%ADD35RoundRect,0.237500X0.237500X-0.250000X0.237500X0.250000X-0.237500X0.250000X-0.237500X-0.250000X0*%
%ADD36RoundRect,0.250000X-0.400000X-0.625000X0.400000X-0.625000X0.400000X0.625000X-0.400000X0.625000X0*%
%ADD37RoundRect,0.160000X-0.026517X-0.252791X0.252791X0.026517X0.026517X0.252791X-0.252791X-0.026517X0*%
%ADD38RoundRect,0.160000X0.160000X-0.197500X0.160000X0.197500X-0.160000X0.197500X-0.160000X-0.197500X0*%
%ADD39RoundRect,0.250001X0.999999X-0.499999X0.999999X0.499999X-0.999999X0.499999X-0.999999X-0.499999X0*%
%ADD40RoundRect,0.162500X0.837500X0.162500X-0.837500X0.162500X-0.837500X-0.162500X0.837500X-0.162500X0*%
%ADD41R,2.600000X0.700000*%
%ADD42RoundRect,0.250001X-0.462499X-0.624999X0.462499X-0.624999X0.462499X0.624999X-0.462499X0.624999X0*%
%ADD43RoundRect,0.250001X-0.624999X0.462499X-0.624999X-0.462499X0.624999X-0.462499X0.624999X0.462499X0*%
%ADD44RoundRect,0.160000X0.026517X0.252791X-0.252791X-0.026517X-0.026517X-0.252791X0.252791X0.026517X0*%
%ADD45RoundRect,0.155000X-0.259862X0.040659X0.040659X-0.259862X0.259862X-0.040659X-0.040659X0.259862X0*%
%ADD46RoundRect,0.250000X-0.708473X-1.167504X1.339407X0.266437X0.708473X1.167504X-1.339407X-0.266437X0*%
%ADD47R,0.508000X0.901700*%
%ADD48RoundRect,0.250000X0.400000X0.625000X-0.400000X0.625000X-0.400000X-0.625000X0.400000X-0.625000X0*%
%ADD49RoundRect,0.160000X0.252791X-0.026517X-0.026517X0.252791X-0.252791X0.026517X0.026517X-0.252791X0*%
%ADD50RoundRect,0.250000X1.000000X0.900000X-1.000000X0.900000X-1.000000X-0.900000X1.000000X-0.900000X0*%
%ADD51RoundRect,0.237500X-0.237500X0.300000X-0.237500X-0.300000X0.237500X-0.300000X0.237500X0.300000X0*%
%ADD52RoundRect,0.200000X-0.200000X-0.800000X0.200000X-0.800000X0.200000X0.800000X-0.200000X0.800000X0*%
%ADD53RoundRect,0.155000X0.212500X0.155000X-0.212500X0.155000X-0.212500X-0.155000X0.212500X-0.155000X0*%
%ADD54RoundRect,0.237500X0.300000X0.237500X-0.300000X0.237500X-0.300000X-0.237500X0.300000X-0.237500X0*%
%ADD55RoundRect,0.162500X-0.162500X0.650000X-0.162500X-0.650000X0.162500X-0.650000X0.162500X0.650000X0*%
%ADD56RoundRect,0.250000X-0.565685X0.070711X0.070711X-0.565685X0.565685X-0.070711X-0.070711X0.565685X0*%
%ADD57R,1.850000X4.100000*%
%ADD58RoundRect,0.200000X0.200000X0.800000X-0.200000X0.800000X-0.200000X-0.800000X0.200000X-0.800000X0*%
%ADD59RoundRect,0.250000X0.625000X-0.400000X0.625000X0.400000X-0.625000X0.400000X-0.625000X-0.400000X0*%
G04 APERTURE END LIST*
D10*
%TO.C,U7*%
G36*
X285089842Y-154169454D02*
G01*
X284262527Y-154996769D01*
X283435212Y-154169454D01*
X284262527Y-153342139D01*
X285089842Y-154169454D01*
G37*
G36*
X286058579Y-153200718D02*
G01*
X285231264Y-154028033D01*
X284403949Y-153200718D01*
X285231264Y-152373403D01*
X286058579Y-153200718D01*
G37*
G36*
X286058579Y-155138190D02*
G01*
X285231264Y-155965505D01*
X284403949Y-155138190D01*
X285231264Y-154310875D01*
X286058579Y-155138190D01*
G37*
G36*
X287027315Y-152231981D02*
G01*
X286200000Y-153059296D01*
X285372685Y-152231981D01*
X286200000Y-151404666D01*
X287027315Y-152231981D01*
G37*
G36*
X287027315Y-154169454D02*
G01*
X286200000Y-154996769D01*
X285372685Y-154169454D01*
X286200000Y-153342139D01*
X287027315Y-154169454D01*
G37*
G36*
X287027315Y-156106927D02*
G01*
X286200000Y-156934242D01*
X285372685Y-156106927D01*
X286200000Y-155279612D01*
X287027315Y-156106927D01*
G37*
G36*
X287996051Y-153200718D02*
G01*
X287168736Y-154028033D01*
X286341421Y-153200718D01*
X287168736Y-152373403D01*
X287996051Y-153200718D01*
G37*
G36*
X287996051Y-155138190D02*
G01*
X287168736Y-155965505D01*
X286341421Y-155138190D01*
X287168736Y-154310875D01*
X287996051Y-155138190D01*
G37*
G36*
X288964788Y-154169454D02*
G01*
X288137473Y-154996769D01*
X287310158Y-154169454D01*
X288137473Y-153342139D01*
X288964788Y-154169454D01*
G37*
D11*
%TO.C,U8*%
X325725905Y-151093637D02*
X325728733Y-151093637D01*
X325730855Y-151094344D01*
X325733683Y-151094344D01*
X325736511Y-151095758D01*
X325738633Y-151096465D01*
X325741461Y-151097879D01*
X325742875Y-151099293D01*
X325745704Y-151100708D01*
X325747118Y-151102122D01*
X325749947Y-151103536D01*
X325751361Y-151104950D01*
X325753482Y-151107072D01*
X325831264Y-151184853D01*
X325833385Y-151186975D01*
X325834799Y-151188389D01*
X325836214Y-151191217D01*
X325837628Y-151192632D01*
X325839042Y-151195460D01*
X325840456Y-151196874D01*
X325841870Y-151199703D01*
X325842578Y-151201824D01*
X325843992Y-151204652D01*
X325843992Y-151207481D01*
X325844699Y-151209602D01*
X325844699Y-151212431D01*
X325845406Y-151214552D01*
X325845406Y-151217380D01*
X325845406Y-151220209D01*
X325845406Y-151223037D01*
X325845406Y-151225866D01*
X325844699Y-151227987D01*
X325844699Y-151230815D01*
X325843992Y-151232937D01*
X325843992Y-151235765D01*
X325842578Y-151238593D01*
X325841870Y-151240715D01*
X325840456Y-151243543D01*
X325839042Y-151244957D01*
X325837628Y-151247786D01*
X325836214Y-151249200D01*
X325834799Y-151252028D01*
X325833385Y-151253443D01*
X325831264Y-151255564D01*
X325753482Y-151333346D01*
X325751361Y-151335467D01*
X325749947Y-151336881D01*
X325747118Y-151338296D01*
X325745704Y-151339710D01*
X325742875Y-151341124D01*
X325741461Y-151342538D01*
X325738633Y-151343952D01*
X325736511Y-151344659D01*
X325733683Y-151346074D01*
X325730855Y-151346074D01*
X325728733Y-151346781D01*
X325725905Y-151346781D01*
X325723784Y-151347488D01*
X325720955Y-151347488D01*
X325718127Y-151347488D01*
X325715298Y-151347488D01*
X325712470Y-151347488D01*
X325710349Y-151346781D01*
X325707520Y-151346781D01*
X325705399Y-151346074D01*
X325702570Y-151346074D01*
X325699742Y-151344659D01*
X325697621Y-151343952D01*
X325694792Y-151342538D01*
X325693378Y-151341124D01*
X325690550Y-151339710D01*
X325689135Y-151338296D01*
X325686307Y-151336881D01*
X325684893Y-151335467D01*
X325682771Y-151333346D01*
X325604990Y-151255564D01*
X325602868Y-151253443D01*
X325601454Y-151252028D01*
X325600040Y-151249200D01*
X325598626Y-151247786D01*
X325597211Y-151244957D01*
X325595797Y-151243543D01*
X325594383Y-151240715D01*
X325593676Y-151238593D01*
X325592262Y-151235765D01*
X325592262Y-151232937D01*
X325591555Y-151230815D01*
X325591555Y-151227987D01*
X325590847Y-151225866D01*
X325590847Y-151223037D01*
X325590847Y-151220209D01*
X325590847Y-151217380D01*
X325590847Y-151214552D01*
X325591555Y-151212431D01*
X325591555Y-151209602D01*
X325592262Y-151207481D01*
X325592262Y-151204652D01*
X325593676Y-151201824D01*
X325594383Y-151199703D01*
X325595797Y-151196874D01*
X325597211Y-151195460D01*
X325598626Y-151192632D01*
X325600040Y-151191217D01*
X325601454Y-151188389D01*
X325602868Y-151186975D01*
X325604990Y-151184853D01*
X325682771Y-151107072D01*
X325684893Y-151104950D01*
X325686307Y-151103536D01*
X325689135Y-151102122D01*
X325690550Y-151100708D01*
X325693378Y-151099293D01*
X325694792Y-151097879D01*
X325697621Y-151096465D01*
X325699742Y-151095758D01*
X325702570Y-151094344D01*
X325705399Y-151094344D01*
X325707520Y-151093637D01*
X325710349Y-151093637D01*
X325712470Y-151092929D01*
X325715298Y-151092929D01*
X325718127Y-151092929D01*
X325720955Y-151092929D01*
X325723784Y-151092929D01*
X325725905Y-151093637D01*
G36*
X325725905Y-151093637D02*
G01*
X325728733Y-151093637D01*
X325730855Y-151094344D01*
X325733683Y-151094344D01*
X325736511Y-151095758D01*
X325738633Y-151096465D01*
X325741461Y-151097879D01*
X325742875Y-151099293D01*
X325745704Y-151100708D01*
X325747118Y-151102122D01*
X325749947Y-151103536D01*
X325751361Y-151104950D01*
X325753482Y-151107072D01*
X325831264Y-151184853D01*
X325833385Y-151186975D01*
X325834799Y-151188389D01*
X325836214Y-151191217D01*
X325837628Y-151192632D01*
X325839042Y-151195460D01*
X325840456Y-151196874D01*
X325841870Y-151199703D01*
X325842578Y-151201824D01*
X325843992Y-151204652D01*
X325843992Y-151207481D01*
X325844699Y-151209602D01*
X325844699Y-151212431D01*
X325845406Y-151214552D01*
X325845406Y-151217380D01*
X325845406Y-151220209D01*
X325845406Y-151223037D01*
X325845406Y-151225866D01*
X325844699Y-151227987D01*
X325844699Y-151230815D01*
X325843992Y-151232937D01*
X325843992Y-151235765D01*
X325842578Y-151238593D01*
X325841870Y-151240715D01*
X325840456Y-151243543D01*
X325839042Y-151244957D01*
X325837628Y-151247786D01*
X325836214Y-151249200D01*
X325834799Y-151252028D01*
X325833385Y-151253443D01*
X325831264Y-151255564D01*
X325753482Y-151333346D01*
X325751361Y-151335467D01*
X325749947Y-151336881D01*
X325747118Y-151338296D01*
X325745704Y-151339710D01*
X325742875Y-151341124D01*
X325741461Y-151342538D01*
X325738633Y-151343952D01*
X325736511Y-151344659D01*
X325733683Y-151346074D01*
X325730855Y-151346074D01*
X325728733Y-151346781D01*
X325725905Y-151346781D01*
X325723784Y-151347488D01*
X325720955Y-151347488D01*
X325718127Y-151347488D01*
X325715298Y-151347488D01*
X325712470Y-151347488D01*
X325710349Y-151346781D01*
X325707520Y-151346781D01*
X325705399Y-151346074D01*
X325702570Y-151346074D01*
X325699742Y-151344659D01*
X325697621Y-151343952D01*
X325694792Y-151342538D01*
X325693378Y-151341124D01*
X325690550Y-151339710D01*
X325689135Y-151338296D01*
X325686307Y-151336881D01*
X325684893Y-151335467D01*
X325682771Y-151333346D01*
X325604990Y-151255564D01*
X325602868Y-151253443D01*
X325601454Y-151252028D01*
X325600040Y-151249200D01*
X325598626Y-151247786D01*
X325597211Y-151244957D01*
X325595797Y-151243543D01*
X325594383Y-151240715D01*
X325593676Y-151238593D01*
X325592262Y-151235765D01*
X325592262Y-151232937D01*
X325591555Y-151230815D01*
X325591555Y-151227987D01*
X325590847Y-151225866D01*
X325590847Y-151223037D01*
X325590847Y-151220209D01*
X325590847Y-151217380D01*
X325590847Y-151214552D01*
X325591555Y-151212431D01*
X325591555Y-151209602D01*
X325592262Y-151207481D01*
X325592262Y-151204652D01*
X325593676Y-151201824D01*
X325594383Y-151199703D01*
X325595797Y-151196874D01*
X325597211Y-151195460D01*
X325598626Y-151192632D01*
X325600040Y-151191217D01*
X325601454Y-151188389D01*
X325602868Y-151186975D01*
X325604990Y-151184853D01*
X325682771Y-151107072D01*
X325684893Y-151104950D01*
X325686307Y-151103536D01*
X325689135Y-151102122D01*
X325690550Y-151100708D01*
X325693378Y-151099293D01*
X325694792Y-151097879D01*
X325697621Y-151096465D01*
X325699742Y-151095758D01*
X325702570Y-151094344D01*
X325705399Y-151094344D01*
X325707520Y-151093637D01*
X325710349Y-151093637D01*
X325712470Y-151092929D01*
X325715298Y-151092929D01*
X325718127Y-151092929D01*
X325720955Y-151092929D01*
X325723784Y-151092929D01*
X325725905Y-151093637D01*
G37*
X325754189Y-151546185D02*
X325757018Y-151546185D01*
X325759139Y-151546892D01*
X325761967Y-151546892D01*
X325764796Y-151548306D01*
X325766917Y-151549013D01*
X325769746Y-151550428D01*
X325771160Y-151551842D01*
X325773988Y-151553256D01*
X325775402Y-151554670D01*
X325778231Y-151556084D01*
X325779645Y-151557499D01*
X325781766Y-151559620D01*
X325859548Y-151637402D01*
X325861669Y-151639523D01*
X325863084Y-151640937D01*
X325864498Y-151643766D01*
X325865912Y-151645180D01*
X325867326Y-151648008D01*
X325868740Y-151649422D01*
X325870155Y-151652251D01*
X325870862Y-151654372D01*
X325872276Y-151657201D01*
X325872276Y-151660029D01*
X325872983Y-151662150D01*
X325872983Y-151664979D01*
X325873690Y-151667100D01*
X325873690Y-151669929D01*
X325873690Y-151672757D01*
X325873690Y-151675585D01*
X325873690Y-151678414D01*
X325872983Y-151680535D01*
X325872983Y-151683364D01*
X325872276Y-151685485D01*
X325872276Y-151688313D01*
X325870862Y-151691142D01*
X325870155Y-151693263D01*
X325868740Y-151696092D01*
X325867326Y-151697506D01*
X325865912Y-151700334D01*
X325864498Y-151701748D01*
X325863084Y-151704577D01*
X325861669Y-151705991D01*
X325859548Y-151708112D01*
X325781766Y-151785894D01*
X325779645Y-151788015D01*
X325778231Y-151789430D01*
X325775402Y-151790844D01*
X325773988Y-151792258D01*
X325771160Y-151793672D01*
X325769746Y-151795086D01*
X325766917Y-151796501D01*
X325764796Y-151797208D01*
X325761967Y-151798622D01*
X325759139Y-151798622D01*
X325757018Y-151799329D01*
X325754189Y-151799329D01*
X325752068Y-151800036D01*
X325749239Y-151800036D01*
X325746411Y-151800036D01*
X325743583Y-151800036D01*
X325740754Y-151800036D01*
X325738633Y-151799329D01*
X325735804Y-151799329D01*
X325733683Y-151798622D01*
X325730855Y-151798622D01*
X325728026Y-151797208D01*
X325725905Y-151796501D01*
X325723076Y-151795086D01*
X325721662Y-151793672D01*
X325718834Y-151792258D01*
X325717420Y-151790844D01*
X325714591Y-151789430D01*
X325713177Y-151788015D01*
X325711056Y-151785894D01*
X325633274Y-151708112D01*
X325631153Y-151705991D01*
X325629738Y-151704577D01*
X325628324Y-151701748D01*
X325626910Y-151700334D01*
X325625496Y-151697506D01*
X325624082Y-151696092D01*
X325622667Y-151693263D01*
X325621960Y-151691142D01*
X325620546Y-151688313D01*
X325620546Y-151685485D01*
X325619839Y-151683364D01*
X325619839Y-151680535D01*
X325619132Y-151678414D01*
X325619132Y-151675585D01*
X325619132Y-151672757D01*
X325619132Y-151669929D01*
X325619132Y-151667100D01*
X325619839Y-151664979D01*
X325619839Y-151662150D01*
X325620546Y-151660029D01*
X325620546Y-151657201D01*
X325621960Y-151654372D01*
X325622667Y-151652251D01*
X325624082Y-151649422D01*
X325625496Y-151648008D01*
X325626910Y-151645180D01*
X325628324Y-151643766D01*
X325629738Y-151640937D01*
X325631153Y-151639523D01*
X325633274Y-151637402D01*
X325711056Y-151559620D01*
X325713177Y-151557499D01*
X325714591Y-151556084D01*
X325717420Y-151554670D01*
X325718834Y-151553256D01*
X325721662Y-151551842D01*
X325723076Y-151550428D01*
X325725905Y-151549013D01*
X325728026Y-151548306D01*
X325730855Y-151546892D01*
X325733683Y-151546892D01*
X325735804Y-151546185D01*
X325738633Y-151546185D01*
X325740754Y-151545478D01*
X325743583Y-151545478D01*
X325746411Y-151545478D01*
X325749239Y-151545478D01*
X325752068Y-151545478D01*
X325754189Y-151546185D01*
G36*
X325754189Y-151546185D02*
G01*
X325757018Y-151546185D01*
X325759139Y-151546892D01*
X325761967Y-151546892D01*
X325764796Y-151548306D01*
X325766917Y-151549013D01*
X325769746Y-151550428D01*
X325771160Y-151551842D01*
X325773988Y-151553256D01*
X325775402Y-151554670D01*
X325778231Y-151556084D01*
X325779645Y-151557499D01*
X325781766Y-151559620D01*
X325859548Y-151637402D01*
X325861669Y-151639523D01*
X325863084Y-151640937D01*
X325864498Y-151643766D01*
X325865912Y-151645180D01*
X325867326Y-151648008D01*
X325868740Y-151649422D01*
X325870155Y-151652251D01*
X325870862Y-151654372D01*
X325872276Y-151657201D01*
X325872276Y-151660029D01*
X325872983Y-151662150D01*
X325872983Y-151664979D01*
X325873690Y-151667100D01*
X325873690Y-151669929D01*
X325873690Y-151672757D01*
X325873690Y-151675585D01*
X325873690Y-151678414D01*
X325872983Y-151680535D01*
X325872983Y-151683364D01*
X325872276Y-151685485D01*
X325872276Y-151688313D01*
X325870862Y-151691142D01*
X325870155Y-151693263D01*
X325868740Y-151696092D01*
X325867326Y-151697506D01*
X325865912Y-151700334D01*
X325864498Y-151701748D01*
X325863084Y-151704577D01*
X325861669Y-151705991D01*
X325859548Y-151708112D01*
X325781766Y-151785894D01*
X325779645Y-151788015D01*
X325778231Y-151789430D01*
X325775402Y-151790844D01*
X325773988Y-151792258D01*
X325771160Y-151793672D01*
X325769746Y-151795086D01*
X325766917Y-151796501D01*
X325764796Y-151797208D01*
X325761967Y-151798622D01*
X325759139Y-151798622D01*
X325757018Y-151799329D01*
X325754189Y-151799329D01*
X325752068Y-151800036D01*
X325749239Y-151800036D01*
X325746411Y-151800036D01*
X325743583Y-151800036D01*
X325740754Y-151800036D01*
X325738633Y-151799329D01*
X325735804Y-151799329D01*
X325733683Y-151798622D01*
X325730855Y-151798622D01*
X325728026Y-151797208D01*
X325725905Y-151796501D01*
X325723076Y-151795086D01*
X325721662Y-151793672D01*
X325718834Y-151792258D01*
X325717420Y-151790844D01*
X325714591Y-151789430D01*
X325713177Y-151788015D01*
X325711056Y-151785894D01*
X325633274Y-151708112D01*
X325631153Y-151705991D01*
X325629738Y-151704577D01*
X325628324Y-151701748D01*
X325626910Y-151700334D01*
X325625496Y-151697506D01*
X325624082Y-151696092D01*
X325622667Y-151693263D01*
X325621960Y-151691142D01*
X325620546Y-151688313D01*
X325620546Y-151685485D01*
X325619839Y-151683364D01*
X325619839Y-151680535D01*
X325619132Y-151678414D01*
X325619132Y-151675585D01*
X325619132Y-151672757D01*
X325619132Y-151669929D01*
X325619132Y-151667100D01*
X325619839Y-151664979D01*
X325619839Y-151662150D01*
X325620546Y-151660029D01*
X325620546Y-151657201D01*
X325621960Y-151654372D01*
X325622667Y-151652251D01*
X325624082Y-151649422D01*
X325625496Y-151648008D01*
X325626910Y-151645180D01*
X325628324Y-151643766D01*
X325629738Y-151640937D01*
X325631153Y-151639523D01*
X325633274Y-151637402D01*
X325711056Y-151559620D01*
X325713177Y-151557499D01*
X325714591Y-151556084D01*
X325717420Y-151554670D01*
X325718834Y-151553256D01*
X325721662Y-151551842D01*
X325723076Y-151550428D01*
X325725905Y-151549013D01*
X325728026Y-151548306D01*
X325730855Y-151546892D01*
X325733683Y-151546892D01*
X325735804Y-151546185D01*
X325738633Y-151546185D01*
X325740754Y-151545478D01*
X325743583Y-151545478D01*
X325746411Y-151545478D01*
X325749239Y-151545478D01*
X325752068Y-151545478D01*
X325754189Y-151546185D01*
G37*
X326206737Y-151574469D02*
X326209566Y-151574469D01*
X326211687Y-151575176D01*
X326214516Y-151575176D01*
X326217344Y-151576590D01*
X326219465Y-151577298D01*
X326222294Y-151578712D01*
X326223708Y-151580126D01*
X326226536Y-151581540D01*
X326227951Y-151582954D01*
X326230779Y-151584369D01*
X326232193Y-151585783D01*
X326234315Y-151587904D01*
X326312096Y-151665686D01*
X326314218Y-151667807D01*
X326315632Y-151669221D01*
X326317046Y-151672050D01*
X326318460Y-151673464D01*
X326319875Y-151676293D01*
X326321289Y-151677707D01*
X326322703Y-151680535D01*
X326323410Y-151682657D01*
X326324824Y-151685485D01*
X326324824Y-151688313D01*
X326325531Y-151690435D01*
X326325531Y-151693263D01*
X326326239Y-151695384D01*
X326326239Y-151698213D01*
X326326239Y-151701041D01*
X326326239Y-151703870D01*
X326326239Y-151706698D01*
X326325531Y-151708819D01*
X326325531Y-151711648D01*
X326324824Y-151713769D01*
X326324824Y-151716598D01*
X326323410Y-151719426D01*
X326322703Y-151721547D01*
X326321289Y-151724376D01*
X326319875Y-151725790D01*
X326318460Y-151728618D01*
X326317046Y-151730033D01*
X326315632Y-151732861D01*
X326314218Y-151734275D01*
X326312096Y-151736397D01*
X326234315Y-151814178D01*
X326232193Y-151816300D01*
X326230779Y-151817714D01*
X326227951Y-151819128D01*
X326226536Y-151820542D01*
X326223708Y-151821957D01*
X326222294Y-151823371D01*
X326219465Y-151824785D01*
X326217344Y-151825492D01*
X326214516Y-151826906D01*
X326211687Y-151826906D01*
X326209566Y-151827613D01*
X326206737Y-151827613D01*
X326204616Y-151828321D01*
X326201788Y-151828321D01*
X326198959Y-151828321D01*
X326196131Y-151828321D01*
X326193302Y-151828321D01*
X326191181Y-151827613D01*
X326188353Y-151827613D01*
X326186231Y-151826906D01*
X326183403Y-151826906D01*
X326180575Y-151825492D01*
X326178453Y-151824785D01*
X326175625Y-151823371D01*
X326174211Y-151821957D01*
X326171382Y-151820542D01*
X326169968Y-151819128D01*
X326167140Y-151817714D01*
X326165725Y-151816300D01*
X326163604Y-151814178D01*
X326085822Y-151736397D01*
X326083701Y-151734275D01*
X326082287Y-151732861D01*
X326080872Y-151730033D01*
X326079458Y-151728618D01*
X326078044Y-151725790D01*
X326076630Y-151724376D01*
X326075216Y-151721547D01*
X326074509Y-151719426D01*
X326073094Y-151716598D01*
X326073094Y-151713769D01*
X326072387Y-151711648D01*
X326072387Y-151708819D01*
X326071680Y-151706698D01*
X326071680Y-151703870D01*
X326071680Y-151701041D01*
X326071680Y-151698213D01*
X326071680Y-151695384D01*
X326072387Y-151693263D01*
X326072387Y-151690435D01*
X326073094Y-151688313D01*
X326073094Y-151685485D01*
X326074509Y-151682657D01*
X326075216Y-151680535D01*
X326076630Y-151677707D01*
X326078044Y-151676293D01*
X326079458Y-151673464D01*
X326080872Y-151672050D01*
X326082287Y-151669221D01*
X326083701Y-151667807D01*
X326085822Y-151665686D01*
X326163604Y-151587904D01*
X326165725Y-151585783D01*
X326167140Y-151584369D01*
X326169968Y-151582954D01*
X326171382Y-151581540D01*
X326174211Y-151580126D01*
X326175625Y-151578712D01*
X326178453Y-151577298D01*
X326180575Y-151576590D01*
X326183403Y-151575176D01*
X326186231Y-151575176D01*
X326188353Y-151574469D01*
X326191181Y-151574469D01*
X326193302Y-151573762D01*
X326196131Y-151573762D01*
X326198959Y-151573762D01*
X326201788Y-151573762D01*
X326204616Y-151573762D01*
X326206737Y-151574469D01*
G36*
X326206737Y-151574469D02*
G01*
X326209566Y-151574469D01*
X326211687Y-151575176D01*
X326214516Y-151575176D01*
X326217344Y-151576590D01*
X326219465Y-151577298D01*
X326222294Y-151578712D01*
X326223708Y-151580126D01*
X326226536Y-151581540D01*
X326227951Y-151582954D01*
X326230779Y-151584369D01*
X326232193Y-151585783D01*
X326234315Y-151587904D01*
X326312096Y-151665686D01*
X326314218Y-151667807D01*
X326315632Y-151669221D01*
X326317046Y-151672050D01*
X326318460Y-151673464D01*
X326319875Y-151676293D01*
X326321289Y-151677707D01*
X326322703Y-151680535D01*
X326323410Y-151682657D01*
X326324824Y-151685485D01*
X326324824Y-151688313D01*
X326325531Y-151690435D01*
X326325531Y-151693263D01*
X326326239Y-151695384D01*
X326326239Y-151698213D01*
X326326239Y-151701041D01*
X326326239Y-151703870D01*
X326326239Y-151706698D01*
X326325531Y-151708819D01*
X326325531Y-151711648D01*
X326324824Y-151713769D01*
X326324824Y-151716598D01*
X326323410Y-151719426D01*
X326322703Y-151721547D01*
X326321289Y-151724376D01*
X326319875Y-151725790D01*
X326318460Y-151728618D01*
X326317046Y-151730033D01*
X326315632Y-151732861D01*
X326314218Y-151734275D01*
X326312096Y-151736397D01*
X326234315Y-151814178D01*
X326232193Y-151816300D01*
X326230779Y-151817714D01*
X326227951Y-151819128D01*
X326226536Y-151820542D01*
X326223708Y-151821957D01*
X326222294Y-151823371D01*
X326219465Y-151824785D01*
X326217344Y-151825492D01*
X326214516Y-151826906D01*
X326211687Y-151826906D01*
X326209566Y-151827613D01*
X326206737Y-151827613D01*
X326204616Y-151828321D01*
X326201788Y-151828321D01*
X326198959Y-151828321D01*
X326196131Y-151828321D01*
X326193302Y-151828321D01*
X326191181Y-151827613D01*
X326188353Y-151827613D01*
X326186231Y-151826906D01*
X326183403Y-151826906D01*
X326180575Y-151825492D01*
X326178453Y-151824785D01*
X326175625Y-151823371D01*
X326174211Y-151821957D01*
X326171382Y-151820542D01*
X326169968Y-151819128D01*
X326167140Y-151817714D01*
X326165725Y-151816300D01*
X326163604Y-151814178D01*
X326085822Y-151736397D01*
X326083701Y-151734275D01*
X326082287Y-151732861D01*
X326080872Y-151730033D01*
X326079458Y-151728618D01*
X326078044Y-151725790D01*
X326076630Y-151724376D01*
X326075216Y-151721547D01*
X326074509Y-151719426D01*
X326073094Y-151716598D01*
X326073094Y-151713769D01*
X326072387Y-151711648D01*
X326072387Y-151708819D01*
X326071680Y-151706698D01*
X326071680Y-151703870D01*
X326071680Y-151701041D01*
X326071680Y-151698213D01*
X326071680Y-151695384D01*
X326072387Y-151693263D01*
X326072387Y-151690435D01*
X326073094Y-151688313D01*
X326073094Y-151685485D01*
X326074509Y-151682657D01*
X326075216Y-151680535D01*
X326076630Y-151677707D01*
X326078044Y-151676293D01*
X326079458Y-151673464D01*
X326080872Y-151672050D01*
X326082287Y-151669221D01*
X326083701Y-151667807D01*
X326085822Y-151665686D01*
X326163604Y-151587904D01*
X326165725Y-151585783D01*
X326167140Y-151584369D01*
X326169968Y-151582954D01*
X326171382Y-151581540D01*
X326174211Y-151580126D01*
X326175625Y-151578712D01*
X326178453Y-151577298D01*
X326180575Y-151576590D01*
X326183403Y-151575176D01*
X326186231Y-151575176D01*
X326188353Y-151574469D01*
X326191181Y-151574469D01*
X326193302Y-151573762D01*
X326196131Y-151573762D01*
X326198959Y-151573762D01*
X326201788Y-151573762D01*
X326204616Y-151573762D01*
X326206737Y-151574469D01*
G37*
%TD*%
D12*
%TO.C,R30*%
X321325000Y-129500000D03*
X323150000Y-129500000D03*
%TD*%
D13*
%TO.C,U2*%
X381050000Y-223207500D03*
X381050000Y-224477500D03*
X381050000Y-225747500D03*
X381050000Y-227017500D03*
D14*
X383500000Y-225112500D03*
D13*
X385950000Y-227017500D03*
X385950000Y-225747500D03*
X385950000Y-224477500D03*
X385950000Y-223207500D03*
%TD*%
D15*
%TO.C,C8*%
X388132500Y-223312500D03*
X389267500Y-223312500D03*
%TD*%
D16*
%TO.C,U7*%
X285740382Y-150527854D03*
X285386829Y-150881407D03*
X285033275Y-151234962D03*
X284679722Y-151588514D03*
X284326168Y-151942068D03*
X283972614Y-152295622D03*
X283619062Y-152649174D03*
X283265508Y-153002729D03*
X282911955Y-153356281D03*
X282558400Y-153709836D03*
D17*
X282558400Y-154629072D03*
X282911953Y-154982625D03*
X283265508Y-155336179D03*
X283619060Y-155689732D03*
X283972614Y-156043286D03*
X284326168Y-156396840D03*
X284679720Y-156750392D03*
X285033275Y-157103946D03*
X285386827Y-157457499D03*
X285740382Y-157811054D03*
D16*
X286659618Y-157811054D03*
X287013173Y-157457499D03*
X287366725Y-157103946D03*
X287720280Y-156750392D03*
X288073832Y-156396840D03*
X288427386Y-156043286D03*
X288780940Y-155689732D03*
X289134492Y-155336179D03*
X289488047Y-154982625D03*
X289841600Y-154629072D03*
D17*
X289841600Y-153709836D03*
X289488045Y-153356281D03*
X289134492Y-153002729D03*
X288780938Y-152649174D03*
X288427386Y-152295622D03*
X288073832Y-151942068D03*
X287720278Y-151588514D03*
X287366725Y-151234962D03*
X287013171Y-150881407D03*
X286659618Y-150527854D03*
%TD*%
D18*
%TO.C,J2*%
X330313172Y-150915253D03*
X331536467Y-149691959D03*
X329252512Y-149854593D03*
X330475806Y-148631299D03*
X328898959Y-149501041D03*
X328545405Y-149147487D03*
X328191851Y-148793933D03*
X327838297Y-148440379D03*
X326424085Y-147026166D03*
X327647379Y-145802871D03*
X327484745Y-148086826D03*
X328708039Y-146863532D03*
X329061592Y-147217084D03*
X329415146Y-147570638D03*
X329768700Y-147924192D03*
X330122254Y-148277746D03*
%TD*%
D19*
%TO.C,R10*%
X361102500Y-197900000D03*
X362297500Y-197900000D03*
%TD*%
D20*
%TO.C,Q9*%
X309449616Y-279635831D03*
X307946436Y-280531907D03*
%TD*%
D21*
%TO.C,R24*%
X350887500Y-274650000D03*
X349692500Y-274650000D03*
%TD*%
D22*
%TO.C,R7*%
X383600000Y-228600000D03*
X383600000Y-230425000D03*
%TD*%
D12*
%TO.C,R25*%
X303987500Y-125900000D03*
X305812500Y-125900000D03*
%TD*%
D23*
%TO.C,C2*%
X383249999Y-205062500D03*
X383249999Y-203337500D03*
%TD*%
D19*
%TO.C,R50*%
X304502500Y-277500000D03*
X305697500Y-277500000D03*
%TD*%
%TO.C,R44*%
X315600000Y-274600000D03*
X316795000Y-274600000D03*
%TD*%
D24*
%TO.C,C1*%
X390449999Y-207200000D03*
X390449999Y-211600000D03*
%TD*%
D25*
%TO.C,D8*%
X318887500Y-129500000D03*
X315912500Y-129500000D03*
%TD*%
D26*
%TO.C,U1*%
X312997918Y-149798959D03*
X312396877Y-150400000D03*
X313598959Y-149197919D03*
X311795837Y-151001041D03*
X314200000Y-149798959D03*
X313598959Y-150400000D03*
X312997918Y-151001041D03*
X312396877Y-151602082D03*
X314801041Y-150400000D03*
X314200000Y-151001041D03*
X313598959Y-151602082D03*
X312997918Y-152203123D03*
X315402081Y-151001041D03*
X313598959Y-152804163D03*
X314801041Y-151602082D03*
X314200000Y-152203123D03*
D27*
X312823263Y-144851333D03*
X312540420Y-145134176D03*
X312257577Y-145417019D03*
X311974735Y-145699861D03*
X311691892Y-145982704D03*
X311409049Y-146265547D03*
X311126207Y-146548390D03*
X310843364Y-146831232D03*
X310560521Y-147114075D03*
X310277678Y-147396918D03*
X309994836Y-147679760D03*
X309711993Y-147962603D03*
X309429150Y-148245446D03*
X309146308Y-148528289D03*
X308863465Y-148811131D03*
X308580622Y-149093974D03*
X308297779Y-149376817D03*
X308014937Y-149659659D03*
X307732094Y-149942502D03*
X307449251Y-150225345D03*
D28*
X307449251Y-151776737D03*
X307732094Y-152059580D03*
X308014937Y-152342423D03*
X308297779Y-152625265D03*
X308580622Y-152908108D03*
X308863465Y-153190951D03*
X309146308Y-153473793D03*
X309429150Y-153756636D03*
X309711993Y-154039479D03*
X309994836Y-154322322D03*
X310277678Y-154605164D03*
X310560521Y-154888007D03*
X310843364Y-155170850D03*
X311126207Y-155453692D03*
X311409049Y-155736535D03*
X311691892Y-156019378D03*
X311974735Y-156302221D03*
X312257577Y-156585063D03*
X312540420Y-156867906D03*
X312823263Y-157150749D03*
D27*
X314374655Y-157150749D03*
X314657498Y-156867906D03*
X314940341Y-156585063D03*
X315223183Y-156302221D03*
X315506026Y-156019378D03*
X315788869Y-155736535D03*
X316071711Y-155453692D03*
X316354554Y-155170850D03*
X316637397Y-154888007D03*
X316920240Y-154605164D03*
X317203082Y-154322322D03*
X317485925Y-154039479D03*
X317768768Y-153756636D03*
X318051610Y-153473793D03*
X318334453Y-153190951D03*
X318617296Y-152908108D03*
X318900139Y-152625265D03*
X319182981Y-152342423D03*
X319465824Y-152059580D03*
X319748667Y-151776737D03*
D28*
X319748667Y-150225345D03*
X319465824Y-149942502D03*
X319182981Y-149659659D03*
X318900139Y-149376817D03*
X318617296Y-149093974D03*
X318334453Y-148811131D03*
X318051610Y-148528289D03*
X317768768Y-148245446D03*
X317485925Y-147962603D03*
X317203082Y-147679760D03*
X316920240Y-147396918D03*
X316637397Y-147114075D03*
X316354554Y-146831232D03*
X316071711Y-146548390D03*
X315788869Y-146265547D03*
X315506026Y-145982704D03*
X315223183Y-145699861D03*
X314940341Y-145417019D03*
X314657498Y-145134176D03*
X314374655Y-144851333D03*
%TD*%
D29*
%TO.C,C3*%
X388537500Y-203400000D03*
X390262500Y-203400000D03*
%TD*%
D30*
%TO.C,Q3*%
X255700000Y-140420000D03*
X254500000Y-140420000D03*
X253300000Y-140420000D03*
X252100000Y-140420000D03*
X250900000Y-140420000D03*
X249700000Y-140420000D03*
X248500000Y-140420000D03*
X247300000Y-140420000D03*
D31*
X255700000Y-145600000D03*
X254500000Y-145600000D03*
X253300000Y-145600000D03*
X252100000Y-145600000D03*
X250900000Y-145600000D03*
X249700000Y-145600000D03*
X248500000Y-145600000D03*
X247300000Y-145600000D03*
X255700000Y-146800000D03*
X254500000Y-146800000D03*
X253300000Y-146800000D03*
X252100000Y-146800000D03*
X250900000Y-146800000D03*
X249700000Y-146800000D03*
X248500000Y-146800000D03*
X247300000Y-146800000D03*
X254500000Y-148000000D03*
X253300000Y-148000000D03*
X252100000Y-148000000D03*
X250900000Y-148000000D03*
X249700000Y-148000000D03*
X248500000Y-148000000D03*
X254500000Y-149200000D03*
X253300000Y-149200000D03*
X252100000Y-149200000D03*
X250900000Y-149200000D03*
X249700000Y-149200000D03*
X248500000Y-149200000D03*
X254500000Y-150400000D03*
X253300000Y-150400000D03*
X252100000Y-150400000D03*
X250900000Y-150400000D03*
X249700000Y-150400000D03*
X248500000Y-150400000D03*
X255700000Y-151600000D03*
X254500000Y-151600000D03*
X253300000Y-151600000D03*
X252100000Y-151600000D03*
X250900000Y-151600000D03*
X249700000Y-151600000D03*
X248500000Y-151600000D03*
X247300000Y-151600000D03*
%TD*%
D12*
%TO.C,R29*%
X321325000Y-125300000D03*
X323150000Y-125300000D03*
%TD*%
D22*
%TO.C,R6*%
X385300000Y-228600000D03*
X385300000Y-230425000D03*
%TD*%
D25*
%TO.C,D3*%
X301887500Y-125900000D03*
X298912500Y-125900000D03*
%TD*%
D32*
%TO.C,C14*%
X371600000Y-156167500D03*
X371600000Y-155032500D03*
%TD*%
D33*
%TO.C,D2*%
X384150000Y-220012500D03*
X388450000Y-220012500D03*
%TD*%
D20*
%TO.C,Q8*%
X309449616Y-282135831D03*
X307946436Y-283031907D03*
%TD*%
D34*
%TO.C,R40*%
X362812500Y-211900000D03*
X360987500Y-211900000D03*
%TD*%
D30*
%TO.C,Q1*%
X289700000Y-120820000D03*
X288500000Y-120820000D03*
X287300000Y-120820000D03*
X286100000Y-120820000D03*
X284900000Y-120820000D03*
X283700000Y-120820000D03*
X282500000Y-120820000D03*
X281300000Y-120820000D03*
D31*
X289700000Y-126000000D03*
X288500000Y-126000000D03*
X287300000Y-126000000D03*
X286100000Y-126000000D03*
X284900000Y-126000000D03*
X283700000Y-126000000D03*
X282500000Y-126000000D03*
X281300000Y-126000000D03*
X289700000Y-127200000D03*
X288500000Y-127200000D03*
X287300000Y-127200000D03*
X286100000Y-127200000D03*
X284900000Y-127200000D03*
X283700000Y-127200000D03*
X282500000Y-127200000D03*
X281300000Y-127200000D03*
X288500000Y-128400000D03*
X287300000Y-128400000D03*
X286100000Y-128400000D03*
X284900000Y-128400000D03*
X283700000Y-128400000D03*
X282500000Y-128400000D03*
X288500000Y-129600000D03*
X287300000Y-129600000D03*
X286100000Y-129600000D03*
X284900000Y-129600000D03*
X283700000Y-129600000D03*
X282500000Y-129600000D03*
X288500000Y-130800000D03*
X287300000Y-130800000D03*
X286100000Y-130800000D03*
X284900000Y-130800000D03*
X283700000Y-130800000D03*
X282500000Y-130800000D03*
X289700000Y-132000000D03*
X288500000Y-132000000D03*
X287300000Y-132000000D03*
X286100000Y-132000000D03*
X284900000Y-132000000D03*
X283700000Y-132000000D03*
X282500000Y-132000000D03*
X281300000Y-132000000D03*
%TD*%
D25*
%TO.C,D5*%
X309900000Y-116000000D03*
X306925000Y-116000000D03*
%TD*%
D35*
%TO.C,R35*%
X338900000Y-125200000D03*
X338900000Y-123375000D03*
%TD*%
D36*
%TO.C,R19*%
X273450000Y-137920000D03*
X276550000Y-137920000D03*
%TD*%
D19*
%TO.C,R49*%
X315602500Y-285500000D03*
X316797500Y-285500000D03*
%TD*%
D29*
%TO.C,C7*%
X380937500Y-216712500D03*
X382662500Y-216712500D03*
%TD*%
D37*
%TO.C,R15*%
X291277504Y-158522496D03*
X292122496Y-157677504D03*
%TD*%
D19*
%TO.C,R46*%
X304502500Y-282500000D03*
X305697500Y-282500000D03*
%TD*%
D21*
%TO.C,R43*%
X313297500Y-285500000D03*
X312102500Y-285500000D03*
%TD*%
D38*
%TO.C,R9*%
X371805000Y-147885000D03*
X371805000Y-146690000D03*
%TD*%
D39*
%TO.C,L2*%
X378500000Y-221862500D03*
X378500000Y-218162500D03*
%TD*%
D40*
%TO.C,Q17*%
X347200000Y-277850000D03*
X347200000Y-275950000D03*
X343780000Y-276900000D03*
%TD*%
D41*
%TO.C,Q5*%
X246380000Y-167400000D03*
X246380000Y-166200000D03*
X246380000Y-165000000D03*
X246380000Y-163800000D03*
X246380000Y-162600000D03*
X246380000Y-161400000D03*
X246380000Y-160200000D03*
X246380000Y-159000000D03*
D31*
X241200000Y-167400000D03*
X241200000Y-166200000D03*
X241200000Y-165000000D03*
X241200000Y-163800000D03*
X241200000Y-162600000D03*
X241200000Y-161400000D03*
X241200000Y-160200000D03*
X241200000Y-159000000D03*
X240000000Y-167400000D03*
X240000000Y-166200000D03*
X240000000Y-165000000D03*
X240000000Y-163800000D03*
X240000000Y-162600000D03*
X240000000Y-161400000D03*
X240000000Y-160200000D03*
X240000000Y-159000000D03*
X238800000Y-166200000D03*
X238800000Y-165000000D03*
X238800000Y-163800000D03*
X238800000Y-162600000D03*
X238800000Y-161400000D03*
X238800000Y-160200000D03*
X237600000Y-166200000D03*
X237600000Y-165000000D03*
X237600000Y-163800000D03*
X237600000Y-162600000D03*
X237600000Y-161400000D03*
X237600000Y-160200000D03*
X236400000Y-166200000D03*
X236400000Y-165000000D03*
X236400000Y-163800000D03*
X236400000Y-162600000D03*
X236400000Y-161400000D03*
X236400000Y-160200000D03*
X235200000Y-167400000D03*
X235200000Y-166200000D03*
X235200000Y-165000000D03*
X235200000Y-163800000D03*
X235200000Y-162600000D03*
X235200000Y-161400000D03*
X235200000Y-160200000D03*
X235200000Y-159000000D03*
%TD*%
D42*
%TO.C,D19*%
X302210000Y-275075439D03*
X305185000Y-275075439D03*
%TD*%
D25*
%TO.C,D4*%
X301887500Y-130100000D03*
X298912500Y-130100000D03*
%TD*%
D23*
%TO.C,C9*%
X381800000Y-221600000D03*
X381800000Y-219875000D03*
%TD*%
D37*
%TO.C,R16*%
X289777504Y-158522496D03*
X290622496Y-157677504D03*
%TD*%
D12*
%TO.C,R28*%
X312187500Y-120200000D03*
X314012500Y-120200000D03*
%TD*%
D43*
%TO.C,D13*%
X338900000Y-127600000D03*
X338900000Y-130575000D03*
%TD*%
D29*
%TO.C,C38*%
X238237500Y-156400000D03*
X239962500Y-156400000D03*
%TD*%
D12*
%TO.C,R26*%
X303987500Y-130100000D03*
X305812500Y-130100000D03*
%TD*%
D21*
%TO.C,R11*%
X362397500Y-193000000D03*
X361202500Y-193000000D03*
%TD*%
D44*
%TO.C,R14*%
X320398959Y-147101041D03*
X319553967Y-147946033D03*
%TD*%
D30*
%TO.C,Q4*%
X258500000Y-142500000D03*
X259700000Y-142500000D03*
X260900000Y-142500000D03*
X262100000Y-142500000D03*
X263300000Y-142500000D03*
X264500000Y-142500000D03*
X265700000Y-142500000D03*
X266900000Y-142500000D03*
D31*
X258500000Y-137320000D03*
X259700000Y-137320000D03*
X260900000Y-137320000D03*
X262100000Y-137320000D03*
X263300000Y-137320000D03*
X264500000Y-137320000D03*
X265700000Y-137320000D03*
X266900000Y-137320000D03*
X258500000Y-136120000D03*
X259700000Y-136120000D03*
X260900000Y-136120000D03*
X262100000Y-136120000D03*
X263300000Y-136120000D03*
X264500000Y-136120000D03*
X265700000Y-136120000D03*
X266900000Y-136120000D03*
X259700000Y-134920000D03*
X260900000Y-134920000D03*
X262100000Y-134920000D03*
X263300000Y-134920000D03*
X264500000Y-134920000D03*
X265700000Y-134920000D03*
X259700000Y-133720000D03*
X260900000Y-133720000D03*
X262100000Y-133720000D03*
X263300000Y-133720000D03*
X264500000Y-133720000D03*
X265700000Y-133720000D03*
X259700000Y-132520000D03*
X260900000Y-132520000D03*
X262100000Y-132520000D03*
X263300000Y-132520000D03*
X264500000Y-132520000D03*
X265700000Y-132520000D03*
X258500000Y-131320000D03*
X259700000Y-131320000D03*
X260900000Y-131320000D03*
X262100000Y-131320000D03*
X263300000Y-131320000D03*
X264500000Y-131320000D03*
X265700000Y-131320000D03*
X266900000Y-131320000D03*
%TD*%
D25*
%TO.C,D18*%
X357987500Y-211900000D03*
X355012500Y-211900000D03*
%TD*%
D45*
%TO.C,C12*%
X306597676Y-156599758D03*
X307400242Y-157402324D03*
%TD*%
D46*
%TO.C,C39*%
X274297866Y-155061868D03*
X277902134Y-152538132D03*
%TD*%
D30*
%TO.C,Q2*%
X270400000Y-134400000D03*
X271600000Y-134400000D03*
X272800000Y-134400000D03*
X274000000Y-134400000D03*
X275200000Y-134400000D03*
X276400000Y-134400000D03*
X277600000Y-134400000D03*
X278800000Y-134400000D03*
D31*
X270400000Y-129220000D03*
X271600000Y-129220000D03*
X272800000Y-129220000D03*
X274000000Y-129220000D03*
X275200000Y-129220000D03*
X276400000Y-129220000D03*
X277600000Y-129220000D03*
X278800000Y-129220000D03*
X270400000Y-128020000D03*
X271600000Y-128020000D03*
X272800000Y-128020000D03*
X274000000Y-128020000D03*
X275200000Y-128020000D03*
X276400000Y-128020000D03*
X277600000Y-128020000D03*
X278800000Y-128020000D03*
X271600000Y-126820000D03*
X272800000Y-126820000D03*
X274000000Y-126820000D03*
X275200000Y-126820000D03*
X276400000Y-126820000D03*
X277600000Y-126820000D03*
X271600000Y-125620000D03*
X272800000Y-125620000D03*
X274000000Y-125620000D03*
X275200000Y-125620000D03*
X276400000Y-125620000D03*
X277600000Y-125620000D03*
X271600000Y-124420000D03*
X272800000Y-124420000D03*
X274000000Y-124420000D03*
X275200000Y-124420000D03*
X276400000Y-124420000D03*
X277600000Y-124420000D03*
X270400000Y-123220000D03*
X271600000Y-123220000D03*
X272800000Y-123220000D03*
X274000000Y-123220000D03*
X275200000Y-123220000D03*
X276400000Y-123220000D03*
X277600000Y-123220000D03*
X278800000Y-123220000D03*
%TD*%
D21*
%TO.C,R48*%
X313297500Y-280000000D03*
X312102500Y-280000000D03*
%TD*%
D47*
%TO.C,U3*%
X384949999Y-206803500D03*
X385900000Y-206803500D03*
X386850001Y-206803500D03*
X386850001Y-204200000D03*
X385900000Y-204200000D03*
X384949999Y-204200000D03*
%TD*%
D44*
%TO.C,R13*%
X319698959Y-146401041D03*
X318853967Y-147246033D03*
%TD*%
D48*
%TO.C,R17*%
X264550000Y-146400000D03*
X261450000Y-146400000D03*
%TD*%
D49*
%TO.C,R8*%
X309421455Y-158623537D03*
X308576463Y-157778545D03*
%TD*%
D50*
%TO.C,D1*%
X337250000Y-246800000D03*
X332950000Y-246800000D03*
%TD*%
D25*
%TO.C,D6*%
X309900000Y-120200000D03*
X306925000Y-120200000D03*
%TD*%
D43*
%TO.C,D16*%
X335600000Y-127600000D03*
X335600000Y-130575000D03*
%TD*%
D12*
%TO.C,R3*%
X377587500Y-224212500D03*
X379412500Y-224212500D03*
%TD*%
D21*
%TO.C,R55*%
X313297500Y-274600000D03*
X312102500Y-274600000D03*
%TD*%
D51*
%TO.C,C6*%
X379100000Y-227037500D03*
X379100000Y-228762500D03*
%TD*%
D25*
%TO.C,D23*%
X315185000Y-277575439D03*
X312210000Y-277575439D03*
%TD*%
D20*
%TO.C,Q10*%
X309449386Y-277132960D03*
X307946206Y-278029036D03*
%TD*%
D19*
%TO.C,R51*%
X315602500Y-280000000D03*
X316797500Y-280000000D03*
%TD*%
D42*
%TO.C,D20*%
X302210000Y-280085439D03*
X305185000Y-280085439D03*
%TD*%
D25*
%TO.C,D7*%
X318887500Y-125300000D03*
X315912500Y-125300000D03*
%TD*%
D52*
%TO.C,SW1*%
X359800000Y-195400000D03*
X364000000Y-195400000D03*
%TD*%
D45*
%TO.C,C13*%
X308297676Y-158999758D03*
X309100242Y-159802324D03*
%TD*%
D29*
%TO.C,C4*%
X384987499Y-208500000D03*
X386712499Y-208500000D03*
%TD*%
D21*
%TO.C,R47*%
X302395000Y-282500000D03*
X301200000Y-282500000D03*
%TD*%
D53*
%TO.C,C5*%
X379567500Y-225712500D03*
X378432500Y-225712500D03*
%TD*%
D54*
%TO.C,C37*%
X249262500Y-154000000D03*
X247537500Y-154000000D03*
%TD*%
D20*
%TO.C,Q11*%
X309454016Y-274633078D03*
X307950836Y-275529154D03*
%TD*%
D35*
%TO.C,R38*%
X335600000Y-125200000D03*
X335600000Y-123375000D03*
%TD*%
D55*
%TO.C,U5*%
X370005000Y-147412500D03*
X368735000Y-147412500D03*
X367465000Y-147412500D03*
X366195000Y-147412500D03*
X366195000Y-154587500D03*
X367465000Y-154587500D03*
X368735000Y-154587500D03*
X370005000Y-154587500D03*
%TD*%
D42*
%TO.C,D21*%
X302210000Y-285075439D03*
X305185000Y-285075439D03*
%TD*%
D56*
%TO.C,Y1*%
X303441243Y-158247487D03*
X304996878Y-159803122D03*
X306198959Y-158601041D03*
X304643324Y-157045406D03*
%TD*%
D57*
%TO.C,L1*%
X383824999Y-199700000D03*
X387474999Y-199700000D03*
%TD*%
D21*
%TO.C,R45*%
X302397500Y-277500000D03*
X301202500Y-277500000D03*
%TD*%
%TO.C,R4*%
X387897500Y-228512500D03*
X386702500Y-228512500D03*
%TD*%
D25*
%TO.C,D22*%
X315185000Y-282575439D03*
X312210000Y-282575439D03*
%TD*%
D58*
%TO.C,SW2*%
X364000000Y-200200000D03*
X359800000Y-200200000D03*
%TD*%
D22*
%TO.C,R5*%
X377000000Y-225787500D03*
X377000000Y-227612500D03*
%TD*%
D54*
%TO.C,C36*%
X284762500Y-134300000D03*
X283037500Y-134300000D03*
%TD*%
D59*
%TO.C,R18*%
X231400000Y-168250000D03*
X231400000Y-165150000D03*
%TD*%
D41*
%TO.C,Q6*%
X231220000Y-170400000D03*
X231220000Y-171600000D03*
X231220000Y-172800000D03*
X231220000Y-174000000D03*
X231220000Y-175200000D03*
X231220000Y-176400000D03*
X231220000Y-177600000D03*
X231220000Y-178800000D03*
D31*
X236400000Y-170400000D03*
X236400000Y-171600000D03*
X236400000Y-172800000D03*
X236400000Y-174000000D03*
X236400000Y-175200000D03*
X236400000Y-176400000D03*
X236400000Y-177600000D03*
X236400000Y-178800000D03*
X237600000Y-170400000D03*
X237600000Y-171600000D03*
X237600000Y-172800000D03*
X237600000Y-174000000D03*
X237600000Y-175200000D03*
X237600000Y-176400000D03*
X237600000Y-177600000D03*
X237600000Y-178800000D03*
X238800000Y-171600000D03*
X238800000Y-172800000D03*
X238800000Y-174000000D03*
X238800000Y-175200000D03*
X238800000Y-176400000D03*
X238800000Y-177600000D03*
X240000000Y-171600000D03*
X240000000Y-172800000D03*
X240000000Y-174000000D03*
X240000000Y-175200000D03*
X240000000Y-176400000D03*
X240000000Y-177600000D03*
X241200000Y-171600000D03*
X241200000Y-172800000D03*
X241200000Y-174000000D03*
X241200000Y-175200000D03*
X241200000Y-176400000D03*
X241200000Y-177600000D03*
X242400000Y-170400000D03*
X242400000Y-171600000D03*
X242400000Y-172800000D03*
X242400000Y-174000000D03*
X242400000Y-175200000D03*
X242400000Y-176400000D03*
X242400000Y-177600000D03*
X242400000Y-178800000D03*
%TD*%
D12*
%TO.C,R27*%
X312187500Y-116000000D03*
X314012500Y-116000000D03*
%TD*%
D20*
%TO.C,Q7*%
X309449616Y-284635831D03*
X307946436Y-285531907D03*
%TD*%
M02*
