M48
; DRILL file KiCad 10.0.1 date 2026-05-27T22:49:05
; FORMAT={-:-/ absolute / metric / decimal}
; #@! TF.CreationDate,2026-05-27T22:49:05-07:00
; #@! TF.GenerationSoftware,Kicad,Pcbnew,10.0.1
; #@! TF.FileFunction,NonPlated,1,4,NPTH
FMAT,2
METRIC
; #@! TA.AperFunction,NonPlated,NPTH,ComponentDrill
T1C0.650
; #@! TA.AperFunction,NonPlated,NPTH,ComponentDrill
T2C0.700
; #@! TA.AperFunction,NonPlated,NPTH,ComponentDrill
T3C3.200
%
G90
G05
T1
X331.632Y-151.011
T2
X325.763Y-148.182
X328.803Y-145.142
X329.157Y-151.576
X332.198Y-148.536
T3
X215.287Y-200.395
X216.134Y-211.703
X216.526Y-183.858
X219.05Y-172.802
X219.824Y-227.87
X223.968Y-238.427
X225.108Y-157.366
X230.778Y-147.545
X232.259Y-252.788
X239.33Y-261.654
X241.117Y-134.58
X245.7Y-199.08
X249.43Y-126.866
X251.485Y-272.933
X254.14Y-167.58
X254.14Y-230.58
X260.855Y-279.321
X263.132Y-117.525
X273.349Y-112.605
X275.796Y-286.516
X277.2Y-144.521
X277.2Y-253.64
X286.632Y-289.859
X289.195Y-107.717
X300.409Y-106.027
X303.03Y-292.331
X308.7Y-136.08
X308.7Y-262.08
X314.37Y-292.331
X316.991Y-106.027
X328.205Y-107.717
X330.768Y-289.859
X340.2Y-144.521
X340.2Y-253.64
X341.604Y-286.516
X344.051Y-112.605
X354.268Y-117.525
X356.545Y-279.321
X363.26Y-167.58
X363.26Y-230.58
X365.915Y-272.933
X367.97Y-126.866
X371.7Y-199.08
X376.283Y-134.58
X378.07Y-261.654
X385.141Y-252.788
X386.622Y-147.545
X392.292Y-157.366
X393.432Y-238.427
X397.576Y-227.87
X398.35Y-172.802
X400.874Y-183.858
X401.266Y-211.703
X402.113Y-200.395
T1
X326.417Y-145.796G85X326.24Y-145.619
G05
M30
