  0
SECTION
  2
HEADER
  9
$ACADVER
  1
AC1015
  9
$ACADMAINTVER
 70
     6
  9
$DWGCODEPAGE
  3
ANSI_1252
  9
$INSBASE
 10
0.0
 20
0.0
 30
0.0
  9
$EXTMIN
 10
-109.0
 20
-109.0
 30
0.0
  9
$EXTMAX
 10
109.0
 20
109.0
 30
0.0
  9
$LIMMIN
 10
0.0
 20
0.0
  9
$LIMMAX
 10
420.0
 20
297.0
  9
$ORTHOMODE
 70
     0
  9
$REGENMODE
 70
     1
  9
$FILLMODE
 70
     1
  9
$QTEXTMODE
 70
     0
  9
$MIRRTEXT
 70
     1
  9
$LTSCALE
 40
1.0
  9
$ATTMODE
 70
     1
  9
$TEXTSIZE
 40
3.5
  9
$TRACEWID
 40
1.0
  9
$TEXTSTYLE
  7
Standard
  9
$CLAYER
  8
0
  9
$CELTYPE
  6
ByLayer
  9
$CECOLOR
 62
   256
  9
$CELTSCALE
 40
1.0
  9
$DISPSILH
 70
     0
  9
$DIMSCALE
 40
1.0
  9
$DIMASZ
 40
3.302
  9
$DIMEXO
 40
0.0
  9
$DIMDLI
 40
3.75
  9
$DIMRND
 40
0.0
  9
$DIMDLE
 40
0.0
  9
$DIMEXE
 40
1.0
  9
$DIMTP
 40
0.0
  9
$DIMTM
 40
0.0
  9
$DIMTXT
 40
3.5
  9
$DIMCEN
 40
2.5
  9
$DIMTSZ
 40
0.0
  9
$DIMTOL
 70
     0
  9
$DIMLIM
 70
     0
  9
$DIMTIH
 70
     1
  9
$DIMTOH
 70
     1
  9
$DIMSE1
 70
     0
  9
$DIMSE2
 70
     0
  9
$DIMTAD
 70
     1
  9
$DIMZIN
 70
     1
  9
$DIMBLK
  1

  9
$DIMASO
 70
     1
  9
$DIMSHO
 70
     1
  9
$DIMPOST
  1

  9
$DIMAPOST
  1

  9
$DIMALT
 70
     0
  9
$DIMALTD
 70
     3
  9
$DIMALTF
 40
0.0393700787
  9
$DIMLFAC
 40
1.0
  9
$DIMTOFL
 70
     1
  9
$DIMTVP
 40
0.0
  9
$DIMTIX
 70
     0
  9
$DIMSOXD
 70
     0
  9
$DIMSAH
 70
     0
  9
$DIMBLK1
  1

  9
$DIMBLK2
  1

  9
$DIMSTYLE
  2
ISO-25
  9
$DIMCLRD
 70
     0
  9
$DIMCLRE
 70
     0
  9
$DIMCLRT
 70
     0
  9
$DIMTFAC
 40
1.0
  9
$DIMGAP
 40
1.524
  9
$DIMJUST
 70
     0
  9
$DIMSD1
 70
     0
  9
$DIMSD2
 70
     0
  9
$DIMTOLJ
 70
     0
  9
$DIMTZIN
 70
     1
  9
$DIMALTZ
 70
     0
  9
$DIMALTTZ
 70
     0
  9
$DIMUPT
 70
     0
  9
$DIMDEC
 70
     2
  9
$DIMTDEC
 70
     2
  9
$DIMALTU
 70
     2
  9
$DIMALTTD
 70
     3
  9
$DIMTXSTY
  7
Standard
  9
$DIMAUNIT
 70
     0
  9
$DIMADEC
 70
     2
  9
$DIMALTRND
 40
0.0
  9
$DIMAZIN
 70
     0
  9
$DIMDSEP
 70
    44
  9
$DIMATFIT
 70
     3
  9
$DIMFRAC
 70
     0
  9
$DIMLDRBLK
  1

  9
$DIMLUNIT
 70
     2
  9
$DIMLWD
 70
    -2
  9
$DIMLWE
 70
    -2
  9
$DIMTMOVE
 70
     0
  9
$LUNITS
 70
     2
  9
$LUPREC
 70
     2
  9
$SKETCHINC
 40
1.0
  9
$FILLETRAD
 40
0.0
  9
$AUNITS
 70
     0
  9
$AUPREC
 70
     2
  9
$MENU
  1
.
  9
$ELEVATION
 40
0.0
  9
$PELEVATION
 40
0.0
  9
$THICKNESS
 40
0.0
  9
$LIMCHECK
 70
     0
  9
$CHAMFERA
 40
0.0
  9
$CHAMFERB
 40
0.0
  9
$CHAMFERC
 40
0.0
  9
$CHAMFERD
 40
0.0
  9
$SKPOLY
 70
     0
  9
$TDCREATE
 40
2461024.646217245
  9
$TDUCREATE
 40
2461024.854550579
  9
$TDUPDATE
 40
2461024.646241736
  9
$TDUUPDATE
 40
2461024.85457507
  9
$TDINDWG
 40
0.0000000116
  9
$TDUSRTIMER
 40
0.0000000116
  9
$USRTIMER
 70
     1
  9
$ANGBASE
 50
0.0
  9
$ANGDIR
 70
     0
  9
$PDMODE
 70
     0
  9
$PDSIZE
 40
-1.0
  9
$PLINEWID
 40
0.0
  9
$SPLFRAME
 70
     0
  9
$SPLINETYPE
 70
     6
  9
$SPLINESEGS
 70
     8
  9
$HANDSEED
  5
1BE
  9
$SURFTAB1
 70
     6
  9
$SURFTAB2
 70
     6
  9
$SURFTYPE
 70
     6
  9
$SURFU
 70
     6
  9
$SURFV
 70
     6
  9
$UCSBASE
  2

  9
$UCSNAME
  2

  9
$UCSORG
 10
0.0
 20
0.0
 30
0.0
  9
$UCSXDIR
 10
1.0
 20
0.0
 30
0.0
  9
$UCSYDIR
 10
0.0
 20
1.0
 30
0.0
  9
$UCSORTHOREF
  2

  9
$UCSORTHOVIEW
 70
     0
  9
$UCSORGTOP
 10
0.0
 20
0.0
 30
0.0
  9
$UCSORGBOTTOM
 10
0.0
 20
0.0
 30
0.0
  9
$UCSORGLEFT
 10
0.0
 20
0.0
 30
0.0
  9
$UCSORGRIGHT
 10
0.0
 20
0.0
 30
0.0
  9
$UCSORGFRONT
 10
0.0
 20
0.0
 30
0.0
  9
$UCSORGBACK
 10
0.0
 20
0.0
 30
0.0
  9
$PUCSBASE
  2

  9
$PUCSNAME
  2

  9
$PUCSORG
 10
0.0
 20
0.0
 30
0.0
  9
$PUCSXDIR
 10
1.0
 20
0.0
 30
0.0
  9
$PUCSYDIR
 10
0.0
 20
1.0
 30
0.0
  9
$PUCSORTHOREF
  2

  9
$PUCSORTHOVIEW
 70
     0
  9
$PUCSORGTOP
 10
0.0
 20
0.0
 30
0.0
  9
$PUCSORGBOTTOM
 10
0.0
 20
0.0
 30
0.0
  9
$PUCSORGLEFT
 10
0.0
 20
0.0
 30
0.0
  9
$PUCSORGRIGHT
 10
0.0
 20
0.0
 30
0.0
  9
$PUCSORGFRONT
 10
0.0
 20
0.0
 30
0.0
  9
$PUCSORGBACK
 10
0.0
 20
0.0
 30
0.0
  9
$USERI1
 70
     0
  9
$USERI2
 70
     0
  9
$USERI3
 70
     0
  9
$USERI4
 70
     0
  9
$USERI5
 70
     0
  9
$USERR1
 40
0.0
  9
$USERR2
 40
0.0
  9
$USERR3
 40
0.0
  9
$USERR4
 40
0.0
  9
$USERR5
 40
0.0
  9
$WORLDVIEW
 70
     1
  9
$SHADEDGE
 70
     3
  9
$SHADEDIF
 70
    70
  9
$TILEMODE
 70
     1
  9
$MAXACTVP
 70
    64
  9
$PINSBASE
 10
0.0
 20
0.0
 30
0.0
  9
$PLIMCHECK
 70
     0
  9
$PEXTMIN
 10
1.0000000000E+20
 20
1.0000000000E+20
 30
1.0000000000E+20
  9
$PEXTMAX
 10
-1.0000000000E+20
 20
-1.0000000000E+20
 30
-1.0000000000E+20
  9
$PLIMMIN
 10
0.0
 20
0.0
  9
$PLIMMAX
 10
420.0
 20
297.0
  9
$UNITMODE
 70
     0
  9
$VISRETAIN
 70
     1
  9
$PLINEGEN
 70
     0
  9
$PSLTSCALE
 70
     1
  9
$TREEDEPTH
 70
  3020
  9
$CMLSTYLE
  2
Standard
  9
$CMLJUST
 70
     0
  9
$CMLSCALE
 40
20.0
  9
$PROXYGRAPHICS
 70
     1
  9
$MEASUREMENT
 70
     1
  9
$CELWEIGHT
370
    -1
  9
$ENDCAPS
280
     0
  9
$JOINSTYLE
280
     0
  9
$LWDISPLAY
290
     1
  9
$INSUNITS
 70
     4
  9
$HYPERLINKBASE
  1

  9
$STYLESHEET
  1

  9
$XEDIT
290
     1
  9
$CEPSNTYPE
380
     0
  9
$PSTYLEMODE
290
     1
  9
$FINGERPRINTGUID
  2
{bf419600-1cf1-4765-9a8a-1e734f0dca8e}
  9
$VERSIONGUID
  2
{FAEB1C32-E019-11D5-929B-00C0DF256EC4}
  9
$EXTNAMES
290
     1
  9
$PSVPSCALE
 40
0.0
  9
$OLESTARTUP
290
     0
  0
ENDSEC
  0
SECTION
  2
CLASSES
  0
CLASS
  1
ACDBDICTIONARYWDFLT
  2
AcDbDictionaryWithDefault
  3
ObjectDBX Classes
 90
        0
280
     0
281
     0
  0
CLASS
  1
VISUALSTYLE
  2
AcDbVisualStyle
  3
ObjectDBX Classes
 90
     4095
280
     0
281
     0
  0
CLASS
  1
MATERIAL
  2
AcDbMaterial
  3
ObjectDBX Classes
 90
     1153
280
     0
281
     0
  0
CLASS
  1
SCALE
  2
AcDbScale
  3
ObjectDBX Classes
 90
     1153
280
     0
281
     0
  0
CLASS
  1
TABLESTYLE
  2
AcDbTableStyle
  3
ObjectDBX Classes
 90
     4095
280
     0
281
     0
  0
CLASS
  1
MLEADERSTYLE
  2
AcDbMLeaderStyle
  3
ACDB_MLEADERSTYLE_CLASS
 90
     4095
280
     0
281
     0
  0
CLASS
  1
SUN
  2
AcDbSun
  3
SCENEOE
 90
     1153
280
     0
281
     0
  0
CLASS
  1
ACDBPLACEHOLDER
  2
AcDbPlaceHolder
  3
ObjectDBX Classes
 90
        0
280
     0
281
     0
  0
CLASS
  1
LAYOUT
  2
AcDbLayout
  3
ObjectDBX Classes
 90
        0
280
     0
281
     0
  0
ENDSEC
  0
SECTION
  2
TABLES
  0
TABLE
  2
VPORT
  5
8
330
0
100
AcDbSymbolTable
 70
     1
  0
VPORT
  5
29
330
8
100
AcDbSymbolTableRecord
100
AcDbViewportTableRecord
  2
*Active
 70
     0
 10
0.0
 20
0.0
 11
1.0
 21
1.0
 12
0.0
 22
0.0
 13
0.0
 23
0.0
 14
10.0
 24
10.0
 15
10.0
 25
10.0
 16
0.0
 26
0.0
 36
1.0
 17
0.0
 27
0.0
 37
0.0
 40
222.36
 41
1.0
 42
50.0
 43
0.0
 44
0.0
 50
0.0
 51
0.0
 71
     0
 72
   100
 73
     1
 74
     3
 75
     0
 76
     0
 77
     0
 78
     0
281
     0
 65
     1
110
0.0
120
0.0
130
0.0
111
1.0
121
0.0
131
0.0
112
0.0
122
1.0
132
0.0
 79
     0
146
0.0
  0
ENDTAB
  0
TABLE
  2
LTYPE
  5
5
330
0
100
AcDbSymbolTable
 70
     6
  0
LTYPE
  5
14
330
5
100
AcDbSymbolTableRecord
100
AcDbLinetypeTableRecord
  2
ByBlock
 70
     0
  3

 72
    65
 73
     0
 40
0.0
  0
LTYPE
  5
15
330
5
100
AcDbSymbolTableRecord
100
AcDbLinetypeTableRecord
  2
ByLayer
 70
     0
  3

 72
    65
 73
     0
 40
0.0
  0
LTYPE
  5
16
330
5
100
AcDbSymbolTableRecord
100
AcDbLinetypeTableRecord
  2
Continuous
 70
     0
  3
Solid line
 72
    65
 73
     0
 40
0.0
  0
LTYPE
  5
5E
330
5
100
AcDbSymbolTableRecord
100
AcDbLinetypeTableRecord
  2
HIDDEN
 70
     0
  3
Hidden __ __ __ __ __ __ __ __ __ __ __ __ __ __
 72
    65
 73
     2
 40
1.905
 49
1.27
 74
     0
 49
-0.635
 74
     0
  0
LTYPE
  5
5F
330
5
100
AcDbSymbolTableRecord
100
AcDbLinetypeTableRecord
  2
PHANTOM
 70
     0
  3
Phantom ______  __  __  ______  __  __  ______
 72
    65
 73
     6
 40
12.7
 49
6.35
 74
     0
 49
-1.27
 74
     0
 49
1.27
 74
     0
 49
-1.27
 74
     0
 49
1.27
 74
     0
 49
-1.27
 74
     0
  0
LTYPE
  5
60
330
5
100
AcDbSymbolTableRecord
100
AcDbLinetypeTableRecord
  2
CENTER
 70
     0
  3
Center ____ _ ____ _ ____ _ ____ _ ____ _ ____
 72
    65
 73
     4
 40
10.16
 49
6.35
 74
     0
 49
-1.27
 74
     0
 49
1.27
 74
     0
 49
-1.27
 74
     0
  0
LTYPE
  5
61
330
5
100
AcDbSymbolTableRecord
100
AcDbLinetypeTableRecord
  2
CENTERX2
 70
     0
  3
Center (2x) ________  __  ________  __  _____
 72
    65
 73
     4
 40
20.32
 49
12.7
 74
     0
 49
-2.54
 74
     0
 49
2.54
 74
     0
 49
-2.54
 74
     0
  0
LTYPE
  5
62
330
5
100
AcDbSymbolTableRecord
100
AcDbLinetypeTableRecord
  2
DOT2
 70
     0
  3
Dot (.5x) ........................................
 72
    65
 73
     2
 40
0.635
 49
0.0
 74
     0
 49
-0.635
 74
     0
  0
ENDTAB
  0
TABLE
  2
LAYER
  5
2
330
0
100
AcDbSymbolTable
 70
     1
  0
LAYER
  5
10
330
2
100
AcDbSymbolTableRecord
100
AcDbLayerTableRecord
  2
0
 70
     0
 62
     7
  6
Continuous
370
    -3
390
F
  0
ENDTAB
  0
TABLE
  2
STYLE
  5
3
330
0
100
AcDbSymbolTable
 70
     2
  0
STYLE
  5
11
330
3
100
AcDbSymbolTableRecord
100
AcDbTextStyleTableRecord
  2
Standard
 70
     0
 40
0.0
 41
1.0
 50
0.0
 71
     0
 42
3.5
  3
txt
  4

  0
STYLE
  5
1BA
330
3
100
AcDbSymbolTableRecord
100
AcDbTextStyleTableRecord
  2
SLDTEXTSTYLE0
 70
     0
 40
0.0
 41
0.7
 50
0.0
 71
     0
 42
3.5
  3
TXT
  4

  0
ENDTAB
  0
TABLE
  2
VIEW
  5
6
330
0
100
AcDbSymbolTable
 70
     0
  0
ENDTAB
  0
TABLE
  2
UCS
  5
7
330
0
100
AcDbSymbolTable
 70
     0
  0
ENDTAB
  0
TABLE
  2
APPID
  5
9
330
0
100
AcDbSymbolTable
 70
     1
  0
APPID
  5
12
330
9
100
AcDbSymbolTableRecord
100
AcDbRegAppTableRecord
  2
ACAD
 70
     0
  0
ENDTAB
  0
TABLE
  2
DIMSTYLE
  5
A
330
0
100
AcDbSymbolTable
 70
     1
100
AcDbDimStyleTable
  0
DIMSTYLE
105
27
330
A
100
AcDbSymbolTableRecord
100
AcDbDimStyleTableRecord
  2
ISO-25
 70
     0
 41
2.5
 42
0.625
 43
3.75
 44
1.25
 73
     0
 74
     0
 77
     1
 78
     8
140
2.5
141
2.5
143
0.0393700787
147
0.625
171
     3
172
     1
178
     0
271
     2
272
     2
274
     3
278
    44
283
     0
284
     8
340
11
  0
ENDTAB
  0
TABLE
  2
BLOCK_RECORD
  5
1
330
0
100
AcDbSymbolTable
 70
     1
  0
BLOCK_RECORD
  5
1F
330
1
100
AcDbSymbolTableRecord
100
AcDbBlockTableRecord
  2
*Model_Space
340
22
  0
BLOCK_RECORD
  5
1B
330
1
100
AcDbSymbolTableRecord
100
AcDbBlockTableRecord
  2
*Paper_Space
340
1E
  0
BLOCK_RECORD
  5
23
330
1
100
AcDbSymbolTableRecord
100
AcDbBlockTableRecord
  2
*Paper_Space0
340
26
  0
ENDTAB
  0
ENDSEC
  0
SECTION
  2
BLOCKS
  0
BLOCK
  5
20
330
1F
100
AcDbEntity
  8
0
100
AcDbBlockBegin
  2
*Model_Space
 70
     0
 10
0.0
 20
0.0
 30
0.0
  3
*Model_Space
  1

  0
ENDBLK
  5
21
330
1F
100
AcDbEntity
  8
0
100
AcDbBlockEnd
  0
BLOCK
  5
1C
330
1B
100
AcDbEntity
 67
     1
  8
0
100
AcDbBlockBegin
  2
*Paper_Space
 70
     0
 10
0.0
 20
0.0
 30
0.0
  3
*Paper_Space
  1

  0
ENDBLK
  5
1D
330
1B
100
AcDbEntity
 67
     1
  8
0
100
AcDbBlockEnd
  0
BLOCK
  5
24
330
23
100
AcDbEntity
  8
0
100
AcDbBlockBegin
  2
*Paper_Space0
 70
     0
 10
0.0
 20
0.0
 30
0.0
  3
*Paper_Space0
  1

  0
ENDBLK
  5
25
330
23
100
AcDbEntity
  8
0
100
AcDbBlockEnd
  0
ENDSEC
  0
SECTION
  2
ENTITIES
  0
CIRCLE
  5
63
330
1F
100
AcDbEntity
  8
0
  6
Continuous
 62
     7
370
    25
100
AcDbCircle
 10
104.2953714069
 20
-15.8973426423
 30
0.0
 40
1.600000000000017
  0
CIRCLE
  5
64
330
1F
100
AcDbEntity
  8
0
  6
Continuous
 62
     7
370
    25
100
AcDbCircle
 10
105.5
 20
0.0
 30
0.0
 40
1.60000000000002
  0
CIRCLE
  5
65
330
1F
100
AcDbEntity
  8
0
  6
Continuous
 62
     7
370
    25
100
AcDbCircle
 10
76.1225282544
 20
-73.0452646799
 30
0.0
 40
1.600000000000009
  0
CIRCLE
  5
66
330
1F
100
AcDbEntity
  8
0
  6
Continuous
 62
     7
370
    25
100
AcDbCircle
 10
89.4690741445
 20
55.9064823766
 30
0.0
 40
1.600000000000058
  0
CIRCLE
  5
67
330
1F
100
AcDbEntity
  8
0
  6
Continuous
 62
     7
370
    25
100
AcDbCircle
 10
76.1225282544
 20
73.0452646799
 30
0.0
 40
1.600000000000023
  0
CIRCLE
  5
68
330
1F
100
AcDbEntity
  8
0
  6
Continuous
 62
     7
370
    25
100
AcDbCircle
 10
59.5487595904
 20
87.0872851296
 30
0.0
 40
1.600000000000009
  0
CIRCLE
  5
69
330
1F
100
AcDbEntity
  8
0
  6
Continuous
 62
     7
370
    25
100
AcDbCircle
 10
40.450414858
 20
97.4372307582
 30
0.0
 40
1.600000000000023
  0
CIRCLE
  5
6A
330
1F
100
AcDbEntity
  8
0
  6
Continuous
 62
     7
370
    25
100
AcDbCircle
 10
19.6371704363
 20
103.6563145074
 30
0.0
 40
1.600000000000009
  0
CIRCLE
  5
6B
330
1F
100
AcDbEntity
  8
0
  6
Continuous
 62
     7
370
    25
100
AcDbCircle
 10
-2.0085939384
 20
105.4808776527
 30
0.0
 40
1.600000000000009
  0
CIRCLE
  5
6C
330
1F
100
AcDbEntity
  8
0
  6
Continuous
 62
     7
370
    25
100
AcDbCircle
 10
-23.569203757
 20
102.8335676434
 30
0.0
 40
1.600000000000009
  0
CIRCLE
  5
6D
330
1F
100
AcDbEntity
  8
0
  6
Continuous
 62
     7
370
    25
100
AcDbCircle
 10
-91.5326127345
 20
-52.4598018105
 30
0.0
 40
1.599999999999987
  0
CIRCLE
  5
6E
330
1F
100
AcDbEntity
  8
0
  6
Continuous
 62
     7
370
    25
100
AcDbCircle
 10
-62.8210642298
 20
-84.7570875446
 30
0.0
 40
1.599999999999994
  0
CIRCLE
  5
6F
330
1F
100
AcDbEntity
  8
0
  6
Continuous
 62
     7
370
    25
100
AcDbCircle
 10
-44.130594647
 20
-95.8266174719
 30
0.0
 40
1.600000000000009
  0
CIRCLE
  5
70
330
1F
100
AcDbEntity
  8
0
  6
Continuous
 62
     7
370
    25
100
AcDbCircle
 10
-23.569203757
 20
-102.8335676434
 30
0.0
 40
1.599999999999994
  0
CIRCLE
  5
71
330
1F
100
AcDbEntity
  8
0
  6
Continuous
 62
     7
370
    25
100
AcDbCircle
 10
-2.0085939384
 20
-105.4808776527
 30
0.0
 40
1.600000000000009
  0
CIRCLE
  5
72
330
1F
100
AcDbEntity
  8
0
  6
Continuous
 62
     7
370
    25
100
AcDbCircle
 10
19.6371704363
 20
-103.6563145074
 30
0.0
 40
1.600000000000023
  0
CIRCLE
  5
73
330
1F
100
AcDbEntity
  8
0
  6
Continuous
 62
     7
370
    25
100
AcDbCircle
 10
-104.6681009887
 20
13.222656141
 30
0.0
 40
1.600000000000033
  0
CIRCLE
  5
74
330
1F
100
AcDbEntity
  8
0
  6
Continuous
 62
     7
370
    25
100
AcDbCircle
 10
-103.1945718774
 20
21.9346833813
 30
0.0
 40
1.600000000000001
  0
CIRCLE
  5
75
330
1F
100
AcDbEntity
  8
0
  6
Continuous
 62
     7
370
    25
100
AcDbCircle
 10
94.8227718846
 20
46.2481559862
 30
0.0
 40
1.600000000000001
  0
CIRCLE
  5
76
330
1F
100
AcDbEntity
  8
0
  6
Continuous
 62
     7
370
    25
100
AcDbCircle
 10
100.7089952021
 20
31.4316446496
 30
0.0
 40
1.600000000000009
  0
CIRCLE
  5
77
330
1F
100
AcDbEntity
  8
0
  6
Continuous
 62
     7
370
    25
100
AcDbCircle
 10
104.2953714069
 20
15.8973426423
 30
0.0
 40
1.600000000000005
  0
CIRCLE
  5
78
330
1F
100
AcDbEntity
  8
0
  6
Continuous
 62
     7
370
    25
100
AcDbCircle
 10
-100.3364624691
 20
32.6012929066
 30
0.0
 40
1.600000000000009
  0
CIRCLE
  5
79
330
1F
100
AcDbEntity
  8
0
  6
Continuous
 62
     7
370
    25
100
AcDbCircle
 10
-104.6681009887
 20
-13.222656141
 30
0.0
 40
1.600000000000003
  0
CIRCLE
  5
7A
330
1F
100
AcDbEntity
  8
0
  6
Continuous
 62
     7
370
    25
100
AcDbCircle
 10
-105.4074585754
 20
-4.4178814684
 30
0.0
 40
1.600000000000019
  0
CIRCLE
  5
7B
330
1F
100
AcDbEntity
  8
0
  6
Continuous
 62
     7
370
    25
100
AcDbCircle
 10
100.7089952021
 20
-31.4316446496
 30
0.0
 40
1.600000000000001
  0
CIRCLE
  5
7C
330
1F
100
AcDbEntity
  8
0
  6
Continuous
 62
     7
370
    25
100
AcDbCircle
 10
94.8227718846
 20
-46.2481559862
 30
0.0
 40
1.600000000000023
  0
CIRCLE
  5
7D
330
1F
100
AcDbEntity
  8
0
  6
Continuous
 62
     7
370
    25
100
AcDbCircle
 10
-91.5326127345
 20
52.4598018105
 30
0.0
 40
1.599999999999994
  0
CIRCLE
  5
7E
330
1F
100
AcDbEntity
  8
0
  6
Continuous
 62
     7
370
    25
100
AcDbCircle
 10
-78.8482280368
 20
70.0942717735
 30
0.0
 40
1.600000000000009
  0
CIRCLE
  5
7F
330
1F
100
AcDbEntity
  8
0
  6
Continuous
 62
     7
370
    25
100
AcDbCircle
 10
-62.8210642298
 20
84.7570875446
 30
0.0
 40
1.599999999999994
  0
CIRCLE
  5
80
330
1F
100
AcDbEntity
  8
0
  6
Continuous
 62
     7
370
    25
100
AcDbCircle
 10
-44.130594647
 20
95.8266174719
 30
0.0
 40
1.599999999999994
  0
CIRCLE
  5
81
330
1F
100
AcDbEntity
  8
0
  6
Continuous
 62
     7
370
    25
100
AcDbCircle
 10
89.4690741445
 20
-55.9064823766
 30
0.0
 40
1.600000000000058
  0
CIRCLE
  5
82
330
1F
100
AcDbEntity
  8
0
  6
Continuous
 62
     7
370
    25
100
AcDbCircle
 10
-105.4074585754
 20
4.4178814684
 30
0.0
 40
1.599999999999991
  0
CIRCLE
  5
83
330
1F
100
AcDbEntity
  8
0
  6
Continuous
 62
     7
370
    25
100
AcDbCircle
 10
40.450414858
 20
-97.4372307582
 30
0.0
 40
1.600000000000009
  0
CIRCLE
  5
84
330
1F
100
AcDbEntity
  8
0
  6
Continuous
 62
     7
370
    25
100
AcDbCircle
 10
59.5487595904
 20
-87.0872851296
 30
0.0
 40
1.600000000000009
  0
CIRCLE
  5
85
330
1F
100
AcDbEntity
  8
0
  6
Continuous
 62
     7
370
    25
100
AcDbCircle
 10
-78.8482280368
 20
-70.0942717735
 30
0.0
 40
1.600000000000023
  0
CIRCLE
  5
86
330
1F
100
AcDbEntity
  8
0
  6
Continuous
 62
     7
370
    25
100
AcDbCircle
 10
-100.3364624691
 20
-32.6012929066
 30
0.0
 40
1.600000000000001
  0
CIRCLE
  5
87
330
1F
100
AcDbEntity
  8
0
  6
Continuous
 62
     7
370
    25
100
AcDbCircle
 10
-103.1945718774
 20
-21.9346833813
 30
0.0
 40
1.600000000000005
  0
CIRCLE
  5
88
330
1F
100
AcDbEntity
  8
0
  6
Continuous
 62
     7
370
    25
100
AcDbCircle
 10
-69.5466594928
 20
-18.6349712474
 30
0.0
 40
1.600000000000001
  0
CIRCLE
  5
89
330
1F
100
AcDbEntity
  8
0
  6
Continuous
 62
     7
370
    25
100
AcDbCircle
 10
-62.3538290725
 20
-36.0
 30
0.0
 40
1.600000000000007
  0
CIRCLE
  5
8A
330
1F
100
AcDbEntity
  8
0
  6
Continuous
 62
     7
370
    25
100
AcDbCircle
 10
-50.9116882454
 20
-50.9116882454
 30
0.0
 40
1.600000000000012
  0
CIRCLE
  5
8B
330
1F
100
AcDbEntity
  8
0
  6
Continuous
 62
     7
370
    25
100
AcDbCircle
 10
-36.0
 20
-62.3538290725
 30
0.0
 40
1.600000000000009
  0
CIRCLE
  5
8C
330
1F
100
AcDbEntity
  8
0
  6
Continuous
 62
     7
370
    25
100
AcDbCircle
 10
-18.6349712474
 20
-69.5466594928
 30
0.0
 40
1.600000000000008
  0
CIRCLE
  5
8D
330
1F
100
AcDbEntity
  8
0
  6
Continuous
 62
     7
370
    25
100
AcDbCircle
 10
0.0
 20
-72.0
 30
0.0
 40
1.600000000000009
  0
CIRCLE
  5
8E
330
1F
100
AcDbEntity
  8
0
  6
Continuous
 62
     7
370
    25
100
AcDbCircle
 10
18.6349712474
 20
-69.5466594928
 30
0.0
 40
1.600000000000003
  0
CIRCLE
  5
8F
330
1F
100
AcDbEntity
  8
0
  6
Continuous
 62
     7
370
    25
100
AcDbCircle
 10
36.0
 20
-62.3538290725
 30
0.0
 40
1.600000000000004
  0
CIRCLE
  5
90
330
1F
100
AcDbEntity
  8
0
  6
Continuous
 62
     7
370
    25
100
AcDbCircle
 10
50.9116882454
 20
-50.9116882454
 30
0.0
 40
1.600000000000002
  0
CIRCLE
  5
91
330
1F
100
AcDbEntity
  8
0
  6
Continuous
 62
     7
370
    25
100
AcDbCircle
 10
62.3538290725
 20
-36.0
 30
0.0
 40
1.599999999999999
  0
CIRCLE
  5
92
330
1F
100
AcDbEntity
  8
0
  6
Continuous
 62
     7
370
    25
100
AcDbCircle
 10
69.5466594928
 20
-18.6349712474
 30
0.0
 40
1.600000000000006
  0
CIRCLE
  5
93
330
1F
100
AcDbEntity
  8
0
  6
Continuous
 62
     7
370
    25
100
AcDbCircle
 10
72.0
 20
0.0
 30
0.0
 40
1.600000000000009
  0
CIRCLE
  5
94
330
1F
100
AcDbEntity
  8
0
  6
Continuous
 62
     7
370
    25
100
AcDbCircle
 10
69.5466594928
 20
18.6349712474
 30
0.0
 40
1.600000000000004
  0
CIRCLE
  5
95
330
1F
100
AcDbEntity
  8
0
  6
Continuous
 62
     7
370
    25
100
AcDbCircle
 10
62.3538290725
 20
36.0
 30
0.0
 40
1.600000000000004
  0
CIRCLE
  5
96
330
1F
100
AcDbEntity
  8
0
  6
Continuous
 62
     7
370
    25
100
AcDbCircle
 10
50.9116882454
 20
50.9116882454
 30
0.0
 40
1.600000000000002
  0
CIRCLE
  5
97
330
1F
100
AcDbEntity
  8
0
  6
Continuous
 62
     7
370
    25
100
AcDbCircle
 10
36.0
 20
62.3538290725
 30
0.0
 40
1.600000000000004
  0
CIRCLE
  5
98
330
1F
100
AcDbEntity
  8
0
  6
Continuous
 62
     7
370
    25
100
AcDbCircle
 10
-72.0
 20
0.0
 30
0.0
 40
1.600000000000009
  0
CIRCLE
  5
99
330
1F
100
AcDbEntity
  8
0
  6
Continuous
 62
     7
370
    25
100
AcDbCircle
 10
-69.5466594928
 20
18.6349712474
 30
0.0
 40
1.600000000000009
  0
CIRCLE
  5
9A
330
1F
100
AcDbEntity
  8
0
  6
Continuous
 62
     7
370
    25
100
AcDbCircle
 10
-62.3538290725
 20
36.0
 30
0.0
 40
1.600000000000003
  0
CIRCLE
  5
9B
330
1F
100
AcDbEntity
  8
0
  6
Continuous
 62
     7
370
    25
100
AcDbCircle
 10
-50.9116882454
 20
50.9116882454
 30
0.0
 40
1.599999999999997
  0
CIRCLE
  5
9C
330
1F
100
AcDbEntity
  8
0
  6
Continuous
 62
     7
370
    25
100
AcDbCircle
 10
-36.0
 20
62.3538290725
 30
0.0
 40
1.599999999999994
  0
CIRCLE
  5
9D
330
1F
100
AcDbEntity
  8
0
  6
Continuous
 62
     7
370
    25
100
AcDbCircle
 10
-18.6349712474
 20
69.5466594928
 30
0.0
 40
1.599999999999999
  0
CIRCLE
  5
9E
330
1F
100
AcDbEntity
  8
0
  6
Continuous
 62
     7
370
    25
100
AcDbCircle
 10
18.6349712474
 20
69.5466594928
 30
0.0
 40
1.600000000000006
  0
CIRCLE
  5
9F
330
1F
100
AcDbEntity
  8
0
  6
Continuous
 62
     7
370
    25
100
AcDbCircle
 10
0.0
 20
72.0
 30
0.0
 40
1.600000000000009
  0
LINE
  5
A0
330
1F
100
AcDbEntity
  8
0
  6
Continuous
 62
     7
370
    25
100
AcDbLine
 10
87.15
 20
7.6689011157
 30
0.0
 11
87.15
 21
-7.6689011157
 31
0.0
  0
ARC
  5
A1
330
1F
100
AcDbEntity
  8
0
  6
Continuous
 62
     7
370
    25
100
AcDbCircle
 10
85.15
 20
7.6689011157
 30
0.0
 40
2.0
100
AcDbArc
 50
0.0
 51
58.2431361407
  0
ARC
  5
A2
330
1F
100
AcDbEntity
  8
0
  6
Continuous
 62
     7
370
    25
100
AcDbCircle
 10
87.15
 20
10.9
 30
0.0
 40
1.800000000000003
100
AcDbArc
 50
90.0
 51
238.2431361407
  0
LINE
  5
A3
330
1F
100
AcDbEntity
  8
0
  6
Continuous
 62
     7
370
    25
100
AcDbLine
 10
97.8583714261
 20
12.7
 30
0.0
 11
87.15
 21
12.7
 31
0.0
  0
ARC
  5
A4
330
1F
100
AcDbEntity
  8
0
  6
Continuous
 62
     7
370
    25
100
AcDbCircle
 10
97.8583714261
 20
14.7
 30
0.0
 40
2.0
100
AcDbArc
 50
270.0
 51
288.1963719123
  0
ARC
  5
A5
330
1F
100
AcDbEntity
  8
0
  6
Continuous
 62
     7
370
    25
100
AcDbCircle
 10
99.0450155281
 20
11.0900310562
 30
0.0
 40
1.800000000000004
100
AcDbArc
 50
317.5743849394
 51
108.1963719123
  0
ARC
  5
A6
330
1F
100
AcDbEntity
  8
0
  6
Continuous
 62
     7
370
    25
100
AcDbCircle
 10
101.85
 20
8.5264277108
 30
0.0
 40
1.999999999999989
100
AcDbArc
 50
137.5743849394
 51
180.0
  0
LINE
  5
A7
330
1F
100
AcDbEntity
  8
0
  6
Continuous
 62
     7
370
    25
100
AcDbLine
 10
99.85
 20
-8.5264277108
 30
0.0
 11
99.85
 21
8.5264277108
 31
0.0
  0
ARC
  5
A8
330
1F
100
AcDbEntity
  8
0
  6
Continuous
 62
     7
370
    25
100
AcDbCircle
 10
101.85
 20
-8.5264277108
 30
0.0
 40
2.000000000000014
100
AcDbArc
 50
180.0
 51
222.4256150606
  0
ARC
  5
A9
330
1F
100
AcDbEntity
  8
0
  6
Continuous
 62
     7
370
    25
100
AcDbCircle
 10
99.0450155281
 20
-11.0900310562
 30
0.0
 40
1.800000000000004
100
AcDbArc
 50
251.8036280877
 51
42.4256150606
  0
ARC
  5
AA
330
1F
100
AcDbEntity
  8
0
  6
Continuous
 62
     7
370
    25
100
AcDbCircle
 10
97.8583714261
 20
-14.7
 30
0.0
 40
2.0
100
AcDbArc
 50
71.8036280877
 51
90.0
  0
LINE
  5
AB
330
1F
100
AcDbEntity
  8
0
  6
Continuous
 62
     7
370
    25
100
AcDbLine
 10
87.15
 20
-12.7
 30
0.0
 11
97.8583714261
 21
-12.7
 31
0.0
  0
ARC
  5
AC
330
1F
100
AcDbEntity
  8
0
  6
Continuous
 62
     7
370
    25
100
AcDbCircle
 10
87.15
 20
-10.9
 30
0.0
 40
1.800000000000002
100
AcDbArc
 50
121.7568638593
 51
270.0
  0
ARC
  5
AD
330
1F
100
AcDbEntity
  8
0
  6
Continuous
 62
     7
370
    25
100
AcDbCircle
 10
85.15
 20
-7.6689011157
 30
0.0
 40
2.0
100
AcDbArc
 50
301.7568638593
 51
0.0
  0
LINE
  5
AE
330
1F
100
AcDbEntity
  8
0
  6
Continuous
 62
     7
370
    25
100
AcDbLine
 10
80.5147546222
 20
34.2243894387
 30
0.0
 11
85.2543961681
 21
19.6372726808
 31
0.0
  0
ARC
  5
AF
330
1F
100
AcDbEntity
  8
0
  6
Continuous
 62
     7
370
    25
100
AcDbCircle
 10
78.6126415896
 20
33.60635545
 30
0.0
 40
2.000000000000027
100
AcDbArc
 50
18.0
 51
76.2431361407
  0
ARC
  5
B0
330
1F
100
AcDbEntity
  8
0
  6
Continuous
 62
     7
370
    25
100
AcDbCircle
 10
79.5162901564
 20
37.2973470874
 30
0.0
 40
1.800000000000006
100
AcDbArc
 50
108.0
 51
256.2431361407
  0
LINE
  5
B1
330
1F
100
AcDbEntity
  8
0
  6
Continuous
 62
     7
370
    25
100
AcDbLine
 10
89.1443259903
 20
42.3183175695
 30
0.0
 11
78.9600595666
 21
39.0092488167
 31
0.0
  0
ARC
  5
B2
330
1F
100
AcDbEntity
  8
0
  6
Continuous
 62
     7
370
    25
100
AcDbCircle
 10
88.5262920015
 20
44.2204306021
 30
0.0
 40
2.000000000000015
100
AcDbArc
 50
288.0
 51
306.1963719123
  0
ARC
  5
B3
330
1F
100
AcDbEntity
  8
0
  6
Continuous
 62
     7
370
    25
100
AcDbCircle
 10
90.77039936
 20
41.1538393082
 30
0.0
 40
1.800000000000003
100
AcDbArc
 50
335.5743849394
 51
126.1963719123
  0
ARC
  5
B4
330
1F
100
AcDbEntity
  8
0
  6
Continuous
 62
     7
370
    25
100
AcDbCircle
 10
94.2302951207
 20
39.5824955122
 30
0.0
 40
1.999999999999995
100
AcDbArc
 50
155.5743849394
 51
198.0
  0
LINE
  5
B5
330
1F
100
AcDbEntity
  8
0
  6
Continuous
 62
     7
370
    25
100
AcDbLine
 10
97.597804216
 20
22.7462322532
 30
0.0
 11
92.3281820881
 21
38.9644615234
 31
0.0
  0
ARC
  5
B6
330
1F
100
AcDbEntity
  8
0
  6
Continuous
 62
     7
370
    25
100
AcDbCircle
 10
99.4999172486
 20
23.364266242
 30
0.0
 40
2.000000000000015
100
AcDbArc
 50
198.0
 51
240.4256150606
  0
ARC
  5
B7
330
1F
100
AcDbEntity
  8
0
  6
Continuous
 62
     7
370
    25
100
AcDbCircle
 10
97.6244154891
 20
20.0593467044
 30
0.0
 40
1.800000000000003
100
AcDbArc
 50
269.8036280877
 51
60.4256150606
  0
ARC
  5
B8
330
1F
100
AcDbEntity
  8
0
  6
Continuous
 62
     7
370
    25
100
AcDbCircle
 10
97.6113916361
 20
16.259369023
 30
0.0
 40
2.000000000000001
100
AcDbArc
 50
89.8036280877
 51
108.0
  0
LINE
  5
B9
330
1F
100
AcDbEntity
  8
0
  6
Continuous
 62
     7
370
    25
100
AcDbLine
 10
86.8090912237
 20
14.8524133028
 30
0.0
 11
96.9933576474
 21
18.1614820556
 31
0.0
  0
ARC
  5
BA
330
1F
100
AcDbEntity
  8
0
  6
Continuous
 62
     7
370
    25
100
AcDbCircle
 10
86.2528606338
 20
16.5643150322
 30
0.0
 40
1.800000000000017
100
AcDbArc
 50
139.7568638593
 51
288.0
  0
ARC
  5
BB
330
1F
100
AcDbEntity
  8
0
  6
Continuous
 62
     7
370
    25
100
AcDbCircle
 10
83.3522831355
 20
19.0192386921
 30
0.0
 40
2.000000000000024
100
AcDbArc
 50
319.7568638593
 51
18.0
  0
LINE
  5
BC
330
1F
100
AcDbEntity
  8
0
  6
Continuous
 62
     7
370
    25
100
AcDbLine
 10
45.0212134065
 20
75.0134980369
 30
0.0
 11
57.4297560681
 21
65.9981640827
 31
0.0
  0
ARC
  5
BD
330
1F
100
AcDbEntity
  8
0
  6
Continuous
 62
     7
370
    25
100
AcDbCircle
 10
43.8456429019
 20
73.3954640481
 30
0.0
 40
2.000000000000002
100
AcDbArc
 50
54.0
 51
112.2431361407
  0
ARC
  5
BE
330
1F
100
AcDbEntity
  8
0
  6
Continuous
 62
     7
370
    25
100
AcDbCircle
 10
42.4071994986
 20
76.9126903098
 30
0.0
 40
1.800000000000001
100
AcDbArc
 50
144.0
 51
292.2431361407
  0
LINE
  5
BF
330
1F
100
AcDbEntity
  8
0
  6
Continuous
 62
     7
370
    25
100
AcDbLine
 10
47.2451917091
 20
86.6339582297
 30
0.0
 11
40.9509689087
 21
77.9707037639
 31
0.0
  0
ARC
  5
C0
330
1F
100
AcDbEntity
  8
0
  6
Continuous
 62
     7
370
    25
100
AcDbCircle
 10
45.6271577203
 20
87.8095287343
 30
0.0
 40
1.999999999999997
100
AcDbArc
 50
324.0
 51
342.1963719123
  0
ARC
  5
C1
330
1F
100
AcDbEntity
  8
0
  6
Continuous
 62
     7
370
    25
100
AcDbCircle
 10
49.2451758479
 20
86.6476574727
 30
0.0
 40
1.800000000000006
100
AcDbArc
 50
11.5743849394
 51
162.1963719123
  0
ARC
  5
C2
330
1F
100
AcDbEntity
  8
0
  6
Continuous
 62
     7
370
    25
100
AcDbCircle
 10
52.9679030266
 20
87.4100893403
 30
0.0
 40
2.000000000000004
100
AcDbArc
 50
191.5743849394
 51
234.0
  0
LINE
  5
C3
330
1F
100
AcDbEntity
  8
0
  6
Continuous
 62
     7
370
    25
100
AcDbLine
 10
65.5883823608
 20
75.7686384252
 30
0.0
 11
51.792332522
 21
85.7920553515
 31
0.0
  0
ARC
  5
C4
330
1F
100
AcDbEntity
  8
0
  6
Continuous
 62
     7
370
    25
100
AcDbCircle
 10
66.7639528654
 20
77.3866724139
 30
0.0
 40
1.999999999999997
100
AcDbArc
 50
234.0
 51
276.4256150606
  0
ARC
  5
C5
330
1F
100
AcDbEntity
  8
0
  6
Continuous
 62
     7
370
    25
100
AcDbCircle
 10
67.1892230331
 20
73.6105440681
 30
0.0
 40
1.800000000000005
100
AcDbArc
 50
305.8036280877
 51
96.4256150606
  0
ARC
  5
C6
330
1F
100
AcDbEntity
  8
0
  6
Continuous
 62
     7
370
    25
100
AcDbCircle
 10
69.4122573549
 20
70.5286423169
 30
0.0
 40
1.999999999999997
100
AcDbArc
 50
125.8036280877
 51
144.0
  0
LINE
  5
C7
330
1F
100
AcDbEntity
  8
0
  6
Continuous
 62
     7
370
    25
100
AcDbLine
 10
61.5000005659
 20
63.0409583557
 30
0.0
 11
67.7942233662
 21
71.7042128215
 31
0.0
  0
ARC
  5
C8
330
1F
100
AcDbEntity
  8
0
  6
Continuous
 62
     7
370
    25
100
AcDbCircle
 10
60.043769976
 20
64.0989718098
 30
0.0
 40
1.800000000000005
100
AcDbArc
 50
175.7568638593
 51
324.0
  0
ARC
  5
C9
330
1F
100
AcDbEntity
  8
0
  6
Continuous
 62
     7
370
    25
100
AcDbCircle
 10
56.2541855635
 20
64.3801300939
 30
0.0
 40
2.000000000000013
100
AcDbArc
 50
355.7568638593
 51
54.0
  0
LINE
  5
CA
330
1F
100
AcDbEntity
  8
0
  6
Continuous
 62
     7
370
    25
100
AcDbLine
 10
65.9981640827
 20
57.4297560681
 30
0.0
 11
75.0134980369
 21
45.0212134065
 31
0.0
  0
ARC
  5
CB
330
1F
100
AcDbEntity
  8
0
  6
Continuous
 62
     7
370
    25
100
AcDbCircle
 10
64.3801300939
 20
56.2541855635
 30
0.0
 40
2.000000000000001
100
AcDbArc
 50
36.0
 51
94.2431361407
  0
ARC
  5
CC
330
1F
100
AcDbEntity
  8
0
  6
Continuous
 62
     7
370
    25
100
AcDbCircle
 10
64.0989718098
 20
60.043769976
 30
0.0
 40
1.800000000000004
100
AcDbArc
 50
126.0
 51
274.2431361407
  0
LINE
  5
CD
330
1F
100
AcDbEntity
  8
0
  6
Continuous
 62
     7
370
    25
100
AcDbLine
 10
71.7042128215
 20
67.7942233662
 30
0.0
 11
63.0409583557
 21
61.5000005659
 31
0.0
  0
ARC
  5
CE
330
1F
100
AcDbEntity
  8
0
  6
Continuous
 62
     7
370
    25
100
AcDbCircle
 10
70.5286423169
 20
69.4122573549
 30
0.0
 40
2.000000000000009
100
AcDbArc
 50
306.0
 51
324.1963719123
  0
ARC
  5
CF
330
1F
100
AcDbEntity
  8
0
  6
Continuous
 62
     7
370
    25
100
AcDbCircle
 10
73.6105440681
 20
67.1892230331
 30
0.0
 40
1.80000000000001
100
AcDbArc
 50
353.5743849394
 51
144.1963719123
  0
ARC
  5
D0
330
1F
100
AcDbEntity
  8
0
  6
Continuous
 62
     7
370
    25
100
AcDbCircle
 10
77.3866724139
 20
66.7639528654
 30
0.0
 40
2.000000000000006
100
AcDbArc
 50
173.5743849394
 51
216.0
  0
LINE
  5
D1
330
1F
100
AcDbEntity
  8
0
  6
Continuous
 62
     7
370
    25
100
AcDbLine
 10
85.7920553515
 20
51.792332522
 30
0.0
 11
75.7686384252
 21
65.5883823608
 31
0.0
  0
ARC
  5
D2
330
1F
100
AcDbEntity
  8
0
  6
Continuous
 62
     7
370
    25
100
AcDbCircle
 10
87.4100893403
 20
52.9679030266
 30
0.0
 40
1.999999999999996
100
AcDbArc
 50
216.0
 51
258.4256150606
  0
ARC
  5
D3
330
1F
100
AcDbEntity
  8
0
  6
Continuous
 62
     7
370
    25
100
AcDbCircle
 10
86.6476574727
 20
49.2451758479
 30
0.0
 40
1.800000000000001
100
AcDbArc
 50
287.8036280877
 51
78.4256150606
  0
ARC
  5
D4
330
1F
100
AcDbEntity
  8
0
  6
Continuous
 62
     7
370
    25
100
AcDbCircle
 10
87.8095287343
 20
45.6271577203
 30
0.0
 40
2.000000000000009
100
AcDbArc
 50
107.8036280877
 51
126.0
  0
LINE
  5
D5
330
1F
100
AcDbEntity
  8
0
  6
Continuous
 62
     7
370
    25
100
AcDbLine
 10
77.9707037639
 20
40.9509689087
 30
0.0
 11
86.6339582297
 21
47.2451917091
 31
0.0
  0
ARC
  5
D6
330
1F
100
AcDbEntity
  8
0
  6
Continuous
 62
     7
370
    25
100
AcDbCircle
 10
76.9126903098
 20
42.4071994986
 30
0.0
 40
1.800000000000004
100
AcDbArc
 50
157.7568638593
 51
306.0
  0
ARC
  5
D7
330
1F
100
AcDbEntity
  8
0
  6
Continuous
 62
     7
370
    25
100
AcDbCircle
 10
73.3954640481
 20
43.8456429019
 30
0.0
 40
1.999999999999993
100
AcDbArc
 50
337.7568638593
 51
36.0
  0
LINE
  5
D8
330
1F
100
AcDbEntity
  8
0
  6
Continuous
 62
     7
370
    25
100
AcDbLine
 10
57.4297560681
 20
-65.9981640827
 30
0.0
 11
45.0212134065
 21
-75.0134980369
 31
0.0
  0
ARC
  5
D9
330
1F
100
AcDbEntity
  8
0
  6
Continuous
 62
     7
370
    25
100
AcDbCircle
 10
56.2541855635
 20
-64.3801300939
 30
0.0
 40
2.000000000000008
100
AcDbArc
 50
306.0
 51
4.2431361407
  0
ARC
  5
DA
330
1F
100
AcDbEntity
  8
0
  6
Continuous
 62
     7
370
    25
100
AcDbCircle
 10
60.043769976
 20
-64.0989718098
 30
0.0
 40
1.800000000000011
100
AcDbArc
 50
36.0
 51
184.2431361407
  0
LINE
  5
DB
330
1F
100
AcDbEntity
  8
0
  6
Continuous
 62
     7
370
    25
100
AcDbLine
 10
67.7942233662
 20
-71.7042128215
 30
0.0
 11
61.5000005659
 21
-63.0409583557
 31
0.0
  0
ARC
  5
DC
330
1F
100
AcDbEntity
  8
0
  6
Continuous
 62
     7
370
    25
100
AcDbCircle
 10
69.4122573549
 20
-70.5286423169
 30
0.0
 40
2.0
100
AcDbArc
 50
216.0
 51
234.1963719123
  0
ARC
  5
DD
330
1F
100
AcDbEntity
  8
0
  6
Continuous
 62
     7
370
    25
100
AcDbCircle
 10
67.1892230331
 20
-73.6105440681
 30
0.0
 40
1.800000000000008
100
AcDbArc
 50
263.5743849394
 51
54.1963719123
  0
ARC
  5
DE
330
1F
100
AcDbEntity
  8
0
  6
Continuous
 62
     7
370
    25
100
AcDbCircle
 10
66.7639528654
 20
-77.3866724139
 30
0.0
 40
2.000000000000009
100
AcDbArc
 50
83.5743849394
 51
126.0
  0
LINE
  5
DF
330
1F
100
AcDbEntity
  8
0
  6
Continuous
 62
     7
370
    25
100
AcDbLine
 10
51.792332522
 20
-85.7920553515
 30
0.0
 11
65.5883823608
 21
-75.7686384252
 31
0.0
  0
ARC
  5
E0
330
1F
100
AcDbEntity
  8
0
  6
Continuous
 62
     7
370
    25
100
AcDbCircle
 10
52.9679030266
 20
-87.4100893403
 30
0.0
 40
2.000000000000016
100
AcDbArc
 50
126.0
 51
168.4256150606
  0
ARC
  5
E1
330
1F
100
AcDbEntity
  8
0
  6
Continuous
 62
     7
370
    25
100
AcDbCircle
 10
49.2451758479
 20
-86.6476574727
 30
0.0
 40
1.800000000000004
100
AcDbArc
 50
197.8036280877
 51
348.4256150606
  0
ARC
  5
E2
330
1F
100
AcDbEntity
  8
0
  6
Continuous
 62
     7
370
    25
100
AcDbCircle
 10
45.6271577203
 20
-87.8095287343
 30
0.0
 40
1.999999999999993
100
AcDbArc
 50
17.8036280877
 51
36.0
  0
LINE
  5
E3
330
1F
100
AcDbEntity
  8
0
  6
Continuous
 62
     7
370
    25
100
AcDbLine
 10
40.9509689087
 20
-77.9707037639
 30
0.0
 11
47.2451917091
 21
-86.6339582297
 31
0.0
  0
ARC
  5
E4
330
1F
100
AcDbEntity
  8
0
  6
Continuous
 62
     7
370
    25
100
AcDbCircle
 10
42.4071994986
 20
-76.9126903098
 30
0.0
 40
1.800000000000004
100
AcDbArc
 50
67.7568638593
 51
216.0
  0
ARC
  5
E5
330
1F
100
AcDbEntity
  8
0
  6
Continuous
 62
     7
370
    25
100
AcDbCircle
 10
43.8456429019
 20
-73.3954640481
 30
0.0
 40
2.000000000000004
100
AcDbArc
 50
247.7568638593
 51
306.0
  0
LINE
  5
E6
330
1F
100
AcDbEntity
  8
0
  6
Continuous
 62
     7
370
    25
100
AcDbLine
 10
34.2243894387
 20
-80.5147546222
 30
0.0
 11
19.6372726808
 21
-85.2543961681
 31
0.0
  0
ARC
  5
E7
330
1F
100
AcDbEntity
  8
0
  6
Continuous
 62
     7
370
    25
100
AcDbCircle
 10
33.60635545
 20
-78.6126415896
 30
0.0
 40
1.999999999999998
100
AcDbArc
 50
288.0
 51
346.2431361407
  0
ARC
  5
E8
330
1F
100
AcDbEntity
  8
0
  6
Continuous
 62
     7
370
    25
100
AcDbCircle
 10
37.2973470874
 20
-79.5162901564
 30
0.0
 40
1.800000000000006
100
AcDbArc
 50
18.0
 51
166.2431361407
  0
LINE
  5
E9
330
1F
100
AcDbEntity
  8
0
  6
Continuous
 62
     7
370
    25
100
AcDbLine
 10
42.3183175695
 20
-89.1443259903
 30
0.0
 11
39.0092488167
 21
-78.9600595666
 31
0.0
  0
ARC
  5
EA
330
1F
100
AcDbEntity
  8
0
  6
Continuous
 62
     7
370
    25
100
AcDbCircle
 10
44.2204306021
 20
-88.5262920015
 30
0.0
 40
2.000000000000005
100
AcDbArc
 50
198.0
 51
216.1963719123
  0
ARC
  5
EB
330
1F
100
AcDbEntity
  8
0
  6
Continuous
 62
     7
370
    25
100
AcDbCircle
 10
41.1538393082
 20
-90.77039936
 30
0.0
 40
1.800000000000003
100
AcDbArc
 50
245.5743849394
 51
36.1963719123
  0
ARC
  5
EC
330
1F
100
AcDbEntity
  8
0
  6
Continuous
 62
     7
370
    25
100
AcDbCircle
 10
39.5824955122
 20
-94.2302951207
 30
0.0
 40
2.000000000000011
100
AcDbArc
 50
65.5743849394
 51
108.0
  0
LINE
  5
ED
330
1F
100
AcDbEntity
  8
0
  6
Continuous
 62
     7
370
    25
100
AcDbLine
 10
22.7462322532
 20
-97.597804216
 30
0.0
 11
38.9644615234
 21
-92.3281820881
 31
0.0
  0
ARC
  5
EE
330
1F
100
AcDbEntity
  8
0
  6
Continuous
 62
     7
370
    25
100
AcDbCircle
 10
23.364266242
 20
-99.4999172486
 30
0.0
 40
2.000000000000008
100
AcDbArc
 50
108.0
 51
150.4256150606
  0
ARC
  5
EF
330
1F
100
AcDbEntity
  8
0
  6
Continuous
 62
     7
370
    25
100
AcDbCircle
 10
20.0593467044
 20
-97.6244154891
 30
0.0
 40
1.800000000000002
100
AcDbArc
 50
179.8036280877
 51
330.4256150606
  0
ARC
  5
F0
330
1F
100
AcDbEntity
  8
0
  6
Continuous
 62
     7
370
    25
100
AcDbCircle
 10
16.259369023
 20
-97.6113916361
 30
0.0
 40
1.999999999999998
100
AcDbArc
 50
359.8036280877
 51
18.0
  0
LINE
  5
F1
330
1F
100
AcDbEntity
  8
0
  6
Continuous
 62
     7
370
    25
100
AcDbLine
 10
14.8524133028
 20
-86.8090912237
 30
0.0
 11
18.1614820556
 21
-96.9933576474
 31
0.0
  0
ARC
  5
F2
330
1F
100
AcDbEntity
  8
0
  6
Continuous
 62
     7
370
    25
100
AcDbCircle
 10
16.5643150322
 20
-86.2528606338
 30
0.0
 40
1.8
100
AcDbArc
 50
49.7568638593
 51
198.0
  0
ARC
  5
F3
330
1F
100
AcDbEntity
  8
0
  6
Continuous
 62
     7
370
    25
100
AcDbCircle
 10
19.0192386921
 20
-83.3522831355
 30
0.0
 40
2.000000000000011
100
AcDbArc
 50
229.7568638593
 51
288.0
  0
LINE
  5
F4
330
1F
100
AcDbEntity
  8
0
  6
Continuous
 62
     7
370
    25
100
AcDbLine
 10
85.2543961681
 20
-19.6372726808
 30
0.0
 11
80.5147546222
 21
-34.2243894387
 31
0.0
  0
ARC
  5
F5
330
1F
100
AcDbEntity
  8
0
  6
Continuous
 62
     7
370
    25
100
AcDbCircle
 10
83.3522831355
 20
-19.0192386921
 30
0.0
 40
1.999999999999994
100
AcDbArc
 50
342.0
 51
40.2431361407
  0
ARC
  5
F6
330
1F
100
AcDbEntity
  8
0
  6
Continuous
 62
     7
370
    25
100
AcDbCircle
 10
86.2528606338
 20
-16.5643150322
 30
0.0
 40
1.800000000000002
100
AcDbArc
 50
72.0
 51
220.2431361407
  0
LINE
  5
F7
330
1F
100
AcDbEntity
  8
0
  6
Continuous
 62
     7
370
    25
100
AcDbLine
 10
96.9933576474
 20
-18.1614820556
 30
0.0
 11
86.8090912237
 21
-14.8524133028
 31
0.0
  0
ARC
  5
F8
330
1F
100
AcDbEntity
  8
0
  6
Continuous
 62
     7
370
    25
100
AcDbCircle
 10
97.6113916361
 20
-16.259369023
 30
0.0
 40
1.999999999999999
100
AcDbArc
 50
252.0
 51
270.1963719123
  0
ARC
  5
F9
330
1F
100
AcDbEntity
  8
0
  6
Continuous
 62
     7
370
    25
100
AcDbCircle
 10
97.6244154891
 20
-20.0593467044
 30
0.0
 40
1.800000000000002
100
AcDbArc
 50
299.5743849394
 51
90.1963719123
  0
ARC
  5
FA
330
1F
100
AcDbEntity
  8
0
  6
Continuous
 62
     7
370
    25
100
AcDbCircle
 10
99.4999172486
 20
-23.364266242
 30
0.0
 40
1.999999999999998
100
AcDbArc
 50
119.5743849394
 51
162.0
  0
LINE
  5
FB
330
1F
100
AcDbEntity
  8
0
  6
Continuous
 62
     7
370
    25
100
AcDbLine
 10
92.3281820881
 20
-38.9644615234
 30
0.0
 11
97.597804216
 21
-22.7462322532
 31
0.0
  0
ARC
  5
FC
330
1F
100
AcDbEntity
  8
0
  6
Continuous
 62
     7
370
    25
100
AcDbCircle
 10
94.2302951207
 20
-39.5824955122
 30
0.0
 40
2.000000000000002
100
AcDbArc
 50
162.0
 51
204.4256150606
  0
ARC
  5
FD
330
1F
100
AcDbEntity
  8
0
  6
Continuous
 62
     7
370
    25
100
AcDbCircle
 10
90.77039936
 20
-41.1538393082
 30
0.0
 40
1.8
100
AcDbArc
 50
233.8036280877
 51
24.4256150606
  0
ARC
  5
FE
330
1F
100
AcDbEntity
  8
0
  6
Continuous
 62
     7
370
    25
100
AcDbCircle
 10
88.5262920015
 20
-44.2204306021
 30
0.0
 40
2.000000000000002
100
AcDbArc
 50
53.8036280877
 51
72.0
  0
LINE
  5
FF
330
1F
100
AcDbEntity
  8
0
  6
Continuous
 62
     7
370
    25
100
AcDbLine
 10
78.9600595666
 20
-39.0092488167
 30
0.0
 11
89.1443259903
 21
-42.3183175695
 31
0.0
  0
ARC
  5
100
330
1F
100
AcDbEntity
  8
0
  6
Continuous
 62
     7
370
    25
100
AcDbCircle
 10
79.5162901564
 20
-37.2973470874
 30
0.0
 40
1.8
100
AcDbArc
 50
103.7568638593
 51
252.0
  0
ARC
  5
101
330
1F
100
AcDbEntity
  8
0
  6
Continuous
 62
     7
370
    25
100
AcDbCircle
 10
78.6126415896
 20
-33.60635545
 30
0.0
 40
2.000000000000012
100
AcDbArc
 50
283.7568638593
 51
342.0
  0
LINE
  5
102
330
1F
100
AcDbEntity
  8
0
  6
Continuous
 62
     7
370
    25
100
AcDbLine
 10
75.0134980369
 20
-45.0212134065
 30
0.0
 11
65.9981640827
 21
-57.4297560681
 31
0.0
  0
ARC
  5
103
330
1F
100
AcDbEntity
  8
0
  6
Continuous
 62
     7
370
    25
100
AcDbCircle
 10
73.3954640481
 20
-43.8456429019
 30
0.0
 40
2.000000000000013
100
AcDbArc
 50
324.0
 51
22.2431361407
  0
ARC
  5
104
330
1F
100
AcDbEntity
  8
0
  6
Continuous
 62
     7
370
    25
100
AcDbCircle
 10
76.9126903098
 20
-42.4071994986
 30
0.0
 40
1.799999999999998
100
AcDbArc
 50
54.0
 51
202.2431361407
  0
LINE
  5
105
330
1F
100
AcDbEntity
  8
0
  6
Continuous
 62
     7
370
    25
100
AcDbLine
 10
86.6339582297
 20
-47.2451917091
 30
0.0
 11
77.9707037639
 21
-40.9509689087
 31
0.0
  0
ARC
  5
106
330
1F
100
AcDbEntity
  8
0
  6
Continuous
 62
     7
370
    25
100
AcDbCircle
 10
87.8095287343
 20
-45.6271577203
 30
0.0
 40
1.999999999999995
100
AcDbArc
 50
234.0
 51
252.1963719123
  0
ARC
  5
107
330
1F
100
AcDbEntity
  8
0
  6
Continuous
 62
     7
370
    25
100
AcDbCircle
 10
86.6476574727
 20
-49.2451758479
 30
0.0
 40
1.800000000000008
100
AcDbArc
 50
281.5743849394
 51
72.1963719123
  0
ARC
  5
108
330
1F
100
AcDbEntity
  8
0
  6
Continuous
 62
     7
370
    25
100
AcDbCircle
 10
87.4100893403
 20
-52.9679030266
 30
0.0
 40
2.000000000000013
100
AcDbArc
 50
101.5743849394
 51
144.0
  0
LINE
  5
109
330
1F
100
AcDbEntity
  8
0
  6
Continuous
 62
     7
370
    25
100
AcDbLine
 10
75.7686384252
 20
-65.5883823608
 30
0.0
 11
85.7920553515
 21
-51.792332522
 31
0.0
  0
ARC
  5
10A
330
1F
100
AcDbEntity
  8
0
  6
Continuous
 62
     7
370
    25
100
AcDbCircle
 10
77.3866724139
 20
-66.7639528654
 30
0.0
 40
2.000000000000006
100
AcDbArc
 50
144.0
 51
186.4256150606
  0
ARC
  5
10B
330
1F
100
AcDbEntity
  8
0
  6
Continuous
 62
     7
370
    25
100
AcDbCircle
 10
73.6105440681
 20
-67.1892230331
 30
0.0
 40
1.800000000000008
100
AcDbArc
 50
215.8036280877
 51
6.4256150606
  0
ARC
  5
10C
330
1F
100
AcDbEntity
  8
0
  6
Continuous
 62
     7
370
    25
100
AcDbCircle
 10
70.5286423169
 20
-69.4122573549
 30
0.0
 40
2.000000000000009
100
AcDbArc
 50
35.8036280877
 51
54.0
  0
LINE
  5
10D
330
1F
100
AcDbEntity
  8
0
  6
Continuous
 62
     7
370
    25
100
AcDbLine
 10
63.0409583557
 20
-61.5000005659
 30
0.0
 11
71.7042128215
 21
-67.7942233662
 31
0.0
  0
ARC
  5
10E
330
1F
100
AcDbEntity
  8
0
  6
Continuous
 62
     7
370
    25
100
AcDbCircle
 10
64.0989718098
 20
-60.043769976
 30
0.0
 40
1.799999999999996
100
AcDbArc
 50
85.7568638593
 51
234.0
  0
ARC
  5
10F
330
1F
100
AcDbEntity
  8
0
  6
Continuous
 62
     7
370
    25
100
AcDbCircle
 10
64.3801300939
 20
-56.2541855635
 30
0.0
 40
2.000000000000009
100
AcDbArc
 50
265.7568638593
 51
324.0
  0
LINE
  5
110
330
1F
100
AcDbEntity
  8
0
  6
Continuous
 62
     7
370
    25
100
AcDbLine
 10
-85.2543961681
 20
19.6372726808
 30
0.0
 11
-80.5147546222
 21
34.2243894387
 31
0.0
  0
ARC
  5
111
330
1F
100
AcDbEntity
  8
0
  6
Continuous
 62
     7
370
    25
100
AcDbCircle
 10
-83.3522831355
 20
19.0192386921
 30
0.0
 40
1.999999999999994
100
AcDbArc
 50
162.0
 51
220.2431361407
  0
ARC
  5
112
330
1F
100
AcDbEntity
  8
0
  6
Continuous
 62
     7
370
    25
100
AcDbCircle
 10
-86.2528606338
 20
16.5643150322
 30
0.0
 40
1.800000000000011
100
AcDbArc
 50
252.0
 51
40.2431361407
  0
LINE
  5
113
330
1F
100
AcDbEntity
  8
0
  6
Continuous
 62
     7
370
    25
100
AcDbLine
 10
-96.9933576474
 20
18.1614820556
 30
0.0
 11
-86.8090912237
 21
14.8524133028
 31
0.0
  0
ARC
  5
114
330
1F
100
AcDbEntity
  8
0
  6
Continuous
 62
     7
370
    25
100
AcDbCircle
 10
-97.6113916361
 20
16.259369023
 30
0.0
 40
2.000000000000003
100
AcDbArc
 50
72.0
 51
90.1963719123
  0
ARC
  5
115
330
1F
100
AcDbEntity
  8
0
  6
Continuous
 62
     7
370
    25
100
AcDbCircle
 10
-97.6244154891
 20
20.0593467044
 30
0.0
 40
1.800000000000004
100
AcDbArc
 50
119.5743849394
 51
270.1963719123
  0
ARC
  5
116
330
1F
100
AcDbEntity
  8
0
  6
Continuous
 62
     7
370
    25
100
AcDbCircle
 10
-99.4999172486
 20
23.364266242
 30
0.0
 40
2.000000000000006
100
AcDbArc
 50
299.5743849394
 51
342.0
  0
LINE
  5
117
330
1F
100
AcDbEntity
  8
0
  6
Continuous
 62
     7
370
    25
100
AcDbLine
 10
-92.3281820881
 20
38.9644615234
 30
0.0
 11
-97.597804216
 21
22.7462322532
 31
0.0
  0
ARC
  5
118
330
1F
100
AcDbEntity
  8
0
  6
Continuous
 62
     7
370
    25
100
AcDbCircle
 10
-94.2302951207
 20
39.5824955122
 30
0.0
 40
1.999999999999993
100
AcDbArc
 50
342.0
 51
24.4256150606
  0
ARC
  5
119
330
1F
100
AcDbEntity
  8
0
  6
Continuous
 62
     7
370
    25
100
AcDbCircle
 10
-90.77039936
 20
41.1538393082
 30
0.0
 40
1.800000000000014
100
AcDbArc
 50
53.8036280877
 51
204.4256150606
  0
ARC
  5
11A
330
1F
100
AcDbEntity
  8
0
  6
Continuous
 62
     7
370
    25
100
AcDbCircle
 10
-88.5262920015
 20
44.2204306021
 30
0.0
 40
2.000000000000004
100
AcDbArc
 50
233.8036280877
 51
252.0
  0
LINE
  5
11B
330
1F
100
AcDbEntity
  8
0
  6
Continuous
 62
     7
370
    25
100
AcDbLine
 10
-78.9600595666
 20
39.0092488167
 30
0.0
 11
-89.1443259903
 21
42.3183175695
 31
0.0
  0
ARC
  5
11C
330
1F
100
AcDbEntity
  8
0
  6
Continuous
 62
     7
370
    25
100
AcDbCircle
 10
-79.5162901564
 20
37.2973470874
 30
0.0
 40
1.800000000000007
100
AcDbArc
 50
283.7568638593
 51
72.0
  0
ARC
  5
11D
330
1F
100
AcDbEntity
  8
0
  6
Continuous
 62
     7
370
    25
100
AcDbCircle
 10
-78.6126415896
 20
33.60635545
 30
0.0
 40
2.000000000000005
100
AcDbArc
 50
103.7568638593
 51
162.0
  0
LINE
  5
11E
330
1F
100
AcDbEntity
  8
0
  6
Continuous
 62
     7
370
    25
100
AcDbLine
 10
-75.0134980369
 20
45.0212134065
 30
0.0
 11
-65.9981640827
 21
57.4297560681
 31
0.0
  0
ARC
  5
11F
330
1F
100
AcDbEntity
  8
0
  6
Continuous
 62
     7
370
    25
100
AcDbCircle
 10
-73.3954640481
 20
43.8456429019
 30
0.0
 40
2.00000000000001
100
AcDbArc
 50
144.0
 51
202.2431361407
  0
ARC
  5
120
330
1F
100
AcDbEntity
  8
0
  6
Continuous
 62
     7
370
    25
100
AcDbCircle
 10
-76.9126903098
 20
42.4071994986
 30
0.0
 40
1.800000000000001
100
AcDbArc
 50
234.0
 51
22.2431361407
  0
LINE
  5
121
330
1F
100
AcDbEntity
  8
0
  6
Continuous
 62
     7
370
    25
100
AcDbLine
 10
-86.6339582297
 20
47.2451917091
 30
0.0
 11
-77.9707037639
 21
40.9509689087
 31
0.0
  0
ARC
  5
122
330
1F
100
AcDbEntity
  8
0
  6
Continuous
 62
     7
370
    25
100
AcDbCircle
 10
-87.8095287343
 20
45.6271577203
 30
0.0
 40
2.000000000000014
100
AcDbArc
 50
54.0
 51
72.1963719123
  0
ARC
  5
123
330
1F
100
AcDbEntity
  8
0
  6
Continuous
 62
     7
370
    25
100
AcDbCircle
 10
-86.6476574727
 20
49.2451758479
 30
0.0
 40
1.800000000000006
100
AcDbArc
 50
101.5743849394
 51
252.1963719123
  0
ARC
  5
124
330
1F
100
AcDbEntity
  8
0
  6
Continuous
 62
     7
370
    25
100
AcDbCircle
 10
-87.4100893403
 20
52.9679030266
 30
0.0
 40
2.000000000000001
100
AcDbArc
 50
281.5743849394
 51
324.0
  0
LINE
  5
125
330
1F
100
AcDbEntity
  8
0
  6
Continuous
 62
     7
370
    25
100
AcDbLine
 10
-75.7686384252
 20
65.5883823608
 30
0.0
 11
-85.7920553515
 21
51.792332522
 31
0.0
  0
ARC
  5
126
330
1F
100
AcDbEntity
  8
0
  6
Continuous
 62
     7
370
    25
100
AcDbCircle
 10
-77.3866724139
 20
66.7639528654
 30
0.0
 40
2.000000000000003
100
AcDbArc
 50
324.0
 51
6.4256150606
  0
ARC
  5
127
330
1F
100
AcDbEntity
  8
0
  6
Continuous
 62
     7
370
    25
100
AcDbCircle
 10
-73.6105440681
 20
67.1892230331
 30
0.0
 40
1.800000000000005
100
AcDbArc
 50
35.8036280877
 51
186.4256150606
  0
ARC
  5
128
330
1F
100
AcDbEntity
  8
0
  6
Continuous
 62
     7
370
    25
100
AcDbCircle
 10
-70.5286423169
 20
69.4122573549
 30
0.0
 40
2.000000000000017
100
AcDbArc
 50
215.8036280877
 51
234.0
  0
LINE
  5
129
330
1F
100
AcDbEntity
  8
0
  6
Continuous
 62
     7
370
    25
100
AcDbLine
 10
-63.0409583557
 20
61.5000005659
 30
0.0
 11
-71.7042128215
 21
67.7942233662
 31
0.0
  0
ARC
  5
12A
330
1F
100
AcDbEntity
  8
0
  6
Continuous
 62
     7
370
    25
100
AcDbCircle
 10
-64.0989718098
 20
60.043769976
 30
0.0
 40
1.800000000000022
100
AcDbArc
 50
265.7568638593
 51
54.0
  0
ARC
  5
12B
330
1F
100
AcDbEntity
  8
0
  6
Continuous
 62
     7
370
    25
100
AcDbCircle
 10
-64.3801300939
 20
56.2541855635
 30
0.0
 40
1.999999999999996
100
AcDbArc
 50
85.7568638593
 51
144.0
  0
LINE
  5
12C
330
1F
100
AcDbEntity
  8
0
  6
Continuous
 62
     7
370
    25
100
AcDbLine
 10
-87.15
 20
-7.6689011157
 30
0.0
 11
-87.15
 21
7.6689011157
 31
0.0
  0
ARC
  5
12D
330
1F
100
AcDbEntity
  8
0
  6
Continuous
 62
     7
370
    25
100
AcDbCircle
 10
-85.15
 20
-7.6689011157
 30
0.0
 40
2.000000000000014
100
AcDbArc
 50
180.0
 51
238.2431361407
  0
ARC
  5
12E
330
1F
100
AcDbEntity
  8
0
  6
Continuous
 62
     7
370
    25
100
AcDbCircle
 10
-87.15
 20
-10.9
 30
0.0
 40
1.800000000000003
100
AcDbArc
 50
270.0
 51
58.2431361407
  0
LINE
  5
12F
330
1F
100
AcDbEntity
  8
0
  6
Continuous
 62
     7
370
    25
100
AcDbLine
 10
-97.8583714261
 20
-12.7
 30
0.0
 11
-87.15
 21
-12.7
 31
0.0
  0
ARC
  5
130
330
1F
100
AcDbEntity
  8
0
  6
Continuous
 62
     7
370
    25
100
AcDbCircle
 10
-97.8583714261
 20
-14.7
 30
0.0
 40
2.0
100
AcDbArc
 50
90.0
 51
108.1963719123
  0
ARC
  5
131
330
1F
100
AcDbEntity
  8
0
  6
Continuous
 62
     7
370
    25
100
AcDbCircle
 10
-99.0450155281
 20
-11.0900310562
 30
0.0
 40
1.8
100
AcDbArc
 50
137.5743849394
 51
288.1963719123
  0
ARC
  5
132
330
1F
100
AcDbEntity
  8
0
  6
Continuous
 62
     7
370
    25
100
AcDbCircle
 10
-101.85
 20
-8.5264277108
 30
0.0
 40
2.000000000000003
100
AcDbArc
 50
317.5743849394
 51
0.0
  0
LINE
  5
133
330
1F
100
AcDbEntity
  8
0
  6
Continuous
 62
     7
370
    25
100
AcDbLine
 10
-99.85
 20
8.5264277108
 30
0.0
 11
-99.85
 21
-8.5264277108
 31
0.0
  0
ARC
  5
134
330
1F
100
AcDbEntity
  8
0
  6
Continuous
 62
     7
370
    25
100
AcDbCircle
 10
-101.85
 20
8.5264277108
 30
0.0
 40
2.0
100
AcDbArc
 50
0.0
 51
42.4256150606
  0
ARC
  5
135
330
1F
100
AcDbEntity
  8
0
  6
Continuous
 62
     7
370
    25
100
AcDbCircle
 10
-99.0450155281
 20
11.0900310562
 30
0.0
 40
1.800000000000004
100
AcDbArc
 50
71.8036280877
 51
222.4256150606
  0
ARC
  5
136
330
1F
100
AcDbEntity
  8
0
  6
Continuous
 62
     7
370
    25
100
AcDbCircle
 10
-97.8583714261
 20
14.7
 30
0.0
 40
2.0
100
AcDbArc
 50
251.8036280877
 51
270.0
  0
LINE
  5
137
330
1F
100
AcDbEntity
  8
0
  6
Continuous
 62
     7
370
    25
100
AcDbLine
 10
-87.15
 20
12.7
 30
0.0
 11
-97.8583714261
 21
12.7
 31
0.0
  0
ARC
  5
138
330
1F
100
AcDbEntity
  8
0
  6
Continuous
 62
     7
370
    25
100
AcDbCircle
 10
-87.15
 20
10.9
 30
0.0
 40
1.800000000000004
100
AcDbArc
 50
301.7568638593
 51
90.0
  0
ARC
  5
139
330
1F
100
AcDbEntity
  8
0
  6
Continuous
 62
     7
370
    25
100
AcDbCircle
 10
-85.15
 20
7.6689011157
 30
0.0
 40
1.999999999999996
100
AcDbArc
 50
121.7568638593
 51
180.0
  0
LINE
  5
13A
330
1F
100
AcDbEntity
  8
0
  6
Continuous
 62
     7
370
    25
100
AcDbLine
 10
-80.5147546222
 20
-34.2243894387
 30
0.0
 11
-85.2543961681
 21
-19.6372726808
 31
0.0
  0
ARC
  5
13B
330
1F
100
AcDbEntity
  8
0
  6
Continuous
 62
     7
370
    25
100
AcDbCircle
 10
-78.6126415896
 20
-33.60635545
 30
0.0
 40
1.999999999999998
100
AcDbArc
 50
198.0
 51
256.2431361407
  0
ARC
  5
13C
330
1F
100
AcDbEntity
  8
0
  6
Continuous
 62
     7
370
    25
100
AcDbCircle
 10
-79.5162901564
 20
-37.2973470874
 30
0.0
 40
1.800000000000002
100
AcDbArc
 50
288.0
 51
76.2431361407
  0
LINE
  5
13D
330
1F
100
AcDbEntity
  8
0
  6
Continuous
 62
     7
370
    25
100
AcDbLine
 10
-89.1443259903
 20
-42.3183175695
 30
0.0
 11
-78.9600595666
 21
-39.0092488167
 31
0.0
  0
ARC
  5
13E
330
1F
100
AcDbEntity
  8
0
  6
Continuous
 62
     7
370
    25
100
AcDbCircle
 10
-88.5262920015
 20
-44.2204306021
 30
0.0
 40
2.000000000000007
100
AcDbArc
 50
108.0
 51
126.1963719123
  0
ARC
  5
13F
330
1F
100
AcDbEntity
  8
0
  6
Continuous
 62
     7
370
    25
100
AcDbCircle
 10
-90.77039936
 20
-41.1538393082
 30
0.0
 40
1.800000000000003
100
AcDbArc
 50
155.5743849394
 51
306.1963719123
  0
ARC
  5
140
330
1F
100
AcDbEntity
  8
0
  6
Continuous
 62
     7
370
    25
100
AcDbCircle
 10
-94.2302951207
 20
-39.5824955122
 30
0.0
 40
2.000000000000008
100
AcDbArc
 50
335.5743849394
 51
18.0
  0
LINE
  5
141
330
1F
100
AcDbEntity
  8
0
  6
Continuous
 62
     7
370
    25
100
AcDbLine
 10
-97.597804216
 20
-22.7462322532
 30
0.0
 11
-92.3281820881
 21
-38.9644615234
 31
0.0
  0
ARC
  5
142
330
1F
100
AcDbEntity
  8
0
  6
Continuous
 62
     7
370
    25
100
AcDbCircle
 10
-99.4999172486
 20
-23.364266242
 30
0.0
 40
2.000000000000007
100
AcDbArc
 50
18.0
 51
60.4256150606
  0
ARC
  5
143
330
1F
100
AcDbEntity
  8
0
  6
Continuous
 62
     7
370
    25
100
AcDbCircle
 10
-97.6244154891
 20
-20.0593467044
 30
0.0
 40
1.800000000000004
100
AcDbArc
 50
89.8036280877
 51
240.4256150606
  0
ARC
  5
144
330
1F
100
AcDbEntity
  8
0
  6
Continuous
 62
     7
370
    25
100
AcDbCircle
 10
-97.6113916361
 20
-16.259369023
 30
0.0
 40
1.999999999999998
100
AcDbArc
 50
269.8036280877
 51
288.0
  0
LINE
  5
145
330
1F
100
AcDbEntity
  8
0
  6
Continuous
 62
     7
370
    25
100
AcDbLine
 10
-86.8090912237
 20
-14.8524133028
 30
0.0
 11
-96.9933576474
 21
-18.1614820556
 31
0.0
  0
ARC
  5
146
330
1F
100
AcDbEntity
  8
0
  6
Continuous
 62
     7
370
    25
100
AcDbCircle
 10
-86.2528606338
 20
-16.5643150322
 30
0.0
 40
1.8
100
AcDbArc
 50
319.7568638593
 51
108.0
  0
ARC
  5
147
330
1F
100
AcDbEntity
  8
0
  6
Continuous
 62
     7
370
    25
100
AcDbCircle
 10
-83.3522831355
 20
-19.0192386921
 30
0.0
 40
2.000000000000007
100
AcDbArc
 50
139.7568638593
 51
198.0
  0
LINE
  5
148
330
1F
100
AcDbEntity
  8
0
  6
Continuous
 62
     7
370
    25
100
AcDbLine
 10
7.6689011157
 20
-87.15
 30
0.0
 11
-7.6689011157
 21
-87.15
 31
0.0
  0
ARC
  5
149
330
1F
100
AcDbEntity
  8
0
  6
Continuous
 62
     7
370
    25
100
AcDbCircle
 10
7.6689011157
 20
-85.15
 30
0.0
 40
2.0
100
AcDbArc
 50
270.0
 51
328.2431361407
  0
ARC
  5
14A
330
1F
100
AcDbEntity
  8
0
  6
Continuous
 62
     7
370
    25
100
AcDbCircle
 10
10.9
 20
-87.15
 30
0.0
 40
1.800000000000002
100
AcDbArc
 50
0.0
 51
148.2431361407
  0
LINE
  5
14B
330
1F
100
AcDbEntity
  8
0
  6
Continuous
 62
     7
370
    25
100
AcDbLine
 10
12.7
 20
-97.8583714261
 30
0.0
 11
12.7
 21
-87.15
 31
0.0
  0
ARC
  5
14C
330
1F
100
AcDbEntity
  8
0
  6
Continuous
 62
     7
370
    25
100
AcDbCircle
 10
14.7
 20
-97.8583714261
 30
0.0
 40
2.000000000000001
100
AcDbArc
 50
180.0
 51
198.1963719123
  0
ARC
  5
14D
330
1F
100
AcDbEntity
  8
0
  6
Continuous
 62
     7
370
    25
100
AcDbCircle
 10
11.0900310562
 20
-99.0450155281
 30
0.0
 40
1.800000000000005
100
AcDbArc
 50
227.5743849394
 51
18.1963719123
  0
ARC
  5
14E
330
1F
100
AcDbEntity
  8
0
  6
Continuous
 62
     7
370
    25
100
AcDbCircle
 10
8.5264277108
 20
-101.85
 30
0.0
 40
2.0
100
AcDbArc
 50
47.5743849394
 51
90.0
  0
LINE
  5
14F
330
1F
100
AcDbEntity
  8
0
  6
Continuous
 62
     7
370
    25
100
AcDbLine
 10
-8.5264277108
 20
-99.85
 30
0.0
 11
8.5264277108
 21
-99.85
 31
0.0
  0
ARC
  5
150
330
1F
100
AcDbEntity
  8
0
  6
Continuous
 62
     7
370
    25
100
AcDbCircle
 10
-8.5264277108
 20
-101.85
 30
0.0
 40
2.0
100
AcDbArc
 50
90.0
 51
132.4256150606
  0
ARC
  5
151
330
1F
100
AcDbEntity
  8
0
  6
Continuous
 62
     7
370
    25
100
AcDbCircle
 10
-11.0900310562
 20
-99.0450155281
 30
0.0
 40
1.800000000000005
100
AcDbArc
 50
161.8036280877
 51
312.4256150606
  0
ARC
  5
152
330
1F
100
AcDbEntity
  8
0
  6
Continuous
 62
     7
370
    25
100
AcDbCircle
 10
-14.7
 20
-97.8583714261
 30
0.0
 40
2.0
100
AcDbArc
 50
341.8036280877
 51
0.0
  0
LINE
  5
153
330
1F
100
AcDbEntity
  8
0
  6
Continuous
 62
     7
370
    25
100
AcDbLine
 10
-12.7
 20
-87.15
 30
0.0
 11
-12.7
 21
-97.8583714261
 31
0.0
  0
ARC
  5
154
330
1F
100
AcDbEntity
  8
0
  6
Continuous
 62
     7
370
    25
100
AcDbCircle
 10
-10.9
 20
-87.15
 30
0.0
 40
1.800000000000004
100
AcDbArc
 50
31.7568638593
 51
180.0
  0
ARC
  5
155
330
1F
100
AcDbEntity
  8
0
  6
Continuous
 62
     7
370
    25
100
AcDbCircle
 10
-7.6689011157
 20
-85.15
 30
0.0
 40
2.0
100
AcDbArc
 50
211.7568638593
 51
270.0
  0
LINE
  5
156
330
1F
100
AcDbEntity
  8
0
  6
Continuous
 62
     7
370
    25
100
AcDbLine
 10
-19.6372726808
 20
-85.2543961681
 30
0.0
 11
-34.2243894387
 21
-80.5147546222
 31
0.0
  0
ARC
  5
157
330
1F
100
AcDbEntity
  8
0
  6
Continuous
 62
     7
370
    25
100
AcDbCircle
 10
-19.0192386921
 20
-83.3522831355
 30
0.0
 40
1.999999999999994
100
AcDbArc
 50
252.0
 51
310.2431361407
  0
ARC
  5
158
330
1F
100
AcDbEntity
  8
0
  6
Continuous
 62
     7
370
    25
100
AcDbCircle
 10
-16.5643150322
 20
-86.2528606338
 30
0.0
 40
1.799999999999999
100
AcDbArc
 50
342.0
 51
130.2431361407
  0
LINE
  5
159
330
1F
100
AcDbEntity
  8
0
  6
Continuous
 62
     7
370
    25
100
AcDbLine
 10
-18.1614820556
 20
-96.9933576474
 30
0.0
 11
-14.8524133028
 21
-86.8090912237
 31
0.0
  0
ARC
  5
15A
330
1F
100
AcDbEntity
  8
0
  6
Continuous
 62
     7
370
    25
100
AcDbCircle
 10
-16.259369023
 20
-97.6113916361
 30
0.0
 40
1.999999999999998
100
AcDbArc
 50
162.0
 51
180.1963719123
  0
ARC
  5
15B
330
1F
100
AcDbEntity
  8
0
  6
Continuous
 62
     7
370
    25
100
AcDbCircle
 10
-20.0593467044
 20
-97.6244154891
 30
0.0
 40
1.800000000000005
100
AcDbArc
 50
209.5743849394
 51
0.1963719123
  0
ARC
  5
15C
330
1F
100
AcDbEntity
  8
0
  6
Continuous
 62
     7
370
    25
100
AcDbCircle
 10
-23.364266242
 20
-99.4999172486
 30
0.0
 40
1.999999999999994
100
AcDbArc
 50
29.5743849394
 51
72.0
  0
LINE
  5
15D
330
1F
100
AcDbEntity
  8
0
  6
Continuous
 62
     7
370
    25
100
AcDbLine
 10
-38.9644615234
 20
-92.3281820881
 30
0.0
 11
-22.7462322532
 21
-97.597804216
 31
0.0
  0
ARC
  5
15E
330
1F
100
AcDbEntity
  8
0
  6
Continuous
 62
     7
370
    25
100
AcDbCircle
 10
-39.5824955122
 20
-94.2302951207
 30
0.0
 40
2.000000000000006
100
AcDbArc
 50
72.0
 51
114.4256150606
  0
ARC
  5
15F
330
1F
100
AcDbEntity
  8
0
  6
Continuous
 62
     7
370
    25
100
AcDbCircle
 10
-41.1538393082
 20
-90.77039936
 30
0.0
 40
1.80000000000001
100
AcDbArc
 50
143.8036280877
 51
294.4256150606
  0
ARC
  5
160
330
1F
100
AcDbEntity
  8
0
  6
Continuous
 62
     7
370
    25
100
AcDbCircle
 10
-44.2204306021
 20
-88.5262920015
 30
0.0
 40
2.000000000000005
100
AcDbArc
 50
323.8036280877
 51
342.0
  0
LINE
  5
161
330
1F
100
AcDbEntity
  8
0
  6
Continuous
 62
     7
370
    25
100
AcDbLine
 10
-39.0092488167
 20
-78.9600595666
 30
0.0
 11
-42.3183175695
 21
-89.1443259903
 31
0.0
  0
ARC
  5
162
330
1F
100
AcDbEntity
  8
0
  6
Continuous
 62
     7
370
    25
100
AcDbCircle
 10
-37.2973470874
 20
-79.5162901564
 30
0.0
 40
1.799999999999998
100
AcDbArc
 50
13.7568638593
 51
162.0
  0
ARC
  5
163
330
1F
100
AcDbEntity
  8
0
  6
Continuous
 62
     7
370
    25
100
AcDbCircle
 10
-33.60635545
 20
-78.6126415896
 30
0.0
 40
2.000000000000005
100
AcDbArc
 50
193.7568638593
 51
252.0
  0
LINE
  5
164
330
1F
100
AcDbEntity
  8
0
  6
Continuous
 62
     7
370
    25
100
AcDbLine
 10
-65.9981640827
 20
-57.4297560681
 30
0.0
 11
-75.0134980369
 21
-45.0212134065
 31
0.0
  0
ARC
  5
165
330
1F
100
AcDbEntity
  8
0
  6
Continuous
 62
     7
370
    25
100
AcDbCircle
 10
-64.3801300939
 20
-56.2541855635
 30
0.0
 40
2.000000000000008
100
AcDbArc
 50
216.0
 51
274.2431361407
  0
ARC
  5
166
330
1F
100
AcDbEntity
  8
0
  6
Continuous
 62
     7
370
    25
100
AcDbCircle
 10
-64.0989718098
 20
-60.043769976
 30
0.0
 40
1.799999999999998
100
AcDbArc
 50
306.0
 51
94.2431361407
  0
LINE
  5
167
330
1F
100
AcDbEntity
  8
0
  6
Continuous
 62
     7
370
    25
100
AcDbLine
 10
-71.7042128215
 20
-67.7942233662
 30
0.0
 11
-63.0409583557
 21
-61.5000005659
 31
0.0
  0
ARC
  5
168
330
1F
100
AcDbEntity
  8
0
  6
Continuous
 62
     7
370
    25
100
AcDbCircle
 10
-70.5286423169
 20
-69.4122573549
 30
0.0
 40
2.000000000000012
100
AcDbArc
 50
126.0
 51
144.1963719123
  0
ARC
  5
169
330
1F
100
AcDbEntity
  8
0
  6
Continuous
 62
     7
370
    25
100
AcDbCircle
 10
-73.6105440681
 20
-67.1892230331
 30
0.0
 40
1.800000000000012
100
AcDbArc
 50
173.5743849394
 51
324.1963719123
  0
ARC
  5
16A
330
1F
100
AcDbEntity
  8
0
  6
Continuous
 62
     7
370
    25
100
AcDbCircle
 10
-77.3866724139
 20
-66.7639528654
 30
0.0
 40
2.000000000000004
100
AcDbArc
 50
353.5743849394
 51
36.0
  0
LINE
  5
16B
330
1F
100
AcDbEntity
  8
0
  6
Continuous
 62
     7
370
    25
100
AcDbLine
 10
-85.7920553515
 20
-51.792332522
 30
0.0
 11
-75.7686384252
 21
-65.5883823608
 31
0.0
  0
ARC
  5
16C
330
1F
100
AcDbEntity
  8
0
  6
Continuous
 62
     7
370
    25
100
AcDbCircle
 10
-87.4100893403
 20
-52.9679030266
 30
0.0
 40
2.000000000000019
100
AcDbArc
 50
36.0
 51
78.4256150606
  0
ARC
  5
16D
330
1F
100
AcDbEntity
  8
0
  6
Continuous
 62
     7
370
    25
100
AcDbCircle
 10
-86.6476574727
 20
-49.2451758479
 30
0.0
 40
1.800000000000004
100
AcDbArc
 50
107.8036280877
 51
258.4256150606
  0
ARC
  5
16E
330
1F
100
AcDbEntity
  8
0
  6
Continuous
 62
     7
370
    25
100
AcDbCircle
 10
-87.8095287343
 20
-45.6271577203
 30
0.0
 40
2.0
100
AcDbArc
 50
287.8036280877
 51
306.0
  0
LINE
  5
16F
330
1F
100
AcDbEntity
  8
0
  6
Continuous
 62
     7
370
    25
100
AcDbLine
 10
-77.9707037639
 20
-40.9509689087
 30
0.0
 11
-86.6339582297
 21
-47.2451917091
 31
0.0
  0
ARC
  5
170
330
1F
100
AcDbEntity
  8
0
  6
Continuous
 62
     7
370
    25
100
AcDbCircle
 10
-76.9126903098
 20
-42.4071994986
 30
0.0
 40
1.800000000000009
100
AcDbArc
 50
337.7568638593
 51
126.0
  0
ARC
  5
171
330
1F
100
AcDbEntity
  8
0
  6
Continuous
 62
     7
370
    25
100
AcDbCircle
 10
-73.3954640481
 20
-43.8456429019
 30
0.0
 40
1.999999999999999
100
AcDbArc
 50
157.7568638593
 51
216.0
  0
LINE
  5
172
330
1F
100
AcDbEntity
  8
0
  6
Continuous
 62
     7
370
    25
100
AcDbLine
 10
-45.0212134065
 20
-75.0134980369
 30
0.0
 11
-57.4297560681
 21
-65.9981640827
 31
0.0
  0
ARC
  5
173
330
1F
100
AcDbEntity
  8
0
  6
Continuous
 62
     7
370
    25
100
AcDbCircle
 10
-43.8456429019
 20
-73.3954640481
 30
0.0
 40
2.000000000000006
100
AcDbArc
 50
234.0
 51
292.2431361407
  0
ARC
  5
174
330
1F
100
AcDbEntity
  8
0
  6
Continuous
 62
     7
370
    25
100
AcDbCircle
 10
-42.4071994986
 20
-76.9126903098
 30
0.0
 40
1.800000000000001
100
AcDbArc
 50
324.0
 51
112.2431361407
  0
LINE
  5
175
330
1F
100
AcDbEntity
  8
0
  6
Continuous
 62
     7
370
    25
100
AcDbLine
 10
-47.2451917091
 20
-86.6339582297
 30
0.0
 11
-40.9509689087
 21
-77.9707037639
 31
0.0
  0
ARC
  5
176
330
1F
100
AcDbEntity
  8
0
  6
Continuous
 62
     7
370
    25
100
AcDbCircle
 10
-45.6271577203
 20
-87.8095287343
 30
0.0
 40
1.999999999999999
100
AcDbArc
 50
144.0
 51
162.1963719123
  0
ARC
  5
177
330
1F
100
AcDbEntity
  8
0
  6
Continuous
 62
     7
370
    25
100
AcDbCircle
 10
-49.2451758479
 20
-86.6476574727
 30
0.0
 40
1.800000000000001
100
AcDbArc
 50
191.5743849394
 51
342.1963719123
  0
ARC
  5
178
330
1F
100
AcDbEntity
  8
0
  6
Continuous
 62
     7
370
    25
100
AcDbCircle
 10
-52.9679030266
 20
-87.4100893403
 30
0.0
 40
1.99999999999999
100
AcDbArc
 50
11.5743849394
 51
54.0
  0
LINE
  5
179
330
1F
100
AcDbEntity
  8
0
  6
Continuous
 62
     7
370
    25
100
AcDbLine
 10
-65.5883823608
 20
-75.7686384252
 30
0.0
 11
-51.792332522
 21
-85.7920553515
 31
0.0
  0
ARC
  5
17A
330
1F
100
AcDbEntity
  8
0
  6
Continuous
 62
     7
370
    25
100
AcDbCircle
 10
-66.7639528654
 20
-77.3866724139
 30
0.0
 40
2.000000000000006
100
AcDbArc
 50
54.0
 51
96.4256150606
  0
ARC
  5
17B
330
1F
100
AcDbEntity
  8
0
  6
Continuous
 62
     7
370
    25
100
AcDbCircle
 10
-67.1892230331
 20
-73.6105440681
 30
0.0
 40
1.8
100
AcDbArc
 50
125.8036280877
 51
276.4256150606
  0
ARC
  5
17C
330
1F
100
AcDbEntity
  8
0
  6
Continuous
 62
     7
370
    25
100
AcDbCircle
 10
-69.4122573549
 20
-70.5286423169
 30
0.0
 40
2.000000000000001
100
AcDbArc
 50
305.8036280877
 51
324.0
  0
LINE
  5
17D
330
1F
100
AcDbEntity
  8
0
  6
Continuous
 62
     7
370
    25
100
AcDbLine
 10
-61.5000005659
 20
-63.0409583557
 30
0.0
 11
-67.7942233662
 21
-71.7042128215
 31
0.0
  0
ARC
  5
17E
330
1F
100
AcDbEntity
  8
0
  6
Continuous
 62
     7
370
    25
100
AcDbCircle
 10
-60.043769976
 20
-64.0989718098
 30
0.0
 40
1.800000000000001
100
AcDbArc
 50
355.7568638593
 51
144.0
  0
ARC
  5
17F
330
1F
100
AcDbEntity
  8
0
  6
Continuous
 62
     7
370
    25
100
AcDbCircle
 10
-56.2541855635
 20
-64.3801300939
 30
0.0
 40
2.00000000000001
100
AcDbArc
 50
175.7568638593
 51
234.0
  0
LINE
  5
180
330
1F
100
AcDbEntity
  8
0
  6
Continuous
 62
     7
370
    25
100
AcDbLine
 10
-34.2243894387
 20
80.5147546222
 30
0.0
 11
-19.6372726808
 21
85.2543961681
 31
0.0
  0
ARC
  5
181
330
1F
100
AcDbEntity
  8
0
  6
Continuous
 62
     7
370
    25
100
AcDbCircle
 10
-33.60635545
 20
78.6126415896
 30
0.0
 40
2.000000000000007
100
AcDbArc
 50
108.0
 51
166.2431361407
  0
ARC
  5
182
330
1F
100
AcDbEntity
  8
0
  6
Continuous
 62
     7
370
    25
100
AcDbCircle
 10
-37.2973470874
 20
79.5162901564
 30
0.0
 40
1.800000000000009
100
AcDbArc
 50
198.0
 51
346.2431361407
  0
LINE
  5
183
330
1F
100
AcDbEntity
  8
0
  6
Continuous
 62
     7
370
    25
100
AcDbLine
 10
-42.3183175695
 20
89.1443259903
 30
0.0
 11
-39.0092488167
 21
78.9600595666
 31
0.0
  0
ARC
  5
184
330
1F
100
AcDbEntity
  8
0
  6
Continuous
 62
     7
370
    25
100
AcDbCircle
 10
-44.2204306021
 20
88.5262920015
 30
0.0
 40
2.000000000000005
100
AcDbArc
 50
18.0
 51
36.1963719123
  0
ARC
  5
185
330
1F
100
AcDbEntity
  8
0
  6
Continuous
 62
     7
370
    25
100
AcDbCircle
 10
-41.1538393082
 20
90.77039936
 30
0.0
 40
1.800000000000003
100
AcDbArc
 50
65.5743849394
 51
216.1963719123
  0
ARC
  5
186
330
1F
100
AcDbEntity
  8
0
  6
Continuous
 62
     7
370
    25
100
AcDbCircle
 10
-39.5824955122
 20
94.2302951207
 30
0.0
 40
2.000000000000008
100
AcDbArc
 50
245.5743849394
 51
288.0
  0
LINE
  5
187
330
1F
100
AcDbEntity
  8
0
  6
Continuous
 62
     7
370
    25
100
AcDbLine
 10
-22.7462322532
 20
97.597804216
 30
0.0
 11
-38.9644615234
 21
92.3281820881
 31
0.0
  0
ARC
  5
188
330
1F
100
AcDbEntity
  8
0
  6
Continuous
 62
     7
370
    25
100
AcDbCircle
 10
-23.364266242
 20
99.4999172486
 30
0.0
 40
2.000000000000008
100
AcDbArc
 50
288.0
 51
330.4256150606
  0
ARC
  5
189
330
1F
100
AcDbEntity
  8
0
  6
Continuous
 62
     7
370
    25
100
AcDbCircle
 10
-20.0593467044
 20
97.6244154891
 30
0.0
 40
1.800000000000004
100
AcDbArc
 50
359.8036280877
 51
150.4256150606
  0
ARC
  5
18A
330
1F
100
AcDbEntity
  8
0
  6
Continuous
 62
     7
370
    25
100
AcDbCircle
 10
-16.259369023
 20
97.6113916361
 30
0.0
 40
2.000000000000002
100
AcDbArc
 50
179.8036280877
 51
198.0
  0
LINE
  5
18B
330
1F
100
AcDbEntity
  8
0
  6
Continuous
 62
     7
370
    25
100
AcDbLine
 10
-14.8524133028
 20
86.8090912237
 30
0.0
 11
-18.1614820556
 21
96.9933576474
 31
0.0
  0
ARC
  5
18C
330
1F
100
AcDbEntity
  8
0
  6
Continuous
 62
     7
370
    25
100
AcDbCircle
 10
-16.5643150322
 20
86.2528606338
 30
0.0
 40
1.800000000000011
100
AcDbArc
 50
229.7568638593
 51
18.0
  0
ARC
  5
18D
330
1F
100
AcDbEntity
  8
0
  6
Continuous
 62
     7
370
    25
100
AcDbCircle
 10
-19.0192386921
 20
83.3522831355
 30
0.0
 40
2.000000000000012
100
AcDbArc
 50
49.7568638593
 51
108.0
  0
LINE
  5
18E
330
1F
100
AcDbEntity
  8
0
  6
Continuous
 62
     7
370
    25
100
AcDbLine
 10
-57.4297560681
 20
65.9981640827
 30
0.0
 11
-45.0212134065
 21
75.0134980369
 31
0.0
  0
ARC
  5
18F
330
1F
100
AcDbEntity
  8
0
  6
Continuous
 62
     7
370
    25
100
AcDbCircle
 10
-56.2541855635
 20
64.3801300939
 30
0.0
 40
2.000000000000007
100
AcDbArc
 50
126.0
 51
184.2431361407
  0
ARC
  5
190
330
1F
100
AcDbEntity
  8
0
  6
Continuous
 62
     7
370
    25
100
AcDbCircle
 10
-60.043769976
 20
64.0989718098
 30
0.0
 40
1.800000000000007
100
AcDbArc
 50
216.0
 51
4.2431361407
  0
LINE
  5
191
330
1F
100
AcDbEntity
  8
0
  6
Continuous
 62
     7
370
    25
100
AcDbLine
 10
-67.7942233662
 20
71.7042128215
 30
0.0
 11
-61.5000005659
 21
63.0409583557
 31
0.0
  0
ARC
  5
192
330
1F
100
AcDbEntity
  8
0
  6
Continuous
 62
     7
370
    25
100
AcDbCircle
 10
-69.4122573549
 20
70.5286423169
 30
0.0
 40
1.999999999999994
100
AcDbArc
 50
36.0
 51
54.1963719123
  0
ARC
  5
193
330
1F
100
AcDbEntity
  8
0
  6
Continuous
 62
     7
370
    25
100
AcDbCircle
 10
-67.1892230331
 20
73.6105440681
 30
0.0
 40
1.799999999999998
100
AcDbArc
 50
83.5743849394
 51
234.1963719123
  0
ARC
  5
194
330
1F
100
AcDbEntity
  8
0
  6
Continuous
 62
     7
370
    25
100
AcDbCircle
 10
-66.7639528654
 20
77.3866724139
 30
0.0
 40
2.000000000000008
100
AcDbArc
 50
263.5743849394
 51
306.0
  0
LINE
  5
195
330
1F
100
AcDbEntity
  8
0
  6
Continuous
 62
     7
370
    25
100
AcDbLine
 10
-51.792332522
 20
85.7920553515
 30
0.0
 11
-65.5883823608
 21
75.7686384252
 31
0.0
  0
ARC
  5
196
330
1F
100
AcDbEntity
  8
0
  6
Continuous
 62
     7
370
    25
100
AcDbCircle
 10
-52.9679030266
 20
87.4100893403
 30
0.0
 40
2.000000000000008
100
AcDbArc
 50
306.0
 51
348.4256150606
  0
ARC
  5
197
330
1F
100
AcDbEntity
  8
0
  6
Continuous
 62
     7
370
    25
100
AcDbCircle
 10
-49.2451758479
 20
86.6476574727
 30
0.0
 40
1.799999999999997
100
AcDbArc
 50
17.8036280877
 51
168.4256150606
  0
ARC
  5
198
330
1F
100
AcDbEntity
  8
0
  6
Continuous
 62
     7
370
    25
100
AcDbCircle
 10
-45.6271577203
 20
87.8095287343
 30
0.0
 40
2.000000000000012
100
AcDbArc
 50
197.8036280877
 51
216.0
  0
LINE
  5
199
330
1F
100
AcDbEntity
  8
0
  6
Continuous
 62
     7
370
    25
100
AcDbLine
 10
-40.9509689087
 20
77.9707037639
 30
0.0
 11
-47.2451917091
 21
86.6339582297
 31
0.0
  0
ARC
  5
19A
330
1F
100
AcDbEntity
  8
0
  6
Continuous
 62
     7
370
    25
100
AcDbCircle
 10
-42.4071994986
 20
76.9126903098
 30
0.0
 40
1.800000000000002
100
AcDbArc
 50
247.7568638593
 51
36.0
  0
ARC
  5
19B
330
1F
100
AcDbEntity
  8
0
  6
Continuous
 62
     7
370
    25
100
AcDbCircle
 10
-43.8456429019
 20
73.3954640481
 30
0.0
 40
2.000000000000013
100
AcDbArc
 50
67.7568638593
 51
126.0
  0
LINE
  5
19C
330
1F
100
AcDbEntity
  8
0
  6
Continuous
 62
     7
370
    25
100
AcDbLine
 10
19.6372726808
 20
85.2543961681
 30
0.0
 11
34.2243894387
 21
80.5147546222
 31
0.0
  0
ARC
  5
19D
330
1F
100
AcDbEntity
  8
0
  6
Continuous
 62
     7
370
    25
100
AcDbCircle
 10
19.0192386921
 20
83.3522831355
 30
0.0
 40
2.000000000000014
100
AcDbArc
 50
72.0
 51
130.2431361407
  0
ARC
  5
19E
330
1F
100
AcDbEntity
  8
0
  6
Continuous
 62
     7
370
    25
100
AcDbCircle
 10
16.5643150322
 20
86.2528606338
 30
0.0
 40
1.800000000000002
100
AcDbArc
 50
162.0
 51
310.2431361407
  0
LINE
  5
19F
330
1F
100
AcDbEntity
  8
0
  6
Continuous
 62
     7
370
    25
100
AcDbLine
 10
18.1614820556
 20
96.9933576474
 30
0.0
 11
14.8524133028
 21
86.8090912237
 31
0.0
  0
ARC
  5
1A0
330
1F
100
AcDbEntity
  8
0
  6
Continuous
 62
     7
370
    25
100
AcDbCircle
 10
16.259369023
 20
97.6113916361
 30
0.0
 40
1.999999999999998
100
AcDbArc
 50
342.0
 51
0.1963719123
  0
ARC
  5
1A1
330
1F
100
AcDbEntity
  8
0
  6
Continuous
 62
     7
370
    25
100
AcDbCircle
 10
20.0593467044
 20
97.6244154891
 30
0.0
 40
1.800000000000002
100
AcDbArc
 50
29.5743849394
 51
180.1963719123
  0
ARC
  5
1A2
330
1F
100
AcDbEntity
  8
0
  6
Continuous
 62
     7
370
    25
100
AcDbCircle
 10
23.364266242
 20
99.4999172486
 30
0.0
 40
2.0
100
AcDbArc
 50
209.5743849394
 51
252.0
  0
LINE
  5
1A3
330
1F
100
AcDbEntity
  8
0
  6
Continuous
 62
     7
370
    25
100
AcDbLine
 10
38.9644615234
 20
92.3281820881
 30
0.0
 11
22.7462322532
 21
97.597804216
 31
0.0
  0
ARC
  5
1A4
330
1F
100
AcDbEntity
  8
0
  6
Continuous
 62
     7
370
    25
100
AcDbCircle
 10
39.5824955122
 20
94.2302951207
 30
0.0
 40
2.0
100
AcDbArc
 50
252.0
 51
294.4256150606
  0
ARC
  5
1A5
330
1F
100
AcDbEntity
  8
0
  6
Continuous
 62
     7
370
    25
100
AcDbCircle
 10
41.1538393082
 20
90.77039936
 30
0.0
 40
1.800000000000006
100
AcDbArc
 50
323.8036280877
 51
114.4256150606
  0
ARC
  5
1A6
330
1F
100
AcDbEntity
  8
0
  6
Continuous
 62
     7
370
    25
100
AcDbCircle
 10
44.2204306021
 20
88.5262920015
 30
0.0
 40
2.00000000000002
100
AcDbArc
 50
143.8036280877
 51
162.0
  0
LINE
  5
1A7
330
1F
100
AcDbEntity
  8
0
  6
Continuous
 62
     7
370
    25
100
AcDbLine
 10
39.0092488167
 20
78.9600595666
 30
0.0
 11
42.3183175695
 21
89.1443259903
 31
0.0
  0
ARC
  5
1A8
330
1F
100
AcDbEntity
  8
0
  6
Continuous
 62
     7
370
    25
100
AcDbCircle
 10
37.2973470874
 20
79.5162901564
 30
0.0
 40
1.800000000000006
100
AcDbArc
 50
193.7568638593
 51
342.0
  0
ARC
  5
1A9
330
1F
100
AcDbEntity
  8
0
  6
Continuous
 62
     7
370
    25
100
AcDbCircle
 10
33.60635545
 20
78.6126415896
 30
0.0
 40
2.000000000000017
100
AcDbArc
 50
13.7568638593
 51
72.0
  0
LINE
  5
1AA
330
1F
100
AcDbEntity
  8
0
  6
Continuous
 62
     7
370
    25
100
AcDbLine
 10
-7.6689011157
 20
87.15
 30
0.0
 11
7.6689011157
 21
87.15
 31
0.0
  0
ARC
  5
1AB
330
1F
100
AcDbEntity
  8
0
  6
Continuous
 62
     7
370
    25
100
AcDbCircle
 10
-7.6689011157
 20
85.15
 30
0.0
 40
2.0
100
AcDbArc
 50
90.0
 51
148.2431361407
  0
ARC
  5
1AC
330
1F
100
AcDbEntity
  8
0
  6
Continuous
 62
     7
370
    25
100
AcDbCircle
 10
-10.9
 20
87.15
 30
0.0
 40
1.800000000000002
100
AcDbArc
 50
180.0
 51
328.2431361407
  0
LINE
  5
1AD
330
1F
100
AcDbEntity
  8
0
  6
Continuous
 62
     7
370
    25
100
AcDbLine
 10
-12.7
 20
97.8583714261
 30
0.0
 11
-12.7
 21
87.15
 31
0.0
  0
ARC
  5
1AE
330
1F
100
AcDbEntity
  8
0
  6
Continuous
 62
     7
370
    25
100
AcDbCircle
 10
-14.7
 20
97.8583714261
 30
0.0
 40
2.000000000000001
100
AcDbArc
 50
0.0
 51
18.1963719123
  0
ARC
  5
1AF
330
1F
100
AcDbEntity
  8
0
  6
Continuous
 62
     7
370
    25
100
AcDbCircle
 10
-11.0900310562
 20
99.0450155281
 30
0.0
 40
1.800000000000005
100
AcDbArc
 50
47.5743849394
 51
198.1963719123
  0
ARC
  5
1B0
330
1F
100
AcDbEntity
  8
0
  6
Continuous
 62
     7
370
    25
100
AcDbCircle
 10
-8.5264277108
 20
101.85
 30
0.0
 40
2.0
100
AcDbArc
 50
227.5743849394
 51
270.0
  0
LINE
  5
1B1
330
1F
100
AcDbEntity
  8
0
  6
Continuous
 62
     7
370
    25
100
AcDbLine
 10
8.5264277108
 20
99.85
 30
0.0
 11
-8.5264277108
 21
99.85
 31
0.0
  0
ARC
  5
1B2
330
1F
100
AcDbEntity
  8
0
  6
Continuous
 62
     7
370
    25
100
AcDbCircle
 10
8.5264277108
 20
101.85
 30
0.0
 40
2.0
100
AcDbArc
 50
270.0
 51
312.4256150606
  0
ARC
  5
1B3
330
1F
100
AcDbEntity
  8
0
  6
Continuous
 62
     7
370
    25
100
AcDbCircle
 10
11.0900310562
 20
99.0450155281
 30
0.0
 40
1.800000000000005
100
AcDbArc
 50
341.8036280877
 51
132.4256150606
  0
ARC
  5
1B4
330
1F
100
AcDbEntity
  8
0
  6
Continuous
 62
     7
370
    25
100
AcDbCircle
 10
14.7
 20
97.8583714261
 30
0.0
 40
2.0
100
AcDbArc
 50
161.8036280877
 51
180.0
  0
LINE
  5
1B5
330
1F
100
AcDbEntity
  8
0
  6
Continuous
 62
     7
370
    25
100
AcDbLine
 10
12.7
 20
87.15
 30
0.0
 11
12.7
 21
97.8583714261
 31
0.0
  0
ARC
  5
1B6
330
1F
100
AcDbEntity
  8
0
  6
Continuous
 62
     7
370
    25
100
AcDbCircle
 10
10.9
 20
87.15
 30
0.0
 40
1.800000000000004
100
AcDbArc
 50
211.7568638593
 51
0.0
  0
ARC
  5
1B7
330
1F
100
AcDbEntity
  8
0
  6
Continuous
 62
     7
370
    25
100
AcDbCircle
 10
7.6689011157
 20
85.15
 30
0.0
 40
2.0
100
AcDbArc
 50
31.7568638593
 51
90.0
  0
CIRCLE
  5
1B8
330
1F
100
AcDbEntity
  8
0
  6
Continuous
 62
     7
370
    25
100
AcDbCircle
 10
0.0
 20
0.0
 30
0.0
 40
109.0
  0
CIRCLE
  5
1B9
330
1F
100
AcDbEntity
  8
0
  6
Continuous
 62
     7
370
    25
100
AcDbCircle
 10
0.0
 20
0.0
 30
0.0
 40
68.50000000000001
  0
MTEXT
  5
1BB
330
1F
100
AcDbEntity
  8
0
  6
Continuous
 62
     7
100
AcDbMText
 10
-109.0
 20
-110.0195663917
 30
0.0
 40
4.83362
 41
0.0
 71
     1
 72
     1
  1
SOLIDWORKS Educational Product.
  7
SLDTEXTSTYLE0
 73
     1
 44
1.0
  0
MTEXT
  5
1BC
330
1F
100
AcDbEntity
  8
0
  6
Continuous
 62
     7
100
AcDbMText
 10
-109.0
 20
-117.2699963917
 30
0.0
 40
4.83362
 41
0.0
 71
     1
 72
     1
  1
For Instructional Use Only.
  7
SLDTEXTSTYLE0
 73
     1
 44
1.0
  0
ENDSEC
  0
SECTION
  2
OBJECTS
  0
DICTIONARY
  5
C
330
0
100
AcDbDictionary
281
     1
  3
ACAD_GROUP
350
D
  3
ACAD_LAYOUT
350
1A
  3
ACAD_MLINESTYLE
350
17
  3
ACAD_PLOTSETTINGS
350
19
  3
ACAD_PLOTSTYLENAME
350
E
  3
ACAD_SCALELIST
350
47
  3
DWGPROPS
350
1BD
  0
DICTIONARY
  5
D
102
{ACAD_REACTORS
330
C
102
}
330
C
100
AcDbDictionary
281
     1
  0
DICTIONARY
  5
1A
102
{ACAD_REACTORS
330
C
102
}
330
C
100
AcDbDictionary
281
     1
  3
Layout1
350
1E
  3
Layout2
350
26
  3
Model
350
22
  0
DICTIONARY
  5
17
102
{ACAD_REACTORS
330
C
102
}
330
C
100
AcDbDictionary
281
     1
  3
Standard
350
18
  0
DICTIONARY
  5
19
102
{ACAD_REACTORS
330
C
102
}
330
C
100
AcDbDictionary
281
     1
  0
ACDBDICTIONARYWDFLT
  5
E
102
{ACAD_REACTORS
330
C
102
}
330
C
100
AcDbDictionary
281
     1
  3
Normal
350
F
100
AcDbDictionaryWithDefault
340
F
  0
DICTIONARY
  5
47
102
{ACAD_REACTORS
330
C
102
}
330
C
100
AcDbDictionary
281
     1
  3
A0
350
48
  3
A1
350
49
  3
A2
350
4A
  3
A3
350
4B
  3
A4
350
4C
  3
A5
350
4D
  3
A6
350
4E
  3
A7
350
4F
  3
A8
350
50
  3
A9
350
51
  3
B0
350
52
  3
B1
350
53
  3
B2
350
54
  3
B3
350
55
  3
B4
350
56
  3
B5
350
57
  3
B6
350
58
  0
XRECORD
  5
1BD
102
{ACAD_REACTORS
330
C
102
}
330
C
100
AcDbXrecord
280
     1
  1
DWGPROPS COOKIE
  2

  3

  4

  6

  7

  8
Misha
  9

300
=
301
=
302
=
303
=
304
=
305
=
306
=
307
=
308
=
309
=
 40
0.0
 41
2461024.854550579
 42
2461024.85457507
  1

 90
        0
  0
LAYOUT
  5
1E
102
{ACAD_REACTORS
330
1A
102
}
330
1A
100
AcDbPlotSettings
  1

  2
none_device
  4

  6

 40
0.0
 41
0.0
 42
0.0
 43
0.0
 44
0.0
 45
0.0
 46
0.0
 47
0.0
 48
0.0
 49
0.0
140
0.0
141
0.0
142
1.0
143
1.0
 70
   688
 72
     1
 73
     0
 74
     5
  7

 75
    16
147
1.0
148
0.0
149
0.0
100
AcDbLayout
  1
Layout1
 70
     1
 71
     1
 10
0.0
 20
0.0
 11
420.0
 21
297.0
 12
0.0
 22
0.0
 32
0.0
 14
1.0000000000E+20
 24
1.0000000000E+20
 34
1.0000000000E+20
 15
-1.0000000000E+20
 25
-1.0000000000E+20
 35
-1.0000000000E+20
146
0.0
 13
0.0
 23
0.0
 33
0.0
 16
1.0
 26
0.0
 36
0.0
 17
0.0
 27
1.0
 37
0.0
 76
     0
330
1B
  0
LAYOUT
  5
26
102
{ACAD_REACTORS
330
1A
102
}
330
1A
100
AcDbPlotSettings
  1

  2
none_device
  4

  6

 40
0.0
 41
0.0
 42
0.0
 43
0.0
 44
0.0
 45
0.0
 46
0.0
 47
0.0
 48
0.0
 49
0.0
140
0.0
141
0.0
142
1.0
143
1.0
 70
   688
 72
     1
 73
     0
 74
     5
  7

 75
    16
147
1.0
148
0.0
149
0.0
100
AcDbLayout
  1
Layout2
 70
     1
 71
     2
 10
0.0
 20
0.0
 11
0.0
 21
0.0
 12
0.0
 22
0.0
 32
0.0
 14
0.0
 24
0.0
 34
0.0
 15
0.0
 25
0.0
 35
0.0
146
0.0
 13
0.0
 23
0.0
 33
0.0
 16
1.0
 26
0.0
 36
0.0
 17
0.0
 27
1.0
 37
0.0
 76
     0
330
23
  0
LAYOUT
  5
22
102
{ACAD_REACTORS
330
1A
102
}
330
1A
100
AcDbPlotSettings
  1

  2
none_device
  4
ANSI_A_(11.00_x_8.50_Inches)
  6

 40
6.35
 41
19.05
 42
6.35000508
 43
19.05000254
 44
279.4
 45
215.9
 46
133.34999746
 47
88.89999873
 48
0.0
 49
0.0
140
0.0
141
0.0
142
0.0386009174
143
1.0
 70
  1696
 72
     0
 73
     0
 74
     0
  7

 75
     0
147
0.0179189148
148
-1300.4909072572
149
0.0
100
AcDbLayout
  1
Model
 70
     1
 71
     0
 10
0.0
 20
0.0
 11
420.0
 21
297.0
 12
0.0
 22
0.0
 32
0.0
 14
-109.0
 24
-109.0
 34
0.0
 15
109.0
 25
109.0
 35
0.0
146
0.0
 13
0.0
 23
0.0
 33
0.0
 16
1.0
 26
0.0
 36
0.0
 17
0.0
 27
1.0
 37
0.0
 76
     0
330
1F
331
29
  0
MLINESTYLE
  5
18
102
{ACAD_REACTORS
330
17
102
}
330
17
100
AcDbMlineStyle
  2
Standard
 70
     0
  3

 62
   256
 51
90.0
 52
90.0
 71
     2
 49
0.5
 62
   256
  6
BYLAYER
 49
-0.5
 62
   256
  6
BYLAYER
  0
ACDBPLACEHOLDER
  5
F
102
{ACAD_REACTORS
330
E
102
}
330
E
  0
SCALE
  5
48
102
{ACAD_REACTORS
330
47
102
}
330
47
100
AcDbScale
 70
     0
300
1:1
140
1.0
141
1.0
290
     1
  0
SCALE
  5
49
102
{ACAD_REACTORS
330
47
102
}
330
47
100
AcDbScale
 70
     0
300
1:2
140
1.0
141
2.0
290
     0
  0
SCALE
  5
4A
102
{ACAD_REACTORS
330
47
102
}
330
47
100
AcDbScale
 70
     0
300
1:4
140
1.0
141
4.0
290
     0
  0
SCALE
  5
4B
102
{ACAD_REACTORS
330
47
102
}
330
47
100
AcDbScale
 70
     0
300
1:5
140
1.0
141
5.0
290
     0
  0
SCALE
  5
4C
102
{ACAD_REACTORS
330
47
102
}
330
47
100
AcDbScale
 70
     0
300
1:8
140
1.0
141
8.0
290
     0
  0
SCALE
  5
4D
102
{ACAD_REACTORS
330
47
102
}
330
47
100
AcDbScale
 70
     0
300
1:10
140
1.0
141
10.0
290
     0
  0
SCALE
  5
4E
102
{ACAD_REACTORS
330
47
102
}
330
47
100
AcDbScale
 70
     0
300
1:16
140
1.0
141
16.0
290
     0
  0
SCALE
  5
4F
102
{ACAD_REACTORS
330
47
102
}
330
47
100
AcDbScale
 70
     0
300
1:20
140
1.0
141
20.0
290
     0
  0
SCALE
  5
50
102
{ACAD_REACTORS
330
47
102
}
330
47
100
AcDbScale
 70
     0
300
1:30
140
1.0
141
30.0
290
     0
  0
SCALE
  5
51
102
{ACAD_REACTORS
330
47
102
}
330
47
100
AcDbScale
 70
     0
300
1:40
140
1.0
141
40.0
290
     0
  0
SCALE
  5
52
102
{ACAD_REACTORS
330
47
102
}
330
47
100
AcDbScale
 70
     0
300
1:50
140
1.0
141
50.0
290
     0
  0
SCALE
  5
53
102
{ACAD_REACTORS
330
47
102
}
330
47
100
AcDbScale
 70
     0
300
1:100
140
1.0
141
100.0
290
     0
  0
SCALE
  5
54
102
{ACAD_REACTORS
330
47
102
}
330
47
100
AcDbScale
 70
     0
300
2:1
140
2.0
141
1.0
290
     0
  0
SCALE
  5
55
102
{ACAD_REACTORS
330
47
102
}
330
47
100
AcDbScale
 70
     0
300
4:1
140
4.0
141
1.0
290
     0
  0
SCALE
  5
56
102
{ACAD_REACTORS
330
47
102
}
330
47
100
AcDbScale
 70
     0
300
8:1
140
8.0
141
1.0
290
     0
  0
SCALE
  5
57
102
{ACAD_REACTORS
330
47
102
}
330
47
100
AcDbScale
 70
     0
300
10:1
140
10.0
141
1.0
290
     0
  0
SCALE
  5
58
102
{ACAD_REACTORS
330
47
102
}
330
47
100
AcDbScale
 70
     0
300
100:1
140
100.0
141
1.0
290
     0
  0
ENDSEC
  0
EOF
